<?xml version="1.0" encoding="UTF-8" standalone="no"?>
<!DOCTYPE svg PUBLIC "-//W3C//DTD SVG 1.1//EN" "http://www.w3.org/Graphics/SVG/1.1/DTD/svg11.dtd">
<!-- Generated by Microsoft Visio, SVG Export authorization_solution_components.svg Page-1 -->
<svg xmlns="http://www.w3.org/2000/svg" xmlns:xlink="http://www.w3.org/1999/xlink" xmlns:ev="http://www.w3.org/2001/xml-events"
		xmlns:v="http://schemas.microsoft.com/visio/2003/SVGExtensions/" width="10.6951in" height="9.08792in"
		viewBox="0 0 770.045 654.33" xml:space="preserve" color-interpolation-filters="sRGB" class="st17">
	<v:documentProperties v:langID="1033" v:metric="true" v:viewMarkup="false">
		<v:userDefs>
			<v:ud v:nameU="DisableSpdActionTags" v:prompt="" v:val="VT0(0):26"/>
		</v:userDefs>
	</v:documentProperties>

	<style type="text/css">
	<![CDATA[
		.st1 {visibility:visible}
		.st2 {fill:#5b9bd5;fill-opacity:0.22;filter:url(#filter_2);stroke:#5b9bd5;stroke-opacity:0.22}
		.st3 {fill:#d8d8d8;stroke:#c7c8c8;stroke-width:0.25}
		.st4 {fill:#ffc000;stroke:#c7c8c8;stroke-width:0.25}
		.st5 {fill:#feffff;font-family:Calibri;font-size:1.00001em}
		.st6 {font-size:1em}
		.st7 {marker-end:url(#mrkr4-30);stroke:#5b9bd5;stroke-linecap:round;stroke-linejoin:round;stroke-width:1}
		.st8 {fill:#5b9bd5;fill-opacity:1;stroke:#5b9bd5;stroke-opacity:1;stroke-width:0.28409090909091}
		.st9 {fill:#5b9bd5;fill-opacity:0.22;filter:url(#filter_2)}
		.st10 {fill:none;filter:url(#filter_2);stroke:#5b9bd5;stroke-opacity:0.22}
		.st11 {fill:#5b9bd5}
		.st12 {stroke:#c8c8c8;stroke-width:0.25}
		.st13 {fill:#feffff;font-family:Calibri;font-size:0.666664em}
		.st14 {fill:none;stroke:none;stroke-width:0.25}
		.st15 {fill:#5b9bd5;font-family:Calibri;font-size:1.00001em}
		.st16 {fill:#f4b183;stroke:#c7c8c8;stroke-width:0.25}
		.st17 {fill:none;fill-rule:evenodd;font-size:12px;overflow:visible;stroke-linecap:square;stroke-miterlimit:3}
	]]>
	</style>

	<defs id="Markers">
		<g id="lend4">
			<path d="M 2 1 L 0 0 L 2 -1 L 2 1 " style="stroke:none"/>
		</g>
		<marker id="mrkr4-30" class="st8" v:arrowType="4" v:arrowSize="2" v:setback="7.04" refX="-7.04" orient="auto"
				markerUnits="strokeWidth" overflow="visible">
			<use xlink:href="#lend4" transform="scale(-3.52,-3.52) "/>
		</marker>
	</defs>
	<defs id="Filters">
		<filter id="filter_2">
			<feGaussianBlur stdDeviation="2"/>
		</filter>
	</defs>
	<g v:mID="0" v:index="1" v:groupContext="foregroundPage">
		<title>Page-1</title>
		<v:pageProperties v:drawingScale="0.0393701" v:pageScale="0.0393701" v:drawingUnits="24" v:shadowOffsetX="8.50394"
				v:shadowOffsetY="-8.50394"/>
		<v:layer v:name="Connector" v:index="0"/>
		<v:layer v:name="Flowchart" v:index="1"/>
		<g id="shape1-1" v:mID="1" v:groupContext="shape" transform="translate(2.77941,-66.0427)">
			<title>Sheet.1</title>
			<g id="shadow1-2" v:groupContext="shadow" v:shadowOffsetX="0.345598" v:shadowOffsetY="-1.97279" v:shadowType="1"
					transform="matrix(1,0,0,1,0.345598,1.97279)" class="st1">
				<rect x="0" y="407.716" width="467.575" height="246.614" class="st2"/>
			</g>
			<rect x="0" y="407.716" width="467.575" height="246.614" class="st3"/>
		</g>
		<g id="shape2-6" v:mID="2" v:groupContext="shape" transform="translate(90.7952,-172.625)">
			<title>Sheet.2</title>
			<desc>Context Handler</desc>
			<v:textBlock v:margins="rect(4,4,4,4)" v:tabSpace="42.5197"/>
			<v:textRect cx="39.5433" cy="634.488" width="79.09" height="39.685"/>
			<g id="shadow2-7" v:groupContext="shadow" v:shadowOffsetX="0.345598" v:shadowOffsetY="-1.97279" v:shadowType="1"
					transform="matrix(1,0,0,1,0.345598,1.97279)" class="st1">
				<rect x="0" y="614.645" width="79.0866" height="39.685" class="st2"/>
			</g>
			<rect x="0" y="614.645" width="79.0866" height="39.685" class="st4"/>
			<text x="20.42" y="630.89" class="st5" v:langID="1044"><v:paragraph v:horizAlign="1"/><v:tabList/>Context <tspan
						x="20.17" dy="1.2em" class="st6">Handler</tspan></text>		</g>
		<g id="shape3-13" v:mID="3" v:groupContext="shape" transform="translate(33.8188,-92.9718)">
			<title>Sheet.3</title>
			<desc>PIP Subject</desc>
			<v:textBlock v:margins="rect(4,4,4,4)" v:tabSpace="42.5197"/>
			<v:textRect cx="39.5433" cy="634.488" width="79.09" height="39.685"/>
			<g id="shadow3-14" v:groupContext="shadow" v:shadowOffsetX="0.345598" v:shadowOffsetY="-1.97279" v:shadowType="1"
					transform="matrix(1,0,0,1,0.345598,1.97279)" class="st1">
				<rect x="0" y="614.645" width="79.0866" height="39.685" class="st2"/>
			</g>
			<rect x="0" y="614.645" width="79.0866" height="39.685" class="st4"/>
			<text x="12.45" y="638.09" class="st5" v:langID="1044"><v:paragraph v:horizAlign="1"/><v:tabList/>PIP Subject</text>		</g>
		<g id="shape4-19" v:mID="4" v:groupContext="shape" transform="translate(124.527,-92.9718)">
			<title>Sheet.4</title>
			<desc>PIP Resource</desc>
			<v:textBlock v:margins="rect(4,4,4,4)" v:tabSpace="42.5197"/>
			<v:textRect cx="39.5433" cy="634.488" width="79.09" height="39.685"/>
			<g id="shadow4-20" v:groupContext="shadow" v:shadowOffsetX="0.345598" v:shadowOffsetY="-1.97279" v:shadowType="1"
					transform="matrix(1,0,0,1,0.345598,1.97279)" class="st1">
				<rect x="0" y="614.645" width="79.0866" height="39.685" class="st2"/>
			</g>
			<rect x="0" y="614.645" width="79.0866" height="39.685" class="st4"/>
			<text x="7.96" y="638.09" class="st5" v:langID="1044"><v:paragraph v:horizAlign="1"/><v:tabList/>PIP Resource</text>		</g>
		<g id="shape5-25" v:mID="5" v:groupContext="shape" v:layerMember="0" transform="translate(94.7637,-172.625)">
			<title>Dynamic connector</title>
			<v:userDefs>
				<v:ud v:nameU="visVersion" v:val="VT0(12):26"/>
			</v:userDefs>
			<path d="M7.09 654.33 L7.09 687.26" class="st7"/>
		</g>
		<g id="shape6-31" v:mID="6" v:groupContext="shape" v:layerMember="0" transform="translate(140.118,-172.625)">
			<title>Dynamic connector.6</title>
			<v:userDefs>
				<v:ud v:nameU="visVersion" v:val="VT0(12):26"/>
			</v:userDefs>
			<path d="M7.09 654.33 L7.09 687.26" class="st7"/>
		</g>
		<g id="shape7-36" v:mID="7" v:groupContext="shape" transform="translate(164.212,-263.051)">
			<title>Sheet.7</title>
			<desc>Authorization API</desc>
			<v:textBlock v:margins="rect(4,4,4,4)" v:tabSpace="42.5197"/>
			<v:textRect cx="39.5433" cy="634.488" width="79.09" height="39.685"/>
			<g id="shadow7-37" v:groupContext="shadow" v:shadowOffsetX="0.345598" v:shadowOffsetY="-1.97279" v:shadowType="1"
					transform="matrix(1,0,0,1,0.345598,1.97279)" class="st1">
				<rect x="0" y="614.645" width="79.0866" height="39.685" class="st2"/>
			</g>
			<rect x="0" y="614.645" width="79.0866" height="39.685" class="st4"/>
			<text x="6.18" y="630.89" class="st5" v:langID="1044"><v:paragraph v:horizAlign="1"/><v:tabList/>Authorization <tspan
						x="31.46" dy="1.2em" class="st6">API</tspan></text>		</g>
		<g id="shape8-43" v:mID="8" v:groupContext="shape" transform="translate(252.086,-92.9718)">
			<title>Sheet.8</title>
			<desc>PRP</desc>
			<v:textBlock v:margins="rect(4,4,4,4)" v:tabSpace="42.5197"/>
			<v:textRect cx="39.5433" cy="634.488" width="79.09" height="39.685"/>
			<g id="shadow8-44" v:groupContext="shadow" v:shadowOffsetX="0.345598" v:shadowOffsetY="-1.97279" v:shadowType="1"
					transform="matrix(1,0,0,1,0.345598,1.97279)" class="st1">
				<rect x="0" y="614.645" width="79.0866" height="39.685" class="st2"/>
			</g>
			<rect x="0" y="614.645" width="79.0866" height="39.685" class="st4"/>
			<text x="30.09" y="638.09" class="st5" v:langID="1044"><v:paragraph v:horizAlign="1"/><v:tabList/>PRP</text>		</g>
		<g id="shape9-49" v:mID="9" v:groupContext="shape" v:layerMember="1" transform="translate(257.756,-5.0978)">
			<title>Database</title>
			<desc>Policy Store</desc>
			<v:custProps>
				<v:cp v:nameU="Cost" v:lbl="Cost" v:type="7" v:format="@" v:langID="1033"/>
				<v:cp v:nameU="Duration" v:lbl="Duration" v:type="2" v:langID="1033"/>
				<v:cp v:nameU="Resources" v:lbl="Resources" v:langID="1033"/>
			</v:custProps>
			<v:userDefs>
				<v:ud v:nameU="visVersion" v:val="VT0(15):26"/>
			</v:userDefs>
			<v:textBlock v:margins="rect(2,2,2,2)" v:tabSpace="42.5197"/>
			<v:textRect cx="35.4331" cy="643.7" width="70.87" height="21.2598"/>
			<g id="shadow9-50" v:groupContext="shadow" v:shadowOffsetX="0.345598" v:shadowOffsetY="-1.97279" v:shadowType="1"
					transform="matrix(1,0,0,1,0.345598,1.97279)" class="st1">
				<path d="M0 618.9 L0 647.24 A35.4331 7.08661 -180 1 0 70.87 647.24 L70.87 618.9 A35.4331 7.08661 -180 0 0 0 618.9
							 Z" class="st9"/>
				<path d="M0 618.9 L0 647.24 A35.4331 7.08661 -180 1 0 70.87 647.24 L70.87 618.9 A35.4331 7.08661 -180 0 0 0 618.9"
						class="st10"/>
				<path d="M0 618.9 A35.4331 7.08661 -180 1 0 70.87 618.9" class="st10"/>
				<path d="M0 622.44 A35.4331 7.08661 -180 0 0 70.87 622.44" class="st10"/>
				<path d="M0 625.98 A35.4331 7.08661 -180 1 0 70.87 625.98" class="st10"/>
			</g>
			<path d="M0 618.9 L0 647.24 A35.4331 7.08661 -180 1 0 70.87 647.24 L70.87 618.9 A35.4331 7.08661 -180 0 0 0 618.9 Z"
					class="st11"/>
			<path d="M0 618.9 L0 647.24 A35.4331 7.08661 -180 1 0 70.87 647.24 L70.87 618.9 A35.4331 7.08661 -180 0 0 0 618.9"
					class="st12"/>
			<path d="M0 618.9 A35.4331 7.08661 -180 1 0 70.87 618.9" class="st12"/>
			<path d="M0 622.44 A35.4331 7.08661 -180 0 0 70.87 622.44" class="st12"/>
			<path d="M0 625.98 A35.4331 7.08661 -180 1 0 70.87 625.98" class="st12"/>
			<text x="16.34" y="646.1" class="st13" v:langID="1044"><v:paragraph v:horizAlign="1"/><v:tabList/>Policy Store</text>		</g>
		<g id="shape10-64" v:mID="10" v:groupContext="shape" transform="translate(306.228,-206.358)">
			<title>Sheet.10</title>
			<desc>PDP (XACML 3.0)</desc>
			<v:textBlock v:margins="rect(4,4,4,4)" v:tabSpace="42.5197"/>
			<v:textRect cx="39.5433" cy="634.488" width="79.09" height="39.685"/>
			<g id="shadow10-65" v:groupContext="shadow" v:shadowOffsetX="0.345598" v:shadowOffsetY="-1.97279" v:shadowType="1"
					transform="matrix(1,0,0,1,0.345598,1.97279)" class="st1">
				<rect x="0" y="614.645" width="79.0866" height="39.685" class="st2"/>
			</g>
			<rect x="0" y="614.645" width="79.0866" height="39.685" class="st4"/>
			<text x="9.04" y="630.89" class="st5" v:langID="1044"><v:paragraph v:horizAlign="1"/><v:tabList/>PDP (XACML <tspan
						x="30.13" dy="1.2em" class="st6">3.0)</tspan></text>		</g>
		<g id="shape11-71" v:mID="11" v:groupContext="shape" v:layerMember="1" transform="translate(130.197,-5.0978)">
			<title>Database.11</title>
			<desc>Resource Store</desc>
			<v:custProps>
				<v:cp v:nameU="Cost" v:lbl="Cost" v:type="7" v:format="@" v:langID="1033"/>
				<v:cp v:nameU="Duration" v:lbl="Duration" v:type="2" v:langID="1033"/>
				<v:cp v:nameU="Resources" v:lbl="Resources" v:langID="1033"/>
			</v:custProps>
			<v:userDefs>
				<v:ud v:nameU="visVersion" v:val="VT0(15):26"/>
			</v:userDefs>
			<v:textBlock v:margins="rect(2,2,2,2)" v:tabSpace="42.5197"/>
			<v:textRect cx="35.4331" cy="643.7" width="70.87" height="21.2598"/>
			<g id="shadow11-72" v:groupContext="shadow" v:shadowOffsetX="0.345598" v:shadowOffsetY="-1.97279" v:shadowType="1"
					transform="matrix(1,0,0,1,0.345598,1.97279)" class="st1">
				<path d="M0 618.9 L0 647.24 A35.4331 7.08661 -180 1 0 70.87 647.24 L70.87 618.9 A35.4331 7.08661 -180 0 0 0 618.9
							 Z" class="st9"/>
				<path d="M0 618.9 L0 647.24 A35.4331 7.08661 -180 1 0 70.87 647.24 L70.87 618.9 A35.4331 7.08661 -180 0 0 0 618.9"
						class="st10"/>
				<path d="M0 618.9 A35.4331 7.08661 -180 1 0 70.87 618.9" class="st10"/>
				<path d="M0 622.44 A35.4331 7.08661 -180 0 0 70.87 622.44" class="st10"/>
				<path d="M0 625.98 A35.4331 7.08661 -180 1 0 70.87 625.98" class="st10"/>
			</g>
			<path d="M0 618.9 L0 647.24 A35.4331 7.08661 -180 1 0 70.87 647.24 L70.87 618.9 A35.4331 7.08661 -180 0 0 0 618.9 Z"
					class="st11"/>
			<path d="M0 618.9 L0 647.24 A35.4331 7.08661 -180 1 0 70.87 647.24 L70.87 618.9 A35.4331 7.08661 -180 0 0 0 618.9"
					class="st12"/>
			<path d="M0 618.9 A35.4331 7.08661 -180 1 0 70.87 618.9" class="st12"/>
			<path d="M0 622.44 A35.4331 7.08661 -180 0 0 70.87 622.44" class="st12"/>
			<path d="M0 625.98 A35.4331 7.08661 -180 1 0 70.87 625.98" class="st12"/>
			<text x="10.84" y="646.1" class="st13" v:langID="1044"><v:paragraph v:horizAlign="1"/><v:tabList/>Resource Store</text>		</g>
		<g id="shape12-86" v:mID="12" v:groupContext="shape" v:layerMember="1" transform="translate(28.1495,-5.0978)">
			<title>Database.12</title>
			<desc>Role Store</desc>
			<v:custProps>
				<v:cp v:nameU="Cost" v:lbl="Cost" v:type="7" v:format="@" v:langID="1033"/>
				<v:cp v:nameU="Duration" v:lbl="Duration" v:type="2" v:langID="1033"/>
				<v:cp v:nameU="Resources" v:lbl="Resources" v:langID="1033"/>
			</v:custProps>
			<v:userDefs>
				<v:ud v:nameU="visVersion" v:val="VT0(15):26"/>
			</v:userDefs>
			<v:textBlock v:margins="rect(2,2,2,2)" v:tabSpace="42.5197"/>
			<v:textRect cx="35.4331" cy="643.7" width="70.87" height="21.2598"/>
			<g id="shadow12-87" v:groupContext="shadow" v:shadowOffsetX="0.345598" v:shadowOffsetY="-1.97279" v:shadowType="1"
					transform="matrix(1,0,0,1,0.345598,1.97279)" class="st1">
				<path d="M0 618.9 L0 647.24 A35.4331 7.08661 -180 1 0 70.87 647.24 L70.87 618.9 A35.4331 7.08661 -180 0 0 0 618.9
							 Z" class="st9"/>
				<path d="M0 618.9 L0 647.24 A35.4331 7.08661 -180 1 0 70.87 647.24 L70.87 618.9 A35.4331 7.08661 -180 0 0 0 618.9"
						class="st10"/>
				<path d="M0 618.9 A35.4331 7.08661 -180 1 0 70.87 618.9" class="st10"/>
				<path d="M0 622.44 A35.4331 7.08661 -180 0 0 70.87 622.44" class="st10"/>
				<path d="M0 625.98 A35.4331 7.08661 -180 1 0 70.87 625.98" class="st10"/>
			</g>
			<path d="M0 618.9 L0 647.24 A35.4331 7.08661 -180 1 0 70.87 647.24 L70.87 618.9 A35.4331 7.08661 -180 0 0 0 618.9 Z"
					class="st11"/>
			<path d="M0 618.9 L0 647.24 A35.4331 7.08661 -180 1 0 70.87 647.24 L70.87 618.9 A35.4331 7.08661 -180 0 0 0 618.9"
					class="st12"/>
			<path d="M0 618.9 A35.4331 7.08661 -180 1 0 70.87 618.9" class="st12"/>
			<path d="M0 622.44 A35.4331 7.08661 -180 0 0 70.87 622.44" class="st12"/>
			<path d="M0 625.98 A35.4331 7.08661 -180 1 0 70.87 625.98" class="st12"/>
			<text x="18.67" y="646.1" class="st13" v:langID="1044"><v:paragraph v:horizAlign="1"/><v:tabList/>Role Store</text>		</g>
		<g id="shape13-101" v:mID="13" v:groupContext="shape" v:layerMember="0" transform="translate(56.4959,-92.9718)">
			<title>Dynamic connector.13</title>
			<v:userDefs>
				<v:ud v:nameU="visVersion" v:val="VT0(12):26"/>
			</v:userDefs>
			<path d="M7.09 654.33 L7.09 692.64" class="st7"/>
		</g>
		<g id="shape14-106" v:mID="14" v:groupContext="shape" v:layerMember="0" transform="translate(158.543,-92.9718)">
			<title>Dynamic connector.14</title>
			<v:userDefs>
				<v:ud v:nameU="visVersion" v:val="VT0(12):26"/>
			</v:userDefs>
			<path d="M7.09 654.33 L7.09 692.64" class="st7"/>
		</g>
		<g id="shape15-111" v:mID="15" v:groupContext="shape" v:layerMember="0" transform="translate(286.102,-92.9718)">
			<title>Dynamic connector.15</title>
			<v:userDefs>
				<v:ud v:nameU="visVersion" v:val="VT0(12):26"/>
			</v:userDefs>
			<path d="M7.09 654.33 L7.09 692.64" class="st7"/>
		</g>
		<g id="shape16-116" v:mID="16" v:groupContext="shape" v:layerMember="0" transform="translate(222.642,-263.051)">
			<title>Dynamic connector.16</title>
			<v:userDefs>
				<v:ud v:nameU="visVersion" v:val="VT0(12):26"/>
			</v:userDefs>
			<path d="M0 654.33 L0 733.95 L-45.72 733.95" class="st7"/>
		</g>
		<g id="shape17-121" v:mID="17" v:groupContext="shape" v:layerMember="0" transform="translate(243.299,-273.858)">
			<title>Dynamic connector.17</title>
			<v:userDefs>
				<v:ud v:nameU="visVersion" v:val="VT0(12):26"/>
			</v:userDefs>
			<path d="M0 654.33 L25.26 654.33 A2.3622 2.3622 0 1 1 29.98 654.33 L102.47 654.33 L102.47 675.11" class="st7"/>
		</g>
		<g id="shape18-126" v:mID="18" v:groupContext="shape" v:layerMember="0" transform="translate(243.299,-279.261)">
			<title>Dynamic connector.18</title>
			<v:userDefs>
				<v:ud v:nameU="visVersion" v:val="VT0(12):26"/>
			</v:userDefs>
			<path d="M0 654.33 L27.62 654.33 L27.62 793.89" class="st7"/>
		</g>
		<g id="shape20-131" v:mID="20" v:groupContext="shape" transform="translate(2.77941,-291.397)">
			<title>Sheet.20</title>
			<desc>Altinn Platform Authorization</desc>
			<v:textBlock v:margins="rect(4,4,4,4)" v:tabSpace="42.5197"/>
			<v:textRect cx="76" cy="644.33" width="152.01" height="20"/>
			<rect x="0" y="634.33" width="152" height="20" class="st14"/>
			<text x="4.14" y="647.93" class="st15" v:langID="1044"><v:paragraph v:horizAlign="1"/><v:tabList/>Altinn Platform Authorization</text>		</g>
		<g id="shape22-134" v:mID="22" v:groupContext="shape" transform="translate(2.77941,-438.798)">
			<title>Sheet.22</title>
			<g id="shadow22-135" v:groupContext="shadow" v:shadowOffsetX="0.345598" v:shadowOffsetY="-1.97279" v:shadowType="1"
					transform="matrix(1,0,0,1,0.345598,1.97279)" class="st1">
				<rect x="0" y="439.951" width="481.748" height="214.38" class="st2"/>
			</g>
			<rect x="0" y="439.951" width="481.748" height="214.38" class="st3"/>
		</g>
		<g id="shape23-139" v:mID="23" v:groupContext="shape" transform="translate(181.22,-526.146)">
			<title>Sheet.23</title>
			<desc>PEP</desc>
			<v:textBlock v:margins="rect(4,4,4,4)" v:tabSpace="42.5197"/>
			<v:textRect cx="39.5433" cy="634.488" width="79.09" height="39.685"/>
			<g id="shadow23-140" v:groupContext="shadow" v:shadowOffsetX="0.345598" v:shadowOffsetY="-1.97279" v:shadowType="1"
					transform="matrix(1,0,0,1,0.345598,1.97279)" class="st1">
				<rect x="0" y="614.645" width="79.0866" height="39.685" class="st2"/>
			</g>
			<rect x="0" y="614.645" width="79.0866" height="39.685" class="st4"/>
			<text x="30.41" y="638.09" class="st5" v:langID="1044"><v:paragraph v:horizAlign="1"/><v:tabList/>PEP</text>		</g>
		<g id="shape24-145" v:mID="24" v:groupContext="shape" transform="translate(181.22,-467.145)">
			<title>Sheet.24</title>
			<desc>Business Logic</desc>
			<v:textBlock v:margins="rect(4,4,4,4)" v:tabSpace="42.5197"/>
			<v:textRect cx="39.5433" cy="634.488" width="79.09" height="39.685"/>
			<g id="shadow24-146" v:groupContext="shadow" v:shadowOffsetX="0.345598" v:shadowOffsetY="-1.97279" v:shadowType="1"
					transform="matrix(1,0,0,1,0.345598,1.97279)" class="st1">
				<rect x="0" y="614.645" width="79.0866" height="39.685" class="st2"/>
			</g>
			<rect x="0" y="614.645" width="79.0866" height="39.685" class="st16"/>
			<text x="4.79" y="638.09" class="st5" v:langID="1044"><v:paragraph v:horizAlign="1"/><v:tabList/>Business Logic</text>		</g>
		<g id="shape25-151" v:mID="25" v:groupContext="shape" transform="translate(181.22,-597.539)">
			<title>Sheet.25</title>
			<desc>API</desc>
			<v:textBlock v:margins="rect(4,4,4,4)" v:tabSpace="42.5197"/>
			<v:textRect cx="39.5433" cy="634.488" width="79.09" height="39.685"/>
			<g id="shadow25-152" v:groupContext="shadow" v:shadowOffsetX="0.345598" v:shadowOffsetY="-1.97279" v:shadowType="1"
					transform="matrix(1,0,0,1,0.345598,1.97279)" class="st1">
				<rect x="0" y="614.645" width="79.0866" height="39.685" class="st2"/>
			</g>
			<rect x="0" y="614.645" width="79.0866" height="39.685" class="st16"/>
			<text x="31.46" y="638.09" class="st5" v:langID="1044"><v:paragraph v:horizAlign="1"/><v:tabList/>API</text>		</g>
		<g id="shape26-157" v:mID="26" v:groupContext="shape" v:layerMember="0" transform="translate(213.677,-597.539)">
			<title>Dynamic connector.26</title>
			<v:userDefs>
				<v:ud v:nameU="visVersion" v:val="VT0(12):26"/>
			</v:userDefs>
			<path d="M7.09 654.33 L7.09 679" class="st7"/>
		</g>
		<g id="shape27-162" v:mID="27" v:groupContext="shape" v:layerMember="0" transform="translate(197.794,-526.146)">
			<title>Dynamic connector.27</title>
			<v:userDefs>
				<v:ud v:nameU="visVersion" v:val="VT0(12):26"/>
			</v:userDefs>
			<path d="M7.09 654.33 L7.09 666.61" class="st7"/>
		</g>
		<g id="shape28-167" v:mID="28" v:groupContext="shape" v:layerMember="0" transform="translate(184.055,-545.988)">
			<title>Dynamic connector.28</title>
			<v:userDefs>
				<v:ud v:nameU="visVersion" v:val="VT0(12):26"/>
			</v:userDefs>
			<path d="M-2.83 654.33 L-11.34 654.33 L-11.34 890.54" class="st7"/>
		</g>
		<g id="shape29-172" v:mID="29" v:groupContext="shape" transform="translate(2.77941,-627.224)">
			<title>Sheet.29</title>
			<desc>Altinn Apps App</desc>
			<v:textBlock v:margins="rect(4,4,4,4)" v:tabSpace="42.5197"/>
			<v:textRect cx="76" cy="644.33" width="152.01" height="20"/>
			<rect x="0" y="634.33" width="152" height="20" class="st14"/>
			<text x="36.85" y="647.93" class="st15" v:langID="1044"><v:paragraph v:horizAlign="1"/><v:tabList/>Altinn Apps App</text>		</g>
		<g id="shape30-175" v:mID="30" v:groupContext="shape" transform="translate(569.597,-254.547)">
			<title>Sheet.30</title>
			<g id="shadow30-176" v:groupContext="shadow" v:shadowOffsetX="0.345598" v:shadowOffsetY="-1.97279" v:shadowType="1"
					transform="matrix(1,0,0,1,0.345598,1.97279)" class="st1">
				<rect x="0" y="439.951" width="196.978" height="214.38" class="st2"/>
			</g>
			<rect x="0" y="439.951" width="196.978" height="214.38" class="st3"/>
		</g>
		<g id="shape31-180" v:mID="31" v:groupContext="shape" transform="translate(612.37,-362.263)">
			<title>Sheet.31</title>
			<desc>PAP</desc>
			<v:textBlock v:margins="rect(4,4,4,4)" v:tabSpace="42.5197"/>
			<v:textRect cx="39.5433" cy="634.488" width="79.09" height="39.685"/>
			<g id="shadow31-181" v:groupContext="shadow" v:shadowOffsetX="0.345598" v:shadowOffsetY="-1.97279" v:shadowType="1"
					transform="matrix(1,0,0,1,0.345598,1.97279)" class="st1">
				<rect x="0" y="614.645" width="79.0866" height="39.685" class="st2"/>
			</g>
			<rect x="0" y="614.645" width="79.0866" height="39.685" class="st4"/>
			<text x="29.87" y="638.09" class="st5" v:langID="1044"><v:paragraph v:horizAlign="1"/><v:tabList/>PAP</text>		</g>
		<g id="shape32-186" v:mID="32" v:groupContext="shape" v:layerMember="0" transform="translate(651.913,-362.263)">
			<title>Dynamic connector.32</title>
			<v:userDefs>
				<v:ud v:nameU="visVersion" v:val="VT0(12):26"/>
			</v:userDefs>
			<path d="M0 654.33 L0 990.24 L-316.25 990.24" class="st7"/>
		</g>
		<g id="shape33-191" v:mID="33" v:groupContext="shape" transform="translate(581.976,-438.798)">
			<title>Sheet.33</title>
			<desc>Altinn Studio</desc>
			<v:textBlock v:margins="rect(4,4,4,4)" v:tabSpace="42.5197"/>
			<v:textRect cx="76" cy="644.33" width="152.01" height="20"/>
			<rect x="0" y="634.33" width="152" height="20" class="st14"/>
			<text x="44.49" y="647.93" class="st15" v:langID="1044"><v:paragraph v:horizAlign="1"/><v:tabList/>Altinn Studio</text>		</g>
	</g>
</svg>
