<?xml version="1.0" encoding="UTF-8" standalone="no"?>
<!DOCTYPE svg PUBLIC "-//W3C//DTD SVG 1.1//EN" "http://www.w3.org/Graphics/SVG/1.1/DTD/svg11.dtd">
<!-- Generated by Microsoft Visio, SVG Export ReactAppArchitecture.svg Page-18 -->
<svg xmlns="http://www.w3.org/2000/svg" xmlns:xlink="http://www.w3.org/1999/xlink" xmlns:ev="http://www.w3.org/2001/xml-events"
		xmlns:v="http://schemas.microsoft.com/visio/2003/SVGExtensions/" width="22.8858in" height="8.26772in"
		viewBox="0 0 1647.78 595.276" xml:space="preserve" color-interpolation-filters="sRGB" class="st16">
	<v:documentProperties v:langID="1033" v:metric="true" v:viewMarkup="false">
		<v:userDefs>
			<v:ud v:nameU="msvSubprocessMaster" v:prompt="" v:val="VT4(Rectangle)"/>
			<v:ud v:nameU="msvNoAutoConnect" v:val="VT0(1):26"/>
			<v:ud v:nameU="DisableSpdActionTags" v:prompt="" v:val="VT0(0):26"/>
			<v:ud v:nameU="visV14CFF" v:prompt="" v:val="VT0(1):26"/>
			<v:ud v:nameU="visFlowchartType" v:prompt="" v:val="VT4(CrossFunctional)"/>
		</v:userDefs>
	</v:documentProperties>

	<style type="text/css">
	<![CDATA[
		.st1 {visibility:visible}
		.st2 {fill:#5b9bd5;fill-opacity:0.22;filter:url(#filter_2);stroke:#5b9bd5;stroke-opacity:0.22}
		.st3 {fill:#fee599;stroke:#c7c8c8;stroke-width:0.25}
		.st4 {fill:#5b9bd5;stroke:#c7c8c8;stroke-width:0.25}
		.st5 {fill:#feffff;font-family:Calibri;font-size:0.833336em}
		.st6 {font-size:1em}
		.st7 {fill:none;stroke:none;stroke-width:0.25}
		.st8 {fill:#feffff;font-family:Calibri;font-size:1.00001em}
		.st9 {marker-end:url(#mrkr4-95);stroke:#5b9bd5;stroke-linecap:round;stroke-linejoin:round;stroke-width:1}
		.st10 {fill:#5b9bd5;fill-opacity:1;stroke:#5b9bd5;stroke-opacity:1;stroke-width:0.28409090909091}
		.st11 {fill:#5b9bd5;font-family:Calibri;font-size:1.00001em}
		.st12 {fill:#ffffff;stroke:none;stroke-linecap:butt}
		.st13 {fill:#4f88bb;font-family:Calibri;font-size:0.666664em}
		.st14 {marker-end:url(#mrkr13-131);marker-start:url(#mrkr13-129);stroke:#5b9bd5;stroke-linecap:round;stroke-linejoin:round;stroke-width:1}
		.st15 {fill:#ffffff;stroke:none;stroke-linecap:butt;stroke-width:7.2}
		.st16 {fill:none;fill-rule:evenodd;font-size:12px;overflow:visible;stroke-linecap:square;stroke-miterlimit:3}
	]]>
	</style>

	<defs id="Markers">
		<g id="lend4">
			<path d="M 2 1 L 0 0 L 2 -1 L 2 1 " style="stroke:none"/>
		</g>
		<marker id="mrkr4-95" class="st10" v:arrowType="4" v:arrowSize="2" v:setback="7.04" refX="-7.04" orient="auto"
				markerUnits="strokeWidth" overflow="visible">
			<use xlink:href="#lend4" transform="scale(-3.52,-3.52) "/>
		</marker>
		<g id="lend13">
			<path d="M 3 1 L 0 0 L 3 -1 L 3 1 " style="stroke:none"/>
		</g>
		<marker id="mrkr13-129" class="st10" v:arrowType="13" v:arrowSize="2" v:setback="10.2" refX="10.2" orient="auto"
				markerUnits="strokeWidth" overflow="visible">
			<use xlink:href="#lend13" transform="scale(3.52) "/>
		</marker>
		<marker id="mrkr13-131" class="st10" v:arrowType="13" v:arrowSize="2" v:setback="10.56" refX="-10.56" orient="auto"
				markerUnits="strokeWidth" overflow="visible">
			<use xlink:href="#lend13" transform="scale(-3.52,-3.52) "/>
		</marker>
	</defs>
	<defs id="Filters">
		<filter id="filter_2">
			<feGaussianBlur stdDeviation="2"/>
		</filter>
	</defs>
	<g v:mID="41" v:index="18" v:groupContext="foregroundPage">
		<v:userDefs>
			<v:ud v:nameU="msvThemeOrder" v:val="VT0(0):26"/>
		</v:userDefs>
		<title>Page-18</title>
		<v:pageProperties v:drawingScale="0.0393701" v:pageScale="0.0393701" v:drawingUnits="24" v:shadowOffsetX="8.50394"
				v:shadowOffsetY="-8.50394"/>
		<v:layer v:name="Connector" v:index="0"/>
		<g id="shape41-1" v:mID="41" v:groupContext="shape" transform="translate(704.409,-84.4724)">
			<title>Sheet.41</title>
			<g id="shadow41-2" v:groupContext="shadow" v:shadowOffsetX="0.345598" v:shadowOffsetY="-1.97279" v:shadowType="1"
					transform="matrix(1,0,0,1,0.345598,1.97279)" class="st1">
				<rect x="0" y="348.661" width="305.575" height="246.614" class="st2"/>
			</g>
			<rect x="0" y="348.661" width="305.575" height="246.614" class="st3"/>
		</g>
		<g id="shape3-6" v:mID="3" v:groupContext="shape" transform="translate(754.866,-104.65)">
			<title>Rectangle.3</title>
			<v:userDefs>
				<v:ud v:nameU="visVersion" v:val="VT0(15):26"/>
			</v:userDefs>
			<g id="shadow3-7" v:groupContext="shadow" v:shadowOffsetX="0.345598" v:shadowOffsetY="-1.97279" v:shadowType="1"
					transform="matrix(1,0,0,1,0.345598,1.97279)" class="st1">
				<rect x="0" y="538.067" width="56.6929" height="57.2083" class="st2"/>
			</g>
			<rect x="0" y="538.067" width="56.6929" height="57.2083" class="st4"/>
		</g>
		<g id="shape5-11" v:mID="5" v:groupContext="shape" transform="translate(577.701,-239.296)">
			<title>Rectangle.5</title>
			<desc>Container (FormComponent)</desc>
			<v:userDefs>
				<v:ud v:nameU="visVersion" v:val="VT0(15):26"/>
			</v:userDefs>
			<v:textBlock v:margins="rect(4,4,4,4)" v:tabSpace="42.5197"/>
			<v:textRect cx="52.4409" cy="566.671" width="104.89" height="57.2083"/>
			<g id="shadow5-12" v:groupContext="shadow" v:shadowOffsetX="0.345598" v:shadowOffsetY="-1.97279" v:shadowType="1"
					transform="matrix(1,0,0,1,0.345598,1.97279)" class="st1">
				<rect x="0" y="538.067" width="104.882" height="57.2083" class="st2"/>
			</g>
			<rect x="0" y="538.067" width="104.882" height="57.2083" class="st4"/>
			<text x="32.44" y="563.67" class="st5" v:langID="1044"><v:paragraph v:horizAlign="1"/><v:tabList/>Container<v:lf/><tspan
						x="14.76" dy="1.2em" class="st6">(FormComponent)</tspan></text>		</g>
		<g id="shape6-18" v:mID="6" v:groupContext="shape" transform="translate(441.291,-197.291)">
			<title>Sheet.6</title>
			<desc>Formgroup.tsx</desc>
			<v:textBlock v:margins="rect(4,4,4,4)" v:tabSpace="42.5197"/>
			<v:textRect cx="76" cy="585.276" width="152.01" height="20"/>
			<rect x="0" y="575.276" width="152" height="20" class="st7"/>
			<text x="40.34" y="588.88" class="st8" v:langID="1044"><v:paragraph v:horizAlign="1"/><v:tabList/>Formgroup.tsx</text>		</g>
		<g id="shape9-21" v:mID="9" v:groupContext="shape" transform="translate(573.449,-339.024)">
			<title>Rectangle.9</title>
			<desc>Preview</desc>
			<v:userDefs>
				<v:ud v:nameU="visVersion" v:val="VT0(15):26"/>
			</v:userDefs>
			<v:textBlock v:margins="rect(4,4,4,4)" v:tabSpace="42.5197"/>
			<v:textRect cx="56.6929" cy="566.671" width="113.39" height="57.2083"/>
			<g id="shadow9-22" v:groupContext="shadow" v:shadowOffsetX="0.345598" v:shadowOffsetY="-1.97279" v:shadowType="1"
					transform="matrix(1,0,0,1,0.345598,1.97279)" class="st1">
				<rect x="0" y="538.067" width="113.386" height="57.2083" class="st2"/>
			</g>
			<rect x="0" y="538.067" width="113.386" height="57.2083" class="st4"/>
			<text x="40.41" y="569.67" class="st5" v:langID="1044"><v:paragraph v:horizAlign="1"/><v:tabList/>Preview</text>		</g>
		<g id="shape13-27" v:mID="13" v:groupContext="shape" transform="translate(34.8661,-51.3071)">
			<title>Round Corner Rectangle</title>
			<desc>Store</desc>
			<v:userDefs>
				<v:ud v:nameU="CTypeTopLeftSnip" v:prompt="" v:val="VT0(0):5"/>
				<v:ud v:nameU="CTypeTopRightSnip" v:prompt="" v:val="VT0(0):5"/>
				<v:ud v:nameU="CTypeBotLeftSnip" v:prompt="" v:val="VT0(0):5"/>
				<v:ud v:nameU="CTypeBotRightSnip" v:prompt="" v:val="VT0(0):5"/>
				<v:ud v:nameU="CornerLockHoriz" v:prompt="" v:val="VT0(0):5"/>
				<v:ud v:nameU="CornerLockVert" v:prompt="" v:val="VT0(0):5"/>
				<v:ud v:nameU="CornerLockDiag" v:prompt="" v:val="VT0(0):5"/>
				<v:ud v:nameU="TopLeftOffset" v:prompt="" v:val="VT0(0.15748031496063):24"/>
				<v:ud v:nameU="TopRightOffset" v:prompt="" v:val="VT0(0.15748031496063):24"/>
				<v:ud v:nameU="BotLeftOffset" v:prompt="" v:val="VT0(0.15748031496063):24"/>
				<v:ud v:nameU="BotRightOffset" v:prompt="" v:val="VT0(0.15748031496063):24"/>
				<v:ud v:nameU="visVersion" v:prompt="" v:val="VT0(15):26"/>
			</v:userDefs>
			<v:textBlock v:margins="rect(4,4,4,4)" v:tabSpace="42.5197"/>
			<v:textRect cx="56.6929" cy="576.85" width="113.39" height="36.8504"/>
			<g id="shadow13-28" v:groupContext="shadow" v:shadowOffsetX="0.345598" v:shadowOffsetY="-1.97279" v:shadowType="1"
					transform="matrix(1,0,0,1,0.345598,1.97279)" class="st1">
				<path d="M11.34 595.28 L102.05 595.28 A11.3384 11.3384 -180 0 0 113.39 583.94 L113.39 569.76 A11.3384 11.3384 -180
							 0 0 102.05 558.43 L11.34 558.43 A11.3384 11.3384 -180 0 0 -0 569.76 L0 583.94 A11.3384 11.3384 -180
							 0 0 11.34 595.28 Z" class="st2"/>
			</g>
			<path d="M11.34 595.28 L102.05 595.28 A11.3384 11.3384 -180 0 0 113.39 583.94 L113.39 569.76 A11.3384 11.3384 -180 0
						 0 102.05 558.43 L11.34 558.43 A11.3384 11.3384 -180 0 0 -0 569.76 L0 583.94 A11.3384 11.3384 -180 0 0 11.34
						 595.28 Z" class="st4"/>
			<text x="45.85" y="579.85" class="st5" v:langID="1044"><v:paragraph v:horizAlign="1"/><v:tabList/>Store</text>		</g>
		<g id="shape14-33" v:mID="14" v:groupContext="shape" transform="translate(34.8661,-193.039)">
			<title>Round Corner Rectangle.14</title>
			<desc>Reducer</desc>
			<v:userDefs>
				<v:ud v:nameU="CTypeTopLeftSnip" v:prompt="" v:val="VT0(0):5"/>
				<v:ud v:nameU="CTypeTopRightSnip" v:prompt="" v:val="VT0(0):5"/>
				<v:ud v:nameU="CTypeBotLeftSnip" v:prompt="" v:val="VT0(0):5"/>
				<v:ud v:nameU="CTypeBotRightSnip" v:prompt="" v:val="VT0(0):5"/>
				<v:ud v:nameU="CornerLockHoriz" v:prompt="" v:val="VT0(0):5"/>
				<v:ud v:nameU="CornerLockVert" v:prompt="" v:val="VT0(0):5"/>
				<v:ud v:nameU="CornerLockDiag" v:prompt="" v:val="VT0(0):5"/>
				<v:ud v:nameU="TopLeftOffset" v:prompt="" v:val="VT0(0.15748031496063):24"/>
				<v:ud v:nameU="TopRightOffset" v:prompt="" v:val="VT0(0.15748031496063):24"/>
				<v:ud v:nameU="BotLeftOffset" v:prompt="" v:val="VT0(0.15748031496063):24"/>
				<v:ud v:nameU="BotRightOffset" v:prompt="" v:val="VT0(0.15748031496063):24"/>
				<v:ud v:nameU="visVersion" v:prompt="" v:val="VT0(15):26"/>
			</v:userDefs>
			<v:textBlock v:margins="rect(4,4,4,4)" v:tabSpace="42.5197"/>
			<v:textRect cx="56.6929" cy="576.85" width="113.39" height="36.8504"/>
			<g id="shadow14-34" v:groupContext="shadow" v:shadowOffsetX="0.345598" v:shadowOffsetY="-1.97279" v:shadowType="1"
					transform="matrix(1,0,0,1,0.345598,1.97279)" class="st1">
				<path d="M11.34 595.28 L102.05 595.28 A11.3384 11.3384 -180 0 0 113.39 583.94 L113.39 569.76 A11.3384 11.3384 -180
							 0 0 102.05 558.43 L11.34 558.43 A11.3384 11.3384 -180 0 0 -0 569.76 L0 583.94 A11.3384 11.3384 -180
							 0 0 11.34 595.28 Z" class="st2"/>
			</g>
			<path d="M11.34 595.28 L102.05 595.28 A11.3384 11.3384 -180 0 0 113.39 583.94 L113.39 569.76 A11.3384 11.3384 -180 0
						 0 102.05 558.43 L11.34 558.43 A11.3384 11.3384 -180 0 0 -0 569.76 L0 583.94 A11.3384 11.3384 -180 0 0 11.34
						 595.28 Z" class="st4"/>
			<text x="39.89" y="579.85" class="st5" v:langID="1044"><v:paragraph v:horizAlign="1"/><v:tabList/>Reducer</text>		</g>
		<g id="shape18-39" v:mID="18" v:groupContext="shape" transform="translate(312.315,-207.213)">
			<title>Round Corner Rectangle.18</title>
			<desc>ActionDispatcher</desc>
			<v:userDefs>
				<v:ud v:nameU="CTypeTopLeftSnip" v:prompt="" v:val="VT0(0):5"/>
				<v:ud v:nameU="CTypeTopRightSnip" v:prompt="" v:val="VT0(0):5"/>
				<v:ud v:nameU="CTypeBotLeftSnip" v:prompt="" v:val="VT0(0):5"/>
				<v:ud v:nameU="CTypeBotRightSnip" v:prompt="" v:val="VT0(0):5"/>
				<v:ud v:nameU="CornerLockHoriz" v:prompt="" v:val="VT0(0):5"/>
				<v:ud v:nameU="CornerLockVert" v:prompt="" v:val="VT0(0):5"/>
				<v:ud v:nameU="CornerLockDiag" v:prompt="" v:val="VT0(0):5"/>
				<v:ud v:nameU="TopLeftOffset" v:prompt="" v:val="VT0(0.15748031496063):24"/>
				<v:ud v:nameU="TopRightOffset" v:prompt="" v:val="VT0(0.15748031496063):24"/>
				<v:ud v:nameU="BotLeftOffset" v:prompt="" v:val="VT0(0.15748031496063):24"/>
				<v:ud v:nameU="BotRightOffset" v:prompt="" v:val="VT0(0.15748031496063):24"/>
				<v:ud v:nameU="visVersion" v:prompt="" v:val="VT0(15):26"/>
			</v:userDefs>
			<v:textBlock v:margins="rect(4,4,4,4)" v:tabSpace="42.5197"/>
			<v:textRect cx="56.6929" cy="576.85" width="113.39" height="36.8504"/>
			<g id="shadow18-40" v:groupContext="shadow" v:shadowOffsetX="0.345598" v:shadowOffsetY="-1.97279" v:shadowType="1"
					transform="matrix(1,0,0,1,0.345598,1.97279)" class="st1">
				<path d="M11.34 595.28 L102.05 595.28 A11.3384 11.3384 -180 0 0 113.39 583.94 L113.39 569.76 A11.3384 11.3384 -180
							 0 0 102.05 558.43 L11.34 558.43 A11.3384 11.3384 -180 0 0 -0 569.76 L0 583.94 A11.3384 11.3384 -180
							 0 0 11.34 595.28 Z" class="st2"/>
			</g>
			<path d="M11.34 595.28 L102.05 595.28 A11.3384 11.3384 -180 0 0 113.39 583.94 L113.39 569.76 A11.3384 11.3384 -180 0
						 0 102.05 558.43 L11.34 558.43 A11.3384 11.3384 -180 0 0 -0 569.76 L0 583.94 A11.3384 11.3384 -180 0 0 11.34
						 595.28 Z" class="st4"/>
			<text x="21.75" y="579.85" class="st5" v:langID="1044"><v:paragraph v:horizAlign="1"/><v:tabList/>ActionDispatcher</text>		</g>
		<g id="shape19-45" v:mID="19" v:groupContext="shape" transform="translate(34.8661,-306.425)">
			<title>Round Corner Rectangle.19</title>
			<desc>Saga</desc>
			<v:userDefs>
				<v:ud v:nameU="CTypeTopLeftSnip" v:prompt="" v:val="VT0(0):5"/>
				<v:ud v:nameU="CTypeTopRightSnip" v:prompt="" v:val="VT0(0):5"/>
				<v:ud v:nameU="CTypeBotLeftSnip" v:prompt="" v:val="VT0(0):5"/>
				<v:ud v:nameU="CTypeBotRightSnip" v:prompt="" v:val="VT0(0):5"/>
				<v:ud v:nameU="CornerLockHoriz" v:prompt="" v:val="VT0(0):5"/>
				<v:ud v:nameU="CornerLockVert" v:prompt="" v:val="VT0(0):5"/>
				<v:ud v:nameU="CornerLockDiag" v:prompt="" v:val="VT0(0):5"/>
				<v:ud v:nameU="TopLeftOffset" v:prompt="" v:val="VT0(0.15748031496063):24"/>
				<v:ud v:nameU="TopRightOffset" v:prompt="" v:val="VT0(0.15748031496063):24"/>
				<v:ud v:nameU="BotLeftOffset" v:prompt="" v:val="VT0(0.15748031496063):24"/>
				<v:ud v:nameU="BotRightOffset" v:prompt="" v:val="VT0(0.15748031496063):24"/>
				<v:ud v:nameU="visVersion" v:prompt="" v:val="VT0(15):26"/>
			</v:userDefs>
			<v:textBlock v:margins="rect(4,4,4,4)" v:tabSpace="42.5197"/>
			<v:textRect cx="56.6929" cy="576.85" width="113.39" height="36.8504"/>
			<g id="shadow19-46" v:groupContext="shadow" v:shadowOffsetX="0.345598" v:shadowOffsetY="-1.97279" v:shadowType="1"
					transform="matrix(1,0,0,1,0.345598,1.97279)" class="st1">
				<path d="M11.34 595.28 L102.05 595.28 A11.3384 11.3384 -180 0 0 113.39 583.94 L113.39 569.76 A11.3384 11.3384 -180
							 0 0 102.05 558.43 L11.34 558.43 A11.3384 11.3384 -180 0 0 -0 569.76 L0 583.94 A11.3384 11.3384 -180
							 0 0 11.34 595.28 Z" class="st2"/>
			</g>
			<path d="M11.34 595.28 L102.05 595.28 A11.3384 11.3384 -180 0 0 113.39 583.94 L113.39 569.76 A11.3384 11.3384 -180 0
						 0 102.05 558.43 L11.34 558.43 A11.3384 11.3384 -180 0 0 -0 569.76 L0 583.94 A11.3384 11.3384 -180 0 0 11.34
						 595.28 Z" class="st4"/>
			<text x="47.25" y="579.85" class="st5" v:langID="1044"><v:paragraph v:horizAlign="1"/><v:tabList/>Saga</text>		</g>
		<g id="shape23-51" v:mID="23" v:groupContext="shape" transform="translate(34.8661,-486.425)">
			<title>Round Corner Rectangle.23</title>
			<desc>API</desc>
			<v:userDefs>
				<v:ud v:nameU="CTypeTopLeftSnip" v:prompt="" v:val="VT0(0):5"/>
				<v:ud v:nameU="CTypeTopRightSnip" v:prompt="" v:val="VT0(0):5"/>
				<v:ud v:nameU="CTypeBotLeftSnip" v:prompt="" v:val="VT0(0):5"/>
				<v:ud v:nameU="CTypeBotRightSnip" v:prompt="" v:val="VT0(0):5"/>
				<v:ud v:nameU="CornerLockHoriz" v:prompt="" v:val="VT0(0):5"/>
				<v:ud v:nameU="CornerLockVert" v:prompt="" v:val="VT0(0):5"/>
				<v:ud v:nameU="CornerLockDiag" v:prompt="" v:val="VT0(0):5"/>
				<v:ud v:nameU="TopLeftOffset" v:prompt="" v:val="VT0(0.15748031496063):24"/>
				<v:ud v:nameU="TopRightOffset" v:prompt="" v:val="VT0(0.15748031496063):24"/>
				<v:ud v:nameU="BotLeftOffset" v:prompt="" v:val="VT0(0.15748031496063):24"/>
				<v:ud v:nameU="BotRightOffset" v:prompt="" v:val="VT0(0.15748031496063):24"/>
				<v:ud v:nameU="visVersion" v:prompt="" v:val="VT0(15):26"/>
			</v:userDefs>
			<v:textBlock v:margins="rect(4,4,4,4)" v:tabSpace="42.5197"/>
			<v:textRect cx="56.6929" cy="576.85" width="113.39" height="36.8504"/>
			<g id="shadow23-52" v:groupContext="shadow" v:shadowOffsetX="0.345598" v:shadowOffsetY="-1.97279" v:shadowType="1"
					transform="matrix(1,0,0,1,0.345598,1.97279)" class="st1">
				<path d="M11.34 595.28 L102.05 595.28 A11.3384 11.3384 -180 0 0 113.39 583.94 L113.39 569.76 A11.3384 11.3384 -180
							 0 0 102.05 558.43 L11.34 558.43 A11.3384 11.3384 -180 0 0 -0 569.76 L0 583.94 A11.3384 11.3384 -180
							 0 0 11.34 595.28 Z" class="st2"/>
			</g>
			<path d="M11.34 595.28 L102.05 595.28 A11.3384 11.3384 -180 0 0 113.39 583.94 L113.39 569.76 A11.3384 11.3384 -180 0
						 0 102.05 558.43 L11.34 558.43 A11.3384 11.3384 -180 0 0 -0 569.76 L0 583.94 A11.3384 11.3384 -180 0 0 11.34
						 595.28 Z" class="st4"/>
			<text x="49.96" y="579.85" class="st5" v:langID="1044"><v:paragraph v:horizAlign="1"/><v:tabList/>API</text>		</g>
		<g id="shape25-57" v:mID="25" v:groupContext="shape" transform="translate(845.575,-104.65)">
			<title>Rectangle.25</title>
			<v:userDefs>
				<v:ud v:nameU="visVersion" v:val="VT0(15):26"/>
			</v:userDefs>
			<g id="shadow25-58" v:groupContext="shadow" v:shadowOffsetX="0.345598" v:shadowOffsetY="-1.97279" v:shadowType="1"
					transform="matrix(1,0,0,1,0.345598,1.97279)" class="st1">
				<rect x="0" y="538.067" width="56.6929" height="57.2083" class="st2"/>
			</g>
			<rect x="0" y="538.067" width="56.6929" height="57.2083" class="st4"/>
		</g>
		<g id="shape26-62" v:mID="26" v:groupContext="shape" transform="translate(941.953,-104.65)">
			<title>Rectangle.26</title>
			<v:userDefs>
				<v:ud v:nameU="visVersion" v:val="VT0(15):26"/>
			</v:userDefs>
			<g id="shadow26-63" v:groupContext="shadow" v:shadowOffsetX="0.345598" v:shadowOffsetY="-1.97279" v:shadowType="1"
					transform="matrix(1,0,0,1,0.345598,1.97279)" class="st1">
				<rect x="0" y="538.067" width="56.6929" height="57.2083" class="st2"/>
			</g>
			<rect x="0" y="538.067" width="56.6929" height="57.2083" class="st4"/>
		</g>
		<g id="shape27-67" v:mID="27" v:groupContext="shape" transform="translate(573.449,-466.067)">
			<title>Rectangle.27</title>
			<desc>App</desc>
			<v:userDefs>
				<v:ud v:nameU="visVersion" v:val="VT0(15):26"/>
			</v:userDefs>
			<v:textBlock v:margins="rect(4,4,4,4)" v:tabSpace="42.5197"/>
			<v:textRect cx="56.6929" cy="566.671" width="113.39" height="57.2083"/>
			<g id="shadow27-68" v:groupContext="shadow" v:shadowOffsetX="0.345598" v:shadowOffsetY="-1.97279" v:shadowType="1"
					transform="matrix(1,0,0,1,0.345598,1.97279)" class="st1">
				<rect x="0" y="538.067" width="113.386" height="57.2083" class="st2"/>
			</g>
			<rect x="0" y="538.067" width="113.386" height="57.2083" class="st4"/>
			<text x="48.55" y="569.67" class="st5" v:langID="1044"><v:paragraph v:horizAlign="1"/><v:tabList/>App</text>		</g>
		<g id="shape29-73" v:mID="29" v:groupContext="shape" transform="translate(845.575,-239.296)">
			<title>Rectangle.29</title>
			<v:userDefs>
				<v:ud v:nameU="visVersion" v:val="VT0(15):26"/>
			</v:userDefs>
			<g id="shadow29-74" v:groupContext="shadow" v:shadowOffsetX="0.345598" v:shadowOffsetY="-1.97279" v:shadowType="1"
					transform="matrix(1,0,0,1,0.345598,1.97279)" class="st1">
				<rect x="0" y="538.067" width="56.6929" height="57.2083" class="st2"/>
			</g>
			<rect x="0" y="538.067" width="56.6929" height="57.2083" class="st4"/>
		</g>
		<g id="shape31-78" v:mID="31" v:groupContext="shape" transform="translate(760.535,-27.2126)">
			<title>Rectangle.31</title>
			<desc>PROPS</desc>
			<v:userDefs>
				<v:ud v:nameU="visVersion" v:val="VT0(15):26"/>
			</v:userDefs>
			<v:textBlock v:margins="rect(4,4,4,4)" v:tabSpace="42.5197"/>
			<v:textRect cx="124.724" cy="578.622" width="249.45" height="33.3071"/>
			<g id="shadow31-79" v:groupContext="shadow" v:shadowOffsetX="0.345598" v:shadowOffsetY="-1.97279" v:shadowType="1"
					transform="matrix(1,0,0,1,0.345598,1.97279)" class="st1">
				<rect x="0" y="561.969" width="249.449" height="33.3071" class="st2"/>
			</g>
			<rect x="0" y="561.969" width="249.449" height="33.3071" class="st4"/>
			<text x="111.24" y="581.62" class="st5" v:langID="1044"><v:paragraph v:horizAlign="1"/><v:tabList/>PROPS</text>		</g>
		<g id="shape37-84" v:mID="37" v:groupContext="shape" transform="translate(573.449,-27.2126)">
			<title>Rectangle</title>
			<desc>Map state to props</desc>
			<v:userDefs>
				<v:ud v:nameU="visVersion" v:val="VT0(15):26"/>
			</v:userDefs>
			<v:textBlock v:margins="rect(4,4,4,4)" v:tabSpace="42.5197"/>
			<v:textRect cx="56.6929" cy="578.622" width="113.39" height="33.3071"/>
			<g id="shadow37-85" v:groupContext="shadow" v:shadowOffsetX="0.345598" v:shadowOffsetY="-1.97279" v:shadowType="1"
					transform="matrix(1,0,0,1,0.345598,1.97279)" class="st1">
				<rect x="0" y="561.969" width="113.386" height="33.3071" class="st2"/>
			</g>
			<rect x="0" y="561.969" width="113.386" height="33.3071" class="st4"/>
			<text x="17.92" y="581.62" class="st5" v:langID="1044"><v:paragraph v:horizAlign="1"/><v:tabList/>Map state to props</text>		</g>
		<g id="shape38-90" v:mID="38" v:groupContext="shape" v:layerMember="0" transform="translate(873.921,-239.296)">
			<title>Dynamic connector</title>
			<v:userDefs>
				<v:ud v:nameU="visVersion" v:val="VT0(15):26"/>
			</v:userDefs>
			<path d="M0 595.28 L0 605.91 L-90.71 605.91 L-90.71 665.67" class="st9"/>
		</g>
		<g id="shape39-96" v:mID="39" v:groupContext="shape" v:layerMember="0" transform="translate(866.835,-239.296)">
			<title>Dynamic connector.39</title>
			<v:userDefs>
				<v:ud v:nameU="visVersion" v:val="VT0(15):26"/>
			</v:userDefs>
			<path d="M7.09 595.28 L7.09 665.67" class="st9"/>
		</g>
		<g id="shape40-101" v:mID="40" v:groupContext="shape" v:layerMember="0" transform="translate(873.921,-239.296)">
			<title>Dynamic connector.40</title>
			<v:userDefs>
				<v:ud v:nameU="visVersion" v:val="VT0(15):26"/>
			</v:userDefs>
			<path d="M0 595.28 L0 605.91 L96.38 605.91 L96.38 665.67" class="st9"/>
		</g>
		<g id="shape42-106" v:mID="42" v:groupContext="shape" transform="translate(857.984,-311.087)">
			<title>Sheet.42</title>
			<desc>Components</desc>
			<v:textBlock v:margins="rect(4,4,4,4)" v:tabSpace="42.5197"/>
			<v:textRect cx="76" cy="585.276" width="152" height="20"/>
			<rect x="0" y="575.276" width="152" height="20" class="st7"/>
			<text x="44.88" y="588.88" class="st11" v:langID="1044"><v:paragraph v:horizAlign="1"/><v:tabList/>Components</text>		</g>
		<g id="shape50-109" v:mID="50" v:groupContext="shape" v:layerMember="0" transform="translate(1009.98,-43.8661)">
			<title>Dynamic connector.50</title>
			<desc>Render</desc>
			<v:userDefs>
				<v:ud v:nameU="visVersion" v:val="VT0(15):26"/>
			</v:userDefs>
			<v:textBlock v:margins="rect(4,4,4,4)" v:tabSpace="42.5197"/>
			<v:textRect cx="10.6299" cy="429.401" width="40" height="17.6036"/>
			<path d="M0 595.28 L10.63 595.28 L10.63 371.24 L-100.68 371.24" class="st9"/>
			<rect v:rectContext="textBkgnd" x="-1.1199" y="424.601" width="23.4998" height="9.59985" class="st12"/>
			<text x="-1.12" y="431.8" class="st13" v:langID="1044"><v:paragraph v:horizAlign="1"/><v:tabList/>Render</text>		</g>
		<g id="shape51-116" v:mID="51" v:groupContext="shape" v:layerMember="0" transform="translate(637.228,-239.296)">
			<title>Dynamic connector.51</title>
			<desc>Updates</desc>
			<v:userDefs>
				<v:ud v:nameU="visVersion" v:val="VT0(15):26"/>
			</v:userDefs>
			<v:textBlock v:margins="rect(4,4,4,4)" v:tabSpace="42.5197"/>
			<v:textRect cx="-7.08661" cy="684.664" width="40" height="17.6036"/>
			<path d="M-7.09 595.28 L-7.09 767.01" class="st9"/>
			<rect v:rectContext="textBkgnd" x="-20.6665" y="679.864" width="27.1599" height="9.59985" class="st12"/>
			<text x="-20.67" y="687.06" class="st13" v:langID="1044"><v:paragraph v:horizAlign="1"/><v:tabList/>Updates</text>		</g>
		<g id="shape52-123" v:mID="52" v:groupContext="shape" v:layerMember="0" transform="translate(84.4724,-343.276)">
			<title>Dynamic connector.52</title>
			<desc>Post/Put/Get data from API</desc>
			<v:userDefs>
				<v:ud v:nameU="visVersion" v:val="VT0(15):26"/>
			</v:userDefs>
			<v:textBlock v:margins="rect(4,4,4,4)" v:tabSpace="42.5197"/>
			<v:textRect cx="7.08661" cy="523.701" width="99.47" height="17.6036"/>
			<path d="M7.09 585.08 L7.09 584.72 L7.09 462.69" class="st14"/>
			<rect v:rectContext="textBkgnd" x="-37.7391" y="518.901" width="89.6517" height="9.59985" class="st15"/>
			<text x="-37.74" y="526.1" class="st13" v:langID="1044"><v:paragraph v:horizAlign="1"/><v:tabList/>Post/Put/Get data from API</text>		</g>
		<g id="shape53-134" v:mID="53" v:groupContext="shape" v:layerMember="0" transform="translate(84.4724,-193.039)">
			<title>Dynamic connector.53</title>
			<desc>Updates</desc>
			<v:userDefs>
				<v:ud v:nameU="visVersion" v:val="VT0(15):26"/>
			</v:userDefs>
			<v:textBlock v:margins="rect(4,4,4,4)" v:tabSpace="42.5197"/>
			<v:textRect cx="7.08661" cy="647.717" width="40" height="17.6036"/>
			<path d="M7.09 595.28 L7.09 693.12" class="st9"/>
			<rect v:rectContext="textBkgnd" x="-6.49325" y="642.917" width="27.1599" height="9.59985" class="st15"/>
			<text x="-6.49" y="650.12" class="st13" v:langID="1044"><v:paragraph v:horizAlign="1"/><v:tabList/>Updates</text>		</g>
		<g id="shape54-141" v:mID="54" v:groupContext="shape" v:layerMember="0" transform="translate(148.252,-69.7323)">
			<title>Dynamic connector.54</title>
			<desc>Exposed to</desc>
			<v:userDefs>
				<v:ud v:nameU="visVersion" v:val="VT0(15):26"/>
			</v:userDefs>
			<v:textBlock v:margins="rect(4,4,4,4)" v:tabSpace="42.5197"/>
			<v:textRect cx="115.641" cy="397.108" width="45.63" height="17.6036"/>
			<path d="M0 595.28 L10.63 595.28 L10.63 397.11 L151.07 397.11 A2.3622 2.3622 0 1 1 155.8 397.11 L412.2 397.11 A2.3622
						 2.3622 0 1 1 416.93 397.11 L422.41 397.11" class="st9"/>
			<rect v:rectContext="textBkgnd" x="97.7347" y="392.308" width="35.8121" height="9.59985" class="st12"/>
			<text x="97.73" y="399.51" class="st13" v:langID="1044"><v:paragraph v:horizAlign="1"/><v:tabList/>Exposed to</text>		</g>
		<g id="shape56-148" v:mID="56" v:groupContext="shape" v:layerMember="0" transform="translate(144.931,-84.8364)">
			<title>Dynamic connector.56</title>
			<desc>Exposed to</desc>
			<v:userDefs>
				<v:ud v:nameU="visVersion" v:val="VT0(15):26"/>
			</v:userDefs>
			<v:textBlock v:margins="rect(4,4,4,4)" v:tabSpace="42.5197"/>
			<v:textRect cx="72.8633" cy="312.484" width="45.63" height="17.6036"/>
			<path d="M0 595.28 L13.95 595.28 L13.95 312.48 L415.53 312.48 A2.3622 2.3622 0 0 1 420.25 312.48 L421.48 312.48"
					class="st9"/>
			<rect v:rectContext="textBkgnd" x="54.9573" y="307.684" width="35.8121" height="9.59985" class="st15"/>
			<text x="54.96" y="314.88" class="st13" v:langID="1044"><v:paragraph v:horizAlign="1"/><v:tabList/>Exposed to</text>		</g>
		<g id="shape58-155" v:mID="58" v:groupContext="shape" v:layerMember="0" transform="translate(573.449,-494.671)">
			<title>Dynamic connector.58</title>
			<desc>Trigger Action</desc>
			<v:userDefs>
				<v:ud v:nameU="visVersion" v:val="VT0(15):26"/>
			</v:userDefs>
			<v:textBlock v:margins="rect(4,4,4,4)" v:tabSpace="42.5197"/>
			<v:textRect cx="-10.6299" cy="787.145" width="55.4" height="17.6036"/>
			<path d="M0 595.28 L-10.63 595.28 L-10.63 849.21 L-144.03 849.21" class="st9"/>
			<rect v:rectContext="textBkgnd" x="-33.4205" y="782.345" width="45.5815" height="9.59985" class="st12"/>
			<text x="-33.42" y="789.55" class="st13" v:langID="1044"><v:paragraph v:horizAlign="1"/><v:tabList/>Trigger Action</text>		</g>
		<g id="shape60-162" v:mID="60" v:groupContext="shape" v:layerMember="0" transform="translate(845.575,-260.813)">
			<title>Dynamic connector.60</title>
			<desc>Trigger Event</desc>
			<v:userDefs>
				<v:ud v:nameU="visVersion" v:val="VT0(15):26"/>
			</v:userDefs>
			<v:textBlock v:margins="rect(4,4,4,4)" v:tabSpace="42.5197"/>
			<v:textRect cx="-81.4961" cy="588.189" width="52.83" height="17.6036"/>
			<path d="M0 588.19 L-155.95 588.19" class="st9"/>
			<rect v:rectContext="textBkgnd" x="-103.004" y="583.389" width="43.0153" height="9.59985" class="st12"/>
			<text x="-103" y="590.59" class="st13" v:langID="1044"><v:paragraph v:horizAlign="1"/><v:tabList/>Trigger Event</text>		</g>
		<g id="shape61-169" v:mID="61" v:groupContext="shape" v:layerMember="0" transform="translate(686.835,-50.9527)">
			<title>Dynamic connector.61</title>
			<desc>Sends</desc>
			<v:userDefs>
				<v:ud v:nameU="visVersion" v:val="VT0(15):26"/>
			</v:userDefs>
			<v:textBlock v:margins="rect(4,4,4,4)" v:tabSpace="42.5197"/>
			<v:textRect cx="36.8504" cy="602.362" width="40" height="17.6036"/>
			<path d="M0 602.36 L66.66 602.36" class="st9"/>
			<rect v:rectContext="textBkgnd" x="27.2547" y="597.562" width="19.1912" height="9.59985" class="st12"/>
			<text x="27.25" y="604.76" class="st13" v:langID="1044"><v:paragraph v:horizAlign="1"/><v:tabList/>Sends</text>		</g>
		<g id="shape63-176" v:mID="63" v:groupContext="shape" v:layerMember="0" transform="translate(753.449,-36.7795)">
			<title>Dynamic connector.63</title>
			<v:userDefs>
				<v:ud v:nameU="visVersion" v:val="VT0(15):26"/>
			</v:userDefs>
			<path d="M7.09 588.19 L0 588.19 L0.05 588.19" class="st9"/>
		</g>
		<g id="shape64-181" v:mID="64" v:groupContext="shape" v:layerMember="0" transform="translate(623.055,-466.067)">
			<title>Dynamic connector.64</title>
			<desc>Render</desc>
			<v:userDefs>
				<v:ud v:nameU="visVersion" v:val="VT0(15):26"/>
			</v:userDefs>
			<v:textBlock v:margins="rect(4,4,4,4)" v:tabSpace="42.5197"/>
			<v:textRect cx="7.08661" cy="630.193" width="40" height="17.6036"/>
			<path d="M7.09 595.28 L7.09 658.07" class="st9"/>
			<rect v:rectContext="textBkgnd" x="-4.6632" y="625.394" width="23.4998" height="9.59985" class="st15"/>
			<text x="-4.66" y="632.59" class="st13" v:langID="1044"><v:paragraph v:horizAlign="1"/><v:tabList/>Render</text>		</g>
		<g id="shape65-188" v:mID="65" v:groupContext="shape" v:layerMember="0" transform="translate(623.055,-339.024)">
			<title>Dynamic connector.65</title>
			<desc>Render</desc>
			<v:userDefs>
				<v:ud v:nameU="visVersion" v:val="VT0(15):26"/>
			</v:userDefs>
			<v:textBlock v:margins="rect(4,4,4,4)" v:tabSpace="42.5197"/>
			<v:textRect cx="7.08661" cy="616.535" width="40" height="17.6036"/>
			<path d="M7.09 595.28 L7.09 630.76" class="st9"/>
			<rect v:rectContext="textBkgnd" x="-4.6632" y="611.736" width="23.4998" height="9.59985" class="st15"/>
			<text x="-4.66" y="618.94" class="st13" v:langID="1044"><v:paragraph v:horizAlign="1"/><v:tabList/>Render</text>		</g>
		<g id="shape66-195" v:mID="66" v:groupContext="shape" v:layerMember="0" transform="translate(315.636,-203.912)">
			<title>Dynamic connector.66</title>
			<desc>Semd Action to</desc>
			<v:userDefs>
				<v:ud v:nameU="visVersion" v:val="VT0(15):26"/>
			</v:userDefs>
			<v:textBlock v:margins="rect(4,4,4,4)" v:tabSpace="42.5197"/>
			<v:textRect cx="-83.2266" cy="587.724" width="59.53" height="17.6036"/>
			<path d="M0 588.65 L-13.95 588.65 L-13.95 587.72 L-154.39 587.72 A2.3622 2.3622 -180 1 0 -159.12 587.72 L-160.34 587.72"
					class="st9"/>
			<rect v:rectContext="textBkgnd" x="-108.083" y="582.924" width="49.714" height="9.59985" class="st15"/>
			<text x="-108.08" y="590.12" class="st13" v:langID="1044"><v:paragraph v:horizAlign="1"/><v:tabList/>Semd Action to</text>		</g>
		<g id="shape68-202" v:mID="68" v:groupContext="shape" v:layerMember="0" transform="translate(623.055,-289.417)">
			<title>Dynamic connector.68</title>
			<v:userDefs>
				<v:ud v:nameU="visVersion" v:val="VT0(15):26"/>
			</v:userDefs>
			<path d="M7.09 588.19 L7.09 581.1 L7.09 581.15" class="st9"/>
		</g>
		<g id="shape70-207" v:mID="70" v:groupContext="shape" v:layerMember="0" transform="translate(312.315,-225.638)">
			<title>Dynamic connector.70</title>
			<desc>Send Action to</desc>
			<v:userDefs>
				<v:ud v:nameU="visVersion" v:val="VT0(15):26"/>
			</v:userDefs>
			<v:textBlock v:margins="rect(4,4,4,4)" v:tabSpace="42.5197"/>
			<v:textRect cx="-41.6378" cy="511.167" width="57.34" height="17.6036"/>
			<path d="M0 595.28 L-10.63 595.28 L-10.63 511.17 L-151.07 511.17 A2.3622 2.3622 -180 0 0 -155.8 511.17 L-160.34 511.17"
					class="st9"/>
			<rect v:rectContext="textBkgnd" x="-65.401" y="506.367" width="47.5266" height="9.59985" class="st15"/>
			<text x="-65.4" y="513.57" class="st13" v:langID="1044"><v:paragraph v:horizAlign="1"/><v:tabList/>Send Action to</text>		</g>
		<g id="shape73-214" v:mID="73" v:groupContext="shape" v:layerMember="0" transform="translate(630.142,-267.9)">
			<title>Dynamic connector.73</title>
			<desc>Trigger Action</desc>
			<v:userDefs>
				<v:ud v:nameU="visVersion" v:val="VT0(15):26"/>
			</v:userDefs>
			<v:textBlock v:margins="rect(4,4,4,4)" v:tabSpace="42.5197"/>
			<v:textRect cx="-81.0895" cy="637.538" width="55.4" height="17.6036"/>
			<path d="M0 595.28 L0 637.54 L-197.4 637.54" class="st9"/>
			<rect v:rectContext="textBkgnd" x="-103.88" y="632.738" width="45.5815" height="9.59985" class="st15"/>
			<text x="-103.88" y="639.94" class="st13" v:langID="1044"><v:paragraph v:horizAlign="1"/><v:tabList/>Trigger Action</text>		</g>
	</g>
</svg>
