<?xml version="1.0" encoding="UTF-8" standalone="no"?>
<!DOCTYPE svg PUBLIC "-//W3C//DTD SVG 1.1//EN" "http://www.w3.org/Graphics/SVG/1.1/DTD/svg11.dtd">
<!-- Generated by Microsoft Visio, SVG Export Events_Post.svg Page-1 -->
<svg xmlns="http://www.w3.org/2000/svg" xmlns:xlink="http://www.w3.org/1999/xlink" xmlns:ev="http://www.w3.org/2001/xml-events"
		xmlns:v="http://schemas.microsoft.com/visio/2003/SVGExtensions/" width="3.63011in" height="4.16456in"
		viewBox="0 0 261.368 299.848" xml:space="preserve" color-interpolation-filters="sRGB" class="st7">
	<v:documentProperties v:langID="1033" v:metric="true" v:viewMarkup="false">
		<v:userDefs>
			<v:ud v:nameU="DisableSpdActionTags" v:prompt="" v:val="VT0(0):26"/>
		</v:userDefs>
	</v:documentProperties>

	<style type="text/css">
	<![CDATA[
		.st1 {visibility:visible}
		.st2 {fill:#5b9bd5;fill-opacity:0.22;filter:url(#filter_2);stroke:#5b9bd5;stroke-opacity:0.22}
		.st3 {fill:#5b9bd5;stroke:#c7c8c8;stroke-width:0.25}
		.st4 {fill:#feffff;font-family:Calibri;font-size:0.833336em}
		.st5 {fill:#5b9bd5;fill-opacity:0.25;filter:url(#filter_2);stroke:#5b9bd5;stroke-opacity:0.25}
		.st6 {fill:#4f87bb;stroke:#40709c;stroke-width:0.75}
		.st7 {fill:none;fill-rule:evenodd;font-size:12px;overflow:visible;stroke-linecap:square;stroke-miterlimit:3}
	]]>
	</style>

	<defs id="Filters">
		<filter id="filter_2">
			<feGaussianBlur stdDeviation="2"/>
		</filter>
	</defs>
	<g v:mID="0" v:index="1" v:groupContext="foregroundPage">
		<title>Page-1</title>
		<v:pageProperties v:drawingScale="0.0393701" v:pageScale="0.0393701" v:drawingUnits="24" v:shadowOffsetX="8.50394"
				v:shadowOffsetY="-8.50394"/>
		<g id="shape11-1" v:mID="11" v:groupContext="shape" transform="translate(2.7794,-264.787)">
			<title>Rectangle.11</title>
			<desc>ValidateInstantiation</desc>
			<v:userDefs>
				<v:ud v:nameU="visVersion" v:val="VT0(15):26"/>
			</v:userDefs>
			<v:textBlock v:margins="rect(4,4,4,4)" v:tabSpace="42.5197"/>
			<v:textRect cx="127.559" cy="282.894" width="255.12" height="33.9094"/>
			<g id="shadow11-2" v:groupContext="shadow" v:shadowOffsetX="0.345598" v:shadowOffsetY="-1.97279" v:shadowType="1"
					transform="matrix(1,0,0,1,0.345598,1.97279)" class="st1">
				<rect x="0" y="265.939" width="255.118" height="33.9094" class="st2"/>
			</g>
			<rect x="0" y="265.939" width="255.118" height="33.9094" class="st3"/>
			<text x="85" y="285.89" class="st4" v:langID="1044"><v:paragraph v:horizAlign="1"/><v:tabList/>ValidateInstantiation</text>		</g>
		<g id="shape12-7" v:mID="12" v:groupContext="shape" transform="translate(2.7794,-178.224)">
			<title>Rectangle.12</title>
			<desc>DataRetrieval</desc>
			<v:userDefs>
				<v:ud v:nameU="visVersion" v:val="VT0(15):26"/>
			</v:userDefs>
			<v:textBlock v:margins="rect(4,4,4,4)" v:tabSpace="42.5197"/>
			<v:textRect cx="127.559" cy="282.894" width="255.12" height="33.9094"/>
			<g id="shadow12-8" v:groupContext="shadow" v:shadowOffsetX="0.345598" v:shadowOffsetY="-1.97279" v:shadowType="1"
					transform="matrix(1,0,0,1,0.345598,1.97279)" class="st1">
				<rect x="0" y="265.939" width="255.118" height="33.9094" class="st2"/>
			</g>
			<rect x="0" y="265.939" width="255.118" height="33.9094" class="st3"/>
			<text x="99.96" y="285.89" class="st4" v:langID="1044"><v:paragraph v:horizAlign="1"/><v:tabList/>DataRetrieval</text>		</g>
		<g id="shape13-13" v:mID="13" v:groupContext="shape" transform="translate(2.7794,-91.6608)">
			<title>Rectangle.13</title>
			<desc>Calculation</desc>
			<v:userDefs>
				<v:ud v:nameU="visVersion" v:val="VT0(15):26"/>
			</v:userDefs>
			<v:textBlock v:margins="rect(4,4,4,4)" v:tabSpace="42.5197"/>
			<v:textRect cx="127.559" cy="282.894" width="255.12" height="33.9094"/>
			<g id="shadow13-14" v:groupContext="shadow" v:shadowOffsetX="0.345598" v:shadowOffsetY="-1.97279" v:shadowType="1"
					transform="matrix(1,0,0,1,0.345598,1.97279)" class="st1">
				<rect x="0" y="265.939" width="255.118" height="33.9094" class="st2"/>
			</g>
			<rect x="0" y="265.939" width="255.118" height="33.9094" class="st3"/>
			<text x="104.98" y="285.89" class="st4" v:langID="1044"><v:paragraph v:horizAlign="1"/><v:tabList/>Calculation</text>		</g>
		<g id="shape14-19" v:mID="14" v:groupContext="shape" transform="translate(-169.51,87.7152) rotate(-90)">
			<title>Simple Arrow.14</title>
			<v:userDefs>
				<v:ud v:nameU="visVersion" v:val="VT0(15):26"/>
				<v:ud v:nameU="ArrowType" v:prompt="" v:val="VT0(2):26"/>
			</v:userDefs>
			<g id="shadow14-20" v:groupContext="shadow" v:shadowOffsetX="0.345598" v:shadowOffsetY="-1.97279" v:shadowType="1"
					transform="matrix(1,0,0,1,-1.97279,0.345598)" class="st1">
				<path d="M0 299.85 L11.34 288.51 L11.34 294.18 L52.65 294.18 L52.65 299.85 L52.65 305.52 L11.34 305.52 L11.34 311.19
							 L0 299.85 Z" class="st5"/>
			</g>
			<path d="M0 299.85 L11.34 288.51 L11.34 294.18 L52.65 294.18 L52.65 299.85 L52.65 305.52 L11.34 305.52 L11.34 311.19
						 L0 299.85 Z" class="st6"/>
		</g>
		<g id="shape15-24" v:mID="15" v:groupContext="shape" transform="translate(-169.51,174.278) rotate(-90)">
			<title>Simple Arrow.15</title>
			<v:userDefs>
				<v:ud v:nameU="visVersion" v:val="VT0(15):26"/>
				<v:ud v:nameU="ArrowType" v:prompt="" v:val="VT0(2):26"/>
			</v:userDefs>
			<g id="shadow15-25" v:groupContext="shadow" v:shadowOffsetX="0.345598" v:shadowOffsetY="-1.97279" v:shadowType="1"
					transform="matrix(1,0,0,1,-1.97279,0.345598)" class="st1">
				<path d="M0 299.85 L11.34 288.51 L11.34 294.18 L52.65 294.18 L52.65 299.85 L52.65 305.52 L11.34 305.52 L11.34 311.19
							 L0 299.85 Z" class="st5"/>
			</g>
			<path d="M0 299.85 L11.34 288.51 L11.34 294.18 L52.65 294.18 L52.65 299.85 L52.65 305.52 L11.34 305.52 L11.34 311.19
						 L0 299.85 Z" class="st6"/>
		</g>
		<g id="shape17-29" v:mID="17" v:groupContext="shape" transform="translate(-169.51,260.841) rotate(-90)">
			<title>Simple Arrow.17</title>
			<v:userDefs>
				<v:ud v:nameU="visVersion" v:val="VT0(15):26"/>
				<v:ud v:nameU="ArrowType" v:prompt="" v:val="VT0(2):26"/>
			</v:userDefs>
			<g id="shadow17-30" v:groupContext="shadow" v:shadowOffsetX="0.345598" v:shadowOffsetY="-1.97279" v:shadowType="1"
					transform="matrix(1,0,0,1,-1.97279,0.345598)" class="st1">
				<path d="M0 299.85 L11.34 288.51 L11.34 294.18 L52.65 294.18 L52.65 299.85 L52.65 305.52 L11.34 305.52 L11.34 311.19
							 L0 299.85 Z" class="st5"/>
			</g>
			<path d="M0 299.85 L11.34 288.51 L11.34 294.18 L52.65 294.18 L52.65 299.85 L52.65 305.52 L11.34 305.52 L11.34 311.19
						 L0 299.85 Z" class="st6"/>
		</g>
		<g id="shape18-34" v:mID="18" v:groupContext="shape" transform="translate(2.7794,-5.0978)">
			<title>Rectangle.18</title>
			<desc>Validate</desc>
			<v:userDefs>
				<v:ud v:nameU="visVersion" v:val="VT0(15):26"/>
			</v:userDefs>
			<v:textBlock v:margins="rect(4,4,4,4)" v:tabSpace="42.5197"/>
			<v:textRect cx="127.559" cy="282.894" width="255.12" height="33.9094"/>
			<g id="shadow18-35" v:groupContext="shadow" v:shadowOffsetX="0.345598" v:shadowOffsetY="-1.97279" v:shadowType="1"
					transform="matrix(1,0,0,1,0.345598,1.97279)" class="st1">
				<rect x="0" y="265.939" width="255.118" height="33.9094" class="st2"/>
			</g>
			<rect x="0" y="265.939" width="255.118" height="33.9094" class="st3"/>
			<text x="110.85" y="285.89" class="st4" v:langID="1044"><v:paragraph v:horizAlign="1"/><v:tabList/>Validate</text>		</g>
	</g>
</svg>
