<?xml version="1.0" encoding="UTF-8" standalone="no"?>
<!DOCTYPE svg PUBLIC "-//W3C//DTD SVG 1.1//EN" "http://www.w3.org/Graphics/SVG/1.1/DTD/svg11.dtd">
<!-- Generated by Microsoft Visio, SVG Export Event_PUT.svg Page-1 -->
<svg xmlns="http://www.w3.org/2000/svg" xmlns:xlink="http://www.w3.org/1999/xlink" xmlns:ev="http://www.w3.org/2001/xml-events"
		xmlns:v="http://schemas.microsoft.com/visio/2003/SVGExtensions/" width="3.63011in" height="2.9623in"
		viewBox="0 0 261.368 213.285" xml:space="preserve" color-interpolation-filters="sRGB" class="st7">
	<v:documentProperties v:langID="1033" v:metric="true" v:viewMarkup="false">
		<v:userDefs>
			<v:ud v:nameU="DisableSpdActionTags" v:prompt="" v:val="VT0(0):26"/>
		</v:userDefs>
	</v:documentProperties>

	<style type="text/css">
	<![CDATA[
		.st1 {visibility:visible}
		.st2 {fill:#5b9bd5;fill-opacity:0.22;filter:url(#filter_2);stroke:#5b9bd5;stroke-opacity:0.22}
		.st3 {fill:#5b9bd5;stroke:#c7c8c8;stroke-width:0.25}
		.st4 {fill:#feffff;font-family:Calibri;font-size:0.833336em}
		.st5 {fill:#5b9bd5;fill-opacity:0.25;filter:url(#filter_2);stroke:#5b9bd5;stroke-opacity:0.25}
		.st6 {fill:#4f87bb;stroke:#40709c;stroke-width:0.75}
		.st7 {fill:none;fill-rule:evenodd;font-size:12px;overflow:visible;stroke-linecap:square;stroke-miterlimit:3}
	]]>
	</style>

	<defs id="Filters">
		<filter id="filter_2">
			<feGaussianBlur stdDeviation="2"/>
		</filter>
	</defs>
	<g v:mID="0" v:index="1" v:groupContext="foregroundPage">
		<title>Page-1</title>
		<v:pageProperties v:drawingScale="0.0393701" v:pageScale="0.0393701" v:drawingUnits="24" v:shadowOffsetX="8.50394"
				v:shadowOffsetY="-8.50394"/>
		<g id="shape38-1" v:mID="38" v:groupContext="shape" transform="translate(2.77947,-178.224)">
			<title>Rectangle.38</title>
			<desc>DataRetrieval</desc>
			<v:userDefs>
				<v:ud v:nameU="visVersion" v:val="VT0(15):26"/>
			</v:userDefs>
			<v:textBlock v:margins="rect(4,4,4,4)" v:tabSpace="42.5197"/>
			<v:textRect cx="127.559" cy="196.331" width="255.12" height="33.9094"/>
			<g id="shadow38-2" v:groupContext="shadow" v:shadowOffsetX="0.345598" v:shadowOffsetY="-1.97279" v:shadowType="1"
					transform="matrix(1,0,0,1,0.345598,1.97279)" class="st1">
				<rect x="0" y="179.376" width="255.118" height="33.9094" class="st2"/>
			</g>
			<rect x="0" y="179.376" width="255.118" height="33.9094" class="st3"/>
			<text x="99.96" y="199.33" class="st4" v:langID="1044"><v:paragraph v:horizAlign="1"/><v:tabList/>DataRetrieval</text>		</g>
		<g id="shape39-7" v:mID="39" v:groupContext="shape" transform="translate(2.77947,-91.6608)">
			<title>Rectangle.39</title>
			<desc>Calculation</desc>
			<v:userDefs>
				<v:ud v:nameU="visVersion" v:val="VT0(15):26"/>
			</v:userDefs>
			<v:textBlock v:margins="rect(4,4,4,4)" v:tabSpace="42.5197"/>
			<v:textRect cx="127.559" cy="196.331" width="255.12" height="33.9094"/>
			<g id="shadow39-8" v:groupContext="shadow" v:shadowOffsetX="0.345598" v:shadowOffsetY="-1.97279" v:shadowType="1"
					transform="matrix(1,0,0,1,0.345598,1.97279)" class="st1">
				<rect x="0" y="179.376" width="255.118" height="33.9094" class="st2"/>
			</g>
			<rect x="0" y="179.376" width="255.118" height="33.9094" class="st3"/>
			<text x="104.98" y="199.33" class="st4" v:langID="1044"><v:paragraph v:horizAlign="1"/><v:tabList/>Calculation</text>		</g>
		<g id="shape41-13" v:mID="41" v:groupContext="shape" transform="translate(-82.9469,87.7152) rotate(-90)">
			<title>Simple Arrow.41</title>
			<v:userDefs>
				<v:ud v:nameU="visVersion" v:val="VT0(15):26"/>
				<v:ud v:nameU="ArrowType" v:prompt="" v:val="VT0(2):26"/>
			</v:userDefs>
			<g id="shadow41-14" v:groupContext="shadow" v:shadowOffsetX="0.345598" v:shadowOffsetY="-1.97279" v:shadowType="1"
					transform="matrix(1,0,0,1,-1.97279,0.345598)" class="st1">
				<path d="M0 213.29 L11.34 201.95 L11.34 207.62 L52.65 207.62 L52.65 213.29 L52.65 218.95 L11.34 218.95 L11.34 224.62
							 L0 213.29 Z" class="st5"/>
			</g>
			<path d="M0 213.29 L11.34 201.95 L11.34 207.62 L52.65 207.62 L52.65 213.29 L52.65 218.95 L11.34 218.95 L11.34 224.62
						 L0 213.29 Z" class="st6"/>
		</g>
		<g id="shape42-18" v:mID="42" v:groupContext="shape" transform="translate(-82.9469,174.278) rotate(-90)">
			<title>Simple Arrow.42</title>
			<v:userDefs>
				<v:ud v:nameU="visVersion" v:val="VT0(15):26"/>
				<v:ud v:nameU="ArrowType" v:prompt="" v:val="VT0(2):26"/>
			</v:userDefs>
			<g id="shadow42-19" v:groupContext="shadow" v:shadowOffsetX="0.345598" v:shadowOffsetY="-1.97279" v:shadowType="1"
					transform="matrix(1,0,0,1,-1.97279,0.345598)" class="st1">
				<path d="M0 213.29 L11.34 201.95 L11.34 207.62 L52.65 207.62 L52.65 213.29 L52.65 218.95 L11.34 218.95 L11.34 224.62
							 L0 213.29 Z" class="st5"/>
			</g>
			<path d="M0 213.29 L11.34 201.95 L11.34 207.62 L52.65 207.62 L52.65 213.29 L52.65 218.95 L11.34 218.95 L11.34 224.62
						 L0 213.29 Z" class="st6"/>
		</g>
		<g id="shape43-23" v:mID="43" v:groupContext="shape" transform="translate(2.77947,-5.09779)">
			<title>Rectangle.43</title>
			<desc>Validate</desc>
			<v:userDefs>
				<v:ud v:nameU="visVersion" v:val="VT0(15):26"/>
			</v:userDefs>
			<v:textBlock v:margins="rect(4,4,4,4)" v:tabSpace="42.5197"/>
			<v:textRect cx="127.559" cy="196.331" width="255.12" height="33.9094"/>
			<g id="shadow43-24" v:groupContext="shadow" v:shadowOffsetX="0.345598" v:shadowOffsetY="-1.97279" v:shadowType="1"
					transform="matrix(1,0,0,1,0.345598,1.97279)" class="st1">
				<rect x="0" y="179.376" width="255.118" height="33.9094" class="st2"/>
			</g>
			<rect x="0" y="179.376" width="255.118" height="33.9094" class="st3"/>
			<text x="110.85" y="199.33" class="st4" v:langID="1044"><v:paragraph v:horizAlign="1"/><v:tabList/>Validate</text>		</g>
	</g>
</svg>
