<?xml version="1.0" encoding="UTF-8" standalone="no"?>
<!DOCTYPE svg PUBLIC "-//W3C//DTD SVG 1.1//EN" "http://www.w3.org/Graphics/SVG/1.1/DTD/svg11.dtd">
<!-- Generated by Microsoft Visio, SVG Export AltinnStudio_Deployment_Architecture.svg Page-1 -->
<svg xmlns="http://www.w3.org/2000/svg" xmlns:xlink="http://www.w3.org/1999/xlink" xmlns:ev="http://www.w3.org/2001/xml-events"
		xmlns:v="http://schemas.microsoft.com/visio/2003/SVGExtensions/" width="11.7481in" height="4.9658in"
		viewBox="0 0 845.86 357.537" xml:space="preserve" color-interpolation-filters="sRGB" class="st18">
	<v:documentProperties v:langID="1033" v:metric="true" v:viewMarkup="false">
		<v:userDefs>
			<v:ud v:nameU="DisableSpdActionTags" v:prompt="" v:val="VT0(0):26"/>
		</v:userDefs>
	</v:documentProperties>

	<style type="text/css">
	<![CDATA[
		.st1 {visibility:visible}
		.st2 {fill:#5b9bd5;fill-opacity:0.22;filter:url(#filter_2);stroke:#5b9bd5;stroke-opacity:0.22}
		.st3 {fill:#5b9bd5;stroke:#c7c8c8;stroke-width:0.25}
		.st4 {fill:#feffff;font-family:Calibri;font-size:0.833336em}
		.st5 {fill:none;filter:url(#filter_2);stroke:#5b9bd5;stroke-dasharray:5.25,3.75,0.01,3.75;stroke-opacity:0.22}
		.st6 {fill:none;stroke:#c7c8c8;stroke-dasharray:5.25,3.75,0.01,3.75;stroke-width:0.75}
		.st7 {fill:none;stroke:none;stroke-width:0.25}
		.st8 {fill:#5b9bd5;font-family:Calibri;font-size:0.833336em}
		.st9 {fill:#5b9bd5;fill-opacity:0.22;filter:url(#filter_2)}
		.st10 {fill:none;filter:url(#filter_2);stroke:#5b9bd5;stroke-opacity:0.22}
		.st11 {fill:#5b9bd5}
		.st12 {stroke:#c8c8c8;stroke-width:0.25}
		.st13 {fill:#feffff;font-family:Calibri;font-size:0.666664em}
		.st14 {fill:#5b9bd5;font-family:Calibri;font-size:1.00001em}
		.st15 {fill:#4a80b1;stroke:none;stroke-linecap:butt;stroke-width:0.75}
		.st16 {fill:#5b9bd5;font-family:Calibri;font-size:0.666664em}
		.st17 {font-size:1em}
		.st18 {fill:none;fill-rule:evenodd;font-size:12px;overflow:visible;stroke-linecap:square;stroke-miterlimit:3}
	]]>
	</style>

	<defs id="Filters">
		<filter id="filter_2">
			<feGaussianBlur stdDeviation="2"/>
		</filter>
	</defs>
	<g v:mID="0" v:index="1" v:groupContext="foregroundPage">
		<title>Page-1</title>
		<v:pageProperties v:drawingScale="0.0393701" v:pageScale="0.0393701" v:drawingUnits="24" v:shadowOffsetX="8.50394"
				v:shadowOffsetY="-8.50394"/>
		<v:layer v:name="Flowchart" v:index="0"/>
		<g id="shape1-1" v:mID="1" v:groupContext="shape" transform="translate(442.455,-181.096)">
			<title>Rectangle</title>
			<desc>Runtime</desc>
			<v:userDefs>
				<v:ud v:nameU="visVersion" v:val="VT0(15):26"/>
			</v:userDefs>
			<v:textBlock v:margins="rect(4,4,4,4)" v:tabSpace="42.5197"/>
			<v:textRect cx="56.6929" cy="326.356" width="113.39" height="62.3622"/>
			<g id="shadow1-2" v:groupContext="shadow" v:shadowOffsetX="0.345598" v:shadowOffsetY="-1.97279" v:shadowType="1"
					transform="matrix(1,0,0,1,0.345598,1.97279)" class="st1">
				<rect x="0" y="295.175" width="113.386" height="62.3622" class="st2"/>
			</g>
			<rect x="0" y="295.175" width="113.386" height="62.3622" class="st3"/>
			<text x="39.42" y="329.36" class="st4" v:langID="1044"><v:paragraph v:horizAlign="1"/><v:tabList/>Runtime</text>		</g>
		<g id="shape2-7" v:mID="2" v:groupContext="shape" transform="translate(73.9508,-145.663)">
			<title>Rectangle.2</title>
			<desc>Repository</desc>
			<v:userDefs>
				<v:ud v:nameU="visVersion" v:val="VT0(15):26"/>
			</v:userDefs>
			<v:textBlock v:margins="rect(4,4,4,4)" v:tabSpace="42.5197"/>
			<v:textRect cx="56.6929" cy="328.482" width="113.39" height="58.1102"/>
			<g id="shadow2-8" v:groupContext="shadow" v:shadowOffsetX="0.345598" v:shadowOffsetY="-1.97279" v:shadowType="1"
					transform="matrix(1,0,0,1,0.345598,1.97279)" class="st1">
				<rect x="0" y="299.427" width="113.386" height="58.1102" class="st2"/>
			</g>
			<rect x="0" y="299.427" width="113.386" height="58.1102" class="st3"/>
			<text x="34.81" y="331.48" class="st4" v:langID="1044"><v:paragraph v:horizAlign="1"/><v:tabList/>Repository</text>		</g>
		<g id="shape3-13" v:mID="3" v:groupContext="shape" transform="translate(266.707,-178.261)">
			<title>Rectangle.3</title>
			<desc>Designer</desc>
			<v:userDefs>
				<v:ud v:nameU="visVersion" v:val="VT0(15):26"/>
			</v:userDefs>
			<v:textBlock v:margins="rect(4,4,4,4)" v:tabSpace="42.5197"/>
			<v:textRect cx="56.6929" cy="326.356" width="113.39" height="62.3622"/>
			<g id="shadow3-14" v:groupContext="shadow" v:shadowOffsetX="0.345598" v:shadowOffsetY="-1.97279" v:shadowType="1"
					transform="matrix(1,0,0,1,0.345598,1.97279)" class="st1">
				<rect x="0" y="295.175" width="113.386" height="62.3622" class="st2"/>
			</g>
			<rect x="0" y="295.175" width="113.386" height="62.3622" class="st3"/>
			<text x="38.81" y="329.36" class="st4" v:langID="1044"><v:paragraph v:horizAlign="1"/><v:tabList/>Designer</text>		</g>
		<g id="shape4-19" v:mID="4" v:groupContext="shape" transform="translate(300.722,-138.576)">
			<title>Rectangle.4</title>
			<desc>Designer</desc>
			<v:userDefs>
				<v:ud v:nameU="visVersion" v:val="VT0(15):26"/>
			</v:userDefs>
			<v:textBlock v:margins="rect(4,4,4,4)" v:tabSpace="42.5197"/>
			<v:textRect cx="56.6929" cy="326.356" width="113.39" height="62.3622"/>
			<g id="shadow4-20" v:groupContext="shadow" v:shadowOffsetX="0.345598" v:shadowOffsetY="-1.97279" v:shadowType="1"
					transform="matrix(1,0,0,1,0.345598,1.97279)" class="st1">
				<rect x="0" y="295.175" width="113.386" height="62.3622" class="st2"/>
			</g>
			<rect x="0" y="295.175" width="113.386" height="62.3622" class="st3"/>
			<text x="38.81" y="329.36" class="st4" v:langID="1044"><v:paragraph v:horizAlign="1"/><v:tabList/>Designer</text>		</g>
		<g id="shape5-25" v:mID="5" v:groupContext="shape" transform="translate(510.486,-138.576)">
			<title>Rectangle.5</title>
			<desc>Runtime</desc>
			<v:userDefs>
				<v:ud v:nameU="visVersion" v:val="VT0(15):26"/>
			</v:userDefs>
			<v:textBlock v:margins="rect(4,4,4,4)" v:tabSpace="42.5197"/>
			<v:textRect cx="56.6929" cy="326.356" width="113.39" height="62.3622"/>
			<g id="shadow5-26" v:groupContext="shadow" v:shadowOffsetX="0.345598" v:shadowOffsetY="-1.97279" v:shadowType="1"
					transform="matrix(1,0,0,1,0.345598,1.97279)" class="st1">
				<rect x="0" y="295.175" width="113.386" height="62.3622" class="st2"/>
			</g>
			<rect x="0" y="295.175" width="113.386" height="62.3622" class="st3"/>
			<text x="39.42" y="329.36" class="st4" v:langID="1044"><v:paragraph v:horizAlign="1"/><v:tabList/>Runtime</text>		</g>
		<g id="shape7-31" v:mID="7" v:groupContext="shape" transform="translate(431.116,-114.482)">
			<title>Sheet.7</title>
			<g id="shadow7-32" v:groupContext="shadow" v:shadowOffsetX="0.345598" v:shadowOffsetY="-1.97279" v:shadowType="1"
					transform="matrix(1,0,0,1,0.345598,1.97279)" class="st1">
				<path d="M0 357.54 L198.43 357.54 L198.43 195.96 L0 195.96 L0 357.54 Z" class="st5"/>
			</g>
			<path d="M0 357.54 L198.43 357.54 L198.43 195.96 L0 195.96 L0 357.54 Z" class="st6"/>
		</g>
		<g id="shape8-36" v:mID="8" v:groupContext="shape" transform="translate(229.856,-114.482)">
			<title>Sheet.8</title>
			<g id="shadow8-37" v:groupContext="shadow" v:shadowOffsetX="0.345598" v:shadowOffsetY="-1.97279" v:shadowType="1"
					transform="matrix(1,0,0,1,0.345598,1.97279)" class="st1">
				<path d="M0 357.54 L198.43 357.54 L198.43 195.96 L0 195.96 L0 357.54 Z" class="st5"/>
			</g>
			<path d="M0 357.54 L198.43 357.54 L198.43 195.96 L0 195.96 L0 357.54 Z" class="st6"/>
		</g>
		<g id="shape9-41" v:mID="9" v:groupContext="shape" transform="translate(28.5965,-114.482)">
			<title>Sheet.9</title>
			<g id="shadow9-42" v:groupContext="shadow" v:shadowOffsetX="0.345598" v:shadowOffsetY="-1.97279" v:shadowType="1"
					transform="matrix(1,0,0,1,0.345598,1.97279)" class="st1">
				<path d="M0 357.54 L198.43 357.54 L198.43 195.96 L0 195.96 L0 357.54 Z" class="st5"/>
			</g>
			<path d="M0 357.54 L198.43 357.54 L198.43 195.96 L0 195.96 L0 357.54 Z" class="st6"/>
		</g>
		<g id="shape10-46" v:mID="10" v:groupContext="shape" transform="translate(11.5886,-96.0565)">
			<title>Sheet.10</title>
			<g id="shadow10-47" v:groupContext="shadow" v:shadowOffsetX="0.345598" v:shadowOffsetY="-1.97279" v:shadowType="1"
					transform="matrix(1,0,0,1,0.345598,1.97279)" class="st1">
				<path d="M0 357.54 L646.3 357.54 L646.3 97.46 L0 97.46 L0 357.54 Z" class="st5"/>
			</g>
			<path d="M0 357.54 L646.3 357.54 L646.3 97.46 L0 97.46 L0 357.54 Z" class="st6"/>
		</g>
		<g id="shape12-51" v:mID="12" v:groupContext="shape" transform="translate(11.5886,-5.34779)">
			<title>Sheet.12</title>
			<g id="shadow12-52" v:groupContext="shadow" v:shadowOffsetX="0.345598" v:shadowOffsetY="-1.97279" v:shadowType="1"
					transform="matrix(1,0,0,1,0.345598,1.97279)" class="st1">
				<path d="M0 357.54 L646.3 357.54 L646.3 283.84 L0 283.84 L0 357.54 Z" class="st5"/>
			</g>
			<path d="M0 357.54 L646.3 357.54 L646.3 283.84 L0 283.84 L0 357.54 Z" class="st6"/>
		</g>
		<g id="shape13-56" v:mID="13" v:groupContext="shape" transform="translate(34.2657,-288.812)">
			<title>Rectangle.13</title>
			<desc>Router container (nginx)</desc>
			<v:userDefs>
				<v:ud v:nameU="visVersion" v:val="VT0(15):26"/>
			</v:userDefs>
			<v:textBlock v:margins="rect(4,4,4,4)" v:tabSpace="42.5197"/>
			<v:textRect cx="291.968" cy="345.844" width="583.94" height="23.3859"/>
			<g id="shadow13-57" v:groupContext="shadow" v:shadowOffsetX="0.345598" v:shadowOffsetY="-1.97279" v:shadowType="1"
					transform="matrix(1,0,0,1,0.345598,1.97279)" class="st1">
				<rect x="0" y="334.151" width="583.937" height="23.3859" class="st2"/>
			</g>
			<rect x="0" y="334.151" width="583.937" height="23.3859" class="st3"/>
			<text x="242.42" y="348.84" class="st4" v:langID="1044"><v:paragraph v:horizAlign="1"/><v:tabList/>Router container (nginx)</text>		</g>
		<g id="shape14-62" v:mID="14" v:groupContext="shape" transform="translate(28.5965,-277.474)">
			<title>Sheet.14</title>
			<g id="shadow14-63" v:groupContext="shadow" v:shadowOffsetX="0.345598" v:shadowOffsetY="-1.97279" v:shadowType="1"
					transform="matrix(1,0,0,1,0.345598,1.97279)" class="st1">
				<path d="M0 357.54 L600.94 357.54 L600.94 306.51 L0 306.51 L0 357.54 Z" class="st5"/>
			</g>
			<path d="M0 357.54 L600.94 357.54 L600.94 306.51 L0 306.51 L0 357.54 Z" class="st6"/>
		</g>
		<g id="shape15-67" v:mID="15" v:groupContext="shape" transform="translate(17.2579,-251.962)">
			<title>Sheet.15</title>
			<desc>Docker Container</desc>
			<v:textBlock v:margins="rect(4,4,4,4)" v:tabSpace="42.5197"/>
			<v:textRect cx="51.0236" cy="343.364" width="102.05" height="28.3465"/>
			<rect x="0" y="329.191" width="102.047" height="28.3465" class="st7"/>
			<text x="15.56" y="346.36" class="st8" v:langID="1044"><v:paragraph v:horizAlign="1"/><v:tabList/>Docker Container</text>		</g>
		<g id="shape18-70" v:mID="18" v:groupContext="shape" transform="translate(221.352,-251.962)">
			<title>Sheet.18</title>
			<desc>Docker Container</desc>
			<v:textBlock v:margins="rect(4,4,4,4)" v:tabSpace="42.5197"/>
			<v:textRect cx="51.0236" cy="343.364" width="102.05" height="28.3465"/>
			<rect x="0" y="329.191" width="102.047" height="28.3465" class="st7"/>
			<text x="15.56" y="346.36" class="st8" v:langID="1044"><v:paragraph v:horizAlign="1"/><v:tabList/>Docker Container</text>		</g>
		<g id="shape19-73" v:mID="19" v:groupContext="shape" v:layerMember="0" transform="translate(127.809,-20.9383)">
			<title>Database.261</title>
			<desc>Database</desc>
			<v:custProps>
				<v:cp v:nameU="Cost" v:lbl="Cost" v:type="7" v:format="@" v:langID="1033"/>
				<v:cp v:nameU="Duration" v:lbl="Duration" v:type="2" v:langID="1033"/>
				<v:cp v:nameU="Resources" v:lbl="Resources" v:langID="1033"/>
			</v:custProps>
			<v:userDefs>
				<v:ud v:nameU="visVersion" v:val="VT0(15):26"/>
			</v:userDefs>
			<v:textBlock v:margins="rect(2,2,2,2)" v:tabSpace="42.5197"/>
			<v:textRect cx="21.2598" cy="342.655" width="42.52" height="29.7638"/>
			<g id="shadow19-74" v:groupContext="shadow" v:shadowOffsetX="0.345598" v:shadowOffsetY="-1.97279" v:shadowType="1"
					transform="matrix(1,0,0,1,0.345598,1.97279)" class="st1">
				<path d="M0 319.27 L0 353.29 A21.2598 4.25197 -180 1 0 42.52 353.29 L42.52 319.27 A21.2598 4.25197 -180 1 0 -0 319.27
							 Z" class="st9"/>
				<path d="M0 319.27 L0 353.29 A21.2598 4.25197 -180 1 0 42.52 353.29 L42.52 319.27 A21.2598 4.25197 -180 1 0 -0 319.27"
						class="st10"/>
				<path d="M0 319.27 A21.2598 4.25197 -180 1 0 42.52 319.27" class="st10"/>
				<path d="M0 321.4 A21.2598 4.25197 -180 1 0 42.52 321.4" class="st10"/>
				<path d="M0 323.52 A21.2598 4.25197 -180 1 0 42.52 323.52" class="st10"/>
			</g>
			<path d="M0 319.27 L0 353.29 A21.2598 4.25197 -180 1 0 42.52 353.29 L42.52 319.27 A21.2598 4.25197 -180 1 0 -0 319.27
						 Z" class="st11"/>
			<path d="M0 319.27 L0 353.29 A21.2598 4.25197 -180 1 0 42.52 353.29 L42.52 319.27 A21.2598 4.25197 -180 1 0 -0 319.27"
					class="st12"/>
			<path d="M0 319.27 A21.2598 4.25197 -180 1 0 42.52 319.27" class="st12"/>
			<path d="M0 321.4 A21.2598 4.25197 -180 1 0 42.52 321.4" class="st12"/>
			<path d="M0 323.52 A21.2598 4.25197 -180 1 0 42.52 323.52" class="st12"/>
			<text x="6.05" y="345.06" class="st13" v:langID="1044"><v:paragraph v:horizAlign="1"/><v:tabList/>Database</text>		</g>
		<g id="shape20-88" v:mID="20" v:groupContext="shape" transform="translate(0.25,-56.3714)">
			<title>Sheet.20</title>
			<desc>Cloud Infrastructure</desc>
			<v:textBlock v:margins="rect(4,4,4,4)" v:tabSpace="42.5197"/>
			<v:textRect cx="70.8661" cy="346.199" width="141.74" height="22.6772"/>
			<rect x="0" y="334.86" width="141.732" height="22.6772" class="st7"/>
			<text x="21.63" y="349.8" class="st14" v:langID="1044"><v:paragraph v:horizAlign="1"/><v:tabList/>Cloud Infrastructure</text>		</g>
		<g id="shape21-91" v:mID="21" v:groupContext="shape" transform="translate(663.557,-96.0565)">
			<title>Sheet.21</title>
			<g id="shadow21-92" v:groupContext="shadow" v:shadowOffsetX="0.345598" v:shadowOffsetY="-1.97279" v:shadowType="1"
					transform="matrix(1,0,0,1,0.345598,1.97279)" class="st1">
				<path d="M0 357.54 L178.58 357.54 L178.58 97.46 L0 97.46 L0 357.54 Z" class="st5"/>
			</g>
			<path d="M0 357.54 L178.58 357.54 L178.58 97.46 L0 97.46 L0 357.54 Z" class="st6"/>
		</g>
		<g id="shape22-96" v:mID="22" v:groupContext="shape" transform="translate(79.6201,-30.8582)">
			<title>Hard drive</title>
			<v:userDefs>
				<v:ud v:nameU="msvShapeCategories" v:prompt="" v:val="VT4(Icon)"/>
				<v:ud v:nameU="visVersion" v:prompt="" v:val="VT0(15):26"/>
			</v:userDefs>
			<path d="M21.26 352.14 L21.26 353.22 L4.25 353.22 L4.25 352.14 L21.26 352.14 ZM21.26 348.9 L21.26 349.98 L4.25 349.98
						 L4.25 348.9 L21.26 348.9 ZM29.76 349.98 L29.76 353.22 L26.57 353.22 L26.57 349.98 L29.76 349.98 ZM31.89
						 355.38 L31.89 346.74 L2.13 346.74 L2.13 355.38 L31.89 355.38 ZM8.48 337.02 C7.63 338.12 4.16 342.66 2.69
						 344.58 L31.32 344.58 C29.86 342.66 26.38 338.12 25.53 337.02 L8.48 337.02 ZM33.36 343.72 C33.72 344.19 34.02
						 345.06 34.02 345.66 L34.02 356.46 C34.02 357.05 33.54 357.54 32.95 357.54 L1.06 357.54 C0.48 357.54 -0 357.05
						 0 356.46 L0 345.66 C-0 345.06 0.29 344.19 0.65 343.72 L6.79 335.71 C7.15 335.24 7.92 334.86 8.5 334.86 L25.51
						 334.86 C26.1 334.86 26.87 335.24 27.23 335.71 L33.36 343.72 Z" class="st15"/>
		</g>
		<g id="shape23-98" v:mID="23" v:groupContext="shape" transform="translate(300.722,-30.8582)">
			<title>Hard drive.23</title>
			<v:userDefs>
				<v:ud v:nameU="msvShapeCategories" v:prompt="" v:val="VT4(Icon)"/>
				<v:ud v:nameU="visVersion" v:prompt="" v:val="VT0(15):26"/>
			</v:userDefs>
			<path d="M21.26 352.14 L21.26 353.22 L4.25 353.22 L4.25 352.14 L21.26 352.14 ZM21.26 348.9 L21.26 349.98 L4.25 349.98
						 L4.25 348.9 L21.26 348.9 ZM29.76 349.98 L29.76 353.22 L26.57 353.22 L26.57 349.98 L29.76 349.98 ZM31.89
						 355.38 L31.89 346.74 L2.13 346.74 L2.13 355.38 L31.89 355.38 ZM8.48 337.02 C7.63 338.12 4.16 342.66 2.69
						 344.58 L31.32 344.58 C29.86 342.66 26.38 338.12 25.53 337.02 L8.48 337.02 ZM33.36 343.72 C33.72 344.19 34.02
						 345.06 34.02 345.66 L34.02 356.46 C34.02 357.05 33.54 357.54 32.95 357.54 L1.06 357.54 C0.48 357.54 -0 357.05
						 0 356.46 L0 345.66 C-0 345.06 0.29 344.19 0.65 343.72 L6.79 335.71 C7.15 335.24 7.92 334.86 8.5 334.86 L25.51
						 334.86 C26.1 334.86 26.87 335.24 27.23 335.71 L33.36 343.72 Z" class="st15"/>
		</g>
		<g id="shape24-100" v:mID="24" v:groupContext="shape" transform="translate(527.494,-30.8582)">
			<title>Hard drive.24</title>
			<v:userDefs>
				<v:ud v:nameU="msvShapeCategories" v:prompt="" v:val="VT4(Icon)"/>
				<v:ud v:nameU="visVersion" v:prompt="" v:val="VT0(15):26"/>
			</v:userDefs>
			<path d="M21.26 352.14 L21.26 353.22 L4.25 353.22 L4.25 352.14 L21.26 352.14 ZM21.26 348.9 L21.26 349.98 L4.25 349.98
						 L4.25 348.9 L21.26 348.9 ZM29.76 349.98 L29.76 353.22 L26.57 353.22 L26.57 349.98 L29.76 349.98 ZM31.89
						 355.38 L31.89 346.74 L2.13 346.74 L2.13 355.38 L31.89 355.38 ZM8.48 337.02 C7.63 338.12 4.16 342.66 2.69
						 344.58 L31.32 344.58 C29.86 342.66 26.38 338.12 25.53 337.02 L8.48 337.02 ZM33.36 343.72 C33.72 344.19 34.02
						 345.06 34.02 345.66 L34.02 356.46 C34.02 357.05 33.54 357.54 32.95 357.54 L1.06 357.54 C0.48 357.54 -0 357.05
						 0 356.46 L0 345.66 C-0 345.06 0.29 344.19 0.65 343.72 L6.79 335.71 C7.15 335.24 7.92 334.86 8.5 334.86 L25.51
						 334.86 C26.1 334.86 26.87 335.24 27.23 335.71 L33.36 343.72 Z" class="st15"/>
		</g>
		<g id="shape25-102" v:mID="25" v:groupContext="shape" transform="translate(10.1712,-333.458)">
			<title>Sheet.25</title>
			<desc>Kubernetes Cluster (Altinn Studio)</desc>
			<v:textBlock v:margins="rect(4,4,4,4)" v:tabSpace="42.5197"/>
			<v:textRect cx="89.2913" cy="346.199" width="178.59" height="22.6772"/>
			<rect x="0" y="334.86" width="178.583" height="22.6772" class="st7"/>
			<text x="6.29" y="349.8" class="st14" v:langID="1044"><v:paragraph v:horizAlign="1"/><v:tabList/>Kubernetes Cluster (Altinn Studio)</text>		</g>
		<g id="shape26-105" v:mID="26" v:groupContext="shape" transform="translate(680.565,-280.025)">
			<title>Rectangle.26</title>
			<desc>Code IDE</desc>
			<v:userDefs>
				<v:ud v:nameU="visVersion" v:val="VT0(15):26"/>
			</v:userDefs>
			<v:textBlock v:margins="rect(4,4,4,4)" v:tabSpace="42.5197"/>
			<v:textRect cx="31.1811" cy="340.388" width="62.37" height="34.2992"/>
			<g id="shadow26-106" v:groupContext="shadow" v:shadowOffsetX="0.345598" v:shadowOffsetY="-1.97279" v:shadowType="1"
					transform="matrix(1,0,0,1,0.345598,1.97279)" class="st1">
				<rect x="0" y="323.238" width="62.3622" height="34.2992" class="st2"/>
			</g>
			<rect x="0" y="323.238" width="62.3622" height="34.2992" class="st3"/>
			<text x="12.86" y="343.39" class="st4" v:langID="1044"><v:paragraph v:horizAlign="1"/><v:tabList/>Code IDE</text>		</g>
		<g id="shape27-111" v:mID="27" v:groupContext="shape" transform="translate(680.565,-328.497)">
			<title>Sheet.27</title>
			<desc>Local Developer</desc>
			<v:textBlock v:margins="rect(4,4,4,4)" v:tabSpace="42.5197"/>
			<v:textRect cx="70.8661" cy="346.199" width="141.74" height="22.6772"/>
			<rect x="0" y="334.86" width="141.732" height="22.6772" class="st7"/>
			<text x="31.89" y="349.8" class="st14" v:langID="1044"><v:paragraph v:horizAlign="1"/><v:tabList/>Local Developer</text>		</g>
		<g id="shape51-114" v:mID="51" v:groupContext="shape" transform="translate(768.439,-280.025)">
			<title>Rectangle.51</title>
			<desc>XML Editor</desc>
			<v:userDefs>
				<v:ud v:nameU="visVersion" v:val="VT0(15):26"/>
			</v:userDefs>
			<v:textBlock v:margins="rect(4,4,4,4)" v:tabSpace="42.5197"/>
			<v:textRect cx="31.1811" cy="340.388" width="62.37" height="34.2992"/>
			<g id="shadow51-115" v:groupContext="shadow" v:shadowOffsetX="0.345598" v:shadowOffsetY="-1.97279" v:shadowType="1"
					transform="matrix(1,0,0,1,0.345598,1.97279)" class="st1">
				<rect x="0" y="323.238" width="62.3622" height="34.2992" class="st2"/>
			</g>
			<rect x="0" y="323.238" width="62.3622" height="34.2992" class="st3"/>
			<text x="8.81" y="343.39" class="st4" v:langID="1044"><v:paragraph v:horizAlign="1"/><v:tabList/>XML Editor</text>		</g>
		<g id="shape52-120" v:mID="52" v:groupContext="shape" transform="translate(680.565,-226.592)">
			<title>Rectangle.52</title>
			<desc>Photo editor</desc>
			<v:userDefs>
				<v:ud v:nameU="visVersion" v:val="VT0(15):26"/>
			</v:userDefs>
			<v:textBlock v:margins="rect(4,4,4,4)" v:tabSpace="42.5197"/>
			<v:textRect cx="31.1811" cy="340.388" width="62.37" height="34.2992"/>
			<g id="shadow52-121" v:groupContext="shadow" v:shadowOffsetX="0.345598" v:shadowOffsetY="-1.97279" v:shadowType="1"
					transform="matrix(1,0,0,1,0.345598,1.97279)" class="st1">
				<rect x="0" y="323.238" width="62.3622" height="34.2992" class="st2"/>
			</g>
			<rect x="0" y="323.238" width="62.3622" height="34.2992" class="st3"/>
			<text x="5.58" y="343.39" class="st4" v:langID="1044"><v:paragraph v:horizAlign="1"/><v:tabList/>Photo editor</text>		</g>
		<g id="shape53-126" v:mID="53" v:groupContext="shape" transform="translate(283.715,-11.0171)">
			<title>Sheet.53</title>
			<desc>Local Repo</desc>
			<v:textBlock v:margins="rect(4,4,4,4)" v:tabSpace="42.5197"/>
			<v:textRect cx="34.0157" cy="346.199" width="68.04" height="22.6772"/>
			<rect x="0" y="334.86" width="68.0315" height="22.6772" class="st7"/>
			<text x="16.42" y="348.6" class="st16" v:langID="1044"><v:paragraph v:horizAlign="1"/><v:tabList/>Local Repo</text>		</g>
		<g id="shape55-129" v:mID="55" v:groupContext="shape" transform="translate(56.9429,-5.34779)">
			<title>Sheet.55</title>
			<desc>Remote Repo</desc>
			<v:textBlock v:margins="rect(4,4,4,4)" v:tabSpace="42.5197"/>
			<v:textRect cx="34.0157" cy="346.199" width="68.04" height="22.6772"/>
			<rect x="0" y="334.86" width="68.0315" height="22.6772" class="st7"/>
			<text x="11.94" y="348.6" class="st16" v:langID="1044"><v:paragraph v:horizAlign="1"/><v:tabList/>Remote Repo</text>		</g>
		<g id="shape56-132" v:mID="56" v:groupContext="shape" transform="translate(731.589,-135.739)">
			<title>Hard drive.56</title>
			<v:userDefs>
				<v:ud v:nameU="msvShapeCategories" v:prompt="" v:val="VT4(Icon)"/>
				<v:ud v:nameU="visVersion" v:prompt="" v:val="VT0(15):26"/>
			</v:userDefs>
			<path d="M21.26 352.14 L21.26 353.22 L4.25 353.22 L4.25 352.14 L21.26 352.14 ZM21.26 348.9 L21.26 349.98 L4.25 349.98
						 L4.25 348.9 L21.26 348.9 ZM29.76 349.98 L29.76 353.22 L26.57 353.22 L26.57 349.98 L29.76 349.98 ZM31.89
						 355.38 L31.89 346.74 L2.13 346.74 L2.13 355.38 L31.89 355.38 ZM8.48 337.02 C7.63 338.12 4.16 342.66 2.69
						 344.58 L31.32 344.58 C29.86 342.66 26.38 338.12 25.53 337.02 L8.48 337.02 ZM33.36 343.72 C33.72 344.19 34.02
						 345.06 34.02 345.66 L34.02 356.46 C34.02 357.05 33.54 357.54 32.95 357.54 L1.06 357.54 C0.48 357.54 -0 357.05
						 0 356.46 L0 345.66 C-0 345.06 0.29 344.19 0.65 343.72 L6.79 335.71 C7.15 335.24 7.92 334.86 8.5 334.86 L25.51
						 334.86 C26.1 334.86 26.87 335.24 27.23 335.71 L33.36 343.72 Z" class="st15"/>
		</g>
		<g id="shape57-134" v:mID="57" v:groupContext="shape" transform="translate(714.581,-115.898)">
			<title>Sheet.57</title>
			<desc>Local Repo</desc>
			<v:textBlock v:margins="rect(4,4,4,4)" v:tabSpace="42.5197"/>
			<v:textRect cx="34.0157" cy="346.199" width="68.04" height="22.6772"/>
			<rect x="0" y="334.86" width="68.0315" height="22.6772" class="st7"/>
			<text x="16.42" y="348.6" class="st16" v:langID="1044"><v:paragraph v:horizAlign="1"/><v:tabList/>Local Repo</text>		</g>
		<g id="shape58-137" v:mID="58" v:groupContext="shape" transform="translate(768.439,-226.592)">
			<title>Rectangle.58</title>
			<desc>Workflow editor</desc>
			<v:userDefs>
				<v:ud v:nameU="visVersion" v:val="VT0(15):26"/>
			</v:userDefs>
			<v:textBlock v:margins="rect(4,4,4,4)" v:tabSpace="42.5197"/>
			<v:textRect cx="31.1811" cy="340.388" width="62.37" height="34.2992"/>
			<g id="shadow58-138" v:groupContext="shadow" v:shadowOffsetX="0.345598" v:shadowOffsetY="-1.97279" v:shadowType="1"
					transform="matrix(1,0,0,1,0.345598,1.97279)" class="st1">
				<rect x="0" y="323.238" width="62.3622" height="34.2992" class="st2"/>
			</g>
			<rect x="0" y="323.238" width="62.3622" height="34.2992" class="st3"/>
			<text x="11.2" y="337.39" class="st4" v:langID="1044"><v:paragraph v:horizAlign="1"/><v:tabList/>Workflow <tspan
						x="18.86" dy="1.2em" class="st17">editor</tspan></text>		</g>
		<g id="shape59-144" v:mID="59" v:groupContext="shape" transform="translate(425.447,-254.797)">
			<title>Sheet.59</title>
			<desc>Docker Container</desc>
			<v:textBlock v:margins="rect(4,4,4,4)" v:tabSpace="42.5197"/>
			<v:textRect cx="51.0236" cy="343.364" width="102.05" height="28.3465"/>
			<rect x="0" y="329.191" width="102.047" height="28.3465" class="st7"/>
			<text x="15.56" y="346.36" class="st8" v:langID="1044"><v:paragraph v:horizAlign="1"/><v:tabList/>Docker Container</text>		</g>
	</g>
</svg>
