<?xml version="1.0" encoding="UTF-8" standalone="no"?>
<!DOCTYPE svg PUBLIC "-//W3C//DTD SVG 1.1//EN" "http://www.w3.org/Graphics/SVG/1.1/DTD/svg11.dtd">
<!-- Generated by Microsoft Visio, SVG Export Altinn_Studio_Authorization_Architecture_Rule.svg Page-1 -->
<svg xmlns="http://www.w3.org/2000/svg" xmlns:xlink="http://www.w3.org/1999/xlink" xmlns:ev="http://www.w3.org/2001/xml-events"
		xmlns:v="http://schemas.microsoft.com/visio/2003/SVGExtensions/" width="9.32491in" height="7.89972in"
		viewBox="0 0 671.394 568.78" xml:space="preserve" color-interpolation-filters="sRGB" class="st9">
	<v:documentProperties v:langID="1033" v:metric="true" v:viewMarkup="false">
		<v:userDefs>
			<v:ud v:nameU="DisableSpdActionTags" v:prompt="" v:val="VT0(0):26"/>
		</v:userDefs>
	</v:documentProperties>

	<style type="text/css">
	<![CDATA[
		.st1 {stroke:#5b9bd5;stroke-linecap:round;stroke-linejoin:round;stroke-width:3}
		.st2 {fill:#ffffff;stroke:none;stroke-linecap:butt;stroke-width:7.2}
		.st3 {fill:#4f87bb;font-family:Calibri;font-size:1.00001em}
		.st4 {stroke:#5b9bd5;stroke-linecap:round;stroke-linejoin:round;stroke-width:1}
		.st5 {fill:#ffffff;stroke:none;stroke-linecap:butt}
		.st6 {fill:none;stroke:none;stroke-width:0.25}
		.st7 {fill:#5b9bd5;font-family:Calibri;font-size:1.99999em}
		.st8 {font-size:1em}
		.st9 {fill:none;fill-rule:evenodd;font-size:12px;overflow:visible;stroke-linecap:square;stroke-miterlimit:3}
	]]>
	</style>

	<g v:mID="0" v:index="1" v:groupContext="foregroundPage">
		<title>Page-1</title>
		<v:pageProperties v:drawingScale="0.0393701" v:pageScale="0.0393701" v:drawingUnits="24" v:shadowOffsetX="8.50394"
				v:shadowOffsetY="-8.50394"/>
		<g id="shape1-1" v:mID="1" v:groupContext="shape" transform="translate(-39.4206,-153.554) rotate(-40.6013)">
			<title>Sheet.1</title>
			<desc>Condition</desc>
			<v:textBlock v:margins="rect(4,4,4,4)" v:tabSpace="42.5197"/>
			<v:textRect cx="130.671" cy="568.78" width="261.35" height="0"/>
			<path d="M0 568.78 L261.34 568.78" class="st1"/>
			<rect v:rectContext="textBkgnd" x="106.923" y="561.58" width="47.4966" height="14.4001" class="st2"/>
			<text x="106.92" y="572.38" class="st3" v:langID="1044"><v:paragraph v:horizAlign="1"/><v:tabList/>Condition</text>		</g>
		<g id="shape10-6" v:mID="10" v:groupContext="shape" transform="translate(430.394,-140.111) rotate(-10)">
			<title>Sheet.10</title>
			<desc>App</desc>
			<v:textBlock v:margins="rect(4,4,4,4)" v:tabSpace="42.5197"/>
			<v:textRect cx="70.8661" cy="568.78" width="141.74" height="0"/>
			<path d="M0 568.78 L141.73 568.78" class="st4"/>
			<rect v:rectContext="textBkgnd" x="61.0898" y="561.58" width="19.5529" height="14.4001" class="st2"/>
			<text x="61.09" y="572.38" class="st3" v:langID="1044"><v:paragraph v:horizAlign="1"/><v:tabList/>App</text>		</g>
		<g id="shape14-11" v:mID="14" v:groupContext="shape" transform="translate(676.372,-129.371) rotate(15)">
			<title>Sheet.14</title>
			<desc>Task</desc>
			<v:textBlock v:margins="rect(4,4,4,4)" v:tabSpace="42.5197"/>
			<v:textRect cx="70.8661" cy="568.78" width="141.74" height="0"/>
			<path d="M0 568.78 L141.73 568.78" class="st4"/>
			<rect v:rectContext="textBkgnd" x="59.9941" y="561.58" width="21.7441" height="14.4001" class="st2"/>
			<text x="59.99" y="572.38" class="st3" v:langID="1044"><v:paragraph v:horizAlign="1"/><v:tabList/>Task</text>		</g>
		<g id="shape16-16" v:mID="16" v:groupContext="shape" transform="translate(894.766,-15.6828) rotate(40)">
			<title>Sheet.16</title>
			<desc>Reportee</desc>
			<v:textBlock v:margins="rect(4,4,4,4)" v:tabSpace="42.5197"/>
			<v:textRect cx="70.8661" cy="568.78" width="141.74" height="0"/>
			<path d="M0 568.78 L141.73 568.78" class="st4"/>
			<rect v:rectContext="textBkgnd" x="48.2341" y="561.58" width="45.2642" height="14.4001" class="st2"/>
			<text x="48.23" y="572.38" class="st3" v:langID="1044"><v:paragraph v:horizAlign="1"/><v:tabList/>Reportee</text>		</g>
		<g id="shape17-21" v:mID="17" v:groupContext="shape" transform="translate(202.923,-45.8894) rotate(-35)">
			<title>Sheet.17</title>
			<desc>Org</desc>
			<v:textBlock v:margins="rect(4,4,4,4)" v:tabSpace="42.5197"/>
			<v:textRect cx="70.8661" cy="568.78" width="141.74" height="0"/>
			<path d="M0 568.78 L141.73 568.78" class="st4"/>
			<rect v:rectContext="textBkgnd" x="61.9774" y="561.58" width="17.7773" height="14.4001" class="st2"/>
			<text x="61.98" y="572.38" class="st3" v:langID="1044"><v:paragraph v:horizAlign="1"/><v:tabList/>Org</text>		</g>
		<g id="shape28-26" v:mID="28" v:groupContext="shape" transform="translate(1044.65,179.651) rotate(65)">
			<title>Sheet.28</title>
			<desc>Instance</desc>
			<v:textBlock v:margins="rect(4,4,4,4)" v:tabSpace="42.5197"/>
			<v:textRect cx="70.8661" cy="568.78" width="141.74" height="0"/>
			<path d="M0 568.78 L141.73 568.78" class="st4"/>
			<rect v:rectContext="textBkgnd" x="50.2965" y="561.58" width="41.1391" height="14.4001" class="st2"/>
			<text x="50.3" y="572.38" class="st3" v:langID="1044"><v:paragraph v:horizAlign="1"/><v:tabList/>Instance</text>		</g>
		<g id="shape31-31" v:mID="31" v:groupContext="shape" transform="translate(661.333,-184.54) rotate(35.5377)">
			<title>Sheet.31</title>
			<desc>Resource</desc>
			<v:textBlock v:margins="rect(4,4,4,4)" v:tabSpace="42.5197"/>
			<v:textRect cx="121.923" cy="568.78" width="243.85" height="0"/>
			<path d="M0 568.78 L243.85 568.78" class="st1"/>
			<rect v:rectContext="textBkgnd" x="99.4021" y="561.58" width="45.0415" height="14.4001" class="st2"/>
			<text x="99.4" y="572.38" class="st3" v:langID="1044"><v:paragraph v:horizAlign="1"/><v:tabList/>Resource</text>		</g>
		<g id="shape32-36" v:mID="32" v:groupContext="shape" transform="translate(126.974,-293.971) rotate(-45)">
			<title>Sheet.32</title>
			<desc>Authentication Level</desc>
			<v:textBlock v:margins="rect(4,4,4,4)" v:tabSpace="42.5197"/>
			<v:textRect cx="70.8661" cy="568.78" width="141.74" height="0"/>
			<path d="M0 568.78 L141.73 568.78" class="st4"/>
			<rect v:rectContext="textBkgnd" x="20.5043" y="561.58" width="100.724" height="14.4001" class="st2"/>
			<text x="20.5" y="572.38" class="st3" v:langID="1044"><v:paragraph v:horizAlign="1"/><v:tabList/>Authentication Level</text>		</g>
		<g id="shape33-41" v:mID="33" v:groupContext="shape" transform="translate(529.161,-460.563)">
			<title>Sheet.33</title>
			<desc>Valid To</desc>
			<v:textBlock v:margins="rect(4,4,4,4)" v:tabSpace="42.5197"/>
			<v:textRect cx="70.8661" cy="568.78" width="141.74" height="0"/>
			<path d="M0 568.78 L141.73 568.78" class="st4"/>
			<rect v:rectContext="textBkgnd" x="51.2369" y="561.58" width="39.2583" height="14.4001" class="st2"/>
			<text x="51.24" y="572.38" class="st3" v:langID="1044"><v:paragraph v:horizAlign="1"/><v:tabList/>Valid To</text>		</g>
		<g id="shape37-46" v:mID="37" v:groupContext="shape" transform="translate(931.349,-293.971) rotate(45)">
			<title>Sheet.37</title>
			<desc>SRR Condition</desc>
			<v:textBlock v:margins="rect(4,4,4,4)" v:tabSpace="42.5197"/>
			<v:textRect cx="70.8661" cy="568.78" width="141.74" height="0"/>
			<path d="M0 568.78 L141.73 568.78" class="st4"/>
			<rect v:rectContext="textBkgnd" x="36.4889" y="561.58" width="68.7546" height="14.4001" class="st5"/>
			<text x="36.49" y="572.38" class="st3" v:langID="1044"><v:paragraph v:horizAlign="1"/><v:tabList/>SRR Condition</text>		</g>
		<g id="shape38-51" v:mID="38" v:groupContext="shape" transform="translate(-203.466,-16.921) rotate(-39.8056)">
			<title>Sheet.38</title>
			<desc>Action</desc>
			<v:textBlock v:margins="rect(4,4,4,4)" v:tabSpace="42.5197"/>
			<v:textRect cx="110.696" cy="568.78" width="221.4" height="0"/>
			<path d="M0 568.78 L221.39 568.78" class="st1"/>
			<rect v:rectContext="textBkgnd" x="94.9845" y="561.58" width="31.4242" height="14.4001" class="st2"/>
			<text x="94.98" y="572.38" class="st3" v:langID="1044"><v:paragraph v:horizAlign="1"/><v:tabList/>Action</text>		</g>
		<g id="shape39-56" v:mID="39" v:groupContext="shape" transform="translate(502.468,-323.633) rotate(40.6013)">
			<title>Sheet.39</title>
			<desc>Subject</desc>
			<v:textBlock v:margins="rect(4,4,4,4)" v:tabSpace="42.5197"/>
			<v:textRect cx="130.671" cy="568.78" width="261.35" height="0"/>
			<path d="M0 568.78 L261.34 568.78" class="st1"/>
			<rect v:rectContext="textBkgnd" x="112.641" y="561.58" width="36.0591" height="14.4001" class="st5"/>
			<text x="112.64" y="572.38" class="st3" v:langID="1044"><v:paragraph v:horizAlign="1"/><v:tabList/>Subject</text>		</g>
		<g id="shape41-61" v:mID="41" v:groupContext="shape" transform="translate(225.231,-470.976) rotate(23.2729)">
			<title>Sheet.41</title>
			<desc>UserID</desc>
			<v:textBlock v:margins="rect(4,4,4,4)" v:tabSpace="42.5197"/>
			<v:textRect cx="71.743" cy="568.78" width="143.49" height="0"/>
			<path d="M0 568.78 L143.49 568.78" class="st4"/>
			<rect v:rectContext="textBkgnd" x="55.2664" y="561.58" width="32.9532" height="14.4001" class="st2"/>
			<text x="55.27" y="572.38" class="st3" v:langID="1044"><v:paragraph v:horizAlign="1"/><v:tabList/>UserID</text>		</g>
		<g id="shape42-66" v:mID="42" v:groupContext="shape" transform="translate(-175.112,-388.855) rotate(-18.4349)">
			<title>Sheet.42</title>
			<desc>Party</desc>
			<v:textBlock v:margins="rect(4,4,4,4)" v:tabSpace="42.5197"/>
			<v:textRect cx="67.2295" cy="568.78" width="134.46" height="0"/>
			<path d="M0 568.78 L134.46 568.78" class="st4"/>
			<rect v:rectContext="textBkgnd" x="54.4384" y="561.58" width="25.5822" height="14.4001" class="st2"/>
			<text x="54.44" y="572.38" class="st3" v:langID="1044"><v:paragraph v:horizAlign="1"/><v:tabList/>Party</text>		</g>
		<g id="shape43-71" v:mID="43" v:groupContext="shape" transform="translate(-420.879,-79.8502) rotate(-57.9946)">
			<title>Sheet.43</title>
			<desc>Role</desc>
			<v:textBlock v:margins="rect(4,4,4,4)" v:tabSpace="42.5197"/>
			<v:textRect cx="66.855" cy="568.78" width="133.71" height="0"/>
			<path d="M0 568.78 L133.71 568.78" class="st4"/>
			<rect v:rectContext="textBkgnd" x="56.0706" y="561.58" width="21.5686" height="14.4001" class="st2"/>
			<text x="56.07" y="572.38" class="st3" v:langID="1044"><v:paragraph v:horizAlign="1"/><v:tabList/>Role</text>		</g>
		<g id="shape46-76" v:mID="46" v:groupContext="shape" transform="translate(729.437,278.295) rotate(90)">
			<title>Sheet.46</title>
			<desc>Read</desc>
			<v:textBlock v:margins="rect(4,4,4,4)" v:tabSpace="42.5197"/>
			<v:textRect cx="70.8661" cy="568.78" width="141.74" height="0"/>
			<path d="M0 568.78 L141.73 568.78" class="st4"/>
			<rect v:rectContext="textBkgnd" x="58.5964" y="561.58" width="24.5393" height="14.4001" class="st2"/>
			<text x="58.6" y="572.38" class="st3" v:langID="1044"><v:paragraph v:horizAlign="1"/><v:tabList/>Read</text>		</g>
		<g id="shape47-81" v:mID="47" v:groupContext="shape" transform="translate(461.653,-84.0939) rotate(45)">
			<title>Sheet.47</title>
			<desc>Write</desc>
			<v:textBlock v:margins="rect(4,4,4,4)" v:tabSpace="42.5197"/>
			<v:textRect cx="71.8397" cy="568.78" width="143.68" height="0"/>
			<path d="M0 568.78 L143.68 568.78" class="st4"/>
			<rect v:rectContext="textBkgnd" x="58.0378" y="561.58" width="27.604" height="14.4001" class="st2"/>
			<text x="58.04" y="572.38" class="st3" v:langID="1044"><v:paragraph v:horizAlign="1"/><v:tabList/>Write</text>		</g>
		<g id="shape48-86" v:mID="48" v:groupContext="shape" transform="translate(184.985,-168.022) rotate(16.4386)">
			<title>Sheet.48</title>
			<desc>Sign</desc>
			<v:textBlock v:margins="rect(4,4,4,4)" v:tabSpace="42.5197"/>
			<v:textRect cx="71.0077" cy="568.78" width="142.02" height="0"/>
			<path d="M0 568.78 L142.02 568.78" class="st4"/>
			<rect v:rectContext="textBkgnd" x="60.8972" y="561.58" width="20.2209" height="14.4001" class="st2"/>
			<text x="60.9" y="572.38" class="st3" v:langID="1044"><v:paragraph v:horizAlign="1"/><v:tabList/>Sign</text>		</g>
		<g id="shape49-91" v:mID="49" v:groupContext="shape" transform="translate(-146.07,-78.2084) rotate(-18.0605)">
			<title>Sheet.49</title>
			<desc>ArchiveRead</desc>
			<v:textBlock v:margins="rect(4,4,4,4)" v:tabSpace="42.5197"/>
			<v:textRect cx="68.5756" cy="568.78" width="137.16" height="0"/>
			<path d="M0 568.78 L137.15 568.78" class="st4"/>
			<rect v:rectContext="textBkgnd" x="37.9806" y="561.58" width="61.19" height="14.4001" class="st2"/>
			<text x="37.98" y="572.38" class="st3" v:langID="1044"><v:paragraph v:horizAlign="1"/><v:tabList/>ArchiveRead</text>		</g>
		<g id="shape50-96" v:mID="50" v:groupContext="shape" transform="translate(-366.243,164.073) rotate(-50.2538)">
			<title>Sheet.50</title>
			<desc>ArchiveDelete</desc>
			<v:textBlock v:margins="rect(4,4,4,4)" v:tabSpace="42.5197"/>
			<v:textRect cx="70.0473" cy="568.78" width="140.1" height="0"/>
			<path d="M0 568.78 L140.09 568.78" class="st4"/>
			<rect v:rectContext="textBkgnd" x="35.6877" y="561.58" width="68.7195" height="14.4001" class="st2"/>
			<text x="35.69" y="572.38" class="st3" v:langID="1044"><v:paragraph v:horizAlign="1"/><v:tabList/>ArchiveDelete</text>		</g>
		<g id="shape51-101" v:mID="51" v:groupContext="shape" transform="translate(-408.122,568.28) rotate(-90)">
			<title>Sheet.51</title>
			<desc>ServiceOwnerArchiveRead</desc>
			<v:textBlock v:margins="rect(4,4,4,4)" v:tabSpace="42.5197"/>
			<v:textRect cx="74.126" cy="568.78" width="148.26" height="0"/>
			<path d="M0 568.78 L148.25 568.78" class="st4"/>
			<rect v:rectContext="textBkgnd" x="9.59628" y="561.58" width="129.06" height="14.4001" class="st2"/>
			<text x="9.6" y="572.38" class="st3" v:langID="1044"><v:paragraph v:horizAlign="1"/><v:tabList/>ServiceOwnerArchiveRead</text>		</g>
		<g id="shape55-106" v:mID="55" v:groupContext="shape" transform="translate(237.76,-503.083)">
			<title>Sheet.55</title>
			<desc>Altinn Studio Authorization Rule</desc>
			<v:textBlock v:margins="rect(4,4,4,4)" v:tabSpace="42.5197"/>
			<v:textRect cx="71.2913" cy="551.488" width="142.59" height="34.5827"/>
			<rect x="0" y="534.197" width="142.583" height="34.5827" class="st6"/>
			<text x="8.27" y="529.89" class="st7" v:langID="1044"><v:paragraph v:horizAlign="1"/><v:tabList/>Altinn Studio <tspan
						x="4.56" dy="1.2em" class="st8">Authorization </tspan><tspan x="49.75" dy="1.2em" class="st8">Rule</tspan></text>		</g>
		<g id="shape59-111" v:mID="59" v:groupContext="shape" transform="translate(502.258,-344.563) rotate(52.6507)">
			<title>Sheet.59</title>
			<desc>Token</desc>
			<v:textBlock v:margins="rect(4,4,4,4)" v:tabSpace="42.5197"/>
			<v:textRect cx="67.7504" cy="568.78" width="135.51" height="0"/>
			<path d="M0 568.78 L135.5 568.78" class="st4"/>
			<rect v:rectContext="textBkgnd" x="52.7973" y="561.58" width="29.9064" height="14.4001" class="st2"/>
			<text x="52.8" y="572.38" class="st3" v:langID="1044"><v:paragraph v:horizAlign="1"/><v:tabList/>Token</text>		</g>
	</g>
</svg>
