<?xml version="1.0" encoding="UTF-8" standalone="no"?>
<!DOCTYPE svg PUBLIC "-//W3C//DTD SVG 1.1//EN" "http://www.w3.org/Graphics/SVG/1.1/DTD/svg11.dtd">
<!-- Generated by Microsoft Visio, SVG Export altinnapps__solutionarchitecture.svg Page-1 -->
<svg xmlns="http://www.w3.org/2000/svg" xmlns:xlink="http://www.w3.org/1999/xlink" xmlns:ev="http://www.w3.org/2001/xml-events"
		xmlns:v="http://schemas.microsoft.com/visio/2003/SVGExtensions/" width="7.23707in" height="6.47865in"
		viewBox="0 0 521.069 466.463" xml:space="preserve" color-interpolation-filters="sRGB" class="st24">
	<v:documentProperties v:langID="1033" v:metric="true" v:viewMarkup="false">
		<v:userDefs>
			<v:ud v:nameU="DisableSpdActionTags" v:prompt="" v:val="VT0(0):26"/>
		</v:userDefs>
	</v:documentProperties>

	<style type="text/css">
	<![CDATA[
		.st1 {visibility:visible}
		.st2 {fill:#5b9bd5;fill-opacity:0.22;filter:url(#filter_2);stroke:#5b9bd5;stroke-opacity:0.22}
		.st3 {fill:#fee599;stroke:#c7c8c8;stroke-width:0.25}
		.st4 {fill:#5b9bd5;fill-opacity:0.22;filter:url(#filter_2)}
		.st5 {fill:none;filter:url(#filter_2);stroke:#5b9bd5;stroke-opacity:0.22}
		.st6 {fill:#5b9bd5}
		.st7 {stroke:#c7c8c8;stroke-width:0.25}
		.st8 {fill:#1e4a73;font-family:Calibri;font-size:0.833336em}
		.st9 {fill:none;stroke:none;stroke-width:0.25}
		.st10 {fill:#000000;font-family:Calibri;font-size:1.00001em}
		.st11 {fill:#fec000;stroke:#c7c8c8;stroke-width:0.25}
		.st12 {fill:#feffff;font-family:Calibri;font-size:0.833336em}
		.st13 {fill:none;filter:url(#filter_2);stroke:#5b9bd5;stroke-dasharray:33.75,20.25;stroke-opacity:0.22}
		.st14 {fill:none;stroke:#c7c8c8;stroke-dasharray:33.75,20.25;stroke-width:2.25}
		.st15 {fill:#5b9bd5;stroke:#c7c8c8;stroke-width:0.25}
		.st16 {fill:#5b9bd5;font-family:Calibri;font-size:3em}
		.st17 {fill:#5b9bd5;stroke:#ffffff;stroke-width:0.25}
		.st18 {fill:#ffffff}
		.st19 {stroke:#ffffff;stroke-width:0.25}
		.st20 {fill:#feffff;stroke:#c7c8c8;stroke-width:0.25}
		.st21 {fill:#feffff}
		.st22 {fill:#41719c;stroke:#c7c8c8;stroke-width:0.25}
		.st23 {fill:#ffc000;stroke:#c7c8c8;stroke-width:0.25}
		.st24 {fill:none;fill-rule:evenodd;font-size:12px;overflow:visible;stroke-linecap:square;stroke-miterlimit:3}
	]]>
	</style>

	<defs id="Filters">
		<filter id="filter_2">
			<feGaussianBlur stdDeviation="2"/>
		</filter>
	</defs>
	<g v:mID="0" v:index="1" v:groupContext="foregroundPage">
		<title>Page-1</title>
		<v:pageProperties v:drawingScale="0.0393701" v:pageScale="0.0393701" v:drawingUnits="24" v:shadowOffsetX="8.50394"
				v:shadowOffsetY="-8.50394"/>
		<v:layer v:name="Flowchart" v:index="0"/>
		<g id="shape365-1" v:mID="365" v:groupContext="shape" transform="translate(88.8186,-11.7671)">
			<title>Rectangle.365</title>
			<v:userDefs>
				<v:ud v:nameU="visVersion" v:val="VT0(15):26"/>
			</v:userDefs>
			<g id="shadow365-2" v:groupContext="shadow" v:shadowOffsetX="0.345598" v:shadowOffsetY="-1.97279" v:shadowType="1"
					transform="matrix(1,0,0,1,0.345598,1.97279)" class="st1">
				<rect x="0" y="296.384" width="368.681" height="170.079" class="st2"/>
			</g>
			<rect x="0" y="296.384" width="368.681" height="170.079" class="st3"/>
		</g>
		<g id="shape250-6" v:mID="250" v:groupContext="shape" v:layerMember="0" transform="translate(114.97,-394.444)">
			<title>Person.250</title>
			<desc>End User</desc>
			<v:userDefs>
				<v:ud v:nameU="visVersion" v:prompt="" v:val="VT0(15):26"/>
				<v:ud v:nameU="ConnGap" v:prompt="" v:val="VT0(0.00012908222537757):24"/>
			</v:userDefs>
			<v:textBlock v:margins="rect(4,4,4,4)" v:tabSpace="42.5197"/>
			<v:textRect cx="17.0079" cy="476.464" width="46.71" height="20.0036"/>
			<g id="shadow250-7" v:groupContext="shadow" v:shadowOffsetX="0.345598" v:shadowOffsetY="-1.97279" v:shadowType="1"
					transform="matrix(1,0,0,1,0.345598,1.97279)" class="st1">
				<path d="M27.48 417.06 L6.54 417.06 C5.03 417.06 3.64 417.56 2.54 418.4 C1.77 418.99 1.13 419.74 0.69 420.6 C0.25
							 421.46 0 422.43 0 423.45 L0 447.72 L5.73 447.72 L5.73 466.46 L28.07 466.46 L28.07 447.72 L34.02 447.72
							 L34.02 423.45 C34.02 421.97 33.5 420.62 32.64 419.54 C32.04 418.79 31.27 418.17 30.39 417.73 C29.52
							 417.3 28.53 417.06 27.48 417.06 ZM26.79 405.05 A9.78293 9.45354 -180 1 0 7.22 405.05 A9.78293 9.45354
							 -180 1 0 26.79 405.05 Z" class="st4"/>
				<path d="M27.48 417.06 L6.54 417.06 C5.03 417.06 3.64 417.56 2.54 418.4 C1.77 418.99 1.13 419.74 0.69 420.6 C0.25
							 421.46 0 422.43 0 423.45 L0 447.72 L5.73 447.72 L5.73 466.46 L28.07 466.46 L28.07 447.72 L34.02 447.72
							 L34.02 423.45 C34.02 421.97 33.5 420.62 32.64 419.54 C32.04 418.79 31.27 418.17 30.39 417.73 C29.52
							 417.3 28.53 417.06 27.48 417.06" class="st5"/>
				<path d="M17.01 466.46 L17.01 451.48" class="st5"/>
				<path d="M5.73 447.72 L5.73 434.79" class="st5"/>
				<path d="M28.07 447.72 L28.07 434.79" class="st5"/>
				<path d="M26.79 405.05 A9.78293 9.45354 -180 1 0 7.22 405.05 A9.78293 9.45354 -180 1 0 26.79 405.05" class="st5"/>
			</g>
			<path d="M27.48 417.06 L6.54 417.06 C5.03 417.06 3.64 417.56 2.54 418.4 C1.77 418.99 1.13 419.74 0.69 420.6 C0.25 421.46
						 0 422.43 0 423.45 L0 447.72 L5.73 447.72 L5.73 466.46 L28.07 466.46 L28.07 447.72 L34.02 447.72 L34.02 423.45
						 C34.02 421.97 33.5 420.62 32.64 419.54 C32.04 418.79 31.27 418.17 30.39 417.73 C29.52 417.3 28.53 417.06
						 27.48 417.06 ZM26.79 405.05 A9.78293 9.45354 -180 1 0 7.22 405.05 A9.78293 9.45354 -180 1 0 26.79 405.05
						 Z" class="st6"/>
			<path d="M27.48 417.06 L6.54 417.06 C5.03 417.06 3.64 417.56 2.54 418.4 C1.77 418.99 1.13 419.74 0.69 420.6 C0.25 421.46
						 0 422.43 0 423.45 L0 447.72 L5.73 447.72 L5.73 466.46 L28.07 466.46 L28.07 447.72 L34.02 447.72 L34.02 423.45
						 C34.02 421.97 33.5 420.62 32.64 419.54 C32.04 418.79 31.27 418.17 30.39 417.73 C29.52 417.3 28.53 417.06
						 27.48 417.06" class="st7"/>
			<path d="M17.01 466.46 L17.01 451.48" class="st7"/>
			<path d="M5.73 447.72 L5.73 434.79" class="st7"/>
			<path d="M28.07 447.72 L28.07 434.79" class="st7"/>
			<path d="M26.79 405.05 A9.78293 9.45354 -180 1 0 7.22 405.05 A9.78293 9.45354 -180 1 0 26.79 405.05" class="st7"/>
			<text x="-1.21" y="479.46" class="st8" v:langID="1044"><v:paragraph v:horizAlign="1"/><v:tabList/>End User</text>		</g>
		<g id="shape241-23" v:mID="241" v:groupContext="shape" transform="translate(88.8186,-169.09)">
			<title>Sheet.241</title>
			<desc>App</desc>
			<v:textBlock v:margins="rect(4,4,4,4)" v:tabSpace="42.5197"/>
			<v:textRect cx="90.7087" cy="459.376" width="181.42" height="14.1732"/>
			<rect x="0" y="452.289" width="181.417" height="14.1732" class="st9"/>
			<text x="4" y="462.98" class="st10" v:langID="1044"><v:paragraph/><v:tabList/>App</text>		</g>
		<g id="shape491-26" v:mID="491" v:groupContext="shape" transform="translate(97.3225,-17.4364)">
			<title>Sheet.491</title>
			<desc>AppLogic: Calculation</desc>
			<v:textBlock v:margins="rect(4,4,4,4)" v:tabSpace="42.5197"/>
			<v:textRect cx="56.6929" cy="453.707" width="113.39" height="25.5118"/>
			<g id="shadow491-27" v:groupContext="shadow" v:shadowOffsetX="0.345598" v:shadowOffsetY="-1.97279" v:shadowType="1"
					transform="matrix(1,0,0,1,0.345598,1.97279)" class="st1">
				<rect x="0" y="440.951" width="113.386" height="25.5118" class="st2"/>
			</g>
			<rect x="0" y="440.951" width="113.386" height="25.5118" class="st11"/>
			<text x="13.15" y="456.71" class="st12" v:langID="1044"><v:paragraph v:horizAlign="1"/><v:tabList/>AppLogic: Calculation</text>		</g>
		<g id="shape492-32" v:mID="492" v:groupContext="shape" transform="translate(213.543,-17.4364)">
			<title>Sheet.492</title>
			<desc>API Calls</desc>
			<v:textBlock v:margins="rect(4,4,4,4)" v:tabSpace="42.5197"/>
			<v:textRect cx="56.6929" cy="453.707" width="113.39" height="25.5118"/>
			<g id="shadow492-33" v:groupContext="shadow" v:shadowOffsetX="0.345598" v:shadowOffsetY="-1.97279" v:shadowType="1"
					transform="matrix(1,0,0,1,0.345598,1.97279)" class="st1">
				<rect x="0" y="440.951" width="113.386" height="25.5118" class="st2"/>
			</g>
			<rect x="0" y="440.951" width="113.386" height="25.5118" class="st11"/>
			<text x="39.52" y="456.71" class="st12" v:langID="1044"><v:paragraph v:horizAlign="1"/><v:tabList/>API Calls</text>		</g>
		<g id="shape559-38" v:mID="559" v:groupContext="shape" transform="translate(3.77936,-6.09783)">
			<title>Rectangle.559</title>
			<v:userDefs>
				<v:ud v:nameU="visVersion" v:val="VT0(15):26"/>
			</v:userDefs>
			<g id="shadow559-39" v:groupContext="shadow" v:shadowOffsetX="0.345598" v:shadowOffsetY="-1.97279" v:shadowType="1"
					transform="matrix(1,0,0,1,0.345598,1.97279)" class="st1">
				<path d="M0 466.46 L463.64 466.46 L463.64 185.83 L0 185.83 L0 466.46 Z" class="st13"/>
			</g>
			<path d="M0 466.46 L463.64 466.46 L463.64 185.83 L0 185.83 L0 466.46 Z" class="st14"/>
		</g>
		<g id="shape583-43" v:mID="583" v:groupContext="shape" transform="translate(216.466,-144.995)">
			<title>Sheet.583</title>
			<desc>Data</desc>
			<v:textBlock v:margins="rect(4,4,4,4)" v:tabSpace="42.5197"/>
			<v:textRect cx="56.6929" cy="453.707" width="113.39" height="25.5118"/>
			<g id="shadow583-44" v:groupContext="shadow" v:shadowOffsetX="0.345598" v:shadowOffsetY="-1.97279" v:shadowType="1"
					transform="matrix(1,0,0,1,0.345598,1.97279)" class="st1">
				<rect x="0" y="440.951" width="113.386" height="25.5118" class="st2"/>
			</g>
			<rect x="0" y="440.951" width="113.386" height="25.5118" class="st15"/>
			<text x="47.15" y="456.71" class="st12" v:langID="1044"><v:paragraph v:horizAlign="1"/><v:tabList/>Data</text>		</g>
		<g id="shape594-49" v:mID="594" v:groupContext="shape" transform="translate(11.043,-258.381)">
			<title>Sheet.594</title>
			<desc>Altinn Apps</desc>
			<v:textBlock v:margins="rect(4,4,4,4)" v:tabSpace="42.5197"/>
			<v:textRect cx="148.819" cy="452.289" width="297.64" height="28.3465"/>
			<rect x="0" y="438.116" width="297.638" height="28.3465" class="st9"/>
			<text x="4" y="463.09" class="st16" v:langID="1044"><v:paragraph/><v:tabList/>Altinn Apps</text>		</g>
		<g id="shape642-52" v:mID="642" v:groupContext="shape" transform="translate(329.764,-17.4364)">
			<title>Sheet.642</title>
			<desc>Validation</desc>
			<v:textBlock v:margins="rect(4,4,4,4)" v:tabSpace="42.5197"/>
			<v:textRect cx="56.6929" cy="453.707" width="113.39" height="25.5118"/>
			<g id="shadow642-53" v:groupContext="shadow" v:shadowOffsetX="0.345598" v:shadowOffsetY="-1.97279" v:shadowType="1"
					transform="matrix(1,0,0,1,0.345598,1.97279)" class="st1">
				<rect x="0" y="440.951" width="113.386" height="25.5118" class="st2"/>
			</g>
			<rect x="0" y="440.951" width="113.386" height="25.5118" class="st11"/>
			<text x="36.06" y="456.71" class="st12" v:langID="1044"><v:paragraph v:horizAlign="1"/><v:tabList/>Validation</text>		</g>
		<g id="shape656-58" v:mID="656" v:groupContext="shape" transform="translate(95.9052,-144.995)">
			<title>Rectangle.656</title>
			<desc>Start App</desc>
			<v:userDefs>
				<v:ud v:nameU="visVersion" v:val="VT0(15):26"/>
			</v:userDefs>
			<v:textBlock v:margins="rect(4,4,4,4)" v:tabSpace="42.5197"/>
			<v:textRect cx="56.6929" cy="453.707" width="113.39" height="25.5118"/>
			<g id="shadow656-59" v:groupContext="shadow" v:shadowOffsetX="0.345598" v:shadowOffsetY="-1.97279" v:shadowType="1"
					transform="matrix(1,0,0,1,0.345598,1.97279)" class="st1">
				<rect x="0" y="440.951" width="113.386" height="25.5118" class="st2"/>
			</g>
			<rect x="0" y="440.951" width="113.386" height="25.5118" class="st15"/>
			<text x="37.63" y="456.71" class="st12" v:langID="1044"><v:paragraph v:horizAlign="1"/><v:tabList/>Start App  </text>		</g>
		<g id="shape681-64" v:mID="681" v:groupContext="shape" transform="translate(95.9052,-118.066)">
			<title>Rectangle.681</title>
			<desc>Receipt</desc>
			<v:userDefs>
				<v:ud v:nameU="visVersion" v:val="VT0(15):26"/>
			</v:userDefs>
			<v:textBlock v:margins="rect(4,4,4,4)" v:tabSpace="42.5197"/>
			<v:textRect cx="56.6929" cy="453.707" width="113.39" height="25.5118"/>
			<g id="shadow681-65" v:groupContext="shadow" v:shadowOffsetX="0.345598" v:shadowOffsetY="-1.97279" v:shadowType="1"
					transform="matrix(1,0,0,1,0.345598,1.97279)" class="st1">
				<rect x="0" y="440.951" width="113.386" height="25.5118" class="st2"/>
			</g>
			<rect x="0" y="440.951" width="113.386" height="25.5118" class="st15"/>
			<text x="41.44" y="456.71" class="st12" v:langID="1044"><v:paragraph v:horizAlign="1"/><v:tabList/>Receipt</text>		</g>
		<g id="group686-70" transform="translate(368.671,-306.57)" v:mID="686" v:groupContext="group">
			<v:custProps>
				<v:cp v:nameU="AssetNumber" v:lbl="Asset Number" v:prompt="" v:type="0" v:format="" v:sortKey="Asset"
						v:invis="false" v:ask="false" v:langID="1033" v:cal="0"/>
				<v:cp v:nameU="SerialNumber" v:lbl="Serial Number" v:prompt="" v:type="0" v:format="" v:sortKey="Asset"
						v:invis="false" v:ask="false" v:langID="1033" v:cal="0"/>
				<v:cp v:nameU="Location" v:lbl="Location" v:prompt="" v:type="0" v:format="" v:sortKey="Asset" v:invis="false"
						v:ask="false" v:langID="1033" v:cal="0"/>
				<v:cp v:nameU="Building" v:lbl="Building" v:prompt="" v:type="0" v:format="" v:sortKey="Asset" v:invis="false"
						v:ask="false" v:langID="1033" v:cal="0"/>
				<v:cp v:nameU="Room" v:lbl="Room" v:prompt="" v:type="0" v:format="" v:sortKey="Asset" v:invis="false"
						v:ask="false" v:langID="1033" v:cal="0"/>
				<v:cp v:nameU="Manufacturer" v:lbl="Manufacturer" v:prompt="" v:type="0" v:format="" v:sortKey="Equipment"
						v:invis="false" v:ask="false" v:langID="1033" v:cal="0"/>
				<v:cp v:nameU="ProductNumber" v:lbl="Product Number" v:prompt="" v:type="0" v:format="" v:sortKey="Equipment"
						v:invis="false" v:ask="false" v:langID="1033" v:cal="0"/>
				<v:cp v:nameU="PartNumber" v:lbl="Part Number" v:prompt="" v:type="0" v:format="" v:sortKey="Equipment"
						v:invis="false" v:ask="false" v:langID="1033" v:cal="0"/>
				<v:cp v:nameU="ProductDescription" v:lbl="Product Description" v:prompt="" v:type="0" v:format=""
						v:sortKey="Equipment" v:invis="false" v:ask="false" v:langID="1033" v:cal="0"/>
				<v:cp v:nameU="NetworkName" v:lbl="Network Name" v:prompt="" v:type="0" v:format="" v:sortKey="Network"
						v:invis="false" v:ask="false" v:langID="1033" v:cal="0"/>
				<v:cp v:nameU="IPAddress" v:lbl="IP Address" v:prompt="" v:type="0" v:format="" v:sortKey="Network" v:invis="false"
						v:ask="false" v:langID="1033" v:cal="0"/>
				<v:cp v:nameU="SubnetMask" v:lbl="Subnet Mask" v:prompt="" v:type="0" v:format="" v:sortKey="Network"
						v:invis="false" v:ask="false" v:langID="1033" v:cal="0"/>
				<v:cp v:nameU="AdminInterface" v:lbl="Administrative Interface" v:prompt="" v:type="0" v:format=""
						v:sortKey="Network" v:invis="false" v:ask="false" v:langID="1033" v:cal="0"/>
				<v:cp v:nameU="NumberofPorts" v:lbl="Number of Ports" v:prompt="" v:type="0" v:format="" v:sortKey="Network"
						v:invis="false" v:ask="false" v:langID="1033" v:cal="0"/>
				<v:cp v:nameU="CommunityString" v:lbl="Community String" v:prompt="" v:type="0" v:format="" v:sortKey="Network"
						v:invis="false" v:ask="false" v:langID="1033" v:cal="0"/>
				<v:cp v:nameU="NetworkDescription" v:lbl="Network Description" v:prompt="" v:type="0" v:format=""
						v:sortKey="Network" v:invis="false" v:ask="false" v:langID="1033" v:cal="0"/>
				<v:cp v:nameU="MACAddress" v:lbl="MAC Address" v:prompt="" v:type="0" v:format="" v:sortKey="Network"
						v:invis="false" v:ask="false" v:langID="1033" v:cal="0"/>
				<v:cp v:nameU="CPU" v:lbl="CPU" v:prompt="" v:type="0" v:format="" v:sortKey="Workstation" v:invis="false"
						v:ask="false" v:langID="1033" v:cal="0"/>
				<v:cp v:nameU="Memory" v:lbl="Memory" v:prompt="" v:type="0" v:format="" v:sortKey="Workstation" v:invis="false"
						v:ask="false" v:langID="1033" v:cal="0"/>
				<v:cp v:nameU="OperatingSystem" v:lbl="Operating System" v:prompt="" v:type="0" v:format="" v:sortKey="Workstation"
						v:invis="false" v:ask="false" v:langID="1033" v:cal="0"/>
				<v:cp v:nameU="HardDriveSize" v:lbl="Hard Drive Capacity" v:prompt="" v:type="0" v:format=""
						v:sortKey="Workstation" v:invis="false" v:ask="false" v:langID="1033" v:cal="0"/>
				<v:cp v:nameU="ShapeClass" v:lbl="ShapeClass" v:prompt="" v:type="0" v:format="" v:sortKey="" v:invis="true"
						v:ask="false" v:langID="1033" v:cal="0" v:val="VT4(Equipment)"/>
				<v:cp v:nameU="ShapeType" v:lbl="ShapeType" v:prompt="" v:type="0" v:format="" v:sortKey="" v:invis="true"
						v:ask="false" v:langID="1033" v:cal="0" v:val="VT4(MobilePhone)"/>
			</v:custProps>
			<v:userDefs>
				<v:ud v:nameU="visVersion" v:prompt="" v:val="VT0(15):26"/>
				<v:ud v:nameU="ShapeClass" v:prompt="" v:val="VT0(5):26"/>
				<v:ud v:nameU="SolSH" v:prompt="" v:val="VT15({BF0433D9-CD73-4EB5-8390-8653BE590246}):41"/>
				<v:ud v:nameU="visLegendShape" v:prompt="" v:val="VT0(2):26"/>
			</v:userDefs>
			<title>Smart phone.686</title>
			<desc>Mobile App</desc>
			<g id="shape687-71" v:mID="687" v:groupContext="shape" transform="translate(16.7093,5.68434E-14)">
				<title>Sheet.687</title>
				<g id="shadow687-72" v:groupContext="shadow" v:shadowOffsetX="0.345598" v:shadowOffsetY="-1.97279" v:shadowType="1"
						transform="matrix(1,0,0,1,0.345598,1.97279)" class="st1">
					<path d="M0 462.05 C0 463.61 1.26 465.04 2.8 465.25 C2.8 465.25 11.94 466.46 18.72 466.46 C25.5 466.46 34.65
								 465.25 34.65 465.25 C36.19 465.04 37.45 463.61 37.45 462.05 L37.45 400.01 C37.45 398.45 36.19 397.01
								 34.65 396.8 C34.65 396.8 25.68 395.6 18.72 395.6 C11.94 395.6 2.8 396.81 2.8 396.81 C1.26 397.01
								 0 398.45 0 400.01 L0 462.05 Z" class="st2"/>
				</g>
				<path d="M0 462.05 C0 463.61 1.26 465.04 2.8 465.25 C2.8 465.25 11.94 466.46 18.72 466.46 C25.5 466.46 34.65 465.25
							 34.65 465.25 C36.19 465.04 37.45 463.61 37.45 462.05 L37.45 400.01 C37.45 398.45 36.19 397.01 34.65
							 396.8 C34.65 396.8 25.68 395.6 18.72 395.6 C11.94 395.6 2.8 396.81 2.8 396.81 C1.26 397.01 0 398.45
							 0 400.01 L0 462.05 Z" class="st15"/>
			</g>
			<g id="shape688-76" v:mID="688" v:groupContext="shape" transform="translate(19.5351,-8.70177)">
				<title>Sheet.688</title>
				<v:userDefs>
					<v:ud v:nameU="SurroundingRegionColor" v:prompt="" v:val="VT0(1):26"/>
					<v:ud v:nameU="SurroundingRegionColor" v:prompt="" v:val="VT5(#5b9bd5)"/>
				</v:userDefs>
				<g id="shadow688-77" v:groupContext="shadow" v:shadowOffsetX="0.345598" v:shadowOffsetY="-1.97279" v:shadowType="1"
						transform="matrix(1,0,0,1,0.345598,1.97279)" class="st1">
					<rect x="0" y="414.372" width="31.796" height="52.0903" class="st2"/>
				</g>
				<rect x="0" y="414.372" width="31.796" height="52.0903" class="st17"/>
			</g>
			<g id="shape689-81" v:mID="689" v:groupContext="shape" transform="translate(29.5929,-3.53445)">
				<title>Sheet.689</title>
				<v:userDefs>
					<v:ud v:nameU="SurroundingRegionColor" v:prompt="" v:val="VT0(1):26"/>
					<v:ud v:nameU="SurroundingRegionColor" v:prompt="" v:val="VT5(#5b9bd5)"/>
				</v:userDefs>
				<g id="shadow689-82" v:groupContext="shadow" v:shadowOffsetX="0.345598" v:shadowOffsetY="-1.97279" v:shadowType="1"
						transform="matrix(1,0,0,1,0.345598,1.97279)" class="st1">
					<path d="M2.52 465.2 A1.26009 1.26009 -180 1 0 0 465.2 A1.26009 1.26009 -180 1 0 2.52 465.2 ZM7.1 465.2 A1.26009
								 1.26009 -180 1 0 4.58 465.2 A1.26009 1.26009 -180 1 0 7.1 465.2 ZM11.69 465.2 A1.26083 1.26083 -180
								 1 0 9.17 465.2 A1.26083 1.26083 -180 1 0 11.69 465.2 Z" class="st4"/>
					<path d="M1.16 404.92 L10.52 404.92" class="st5"/>
				</g>
				<path d="M2.52 465.2 A1.26009 1.26009 -180 1 0 0 465.2 A1.26009 1.26009 -180 1 0 2.52 465.2 ZM7.1 465.2 A1.26009
							 1.26009 -180 1 0 4.58 465.2 A1.26009 1.26009 -180 1 0 7.1 465.2 ZM11.69 465.2 A1.26083 1.26083 -180
							 1 0 9.17 465.2 A1.26083 1.26083 -180 1 0 11.69 465.2 Z" class="st18"/>
				<path d="M1.16 404.92 L10.52 404.92" class="st19"/>
			</g>
			<g id="shape686-89" v:mID="686" v:groupContext="groupContent">
				<v:textBlock v:margins="rect(4,4,4,4)" v:tabSpace="42.5197"/>
				<v:textRect cx="35.4331" cy="476.464" width="57.47" height="20.0036"/>
				<g id="shadow686-90" v:groupContext="shadow" v:shadowOffsetX="0.345598" v:shadowOffsetY="-1.97279" v:shadowType="1"
						transform="matrix(1,0,0,1,0.345598,1.97279)" class="st1"/>
				<text x="11.83" y="479.46" class="st8" v:langID="1044"><v:paragraph v:horizAlign="1"/><v:tabList/>Mobile App</text>			</g>
		</g>
		<g id="group690-92" transform="translate(290.718,-307.988)" v:mID="690" v:groupContext="group">
			<v:custProps>
				<v:cp v:nameU="AssetNumber" v:lbl="Asset Number" v:prompt="" v:type="0" v:format="" v:sortKey="Asset"
						v:invis="false" v:ask="false" v:langID="1033" v:cal="0"/>
				<v:cp v:nameU="SerialNumber" v:lbl="Serial Number" v:prompt="" v:type="0" v:format="" v:sortKey="Asset"
						v:invis="false" v:ask="false" v:langID="1033" v:cal="0"/>
				<v:cp v:nameU="Location" v:lbl="Location" v:prompt="" v:type="0" v:format="" v:sortKey="Asset" v:invis="false"
						v:ask="false" v:langID="1033" v:cal="0"/>
				<v:cp v:nameU="Building" v:lbl="Building" v:prompt="" v:type="0" v:format="" v:sortKey="Asset" v:invis="false"
						v:ask="false" v:langID="1033" v:cal="0"/>
				<v:cp v:nameU="Room" v:lbl="Room" v:prompt="" v:type="0" v:format="" v:sortKey="Asset" v:invis="false"
						v:ask="false" v:langID="1033" v:cal="0"/>
				<v:cp v:nameU="Manufacturer" v:lbl="Manufacturer" v:prompt="" v:type="0" v:format="" v:sortKey="Equipment"
						v:invis="false" v:ask="false" v:langID="1033" v:cal="0"/>
				<v:cp v:nameU="ProductNumber" v:lbl="Product Number" v:prompt="" v:type="0" v:format="" v:sortKey="Equipment"
						v:invis="false" v:ask="false" v:langID="1033" v:cal="0"/>
				<v:cp v:nameU="PartNumber" v:lbl="Part Number" v:prompt="" v:type="0" v:format="" v:sortKey="Equipment"
						v:invis="false" v:ask="false" v:langID="1033" v:cal="0"/>
				<v:cp v:nameU="ProductDescription" v:lbl="Product Description" v:prompt="" v:type="0" v:format=""
						v:sortKey="Equipment" v:invis="false" v:ask="false" v:langID="1033" v:cal="0"/>
				<v:cp v:nameU="NetworkName" v:lbl="Network Name" v:prompt="" v:type="0" v:format="" v:sortKey="Network"
						v:invis="false" v:ask="false" v:langID="1033" v:cal="0"/>
				<v:cp v:nameU="IPAddress" v:lbl="IP Address" v:prompt="" v:type="0" v:format="" v:sortKey="Network" v:invis="false"
						v:ask="false" v:langID="1033" v:cal="0"/>
				<v:cp v:nameU="SubnetMask" v:lbl="Subnet Mask" v:prompt="" v:type="0" v:format="" v:sortKey="Network"
						v:invis="false" v:ask="false" v:langID="1033" v:cal="0"/>
				<v:cp v:nameU="AdminInterface" v:lbl="Administrative Interface" v:prompt="" v:type="0" v:format=""
						v:sortKey="Network" v:invis="false" v:ask="false" v:langID="1033" v:cal="0"/>
				<v:cp v:nameU="NumberofPorts" v:lbl="Number of Ports" v:prompt="" v:type="0" v:format="" v:sortKey="Network"
						v:invis="false" v:ask="false" v:langID="1033" v:cal="0"/>
				<v:cp v:nameU="CommunityString" v:lbl="Community String" v:prompt="" v:type="0" v:format="" v:sortKey="Network"
						v:invis="false" v:ask="false" v:langID="1033" v:cal="0"/>
				<v:cp v:nameU="NetworkDescription" v:lbl="Network Description" v:prompt="" v:type="0" v:format=""
						v:sortKey="Network" v:invis="false" v:ask="false" v:langID="1033" v:cal="0"/>
				<v:cp v:nameU="MACAddress" v:lbl="MAC Address" v:prompt="" v:type="0" v:format="" v:sortKey="Network"
						v:invis="false" v:ask="false" v:langID="1033" v:cal="0"/>
				<v:cp v:nameU="CPU" v:lbl="CPU" v:prompt="" v:type="0" v:format="" v:sortKey="Workstation" v:invis="false"
						v:ask="false" v:langID="1033" v:cal="0"/>
				<v:cp v:nameU="Memory" v:lbl="Memory" v:prompt="" v:type="0" v:format="" v:sortKey="Workstation" v:invis="false"
						v:ask="false" v:langID="1033" v:cal="0"/>
				<v:cp v:nameU="OperatingSystem" v:lbl="Operating System" v:prompt="" v:type="0" v:format="" v:sortKey="Workstation"
						v:invis="false" v:ask="false" v:langID="1033" v:cal="0"/>
				<v:cp v:nameU="HardDriveSize" v:lbl="Hard Drive Capacity" v:prompt="" v:type="0" v:format=""
						v:sortKey="Workstation" v:invis="false" v:ask="false" v:langID="1033" v:cal="0"/>
				<v:cp v:nameU="ShapeClass" v:lbl="ShapeClass" v:prompt="" v:type="0" v:format="" v:sortKey="" v:invis="true"
						v:ask="false" v:langID="1033" v:cal="0" v:val="VT4(Equipment)"/>
				<v:cp v:nameU="ShapeType" v:lbl="ShapeType" v:prompt="" v:type="0" v:format="" v:sortKey="" v:invis="true"
						v:ask="false" v:langID="1033" v:cal="0" v:val="VT4(Computer)"/>
				<v:cp v:nameU="SubShapeType" v:lbl="SubShapeType" v:prompt="" v:type="0" v:format="" v:sortKey="" v:invis="true"
						v:ask="false" v:langID="1033" v:cal="0" v:val="VT4(Laptop)"/>
			</v:custProps>
			<v:userDefs>
				<v:ud v:nameU="visVersion" v:prompt="" v:val="VT0(15):26"/>
				<v:ud v:nameU="ShapeClass" v:prompt="" v:val="VT0(5):26"/>
				<v:ud v:nameU="SolSH" v:prompt="" v:val="VT15({BF0433D9-CD73-4EB5-8390-8653BE590246}):41"/>
				<v:ud v:nameU="visLegendShape" v:prompt="" v:val="VT0(2):26"/>
			</v:userDefs>
			<title>Laptop</title>
			<desc>End User System</desc>
			<g id="shape691-93" v:mID="691" v:groupContext="shape" transform="translate(0,-6.56146)">
				<title>Sheet.691</title>
				<g id="shadow691-94" v:groupContext="shadow" v:shadowOffsetX="0.345598" v:shadowOffsetY="-1.97279" v:shadowType="1"
						transform="matrix(1,0,0,1,0.345598,1.97279)" class="st1">
					<path d="M0 466.46 L70.87 466.46 L70.87 459.04 L64.8 448.78 L5.71 448.78 L0 459.04 L0 466.46 ZM64.99 447.09 L64.99
								 414.65 C64.99 411.37 62.34 408.72 59.06 408.72 L11.64 408.72 C8.37 408.72 5.71 411.37 5.71 414.65
								 L5.71 447.09 L64.99 447.09 Z" class="st2"/>
				</g>
				<path d="M0 466.46 L70.87 466.46 L70.87 459.04 L64.8 448.78 L5.71 448.78 L0 459.04 L0 466.46 ZM64.99 447.09 L64.99
							 414.65 C64.99 411.37 62.34 408.72 59.06 408.72 L11.64 408.72 C8.37 408.72 5.71 411.37 5.71 414.65 L5.71
							 447.09 L64.99 447.09 Z" class="st15"/>
			</g>
			<g id="shape692-98" v:mID="692" v:groupContext="shape" transform="translate(6.97248,-14.8259)">
				<title>Sheet.692</title>
				<v:userDefs>
					<v:ud v:nameU="SurroundingRegionColor" v:prompt="" v:val="VT0(1):26"/>
					<v:ud v:nameU="SurroundingRegionColor" v:prompt="" v:val="VT5(#5b9bd5)"/>
				</v:userDefs>
				<g id="shadow692-99" v:groupContext="shadow" v:shadowOffsetX="0.345598" v:shadowOffsetY="-1.97279" v:shadowType="1"
						transform="matrix(1,0,0,1,0.345598,1.97279)" class="st1">
					<path d="M2.86 461.34 L0 466.46 L56.8 466.46 L53.93 461.34 L2.86 461.34 Z" class="st4"/>
				</g>
				<path d="M2.86 461.34 L0 466.46 L56.8 466.46 L53.93 461.34 L2.86 461.34 Z" class="st18"/>
			</g>
			<g id="shape693-106" v:mID="693" v:groupContext="shape" transform="translate(11.4259,-32.1061)">
				<title>Sheet.693</title>
				<v:userDefs>
					<v:ud v:nameU="SurroundingRegionColor" v:prompt="" v:val="VT0(1):26"/>
					<v:ud v:nameU="SurroundingRegionColor" v:prompt="" v:val="VT5(#5b9bd5)"/>
				</v:userDefs>
				<g id="shadow693-107" v:groupContext="shadow" v:shadowOffsetX="0.345598" v:shadowOffsetY="-1.97279"
						v:shadowType="1" transform="matrix(1,0,0,1,0.345598,1.97279)" class="st1">
					<rect x="0" y="439.812" width="48.0152" height="26.6509" class="st2"/>
				</g>
				<rect x="0" y="439.812" width="48.0152" height="26.6509" class="st17"/>
			</g>
			<g id="shape690-111" v:mID="690" v:groupContext="groupContent">
				<v:textBlock v:margins="rect(4,4,4,4)" v:tabSpace="42.5197"/>
				<v:textRect cx="35.4331" cy="476.464" width="78.32" height="20.0036"/>
				<g id="shadow690-112" v:groupContext="shadow" v:shadowOffsetX="0.345598" v:shadowOffsetY="-1.97279"
						v:shadowType="1" transform="matrix(1,0,0,1,0.345598,1.97279)" class="st1"/>
				<text x="1.41" y="479.46" class="st8" v:langID="1044"><v:paragraph v:horizAlign="1"/><v:tabList/>End User System</text>			</g>
		</g>
		<g id="group694-114" transform="translate(446.624,-306.57)" v:mID="694" v:groupContext="group">
			<v:custProps>
				<v:cp v:nameU="AssetNumber" v:lbl="Asset Number" v:prompt="" v:type="0" v:format="" v:sortKey="Asset"
						v:invis="false" v:ask="false" v:langID="1033" v:cal="0"/>
				<v:cp v:nameU="SerialNumber" v:lbl="Serial Number" v:prompt="" v:type="0" v:format="" v:sortKey="Asset"
						v:invis="false" v:ask="false" v:langID="1033" v:cal="0"/>
				<v:cp v:nameU="Location" v:lbl="Location" v:prompt="" v:type="0" v:format="" v:sortKey="Asset" v:invis="false"
						v:ask="false" v:langID="1033" v:cal="0"/>
				<v:cp v:nameU="Building" v:lbl="Building" v:prompt="" v:type="0" v:format="" v:sortKey="Asset" v:invis="false"
						v:ask="false" v:langID="1033" v:cal="0"/>
				<v:cp v:nameU="Room" v:lbl="Room" v:prompt="" v:type="0" v:format="" v:sortKey="Asset" v:invis="false"
						v:ask="false" v:langID="1033" v:cal="0"/>
				<v:cp v:nameU="Manufacturer" v:lbl="Manufacturer" v:prompt="" v:type="0" v:format="" v:sortKey="Equipment"
						v:invis="false" v:ask="false" v:langID="1033" v:cal="0"/>
				<v:cp v:nameU="ProductNumber" v:lbl="Product Number" v:prompt="" v:type="0" v:format="" v:sortKey="Equipment"
						v:invis="false" v:ask="false" v:langID="1033" v:cal="0"/>
				<v:cp v:nameU="PartNumber" v:lbl="Part Number" v:prompt="" v:type="0" v:format="" v:sortKey="Equipment"
						v:invis="false" v:ask="false" v:langID="1033" v:cal="0"/>
				<v:cp v:nameU="ProductDescription" v:lbl="Product Description" v:prompt="" v:type="0" v:format=""
						v:sortKey="Equipment" v:invis="false" v:ask="false" v:langID="1033" v:cal="0"/>
				<v:cp v:nameU="NetworkName" v:lbl="Network Name" v:prompt="" v:type="0" v:format="" v:sortKey="Network"
						v:invis="false" v:ask="false" v:langID="1033" v:cal="0"/>
				<v:cp v:nameU="IPAddress" v:lbl="IP Address" v:prompt="" v:type="0" v:format="" v:sortKey="Network" v:invis="false"
						v:ask="false" v:langID="1033" v:cal="0"/>
				<v:cp v:nameU="SubnetMask" v:lbl="Subnet Mask" v:prompt="" v:type="0" v:format="" v:sortKey="Network"
						v:invis="false" v:ask="false" v:langID="1033" v:cal="0"/>
				<v:cp v:nameU="AdminInterface" v:lbl="Administrative Interface" v:prompt="" v:type="0" v:format=""
						v:sortKey="Network" v:invis="false" v:ask="false" v:langID="1033" v:cal="0"/>
				<v:cp v:nameU="NumberofPorts" v:lbl="Number of Ports" v:prompt="" v:type="0" v:format="" v:sortKey="Network"
						v:invis="false" v:ask="false" v:langID="1033" v:cal="0"/>
				<v:cp v:nameU="CommunityString" v:lbl="Community String" v:prompt="" v:type="0" v:format="" v:sortKey="Network"
						v:invis="false" v:ask="false" v:langID="1033" v:cal="0"/>
				<v:cp v:nameU="NetworkDescription" v:lbl="Network Description" v:prompt="" v:type="0" v:format=""
						v:sortKey="Network" v:invis="false" v:ask="false" v:langID="1033" v:cal="0"/>
				<v:cp v:nameU="MACAddress" v:lbl="MAC Address" v:prompt="" v:type="0" v:format="" v:sortKey="Network"
						v:invis="false" v:ask="false" v:langID="1033" v:cal="0"/>
				<v:cp v:nameU="CPU" v:lbl="CPU" v:prompt="" v:type="0" v:format="" v:sortKey="Workstation" v:invis="false"
						v:ask="false" v:langID="1033" v:cal="0"/>
				<v:cp v:nameU="Memory" v:lbl="Memory" v:prompt="" v:type="0" v:format="" v:sortKey="Workstation" v:invis="false"
						v:ask="false" v:langID="1033" v:cal="0"/>
				<v:cp v:nameU="OperatingSystem" v:lbl="Operating System" v:prompt="" v:type="0" v:format="" v:sortKey="Workstation"
						v:invis="false" v:ask="false" v:langID="1033" v:cal="0"/>
				<v:cp v:nameU="HardDriveSize" v:lbl="Hard Drive Capacity" v:prompt="" v:type="0" v:format=""
						v:sortKey="Workstation" v:invis="false" v:ask="false" v:langID="1033" v:cal="0"/>
				<v:cp v:nameU="ShapeClass" v:lbl="ShapeClass" v:prompt="" v:type="0" v:format="" v:sortKey="" v:invis="true"
						v:ask="false" v:langID="1033" v:cal="0" v:val="VT4(Equipment)"/>
				<v:cp v:nameU="ShapeType" v:lbl="ShapeType" v:prompt="" v:type="0" v:format="" v:sortKey="" v:invis="true"
						v:ask="false" v:langID="1033" v:cal="0" v:val="VT4(Terminal)"/>
			</v:custProps>
			<v:userDefs>
				<v:ud v:nameU="visVersion" v:prompt="" v:val="VT0(15):26"/>
				<v:ud v:nameU="ShapeClass" v:prompt="" v:val="VT0(5):26"/>
				<v:ud v:nameU="SolSH" v:prompt="" v:val="VT15({BF0433D9-CD73-4EB5-8390-8653BE590246}):41"/>
				<v:ud v:nameU="visLegendShape" v:prompt="" v:val="VT0(2):26"/>
			</v:userDefs>
			<title>Terminal</title>
			<desc>Org System</desc>
			<g id="shape695-115" v:mID="695" v:groupContext="shape" transform="translate(0,-4.14563)">
				<title>Sheet.695</title>
				<g id="shadow695-116" v:groupContext="shadow" v:shadowOffsetX="0.345598" v:shadowOffsetY="-1.97279"
						v:shadowType="1" transform="matrix(1,0,0,1,0.345598,1.97279)" class="st1">
					<path d="M67.46 403.89 L4.12 403.89 L4.12 446.16 L67.46 446.16 L67.46 403.89 ZM70.87 466.46 L60.24 453.14 L10.63
								 453.14 L0 466.46 L70.87 466.46 ZM41 446.16 L29.87 446.16 L29.87 453.14 L41 453.14 L41 446.16 Z"
							class="st2"/>
				</g>
				<path d="M67.46 403.89 L4.12 403.89 L4.12 446.16 L67.46 446.16 L67.46 403.89 ZM70.87 466.46 L60.24 453.14 L10.63
							 453.14 L0 466.46 L70.87 466.46 ZM41 446.16 L29.87 446.16 L29.87 453.14 L41 453.14 L41 446.16 Z"
						class="st15"/>
			</g>
			<g id="shape696-120" v:mID="696" v:groupContext="shape" transform="translate(8.22949,-28.2604)">
				<title>Sheet.696</title>
				<v:userDefs>
					<v:ud v:nameU="SurroundingRegionColor" v:prompt="" v:val="VT0(1):26"/>
					<v:ud v:nameU="SurroundingRegionColor" v:prompt="" v:val="VT5(#5b9bd5)"/>
				</v:userDefs>
				<g id="shadow696-121" v:groupContext="shadow" v:shadowOffsetX="0.345598" v:shadowOffsetY="-1.97279"
						v:shadowType="1" transform="matrix(1,0,0,1,0.345598,1.97279)" class="st1">
					<path d="M55.21 432.19 L0 432.19 L0 466.46 L55.21 466.46 L55.21 432.19 Z" class="st2"/>
				</g>
				<path d="M55.21 432.19 L0 432.19 L0 466.46 L55.21 466.46 L55.21 432.19 Z" class="st20"/>
			</g>
			<g id="shape697-125" v:mID="697" v:groupContext="shape" transform="translate(9.64422,-6.8964)">
				<title>Sheet.697</title>
				<v:userDefs>
					<v:ud v:nameU="SurroundingRegionColor" v:prompt="" v:val="VT0(1):26"/>
					<v:ud v:nameU="SurroundingRegionColor" v:prompt="" v:val="VT5(#5b9bd5)"/>
				</v:userDefs>
				<g id="shadow697-126" v:groupContext="shadow" v:shadowOffsetX="0.345598" v:shadowOffsetY="-1.97279"
						v:shadowType="1" transform="matrix(1,0,0,1,0.345598,1.97279)" class="st1">
					<path d="M48.39 461.29 L45.24 461.29 L47.01 463.25 L50.4 463.25 L48.39 461.29 ZM44.83 457.82 L42.12 457.82 L44.01
								 459.92 L46.99 459.92 L44.83 457.82 ZM43.55 461.29 L40.4 461.29 L41.78 463.25 L45.18 463.25 L43.55
								 461.29 ZM40.66 457.82 L37.94 457.82 L39.43 459.92 L42.41 459.92 L40.66 457.82 ZM38.7 461.29 L35.55
								 461.29 L36.56 463.25 L39.96 463.25 L38.7 461.29 ZM36.49 457.82 L33.78 457.82 L34.86 459.97 L37.85
								 459.97 L36.49 457.82 ZM33.86 461.29 L30.71 461.29 L31.34 463.25 L34.73 463.25 L33.86 461.29 ZM32.38
								 457.96 L29.64 457.96 L30.28 459.97 L33.27 459.97 L32.38 457.96 ZM29.01 461.29 L25.86 461.29 L26.11
								 463.25 L29.51 463.25 L29.01 461.29 ZM28.22 458.13 L25.46 458.13 L25.71 460.09 L28.71 460.09 L28.22
								 458.13 ZM23.98 458.13 L21.23 458.13 L21.1 460.09 L24.1 460.09 L23.98 458.13 ZM24.17 461.29 L21.02
								 461.29 L20.89 463.25 L24.29 463.25 L24.17 461.29 ZM19.75 458.13 L17 458.13 L16.49 460.09 L19.49
								 460.09 L19.75 458.13 ZM19.33 461.29 L16.18 461.29 L15.67 463.25 L19.06 463.25 L19.33 461.29 ZM36.6
								 464.5 L14.38 464.5 L13.8 466.46 L37.56 466.46 L36.6 464.5 ZM15.51 458.13 L12.76 458.13 L11.88 460.09
								 L14.87 460.09 L15.51 458.13 ZM14.48 461.29 L11.33 461.29 L10.44 463.25 L13.84 463.25 L14.48 461.29
								 ZM11.28 458.13 L8.53 458.13 L7.26 460.09 L10.26 460.09 L11.28 458.13 ZM9.64 461.29 L6.49 461.29
								 L5.22 463.25 L8.62 463.25 L9.64 461.29 ZM7.05 458.13 L4.29 458.13 L2.65 460.09 L5.65 460.09 L7.05
								 458.13 ZM4.79 461.29 L1.64 461.29 L0 463.25 L3.4 463.25 L4.79 461.29 Z" class="st4"/>
				</g>
				<path d="M48.39 461.29 L45.24 461.29 L47.01 463.25 L50.4 463.25 L48.39 461.29 ZM44.83 457.82 L42.12 457.82 L44.01
							 459.92 L46.99 459.92 L44.83 457.82 ZM43.55 461.29 L40.4 461.29 L41.78 463.25 L45.18 463.25 L43.55 461.29
							 ZM40.66 457.82 L37.94 457.82 L39.43 459.92 L42.41 459.92 L40.66 457.82 ZM38.7 461.29 L35.55 461.29 L36.56
							 463.25 L39.96 463.25 L38.7 461.29 ZM36.49 457.82 L33.78 457.82 L34.86 459.97 L37.85 459.97 L36.49 457.82
							 ZM33.86 461.29 L30.71 461.29 L31.34 463.25 L34.73 463.25 L33.86 461.29 ZM32.38 457.96 L29.64 457.96
							 L30.28 459.97 L33.27 459.97 L32.38 457.96 ZM29.01 461.29 L25.86 461.29 L26.11 463.25 L29.51 463.25 L29.01
							 461.29 ZM28.22 458.13 L25.46 458.13 L25.71 460.09 L28.71 460.09 L28.22 458.13 ZM23.98 458.13 L21.23
							 458.13 L21.1 460.09 L24.1 460.09 L23.98 458.13 ZM24.17 461.29 L21.02 461.29 L20.89 463.25 L24.29 463.25
							 L24.17 461.29 ZM19.75 458.13 L17 458.13 L16.49 460.09 L19.49 460.09 L19.75 458.13 ZM19.33 461.29 L16.18
							 461.29 L15.67 463.25 L19.06 463.25 L19.33 461.29 ZM36.6 464.5 L14.38 464.5 L13.8 466.46 L37.56 466.46
							 L36.6 464.5 ZM15.51 458.13 L12.76 458.13 L11.88 460.09 L14.87 460.09 L15.51 458.13 ZM14.48 461.29 L11.33
							 461.29 L10.44 463.25 L13.84 463.25 L14.48 461.29 ZM11.28 458.13 L8.53 458.13 L7.26 460.09 L10.26 460.09
							 L11.28 458.13 ZM9.64 461.29 L6.49 461.29 L5.22 463.25 L8.62 463.25 L9.64 461.29 ZM7.05 458.13 L4.29
							 458.13 L2.65 460.09 L5.65 460.09 L7.05 458.13 ZM4.79 461.29 L1.64 461.29 L0 463.25 L3.4 463.25 L4.79
							 461.29 Z" class="st18"/>
			</g>
			<g id="shape694-133" v:mID="694" v:groupContext="groupContent">
				<v:textBlock v:margins="rect(4,4,4,4)" v:tabSpace="42.5197"/>
				<v:textRect cx="35.4331" cy="476.464" width="56.69" height="20.0036"/>
				<g id="shadow694-134" v:groupContext="shadow" v:shadowOffsetX="0.345598" v:shadowOffsetY="-1.97279"
						v:shadowType="1" transform="matrix(1,0,0,1,0.345598,1.97279)" class="st1"/>
				<text x="12.22" y="479.46" class="st8" v:langID="1044"><v:paragraph v:horizAlign="1"/><v:tabList/>Org System</text>			</g>
		</g>
		<g id="shape698-136" v:mID="698" v:groupContext="shape" v:layerMember="0" transform="translate(340.324,-391.61)">
			<title>Person.698</title>
			<desc>End User</desc>
			<v:userDefs>
				<v:ud v:nameU="visVersion" v:prompt="" v:val="VT0(15):26"/>
				<v:ud v:nameU="ConnGap" v:prompt="" v:val="VT0(0.00012908222537757):24"/>
			</v:userDefs>
			<v:textBlock v:margins="rect(4,4,4,4)" v:tabSpace="42.5197"/>
			<v:textRect cx="17.0079" cy="476.464" width="46.71" height="20.0036"/>
			<g id="shadow698-137" v:groupContext="shadow" v:shadowOffsetX="0.345598" v:shadowOffsetY="-1.97279" v:shadowType="1"
					transform="matrix(1,0,0,1,0.345598,1.97279)" class="st1">
				<path d="M27.48 417.06 L6.54 417.06 C5.03 417.06 3.64 417.56 2.54 418.4 C1.77 418.99 1.13 419.74 0.69 420.6 C0.25
							 421.46 0 422.43 0 423.45 L0 447.72 L5.73 447.72 L5.73 466.46 L28.07 466.46 L28.07 447.72 L34.02 447.72
							 L34.02 423.45 C34.02 421.97 33.5 420.62 32.64 419.54 C32.04 418.79 31.27 418.17 30.39 417.73 C29.52
							 417.3 28.53 417.06 27.48 417.06 ZM26.79 405.05 A9.78293 9.45354 -180 1 0 7.22 405.05 A9.78293 9.45354
							 -180 1 0 26.79 405.05 Z" class="st4"/>
				<path d="M27.48 417.06 L6.54 417.06 C5.03 417.06 3.64 417.56 2.54 418.4 C1.77 418.99 1.13 419.74 0.69 420.6 C0.25
							 421.46 0 422.43 0 423.45 L0 447.72 L5.73 447.72 L5.73 466.46 L28.07 466.46 L28.07 447.72 L34.02 447.72
							 L34.02 423.45 C34.02 421.97 33.5 420.62 32.64 419.54 C32.04 418.79 31.27 418.17 30.39 417.73 C29.52
							 417.3 28.53 417.06 27.48 417.06" class="st5"/>
				<path d="M17.01 466.46 L17.01 451.48" class="st5"/>
				<path d="M5.73 447.72 L5.73 434.79" class="st5"/>
				<path d="M28.07 447.72 L28.07 434.79" class="st5"/>
				<path d="M26.79 405.05 A9.78293 9.45354 -180 1 0 7.22 405.05 A9.78293 9.45354 -180 1 0 26.79 405.05" class="st5"/>
			</g>
			<path d="M27.48 417.06 L6.54 417.06 C5.03 417.06 3.64 417.56 2.54 418.4 C1.77 418.99 1.13 419.74 0.69 420.6 C0.25 421.46
						 0 422.43 0 423.45 L0 447.72 L5.73 447.72 L5.73 466.46 L28.07 466.46 L28.07 447.72 L34.02 447.72 L34.02 423.45
						 C34.02 421.97 33.5 420.62 32.64 419.54 C32.04 418.79 31.27 418.17 30.39 417.73 C29.52 417.3 28.53 417.06
						 27.48 417.06 ZM26.79 405.05 A9.78293 9.45354 -180 1 0 7.22 405.05 A9.78293 9.45354 -180 1 0 26.79 405.05
						 Z" class="st6"/>
			<path d="M27.48 417.06 L6.54 417.06 C5.03 417.06 3.64 417.56 2.54 418.4 C1.77 418.99 1.13 419.74 0.69 420.6 C0.25 421.46
						 0 422.43 0 423.45 L0 447.72 L5.73 447.72 L5.73 466.46 L28.07 466.46 L28.07 447.72 L34.02 447.72 L34.02 423.45
						 C34.02 421.97 33.5 420.62 32.64 419.54 C32.04 418.79 31.27 418.17 30.39 417.73 C29.52 417.3 28.53 417.06
						 27.48 417.06" class="st7"/>
			<path d="M17.01 466.46 L17.01 451.48" class="st7"/>
			<path d="M5.73 447.72 L5.73 434.79" class="st7"/>
			<path d="M28.07 447.72 L28.07 434.79" class="st7"/>
			<path d="M26.79 405.05 A9.78293 9.45354 -180 1 0 7.22 405.05 A9.78293 9.45354 -180 1 0 26.79 405.05" class="st7"/>
			<text x="-1.21" y="479.46" class="st8" v:langID="1044"><v:paragraph v:horizAlign="1"/><v:tabList/>End User</text>		</g>
		<g id="shape699-153" v:mID="699" v:groupContext="shape" transform="translate(337.027,-144.995)">
			<title>Rectangle.699</title>
			<desc>Confirm/Send in</desc>
			<v:userDefs>
				<v:ud v:nameU="visVersion" v:val="VT0(15):26"/>
			</v:userDefs>
			<v:textBlock v:margins="rect(4,4,4,4)" v:tabSpace="42.5197"/>
			<v:textRect cx="56.6929" cy="453.707" width="113.39" height="25.5118"/>
			<g id="shadow699-154" v:groupContext="shadow" v:shadowOffsetX="0.345598" v:shadowOffsetY="-1.97279" v:shadowType="1"
					transform="matrix(1,0,0,1,0.345598,1.97279)" class="st1">
				<rect x="0" y="440.951" width="113.386" height="25.5118" class="st2"/>
			</g>
			<rect x="0" y="440.951" width="113.386" height="25.5118" class="st15"/>
			<text x="23.48" y="456.71" class="st12" v:langID="1044"><v:paragraph v:horizAlign="1"/><v:tabList/>Confirm/Send in</text>		</g>
		<g id="group803-159" transform="translate(100.797,-309.405)" v:mID="803" v:groupContext="group" v:layerMember="0">
			<v:userDefs>
				<v:ud v:nameU="visVersion" v:prompt="" v:val="VT0(15):26"/>
				<v:ud v:nameU="ConnGap" v:prompt="" v:val="VT0(0.00012908222537757):24"/>
			</v:userDefs>
			<title>Web Page.803</title>
			<desc>Web Browser</desc>
			<g id="shape804-160" v:mID="804" v:groupContext="shape" v:layerMember="0" transform="translate(0,-16.0605)">
				<title>Sheet.804</title>
				<g id="shadow804-161" v:groupContext="shadow" v:shadowOffsetX="0.345598" v:shadowOffsetY="-1.97279"
						v:shadowType="1" transform="matrix(1,0,0,1,0.345598,1.97279)" class="st1">
					<rect x="0" y="417.879" width="61.7769" height="48.5839" class="st2"/>
				</g>
				<rect x="0" y="417.879" width="61.7769" height="48.5839" class="st15"/>
			</g>
			<g id="shape805-165" v:mID="805" v:groupContext="shape" v:layerMember="0" transform="translate(9.66943,-37.9899)">
				<title>Sheet.805</title>
				<v:userDefs>
					<v:ud v:nameU="SurroundingRegionColor" v:prompt="" v:val="VT0(1):26"/>
					<v:ud v:nameU="SurroundingRegionColor" v:prompt="" v:val="VT5(#5b9bd5)"/>
				</v:userDefs>
				<path d="M0 455.64 L2.95 455.64 L2.95 453.69 L0 453.69 L0 455.64 ZM6.71 455.64 L23.64 455.64 L23.64 453.69 L6.71
							 453.69 L6.71 455.64 ZM6.71 461.05 L23.64 461.05 L23.64 459.11 L6.71 459.11 L6.71 461.05 ZM0 461.05 L2.95
							 461.05 L2.95 459.11 L0 459.11 L0 461.05 ZM0 466.46 L2.95 466.46 L2.95 464.52 L0 464.52 L0 466.46 ZM6.71
							 466.46 L23.64 466.46 L23.64 464.52 L6.71 464.52 L6.71 466.46 Z" class="st21"/>
			</g>
			<g id="shape806-168" v:mID="806" v:groupContext="shape" v:layerMember="0" transform="translate(1.34298,-0.552467)">
				<title>Sheet.806</title>
				<g id="shadow806-169" v:groupContext="shadow" v:shadowOffsetX="0.345598" v:shadowOffsetY="-1.97279"
						v:shadowType="1" transform="matrix(1,0,0,1,0.345598,1.97279)" class="st1">
					<path d="M0 411.39 L59.09 411.39 L59.09 403.61 L0 403.61 L0 411.39 ZM69.52 447.63 A18.2215 18.8339 -180 1 0 33.08
								 447.63 A18.2215 18.8339 -180 1 0 69.52 447.63 Z" class="st2"/>
				</g>
				<path d="M0 411.39 L59.09 411.39 L59.09 403.61 L0 403.61 L0 411.39 ZM69.52 447.63 A18.2215 18.8339 -180 1 0 33.08
							 447.63 A18.2215 18.8339 -180 1 0 69.52 447.63 Z" class="st15"/>
			</g>
			<g id="shape807-173" v:mID="807" v:groupContext="shape" v:layerMember="0" transform="translate(34.4232,-0.552469)">
				<title>Sheet.807</title>
				<v:userDefs>
					<v:ud v:nameU="GrpLineWeight" v:prompt="" v:val="VT0(0.010416666666667):3"/>
					<v:ud v:nameU="GrpLineWeight" v:prompt="" v:val="VT0(0.0034722222222222):29"/>
				</v:userDefs>
				<g id="shadow807-174" v:groupContext="shadow" v:shadowOffsetX="0.345598" v:shadowOffsetY="-1.97279"
						v:shadowType="1" transform="matrix(1,0,0,1,0.345598,1.97279)" class="st1">
					<path d="M1.91 456.02 L34.53 456.02" class="st5"/>
					<path d="M-0 447.63 L36.44 447.63" class="st5"/>
					<path d="M1.91 439.24 L34.53 439.24" class="st5"/>
					<path d="M28.54 447.63 A10.3141 18.8339 -180 1 0 7.91 447.63 A10.3141 18.8339 -180 1 0 28.54 447.63"
							class="st5"/>
					<path d="M18.22 466.46 L18.22 428.79" class="st5"/>
				</g>
				<path d="M1.91 456.02 L34.53 456.02" class="st7"/>
				<path d="M-0 447.63 L36.44 447.63" class="st7"/>
				<path d="M1.91 439.24 L34.53 439.24" class="st7"/>
				<path d="M28.54 447.63 A10.3141 18.8339 -180 1 0 7.91 447.63 A10.3141 18.8339 -180 1 0 28.54 447.63" class="st7"/>
				<path d="M18.22 466.46 L18.22 428.79" class="st7"/>
			</g>
			<g id="shape803-189" v:mID="803" v:groupContext="groupContent" v:layerMember="0">
				<v:textBlock v:margins="rect(4,4,4,4)" v:tabSpace="42.5197"/>
				<v:textRect cx="35.4331" cy="476.464" width="65.38" height="20.0036"/>
				<g id="shadow803-190" v:groupContext="shadow" v:shadowOffsetX="0.345598" v:shadowOffsetY="-1.97279"
						v:shadowType="1" transform="matrix(1,0,0,1,0.345598,1.97279)" class="st1"/>
				<text x="7.88" y="479.46" class="st8" v:langID="1044"><v:paragraph v:horizAlign="1"/><v:tabList/>Web Browser</text>			</g>
		</g>
		<g id="shape844-192" v:mID="844" v:groupContext="shape" transform="translate(92.8934,-185.456)">
			<title>Rectangle.844</title>
			<desc>Web interface</desc>
			<v:userDefs>
				<v:ud v:nameU="visVersion" v:val="VT0(15):26"/>
			</v:userDefs>
			<v:textBlock v:margins="rect(4,4,4,4)" v:tabSpace="42.5197"/>
			<v:textRect cx="90.7087" cy="459.376" width="181.42" height="14.1732"/>
			<g id="shadow844-193" v:groupContext="shadow" v:shadowOffsetX="0.345598" v:shadowOffsetY="-1.97279" v:shadowType="1"
					transform="matrix(1,0,0,1,0.345598,1.97279)" class="st1">
				<rect x="0" y="452.289" width="181.417" height="14.1732" class="st2"/>
			</g>
			<rect x="0" y="452.289" width="181.417" height="14.1732" class="st22"/>
			<text x="61.81" y="462.38" class="st12" v:langID="1044"><v:paragraph v:horizAlign="1"/><v:tabList/>Web interface</text>		</g>
		<g id="shape845-198" v:mID="845" v:groupContext="shape" transform="translate(276.082,-185.456)">
			<title>Rectangle.845</title>
			<desc>REST -API</desc>
			<v:userDefs>
				<v:ud v:nameU="visVersion" v:val="VT0(15):26"/>
			</v:userDefs>
			<v:textBlock v:margins="rect(4,4,4,4)" v:tabSpace="42.5197"/>
			<v:textRect cx="90.7087" cy="459.376" width="181.42" height="14.1732"/>
			<g id="shadow845-199" v:groupContext="shadow" v:shadowOffsetX="0.345598" v:shadowOffsetY="-1.97279" v:shadowType="1"
					transform="matrix(1,0,0,1,0.345598,1.97279)" class="st1">
				<rect x="0" y="452.289" width="181.417" height="14.1732" class="st2"/>
			</g>
			<rect x="0" y="452.289" width="181.417" height="14.1732" class="st23"/>
			<text x="71.42" y="462.38" class="st12" v:langID="1044"><v:paragraph v:horizAlign="1"/><v:tabList/>REST -API</text>		</g>
	</g>
</svg>
