<svg xmlns="http://www.w3.org/2000/svg" viewBox="0 0 1200 620" role="img" aria-labelledby="title desc">
 <title id="title">Applikasjonsarkitektur for Audit Log</title><desc id="desc">Hendelseskilder, købehandling, API-er og lagring.</desc>
 <style>text{font-family:Arial,sans-serif;fill:#1e2b3c}.h{font-size:28px;font-weight:700}.s{font-size:15px}.b{fill:#d9efff;stroke:#1976a3;stroke-width:2}.l{fill:#e3f4df;stroke:#3b7d34;stroke-width:2}.d{fill:#fff1c7;stroke:#9a6b00;stroke-width:2}.a:hover rect{stroke-width:4}.a:hover text{text-decoration:underline}.arrow{stroke:#667;stroke-width:2;marker-end:url(#m)}</style><defs><marker id="m" markerWidth="9" markerHeight="9" refX="8" refY="3" orient="auto"><path d="M0,0 L0,6 L9,3 z" fill="#667"/></marker></defs>
 <text x="40" y="45" class="h">Audit Log</text><text x="40" y="72" class="s">Autentiserings- og autorisasjonshendelser – klikk på en boks for kildekoden</text>
 <g class="arrow"><path d="M200 170H335"/><path d="M535 170H665"/><path d="M865 170H1000"/><path d="M770 230V315"/><path d="M770 405V485"/></g>
 <rect class="d" x="40" y="120" width="160" height="100" rx="8"/><text x="70" y="160" font-weight="700">Hendelseskilder</text><text x="65" y="190" class="s">Altinn-tjenester</text>
 <rect class="d" x="335" y="120" width="200" height="100" rx="8"/><text x="380" y="160" font-weight="700">Azure-køer</text><text x="367" y="190" class="s">Meldinger med hendelser</text>
 <a class="a" href="https://github.com/Altinn/altinn-auth-audit-log/blob/main/src/Functions/Altinn.Auth.AuditLog.Functions/EventsProcessor.cs" target="_blank"><rect class="l" x="665" y="110" width="200" height="120" rx="8"/><text x="690" y="150" font-weight="700">EventsProcessor</text><text x="690" y="180" class="s">Autentisering</text><text x="690" y="202" class="s">og autorisasjon</text></a>
 <a class="a" href="https://github.com/Altinn/altinn-auth-audit-log/blob/main/src/Functions/Altinn.Auth.AuditLog.Functions/Clients/AuditLogClient.cs" target="_blank"><rect class="l" x="1000" y="120" width="160" height="100" rx="8"/><text x="1020" y="160" font-weight="700">AuditLogClient</text><text x="1025" y="190" class="s">HTTP-klient</text></a>
 <a class="a" href="https://github.com/Altinn/altinn-auth-audit-log/blob/main/src/Altinn.Auth.AuditLog/Controllers/AuthenticationEventController.cs" target="_blank"><rect class="b" x="400" y="315" width="350" height="90" rx="8"/><text x="425" y="352" font-weight="700">AuthenticationEvent API</text><text x="425" y="380" class="s">Mottar og henter autentiseringshendelser</text></a>
 <a class="a" href="https://github.com/Altinn/altinn-auth-audit-log/blob/main/src/Altinn.Auth.AuditLog/Controllers/AuthorizationEventController.cs" target="_blank"><rect class="b" x="770" y="315" width="350" height="90" rx="8"/><text x="795" y="352" font-weight="700">AuthorizationEvent API</text><text x="795" y="380" class="s">Mottar og henter autorisasjonshendelser</text></a>
 <a class="a" href="https://github.com/Altinn/altinn-auth-audit-log/tree/main/src/Altinn.Auth.AuditLog.Core" target="_blank"><rect class="l" x="275" y="485" width="260" height="80" rx="8"/><text x="375" y="522" font-weight="700">Core</text><text x="315" y="548" class="s">Tjenester og hendelsesmodeller</text></a>
 <a class="a" href="https://github.com/Altinn/altinn-auth-audit-log/tree/main/src/Altinn.Auth.AuditLog.Persistence" target="_blank"><rect class="l" x="555" y="485" width="260" height="80" rx="8"/><text x="640" y="522" font-weight="700">Persistence</text><text x="610" y="548" class="s">Datatilgang</text></a>
 <rect class="d" x="835" y="485" width="220" height="80" rx="8"/><text x="890" y="532" font-weight="700">PostgreSQL</text>
</svg>
