<?xml version="1.0" encoding="UTF-8" standalone="no"?>
<!DOCTYPE svg PUBLIC "-//W3C//DTD SVG 1.1//EN" "http://www.w3.org/Graphics/SVG/1.1/DTD/svg11.dtd">
<!-- Generated by Microsoft Visio, SVG Export altinnstudio_application_construction_architecture.svg Page-1 -->
<svg xmlns="http://www.w3.org/2000/svg" xmlns:xlink="http://www.w3.org/1999/xlink" xmlns:ev="http://www.w3.org/2001/xml-events"
		xmlns:v="http://schemas.microsoft.com/visio/2003/SVGExtensions/" width="18.1172in" height="14.5524in"
		viewBox="0 0 1304.44 1047.77" xml:space="preserve" color-interpolation-filters="sRGB" class="st35">
	<v:documentProperties v:langID="1033" v:metric="true" v:viewMarkup="false">
		<v:userDefs>
			<v:ud v:nameU="DisableSpdActionTags" v:prompt="" v:val="VT0(0):26"/>
		</v:userDefs>
	</v:documentProperties>

	<style type="text/css">
	<![CDATA[
		.st1 {visibility:visible}
		.st2 {fill:none;filter:url(#filter_2);stroke:#5b9bd5;stroke-dasharray:7,5;stroke-opacity:0.22}
		.st3 {fill:none;stroke:#c7c8c8;stroke-dasharray:7,5;stroke-width:1}
		.st4 {fill:none;stroke:none;stroke-width:0.25}
		.st5 {fill:#ffffff;font-family:Calibri;font-size:1.00001em}
		.st6 {font-size:1em}
		.st7 {fill:#5b9bd5;font-family:Calibri;font-size:1.00001em}
		.st8 {fill:#5b9bd5;font-family:Calibri;font-size:4.99999em}
		.st9 {fill:none;filter:url(#filter_2);stroke:#5b9bd5;stroke-dasharray:5.25,3.75,0.01,3.75;stroke-opacity:0.22}
		.st10 {fill:none;stroke:#c7c8c8;stroke-dasharray:5.25,3.75,0.01,3.75;stroke-width:0.75}
		.st11 {fill:#5b9bd5;fill-opacity:0.22;filter:url(#filter_2);stroke:#5b9bd5;stroke-opacity:0.22}
		.st12 {fill:#5b9bd5;stroke:#c7c8c8;stroke-width:0.25}
		.st13 {fill:#bdd0e9;stroke:#c7c8c8;stroke-width:0.25}
		.st14 {fill:#feffff;font-family:Calibri;font-size:1.00001em}
		.st15 {fill:#5b9bd5;fill-opacity:0.22;filter:url(#filter_2);marker-end:url(#mrkr1-55);marker-start:url(#mrkr1-53);stroke:#5b9bd5;stroke-opacity:0.22}
		.st16 {fill:#5b9bd5;fill-opacity:0.22;stroke:#5b9bd5;stroke-opacity:0.22;stroke-width:0.090252707581227}
		.st17 {fill:#bdd7ee;marker-end:url(#mrkr1-61);marker-start:url(#mrkr1-59);stroke:#c7c8c8;stroke-width:0.25}
		.st18 {fill:#c7c8c8;fill-opacity:1;stroke:#c7c8c8;stroke-opacity:1;stroke-width:0.090252707581227}
		.st19 {marker-end:url(#mrkr13-112);marker-start:url(#mrkr13-110);stroke:#5b9bd5;stroke-linecap:round;stroke-linejoin:round;stroke-width:1}
		.st20 {fill:#5b9bd5;fill-opacity:1;stroke:#5b9bd5;stroke-opacity:1;stroke-width:0.28409090909091}
		.st21 {marker-end:url(#mrkr1-128);marker-start:url(#mrkr1-126);stroke:#5b9bd5;stroke-linecap:round;stroke-linejoin:round;stroke-width:1}
		.st22 {fill:#ed7d31;stroke:#c7c8c8;stroke-width:0.25}
		.st23 {fill:#4a80b1;stroke:none;stroke-linecap:butt;stroke-width:0.75}
		.st24 {fill:#2e75b5;font-family:Calibri;font-size:1.00001em}
		.st25 {fill:#5b9bd5;fill-opacity:0.22;filter:url(#filter_2)}
		.st26 {fill:none;filter:url(#filter_2);stroke:#5b9bd5;stroke-opacity:0.22}
		.st27 {fill:#5b9bd5}
		.st28 {stroke:#c8c8c8;stroke-width:0.25}
		.st29 {fill:#feffff;font-family:Calibri;font-size:0.666664em}
		.st30 {fill:#ffd965;stroke:#c7c8c8;stroke-width:0.25}
		.st31 {marker-end:url(#mrkr4-248);stroke:#5b9bd5;stroke-linecap:round;stroke-linejoin:round;stroke-width:1}
		.st32 {fill:#ffffff;stroke:none;stroke-linecap:butt;stroke-width:7.2}
		.st33 {fill:#4f88bb;font-family:Calibri;font-size:0.666664em}
		.st34 {fill:#ffffff;stroke:none;stroke-linecap:butt}
		.st35 {fill:none;fill-rule:evenodd;font-size:12px;overflow:visible;stroke-linecap:square;stroke-miterlimit:3}
	]]>
	</style>

	<defs id="Markers">
		<g id="lend1">
			<path d="M 1 -1 L 0 0 L 1 1 " style="stroke-linecap:round;stroke-linejoin:round;fill:none"/>
		</g>
		<marker id="mrkr1-53" class="st16" v:arrowType="1" v:arrowSize="2" orient="auto" markerUnits="strokeWidth"
				overflow="visible">
			<use xlink:href="#lend1" transform="scale(11.08) "/>
		</marker>
		<marker id="mrkr1-55" class="st16" v:arrowType="1" v:arrowSize="2" orient="auto" markerUnits="strokeWidth"
				overflow="visible">
			<use xlink:href="#lend1" transform="scale(-11.08,-11.08) "/>
		</marker>
		<marker id="mrkr1-59" class="st18" v:arrowType="1" v:arrowSize="2" orient="auto" markerUnits="strokeWidth"
				overflow="visible">
			<use xlink:href="#lend1" transform="scale(11.08) "/>
		</marker>
		<marker id="mrkr1-61" class="st18" v:arrowType="1" v:arrowSize="2" orient="auto" markerUnits="strokeWidth"
				overflow="visible">
			<use xlink:href="#lend1" transform="scale(-11.08,-11.08) "/>
		</marker>
		<g id="lend13">
			<path d="M 3 1 L 0 0 L 3 -1 L 3 1 " style="stroke:none"/>
		</g>
		<marker id="mrkr13-110" class="st20" v:arrowType="13" v:arrowSize="2" v:setback="10.2" refX="10.2" orient="auto"
				markerUnits="strokeWidth" overflow="visible">
			<use xlink:href="#lend13" transform="scale(3.52) "/>
		</marker>
		<marker id="mrkr13-112" class="st20" v:arrowType="13" v:arrowSize="2" v:setback="10.56" refX="-10.56" orient="auto"
				markerUnits="strokeWidth" overflow="visible">
			<use xlink:href="#lend13" transform="scale(-3.52,-3.52) "/>
		</marker>
		<marker id="mrkr1-126" class="st20" v:arrowType="1" v:arrowSize="2" orient="auto" markerUnits="strokeWidth"
				overflow="visible">
			<use xlink:href="#lend1" transform="scale(3.52) "/>
		</marker>
		<marker id="mrkr1-128" class="st20" v:arrowType="1" v:arrowSize="2" orient="auto" markerUnits="strokeWidth"
				overflow="visible">
			<use xlink:href="#lend1" transform="scale(-3.52,-3.52) "/>
		</marker>
		<g id="lend4">
			<path d="M 2 1 L 0 0 L 2 -1 L 2 1 " style="stroke:none"/>
		</g>
		<marker id="mrkr4-248" class="st20" v:arrowType="4" v:arrowSize="2" v:setback="7.04" refX="-7.04" orient="auto"
				markerUnits="strokeWidth" overflow="visible">
			<use xlink:href="#lend4" transform="scale(-3.52,-3.52) "/>
		</marker>
	</defs>
	<defs id="Filters">
		<filter id="filter_2">
			<feGaussianBlur stdDeviation="2"/>
		</filter>
	</defs>
	<g v:mID="0" v:index="1" v:groupContext="foregroundPage">
		<title>Page-1</title>
		<v:pageProperties v:drawingScale="0.0393701" v:pageScale="0.0393701" v:drawingUnits="24" v:shadowOffsetX="8.50394"
				v:shadowOffsetY="-8.50394"/>
		<v:layer v:name="Connector" v:index="0"/>
		<v:layer v:name="Flowchart" v:index="1"/>
		<g id="shape4-1" v:mID="4" v:groupContext="shape" transform="translate(32.8485,-5.4728)">
			<title>Sheet.4</title>
			<g id="shadow4-2" v:groupContext="shadow" v:shadowOffsetX="0.345598" v:shadowOffsetY="-1.97279" v:shadowType="1"
					transform="matrix(1,0,0,1,0.345598,1.97279)" class="st1">
				<path d="M0 1047.77 L1129.61 1047.77 L1129.61 350.45 L0 350.45 L0 1047.77 Z" class="st2"/>
			</g>
			<path d="M0 1047.77 L1129.61 1047.77 L1129.61 350.45 L0 350.45 L0 1047.77 Z" class="st3"/>
		</g>
		<g id="shape56-6" v:mID="56" v:groupContext="shape" transform="translate(832.316,-841.819)">
			<title>Sheet.56</title>
			<desc>Open External API</desc>
			<v:textBlock v:margins="rect(4,4,4,4)" v:tabSpace="42.5197"/>
			<v:textRect cx="51.5197" cy="1037.77" width="103.04" height="20"/>
			<rect x="0" y="1027.77" width="103.039" height="20" class="st4"/>
			<text x="23.97" y="1034.17" class="st5" v:langID="1044"><v:paragraph v:indentLeft="14.17" v:horizAlign="1"/><v:tabList/>Open External <tspan
						x="50.52" dy="1.2em" class="st6">API</tspan></text>		</g>
		<g id="shape133-10" v:mID="133" v:groupContext="shape" transform="translate(0.25,-646.103)">
			<title>Sheet.133</title>
			<desc>Kubernetes</desc>
			<v:textBlock v:margins="rect(4,4,4,4)" v:tabSpace="42.5197"/>
			<v:textRect cx="96.6614" cy="1026.51" width="193.33" height="42.5197"/>
			<rect x="0" y="1005.25" width="193.323" height="42.5197" class="st4"/>
			<text x="68.68" y="1030.11" class="st7" v:langID="1044"><v:paragraph v:horizAlign="1"/><v:tabList/>Kubernetes</text>		</g>
		<g id="shape147-13" v:mID="147" v:groupContext="shape" transform="translate(7.33662,-980.591)">
			<title>Sheet.147</title>
			<desc>Altinn Studio application construction architecture</desc>
			<v:textBlock v:margins="rect(4,4,4,4)" v:tabSpace="42.5197"/>
			<v:textRect cx="648.425" cy="1016.59" width="1296.86" height="62.3622"/>
			<rect x="0" y="985.41" width="1296.85" height="62.3622" class="st4"/>
			<text x="32.81" y="1034.59" class="st8" v:langID="1044"><v:paragraph v:horizAlign="1"/><v:tabList/>Altinn Studio application construction architecture</text>		</g>
		<g id="shape196-16" v:mID="196" v:groupContext="shape" transform="translate(424.597,-149.189)">
			<title>Sheet.196</title>
			<g id="shadow196-17" v:groupContext="shadow" v:shadowOffsetX="0.345598" v:shadowOffsetY="-1.97279" v:shadowType="1"
					transform="matrix(1,0,0,1,0.345598,1.97279)" class="st1">
				<path d="M0 1047.77 L665.57 1047.77 L665.57 537.54 L0 537.54 L0 1047.77 Z" class="st9"/>
			</g>
			<path d="M0 1047.77 L665.57 1047.77 L665.57 537.54 L0 537.54 L0 1047.77 Z" class="st10"/>
		</g>
		<a xlink:href="/products/tjenester/3.0/solutions/runtime/">
			<g id="shape198-21" v:mID="198" v:groupContext="shape" transform="translate(430.549,-162.491)">
				<title>Rectangle.198</title>
				<v:userDefs>
					<v:ud v:nameU="visVersion" v:val="VT0(15):26"/>
				</v:userDefs>
				<g id="shadow198-22" v:groupContext="shadow" v:shadowOffsetX="0.345598" v:shadowOffsetY="-1.97279" v:shadowType="1"
						transform="matrix(1,0,0,1,0.345598,1.97279)" class="st1">
					<rect x="0" y="565.578" width="644.598" height="482.194" class="st11"/>
				</g>
				<rect x="0" y="565.578" width="644.598" height="482.194" class="st12"/>
			</g>
		</a>
		<a xlink:href="/Content/RedirectToContent/?ContentType=Resource&#38;Title=Archive">
			<g id="shape199-26" v:mID="199" v:groupContext="shape" transform="translate(441.037,-178.082)">
				<title>Sheet.199</title>
				<g id="shadow199-27" v:groupContext="shadow" v:shadowOffsetX="0.345598" v:shadowOffsetY="-1.97279" v:shadowType="1"
						transform="matrix(1,0,0,1,0.345598,1.97279)" class="st1">
					<rect x="0" y="909.725" width="612.283" height="138.047" class="st11"/>
				</g>
				<rect x="0" y="909.725" width="612.283" height="138.047" class="st13"/>
			</g>
		</a>
		<g id="shape200-31" v:mID="200" v:groupContext="shape" transform="translate(450.959,-248.948)">
			<title>Sheet.200</title>
			<desc>Business Logic</desc>
			<v:textBlock v:margins="rect(4,4,4,4)" v:tabSpace="42.5197"/>
			<v:textRect cx="297.638" cy="1035.02" width="595.28" height="25.5118"/>
			<g id="shadow200-32" v:groupContext="shadow" v:shadowOffsetX="0.345598" v:shadowOffsetY="-1.97279" v:shadowType="1"
					transform="matrix(1,0,0,1,0.345598,1.97279)" class="st1">
				<rect x="0" y="1022.26" width="595.276" height="25.5118" class="st11"/>
			</g>
			<rect x="0" y="1022.26" width="595.276" height="25.5118" class="st12"/>
			<text x="262.89" y="1038.62" class="st14" v:langID="1044"><v:paragraph v:horizAlign="1"/><v:tabList/>Business Logic</text>		</g>
		<g id="shape201-37" v:mID="201" v:groupContext="shape" transform="translate(450.959,-192.255)">
			<title>Sheet.201</title>
			<desc>Data Access</desc>
			<v:textBlock v:margins="rect(4,4,4,4)" v:tabSpace="42.5197"/>
			<v:textRect cx="297.638" cy="1035.02" width="595.28" height="25.5118"/>
			<g id="shadow201-38" v:groupContext="shadow" v:shadowOffsetX="0.345598" v:shadowOffsetY="-1.97279" v:shadowType="1"
					transform="matrix(1,0,0,1,0.345598,1.97279)" class="st1">
				<rect x="0" y="1022.26" width="595.276" height="25.5118" class="st11"/>
			</g>
			<rect x="0" y="1022.26" width="595.276" height="25.5118" class="st12"/>
			<text x="268.61" y="1038.62" class="st14" v:langID="1044"><v:paragraph v:horizAlign="1"/><v:tabList/>Data Access</text>		</g>
		<g id="shape202-43" v:mID="202" v:groupContext="shape" transform="translate(450.959,-220.601)">
			<title>Sheet.202</title>
			<desc>Data Logic</desc>
			<v:textBlock v:margins="rect(4,4,4,4)" v:tabSpace="42.5197"/>
			<v:textRect cx="297.638" cy="1035.02" width="595.28" height="25.5118"/>
			<g id="shadow202-44" v:groupContext="shadow" v:shadowOffsetX="0.345598" v:shadowOffsetY="-1.97279" v:shadowType="1"
					transform="matrix(1,0,0,1,0.345598,1.97279)" class="st1">
				<rect x="0" y="1022.26" width="595.276" height="25.5118" class="st11"/>
			</g>
			<rect x="0" y="1022.26" width="595.276" height="25.5118" class="st12"/>
			<text x="272.41" y="1038.62" class="st14" v:langID="1044"><v:paragraph v:horizAlign="1"/><v:tabList/>Data Logic</text>		</g>
		<g id="shape203-49" v:mID="203" v:groupContext="shape" transform="translate(443.872,-328.885)">
			<title>Sheet.203</title>
			<g id="shadow203-50" v:groupContext="shadow" v:shadowOffsetX="0.345598" v:shadowOffsetY="-1.97279" v:shadowType="1"
					transform="matrix(1,0,0,1,0.345598,1.97279)" class="st1">
				<rect x="0" y="759.205" width="612.283" height="288.567" class="st15"/>
			</g>
			<rect x="0" y="759.205" width="612.283" height="288.567" class="st17"/>
		</g>
		<g id="shape204-62" v:mID="204" v:groupContext="shape" transform="translate(897.415,-448.79)">
			<title>Sheet.204</title>
			<desc>View</desc>
			<v:textBlock v:margins="rect(4,4,4,4)" v:tabSpace="42.5197"/>
			<v:textRect cx="42.5197" cy="1035.02" width="85.04" height="25.5118"/>
			<g id="shadow204-63" v:groupContext="shadow" v:shadowOffsetX="0.345598" v:shadowOffsetY="-1.97279" v:shadowType="1"
					transform="matrix(1,0,0,1,0.345598,1.97279)" class="st1">
				<rect x="0" y="1022.26" width="85.0394" height="25.5118" class="st11"/>
			</g>
			<rect x="0" y="1022.26" width="85.0394" height="25.5118" class="st12"/>
			<text x="30.46" y="1038.62" class="st14" v:langID="1044"><v:paragraph v:horizAlign="1"/><v:tabList/>View</text>		</g>
		<g id="shape205-68" v:mID="205" v:groupContext="shape" transform="translate(446.61,-385.011)">
			<title>Sheet.205</title>
			<desc>Controller</desc>
			<v:textBlock v:margins="rect(4,4,4,4)" v:tabSpace="42.5197"/>
			<v:textRect cx="275.009" cy="1035.02" width="550.02" height="25.5118"/>
			<g id="shadow205-69" v:groupContext="shadow" v:shadowOffsetX="0.345598" v:shadowOffsetY="-1.97279" v:shadowType="1"
					transform="matrix(1,0,0,1,0.345598,1.97279)" class="st1">
				<rect x="0" y="1022.26" width="550.018" height="25.5118" class="st11"/>
			</g>
			<rect x="0" y="1022.26" width="550.018" height="25.5118" class="st12"/>
			<text x="250.4" y="1038.62" class="st14" v:langID="1044"><v:paragraph v:horizAlign="1"/><v:tabList/>Controller</text>		</g>
		<g id="shape207-74" v:mID="207" v:groupContext="shape" transform="translate(446.707,-566.428)">
			<title>Sheet.207</title>
			<desc>Authentication</desc>
			<v:textBlock v:margins="rect(4,4,4,4)" v:tabSpace="42.5197"/>
			<v:textRect cx="297.638" cy="1035.02" width="595.28" height="25.5118"/>
			<g id="shadow207-75" v:groupContext="shadow" v:shadowOffsetX="0.345598" v:shadowOffsetY="-1.97279" v:shadowType="1"
					transform="matrix(1,0,0,1,0.345598,1.97279)" class="st1">
				<rect x="0" y="1022.26" width="595.276" height="25.5118" class="st11"/>
			</g>
			<rect x="0" y="1022.26" width="595.276" height="25.5118" class="st12"/>
			<text x="261.21" y="1038.62" class="st14" v:langID="1044"><v:paragraph v:horizAlign="1"/><v:tabList/>Authentication</text>		</g>
		<g id="shape208-80" v:mID="208" v:groupContext="shape" transform="translate(446.707,-532.412)">
			<title>Sheet.208</title>
			<desc>Authorization</desc>
			<v:textBlock v:margins="rect(4,4,4,4)" v:tabSpace="42.5197"/>
			<v:textRect cx="297.638" cy="1035.02" width="595.28" height="25.5118"/>
			<g id="shadow208-81" v:groupContext="shadow" v:shadowOffsetX="0.345598" v:shadowOffsetY="-1.97279" v:shadowType="1"
					transform="matrix(1,0,0,1,0.345598,1.97279)" class="st1">
				<rect x="0" y="1022.26" width="595.276" height="25.5118" class="st11"/>
			</g>
			<rect x="0" y="1022.26" width="595.276" height="25.5118" class="st12"/>
			<text x="264.27" y="1038.62" class="st14" v:langID="1044"><v:paragraph v:horizAlign="1"/><v:tabList/>Authorization</text>		</g>
		<g id="shape213-86" v:mID="213" v:groupContext="shape" transform="translate(599.778,-447.373)">
			<title>Sheet.213</title>
			<desc>Api Model</desc>
			<v:textBlock v:margins="rect(4,4,4,4)" v:tabSpace="42.5197"/>
			<v:textRect cx="56.6929" cy="1035.02" width="113.39" height="25.5118"/>
			<g id="shadow213-87" v:groupContext="shadow" v:shadowOffsetX="0.345598" v:shadowOffsetY="-1.97279" v:shadowType="1"
					transform="matrix(1,0,0,1,0.345598,1.97279)" class="st1">
				<rect x="0" y="1022.26" width="113.386" height="25.5118" class="st11"/>
			</g>
			<rect x="0" y="1022.26" width="113.386" height="25.5118" class="st12"/>
			<text x="31.53" y="1038.62" class="st14" v:langID="1044"><v:paragraph v:horizAlign="1"/><v:tabList/>Api Model</text>		</g>
		<g id="shape215-92" v:mID="215" v:groupContext="shape" transform="translate(450.824,-447.373)">
			<title>Sheet.215</title>
			<desc>API</desc>
			<v:textBlock v:margins="rect(4,4,4,4)" v:tabSpace="42.5197"/>
			<v:textRect cx="56.6929" cy="1035.02" width="113.39" height="25.5118"/>
			<g id="shadow215-93" v:groupContext="shadow" v:shadowOffsetX="0.345598" v:shadowOffsetY="-1.97279" v:shadowType="1"
					transform="matrix(1,0,0,1,0.345598,1.97279)" class="st1">
				<rect x="0" y="1022.26" width="113.386" height="25.5118" class="st11"/>
			</g>
			<rect x="0" y="1022.26" width="113.386" height="25.5118" class="st12"/>
			<text x="48.61" y="1038.62" class="st14" v:langID="1044"><v:paragraph v:horizAlign="1"/><v:tabList/>API</text>		</g>
		<g id="shape216-98" v:mID="216" v:groupContext="shape" transform="translate(769.856,-448.79)">
			<title>Sheet.216</title>
			<desc>Model</desc>
			<v:textBlock v:margins="rect(4,4,4,4)" v:tabSpace="42.5197"/>
			<v:textRect cx="42.5197" cy="1035.02" width="85.04" height="25.5118"/>
			<g id="shadow216-99" v:groupContext="shadow" v:shadowOffsetX="0.345598" v:shadowOffsetY="-1.97279" v:shadowType="1"
					transform="matrix(1,0,0,1,0.345598,1.97279)" class="st1">
				<rect x="0" y="1022.26" width="85.0394" height="25.5118" class="st11"/>
			</g>
			<rect x="0" y="1022.26" width="85.0394" height="25.5118" class="st12"/>
			<text x="26.71" y="1038.62" class="st14" v:langID="1044"><v:paragraph v:horizAlign="1"/><v:tabList/>Model</text>		</g>
		<g id="shape219-104" v:mID="219" v:groupContext="shape" v:layerMember="0" transform="translate(649.384,-447.373)">
			<title>Dynamic connector.219</title>
			<v:userDefs>
				<v:ud v:nameU="visVersion" v:val="VT0(15):26"/>
			</v:userDefs>
			<path d="M7.09 1057.97 L7.09 1058.33 L7.09 1074.06" class="st19"/>
		</g>
		<g id="shape220-113" v:mID="220" v:groupContext="shape" v:layerMember="0" transform="translate(500.431,-447.373)">
			<title>Dynamic connector.220</title>
			<v:userDefs>
				<v:ud v:nameU="visVersion" v:val="VT0(15):26"/>
			</v:userDefs>
			<path d="M7.09 1057.97 L7.09 1058.33 L7.09 1074.06" class="st19"/>
		</g>
		<g id="shape221-120" v:mID="221" v:groupContext="shape" v:layerMember="0" transform="translate(564.21,-453.042)">
			<title>Dynamic connector.221</title>
			<v:userDefs>
				<v:ud v:nameU="visVersion" v:val="VT0(15):26"/>
			</v:userDefs>
			<path d="M0 1040.69 L35.57 1040.69" class="st21"/>
		</g>
		<g id="shape222-129" v:mID="222" v:groupContext="shape" v:layerMember="0" transform="translate(805.289,-448.79)">
			<title>Dynamic connector.222</title>
			<v:userDefs>
				<v:ud v:nameU="visVersion" v:val="VT0(15):26"/>
			</v:userDefs>
			<path d="M7.09 1057.97 L7.09 1058.33 L7.09 1075.48" class="st19"/>
		</g>
		<g id="shape223-136" v:mID="223" v:groupContext="shape" v:layerMember="0" transform="translate(932.848,-410.523)">
			<title>Dynamic connector.223</title>
			<v:userDefs>
				<v:ud v:nameU="visVersion" v:val="VT0(15):26"/>
			</v:userDefs>
			<path d="M7.09 1037.57 L7.09 1037.21 L7.09 1020.06" class="st19"/>
		</g>
		<g id="shape224-143" v:mID="224" v:groupContext="shape" v:layerMember="0" transform="translate(897.415,-454.46)">
			<title>Dynamic connector.224</title>
			<v:userDefs>
				<v:ud v:nameU="visVersion" v:val="VT0(15):26"/>
			</v:userDefs>
			<path d="M-10.2 1040.69 L-10.56 1040.69 L-31.96 1040.69" class="st19"/>
		</g>
		<g id="shape226-150" v:mID="226" v:groupContext="shape" transform="translate(-631.142,888.005) rotate(-90)">
			<title>Sheet.226</title>
			<desc>REST</desc>
			<v:textBlock v:margins="rect(4,4,4,4)" v:tabSpace="42.5197"/>
			<v:textRect cx="28.9999" cy="1035.02" width="58" height="25.5118"/>
			<g id="shadow226-151" v:groupContext="shadow" v:shadowOffsetX="0.345598" v:shadowOffsetY="-1.97279" v:shadowType="1"
					transform="matrix(1,0,0,1,-1.97279,0.345598)" class="st1">
				<rect x="0" y="1022.26" width="57.9997" height="25.5118" class="st11"/>
			</g>
			<rect x="0" y="1022.26" width="57.9997" height="25.5118" class="st22"/>
			<text x="24.22" y="1038.62" class="st14" v:langID="1044"><v:paragraph v:indentLeft="14.17" v:horizAlign="1"/><v:tabList/>REST</text>		</g>
		<g id="shape235-156" v:mID="235" v:groupContext="shape" transform="translate(820.88,-55.1842)">
			<title>Sheet.235</title>
			<desc>SBL Integration</desc>
			<v:textBlock v:margins="rect(4,4,4,4)" v:tabSpace="42.5197"/>
			<v:textRect cx="76" cy="1037.77" width="152.01" height="20"/>
			<rect x="0" y="1027.77" width="152" height="20" class="st4"/>
			<text x="46.03" y="1041.37" class="st5" v:langID="1044"><v:paragraph v:indentLeft="14.17" v:horizAlign="1"/><v:tabList/>SBL Integration</text>		</g>
		<g id="shape237-159" v:mID="237" v:groupContext="shape" transform="translate(432.437,-624.685)">
			<title>Sheet.237</title>
			<desc>Altinn Studio Designer</desc>
			<v:textBlock v:margins="rect(4,4,4,4)" v:tabSpace="42.5197"/>
			<v:textRect cx="66.6627" cy="1037.77" width="133.33" height="20"/>
			<rect x="0" y="1027.77" width="133.325" height="20" class="st4"/>
			<text x="12.34" y="1041.37" class="st5" v:langID="1044"><v:paragraph v:horizAlign="1"/><v:tabList/>Altinn Studio Designer</text>		</g>
		<g id="shape244-162" v:mID="244" v:groupContext="shape" transform="translate(721.667,-69.1567)">
			<title>Hard drive.23</title>
			<v:userDefs>
				<v:ud v:nameU="msvShapeCategories" v:prompt="" v:val="VT4(Icon)"/>
				<v:ud v:nameU="visVersion" v:prompt="" v:val="VT0(15):26"/>
			</v:userDefs>
			<path d="M30.65 1039.99 L30.65 1041.54 L6.13 1041.54 L6.13 1039.99 L30.65 1039.99 ZM30.65 1035.32 L30.65 1036.87 L6.13
						 1036.87 L6.13 1035.32 L30.65 1035.32 ZM42.91 1036.87 L42.91 1041.54 L38.31 1041.54 L38.31 1036.87 L42.91
						 1036.87 ZM45.97 1044.66 L45.97 1032.2 L3.06 1032.2 L3.06 1044.66 L45.97 1044.66 ZM12.23 1018.19 C11 1019.78
						 5.99 1026.33 3.88 1029.09 L45.15 1029.09 C43.04 1026.33 38.03 1019.78 36.81 1018.19 L12.23 1018.19 ZM48.1
						 1027.86 C48.62 1028.54 49.04 1029.79 49.04 1030.64 L49.04 1046.21 C49.04 1047.07 48.35 1047.77 47.51 1047.77
						 L1.53 1047.77 C0.69 1047.77 -0 1047.07 0 1046.21 L0 1030.64 C-0 1029.79 0.42 1028.54 0.94 1027.86 L9.79
						 1016.3 C10.3 1015.63 11.42 1015.07 12.26 1015.07 L36.78 1015.07 C37.62 1015.07 38.73 1015.63 39.25 1016.3
						 L48.1 1027.86 Z" class="st23"/>
		</g>
		<a xlink:href="/products/tjenester/3.0/solutions/runtime/">
			<g id="shape246-164" v:mID="246" v:groupContext="shape" transform="translate(131.494,-163.909)">
				<title>Rectangle.246</title>
				<v:userDefs>
					<v:ud v:nameU="visVersion" v:val="VT0(15):26"/>
				</v:userDefs>
				<g id="shadow246-165" v:groupContext="shadow" v:shadowOffsetX="0.345598" v:shadowOffsetY="-1.97279"
						v:shadowType="1" transform="matrix(1,0,0,1,0.345598,1.97279)" class="st1">
					<rect x="0" y="565.578" width="247.748" height="482.194" class="st11"/>
				</g>
				<rect x="0" y="565.578" width="247.748" height="482.194" class="st12"/>
			</g>
		</a>
		<g id="shape247-169" v:mID="247" v:groupContext="shape" transform="translate(150.919,-178.386)">
			<title>Sheet.247</title>
			<g id="shadow247-170" v:groupContext="shadow" v:shadowOffsetX="0.345598" v:shadowOffsetY="-1.97279" v:shadowType="1"
					transform="matrix(1,0,0,1,0.345598,1.97279)" class="st1">
				<rect x="0" y="603.299" width="211.181" height="444.472" class="st15"/>
			</g>
			<rect x="0" y="603.299" width="211.181" height="444.472" class="st17"/>
		</g>
		<g id="shape248-178" v:mID="248" v:groupContext="shape" transform="translate(141.982,-595.646)">
			<title>Sheet.248</title>
			<desc>GITEA</desc>
			<v:textBlock v:margins="rect(4,4,4,4)" v:tabSpace="42.5197"/>
			<v:textRect cx="42.5197" cy="1039.83" width="85.04" height="15.874"/>
			<rect x="0" y="1031.9" width="85.0394" height="15.874" class="st4"/>
			<text x="27.9" y="1043.44" class="st24" v:langID="1044"><v:paragraph v:horizAlign="1"/><v:tabList/>GITEA</text>		</g>
		<g id="shape249-181" v:mID="249" v:groupContext="shape" transform="translate(255.368,-107.52)">
			<title>Hard drive.249</title>
			<v:userDefs>
				<v:ud v:nameU="msvShapeCategories" v:prompt="" v:val="VT4(Icon)"/>
				<v:ud v:nameU="visVersion" v:prompt="" v:val="VT0(15):26"/>
			</v:userDefs>
			<path d="M21.26 1042.37 L21.26 1043.45 L4.25 1043.45 L4.25 1042.37 L21.26 1042.37 ZM21.26 1039.13 L21.26 1040.21 L4.25
						 1040.21 L4.25 1039.13 L21.26 1039.13 ZM29.76 1040.21 L29.76 1043.45 L26.57 1043.45 L26.57 1040.21 L29.76
						 1040.21 ZM31.89 1045.61 L31.89 1036.97 L2.13 1036.97 L2.13 1045.61 L31.89 1045.61 ZM8.48 1027.25 C7.63 1028.36
						 4.16 1032.9 2.69 1034.81 L31.32 1034.81 C29.86 1032.9 26.38 1028.36 25.53 1027.25 L8.48 1027.25 ZM33.36
						 1033.96 C33.72 1034.43 34.02 1035.3 34.02 1035.89 L34.02 1046.69 C34.02 1047.29 33.54 1047.77 32.95 1047.77
						 L1.06 1047.77 C0.48 1047.77 -0 1047.29 0 1046.69 L0 1035.89 C-0 1035.3 0.29 1034.43 0.65 1033.96 L6.79 1025.94
						 C7.15 1025.48 7.92 1025.09 8.5 1025.09 L25.51 1025.09 C26.1 1025.09 26.87 1025.48 27.23 1025.94 L33.36 1033.96
						 Z" class="st23"/>
		</g>
		<g id="shape250-183" v:mID="250" v:groupContext="shape" v:layerMember="1" transform="translate(177.415,-97.6003)">
			<title>Database.250</title>
			<desc>Gitea DB</desc>
			<v:custProps>
				<v:cp v:nameU="Cost" v:lbl="Cost" v:type="7" v:format="@" v:langID="1033"/>
				<v:cp v:nameU="Duration" v:lbl="Duration" v:type="2" v:langID="1033"/>
				<v:cp v:nameU="Resources" v:lbl="Resources" v:langID="1033"/>
			</v:custProps>
			<v:userDefs>
				<v:ud v:nameU="visVersion" v:val="VT0(15):26"/>
			</v:userDefs>
			<v:textBlock v:margins="rect(2,2,2,2)" v:tabSpace="42.5197"/>
			<v:textRect cx="21.2598" cy="1032.89" width="42.52" height="29.7638"/>
			<g id="shadow250-184" v:groupContext="shadow" v:shadowOffsetX="0.345598" v:shadowOffsetY="-1.97279" v:shadowType="1"
					transform="matrix(1,0,0,1,0.345598,1.97279)" class="st1">
				<path d="M0 1009.5 L0 1043.52 A21.2598 4.25197 -180 1 0 42.52 1043.52 L42.52 1009.5 A21.2598 4.25197 -180 0 0 0 1009.5
							 Z" class="st25"/>
				<path d="M0 1009.5 L0 1043.52 A21.2598 4.25197 -180 1 0 42.52 1043.52 L42.52 1009.5 A21.2598 4.25197 -180 0 0 0 1009.5"
						class="st26"/>
				<path d="M0 1009.5 A21.2598 4.25197 -180 0 0 42.52 1009.5" class="st26"/>
				<path d="M0 1011.63 A21.2598 4.25197 -180 1 0 42.52 1011.63" class="st26"/>
				<path d="M0 1013.76 A21.2598 4.25197 -180 0 0 42.52 1013.76" class="st26"/>
			</g>
			<path d="M0 1009.5 L0 1043.52 A21.2598 4.25197 -180 1 0 42.52 1043.52 L42.52 1009.5 A21.2598 4.25197 -180 0 0 0 1009.5
						 Z" class="st27"/>
			<path d="M0 1009.5 L0 1043.52 A21.2598 4.25197 -180 1 0 42.52 1043.52 L42.52 1009.5 A21.2598 4.25197 -180 0 0 0 1009.5"
					class="st28"/>
			<path d="M0 1009.5 A21.2598 4.25197 -180 0 0 42.52 1009.5" class="st28"/>
			<path d="M0 1011.63 A21.2598 4.25197 -180 1 0 42.52 1011.63" class="st28"/>
			<path d="M0 1013.76 A21.2598 4.25197 -180 0 0 42.52 1013.76" class="st28"/>
			<text x="7.03" y="1035.29" class="st29" v:langID="1044"><v:paragraph v:horizAlign="1"/><v:tabList/>Gitea DB</text>		</g>
		<g id="shape251-198" v:mID="251" v:groupContext="shape" transform="translate(-629.65,826.866) rotate(-90)">
			<title>Sheet.251</title>
			<desc>GIT</desc>
			<v:textBlock v:margins="rect(4,4,4,4)" v:tabSpace="42.5197"/>
			<v:textRect cx="46.7717" cy="1035.02" width="93.55" height="25.5118"/>
			<g id="shadow251-199" v:groupContext="shadow" v:shadowOffsetX="0.345598" v:shadowOffsetY="-1.97279" v:shadowType="1"
					transform="matrix(1,0,0,1,-1.97279,0.345598)" class="st1">
				<rect x="0" y="1022.26" width="93.5433" height="25.5118" class="st11"/>
			</g>
			<rect x="0" y="1022.26" width="93.5433" height="25.5118" class="st22"/>
			<text x="45.64" y="1038.62" class="st14" v:langID="1044"><v:paragraph v:indentLeft="14.17" v:horizAlign="1"/><v:tabList/>GIT</text>		</g>
		<g id="shape254-204" v:mID="254" v:groupContext="shape" transform="translate(430.079,-828.229)">
			<title>Sheet.254</title>
			<desc>Designer Front End</desc>
			<v:textBlock v:margins="rect(4,4,4,4)" v:tabSpace="42.5197"/>
			<v:textRect cx="56.6929" cy="1043.52" width="113.39" height="8.50394"/>
			<rect x="0" y="1039.27" width="113.386" height="8.50394" class="st4"/>
			<text x="10.12" y="1047.12" class="st5" v:langID="1044"><v:paragraph v:horizAlign="1"/><v:tabList/>Designer Front End</text>		</g>
		<a xlink:href="/products/tjenester/3.0/solutions/runtime/architecture/react-app/">
			<g id="shape256-207" v:mID="256" v:groupContext="shape" transform="translate(425.447,-710.591)">
				<title>Sheet.256</title>
				<g id="shadow256-208" v:groupContext="shadow" v:shadowOffsetX="0.345598" v:shadowOffsetY="-1.97279"
						v:shadowType="1" transform="matrix(1,0,0,1,0.345598,1.97279)" class="st1">
					<rect x="0" y="909.725" width="550.018" height="138.047" class="st11"/>
				</g>
				<rect x="0" y="909.725" width="550.018" height="138.047" class="st30"/>
			</g>
		</a>
		<g id="shape257-212" v:mID="257" v:groupContext="shape" transform="translate(706.174,-896.26)">
			<title>Sheet.257</title>
			<desc>DOM</desc>
			<v:textBlock v:margins="rect(4,4,4,4)" v:tabSpace="42.5197"/>
			<v:textRect cx="42.5197" cy="1035.02" width="85.04" height="25.5118"/>
			<g id="shadow257-213" v:groupContext="shadow" v:shadowOffsetX="0.345598" v:shadowOffsetY="-1.97279" v:shadowType="1"
					transform="matrix(1,0,0,1,0.345598,1.97279)" class="st1">
				<rect x="0" y="1022.26" width="85.0394" height="25.5118" class="st11"/>
			</g>
			<rect x="0" y="1022.26" width="85.0394" height="25.5118" class="st12"/>
			<text x="29.73" y="1038.62" class="st14" v:langID="1044"><v:paragraph v:horizAlign="1"/><v:tabList/>DOM</text>		</g>
		<g id="shape258-218" v:mID="258" v:groupContext="shape" transform="translate(706.174,-810.512)">
			<title>Sheet.258</title>
			<desc>REACT Component</desc>
			<v:textBlock v:margins="rect(4,4,4,4)" v:tabSpace="42.5197"/>
			<v:textRect cx="42.5197" cy="1035.02" width="85.04" height="25.5118"/>
			<g id="shadow258-219" v:groupContext="shadow" v:shadowOffsetX="0.345598" v:shadowOffsetY="-1.97279" v:shadowType="1"
					transform="matrix(1,0,0,1,0.345598,1.97279)" class="st1">
				<rect x="0" y="1022.26" width="85.0394" height="25.5118" class="st11"/>
			</g>
			<rect x="0" y="1022.26" width="85.0394" height="25.5118" class="st12"/>
			<text x="26.74" y="1031.42" class="st14" v:langID="1044"><v:paragraph v:horizAlign="1"/><v:tabList/>REACT <tspan
						x="13.75" dy="1.2em" class="st6">Component</tspan></text>		</g>
		<g id="shape259-225" v:mID="259" v:groupContext="shape" transform="translate(592.788,-740.355)">
			<title>Sheet.259</title>
			<desc>Action Creators</desc>
			<v:textBlock v:margins="rect(4,4,4,4)" v:tabSpace="42.5197"/>
			<v:textRect cx="42.5197" cy="1035.02" width="85.04" height="25.5118"/>
			<g id="shadow259-226" v:groupContext="shadow" v:shadowOffsetX="0.345598" v:shadowOffsetY="-1.97279" v:shadowType="1"
					transform="matrix(1,0,0,1,0.345598,1.97279)" class="st1">
				<rect x="0" y="1022.26" width="85.0394" height="25.5118" class="st11"/>
			</g>
			<rect x="0" y="1022.26" width="85.0394" height="25.5118" class="st12"/>
			<text x="4.69" y="1038.62" class="st14" v:langID="1044"><v:paragraph v:horizAlign="1"/><v:tabList/>Action Creators</text>		</g>
		<g id="shape260-231" v:mID="260" v:groupContext="shape" transform="translate(876.253,-735.409)">
			<title>Sheet.260</title>
			<desc>Store</desc>
			<v:textBlock v:margins="rect(4,4,4,4)" v:tabSpace="42.5197"/>
			<v:textRect cx="42.5197" cy="1035.02" width="85.04" height="25.5118"/>
			<g id="shadow260-232" v:groupContext="shadow" v:shadowOffsetX="0.345598" v:shadowOffsetY="-1.97279" v:shadowType="1"
					transform="matrix(1,0,0,1,0.345598,1.97279)" class="st1">
				<rect x="0" y="1022.26" width="85.0394" height="25.5118" class="st11"/>
			</g>
			<rect x="0" y="1022.26" width="85.0394" height="25.5118" class="st12"/>
			<text x="29.51" y="1038.62" class="st14" v:langID="1044"><v:paragraph v:horizAlign="1"/><v:tabList/>Store</text>		</g>
		<g id="shape261-237" v:mID="261" v:groupContext="shape" transform="translate(748.693,-740.355)">
			<title>Sheet.261</title>
			<desc>Reducers</desc>
			<v:textBlock v:margins="rect(4,4,4,4)" v:tabSpace="42.5197"/>
			<v:textRect cx="42.5197" cy="1035.02" width="85.04" height="25.5118"/>
			<g id="shadow261-238" v:groupContext="shadow" v:shadowOffsetX="0.345598" v:shadowOffsetY="-1.97279" v:shadowType="1"
					transform="matrix(1,0,0,1,0.345598,1.97279)" class="st1">
				<rect x="0" y="1022.26" width="85.0394" height="25.5118" class="st11"/>
			</g>
			<rect x="0" y="1022.26" width="85.0394" height="25.5118" class="st12"/>
			<text x="20.01" y="1038.62" class="st14" v:langID="1044"><v:paragraph v:horizAlign="1"/><v:tabList/>Reducers</text>		</g>
		<g id="shape262-243" v:mID="262" v:groupContext="shape" v:layerMember="0" transform="translate(706.174,-823.268)">
			<title>Dynamic connector.262</title>
			<desc>Dispatch action</desc>
			<v:userDefs>
				<v:ud v:nameU="visVersion" v:val="VT0(15):26"/>
			</v:userDefs>
			<v:textBlock v:margins="rect(4,4,4,4)" v:tabSpace="42.5197"/>
			<v:textRect cx="-64.1339" cy="1047.77" width="59.96" height="17.6036"/>
			<path d="M0 1047.77 L-70.87 1047.77 L-70.87 1098.13" class="st31"/>
			<rect v:rectContext="textBkgnd" x="-89.2076" y="1042.97" width="50.1476" height="9.59985" class="st32"/>
			<text x="-89.21" y="1050.17" class="st33" v:langID="1044"><v:paragraph v:horizAlign="1"/><v:tabList/>Dispatch action</text>		</g>
		<g id="shape263-251" v:mID="263" v:groupContext="shape" transform="translate(436.882,-731.866)">
			<title>Sheet.263</title>
			<desc>Saga Middleware</desc>
			<v:textBlock v:margins="rect(4,4,4,4)" v:tabSpace="42.5197"/>
			<v:textRect cx="42.5197" cy="1032.89" width="85.04" height="29.7638"/>
			<g id="shadow263-252" v:groupContext="shadow" v:shadowOffsetX="0.345598" v:shadowOffsetY="-1.97279" v:shadowType="1"
					transform="matrix(1,0,0,1,0.345598,1.97279)" class="st1">
				<rect x="0" y="1018.01" width="85.0394" height="29.7638" class="st11"/>
			</g>
			<rect x="0" y="1018.01" width="85.0394" height="29.7638" class="st12"/>
			<text x="31.19" y="1029.29" class="st14" v:langID="1044"><v:paragraph v:horizAlign="1"/><v:tabList/>Saga <tspan
						x="13.11" dy="1.2em" class="st6">Middleware</tspan></text>		</g>
		<g id="shape264-258" v:mID="264" v:groupContext="shape" v:layerMember="0" transform="translate(613.837,-841.552)">
			<title>Dynamic connector.264</title>
			<v:userDefs>
				<v:ud v:nameU="visVersion" v:val="VT0(15):26"/>
			</v:userDefs>
			<path d="M0 1040.69 L0 1033.6 L130.72 1033.6 A2.3622 2.3622 0 0 1 135.44 1033.6 L177.36 1033.6 L177.36 1033.65"
					class="st31"/>
		</g>
		<g id="shape265-263" v:mID="265" v:groupContext="shape" v:layerMember="0" transform="translate(677.827,-746.024)">
			<title>Dynamic connector.265</title>
			<desc>Receive Action</desc>
			<v:userDefs>
				<v:ud v:nameU="visVersion" v:val="VT0(15):26"/>
			</v:userDefs>
			<v:textBlock v:margins="rect(4,4,4,4)" v:tabSpace="42.5197"/>
			<v:textRect cx="35.4331" cy="1040.69" width="57.69" height="17.6036"/>
			<path d="M0 1040.69 L63.83 1040.69" class="st31"/>
			<rect v:rectContext="textBkgnd" x="11.4962" y="1035.89" width="47.874" height="9.59985" class="st34"/>
			<text x="11.5" y="1043.09" class="st33" v:langID="1044"><v:paragraph v:horizAlign="1"/><v:tabList/>Receive Action</text>		</g>
		<g id="shape266-270" v:mID="266" v:groupContext="shape" v:layerMember="0" transform="translate(833.733,-743.551)">
			<title>Dynamic connector.266</title>
			<desc>Updates</desc>
			<v:userDefs>
				<v:ud v:nameU="visVersion" v:val="VT0(15):26"/>
			</v:userDefs>
			<v:textBlock v:margins="rect(4,4,4,4)" v:tabSpace="42.5197"/>
			<v:textRect cx="21.2598" cy="1040.69" width="40" height="17.6036"/>
			<path d="M0 1040.69 L35.48 1040.69" class="st31"/>
			<rect v:rectContext="textBkgnd" x="7.67998" y="1035.89" width="27.1599" height="9.59985" class="st32"/>
			<text x="7.68" y="1043.09" class="st33" v:langID="1044"><v:paragraph v:horizAlign="1"/><v:tabList/>Updates</text>		</g>
		<g id="shape267-277" v:mID="267" v:groupContext="shape" v:layerMember="0" transform="translate(918.772,-760.921)">
			<title>Dynamic connector.267</title>
			<desc>Re render</desc>
			<v:userDefs>
				<v:ud v:nameU="visVersion" v:val="VT0(15):26"/>
			</v:userDefs>
			<v:textBlock v:margins="rect(4,4,4,4)" v:tabSpace="42.5197"/>
			<v:textRect cx="-32.6059" cy="985.425" width="41.9" height="17.6036"/>
			<path d="M0 1047.77 L0 985.42 L-120.52 985.42" class="st31"/>
			<rect v:rectContext="textBkgnd" x="-48.6447" y="980.625" width="32.0779" height="9.59985" class="st32"/>
			<text x="-48.64" y="987.82" class="st33" v:langID="1044"><v:paragraph v:horizAlign="1"/><v:tabList/>Re render</text>		</g>
		<g id="shape268-284" v:mID="268" v:groupContext="shape" v:layerMember="0" transform="translate(521.922,-743.905)">
			<title>Dynamic connector.268</title>
			<desc>Dispatch Action</desc>
			<v:userDefs>
				<v:ud v:nameU="visVersion" v:val="VT0(15):26"/>
			</v:userDefs>
			<v:textBlock v:margins="rect(4,4,4,4)" v:tabSpace="42.5197"/>
			<v:textRect cx="35.4331" cy="1040.69" width="60.76" height="17.6036"/>
			<path d="M0 1040.69 L63.83 1040.69" class="st31"/>
			<rect v:rectContext="textBkgnd" x="9.96097" y="1035.89" width="50.9444" height="9.59985" class="st34"/>
			<text x="9.96" y="1043.09" class="st33" v:langID="1044"><v:paragraph v:horizAlign="1"/><v:tabList/>Dispatch Action</text>		</g>
		<g id="shape269-291" v:mID="269" v:groupContext="shape" v:layerMember="0" transform="translate(592.788,-736.815)">
			<title>Dynamic connector.269</title>
			<desc>Receive Action</desc>
			<v:userDefs>
				<v:ud v:nameU="visVersion" v:val="VT0(15):26"/>
			</v:userDefs>
			<v:textBlock v:margins="rect(4,4,4,4)" v:tabSpace="42.5197"/>
			<v:textRect cx="-35.4331" cy="1040.69" width="57.69" height="17.6036"/>
			<path d="M0 1040.69 L-63.83 1040.69" class="st31"/>
			<rect v:rectContext="textBkgnd" x="-59.37" y="1035.89" width="47.874" height="9.59985" class="st32"/>
			<text x="-59.37" y="1043.09" class="st33" v:langID="1044"><v:paragraph v:horizAlign="1"/><v:tabList/>Receive Action</text>		</g>
		<g id="shape270-298" v:mID="270" v:groupContext="shape" transform="translate(408.536,-828.433)">
			<title>Sheet.270</title>
			<desc>Service Designer React App</desc>
			<v:textBlock v:margins="rect(4,4,4,4)" v:tabSpace="42.5197"/>
			<v:textRect cx="79.3216" cy="1037.77" width="158.65" height="20"/>
			<rect x="0" y="1027.77" width="158.643" height="20" class="st4"/>
			<text x="20" y="1041.37" class="st5" v:langID="1044"><v:paragraph v:indentLeft="14.17" v:horizAlign="1"/><v:tabList/>Service Designer React App</text>		</g>
		<g id="group271-301" transform="translate(864.444,-850.41)" v:mID="271" v:groupContext="group">
			<v:custProps>
				<v:cp v:nameU="Name" v:lbl="Name" v:prompt="" v:type="0" v:format="" v:sortKey="" v:invis="false" v:ask="false"
						v:langID="1033" v:cal="0"/>
				<v:cp v:nameU="Location" v:lbl="Location" v:prompt="" v:type="0" v:format="" v:sortKey="" v:invis="false"
						v:ask="false" v:langID="1033" v:cal="0"/>
				<v:cp v:nameU="Building" v:lbl="Building" v:prompt="" v:type="0" v:format="" v:sortKey="" v:invis="false"
						v:ask="false" v:langID="1033" v:cal="0"/>
				<v:cp v:nameU="Room" v:lbl="Room" v:prompt="" v:type="0" v:format="" v:sortKey="" v:invis="false" v:ask="false"
						v:langID="1033" v:cal="0"/>
				<v:cp v:nameU="Department" v:lbl="Department" v:prompt="" v:type="0" v:format="" v:sortKey="" v:invis="false"
						v:ask="false" v:langID="1033" v:cal="0"/>
				<v:cp v:nameU="ShapeClass" v:lbl="ShapeClass" v:prompt="" v:type="0" v:format="" v:sortKey="" v:invis="true"
						v:ask="false" v:langID="1033" v:cal="0" v:val="VT4(Connectivity)"/>
				<v:cp v:nameU="ShapeType" v:lbl="ShapeType" v:prompt="" v:type="0" v:format="" v:sortKey="" v:invis="true"
						v:ask="false" v:langID="1033" v:cal="0" v:val="VT4(User)"/>
			</v:custProps>
			<v:userDefs>
				<v:ud v:nameU="visVersion" v:prompt="" v:val="VT0(15):26"/>
				<v:ud v:nameU="ShapeClass" v:prompt="" v:val="VT0(5):26"/>
				<v:ud v:nameU="SolSH" v:prompt="" v:val="VT15({BF0433D9-CD73-4EB5-8390-8653BE590246}):41"/>
				<v:ud v:nameU="visLegendShape" v:prompt="" v:val="VT0(2):26"/>
			</v:userDefs>
			<title>User.271</title>
			<g id="shape272-302" v:mID="272" v:groupContext="shape" transform="translate(18.0575,0)">
				<title>Sheet.272</title>
				<g id="shadow272-303" v:groupContext="shadow" v:shadowOffsetX="0.345598" v:shadowOffsetY="-1.97279"
						v:shadowType="1" transform="matrix(1,0,0,1,0.345598,1.97279)" class="st1">
					<path d="M26.29 985.72 A8.81 8.81 -180 1 0 8.67 985.72 A8.81 8.81 -180 1 0 26.29 985.72 ZM27.58 996.9 L7.17 996.9
								 C3.22 996.9 0 1000.12 0 1004.07 L0 1029.08 L5.59 1029.08 L5.59 1014.53 L7.45 1014.53 L7.45 1047.77
								 L16.55 1047.77 L16.55 1032.91 C16.55 1032.4 16.97 1031.98 17.48 1031.98 C18 1031.98 18.42 1032.4
								 18.42 1032.91 L18.42 1047.77 L28.04 1047.77 L28.04 1014.47 L29.91 1014.47 L29.91 1029.08 L34.75
								 1029.08 L34.75 1004.07 C34.75 1000.12 31.54 996.9 27.58 996.9 Z" class="st11"/>
				</g>
				<path d="M26.29 985.72 A8.81 8.81 -180 1 0 8.67 985.72 A8.81 8.81 -180 1 0 26.29 985.72 ZM27.58 996.9 L7.17 996.9
							 C3.22 996.9 0 1000.12 0 1004.07 L0 1029.08 L5.59 1029.08 L5.59 1014.53 L7.45 1014.53 L7.45 1047.77 L16.55
							 1047.77 L16.55 1032.91 C16.55 1032.4 16.97 1031.98 17.48 1031.98 C18 1031.98 18.42 1032.4 18.42 1032.91
							 L18.42 1047.77 L28.04 1047.77 L28.04 1014.47 L29.91 1014.47 L29.91 1029.08 L34.75 1029.08 L34.75 1004.07
							 C34.75 1000.12 31.54 996.9 27.58 996.9 Z" class="st12"/>
			</g>
		</g>
		<g id="shape273-307" v:mID="273" v:groupContext="shape" v:layerMember="0" transform="translate(739.829,-896.26)">
			<title>Dynamic connector.273</title>
			<v:userDefs>
				<v:ud v:nameU="visVersion" v:val="VT0(15):26"/>
			</v:userDefs>
			<path d="M7.09 1047.77 L7.09 1100.97" class="st31"/>
		</g>
		<g id="shape274-312" v:mID="274" v:groupContext="shape" v:layerMember="0" transform="translate(899.877,-901.93)">
			<title>Dynamic connector.274</title>
			<v:userDefs>
				<v:ud v:nameU="visVersion" v:val="VT0(15):26"/>
			</v:userDefs>
			<path d="M0 1040.69 L-101.62 1040.69" class="st31"/>
		</g>
	</g>
</svg>
