<?xml version="1.0" encoding="UTF-8" standalone="no"?>
<svg
   xmlns:dc="http://purl.org/dc/elements/1.1/"
   xmlns:cc="http://creativecommons.org/ns#"
   xmlns:rdf="http://www.w3.org/1999/02/22-rdf-syntax-ns#"
   xmlns:svg="http://www.w3.org/2000/svg"
   xmlns="http://www.w3.org/2000/svg"
   xmlns:xlink="http://www.w3.org/1999/xlink"
   xmlns:sodipodi="http://sodipodi.sourceforge.net/DTD/sodipodi-0.dtd"
   xmlns:inkscape="http://www.inkscape.org/namespaces/inkscape"
   stroke-miterlimit="10"
   font-weight="normal"
   font-style="normal"
   font-size="12"
   version="1.1"
   id="svg554"
   sodipodi:docname="t3-designer-archimate.svg"
   viewBox="0 0 973.5 433.5"
   width="973.5"
   height="433.5"
   xml:space="preserve"
   style="font-style:normal;font-weight:normal;font-size:12px;font-family:Dialog;color-interpolation:auto;fill:#000000;fill-opacity:1;stroke:#000000;stroke-width:1;stroke-linecap:square;stroke-linejoin:miter;stroke-miterlimit:10;stroke-dasharray:none;stroke-dashoffset:0;stroke-opacity:1;color-rendering:auto;image-rendering:auto;shape-rendering:auto;text-rendering:auto"
   inkscape:version="0.92.3 (2405546, 2018-03-11)">
   <style
   id="style4237">
    a:hover rect { 
      stroke-width: 2;
      fill: white !important;
    }
    a:hover polygon { 
      fill: black !important;
    }
    a:hover, a:hover rect, a:hover text, a:hover polygon { 
      cursor: pointer !important;
    }
    </style>
  <metadata
   id="metadata558">
    <rdf:RDF>
      <cc:Work
   rdf:about="">
        <dc:format>image/svg+xml</dc:format>
        <dc:type
   rdf:resource="http://purl.org/dc/dcmitype/StillImage" />
      </cc:Work>
    </rdf:RDF>
  </metadata>
  <sodipodi:namedview
   pagecolor="#ffffff"
   bordercolor="#666666"
   borderopacity="1"
   objecttolerance="10"
   gridtolerance="10"
   guidetolerance="10"
   inkscape:pageopacity="0"
   inkscape:pageshadow="2"
   inkscape:window-width="1920"
   inkscape:window-height="1080"
   id="namedview556"
   showgrid="false"
   inkscape:zoom="1.18"
   inkscape:cx="472.68674"
   inkscape:cy="285.88518"
   inkscape:window-x="0"
   inkscape:window-y="0"
   inkscape:window-maximized="0"
   inkscape:current-layer="svg554" />
  <!--Generated by Archi with Batik SVG Generator-->
  <defs
   id="genericDefs" />
  <g
   id="g552"
   transform="translate(-9.5,-9.5)">
    <defs
   id="defs1"><clipPath
     clipPathUnits="userSpaceOnUse"
     id="clipPath1">
        <path
   d="M 9,9 H 984 V 192 H 9 Z"
   id="path3"
   inkscape:connector-curvature="0" />
      </clipPath><clipPath
     clipPathUnits="userSpaceOnUse"
     id="clipPath2">
        <path
   d="m 450,14 h 92 v 17 h -92 z"
   id="path6"
   inkscape:connector-curvature="0" />
      </clipPath><clipPath
     clipPathUnits="userSpaceOnUse"
     id="clipPath3">
        <path
   d="M 321,33 H 456 V 90 H 321 Z"
   id="path9"
   inkscape:connector-curvature="0" />
      </clipPath><clipPath
     clipPathUnits="userSpaceOnUse"
     id="clipPath4">
        <path
   d="m 360,38 h 57 v 32 h -57 z"
   id="path12"
   inkscape:connector-curvature="0" />
      </clipPath><clipPath
     clipPathUnits="userSpaceOnUse"
     id="clipPath5">
        <path
   d="m 105,117 h 135 v 57 H 105 Z"
   id="path15"
   inkscape:connector-curvature="0" />
      </clipPath><clipPath
     clipPathUnits="userSpaceOnUse"
     id="clipPath6">
        <path
   d="m 136,122 h 72 v 47 h -72 z"
   id="path18"
   inkscape:connector-curvature="0" />
      </clipPath><clipPath
     clipPathUnits="userSpaceOnUse"
     id="clipPath7">
        <path
   d="M 33,33 H 168 V 90 H 33 Z"
   id="path21"
   inkscape:connector-curvature="0" />
      </clipPath><clipPath
     clipPathUnits="userSpaceOnUse"
     id="clipPath8">
        <path
   d="m 53,38 h 94 V 70 H 53 Z"
   id="path24"
   inkscape:connector-curvature="0" />
      </clipPath><clipPath
     clipPathUnits="userSpaceOnUse"
     id="clipPath9">
        <path
   d="M 177,33 H 312 V 90 H 177 Z"
   id="path27"
   inkscape:connector-curvature="0" />
      </clipPath><clipPath
     clipPathUnits="userSpaceOnUse"
     id="clipPath10">
        <path
   d="m 211,38 h 66 v 17 h -66 z"
   id="path30"
   inkscape:connector-curvature="0" />
      </clipPath><clipPath
     clipPathUnits="userSpaceOnUse"
     id="clipPath11">
        <path
   d="m 537,117 h 135 v 57 H 537 Z"
   id="path33"
   inkscape:connector-curvature="0" />
      </clipPath><clipPath
     clipPathUnits="userSpaceOnUse"
     id="clipPath12">
        <path
   d="m 573,122 h 63 v 17 h -63 z"
   id="path36"
   inkscape:connector-curvature="0" />
      </clipPath><clipPath
     clipPathUnits="userSpaceOnUse"
     id="clipPath13">
        <path
   d="m 681,117 h 135 v 57 H 681 Z"
   id="path39"
   inkscape:connector-curvature="0" />
      </clipPath><clipPath
     clipPathUnits="userSpaceOnUse"
     id="clipPath14">
        <path
   d="m 715,122 h 67 v 17 h -67 z"
   id="path42"
   inkscape:connector-curvature="0" />
      </clipPath><clipPath
     clipPathUnits="userSpaceOnUse"
     id="clipPath15">
        <path
   d="m 249,117 h 135 v 57 H 249 Z"
   id="path45"
   inkscape:connector-curvature="0" />
      </clipPath><clipPath
     clipPathUnits="userSpaceOnUse"
     id="clipPath16">
        <path
   d="m 276,122 h 81 v 17 h -81 z"
   id="path48"
   inkscape:connector-curvature="0" />
      </clipPath><clipPath
     clipPathUnits="userSpaceOnUse"
     id="clipPath17">
        <path
   d="m 393,117 h 135 v 57 H 393 Z"
   id="path51"
   inkscape:connector-curvature="0" />
      </clipPath><clipPath
     clipPathUnits="userSpaceOnUse"
     id="clipPath18">
        <path
   d="m 419,122 h 83 v 32 h -83 z"
   id="path54"
   inkscape:connector-curvature="0" />
      </clipPath><clipPath
     clipPathUnits="userSpaceOnUse"
     id="clipPath19">
        <path
   d="M 753,33 H 888 V 90 H 753 Z"
   id="path57"
   inkscape:connector-curvature="0" />
      </clipPath><clipPath
     clipPathUnits="userSpaceOnUse"
     id="clipPath20">
        <path
   d="m 778,38 h 84 v 17 h -84 z"
   id="path60"
   inkscape:connector-curvature="0" />
      </clipPath><clipPath
     clipPathUnits="userSpaceOnUse"
     id="clipPath21">
        <path
   d="M 465,33 H 600 V 90 H 465 Z"
   id="path63"
   inkscape:connector-curvature="0" />
      </clipPath><clipPath
     clipPathUnits="userSpaceOnUse"
     id="clipPath22">
        <path
   d="m 492,38 h 81 v 17 h -81 z"
   id="path66"
   inkscape:connector-curvature="0" />
      </clipPath><clipPath
     clipPathUnits="userSpaceOnUse"
     id="clipPath23">
        <path
   d="M 609,33 H 744 V 90 H 609 Z"
   id="path69"
   inkscape:connector-curvature="0" />
      </clipPath><clipPath
     clipPathUnits="userSpaceOnUse"
     id="clipPath24">
        <path
   d="m 645,38 h 63 v 32 h -63 z"
   id="path72"
   inkscape:connector-curvature="0" />
      </clipPath><clipPath
     clipPathUnits="userSpaceOnUse"
     id="clipPath25">
        <path
   d="m 825,117 h 135 v 57 H 825 Z"
   id="path75"
   inkscape:connector-curvature="0" />
      </clipPath><clipPath
     clipPathUnits="userSpaceOnUse"
     id="clipPath26">
        <path
   d="m 855,122 h 75 v 17 h -75 z"
   id="path78"
   inkscape:connector-curvature="0" />
      </clipPath><clipPath
     clipPathUnits="userSpaceOnUse"
     id="clipPath27">
        <path
   d="M 9,237 H 984 V 444 H 9 Z"
   id="path81"
   inkscape:connector-curvature="0" />
      </clipPath><clipPath
     clipPathUnits="userSpaceOnUse"
     id="clipPath28">
        <path
   d="m 438,250 h 117 v 17 H 438 Z"
   id="path84"
   inkscape:connector-curvature="0" />
      </clipPath><clipPath
     clipPathUnits="userSpaceOnUse"
     id="clipPath29">
        <path
   d="m 393,357 h 135 v 57 H 393 Z"
   id="path87"
   inkscape:connector-curvature="0" />
      </clipPath><clipPath
     clipPathUnits="userSpaceOnUse"
     id="clipPath30">
        <path
   d="m 416,362 h 88 v 32 h -88 z"
   id="path90"
   inkscape:connector-curvature="0" />
      </clipPath><clipPath
     clipPathUnits="userSpaceOnUse"
     id="clipPath31">
        <path
   d="m 753,276 h 135 v 57 H 753 Z"
   id="path93"
   inkscape:connector-curvature="0" />
      </clipPath><clipPath
     clipPathUnits="userSpaceOnUse"
     id="clipPath32">
        <path
   d="m 775,281 h 91 v 17 h -91 z"
   id="path96"
   inkscape:connector-curvature="0" />
      </clipPath><clipPath
     clipPathUnits="userSpaceOnUse"
     id="clipPath33">
        <path
   d="m 609,276 h 135 v 57 H 609 Z"
   id="path99"
   inkscape:connector-curvature="0" />
      </clipPath><clipPath
     clipPathUnits="userSpaceOnUse"
     id="clipPath34">
        <path
   d="m 635,281 h 82 v 32 h -82 z"
   id="path102"
   inkscape:connector-curvature="0" />
      </clipPath><clipPath
     clipPathUnits="userSpaceOnUse"
     id="clipPath35">
        <path
   d="m 177,276 h 135 v 57 H 177 Z"
   id="path105"
   inkscape:connector-curvature="0" />
      </clipPath><clipPath
     clipPathUnits="userSpaceOnUse"
     id="clipPath36">
        <path
   d="m 207,281 h 74 v 32 h -74 z"
   id="path108"
   inkscape:connector-curvature="0" />
      </clipPath><clipPath
     clipPathUnits="userSpaceOnUse"
     id="clipPath37">
        <path
   d="m 105,357 h 135 v 57 H 105 Z"
   id="path111"
   inkscape:connector-curvature="0" />
      </clipPath><clipPath
     clipPathUnits="userSpaceOnUse"
     id="clipPath38">
        <path
   d="m 129,362 h 87 v 32 h -87 z"
   id="path114"
   inkscape:connector-curvature="0" />
      </clipPath><clipPath
     clipPathUnits="userSpaceOnUse"
     id="clipPath39">
        <path
   d="m 465,276 h 135 v 57 H 465 Z"
   id="path117"
   inkscape:connector-curvature="0" />
      </clipPath><clipPath
     clipPathUnits="userSpaceOnUse"
     id="clipPath40">
        <path
   d="m 499,281 h 66 v 47 h -66 z"
   id="path120"
   inkscape:connector-curvature="0" />
      </clipPath><clipPath
     clipPathUnits="userSpaceOnUse"
     id="clipPath41">
        <path
   d="m 249,359 h 135 v 57 H 249 Z"
   id="path123"
   inkscape:connector-curvature="0" />
      </clipPath><clipPath
     clipPathUnits="userSpaceOnUse"
     id="clipPath42">
        <path
   d="m 276,364 h 81 v 17 h -81 z"
   id="path126"
   inkscape:connector-curvature="0" />
      </clipPath><clipPath
     clipPathUnits="userSpaceOnUse"
     id="clipPath43">
        <path
   d="m 537,357 h 135 v 57 H 537 Z"
   id="path129"
   inkscape:connector-curvature="0" />
      </clipPath><clipPath
     clipPathUnits="userSpaceOnUse"
     id="clipPath44">
        <path
   d="m 572,362 h 64 v 32 h -64 z"
   id="path132"
   inkscape:connector-curvature="0" />
      </clipPath><clipPath
     clipPathUnits="userSpaceOnUse"
     id="clipPath45">
        <path
   d="m 321,276 h 135 v 57 H 321 Z"
   id="path135"
   inkscape:connector-curvature="0" />
      </clipPath><clipPath
     clipPathUnits="userSpaceOnUse"
     id="clipPath46">
        <path
   d="m 359,281 h 59 v 32 h -59 z"
   id="path138"
   inkscape:connector-curvature="0" />
      </clipPath><clipPath
     clipPathUnits="userSpaceOnUse"
     id="clipPath47">
        <path
   d="m 681,357 h 135 v 57 H 681 Z"
   id="path141"
   inkscape:connector-curvature="0" />
      </clipPath><clipPath
     clipPathUnits="userSpaceOnUse"
     id="clipPath48">
        <path
   d="m 715,362 h 67 v 32 h -67 z"
   id="path144"
   inkscape:connector-curvature="0" />
      </clipPath><clipPath
     clipPathUnits="userSpaceOnUse"
     id="clipPath49">
        <path
   d="m 825,357 h 135 v 57 H 825 Z"
   id="path147"
   inkscape:connector-curvature="0" />
      </clipPath><clipPath
     clipPathUnits="userSpaceOnUse"
     id="clipPath50">
        <path
   d="m 850,362 h 85 v 32 h -85 z"
   id="path150"
   inkscape:connector-curvature="0" />
      </clipPath><clipPath
     clipPathUnits="userSpaceOnUse"
     id="clipPath51">
        <path
   d="m 33,276 h 135 v 57 H 33 Z"
   id="path153"
   inkscape:connector-curvature="0" />
      </clipPath><clipPath
     clipPathUnits="userSpaceOnUse"
     id="clipPath52">
        <path
   d="m 73,281 h 55 v 32 H 73 Z"
   id="path156"
   inkscape:connector-curvature="0" />
      </clipPath><clipPath
     clipPathUnits="userSpaceOnUse"
     id="clipPath53">
        <path
   d="m 374,77 h 29 v 212 h -29 z"
   id="path159"
   inkscape:connector-curvature="0" />
      </clipPath><clipPath
     clipPathUnits="userSpaceOnUse"
     id="clipPath54">
        <path
   d="m 384,87 h 9 v 10 h -9 z"
   id="path162"
   inkscape:connector-curvature="0" />
      </clipPath><clipPath
     clipPathUnits="userSpaceOnUse"
     id="clipPath55">
        <path
   d="m 158,161 h 29 v 209 h -29 z"
   id="path165"
   inkscape:connector-curvature="0" />
      </clipPath><clipPath
     clipPathUnits="userSpaceOnUse"
     id="clipPath56">
        <path
   d="m 168,171 h 9 v 10 h -9 z"
   id="path168"
   inkscape:connector-curvature="0" />
      </clipPath><clipPath
     clipPathUnits="userSpaceOnUse"
     id="clipPath57">
        <path
   d="m 86,77 h 29 V 289 H 86 Z"
   id="path171"
   inkscape:connector-curvature="0" />
      </clipPath><clipPath
     clipPathUnits="userSpaceOnUse"
     id="clipPath58">
        <path
   d="m 96,87 h 9 v 10 h -9 z"
   id="path174"
   inkscape:connector-curvature="0" />
      </clipPath><clipPath
     clipPathUnits="userSpaceOnUse"
     id="clipPath59">
        <path
   d="m 230,77 h 29 v 212 h -29 z"
   id="path177"
   inkscape:connector-curvature="0" />
      </clipPath><clipPath
     clipPathUnits="userSpaceOnUse"
     id="clipPath60">
        <path
   d="m 240,87 h 9 v 10 h -9 z"
   id="path180"
   inkscape:connector-curvature="0" />
      </clipPath><clipPath
     clipPathUnits="userSpaceOnUse"
     id="clipPath61">
        <path
   d="m 590,161 h 29 v 209 h -29 z"
   id="path183"
   inkscape:connector-curvature="0" />
      </clipPath><clipPath
     clipPathUnits="userSpaceOnUse"
     id="clipPath62">
        <path
   d="m 600,171 h 9 v 10 h -9 z"
   id="path186"
   inkscape:connector-curvature="0" />
      </clipPath><clipPath
     clipPathUnits="userSpaceOnUse"
     id="clipPath63">
        <path
   d="m 734,161 h 29 v 209 h -29 z"
   id="path189"
   inkscape:connector-curvature="0" />
      </clipPath><clipPath
     clipPathUnits="userSpaceOnUse"
     id="clipPath64">
        <path
   d="m 744,171 h 9 v 10 h -9 z"
   id="path192"
   inkscape:connector-curvature="0" />
      </clipPath><clipPath
     clipPathUnits="userSpaceOnUse"
     id="clipPath65">
        <path
   d="m 302,161 h 29 v 211 h -29 z"
   id="path195"
   inkscape:connector-curvature="0" />
      </clipPath><clipPath
     clipPathUnits="userSpaceOnUse"
     id="clipPath66">
        <path
   d="m 312,171 h 9 v 10 h -9 z"
   id="path198"
   inkscape:connector-curvature="0" />
      </clipPath><clipPath
     clipPathUnits="userSpaceOnUse"
     id="clipPath67">
        <path
   d="m 446,161 h 29 v 209 h -29 z"
   id="path201"
   inkscape:connector-curvature="0" />
      </clipPath><clipPath
     clipPathUnits="userSpaceOnUse"
     id="clipPath68">
        <path
   d="m 456,171 h 9 v 10 h -9 z"
   id="path204"
   inkscape:connector-curvature="0" />
      </clipPath><clipPath
     clipPathUnits="userSpaceOnUse"
     id="clipPath69">
        <path
   d="m 806,77 h 29 v 212 h -29 z"
   id="path207"
   inkscape:connector-curvature="0" />
      </clipPath><clipPath
     clipPathUnits="userSpaceOnUse"
     id="clipPath70">
        <path
   d="m 816,87 h 9 v 10 h -9 z"
   id="path210"
   inkscape:connector-curvature="0" />
      </clipPath><clipPath
     clipPathUnits="userSpaceOnUse"
     id="clipPath71">
        <path
   d="m 518,77 h 29 v 212 h -29 z"
   id="path213"
   inkscape:connector-curvature="0" />
      </clipPath><clipPath
     clipPathUnits="userSpaceOnUse"
     id="clipPath72">
        <path
   d="m 528,87 h 9 v 10 h -9 z"
   id="path216"
   inkscape:connector-curvature="0" />
      </clipPath><clipPath
     clipPathUnits="userSpaceOnUse"
     id="clipPath73">
        <path
   d="m 662,77 h 29 v 212 h -29 z"
   id="path219"
   inkscape:connector-curvature="0" />
      </clipPath><clipPath
     clipPathUnits="userSpaceOnUse"
     id="clipPath74">
        <path
   d="m 672,87 h 9 v 10 h -9 z"
   id="path222"
   inkscape:connector-curvature="0" />
      </clipPath><clipPath
     clipPathUnits="userSpaceOnUse"
     id="clipPath75">
        <path
   d="m 878,161 h 29 v 209 h -29 z"
   id="path225"
   inkscape:connector-curvature="0" />
      </clipPath><clipPath
     clipPathUnits="userSpaceOnUse"
     id="clipPath76">
        <path
   d="m 888,171 h 9 v 10 h -9 z"
   id="path228"
   inkscape:connector-curvature="0" />
      </clipPath></defs>
    <g
   stroke-miterlimit="0"
   id="g234"
   style="font-family:'Segoe UI';fill:#ffffb5;stroke:#ffffb5;stroke-width:0;stroke-linejoin:round;stroke-miterlimit:0;text-rendering:optimizeLegibility">
      <rect
   x="10"
   y="10"
   clip-path="url(#clipPath1)"
   width="973"
   rx="10"
   ry="10"
   height="181"
   id="rect232"
   style="stroke:none" />
    </g>
    <g
   id="g550"
   style="font-family:'Segoe UI';fill:#b2b27e;stroke:#b2b27e;stroke-linecap:butt;text-rendering:optimizeLegibility">
      <rect
   x="10"
   y="10"
   clip-path="url(#clipPath1)"
   width="972"
   rx="10"
   ry="10"
   height="180"
   id="rect236"
   style="fill:none" />
      <polygon
   clip-path="url(#clipPath1)"
   points="973,18 979,23 973,28 973,25 965,25 965,21 973,21 "
   id="polygon238"
   style="fill:none;stroke:#000000" />
      <text
   x="451"
   xml:space="preserve"
   y="28"
   clip-path="url(#clipPath2)"
   id="text240"
   style="fill:#000000;stroke:none">Tjenesteutvikling</text>

      <a
   xlink:href="/products/tjenester/3.0/solutions/designer/#definere-arbeidsflyt"
   target="_parent"
   id="a169">
      <rect
   x="322"
   y="34"
   clip-path="url(#clipPath3)"
   width="133"
   rx="10"
   ry="10"
   height="55"
   id="rect242"
   style="fill:#ffffb5;stroke:none" />
      <rect
   x="322"
   y="34"
   clip-path="url(#clipPath3)"
   width="132"
   rx="10"
   ry="10"
   height="54"
   id="rect244"
   style="fill:none" />
      <polygon
   clip-path="url(#clipPath3)"
   points="445,42 451,47 445,52 445,49 437,49 437,45 445,45 "
   id="polygon246"
   style="fill:none;stroke:#000000" />
      <text
   x="366"
   xml:space="preserve"
   y="52"
   clip-path="url(#clipPath4)"
   id="text248"
   style="fill:#000000;stroke:none">Definere</text>

      <text
   x="361"
   xml:space="preserve"
   y="67"
   clip-path="url(#clipPath4)"
   id="text250"
   style="fill:#000000;stroke:none">arbeidsflyt</text>

         </a>
      <a
   xlink:href="/products/tjenester/3.0/solutions/designer/#skape-gjenbrukbare-ressurser"
   target="_parent"
   id="a177">
      <rect
   x="106"
   y="118"
   clip-path="url(#clipPath5)"
   width="133"
   rx="10"
   ry="10"
   height="55"
   id="rect252"
   style="fill:#ffffb5;stroke:none" />
      <rect
   x="106"
   y="118"
   clip-path="url(#clipPath5)"
   width="132"
   rx="10"
   ry="10"
   height="54"
   id="rect254"
   style="fill:none" />
      <polygon
   clip-path="url(#clipPath5)"
   points="229,126 235,131 229,136 229,133 221,133 221,129 229,129 "
   id="polygon256"
   style="fill:none;stroke:#000000" />
      <text
   x="157"
   xml:space="preserve"
   y="136"
   clip-path="url(#clipPath6)"
   id="text258"
   style="fill:#000000;stroke:none">Skape</text>

      <text
   x="137"
   xml:space="preserve"
   y="151"
   clip-path="url(#clipPath6)"
   id="text260"
   style="fill:#000000;stroke:none">gjenbrukbare</text>

      <text
   x="149"
   xml:space="preserve"
   y="166"
   clip-path="url(#clipPath6)"
   id="text262"
   style="fill:#000000;stroke:none">ressurser</text>

        </a>
      <a
   xlink:href="/products/tjenester/3.0/solutions/designer/#bygge-brukergrensesnitt"
   target="_parent"
   id="a184">
      <rect
   x="34"
   y="34"
   clip-path="url(#clipPath7)"
   width="133"
   rx="10"
   ry="10"
   height="55"
   id="rect264"
   style="fill:#ffffb5;stroke:none" />
      <rect
   x="34"
   y="34"
   clip-path="url(#clipPath7)"
   width="132"
   rx="10"
   ry="10"
   height="54"
   id="rect266"
   style="fill:none" />
      <polygon
   clip-path="url(#clipPath7)"
   points="157,42 163,47 157,52 157,49 149,49 149,45 157,45 "
   id="polygon268"
   style="fill:none;stroke:#000000" />
      <text
   x="84"
   xml:space="preserve"
   y="52"
   clip-path="url(#clipPath8)"
   id="text270"
   style="fill:#000000;stroke:none">Bygge</text>

      <text
   x="54"
   xml:space="preserve"
   y="67"
   clip-path="url(#clipPath8)"
   id="text272"
   style="fill:#000000;stroke:none">brukergrensesnitt</text>

        </a>
      <a
   xlink:href="/products/tjenester/3.0/solutions/designer/#bygge-apier"
   target="_parent"
   id="a190">
      <rect
   x="178"
   y="34"
   clip-path="url(#clipPath9)"
   width="133"
   rx="10"
   ry="10"
   height="55"
   id="rect274"
   style="fill:#ffffb5;stroke:none" />
      <rect
   x="178"
   y="34"
   clip-path="url(#clipPath9)"
   width="132"
   rx="10"
   ry="10"
   height="54"
   id="rect276"
   style="fill:none" />
      <polygon
   clip-path="url(#clipPath9)"
   points="301,42 307,47 301,52 301,49 293,49 293,45 301,45 "
   id="polygon278"
   style="fill:none;stroke:#000000" />
      <text
   x="212"
   xml:space="preserve"
   y="52"
   clip-path="url(#clipPath10)"
   id="text280"
   style="fill:#000000;stroke:none">Bygge APIer</text>

         </a>
      <a
   xlink:href="/products/tjenester/3.0/solutions/designer/#bruke-apier"
   target="_parent"
   id="a196">
      <rect
   x="538"
   y="118"
   clip-path="url(#clipPath11)"
   width="133"
   rx="10"
   ry="10"
   height="55"
   id="rect282"
   style="fill:#ffffb5;stroke:none" />
      <rect
   x="538"
   y="118"
   clip-path="url(#clipPath11)"
   width="132"
   rx="10"
   ry="10"
   height="54"
   id="rect284"
   style="fill:none" />
      <polygon
   clip-path="url(#clipPath11)"
   points="661,126 667,131 661,136 661,133 653,133 653,129 661,129 "
   id="polygon286"
   style="fill:none;stroke:#000000" />
      <text
   x="574"
   xml:space="preserve"
   y="136"
   clip-path="url(#clipPath12)"
   id="text288"
   style="fill:#000000;stroke:none">Bruke APIer</text>

         </a>
        <a
   xlink:href="/products/tjenester/3.0/solutions/designer/#deployment"
   target="_parent"
   id="a202">
      <rect
   x="682"
   y="118"
   clip-path="url(#clipPath13)"
   width="133"
   rx="10"
   ry="10"
   height="55"
   id="rect290"
   style="fill:#ffffb5;stroke:none" />
      <rect
   x="682"
   y="118"
   clip-path="url(#clipPath13)"
   width="132"
   rx="10"
   ry="10"
   height="54"
   id="rect292"
   style="fill:none" />
      <polygon
   clip-path="url(#clipPath13)"
   points="805,126 811,131 805,136 805,133 797,133 797,129 805,129 "
   id="polygon294"
   style="fill:none;stroke:#000000" />
      <text
   x="716"
   xml:space="preserve"
   y="136"
   clip-path="url(#clipPath14)"
   id="text296"
   style="fill:#000000;stroke:none">Deployment</text>

         </a>
      <a
   xlink:href="/products/tjenester/3.0/solutions/designer/#definere-logikk"
   target="_parent"
   id="a208">
      <rect
   x="250"
   y="118"
   clip-path="url(#clipPath15)"
   width="133"
   rx="10"
   ry="10"
   height="55"
   id="rect298"
   style="fill:#ffffb5;stroke:none" />
      <rect
   x="250"
   y="118"
   clip-path="url(#clipPath15)"
   width="132"
   rx="10"
   ry="10"
   height="54"
   id="rect300"
   style="fill:none" />
      <polygon
   clip-path="url(#clipPath15)"
   points="373,126 379,131 373,136 373,133 365,133 365,129 373,129 "
   id="polygon302"
   style="fill:none;stroke:#000000" />
      <text
   x="277"
   xml:space="preserve"
   y="136"
   clip-path="url(#clipPath16)"
   id="text304"
   style="fill:#000000;stroke:none">Definere logikk</text>

         </a>
        <a
   xlink:href="/products/tjenester/3.0/solutions/designer/#tekstredigering-og-oversettelse"
   target="_parent"
   id="a215">
      <rect
   x="394"
   y="118"
   clip-path="url(#clipPath17)"
   width="133"
   rx="10"
   ry="10"
   height="55"
   id="rect306"
   style="fill:#ffffb5;stroke:none" />
      <rect
   x="394"
   y="118"
   clip-path="url(#clipPath17)"
   width="132"
   rx="10"
   ry="10"
   height="54"
   id="rect308"
   style="fill:none" />
      <polygon
   clip-path="url(#clipPath17)"
   points="517,126 523,131 517,136 517,133 509,133 509,129 517,129 "
   id="polygon310"
   style="fill:none;stroke:#000000" />
      <text
   x="420"
   xml:space="preserve"
   y="136"
   clip-path="url(#clipPath18)"
   id="text312"
   style="fill:#000000;stroke:none">Tekstredigering</text>

      <text
   x="421"
   xml:space="preserve"
   y="151"
   clip-path="url(#clipPath18)"
   id="text314"
   style="fill:#000000;stroke:none">og oversettelse</text>

         </a>
        <a
   xlink:href="/products/tjenester/3.0/solutions/designer/#manuell-testing"
   target="_parent"
   id="a221">
      <rect
   x="754"
   y="34"
   clip-path="url(#clipPath19)"
   width="133"
   rx="10"
   ry="10"
   height="55"
   id="rect316"
   style="fill:#ffffb5;stroke:none" />
      <rect
   x="754"
   y="34"
   clip-path="url(#clipPath19)"
   width="132"
   rx="10"
   ry="10"
   height="54"
   id="rect318"
   style="fill:none" />
      <polygon
   clip-path="url(#clipPath19)"
   points="877,42 883,47 877,52 877,49 869,49 869,45 877,45 "
   id="polygon320"
   style="fill:none;stroke:#000000" />
      <text
   x="779"
   xml:space="preserve"
   y="52"
   clip-path="url(#clipPath20)"
   id="text322"
   style="fill:#000000;stroke:none">Manuell testing</text>

         </a>
        <a
   xlink:href="/products/tjenester/3.0/solutions/designer/#modellere-data"
   target="_parent"
   id="a227">
      <rect
   x="466"
   y="34"
   clip-path="url(#clipPath21)"
   width="133"
   rx="10"
   ry="10"
   height="55"
   id="rect324"
   style="fill:#ffffb5;stroke:none" />
      <rect
   x="466"
   y="34"
   clip-path="url(#clipPath21)"
   width="132"
   rx="10"
   ry="10"
   height="54"
   id="rect326"
   style="fill:none" />
      <polygon
   clip-path="url(#clipPath21)"
   points="589,42 595,47 589,52 589,49 581,49 581,45 589,45 "
   id="polygon328"
   style="fill:none;stroke:#000000" />
      <text
   x="493"
   xml:space="preserve"
   y="52"
   clip-path="url(#clipPath22)"
   id="text330"
   style="fill:#000000;stroke:none">Modellere data</text>

         </a>
        <a
   xlink:href="/products/tjenester/3.0/solutions/designer/#automatisk-testing"
   target="_parent"
   id="a234">
      <rect
   x="610"
   y="34"
   clip-path="url(#clipPath23)"
   width="133"
   rx="10"
   ry="10"
   height="55"
   id="rect332"
   style="fill:#ffffb5;stroke:none" />
      <rect
   x="610"
   y="34"
   clip-path="url(#clipPath23)"
   width="132"
   rx="10"
   ry="10"
   height="54"
   id="rect334"
   style="fill:none" />
      <polygon
   clip-path="url(#clipPath23)"
   points="733,42 739,47 733,52 733,49 725,49 725,45 733,45 "
   id="polygon336"
   style="fill:none;stroke:#000000" />
      <text
   x="646"
   xml:space="preserve"
   y="52"
   clip-path="url(#clipPath24)"
   id="text338"
   style="fill:#000000;stroke:none">Automatisk</text>

      <text
   x="658"
   xml:space="preserve"
   y="67"
   clip-path="url(#clipPath24)"
   id="text340"
   style="fill:#000000;stroke:none">testing</text>

         </a>
        <a
   xlink:href="/products/tjenester/3.0/solutions/designer/#konfigurering"
   target="_parent"
   id="a240">
      <rect
   x="826"
   y="118"
   clip-path="url(#clipPath25)"
   width="133"
   rx="10"
   ry="10"
   height="55"
   id="rect342"
   style="fill:#ffffb5;stroke:none" />
      <rect
   x="826"
   y="118"
   clip-path="url(#clipPath25)"
   width="132"
   rx="10"
   ry="10"
   height="54"
   id="rect344"
   style="fill:none" />
      <polygon
   clip-path="url(#clipPath25)"
   points="949,126 955,131 949,136 949,133 941,133 941,129 949,129 "
   id="polygon346"
   style="fill:none;stroke:#000000" />
      <text
   x="856"
   xml:space="preserve"
   y="136"
   clip-path="url(#clipPath26)"
   id="text348"
   style="fill:#000000;stroke:none">Konfigurering</text>

         </a>
      <rect
   x="10"
   y="238"
   clip-path="url(#clipPath27)"
   width="973"
   height="205"
   id="rect350"
   style="fill:#ffffb5;stroke:none" />
      <line
   y2="250"
   x1="10"
   clip-path="url(#clipPath27)"
   x2="496"
   y1="250"
   id="line352"
   style="fill:none" />
      <line
   y2="238"
   x1="496"
   clip-path="url(#clipPath27)"
   x2="496"
   y1="250"
   id="line354"
   style="fill:none" />
      <rect
   x="10"
   width="972"
   height="204"
   y="238"
   clip-path="url(#clipPath27)"
   id="rect356"
   style="fill:none" />
      <text
   x="439"
   xml:space="preserve"
   y="264"
   clip-path="url(#clipPath28)"
   id="text358"
   style="fill:#000000;stroke:none">Tjenester 3.0 Designer</text>

      <rect
   x="394"
   y="358"
   clip-path="url(#clipPath29)"
   width="133"
   rx="10"
   ry="10"
   height="55"
   id="rect360"
   style="fill:#b5ffff;stroke:none" />
      <rect
   x="394"
   y="358"
   clip-path="url(#clipPath29)"
   width="132"
   rx="10"
   ry="10"
   height="54"
   id="rect362"
   style="fill:none;stroke:#7eb2b2" />
      <rect
   x="506"
   y="365"
   clip-path="url(#clipPath29)"
   width="16"
   rx="4"
   ry="4"
   height="9"
   id="rect364"
   style="fill:none;stroke:#000000" />
      <text
   x="417"
   xml:space="preserve"
   y="376"
   clip-path="url(#clipPath30)"
   id="text366"
   style="fill:#000000;stroke:none">Tekstredigerings</text>

      <text
   x="440"
   xml:space="preserve"
   y="391"
   clip-path="url(#clipPath30)"
   id="text368"
   style="fill:#000000;stroke:none">tjeneste</text>

      <rect
   x="754"
   y="277"
   clip-path="url(#clipPath31)"
   width="133"
   rx="10"
   ry="10"
   height="55"
   id="rect370"
   style="fill:#b5ffff;stroke:none" />
      <rect
   x="754"
   y="277"
   clip-path="url(#clipPath31)"
   width="132"
   rx="10"
   ry="10"
   height="54"
   id="rect372"
   style="fill:none;stroke:#7eb2b2" />
      <rect
   x="866"
   y="284"
   clip-path="url(#clipPath31)"
   width="16"
   rx="4"
   ry="4"
   height="9"
   id="rect374"
   style="fill:none;stroke:#000000" />
      <text
   x="776"
   xml:space="preserve"
   y="295"
   clip-path="url(#clipPath32)"
   id="text376"
   style="fill:#000000;stroke:none">Runtime tjeneste</text>

      <rect
   x="610"
   y="277"
   clip-path="url(#clipPath33)"
   width="133"
   rx="10"
   ry="10"
   height="55"
   id="rect378"
   style="fill:#b5ffff;stroke:none" />
      <rect
   x="610"
   y="277"
   clip-path="url(#clipPath33)"
   width="132"
   rx="10"
   ry="10"
   height="54"
   id="rect380"
   style="fill:none;stroke:#7eb2b2" />
      <rect
   x="722"
   y="284"
   clip-path="url(#clipPath33)"
   width="16"
   rx="4"
   ry="4"
   height="9"
   id="rect382"
   style="fill:none;stroke:#000000" />
      <text
   x="646"
   xml:space="preserve"
   y="295"
   clip-path="url(#clipPath34)"
   id="text384"
   style="fill:#000000;stroke:none">Automatisk</text>

      <text
   x="636"
   xml:space="preserve"
   y="310"
   clip-path="url(#clipPath34)"
   id="text386"
   style="fill:#000000;stroke:none">testing tjeneste</text>

      <rect
   x="178"
   y="277"
   clip-path="url(#clipPath35)"
   width="133"
   rx="10"
   ry="10"
   height="55"
   id="rect388"
   style="fill:#b5ffff;stroke:none" />
      <rect
   x="178"
   y="277"
   clip-path="url(#clipPath35)"
   width="132"
   rx="10"
   ry="10"
   height="54"
   id="rect390"
   style="fill:none;stroke:#7eb2b2" />
      <rect
   x="290"
   y="284"
   clip-path="url(#clipPath35)"
   width="16"
   rx="4"
   ry="4"
   height="9"
   id="rect392"
   style="fill:none;stroke:#000000" />
      <text
   x="208"
   xml:space="preserve"
   y="295"
   clip-path="url(#clipPath36)"
   id="text394"
   style="fill:#000000;stroke:none">&quot;Opprett API&quot;</text>

      <text
   x="224"
   xml:space="preserve"
   y="310"
   clip-path="url(#clipPath36)"
   id="text396"
   style="fill:#000000;stroke:none">tjeneste</text>

      <rect
   x="106"
   y="358"
   clip-path="url(#clipPath37)"
   width="133"
   rx="10"
   ry="10"
   height="55"
   id="rect398"
   style="fill:#b5ffff;stroke:none" />
      <rect
   x="106"
   y="358"
   clip-path="url(#clipPath37)"
   width="132"
   rx="10"
   ry="10"
   height="54"
   id="rect400"
   style="fill:none;stroke:#7eb2b2" />
      <rect
   x="218"
   y="365"
   clip-path="url(#clipPath37)"
   width="16"
   rx="4"
   ry="4"
   height="9"
   id="rect402"
   style="fill:none;stroke:#000000" />
      <text
   x="130"
   xml:space="preserve"
   y="376"
   clip-path="url(#clipPath38)"
   id="text404"
   style="fill:#000000;stroke:none">Utvikle ressurser</text>

      <text
   x="152"
   xml:space="preserve"
   y="391"
   clip-path="url(#clipPath38)"
   id="text406"
   style="fill:#000000;stroke:none">tjeneste</text>

      <rect
   x="466"
   y="277"
   clip-path="url(#clipPath39)"
   width="133"
   rx="10"
   ry="10"
   height="55"
   id="rect408"
   style="fill:#b5ffff;stroke:none" />
      <rect
   x="466"
   y="277"
   clip-path="url(#clipPath39)"
   width="132"
   rx="10"
   ry="10"
   height="54"
   id="rect410"
   style="fill:none;stroke:#7eb2b2" />
      <rect
   x="578"
   y="284"
   clip-path="url(#clipPath39)"
   width="16"
   rx="4"
   ry="4"
   height="9"
   id="rect412"
   style="fill:none;stroke:#000000" />
      <text
   x="520"
   xml:space="preserve"
   y="295"
   clip-path="url(#clipPath40)"
   id="text414"
   style="fill:#000000;stroke:none">Data</text>

      <text
   x="500"
   xml:space="preserve"
   y="310"
   clip-path="url(#clipPath40)"
   id="text416"
   style="fill:#000000;stroke:none">modellering</text>

      <text
   x="512"
   xml:space="preserve"
   y="325"
   clip-path="url(#clipPath40)"
   id="text418"
   style="fill:#000000;stroke:none">tjeneste</text>

      <rect
   x="250"
   y="360"
   clip-path="url(#clipPath41)"
   width="133"
   rx="10"
   ry="10"
   height="55"
   id="rect420"
   style="fill:#b5ffff;stroke:none" />
      <rect
   x="250"
   y="360"
   clip-path="url(#clipPath41)"
   width="132"
   rx="10"
   ry="10"
   height="54"
   id="rect422"
   style="fill:none;stroke:#7eb2b2" />
      <rect
   x="362"
   y="367"
   clip-path="url(#clipPath41)"
   width="16"
   rx="4"
   ry="4"
   height="9"
   id="rect424"
   style="fill:none;stroke:#000000" />
      <text
   x="277"
   xml:space="preserve"
   y="378"
   clip-path="url(#clipPath42)"
   id="text426"
   style="fill:#000000;stroke:none">Logikk tjeneste</text>

      <rect
   x="538"
   y="358"
   clip-path="url(#clipPath43)"
   width="133"
   rx="10"
   ry="10"
   height="55"
   id="rect428"
   style="fill:#b5ffff;stroke:none" />
      <rect
   x="538"
   y="358"
   clip-path="url(#clipPath43)"
   width="132"
   rx="10"
   ry="10"
   height="54"
   id="rect430"
   style="fill:none;stroke:#7eb2b2" />
      <rect
   x="650"
   y="365"
   clip-path="url(#clipPath43)"
   width="16"
   rx="4"
   ry="4"
   height="9"
   id="rect432"
   style="fill:none;stroke:#000000" />
      <text
   x="573"
   xml:space="preserve"
   y="376"
   clip-path="url(#clipPath44)"
   id="text434"
   style="fill:#000000;stroke:none">API-katalog</text>

      <text
   x="584"
   xml:space="preserve"
   y="391"
   clip-path="url(#clipPath44)"
   id="text436"
   style="fill:#000000;stroke:none">tjeneste</text>

      <rect
   x="322"
   y="277"
   clip-path="url(#clipPath45)"
   width="133"
   rx="10"
   ry="10"
   height="55"
   id="rect438"
   style="fill:#b5ffff;stroke:none" />
      <rect
   x="322"
   y="277"
   clip-path="url(#clipPath45)"
   width="132"
   rx="10"
   ry="10"
   height="54"
   id="rect440"
   style="fill:none;stroke:#7eb2b2" />
      <rect
   x="434"
   y="284"
   clip-path="url(#clipPath45)"
   width="16"
   rx="4"
   ry="4"
   height="9"
   id="rect442"
   style="fill:none;stroke:#000000" />
      <text
   x="360"
   xml:space="preserve"
   y="295"
   clip-path="url(#clipPath46)"
   id="text444"
   style="fill:#000000;stroke:none">Arbeidsflyt</text>

      <text
   x="368"
   xml:space="preserve"
   y="310"
   clip-path="url(#clipPath46)"
   id="text446"
   style="fill:#000000;stroke:none">tjeneste</text>

      <rect
   x="682"
   y="358"
   clip-path="url(#clipPath47)"
   width="133"
   rx="10"
   ry="10"
   height="55"
   id="rect448"
   style="fill:#b5ffff;stroke:none" />
      <rect
   x="682"
   y="358"
   clip-path="url(#clipPath47)"
   width="132"
   rx="10"
   ry="10"
   height="54"
   id="rect450"
   style="fill:none;stroke:#7eb2b2" />
      <rect
   x="794"
   y="365"
   clip-path="url(#clipPath47)"
   width="16"
   rx="4"
   ry="4"
   height="9"
   id="rect452"
   style="fill:none;stroke:#000000" />
      <text
   x="716"
   xml:space="preserve"
   y="376"
   clip-path="url(#clipPath48)"
   id="text454"
   style="fill:#000000;stroke:none">Deployment</text>

      <text
   x="728"
   xml:space="preserve"
   y="391"
   clip-path="url(#clipPath48)"
   id="text456"
   style="fill:#000000;stroke:none">tjeneste</text>

      <rect
   x="826"
   y="358"
   clip-path="url(#clipPath49)"
   width="133"
   rx="10"
   ry="10"
   height="55"
   id="rect458"
   style="fill:#b5ffff;stroke:none" />
      <rect
   x="826"
   y="358"
   clip-path="url(#clipPath49)"
   width="132"
   rx="10"
   ry="10"
   height="54"
   id="rect460"
   style="fill:none;stroke:#7eb2b2" />
      <rect
   x="938"
   y="365"
   clip-path="url(#clipPath49)"
   width="16"
   rx="4"
   ry="4"
   height="9"
   id="rect462"
   style="fill:none;stroke:#000000" />
      <text
   x="851"
   xml:space="preserve"
   y="376"
   clip-path="url(#clipPath50)"
   id="text464"
   style="fill:#000000;stroke:none">Konfigurerings-</text>

      <text
   x="872"
   xml:space="preserve"
   y="391"
   clip-path="url(#clipPath50)"
   id="text466"
   style="fill:#000000;stroke:none">tjeneste</text>

      <rect
   x="34"
   y="277"
   clip-path="url(#clipPath51)"
   width="133"
   rx="10"
   ry="10"
   height="55"
   id="rect468"
   style="fill:#b5ffff;stroke:none" />
      <rect
   x="34"
   y="277"
   clip-path="url(#clipPath51)"
   width="132"
   rx="10"
   ry="10"
   height="54"
   id="rect470"
   style="fill:none;stroke:#7eb2b2" />
      <rect
   x="146"
   y="284"
   clip-path="url(#clipPath51)"
   width="16"
   rx="4"
   ry="4"
   height="9"
   id="rect472"
   style="fill:none;stroke:#000000" />
      <text
   x="74"
   xml:space="preserve"
   y="295"
   clip-path="url(#clipPath52)"
   id="text474"
   style="fill:#000000;stroke:none">UX design</text>

      <text
   x="80"
   xml:space="preserve"
   y="310"
   clip-path="url(#clipPath52)"
   id="text476"
   style="fill:#000000;stroke:none">tjeneste</text>

      <line
   clip-path="url(#clipPath53)"
   x1="388"
   x2="388"
   y1="277"
   y2="88"
   id="line478"
   style="fill:none;stroke:#000000" />
      <line
   clip-path="url(#clipPath54)"
   x1="391"
   x2="388"
   y1="95"
   y2="88"
   id="line480"
   style="fill:none;stroke:#000000" />
      <line
   clip-path="url(#clipPath54)"
   x1="388"
   x2="385"
   y1="88"
   y2="95"
   id="line482"
   style="fill:none;stroke:#000000" />
      <line
   clip-path="url(#clipPath55)"
   x1="172"
   x2="172"
   y1="358"
   y2="172"
   id="line484"
   style="fill:none;stroke:#000000" />
      <line
   clip-path="url(#clipPath56)"
   x1="175"
   x2="172"
   y1="179"
   y2="172"
   id="line486"
   style="fill:none;stroke:#000000" />
      <line
   clip-path="url(#clipPath56)"
   x1="172"
   x2="169"
   y1="172"
   y2="179"
   id="line488"
   style="fill:none;stroke:#000000" />
      <line
   clip-path="url(#clipPath57)"
   x1="100"
   x2="100"
   y1="277"
   y2="88"
   id="line490"
   style="fill:none;stroke:#000000" />
      <line
   clip-path="url(#clipPath58)"
   x1="103"
   x2="100"
   y1="95"
   y2="88"
   id="line492"
   style="fill:none;stroke:#000000" />
      <line
   clip-path="url(#clipPath58)"
   x1="100"
   x2="97"
   y1="88"
   y2="95"
   id="line494"
   style="fill:none;stroke:#000000" />
      <line
   clip-path="url(#clipPath59)"
   x1="244"
   x2="244"
   y1="277"
   y2="88"
   id="line496"
   style="fill:none;stroke:#000000" />
      <line
   clip-path="url(#clipPath60)"
   x1="247"
   x2="244"
   y1="95"
   y2="88"
   id="line498"
   style="fill:none;stroke:#000000" />
      <line
   clip-path="url(#clipPath60)"
   x1="244"
   x2="241"
   y1="88"
   y2="95"
   id="line500"
   style="fill:none;stroke:#000000" />
      <line
   clip-path="url(#clipPath61)"
   x1="604"
   x2="604"
   y1="358"
   y2="172"
   id="line502"
   style="fill:none;stroke:#000000" />
      <line
   clip-path="url(#clipPath62)"
   x1="607"
   x2="604"
   y1="179"
   y2="172"
   id="line504"
   style="fill:none;stroke:#000000" />
      <line
   clip-path="url(#clipPath62)"
   x1="604"
   x2="601"
   y1="172"
   y2="179"
   id="line506"
   style="fill:none;stroke:#000000" />
      <line
   clip-path="url(#clipPath63)"
   x1="748"
   x2="748"
   y1="358"
   y2="172"
   id="line508"
   style="fill:none;stroke:#000000" />
      <line
   clip-path="url(#clipPath64)"
   x1="751"
   x2="748"
   y1="179"
   y2="172"
   id="line510"
   style="fill:none;stroke:#000000" />
      <line
   clip-path="url(#clipPath64)"
   x1="748"
   x2="745"
   y1="172"
   y2="179"
   id="line512"
   style="fill:none;stroke:#000000" />
      <line
   clip-path="url(#clipPath65)"
   x1="316"
   x2="316"
   y1="360"
   y2="172"
   id="line514"
   style="fill:none;stroke:#000000" />
      <line
   clip-path="url(#clipPath66)"
   x1="319"
   x2="316"
   y1="179"
   y2="172"
   id="line516"
   style="fill:none;stroke:#000000" />
      <line
   clip-path="url(#clipPath66)"
   x1="316"
   x2="313"
   y1="172"
   y2="179"
   id="line518"
   style="fill:none;stroke:#000000" />
      <line
   clip-path="url(#clipPath67)"
   x1="460"
   x2="460"
   y1="358"
   y2="172"
   id="line520"
   style="fill:none;stroke:#000000" />
      <line
   clip-path="url(#clipPath68)"
   x1="463"
   x2="460"
   y1="179"
   y2="172"
   id="line522"
   style="fill:none;stroke:#000000" />
      <line
   clip-path="url(#clipPath68)"
   x1="460"
   x2="457"
   y1="172"
   y2="179"
   id="line524"
   style="fill:none;stroke:#000000" />
      <line
   clip-path="url(#clipPath69)"
   x1="820"
   x2="820"
   y1="277"
   y2="88"
   id="line526"
   style="fill:none;stroke:#000000" />
      <line
   clip-path="url(#clipPath70)"
   x1="823"
   x2="820"
   y1="95"
   y2="88"
   id="line528"
   style="fill:none;stroke:#000000" />
      <line
   clip-path="url(#clipPath70)"
   x1="820"
   x2="817"
   y1="88"
   y2="95"
   id="line530"
   style="fill:none;stroke:#000000" />
      <line
   clip-path="url(#clipPath71)"
   x1="532"
   x2="532"
   y1="277"
   y2="88"
   id="line532"
   style="fill:none;stroke:#000000" />
      <line
   clip-path="url(#clipPath72)"
   x1="535"
   x2="532"
   y1="95"
   y2="88"
   id="line534"
   style="fill:none;stroke:#000000" />
      <line
   clip-path="url(#clipPath72)"
   x1="532"
   x2="529"
   y1="88"
   y2="95"
   id="line536"
   style="fill:none;stroke:#000000" />
      <line
   clip-path="url(#clipPath73)"
   x1="676"
   x2="676"
   y1="277"
   y2="88"
   id="line538"
   style="fill:none;stroke:#000000" />
      <line
   clip-path="url(#clipPath74)"
   x1="679"
   x2="676"
   y1="95"
   y2="88"
   id="line540"
   style="fill:none;stroke:#000000" />
      <line
   clip-path="url(#clipPath74)"
   x1="676"
   x2="673"
   y1="88"
   y2="95"
   id="line542"
   style="fill:none;stroke:#000000" />
      <line
   clip-path="url(#clipPath75)"
   x1="892"
   x2="892"
   y1="358"
   y2="172"
   id="line544"
   style="fill:none;stroke:#000000" />
      <line
   clip-path="url(#clipPath76)"
   x1="895"
   x2="892"
   y1="179"
   y2="172"
   id="line546"
   style="fill:none;stroke:#000000" />
      <line
   clip-path="url(#clipPath76)"
   x1="892"
   x2="889"
   y1="172"
   y2="179"
   id="line548"
   style="fill:none;stroke:#000000" />
    </g>
  </g>
</svg>