<?xml version="1.0" encoding="UTF-8" standalone="no"?>
<!DOCTYPE svg PUBLIC "-//W3C//DTD SVG 1.1//EN" "http://www.w3.org/Graphics/SVG/1.1/DTD/svg11.dtd">
<!-- Generated by Microsoft Visio, SVG Export authorization_rule_defined_by_user.svg Page-1 -->
<svg xmlns="http://www.w3.org/2000/svg" xmlns:xlink="http://www.w3.org/1999/xlink" xmlns:ev="http://www.w3.org/2001/xml-events"
		xmlns:v="http://schemas.microsoft.com/visio/2003/SVGExtensions/" width="9.81897in" height="7.82158in"
		viewBox="0 0 706.966 563.154" xml:space="preserve" color-interpolation-filters="sRGB" class="st8">
	<v:documentProperties v:langID="1033" v:metric="true" v:viewMarkup="false">
		<v:userDefs>
			<v:ud v:nameU="DisableSpdActionTags" v:prompt="" v:val="VT0(0):26"/>
		</v:userDefs>
	</v:documentProperties>

	<style type="text/css">
	<![CDATA[
		.st1 {stroke:#5b9bd5;stroke-linecap:round;stroke-linejoin:round;stroke-width:3}
		.st2 {fill:#ffffff;stroke:none;stroke-linecap:butt;stroke-width:7.2}
		.st3 {fill:#4f87bb;font-family:Calibri;font-size:1.00001em}
		.st4 {stroke:#5b9bd5;stroke-linecap:round;stroke-linejoin:round;stroke-width:1}
		.st5 {fill:#ffffff;stroke:none;stroke-linecap:butt}
		.st6 {fill:none;stroke:none;stroke-width:0.25}
		.st7 {fill:#5b9bd5;font-family:Calibri;font-size:1.99999em}
		.st8 {fill:none;fill-rule:evenodd;font-size:12px;overflow:visible;stroke-linecap:square;stroke-miterlimit:3}
	]]>
	</style>

	<g v:mID="0" v:index="1" v:groupContext="foregroundPage">
		<title>Page-1</title>
		<v:pageProperties v:drawingScale="0.0393701" v:pageScale="0.0393701" v:drawingUnits="24" v:shadowOffsetX="8.50394"
				v:shadowOffsetY="-8.50394"/>
		<g id="shape1-1" v:mID="1" v:groupContext="shape" transform="translate(-163.932,9.13768) rotate(-61.4486)">
			<title>Sheet.1</title>
			<desc>Condition</desc>
			<v:textBlock v:margins="rect(4,4,4,4)" v:tabSpace="42.5197"/>
			<v:textRect cx="109.721" cy="563.154" width="219.45" height="0"/>
			<path d="M0 563.15 L219.44 563.15" class="st1"/>
			<rect v:rectContext="textBkgnd" x="85.973" y="555.954" width="47.4966" height="14.4001" class="st2"/>
			<text x="85.97" y="566.75" class="st3" v:langID="1044"><v:paragraph v:horizAlign="1"/><v:tabList/>Condition</text>		</g>
		<g id="shape10-6" v:mID="10" v:groupContext="shape" transform="translate(389.097,-119.87) rotate(-10)">
			<title>Sheet.10</title>
			<desc>App</desc>
			<v:textBlock v:margins="rect(4,4,4,4)" v:tabSpace="42.5197"/>
			<v:textRect cx="70.8661" cy="563.154" width="141.74" height="0"/>
			<path d="M0 563.15 L141.73 563.15" class="st4"/>
			<rect v:rectContext="textBkgnd" x="61.0898" y="555.954" width="19.5529" height="14.4001" class="st2"/>
			<text x="61.09" y="566.75" class="st3" v:langID="1044"><v:paragraph v:horizAlign="1"/><v:tabList/>App</text>		</g>
		<g id="shape14-11" v:mID="14" v:groupContext="shape" transform="translate(633.048,-108.368) rotate(15)">
			<title>Sheet.14</title>
			<desc>Task</desc>
			<v:textBlock v:margins="rect(4,4,4,4)" v:tabSpace="42.5197"/>
			<v:textRect cx="70.8661" cy="563.154" width="141.74" height="0"/>
			<path d="M0 563.15 L141.73 563.15" class="st4"/>
			<rect v:rectContext="textBkgnd" x="59.9941" y="555.954" width="21.7441" height="14.4001" class="st2"/>
			<text x="59.99" y="566.75" class="st3" v:langID="1044"><v:paragraph v:horizAlign="1"/><v:tabList/>Task</text>		</g>
		<g id="shape16-16" v:mID="16" v:groupContext="shape" transform="translate(849.802,5.31277) rotate(40)">
			<title>Sheet.16</title>
			<desc>party</desc>
			<v:textBlock v:margins="rect(4,4,4,4)" v:tabSpace="42.5197"/>
			<v:textRect cx="70.8661" cy="563.154" width="141.74" height="0"/>
			<path d="M0 563.15 L141.73 563.15" class="st4"/>
			<rect v:rectContext="textBkgnd" x="58.0224" y="555.954" width="25.6877" height="14.4001" class="st2"/>
			<text x="58.02" y="566.75" class="st3" v:langID="1044"><v:paragraph v:horizAlign="1"/><v:tabList/>party</text>		</g>
		<g id="shape17-21" v:mID="17" v:groupContext="shape" transform="translate(167.285,-27.1818) rotate(-35)">
			<title>Sheet.17</title>
			<desc>Org</desc>
			<v:textBlock v:margins="rect(4,4,4,4)" v:tabSpace="42.5197"/>
			<v:textRect cx="70.8661" cy="563.154" width="141.74" height="0"/>
			<path d="M0 563.15 L141.73 563.15" class="st4"/>
			<rect v:rectContext="textBkgnd" x="61.9774" y="555.954" width="17.7773" height="14.4001" class="st2"/>
			<text x="61.98" y="566.75" class="st3" v:langID="1044"><v:paragraph v:horizAlign="1"/><v:tabList/>Org</text>		</g>
		<g id="shape28-26" v:mID="28" v:groupContext="shape" transform="translate(997.032,196.202) rotate(65)">
			<title>Sheet.28</title>
			<desc>Instance</desc>
			<v:textBlock v:margins="rect(4,4,4,4)" v:tabSpace="42.5197"/>
			<v:textRect cx="70.8661" cy="563.154" width="141.74" height="0"/>
			<path d="M0 563.15 L141.73 563.15" class="st4"/>
			<rect v:rectContext="textBkgnd" x="50.2965" y="555.954" width="41.1391" height="14.4001" class="st5"/>
			<text x="50.3" y="566.75" class="st3" v:langID="1044"><v:paragraph v:horizAlign="1"/><v:tabList/>Instance</text>		</g>
		<g id="shape31-31" v:mID="31" v:groupContext="shape" transform="translate(728.946,-119.915) rotate(45)">
			<title>Sheet.31</title>
			<desc>Resource</desc>
			<v:textBlock v:margins="rect(4,4,4,4)" v:tabSpace="42.5197"/>
			<v:textRect cx="110.242" cy="563.154" width="220.49" height="0"/>
			<path d="M0 563.15 L220.48 563.15" class="st1"/>
			<rect v:rectContext="textBkgnd" x="87.7212" y="555.954" width="45.0415" height="14.4001" class="st2"/>
			<text x="87.72" y="566.75" class="st3" v:langID="1044"><v:paragraph v:horizAlign="1"/><v:tabList/>Resource</text>		</g>
		<g id="shape32-36" v:mID="32" v:groupContext="shape" transform="translate(208.036,-156.159) rotate(-45)">
			<title>Sheet.32</title>
			<desc>Authentication Level</desc>
			<v:textBlock v:margins="rect(4,4,4,4)" v:tabSpace="42.5197"/>
			<v:textRect cx="70.8661" cy="563.154" width="141.74" height="0"/>
			<path d="M0 563.15 L141.73 563.15" class="st4"/>
			<rect v:rectContext="textBkgnd" x="20.5043" y="555.954" width="100.724" height="14.4001" class="st2"/>
			<text x="20.5" y="566.75" class="st3" v:langID="1044"><v:paragraph v:horizAlign="1"/><v:tabList/>Authentication Level</text>		</g>
		<g id="shape33-41" v:mID="33" v:groupContext="shape" transform="translate(145.878,-397.361) rotate(-30.9638)">
			<title>Sheet.33</title>
			<desc>Valid To</desc>
			<v:textBlock v:margins="rect(4,4,4,4)" v:tabSpace="42.5197"/>
			<v:textRect cx="66.1147" cy="563.154" width="132.23" height="0"/>
			<path d="M0 563.15 L132.23 563.15" class="st4"/>
			<rect v:rectContext="textBkgnd" x="46.4856" y="555.954" width="39.2583" height="14.4001" class="st2"/>
			<text x="46.49" y="566.75" class="st3" v:langID="1044"><v:paragraph v:horizAlign="1"/><v:tabList/>Valid To</text>		</g>
		<g id="shape37-46" v:mID="37" v:groupContext="shape" transform="translate(572.279,-459.535) rotate(14.1068)">
			<title>Sheet.37</title>
			<desc>SRR Condition</desc>
			<v:textBlock v:margins="rect(4,4,4,4)" v:tabSpace="42.5197"/>
			<v:textRect cx="67.5318" cy="563.154" width="135.07" height="0"/>
			<path d="M0 563.15 L135.06 563.15" class="st4"/>
			<rect v:rectContext="textBkgnd" x="33.1545" y="555.954" width="68.7546" height="14.4001" class="st2"/>
			<text x="33.15" y="566.75" class="st3" v:langID="1044"><v:paragraph v:horizAlign="1"/><v:tabList/>SRR Condition</text>		</g>
		<g id="shape38-51" v:mID="38" v:groupContext="shape" transform="translate(-218.302,43.9713) rotate(-46.6366)">
			<title>Sheet.38</title>
			<desc>Action</desc>
			<v:textBlock v:margins="rect(4,4,4,4)" v:tabSpace="42.5197"/>
			<v:textRect cx="105.274" cy="563.154" width="210.55" height="0"/>
			<path d="M0 563.15 L210.55 563.15" class="st1"/>
			<rect v:rectContext="textBkgnd" x="89.5616" y="555.954" width="31.4242" height="14.4001" class="st2"/>
			<text x="89.56" y="566.75" class="st3" v:langID="1044"><v:paragraph v:horizAlign="1"/><v:tabList/>Action</text>		</g>
		<g id="shape39-56" v:mID="39" v:groupContext="shape" transform="translate(498.807,-319.362) rotate(40.6013)">
			<title>Sheet.39</title>
			<desc>Subject</desc>
			<v:textBlock v:margins="rect(4,4,4,4)" v:tabSpace="42.5197"/>
			<v:textRect cx="130.671" cy="563.154" width="261.35" height="0"/>
			<path d="M0 563.15 L261.34 563.15" class="st1"/>
			<rect v:rectContext="textBkgnd" x="112.641" y="555.954" width="36.0591" height="14.4001" class="st5"/>
			<text x="112.64" y="566.75" class="st3" v:langID="1044"><v:paragraph v:horizAlign="1"/><v:tabList/>Subject</text>		</g>
		<g id="shape41-61" v:mID="41" v:groupContext="shape" transform="translate(223.008,-465.808) rotate(23.2729)">
			<title>Sheet.41</title>
			<desc>UserID</desc>
			<v:textBlock v:margins="rect(4,4,4,4)" v:tabSpace="42.5197"/>
			<v:textRect cx="71.743" cy="563.154" width="143.49" height="0"/>
			<path d="M0 563.15 L143.49 563.15" class="st4"/>
			<rect v:rectContext="textBkgnd" x="55.2664" y="555.954" width="32.9532" height="14.4001" class="st2"/>
			<text x="55.27" y="566.75" class="st3" v:langID="1044"><v:paragraph v:horizAlign="1"/><v:tabList/>UserID</text>		</g>
		<g id="shape42-66" v:mID="42" v:groupContext="shape" transform="translate(-173.333,-383.518) rotate(-18.4349)">
			<title>Sheet.42</title>
			<desc>Party</desc>
			<v:textBlock v:margins="rect(4,4,4,4)" v:tabSpace="42.5197"/>
			<v:textRect cx="67.2295" cy="563.154" width="134.46" height="0"/>
			<path d="M0 563.15 L134.46 563.15" class="st4"/>
			<rect v:rectContext="textBkgnd" x="54.4384" y="555.954" width="25.5822" height="14.4001" class="st2"/>
			<text x="54.44" y="566.75" class="st3" v:langID="1044"><v:paragraph v:horizAlign="1"/><v:tabList/>Party</text>		</g>
		<g id="shape43-71" v:mID="43" v:groupContext="shape" transform="translate(-416.109,-76.8686) rotate(-57.9946)">
			<title>Sheet.43</title>
			<desc>Role</desc>
			<v:textBlock v:margins="rect(4,4,4,4)" v:tabSpace="42.5197"/>
			<v:textRect cx="66.855" cy="563.154" width="133.71" height="0"/>
			<path d="M0 563.15 L133.71 563.15" class="st4"/>
			<rect v:rectContext="textBkgnd" x="56.0706" y="555.954" width="21.5686" height="14.4001" class="st2"/>
			<text x="56.07" y="566.75" class="st3" v:langID="1044"><v:paragraph v:horizAlign="1"/><v:tabList/>Role</text>		</g>
		<g id="shape46-76" v:mID="46" v:groupContext="shape" transform="translate(372.731,-118.962) rotate(32.1827)">
			<title>Sheet.46</title>
			<desc>Read</desc>
			<v:textBlock v:margins="rect(4,4,4,4)" v:tabSpace="42.5197"/>
			<v:textRect cx="68.1965" cy="563.154" width="136.4" height="0"/>
			<path d="M0 563.15 L136.39 563.15" class="st4"/>
			<rect v:rectContext="textBkgnd" x="55.927" y="555.954" width="24.5393" height="14.4001" class="st2"/>
			<text x="55.93" y="566.75" class="st3" v:langID="1044"><v:paragraph v:horizAlign="1"/><v:tabList/>Read</text>		</g>
		<g id="shape47-81" v:mID="47" v:groupContext="shape" transform="translate(114.724,-145.076) rotate(6.58879)">
			<title>Sheet.47</title>
			<desc>Write</desc>
			<v:textBlock v:margins="rect(4,4,4,4)" v:tabSpace="42.5197"/>
			<v:textRect cx="70.9748" cy="563.154" width="141.95" height="0"/>
			<path d="M0 563.15 L141.95 563.15" class="st4"/>
			<rect v:rectContext="textBkgnd" x="57.1729" y="555.954" width="27.604" height="14.4001" class="st2"/>
			<text x="57.17" y="566.75" class="st3" v:langID="1044"><v:paragraph v:horizAlign="1"/><v:tabList/>Write</text>		</g>
		<g id="shape48-86" v:mID="48" v:groupContext="shape" transform="translate(-104.098,-68.9329) rotate(-16.4925)">
			<title>Sheet.48</title>
			<desc>Sign</desc>
			<v:textBlock v:margins="rect(4,4,4,4)" v:tabSpace="42.5197"/>
			<v:textRect cx="68.8532" cy="563.154" width="137.71" height="0"/>
			<path d="M0 563.15 L137.71 563.15" class="st4"/>
			<rect v:rectContext="textBkgnd" x="58.7428" y="555.954" width="20.2209" height="14.4001" class="st2"/>
			<text x="58.74" y="566.75" class="st3" v:langID="1044"><v:paragraph v:horizAlign="1"/><v:tabList/>Sign</text>		</g>
		<g id="shape49-91" v:mID="49" v:groupContext="shape" transform="translate(-305.876,132.686) rotate(-45.4516)">
			<title>Sheet.49</title>
			<desc>Delete</desc>
			<v:textBlock v:margins="rect(4,4,4,4)" v:tabSpace="42.5197"/>
			<v:textRect cx="69.5047" cy="563.154" width="139.01" height="0"/>
			<path d="M0 563.15 L139.01 563.15" class="st4"/>
			<rect v:rectContext="textBkgnd" x="53.4705" y="555.954" width="32.0688" height="14.4001" class="st2"/>
			<text x="53.47" y="566.75" class="st3" v:langID="1044"><v:paragraph v:horizAlign="1"/><v:tabList/>Delete</text>		</g>
		<g id="shape50-96" v:mID="50" v:groupContext="shape" transform="translate(-376.86,538.565) rotate(-88.7937)">
			<title>Sheet.50</title>
			<desc>Confirm</desc>
			<v:textBlock v:margins="rect(4,4,4,4)" v:tabSpace="42.5197"/>
			<v:textRect cx="59.5179" cy="563.154" width="119.04" height="0"/>
			<path d="M0 563.15 L119.04 563.15" class="st4"/>
			<rect v:rectContext="textBkgnd" x="39.9095" y="555.954" width="39.2171" height="14.4001" class="st2"/>
			<text x="39.91" y="566.75" class="st3" v:langID="1044"><v:paragraph v:horizAlign="1"/><v:tabList/>Confirm</text>		</g>
		<g id="shape55-101" v:mID="55" v:groupContext="shape" transform="translate(214.516,-511.063)">
			<title>Sheet.55</title>
			<desc>Altinn user defined rule</desc>
			<v:textBlock v:margins="rect(4,4,4,4)" v:tabSpace="42.5197"/>
			<v:textRect cx="121.89" cy="545.863" width="243.78" height="34.5827"/>
			<rect x="0" y="528.571" width="243.78" height="34.5827" class="st6"/>
			<text x="7.03" y="553.06" class="st7" v:langID="1044"><v:paragraph v:horizAlign="1"/><v:tabList/>Altinn user defined rule</text>		</g>
		<g id="shape59-104" v:mID="59" v:groupContext="shape" transform="translate(497.786,-341.15) rotate(52.6507)">
			<title>Sheet.59</title>
			<desc>Keyroleforpartyid</desc>
			<v:textBlock v:margins="rect(4,4,4,4)" v:tabSpace="42.5197"/>
			<v:textRect cx="67.7504" cy="563.154" width="135.51" height="0"/>
			<path d="M0 563.15 L135.5 563.15" class="st4"/>
			<rect v:rectContext="textBkgnd" x="24.8535" y="555.954" width="85.7936" height="14.4001" class="st2"/>
			<text x="24.85" y="566.75" class="st3" v:langID="1044"><v:paragraph v:horizAlign="1"/><v:tabList/>Keyroleforpartyid</text>		</g>
		<g id="shape60-109" v:mID="60" v:groupContext="shape" transform="translate(262.374,-280.786) rotate(-7.48002)">
			<title>Sheet.60</title>
			<desc>Obligation</desc>
			<v:textBlock v:margins="rect(4,4,4,4)" v:tabSpace="42.5197"/>
			<v:textRect cx="137.416" cy="563.154" width="274.84" height="0"/>
			<path d="M0 563.15 L274.83 563.15" class="st1"/>
			<rect v:rectContext="textBkgnd" x="112.136" y="555.954" width="50.561" height="14.4001" class="st2"/>
			<text x="112.14" y="566.75" class="st3" v:langID="1044"><v:paragraph v:horizAlign="1"/><v:tabList/>Obligation</text>		</g>
		<g id="shape62-114" v:mID="62" v:groupContext="shape" transform="translate(1051.91,438.733) rotate(90)">
			<title>Sheet.62</title>
			<desc>Appresource</desc>
			<v:textBlock v:margins="rect(4,4,4,4)" v:tabSpace="42.5197"/>
			<v:textRect cx="61.5133" cy="563.154" width="123.03" height="0"/>
			<path d="M0 563.15 L123.03 563.15" class="st4"/>
			<rect v:rectContext="textBkgnd" x="30.3821" y="555.954" width="62.2623" height="14.4001" class="st2"/>
			<text x="30.38" y="566.75" class="st3" v:langID="1044"><v:paragraph v:horizAlign="1"/><v:tabList/>Appresource</text>		</g>
	</g>
</svg>
