<?xml version="1.0" encoding="UTF-8" standalone="no"?>
<svg
   version="1.1"
   width="160"
   height="50"
   viewBox="0 6 91.024 38.86"
   xmlns="http://www.w3.org/2000/svg"
   xmlns:svg="http://www.w3.org/2000/svg">
  <defs
     id="defs1">
    <clipPath
       id="clippath">
      <path
         class="cls-2"
         d="M 0,0 H 113.78 V 38.86 H 0 Z"
         id="path1" />
    </clipPath>
    <style
       id="style1">
      .cls-1{clip-path:url(#clippath)}.cls-2,.cls-3{fill:none;stroke-width:0}.cls-3{fill:#fff}
    </style>
  </defs>
  <g
     class="cls-1"
     clip-path="url(#clippath)"
     id="g2"
     transform="translate(-13.86234,-0.45450292)">
    <path
       class="cls-3"
       d="M 19.73,7.06 H 7.56 c -0.28,0 -0.5,0.22 -0.5,0.5 v 23.73 c 0,0.28 0.22,0.5 0.5,0.5 H 19.73 C 26.42,31.64 31.79,26.16 31.79,19.42 31.79,12.68 26.41,7.2 19.73,7.06 M 20.92,28.1 A 8.804,8.804 0 0 1 10.76,17.94 c 0.59,-3.65 3.54,-6.59 7.18,-7.18 A 8.8,8.8 0 0 1 28.1,20.92 c -0.59,3.65 -3.54,6.59 -7.18,7.18 M 48.46,10.66 h 3.31 c 0.07,0 0.13,0.01 0.17,0.04 l 5.81,17.36 c 0.03,0.13 -0.01,0.2 -0.13,0.2 h -2.59 c -0.05,0 -0.1,-0.04 -0.13,-0.12 l -1.14,-3.58 h -7.7 a 0.15,0.15 0 0 1 -0.15,-0.1 l -1.16,3.59 c -0.03,0.14 -0.07,0.21 -0.11,0.21 h -2.09 c -0.1,0 -0.15,-0.04 -0.13,-0.12 l 5.9,-17.36 c 0.03,-0.08 0.09,-0.12 0.16,-0.12 m -1.74,11.78 h 6.2 c 0.1,0 0.14,-0.04 0.1,-0.13 l -2.92,-9.15 c -0.05,-0.12 -0.14,-0.18 -0.27,-0.18 -0.13,0 -0.21,0.03 -0.24,0.1 l -2.96,9.14 c -0.03,0.14 0,0.22 0.1,0.22 m 15.8,-11.66 v 17.36 c 0,0.08 -0.04,0.12 -0.12,0.12 h -2.12 c -0.08,0 -0.13,-0.04 -0.13,-0.12 V 10.78 c 0,-0.08 0.04,-0.12 0.13,-0.12 h 2.12 c 0.08,0 0.12,0.04 0.12,0.12 m 10.07,15.48 v 1.88 c 0,0.08 -0.04,0.12 -0.13,0.12 h -1.92 c -2.18,0.05 -3.28,-0.94 -3.28,-2.95 v -7.69 c 0,-0.08 -0.04,-0.13 -0.12,-0.13 h -2.22 c -0.08,0 -0.12,-0.04 -0.12,-0.12 v -1.62 c 0,-0.08 0.04,-0.12 0.12,-0.12 h 2.22 c 0.08,0 0.12,-0.04 0.12,-0.13 v -3.37 c 0,-0.08 0.04,-0.12 0.13,-0.12 h 2.12 c 0.08,0 0.12,0.04 0.12,0.12 v 3.37 c 0,0.08 0.04,0.13 0.12,0.13 h 2.7 c 0.08,0 0.13,0.04 0.13,0.12 v 1.62 c 0,0.08 -0.04,0.12 -0.13,0.12 h -2.7 c -0.08,0 -0.12,0.05 -0.12,0.13 v 7.28 c 0,0.83 0.45,1.24 1.36,1.24 h 1.46 c 0.09,0 0.13,0.04 0.13,0.12 M 77.8,10.78 v 2.62 c 0,0.08 -0.04,0.13 -0.13,0.14 h -2.62 c -0.08,0 -0.12,-0.05 -0.12,-0.14 v -2.62 c 0,-0.08 0.04,-0.12 0.12,-0.12 h 2.62 c 0.09,0 0.13,0.04 0.13,0.12 m -0.26,4.96 v 12.4 c 0,0.08 -0.04,0.12 -0.12,0.12 h -2.14 c -0.08,0 -0.12,-0.04 -0.12,-0.12 v -12.4 c 0,-0.08 0.04,-0.12 0.12,-0.12 h 2.14 c 0.08,0 0.12,0.04 0.12,0.12 m 3.56,-0.12 h 1.88 c 0,0 0.09,0.04 0.12,0.12 l 0.26,1.12 c 0.02,0.07 0.07,0.1 0.13,0.1 0.06,0 0.11,-0.02 0.15,-0.07 0.73,-1.02 1.82,-1.53 3.26,-1.53 1.73,0 3.07,0.55 4.02,1.66 0.95,1.11 1.43,2.52 1.43,4.25 v 6.87 c 0,0.08 -0.04,0.12 -0.13,0.12 H 90.1 c -0.08,0 -0.12,-0.04 -0.12,-0.12 v -6.87 c 0,-1.07 -0.26,-1.97 -0.79,-2.7 -0.54,-0.72 -1.34,-1.09 -2.41,-1.09 -1.07,0 -1.91,0.37 -2.51,1.11 -0.6,0.74 -0.9,1.63 -0.9,2.67 v 6.87 c 0,0.08 -0.04,0.12 -0.12,0.12 h -2.14 c -0.08,0 -0.12,-0.04 -0.12,-0.12 v -12.4 c 0,-0.08 0.04,-0.12 0.12,-0.12 m 14.31,0.01 h 1.88 c 0,0 0.09,0.04 0.12,0.12 l 0.26,1.12 c 0.02,0.07 0.07,0.1 0.13,0.1 0.06,0 0.11,-0.02 0.15,-0.07 0.73,-1.02 1.82,-1.53 3.26,-1.53 1.73,0 3.07,0.55 4.02,1.66 0.95,1.11 1.43,2.52 1.43,4.25 v 6.87 c 0,0.08 -0.04,0.12 -0.13,0.12 h -2.12 c -0.08,0 -0.12,-0.04 -0.12,-0.12 v -6.87 c 0,-1.07 -0.26,-1.97 -0.79,-2.7 -0.54,-0.72 -1.34,-1.09 -2.41,-1.09 -1.07,0 -1.91,0.37 -2.51,1.11 -0.6,0.74 -0.9,1.63 -0.9,2.67 v 6.87 c 0,0.08 -0.04,0.12 -0.12,0.12 h -2.14 c -0.08,0 -0.12,-0.04 -0.12,-0.12 v -12.4 c 0,-0.08 0.04,-0.12 0.12,-0.12"
       id="path2" />
  </g>
</svg>
