<svg id="Layer_1" data-name="Layer 1" xmlns="http://www.w3.org/2000/svg" version="1.1" width="200px" height="50px" viewBox="0 6 113.78 38.86">
  <defs>
    <clipPath id="clippath">
      <path class="cls-2" d="M0 0h113.78v38.86H0z"/>
    </clipPath>
    <style>
      .cls-1{clip-path:url(#clippath)}.cls-2,.cls-3{fill:none;stroke-width:0}.cls-3{fill:#fff}
    </style>
  </defs>
  <g class="cls-1">
    <path class="cls-3" d="M19.73 7.06H7.56c-.28 0-.5.22-.5.5v23.73c0 .28.22.5.5.5h12.17c6.69-.15 12.06-5.63 12.06-12.37S26.41 7.2 19.73 7.06m1.19 21.04a8.804 8.804 0 0 1-10.16-10.16c.59-3.65 3.54-6.59 7.18-7.18A8.8 8.8 0 0 1 28.1 20.92c-.59 3.65-3.54 6.59-7.18 7.18M48.46 10.66h3.31c.07 0 .13.01.17.04l5.81 17.36c.03.13-.01.2-.13.2h-2.59c-.05 0-.1-.04-.13-.12l-1.14-3.58h-7.7a.15.15 0 0 1-.15-.1l-1.16 3.59c-.03.14-.07.21-.11.21h-2.09c-.1 0-.15-.04-.13-.12l5.9-17.36c.03-.08.09-.12.16-.12m-1.74 11.78h6.2c.1 0 .14-.04.1-.13l-2.92-9.15c-.05-.12-.14-.18-.27-.18s-.21.03-.24.1l-2.96 9.14c-.03.14 0 .22.1.22M62.55 10.78v17.36c0 .08-.04.12-.12.12h-2.12c-.08 0-.13-.04-.13-.12V10.78c0-.08.04-.12.13-.12h2.12c.08 0 .12.04.12.12M72.62 26.26v1.88c0 .08-.04.12-.13.12h-1.92c-2.18.05-3.28-.94-3.28-2.95v-7.69c0-.08-.04-.13-.12-.13h-2.22c-.08 0-.12-.04-.12-.12v-1.62c0-.08.04-.12.12-.12h2.22c.08 0 .12-.04.12-.13v-3.37c0-.08.04-.12.13-.12h2.12c.08 0 .12.04.12.12v3.37c0 .08.04.13.12.13h2.7c.08 0 .13.04.13.12v1.62c0 .08-.04.12-.13.12h-2.7c-.08 0-.12.05-.12.13v7.28c0 .83.45 1.24 1.36 1.24h1.46c.09 0 .13.04.13.12M77.8 10.78v2.62c0 .08-.04.13-.13.14h-2.62c-.08 0-.12-.05-.12-.14v-2.62c0-.08.04-.12.12-.12h2.62c.09 0 .13.04.13.12m-.26 4.96v12.4c0 .08-.04.12-.12.12h-2.14c-.08 0-.12-.04-.12-.12v-12.4c0-.08.04-.12.12-.12h2.14c.08 0 .12.04.12.12M81.1 15.62h1.88s.09.04.12.12l.26 1.12c.02.07.07.1.13.1s.11-.02.15-.07c.73-1.02 1.82-1.53 3.26-1.53 1.73 0 3.07.55 4.02 1.66.95 1.11 1.43 2.52 1.43 4.25v6.87c0 .08-.04.12-.13.12H90.1c-.08 0-.12-.04-.12-.12v-6.87c0-1.07-.26-1.97-.79-2.7-.54-.72-1.34-1.09-2.41-1.09s-1.91.37-2.51 1.11c-.6.74-.9 1.63-.9 2.67v6.87c0 .08-.04.12-.12.12h-2.14c-.08 0-.12-.04-.12-.12v-12.4c0-.08.04-.12.12-.12M95.42 15.62h1.88s.09.04.12.12l.26 1.12c.02.07.07.1.13.1s.11-.02.15-.07c.73-1.02 1.82-1.53 3.26-1.53 1.73 0 3.07.55 4.02 1.66.95 1.11 1.43 2.52 1.43 4.25v6.87c0 .08-.04.12-.13.12h-2.12c-.08 0-.12-.04-.12-.12v-6.87c0-1.07-.26-1.97-.79-2.7-.54-.72-1.34-1.09-2.41-1.09s-1.91.37-2.51 1.11c-.6.74-.9 1.63-.9 2.67v6.87c0 .08-.04.12-.12.12h-2.14c-.08 0-.12-.04-.12-.12v-12.4c0-.08.04-.12.12-.12"/>
  </g>
</svg>
