<svg width="247" height="30" viewBox="0 0 247 30" fill="none" xmlns="http://www.w3.org/2000/svg">
<g clip-path="url(#clip0)">
<path d="M14.9182 0H0.588722C0.259038 0 0 0.259038 0 0.588722V28.5295C0 28.8592 0.259038 29.1182 0.588722 29.1182H14.9182C22.7953 28.9416 29.1182 22.4892 29.1182 14.5532C29.1182 6.62901 22.7836 0.176617 14.9182 0ZM16.3076 24.7617C9.21939 25.9273 3.20265 19.8988 4.35655 12.8106C5.06301 8.51293 8.5247 5.05124 12.8106 4.35655C19.9106 3.20265 25.9273 9.21939 24.7734 16.3194C24.067 20.6053 20.6053 24.067 16.3076 24.7617Z" fill="white"/>
<path d="M48.7462 4.23877H52.6436C52.726 4.23877 52.7966 4.25054 52.8437 4.28587L59.6847 24.7263C59.72 24.8794 59.6729 24.9618 59.5316 24.9618H56.482C56.4232 24.9618 56.3643 24.9147 56.329 24.8205L54.9867 20.6053C54.9631 20.6053 54.8925 20.6053 54.763 20.6053H45.9203C45.8379 20.6053 45.7791 20.5699 45.7437 20.4875L44.3779 24.7145C44.3426 24.8794 44.2955 24.9618 44.2484 24.9618H41.7875C41.6698 24.9618 41.6109 24.9147 41.6345 24.8205L48.5814 4.38006C48.6049 4.28587 48.6638 4.23877 48.7462 4.23877ZM46.7092 18.1091H54.0094C54.1271 18.1091 54.1625 18.062 54.1271 17.956L50.689 7.18238C50.6301 7.04109 50.5242 6.97044 50.3711 6.97044C50.218 6.97044 50.1238 7.00576 50.0767 7.08819L46.5915 17.85C46.5562 18.0266 46.5915 18.1091 46.7092 18.1091Z" fill="white"/>
<path d="M65.3364 4.38006V24.8205C65.3364 24.9147 65.2893 24.9618 65.1951 24.9618H62.6989C62.6047 24.9618 62.5459 24.9147 62.5459 24.8205V4.38006C62.5459 4.28587 62.593 4.23877 62.6989 4.23877H65.1951C65.2775 4.23877 65.3364 4.28587 65.3364 4.38006Z" fill="white"/>
<path d="M77.1933 22.6069V24.8205C77.1933 24.9147 77.1462 24.9618 77.0402 24.9618H74.7795C72.2127 25.0207 70.9175 23.855 70.9175 21.4884V12.4338C70.9175 12.3396 70.8704 12.2808 70.7762 12.2808H68.1623C68.0681 12.2808 68.021 12.2337 68.021 12.1395V10.2202C68.021 10.126 68.0681 10.0789 68.1623 10.0789H70.7762C70.8704 10.0789 70.9175 10.0318 70.9175 9.92587V5.9461C70.9175 5.85191 70.9646 5.80481 71.0706 5.80481H73.5668C73.661 5.80481 73.708 5.85191 73.708 5.9461V9.91409C73.708 10.0083 73.7552 10.0672 73.8493 10.0672H77.0284C77.1226 10.0672 77.1815 10.1143 77.1815 10.2085V12.1159C77.1815 12.2101 77.1344 12.2572 77.0284 12.2572H73.8493C73.7552 12.2572 73.708 12.3043 73.708 12.4103V20.9821C73.708 21.9593 74.2379 22.4539 75.2976 22.4539H77.0167C77.1344 22.4656 77.1933 22.5127 77.1933 22.6069Z" fill="white"/>
<path d="M83.2806 4.38006V7.46497C83.2806 7.55916 83.2335 7.61804 83.1276 7.61804H80.0427C79.9485 7.61804 79.9014 7.57094 79.9014 7.46497V4.38006C79.9014 4.28587 79.9485 4.23877 80.0427 4.23877H83.1276C83.2335 4.23877 83.2806 4.28587 83.2806 4.38006ZM82.9863 10.2202V24.8205C82.9863 24.9147 82.9392 24.9618 82.845 24.9618H80.3252C80.2311 24.9618 80.184 24.9147 80.184 24.8205V10.2202C80.184 10.126 80.2311 10.0789 80.3252 10.0789H82.845C82.9274 10.0671 82.9863 10.1142 82.9863 10.2202Z" fill="white"/>
<path d="M87.178 10.0671H89.3916C89.4505 10.0671 89.4976 10.1142 89.5329 10.2084L89.839 11.5389C89.8626 11.6213 89.9215 11.6566 89.9921 11.6566C90.0627 11.6566 90.1216 11.6331 90.1687 11.5742C91.0283 10.3732 92.3117 9.77271 94.019 9.77271C96.0559 9.77271 97.6337 10.4203 98.7523 11.7273C99.8709 13.0342 100.436 14.6944 100.436 16.7314V24.8204C100.436 24.9146 100.389 24.9617 100.283 24.9617H97.7868C97.6926 24.9617 97.6455 24.9146 97.6455 24.8204V16.7314C97.6455 15.4715 97.3394 14.4118 96.7153 13.5523C96.0795 12.7045 95.1375 12.2689 93.8777 12.2689C92.6178 12.2689 91.6287 12.7045 90.9223 13.5759C90.2158 14.4472 89.8626 15.4951 89.8626 16.7196V24.8087C89.8626 24.9029 89.8155 24.95 89.7213 24.95H87.2015C87.1074 24.95 87.0603 24.9029 87.0603 24.8087V10.2201C87.0367 10.1142 87.0838 10.0671 87.178 10.0671Z" fill="white"/>
<path d="M104.039 10.0671H106.253C106.311 10.0671 106.359 10.1142 106.394 10.2084L106.7 11.5272C106.724 11.6096 106.782 11.6449 106.853 11.6449C106.924 11.6449 106.983 11.6213 107.03 11.5625C107.889 10.3615 109.173 9.76099 110.88 9.76099C112.917 9.76099 114.495 10.4086 115.613 11.7155C116.732 13.0225 117.297 14.6827 117.297 16.7197V24.8087C117.297 24.9029 117.25 24.95 117.144 24.95H114.648C114.554 24.95 114.507 24.9029 114.507 24.8087V16.7197C114.507 15.4598 114.2 14.4001 113.576 13.5406C112.941 12.6928 111.999 12.2572 110.739 12.2572C109.479 12.2572 108.49 12.6928 107.783 13.5641C107.077 14.4354 106.724 15.4834 106.724 16.7079V24.797C106.724 24.8912 106.676 24.9382 106.582 24.9382H104.063C103.968 24.9382 103.921 24.8912 103.921 24.797V10.2202C103.898 10.1142 103.945 10.0671 104.039 10.0671Z" fill="white"/>
<path d="M143.71 19.0724C143.71 17.262 143.126 15.8312 142.016 14.8092C141.111 13.9916 140.06 13.5536 138.162 13.2616L135.68 12.882C134.541 12.7068 133.928 12.4148 133.402 11.9476C132.847 11.4804 132.643 10.7796 132.643 10.0204C132.643 8.12242 133.957 6.77923 136.41 6.77923C138.191 6.77923 139.709 7.15883 140.994 8.38523L142.98 6.39962C141.198 4.73523 139.3 4.03442 136.526 4.03442C132.205 4.03442 129.577 6.48722 129.577 10.108C129.577 11.8308 130.102 13.174 131.124 14.1084C132.03 14.9844 133.344 15.51 135.037 15.7728L137.49 16.1232C138.541 16.2692 139.242 16.532 139.768 16.9992C140.352 17.4956 140.585 18.2256 140.585 19.16C140.585 21.204 139.038 22.372 136.293 22.372C134.19 22.372 132.468 21.8756 130.949 20.3572L128.876 22.4304C130.891 24.4452 133.11 25.1752 136.234 25.1752C140.614 25.1752 143.71 22.8976 143.71 19.0724Z" fill="white"/>
<path d="M153.779 25V22.4596H152.553C151.443 22.4596 150.917 21.8172 150.917 20.7368V12.4732H153.779V10.1956H150.917V5.96163H147.939V10.1956H146.245V12.4732H147.939V20.8828C147.939 23.0144 149.224 25 151.998 25H153.779Z" fill="white"/>
<path d="M169.424 25V10.1956H166.446V19.2184C166.446 21.496 165.044 22.518 163.38 22.518C161.715 22.518 160.401 21.5252 160.401 19.2184V10.1956H157.423V19.6564C157.423 21.3208 157.773 22.7224 158.912 23.832C159.788 24.6788 161.044 25.1752 162.562 25.1752C164.051 25.1752 165.482 24.6204 166.504 23.5108V25H169.424Z" fill="white"/>
<path d="M185.582 25V4.20963H182.604V11.6848C181.524 10.4 180.297 10.0204 178.72 10.0204C177.231 10.0204 175.946 10.5168 175.129 11.3344C173.698 12.7944 173.464 15.1596 173.464 17.5832C173.464 20.036 173.698 22.4012 175.129 23.8612C175.946 24.6788 177.26 25.1752 178.75 25.1752C180.356 25.1752 181.553 24.7664 182.662 23.4232V25H185.582ZM182.604 17.5832C182.604 20.2112 182.224 22.518 179.538 22.518C176.822 22.518 176.443 20.2112 176.443 17.5832C176.443 14.9552 176.822 12.6776 179.538 12.6776C182.224 12.6776 182.604 14.9552 182.604 17.5832Z" fill="white"/>
<path d="M193.283 25V10.1956H190.305V25H193.283ZM193.371 7.27562V4.12202H190.217V7.27562H193.371Z" fill="white"/>
<path d="M209.655 17.5832C209.655 15.1012 209.305 13.2324 207.903 11.7724C206.939 10.7796 205.479 10.0204 203.465 10.0204C201.45 10.0204 200.019 10.7796 199.055 11.7724C197.654 13.2324 197.303 15.1012 197.303 17.5832C197.303 20.0944 197.654 21.9632 199.055 23.4232C200.019 24.416 201.45 25.1752 203.465 25.1752C205.479 25.1752 206.939 24.416 207.903 23.4232C209.305 21.9632 209.655 20.0944 209.655 17.5832ZM206.677 17.5832C206.677 19.1892 206.56 20.7368 205.655 21.642C205.1 22.1968 204.341 22.518 203.465 22.518C202.589 22.518 201.859 22.1968 201.304 21.642C200.399 20.7368 200.282 19.1892 200.282 17.5832C200.282 15.9772 200.399 14.4296 201.304 13.5244C201.859 12.9696 202.589 12.6776 203.465 12.6776C204.341 12.6776 205.1 12.9696 205.655 13.5244C206.56 14.4296 206.677 15.9772 206.677 17.5832Z" fill="white"/>
</g>
<defs>
<clipPath id="clip0">
<rect width="246.333" height="29.1182" fill="white"/>
</clipPath>
</defs>
</svg>
