<svg width="117" height="117" viewBox="0 0 117 117" fill="none" xmlns="http://www.w3.org/2000/svg">
<circle cx="58.5" cy="58.5" r="58.5" fill="#022F51"/>
<g clip-path="url(#clip0)">
<path d="M63.5671 69.5447L80.8888 75.8492C81.8188 76.1877 83.013 75.8006 84.2852 74.6203C85.5575 73.4399 86.7218 71.3985 87.5141 69.2217C88.9666 65.2309 89.1831 60.5849 86.7649 59.7047L69.6292 53.4678L70.9497 49.8399L88.0854 56.0767C93.1078 57.9047 93.2811 64.9524 91.2343 70.5758C89.1876 76.1992 84.5247 81.4866 79.5023 79.6586L62.1806 73.354L62.2467 73.1726L63.5671 69.5447Z" fill="white"/>
<path d="M94.1575 72.086L91.186 71.0045Z" fill="white"/>
<path d="M94.1575 72.086L91.186 71.0045" stroke="white" stroke-width="3.10448" stroke-linecap="square"/>
<path d="M66.6472 72.1682L65.6567 71.8077Z" fill="white"/>
<path d="M66.6472 72.1682L65.6567 71.8077" stroke="white" stroke-width="3.8806" stroke-linecap="square"/>
<path d="M73.1365 54.3395L72.146 53.9789Z" fill="white"/>
<path d="M73.1365 54.3395L72.146 53.9789" stroke="white" stroke-width="3.8806" stroke-linecap="square"/>
<path d="M69.8919 63.2538L68.9014 62.8933Z" fill="white"/>
<path d="M69.8919 63.2538L68.9014 62.8933" stroke="white" stroke-width="3.8806" stroke-linecap="square"/>
<path d="M47.254 68.802L48.6273 65.0289L31.6033 58.8327C30.636 58.4806 29.9434 57.3739 29.7189 55.5831C29.4944 53.7921 29.9315 51.3875 30.7555 49.1236C32.2661 44.9732 35.1995 41.127 37.7144 42.0424L54.545 48.1682L55.9183 44.3951L39.0877 38.2693C33.8644 36.3681 29.015 41.8671 26.8864 47.7154C24.7578 53.5637 24.938 60.8933 30.1613 62.7944L47.1854 68.9906L47.254 68.802Z" fill="white"/>
<path d="M45.8001 66.2632L53.0103 46.4534Z" fill="white"/>
<path d="M45.8001 66.2632L53.0103 46.4534" stroke="white" stroke-width="3.10448" stroke-linecap="square"/>
<path d="M54.7232 52.5382L58.1899 53.8Z" fill="white"/>
<path d="M54.7232 52.5382L58.1899 53.8" stroke="white" stroke-width="3.10448" stroke-linecap="square"/>
<path d="M51.4786 61.4526L54.9453 62.7144Z" fill="white"/>
<path d="M51.4786 61.4526L54.9453 62.7144" stroke="white" stroke-width="3.10448" stroke-linecap="square"/>
<path d="M22.8425 46.1293L25.814 47.2108Z" fill="white"/>
<path d="M22.8425 46.1293L25.814 47.2108" stroke="white" stroke-width="3.10448" stroke-linecap="square"/>
</g>
<defs>
<clipPath id="clip0">
<rect width="78" height="43.2162" fill="white" transform="translate(19.5 37.5)"/>
</clipPath>
</defs>
</svg>
