<svg width="78" height="78" viewBox="0 0 78 78" fill="none" xmlns="http://www.w3.org/2000/svg">
<path fill-rule="evenodd" clip-rule="evenodd" d="M34.6676 49.3129H51.2851C51.4578 49.3129 51.6088 49.1619 51.6088 48.9892C51.6088 48.8166 51.4578 48.6655 51.2851 48.6655H34.6676V34.3571C36.6962 34.314 38.5306 34.1413 39.6744 33.3428C40.5592 32.7385 41.1419 31.7458 41.293 30.6667C41.4225 29.6956 41.1635 28.7676 40.5592 28.077C39.9118 27.3001 38.509 26.8037 37.1062 27.3216C35.984 27.7317 34.1065 29.1129 34.0201 33.7097H33.5885H24.8265V23.696H46.8394C47.012 23.696 47.1631 23.5449 47.1631 23.3723V18.6028C47.1631 18.4302 47.012 18.2791 46.8394 18.2791H24.4812C24.3086 18.2791 24.1575 18.4302 24.1575 18.6028C24.1575 18.7755 24.3086 18.9265 24.4812 18.9265H46.5157V23.0486H24.4812C24.3086 23.0486 24.1575 23.1996 24.1575 23.3723V34.0334C24.1575 34.2061 24.3086 34.3571 24.4812 34.3571H33.5669H33.9985V48.6655H20.4024V4.7114C25.9303 1.7068 32.2658 0 39 0C43.1726 0 47.1922 0.655281 50.9614 1.86855V37.0979C50.9614 37.2706 51.1125 37.4217 51.2851 37.4217H75.3266C75.4993 37.4217 75.6503 37.2706 75.6503 37.0979C75.6503 36.9253 75.4993 36.7742 75.3266 36.7742H51.6088V2.08327C57.644 4.144 63.0127 7.64304 67.3063 12.1716H56.2488C56.0762 12.1716 55.9251 12.3227 55.9251 12.4953V34.7456C55.9251 34.9182 56.0762 35.0693 56.2488 35.0693C56.4215 35.0693 56.5725 34.9182 56.5725 34.7456V12.819H67.9064C70.3244 15.4872 72.3782 18.4916 73.9892 21.7537H61.5794C61.4067 21.7537 61.2557 21.9048 61.2557 22.0774C61.2557 22.2501 61.4067 22.4011 61.5794 22.4011H74.3015C76.6738 27.4376 78 33.0639 78 39C78 44.807 76.7309 50.3175 74.4548 55.2694H56.5725V39.3856C56.5725 39.2129 56.4215 39.0618 56.2488 39.0618C56.0762 39.0618 55.9251 39.2129 55.9251 39.3856V55.5931C55.9251 55.7657 56.0546 55.9168 56.2488 55.9168H74.15C69.2185 66.1449 59.9541 73.8912 48.7385 76.7743V55.5931C48.7385 55.4204 48.5875 55.2694 48.4148 55.2694H37.171C36.9983 55.2694 36.8473 55.4204 36.8473 55.5931C36.8473 55.7657 36.9983 55.9168 37.171 55.9168H48.0911V76.9348C45.1742 77.6312 42.1302 78 39 78C32.9588 78 27.2384 76.6264 22.1342 74.1745H41.5088C41.6815 74.1745 41.8325 74.0234 41.8325 73.8508V68.9303C41.8325 68.7576 41.6815 68.6066 41.5088 68.6066H13.8201V55.9168H34.3438C34.5165 55.9168 34.6676 55.7657 34.6676 55.5931V49.3129ZM33.9985 49.3129H20.0786C19.8844 49.3129 19.7549 49.1834 19.7549 48.9892V5.07132C7.95736 11.7776 0 24.4595 0 39C0 50.6232 5.08469 61.0589 13.1511 68.2039V55.5931C13.1511 55.4204 13.3021 55.2693 13.4748 55.2693H33.9985V49.3129ZM14.4137 69.2756C16.417 70.9044 18.585 72.3384 20.889 73.5487H41.1635V69.2756H14.4137ZM40.0413 28.487C39.696 28.077 39.0054 27.7533 38.2501 27.7533C37.9479 27.7533 37.6242 27.818 37.3005 27.9259C36.5667 28.1849 35.9409 28.7892 35.4877 29.6524C34.9697 30.6667 34.6891 32.0264 34.646 33.6881C36.5236 33.6665 38.2932 33.4939 39.2859 32.8033C40.0197 32.2853 40.5161 31.4868 40.624 30.5804C40.7103 29.7819 40.5161 29.0481 40.0413 28.487ZM46.8394 14.1139H24.4596C24.287 14.1139 24.1575 13.9629 24.1575 13.7902C24.1575 13.6176 24.3086 13.4665 24.4812 13.4665H46.8394C47.012 13.4665 47.1631 13.6176 47.1631 13.7902C47.1631 13.9629 47.012 14.1139 46.8394 14.1139ZM75.3266 27.2569H61.5794C61.4067 27.2569 61.2557 27.1058 61.2557 26.9332C61.2557 26.7605 61.4067 26.6095 61.5794 26.6095H75.3266C75.4993 26.6095 75.6503 26.7605 75.6503 26.9332C75.6503 27.1058 75.4993 27.2569 75.3266 27.2569ZM61.5794 32.3285H75.3266C75.4993 32.3285 75.6503 32.1774 75.6503 32.0048C75.6503 31.8321 75.4993 31.6811 75.3266 31.6811H61.5794C61.4067 31.6811 61.2557 31.8321 61.2557 32.0048C61.2557 32.1774 61.4067 32.3285 61.5794 32.3285ZM41.5304 64.4414H20.2945C20.1002 64.4414 19.9707 64.2903 19.9707 64.1177C19.9707 63.945 20.1218 63.7939 20.2945 63.7939H41.5304C41.703 63.7939 41.8541 63.945 41.8541 64.1177C41.8541 64.2903 41.703 64.4414 41.5304 64.4414Z" fill="#6A6A6A"/>
</svg>
