<svg width="120" height="120" viewBox="0 0 120 120" fill="none" xmlns="http://www.w3.org/2000/svg">
<circle cx="60" cy="60" r="60" fill="#022F51"/>
<mask id="path-2-inside-1" fill="white">
<path d="M79.5566 33.3757L78.5613 38.6694L77.566 43.963L74.5801 59.844L73.8336 63.8143L73.4604 65.7994L73.0871 67.7845L72.7066 69.8085L72.4285 71.2876L72.1504 72.7668L71.5942 75.725L65.2763 74.5371L58.9584 73.3492L66.9209 31L79.5566 33.3757Z"/>
</mask>
<path d="M79.5566 33.3757L78.5613 38.6694L77.566 43.963L74.5801 59.844L73.8336 63.8143L73.4604 65.7994L73.0871 67.7845L72.7066 69.8085L72.4285 71.2876L72.1504 72.7668L71.5942 75.725L65.2763 74.5371L58.9584 73.3492L66.9209 31L79.5566 33.3757Z" fill="#022F51"/>
<path d="M78.5613 38.6694L79.5441 38.8542L79.7289 37.8714L78.7461 37.6866L78.5613 38.6694ZM73.0585 44.1331L77.3812 44.9458L77.7508 42.9803L73.4281 42.1675L73.0585 44.1331ZM78.7461 37.6866L73.0933 36.6238L72.7237 38.5893L78.3765 39.6522L78.7461 37.6866ZM77.5786 38.4846L75.5879 49.0719L77.5535 49.4415L79.5441 38.8542L77.5786 38.4846ZM75.5879 49.0719L74.5926 54.3656L76.5582 54.7351L77.5535 49.4415L75.5879 49.0719ZM74.5926 54.3656L73.5973 59.6592L75.5629 60.0288L76.5582 54.7351L74.5926 54.3656ZM75.7602 53.5676L70.1074 52.5047L69.7378 54.4703L75.3906 55.5331L75.7602 53.5676ZM73.6452 64.8166L69.3224 64.0038L68.9528 65.9694L73.2756 66.7822L73.6452 64.8166ZM72.6133 70.3049L66.9604 69.242L66.5909 71.2076L72.2437 72.2704L72.6133 70.3049ZM76.7555 48.2739L72.4595 47.4662L72.09 49.4317L76.3859 50.2395L76.7555 48.2739ZM79.5566 33.3757L81.5222 33.7453L81.8918 31.7797L79.9262 31.4102L79.5566 33.3757ZM71.5942 75.725L71.2246 77.6905L73.1902 78.0601L73.5597 76.0945L71.5942 75.725ZM58.9584 73.3492L56.9929 72.9797L56.6233 74.9452L58.5889 75.3148L58.9584 73.3492ZM66.9209 31L67.2905 29.0344L65.3249 28.6648L64.9553 30.6304L66.9209 31ZM60.924 73.7188L68.8865 31.3695L64.9553 30.6304L56.9929 72.9797L60.924 73.7188ZM66.5513 32.9655L79.1871 35.3413L79.9262 31.4102L67.2905 29.0344L66.5513 32.9655ZM77.5911 33.0062L76.5958 38.2998L80.5269 39.039L81.5222 33.7453L77.5911 33.0062ZM76.5958 38.2998L75.6005 43.5935L79.5316 44.3326L80.5269 39.039L76.5958 38.2998ZM75.6005 43.5935L72.6145 59.4744L76.5457 60.2136L79.5316 44.3326L75.6005 43.5935ZM72.6145 59.4744L71.8681 63.4447L75.7992 64.1838L76.5457 60.2136L72.6145 59.4744ZM71.8681 63.4447L71.4948 65.4298L75.4259 66.1689L75.7992 64.1838L71.8681 63.4447ZM71.4948 65.4298L71.1216 67.4149L75.0527 68.1541L75.4259 66.1689L71.4948 65.4298ZM71.1216 67.4149L70.741 69.439L74.6721 70.1781L75.0527 68.1541L71.1216 67.4149ZM70.1848 72.3972L69.6286 75.3554L73.5597 76.0945L74.1159 73.1363L70.1848 72.3972ZM70.741 69.439L70.4629 70.9181L74.394 71.6572L74.6721 70.1781L70.741 69.439ZM70.4629 70.9181L70.1848 72.3972L74.1159 73.1363L74.394 71.6572L70.4629 70.9181ZM71.9637 73.7594L65.6459 72.5715L64.9067 76.5027L71.2246 77.6905L71.9637 73.7594ZM65.6459 72.5715L59.328 71.3837L58.5889 75.3148L64.9067 76.5027L65.6459 72.5715Z" fill="white" mask="url(#path-2-inside-1)"/>
<mask id="path-4-inside-2" fill="white">
<path d="M47.088 77.6915L45.7475 72.7223L44.407 67.7531L43.0665 62.7839L41.726 57.8147L40.7206 54.0877L40.2179 52.2243L39.7153 50.3608L39.2027 48.4609L38.8282 47.0724L38.4536 45.6839L37.9412 43.7835L37.7045 42.907L39.8004 35.5619L44.7979 40.9935L45.0435 41.9048L54.1814 75.778L55.2324 79.8237C55.3714 80.3588 55.0497 80.9053 54.5143 81.0434L49.4275 82.3559C48.9019 82.4915 48.3641 82.183 48.2158 81.6609L47.088 77.6915Z"/>
</mask>
<path d="M47.088 77.6915L45.7475 72.7223L44.407 67.7531L43.0665 62.7839L41.726 57.8147L40.7206 54.0877L40.2179 52.2243L39.7153 50.3608L39.2027 48.4609L38.8282 47.0724L38.4536 45.6839L37.9412 43.7835L37.7045 42.907L39.8004 35.5619L44.7979 40.9935L45.0435 41.9048L54.1814 75.778L55.2324 79.8237C55.3714 80.3588 55.0497 80.9053 54.5143 81.0434L49.4275 82.3559C48.9019 82.4915 48.3641 82.183 48.2158 81.6609L47.088 77.6915Z" fill="#022F51"/>
<path d="M41.6126 42.8123L41.3569 41.8456L41.3569 41.8456L41.6126 42.8123ZM53.9209 74.8125L50.3742 75.7693L50.8951 77.7003L54.4418 76.7435L53.9209 74.8125ZM50.3742 75.7693L46.8276 76.726L47.3485 78.657L50.8951 77.7003L50.3742 75.7693ZM44.7878 40.938L41.3569 41.8456L41.8683 43.7791L45.2993 42.8715L44.7878 40.938ZM41.3569 41.8456L37.6854 42.8168L38.1969 44.7503L41.8683 43.7791L41.3569 41.8456ZM38.8349 35.8223L39.6775 38.9457L41.6084 38.4248L40.7659 35.3014L38.8349 35.8223ZM47.088 77.6915L45.157 78.2124L45.1605 78.2253L45.1642 78.2381L47.088 77.6915ZM45.7475 72.7223L43.8165 73.2432L43.8165 73.2432L45.7475 72.7223ZM38.4536 45.6839L36.5226 46.2046L36.5226 46.2048L38.4536 45.6839ZM37.7045 42.907L35.7813 42.3582L35.6289 42.8923L35.7737 43.4284L37.7045 42.907ZM39.8004 35.5619L41.2722 34.2077L38.8562 31.5818L37.8771 35.0131L39.8004 35.5619ZM44.7979 40.9935L46.7289 40.4729L46.6014 39.9999L46.2697 39.6393L44.7979 40.9935ZM45.0435 41.9048L43.1125 42.4253L43.1125 42.4257L45.0435 41.9048ZM54.1814 75.778L56.1171 75.2751L56.1148 75.2661L56.1123 75.2571L54.1814 75.778ZM37.9412 43.7835L39.8722 43.2628L39.872 43.2622L37.9412 43.7835ZM55.2324 79.8237L53.2966 80.3266L53.2966 80.3266L55.2324 79.8237ZM54.5143 81.0434L55.014 82.98L54.5143 81.0434ZM49.4275 82.3559L48.9279 80.4193L49.4275 82.3559ZM48.2158 81.6609L50.1396 81.1143L48.2158 81.6609ZM49.019 77.1706L47.6785 72.2014L43.8165 73.2432L45.157 78.2124L49.019 77.1706ZM47.6785 72.2014L46.338 67.2322L42.476 68.274L43.8165 73.2432L47.6785 72.2014ZM46.338 67.2322L44.9975 62.263L41.1355 63.3048L42.476 68.274L46.338 67.2322ZM44.9975 62.263L43.657 57.2938L39.795 58.3356L41.1355 63.3048L44.9975 62.263ZM43.657 57.2938L42.6516 53.5668L38.7897 54.6087L39.795 58.3356L43.657 57.2938ZM42.6516 53.5668L42.1489 51.7034L38.287 52.7452L38.7897 54.6087L42.6516 53.5668ZM42.1489 51.7034L41.6462 49.8399L37.7843 50.8817L38.287 52.7452L42.1489 51.7034ZM41.6462 49.8399L41.1337 47.9399L37.2717 48.9818L37.7843 50.8817L41.6462 49.8399ZM41.1337 47.9399L40.7591 46.5515L36.8972 47.5933L37.2717 48.9818L41.1337 47.9399ZM40.7591 46.5515L40.3846 45.163L36.5226 46.2048L36.8972 47.5933L40.7591 46.5515ZM39.6277 43.4558L41.7236 36.1106L37.8771 35.0131L35.7813 42.3582L39.6277 43.4558ZM38.3286 36.916L43.3261 42.3477L46.2697 39.6393L41.2722 34.2077L38.3286 36.916ZM42.8668 41.5141L43.1125 42.4253L46.9746 41.3842L46.7289 40.4729L42.8668 41.5141ZM43.1125 42.4257L52.2504 76.2989L56.1123 75.2571L46.9745 41.3839L43.1125 42.4257ZM40.3846 45.1633L39.8722 43.2628L36.0101 44.3042L36.5226 46.2046L40.3846 45.1633ZM39.872 43.2622L39.6354 42.3857L35.7737 43.4284L36.0103 44.3049L39.872 43.2622ZM52.2456 76.2809L53.2966 80.3266L57.1681 79.3208L56.1171 75.2751L52.2456 76.2809ZM54.0147 79.1068L48.9279 80.4193L49.9272 84.2925L55.014 82.98L54.0147 79.1068ZM50.1396 81.1143L49.0119 77.1449L45.1642 78.2381L46.2919 82.2075L50.1396 81.1143ZM48.9279 80.4193C49.4535 80.2837 49.9913 80.5921 50.1396 81.1143L46.2919 82.2075C46.737 83.7739 48.3504 84.6993 49.9272 84.2925L48.9279 80.4193ZM53.2966 80.3266C53.1576 79.7914 53.4793 79.245 54.0147 79.1068L55.014 82.98C56.6202 82.5656 57.5852 80.9263 57.1681 79.3208L53.2966 80.3266Z" fill="white" mask="url(#path-4-inside-2)"/>
<mask id="path-6-inside-3" fill="white">
<path d="M59.3531 39.0331L59.405 44.1797L59.4569 49.3262L59.5088 54.4728L59.5608 59.6194L59.5997 63.4793L59.6192 65.4093L59.6387 67.3393L59.6585 69.3071L59.673 70.7451L59.6875 72.1831L59.7072 74.1513L59.7166 75.0592L55.8462 81.6443L52.37 75.1333L52.3606 74.1895L52.0065 39.1072L52.0033 34.9272C52.0029 34.3743 52.4513 33.926 53.0042 33.9265L58.2576 33.9311C58.8004 33.9316 59.2437 34.3651 59.2564 34.9077L59.3531 39.0331Z"/>
</mask>
<path d="M59.3531 39.0331L59.405 44.1797L59.4569 49.3262L59.5088 54.4728L59.5608 59.6194L59.5997 63.4793L59.6192 65.4093L59.6387 67.3393L59.6585 69.3071L59.673 70.7451L59.6875 72.1831L59.7072 74.1513L59.7166 75.0592L55.8462 81.6443L52.37 75.1333L52.3606 74.1895L52.0065 39.1072L52.0033 34.9272C52.0029 34.3743 52.4513 33.926 53.0042 33.9265L58.2576 33.9311C58.8004 33.9316 59.2437 34.3651 59.2564 34.9077L59.3531 39.0331Z" fill="#022F51"/>
<path d="M55.9095 74.1711L55.9147 75.1711L55.9147 75.1711L55.9095 74.1711ZM52.0166 40.1071L55.6899 40.0701L55.6697 38.0702L51.9964 38.1072L52.0166 40.1071ZM55.6899 40.0701L59.3631 40.033L59.343 38.0331L55.6697 38.0702L55.6899 40.0701ZM52.3658 75.1895L55.9147 75.1711L55.9043 73.1711L52.3554 73.1896L52.3658 75.1895ZM55.9147 75.1711L59.7124 75.1513L59.702 73.1513L55.9043 73.1711L55.9147 75.1711ZM56.8462 81.6342L56.8135 78.3994L54.8136 78.4196L54.8463 81.6544L56.8462 81.6342ZM59.3531 39.0331L61.353 39.0129L61.3528 38.9995L61.3525 38.9862L59.3531 39.0331ZM59.405 44.1797L61.4049 44.1595L61.4049 44.1595L59.405 44.1797ZM59.6875 72.1831L61.6874 72.1632L61.6874 72.1629L59.6875 72.1831ZM59.7166 75.0592L61.4408 76.0726L61.7222 75.5938L61.7165 75.0385L59.7166 75.0592ZM55.8462 81.6443L54.0819 82.5863L55.7624 85.734L57.5704 82.6577L55.8462 81.6443ZM52.37 75.1333L50.3701 75.1531L50.375 75.643L50.6057 76.0752L52.37 75.1333ZM52.3606 74.1895L54.3605 74.1697L54.3605 74.1694L52.3606 74.1895ZM52.0065 39.1072L50.0065 39.1087L50.0065 39.118L50.0066 39.1274L52.0065 39.1072ZM59.7072 74.1513L57.7073 74.1713L57.7073 74.1719L59.7072 74.1513ZM52.0033 34.9272L54.0033 34.9257L54.0033 34.9257L52.0033 34.9272ZM53.0042 33.9265L53.0024 35.9265L53.0042 33.9265ZM58.2576 33.9311L58.2593 31.9311L58.2576 33.9311ZM59.2564 34.9077L61.2558 34.8609L59.2564 34.9077ZM57.3532 39.0532L57.4051 44.1998L61.4049 44.1595L61.353 39.0129L57.3532 39.0532ZM57.4051 44.1998L57.457 49.3464L61.4568 49.3061L61.4049 44.1595L57.4051 44.1998ZM57.457 49.3464L57.5089 54.493L61.5087 54.4526L61.4568 49.3061L57.457 49.3464ZM57.5089 54.493L57.5609 59.6396L61.5607 59.5992L61.5087 54.4526L57.5089 54.493ZM57.5609 59.6396L57.5998 63.4995L61.5996 63.4592L61.5607 59.5992L57.5609 59.6396ZM57.5998 63.4995L57.6193 65.4295L61.6191 65.3891L61.5996 63.4592L57.5998 63.4995ZM57.6193 65.4295L57.6388 67.3595L61.6386 67.3191L61.6191 65.3891L57.6193 65.4295ZM57.6388 67.3595L57.6586 69.3273L61.6584 69.2869L61.6386 67.3191L57.6388 67.3595ZM57.6586 69.3273L57.6731 70.7653L61.6729 70.7249L61.6584 69.2869L57.6586 69.3273ZM57.6731 70.7653L57.6876 72.2033L61.6874 72.1629L61.6729 70.7249L57.6731 70.7653ZM57.9923 74.0458L54.122 80.6309L57.5704 82.6577L61.4408 76.0726L57.9923 74.0458ZM57.6105 80.7024L54.1343 74.1913L50.6057 76.0752L54.0819 82.5863L57.6105 80.7024ZM54.3699 75.1135L54.3605 74.1697L50.3607 74.2094L50.3701 75.1531L54.3699 75.1135ZM54.3605 74.1694L54.0064 39.087L50.0066 39.1274L50.3607 74.2097L54.3605 74.1694ZM57.6876 72.2031L57.7073 74.1713L61.7071 74.1313L61.6874 72.1632L57.6876 72.2031ZM57.7073 74.1719L57.7167 75.0798L61.7165 75.0385L61.7071 74.1306L57.7073 74.1719ZM54.0065 39.1057L54.0033 34.9257L50.0033 34.9288L50.0065 39.1087L54.0065 39.1057ZM53.0024 35.9265L58.2558 35.9311L58.2593 31.9311L53.006 31.9265L53.0024 35.9265ZM57.2569 34.9546L57.3536 39.0799L61.3525 38.9862L61.2558 34.8609L57.2569 34.9546ZM58.2558 35.9311C57.713 35.9307 57.2697 35.4972 57.2569 34.9546L61.2558 34.8609C61.2177 33.2329 59.8878 31.9326 58.2593 31.9311L58.2558 35.9311ZM54.0033 34.9257C54.0037 35.4786 53.5553 35.927 53.0024 35.9265L53.006 31.9265C51.3472 31.925 50.002 33.27 50.0033 34.9288L54.0033 34.9257Z" fill="white" mask="url(#path-6-inside-3)"/>
<rect x="37.918" y="60.4694" width="42.0816" height="27.3878" rx="1" fill="#022F51" stroke="white" stroke-width="2"/>
</svg>
