<svg width="79" height="77" viewBox="0 0 79 77" fill="none" xmlns="http://www.w3.org/2000/svg">
<path fill-rule="evenodd" clip-rule="evenodd" d="M39.5 0C17.6762 0 0 17.6645 0 39.4738C0 56.941 11.3069 71.6943 27.0081 76.9246C28.9831 77.27 29.7238 76.0858 29.7238 75.0496C29.7238 74.1121 29.6744 71.0035 29.6744 67.6976C19.75 69.5233 17.1825 65.2798 16.3925 63.0594C15.9481 61.9245 14.0225 58.4212 12.3438 57.4837C10.9613 56.7436 8.98625 54.9179 12.2944 54.8686C15.405 54.8193 17.6269 57.7305 18.3675 58.9147C21.9225 64.8851 27.6006 63.2074 29.8719 62.1713C30.2175 59.6055 31.2544 57.8785 32.39 56.8916C23.6012 55.9048 14.4175 52.5002 14.4175 37.4014C14.4175 33.1087 15.9481 29.556 18.4663 26.7928C18.0713 25.806 16.6887 21.7599 18.8612 16.3323C18.8612 16.3323 22.1694 15.2961 29.7238 20.3784C32.8838 19.4902 36.2413 19.0461 39.5988 19.0461C42.9563 19.0461 46.3138 19.4902 49.4738 20.3784C57.0281 15.2468 60.3363 16.3323 60.3363 16.3323C62.5088 21.7599 61.1263 25.806 60.7313 26.7928C63.2494 29.556 64.78 33.0593 64.78 37.4014C64.78 52.5495 55.5469 55.9048 46.7581 56.8916C48.19 58.1252 49.4244 60.4936 49.4244 64.1943C49.4244 69.4739 49.375 73.7174 49.375 75.0496C49.375 76.0858 50.1156 77.3193 52.0906 76.9246C67.6931 71.6943 79 56.8916 79 39.4738C79 17.6645 61.3237 0 39.5 0Z" fill="#6A6A6A"/>
</svg>
