<svg width="198" height="31" viewBox="0 0 198 31" fill="none" xmlns="http://www.w3.org/2000/svg">
<path d="M142.93 5.77344H144.805L139.062 23.1406H137.188L142.93 5.77344ZM153.852 21.7227C153.047 22.6367 151.996 23.1094 150.699 23.1406C149.965 23.125 149.336 22.9727 148.812 22.6836C148.266 22.4023 147.809 22.0273 147.441 21.5586C147.105 21.1758 146.883 20.6562 146.773 20C146.641 19.375 146.574 18.3438 146.574 16.9062C146.574 15.4453 146.641 14.4062 146.773 13.7891C146.883 13.1641 147.105 12.6602 147.441 12.2773C148.129 11.2539 149.215 10.7227 150.699 10.6836C151.324 10.6836 151.902 10.8125 152.434 11.0703C152.926 11.3438 153.398 11.6953 153.852 12.125V5.91406H156.301V23H153.852V21.7227ZM151.449 13.1328C150.871 13.1328 150.43 13.2305 150.125 13.4258C149.789 13.6367 149.543 13.9258 149.387 14.293C149.238 14.6602 149.141 15.0586 149.094 15.4883C149.047 15.9492 149.023 16.4219 149.023 16.9062C149.023 17.3672 149.047 17.8164 149.094 18.2539C149.141 18.7148 149.238 19.1289 149.387 19.4961C149.543 19.8477 149.789 20.1367 150.125 20.3633C150.43 20.582 150.871 20.6914 151.449 20.6914C152.027 20.6914 152.484 20.5742 152.82 20.3398C153.156 20.1133 153.387 19.8164 153.512 19.4492C153.668 19.082 153.773 18.6719 153.828 18.2188C153.844 17.7734 153.852 17.3359 153.852 16.9062C153.852 16.4375 153.844 15.9883 153.828 15.5586C153.773 15.1289 153.668 14.7305 153.512 14.3633C153.387 13.9961 153.156 13.6992 152.82 13.4727C152.484 13.2461 152.027 13.1328 151.449 13.1328ZM158.445 16.9062C158.445 15.625 158.551 14.6406 158.762 13.9531C158.98 13.2812 159.316 12.7148 159.77 12.2539C160.105 11.8477 160.574 11.4844 161.176 11.1641C161.77 10.8594 162.531 10.6992 163.461 10.6836C164.422 10.6992 165.199 10.8594 165.793 11.1641C166.379 11.4844 166.832 11.8477 167.152 12.2539C167.637 12.7148 167.98 13.2812 168.184 13.9531C168.379 14.6406 168.477 15.625 168.477 16.9062C168.477 18.1875 168.379 19.1641 168.184 19.8359C167.98 20.5078 167.637 21.0898 167.152 21.582C166.996 21.7617 166.805 21.9375 166.578 22.1094C166.375 22.3047 166.113 22.4727 165.793 22.6133C165.199 22.9492 164.422 23.125 163.461 23.1406C162.531 23.125 161.77 22.9492 161.176 22.6133C160.574 22.3086 160.105 21.9648 159.77 21.582C159.316 21.0898 158.98 20.5078 158.762 19.8359C158.551 19.1641 158.445 18.1875 158.445 16.9062ZM166.027 16.9297C166.027 16.0625 165.988 15.4297 165.91 15.0312C165.832 14.6484 165.672 14.3125 165.43 14.0234C165.25 13.75 164.984 13.5352 164.633 13.3789C164.297 13.2148 163.906 13.1328 163.461 13.1328C163.047 13.1328 162.664 13.2148 162.312 13.3789C161.977 13.5352 161.703 13.75 161.492 14.0234C161.281 14.3125 161.129 14.6484 161.035 15.0312C160.941 15.4297 160.895 16.0547 160.895 16.9062C160.895 17.75 160.941 18.3672 161.035 18.7578C161.129 19.1562 161.281 19.5078 161.492 19.8125C161.703 20.0469 161.977 20.2539 162.312 20.4336C162.664 20.6055 163.047 20.6914 163.461 20.6914C163.906 20.6914 164.297 20.6055 164.633 20.4336C164.984 20.2539 165.25 20.0469 165.43 19.8125C165.672 19.5078 165.832 19.1562 165.91 18.7578C165.988 18.3672 166.027 17.7578 166.027 16.9297ZM179.996 21.0312C179.465 21.6406 178.84 22.1367 178.121 22.5195C177.402 22.918 176.57 23.125 175.625 23.1406C174.188 23.1406 172.926 22.6523 171.84 21.6758C170.715 20.6992 170.137 19.1172 170.105 16.9297C170.137 14.7188 170.715 13.1172 171.84 12.125C172.926 11.1484 174.188 10.668 175.625 10.6836C176.57 10.6992 177.402 10.8945 178.121 11.2695C178.84 11.6523 179.465 12.1641 179.996 12.8047L178.191 14.4102C177.574 13.5898 176.75 13.1641 175.719 13.1328C173.641 13.1016 172.586 14.3672 172.555 16.9297C172.586 19.4766 173.641 20.7305 175.719 20.6914C176.75 20.6758 177.574 20.2539 178.191 19.4258L179.996 21.0312ZM182.07 19.2852C183.062 20.3242 184.344 20.8438 185.914 20.8438C186.617 20.8438 187.191 20.707 187.637 20.4336C188.082 20.1602 188.305 19.7773 188.305 19.2852C188.305 18.8477 188.172 18.543 187.906 18.3711C187.633 18.1914 187.27 18.0938 186.816 18.0781L184.66 17.8906C183.637 17.7969 182.805 17.4531 182.164 16.8594C181.508 16.2812 181.172 15.4727 181.156 14.4336C181.172 13.1836 181.613 12.2461 182.48 11.6211C183.324 10.9961 184.395 10.6836 185.691 10.6836C186.254 10.6836 186.758 10.7188 187.203 10.7891C187.648 10.8672 188.066 10.9766 188.457 11.1172C189.207 11.4219 189.879 11.832 190.473 12.3477L188.961 14.1172C188.492 13.7812 187.996 13.5039 187.473 13.2852C186.957 13.0898 186.363 12.9922 185.691 12.9922C184.926 12.9922 184.391 13.1289 184.086 13.4023C183.766 13.6758 183.605 14.0273 183.605 14.457C183.59 14.7305 183.711 14.9688 183.969 15.1719C184.203 15.3984 184.617 15.543 185.211 15.6055L187.227 15.7578C188.492 15.8516 189.406 16.2344 189.969 16.9062C190.492 17.5625 190.754 18.3945 190.754 19.4023C190.738 20.582 190.258 21.4922 189.312 22.1328C188.375 22.7891 187.176 23.125 185.715 23.1406C183.73 23.1406 181.945 22.4141 180.359 20.9609L182.07 19.2852Z" fill="white"/>
<path d="M52 4H40V8H52V4Z" fill="white"/>
<path d="M52 12H40V16H52V12Z" fill="white"/>
<path d="M52 20H40V24H52V20Z" fill="white"/>
<path d="M4 4H0V8H4V4Z" fill="white"/>
<path d="M4 12H0V16H4V12Z" fill="white"/>
<path d="M4 20H0V24H4V20Z" fill="white"/>
<path d="M12 4H8V8H12V4Z" fill="white"/>
<path d="M12 12H8V16H12V12Z" fill="white"/>
<path d="M12 20H8V24H12V20Z" fill="white"/>
<path d="M16 4H36V16H32V8H16V4Z" fill="white"/>
<path d="M28 12H24V16H28V12Z" fill="white"/>
<path d="M16 12H20V20H36V24H16V12Z" fill="white"/>
<path d="M60.0156 18.8516C61.375 19.9688 62.9922 20.5352 64.8672 20.5508C67.0859 20.5195 68.2109 19.7266 68.2422 18.1719C68.2578 16.8984 67.5156 16.1328 66.0156 15.875C65.3281 15.7812 64.5742 15.6758 63.7539 15.5586C62.2852 15.3164 61.168 14.7734 60.4023 13.9297C59.6133 13.0625 59.2188 12.0078 59.2188 10.7656C59.2188 9.27344 59.7148 8.07031 60.707 7.15625C61.668 6.25 63.0312 5.78906 64.7969 5.77344C66.9219 5.82031 68.7695 6.41016 70.3398 7.54297L68.8984 9.67578C67.6172 8.83203 66.207 8.39453 64.668 8.36328C63.8711 8.36328 63.207 8.5625 62.6758 8.96094C62.1211 9.375 61.8359 9.99219 61.8203 10.8125C61.8203 11.3047 62.0117 11.75 62.3945 12.1484C62.7773 12.5547 63.3906 12.8359 64.2344 12.9922C64.7031 13.0703 65.3438 13.1602 66.1562 13.2617C67.7578 13.4805 68.9414 14.0547 69.707 14.9844C70.4648 15.8984 70.8438 16.9609 70.8438 18.1719C70.7578 21.4375 68.7578 23.0938 64.8438 23.1406C62.3125 23.1406 60.1367 22.3594 58.3164 20.7969L60.0156 18.8516ZM76.4805 8.22266H71.8047V5.91406H83.7578V8.22266H79.082V23H76.4805V8.22266ZM85.2695 5.91406H87.8594V16.9297C87.875 18.0938 88.2109 18.9805 88.8672 19.5898C89.5078 20.2305 90.332 20.5508 91.3398 20.5508C92.3477 20.5508 93.1797 20.2305 93.8359 19.5898C94.4766 18.9805 94.8047 18.0938 94.8203 16.9297V5.91406H97.4102V17.2109C97.3789 19.0078 96.7969 20.4336 95.6641 21.4883C94.5234 22.5742 93.082 23.125 91.3398 23.1406C89.6289 23.125 88.1992 22.5742 87.0508 21.4883C85.8789 20.4336 85.2852 19.0078 85.2695 17.2109V5.91406ZM100.703 5.91406H106.68C108.992 5.92969 110.727 6.89062 111.883 8.79688C112.297 9.4375 112.559 10.1094 112.668 10.8125C112.754 11.5156 112.797 12.7305 112.797 14.457C112.797 16.293 112.73 17.5742 112.598 18.3008C112.535 18.668 112.441 18.9961 112.316 19.2852C112.184 19.5664 112.023 19.8594 111.836 20.1641C111.336 20.9688 110.641 21.6328 109.75 22.1562C108.867 22.7188 107.785 23 106.504 23H100.703V5.91406ZM103.293 20.5508H106.387C107.84 20.5508 108.895 20.0547 109.551 19.0625C109.84 18.6953 110.023 18.2305 110.102 17.668C110.172 17.1133 110.207 16.0742 110.207 14.5508C110.207 13.0664 110.172 12.0039 110.102 11.3633C110.008 10.7227 109.785 10.2031 109.434 9.80469C108.715 8.8125 107.699 8.33203 106.387 8.36328H103.293V20.5508ZM115.82 5.91406H118.41V23H115.82V5.91406ZM121.422 14.457C121.422 12.4727 121.48 11.1445 121.598 10.4727C121.723 9.80078 121.914 9.25781 122.172 8.84375C122.586 8.05469 123.25 7.35156 124.164 6.73438C125.062 6.10938 126.184 5.78906 127.527 5.77344C128.887 5.78906 130.02 6.10938 130.926 6.73438C131.824 7.35156 132.473 8.05469 132.871 8.84375C133.16 9.25781 133.359 9.80078 133.469 10.4727C133.57 11.1445 133.621 12.4727 133.621 14.457C133.621 16.4102 133.57 17.7305 133.469 18.418C133.359 19.1055 133.16 19.6562 132.871 20.0703C132.473 20.8594 131.824 21.5547 130.926 22.1562C130.02 22.7812 128.887 23.1094 127.527 23.1406C126.184 23.1094 125.062 22.7812 124.164 22.1562C123.25 21.5547 122.586 20.8594 122.172 20.0703C122.047 19.8125 121.934 19.5664 121.832 19.332C121.738 19.0898 121.66 18.7852 121.598 18.418C121.48 17.7305 121.422 16.4102 121.422 14.457ZM124.023 14.457C124.023 16.1367 124.086 17.2734 124.211 17.8672C124.32 18.4609 124.543 18.9414 124.879 19.3086C125.152 19.6602 125.512 19.9453 125.957 20.1641C126.395 20.4219 126.918 20.5508 127.527 20.5508C128.145 20.5508 128.68 20.4219 129.133 20.1641C129.562 19.9453 129.906 19.6602 130.164 19.3086C130.5 18.9414 130.73 18.4609 130.855 17.8672C130.973 17.2734 131.031 16.1367 131.031 14.457C131.031 12.7773 130.973 11.6328 130.855 11.0234C130.73 10.4453 130.5 9.97266 130.164 9.60547C129.906 9.25391 129.562 8.96094 129.133 8.72656C128.68 8.5 128.145 8.37891 127.527 8.36328C126.918 8.37891 126.395 8.5 125.957 8.72656C125.512 8.96094 125.152 9.25391 124.879 9.60547C124.543 9.97266 124.32 10.4453 124.211 11.0234C124.086 11.6328 124.023 12.7773 124.023 14.457Z" fill="white"/>
</svg>
