<svg width="247" height="30" viewBox="0 0 247 30" fill="none" xmlns="http://www.w3.org/2000/svg">
<g clip-path="url(#clip0)">
<path d="M14.9182 0H0.588722C0.259038 0 0 0.259038 0 0.588722V28.5295C0 28.8592 0.259038 29.1182 0.588722 29.1182H14.9182C22.7953 28.9416 29.1182 22.4892 29.1182 14.5532C29.1182 6.62901 22.7836 0.176617 14.9182 0ZM16.3076 24.7617C9.21939 25.9273 3.20265 19.8988 4.35655 12.8106C5.06301 8.51293 8.5247 5.05124 12.8106 4.35655C19.9106 3.20265 25.9273 9.21939 24.7734 16.3194C24.067 20.6053 20.6053 24.067 16.3076 24.7617Z" fill="white"/>
<path d="M48.7462 4.23877H52.6436C52.726 4.23877 52.7966 4.25054 52.8437 4.28587L59.6847 24.7263C59.72 24.8794 59.6729 24.9618 59.5316 24.9618H56.482C56.4232 24.9618 56.3643 24.9147 56.329 24.8205L54.9867 20.6053C54.9631 20.6053 54.8925 20.6053 54.763 20.6053H45.9203C45.8379 20.6053 45.7791 20.5699 45.7437 20.4875L44.3779 24.7145C44.3426 24.8794 44.2955 24.9618 44.2484 24.9618H41.7875C41.6698 24.9618 41.6109 24.9147 41.6345 24.8205L48.5814 4.38006C48.6049 4.28587 48.6638 4.23877 48.7462 4.23877ZM46.7092 18.1091H54.0094C54.1271 18.1091 54.1625 18.062 54.1271 17.956L50.689 7.18238C50.6301 7.04109 50.5242 6.97044 50.3711 6.97044C50.218 6.97044 50.1238 7.00576 50.0767 7.08819L46.5915 17.85C46.5562 18.0266 46.5915 18.1091 46.7092 18.1091Z" fill="white"/>
<path d="M65.3364 4.38006V24.8205C65.3364 24.9147 65.2893 24.9618 65.1951 24.9618H62.6989C62.6047 24.9618 62.5459 24.9147 62.5459 24.8205V4.38006C62.5459 4.28587 62.593 4.23877 62.6989 4.23877H65.1951C65.2775 4.23877 65.3364 4.28587 65.3364 4.38006Z" fill="white"/>
<path d="M77.1933 22.6069V24.8205C77.1933 24.9147 77.1462 24.9618 77.0402 24.9618H74.7795C72.2127 25.0207 70.9175 23.855 70.9175 21.4884V12.4338C70.9175 12.3396 70.8704 12.2808 70.7762 12.2808H68.1623C68.0681 12.2808 68.021 12.2337 68.021 12.1395V10.2202C68.021 10.126 68.0681 10.0789 68.1623 10.0789H70.7762C70.8704 10.0789 70.9175 10.0318 70.9175 9.92587V5.9461C70.9175 5.85191 70.9646 5.80481 71.0706 5.80481H73.5668C73.661 5.80481 73.708 5.85191 73.708 5.9461V9.91409C73.708 10.0083 73.7552 10.0672 73.8493 10.0672H77.0284C77.1226 10.0672 77.1815 10.1143 77.1815 10.2085V12.1159C77.1815 12.2101 77.1344 12.2572 77.0284 12.2572H73.8493C73.7552 12.2572 73.708 12.3043 73.708 12.4103V20.9821C73.708 21.9593 74.2379 22.4539 75.2976 22.4539H77.0167C77.1344 22.4656 77.1933 22.5127 77.1933 22.6069Z" fill="white"/>
<path d="M83.2806 4.38006V7.46497C83.2806 7.55916 83.2335 7.61804 83.1276 7.61804H80.0427C79.9485 7.61804 79.9014 7.57094 79.9014 7.46497V4.38006C79.9014 4.28587 79.9485 4.23877 80.0427 4.23877H83.1276C83.2335 4.23877 83.2806 4.28587 83.2806 4.38006ZM82.9863 10.2202V24.8205C82.9863 24.9147 82.9392 24.9618 82.845 24.9618H80.3252C80.2311 24.9618 80.184 24.9147 80.184 24.8205V10.2202C80.184 10.126 80.2311 10.0789 80.3252 10.0789H82.845C82.9274 10.0671 82.9863 10.1142 82.9863 10.2202Z" fill="white"/>
<path d="M87.178 10.0671H89.3916C89.4505 10.0671 89.4976 10.1142 89.5329 10.2084L89.839 11.5389C89.8626 11.6213 89.9215 11.6566 89.9921 11.6566C90.0627 11.6566 90.1216 11.6331 90.1687 11.5742C91.0283 10.3732 92.3117 9.77271 94.019 9.77271C96.0559 9.77271 97.6337 10.4203 98.7523 11.7273C99.8709 13.0342 100.436 14.6944 100.436 16.7314V24.8204C100.436 24.9146 100.389 24.9617 100.283 24.9617H97.7868C97.6926 24.9617 97.6455 24.9146 97.6455 24.8204V16.7314C97.6455 15.4715 97.3394 14.4118 96.7153 13.5523C96.0795 12.7045 95.1375 12.2689 93.8777 12.2689C92.6178 12.2689 91.6287 12.7045 90.9223 13.5759C90.2158 14.4472 89.8626 15.4951 89.8626 16.7196V24.8087C89.8626 24.9029 89.8155 24.95 89.7213 24.95H87.2015C87.1074 24.95 87.0603 24.9029 87.0603 24.8087V10.2201C87.0367 10.1142 87.0838 10.0671 87.178 10.0671Z" fill="white"/>
<path d="M104.039 10.0671H106.253C106.311 10.0671 106.359 10.1142 106.394 10.2084L106.7 11.5272C106.724 11.6096 106.782 11.6449 106.853 11.6449C106.924 11.6449 106.983 11.6213 107.03 11.5625C107.889 10.3615 109.173 9.76099 110.88 9.76099C112.917 9.76099 114.495 10.4086 115.613 11.7155C116.732 13.0225 117.297 14.6827 117.297 16.7197V24.8087C117.297 24.9029 117.25 24.95 117.144 24.95H114.648C114.554 24.95 114.507 24.9029 114.507 24.8087V16.7197C114.507 15.4598 114.2 14.4001 113.576 13.5406C112.941 12.6928 111.999 12.2572 110.739 12.2572C109.479 12.2572 108.49 12.6928 107.783 13.5641C107.077 14.4354 106.724 15.4834 106.724 16.7079V24.797C106.724 24.8912 106.676 24.9382 106.582 24.9382H104.063C103.968 24.9382 103.921 24.8912 103.921 24.797V10.2202C103.898 10.1142 103.945 10.0671 104.039 10.0671Z" fill="white"/>
<path d="M141.315 20.4739C141.315 17.8751 139.709 16.5319 136.643 16.2691L134.57 16.0939C133.11 15.9479 132.526 15.4223 132.526 14.4003C132.526 13.2615 133.402 12.5023 135.212 12.5023C136.614 12.5023 137.928 12.7943 138.862 13.5827L140.731 11.6847C139.359 10.4875 137.49 10.0203 135.242 10.0203C132.146 10.0203 129.664 11.6263 129.664 14.5463C129.664 17.1451 131.241 18.3715 134.044 18.6343L136.41 18.8387C137.84 18.9847 138.395 19.5687 138.395 20.5907C138.395 21.9923 136.994 22.6348 135.154 22.6348C133.694 22.6348 132.088 22.3136 130.891 21.0872L128.934 23.0435C130.686 24.7663 132.73 25.1751 135.154 25.1751C138.687 25.1751 141.315 23.5691 141.315 20.4739Z" fill="white"/>
<path d="M150.842 25V22.4595H149.616C148.506 22.4595 147.98 21.8171 147.98 20.7367V12.4731H150.842V10.1955H147.98V5.96155H145.002V10.1955H143.308V12.4731H145.002V20.8827C145.002 23.0143 146.287 25 149.061 25H150.842Z" fill="white"/>
<path d="M166.487 25V10.1955H163.509V19.2183C163.509 21.4959 162.107 22.5179 160.443 22.5179C158.778 22.5179 157.464 21.5251 157.464 19.2183V10.1955H154.486V19.6563C154.486 21.3207 154.836 22.7224 155.975 23.832C156.851 24.6788 158.107 25.1751 159.625 25.1751C161.114 25.1751 162.545 24.6203 163.567 23.5107V25H166.487Z" fill="white"/>
<path d="M182.645 25V4.20955H179.667V11.6847C178.586 10.3999 177.36 10.0203 175.783 10.0203C174.294 10.0203 173.009 10.5167 172.192 11.3343C170.761 12.7943 170.527 15.1595 170.527 17.5831C170.527 20.036 170.761 22.4011 172.192 23.8611C173.009 24.6787 174.323 25.1751 175.812 25.1751C177.418 25.1751 178.616 24.7663 179.725 23.4231V25H182.645ZM179.667 17.5831C179.667 20.2112 179.287 22.5179 176.601 22.5179C173.885 22.5179 173.506 20.2112 173.506 17.5831C173.506 14.9551 173.885 12.6775 176.601 12.6775C179.287 12.6775 179.667 14.9551 179.667 17.5831Z" fill="white"/>
<path d="M190.346 25V10.1955H187.368V25H190.346ZM190.434 7.27555V4.12195H187.28V7.27555H190.434Z" fill="white"/>
<path d="M206.718 17.5831C206.718 15.1011 206.368 13.2323 204.966 11.7723C204.002 10.7795 202.542 10.0203 200.528 10.0203C198.513 10.0203 197.082 10.7795 196.118 11.7723C194.717 13.2323 194.366 15.1011 194.366 17.5831C194.366 20.0943 194.717 21.9631 196.118 23.4231C197.082 24.4159 198.513 25.1751 200.528 25.1751C202.542 25.1751 204.002 24.4159 204.966 23.4231C206.368 21.9631 206.718 20.0943 206.718 17.5831ZM203.74 17.5831C203.74 19.1891 203.623 20.7367 202.718 21.6419C202.163 22.1967 201.404 22.5179 200.528 22.5179C199.652 22.5179 198.922 22.1967 198.367 21.6419C197.462 20.7367 197.345 19.1891 197.345 17.5831C197.345 15.9771 197.462 14.4295 198.367 13.5243C198.922 12.9695 199.652 12.6775 200.528 12.6775C201.404 12.6775 202.163 12.9695 202.718 13.5243C203.623 14.4295 203.74 15.9771 203.74 17.5831Z" fill="white"/>
</g>
<defs>
<clipPath id="clip0">
<rect width="246.333" height="29.1182" fill="white"/>
</clipPath>
</defs>
</svg>
