<?xml version="1.0" encoding="UTF-8" standalone="no"?>
<!DOCTYPE svg PUBLIC "-//W3C//DTD SVG 1.1//EN" "http://www.w3.org/Graphics/SVG/1.1/DTD/svg11.dtd">
<!-- Generated by Microsoft Visio, SVG Export conceptual_information_model.svg Page-1 -->
<svg xmlns="http://www.w3.org/2000/svg" xmlns:xlink="http://www.w3.org/1999/xlink" xmlns:ev="http://www.w3.org/2001/xml-events"
		xmlns:v="http://schemas.microsoft.com/visio/2003/SVGExtensions/" width="11.2105in" height="7.1723in"
		viewBox="0 0 807.156 516.405" xml:space="preserve" color-interpolation-filters="sRGB" class="st8">
	<v:documentProperties v:langID="1033" v:metric="true" v:viewMarkup="false"/>

	<style type="text/css">
	<![CDATA[
		.st1 {fill:#595959;stroke:#c7c8c8;stroke-width:0.25}
		.st2 {fill:#feffff;font-family:Calibri;font-size:0.833336em}
		.st3 {fill:#4672c4;stroke:#c7c8c8;stroke-width:0.25}
		.st4 {marker-end:url(#mrkr4-30);stroke:#4672c4;stroke-linecap:round;stroke-linejoin:round;stroke-width:1}
		.st5 {fill:#4672c4;fill-opacity:1;stroke:#4672c4;stroke-opacity:1;stroke-width:0.28409090909091}
		.st6 {fill:#ffffff;stroke:none;stroke-linecap:butt;stroke-width:7.2}
		.st7 {fill:#3c63ac;font-family:Calibri;font-size:0.666664em}
		.st8 {fill:none;fill-rule:evenodd;font-size:12px;overflow:visible;stroke-linecap:square;stroke-miterlimit:3}
	]]>
	</style>

	<defs id="Markers">
		<g id="lend4">
			<path d="M 2 1 L 0 0 L 2 -1 L 2 1 " style="stroke:none"/>
		</g>
		<marker id="mrkr4-30" class="st5" v:arrowType="4" v:arrowSize="2" v:setback="7.04" refX="-7.04" orient="auto"
				markerUnits="strokeWidth" overflow="visible">
			<use xlink:href="#lend4" transform="scale(-3.52,-3.52) "/>
		</marker>
	</defs>
	<g v:mID="0" v:index="1" v:groupContext="foregroundPage">
		<title>Page-1</title>
		<v:pageProperties v:drawingScale="0.0393701" v:pageScale="0.0393701" v:drawingUnits="24" v:shadowOffsetX="8.50394"
				v:shadowOffsetY="-8.50394"/>
		<v:layer v:name="Connector" v:index="0"/>
		<g id="shape9-1" v:mID="9" v:groupContext="shape" transform="translate(110.801,-374.423)">
			<title>Rectangle</title>
			<desc>Party</desc>
			<v:userDefs>
				<v:ud v:nameU="visVersion" v:val="VT0(15):26"/>
			</v:userDefs>
			<v:textBlock v:margins="rect(4,4,4,4)" v:tabSpace="42.5197"/>
			<v:textRect cx="163.913" cy="445.539" width="327.83" height="141.732"/>
			<rect x="0" y="374.673" width="327.827" height="141.732" class="st1"/>
			<text x="153.25" y="448.54" class="st2" v:langID="1044"><v:paragraph v:horizAlign="1"/><v:tabList/>Party</text>		</g>
		<g id="shape3-4" v:mID="3" v:groupContext="shape" transform="translate(626.706,-402.77)">
			<title>Rounded Rectangle</title>
			<desc>Instance</desc>
			<v:userDefs>
				<v:ud v:nameU="CTypeTopLeftSnip" v:prompt="" v:val="VT0(0):5"/>
				<v:ud v:nameU="CTypeTopRightSnip" v:prompt="" v:val="VT0(0):5"/>
				<v:ud v:nameU="CTypeBotLeftSnip" v:prompt="" v:val="VT0(0):5"/>
				<v:ud v:nameU="CTypeBotRightSnip" v:prompt="" v:val="VT0(0):5"/>
				<v:ud v:nameU="CornerLockHoriz" v:prompt="" v:val="VT0(1):5"/>
				<v:ud v:nameU="CornerLockVert" v:prompt="" v:val="VT0(1):5"/>
				<v:ud v:nameU="CornerLockDiag" v:prompt="" v:val="VT0(0):5"/>
				<v:ud v:nameU="TopLeftOffset" v:prompt="" v:val="VT0(0.15748031496063):24"/>
				<v:ud v:nameU="TopRightOffset" v:prompt="" v:val="VT0(0.15748031496063):24"/>
				<v:ud v:nameU="BotLeftOffset" v:prompt="" v:val="VT0(0.15748031496063):24"/>
				<v:ud v:nameU="BotRightOffset" v:prompt="" v:val="VT0(0.15748031496063):24"/>
				<v:ud v:nameU="visVersion" v:prompt="" v:val="VT0(15):26"/>
			</v:userDefs>
			<v:textBlock v:margins="rect(4,4,4,4)" v:tabSpace="42.5197"/>
			<v:textRect cx="56.6929" cy="473.886" width="113.39" height="85.0394"/>
			<path d="M11.34 516.41 L102.05 516.41 A11.3384 11.3384 -180 0 0 113.39 505.07 L113.39 442.7 A11.3384 11.3384 -180 0 0
						 102.05 431.37 L11.34 431.37 A11.3384 11.3384 -180 0 0 0 442.7 L0 505.07 A11.3384 11.3384 -180 0 0 11.34
						 516.41 Z" class="st3"/>
			<text x="39.55" y="476.89" class="st2" v:langID="1044"><v:paragraph v:horizAlign="1"/><v:tabList/>Instance</text>		</g>
		<g id="shape4-7" v:mID="4" v:groupContext="shape" transform="translate(445.289,-167.494)">
			<title>Rounded Rectangle.4</title>
			<desc>App</desc>
			<v:userDefs>
				<v:ud v:nameU="CTypeTopLeftSnip" v:prompt="" v:val="VT0(0):5"/>
				<v:ud v:nameU="CTypeTopRightSnip" v:prompt="" v:val="VT0(0):5"/>
				<v:ud v:nameU="CTypeBotLeftSnip" v:prompt="" v:val="VT0(0):5"/>
				<v:ud v:nameU="CTypeBotRightSnip" v:prompt="" v:val="VT0(0):5"/>
				<v:ud v:nameU="CornerLockHoriz" v:prompt="" v:val="VT0(1):5"/>
				<v:ud v:nameU="CornerLockVert" v:prompt="" v:val="VT0(1):5"/>
				<v:ud v:nameU="CornerLockDiag" v:prompt="" v:val="VT0(0):5"/>
				<v:ud v:nameU="TopLeftOffset" v:prompt="" v:val="VT0(0.15748031496063):24"/>
				<v:ud v:nameU="TopRightOffset" v:prompt="" v:val="VT0(0.15748031496063):24"/>
				<v:ud v:nameU="BotLeftOffset" v:prompt="" v:val="VT0(0.15748031496063):24"/>
				<v:ud v:nameU="BotRightOffset" v:prompt="" v:val="VT0(0.15748031496063):24"/>
				<v:ud v:nameU="visVersion" v:prompt="" v:val="VT0(15):26"/>
			</v:userDefs>
			<v:textBlock v:margins="rect(4,4,4,4)" v:tabSpace="42.5197"/>
			<v:textRect cx="56.6929" cy="473.886" width="113.39" height="85.0394"/>
			<path d="M11.34 516.41 L102.05 516.41 A11.3384 11.3384 -180 0 0 113.39 505.07 L113.39 442.7 A11.3384 11.3384 -180 0 0
						 102.05 431.37 L11.34 431.37 A11.3384 11.3384 -180 0 0 0 442.7 L0 505.07 A11.3384 11.3384 -180 0 0 11.34
						 516.41 Z" class="st3"/>
			<text x="48.55" y="476.89" class="st2" v:langID="1044"><v:paragraph v:horizAlign="1"/><v:tabList/>App</text>		</g>
		<g id="shape5-10" v:mID="5" v:groupContext="shape" transform="translate(224.187,-88.124)">
			<title>Rounded Rectangle.5</title>
			<desc>Org</desc>
			<v:userDefs>
				<v:ud v:nameU="CTypeTopLeftSnip" v:prompt="" v:val="VT0(0):5"/>
				<v:ud v:nameU="CTypeTopRightSnip" v:prompt="" v:val="VT0(0):5"/>
				<v:ud v:nameU="CTypeBotLeftSnip" v:prompt="" v:val="VT0(0):5"/>
				<v:ud v:nameU="CTypeBotRightSnip" v:prompt="" v:val="VT0(0):5"/>
				<v:ud v:nameU="CornerLockHoriz" v:prompt="" v:val="VT0(1):5"/>
				<v:ud v:nameU="CornerLockVert" v:prompt="" v:val="VT0(1):5"/>
				<v:ud v:nameU="CornerLockDiag" v:prompt="" v:val="VT0(0):5"/>
				<v:ud v:nameU="TopLeftOffset" v:prompt="" v:val="VT0(0.15748031496063):24"/>
				<v:ud v:nameU="TopRightOffset" v:prompt="" v:val="VT0(0.15748031496063):24"/>
				<v:ud v:nameU="BotLeftOffset" v:prompt="" v:val="VT0(0.15748031496063):24"/>
				<v:ud v:nameU="BotRightOffset" v:prompt="" v:val="VT0(0.15748031496063):24"/>
				<v:ud v:nameU="visVersion" v:prompt="" v:val="VT0(15):26"/>
			</v:userDefs>
			<v:textBlock v:margins="rect(4,4,4,4)" v:tabSpace="42.5197"/>
			<v:textRect cx="56.6929" cy="473.886" width="113.39" height="85.0394"/>
			<path d="M11.34 516.41 L102.05 516.41 A11.3384 11.3384 -180 0 0 113.39 505.07 L113.39 442.7 A11.3384 11.3384 -180 0 0
						 102.05 431.37 L11.34 431.37 A11.3384 11.3384 -180 0 0 0 442.7 L0 505.07 A11.3384 11.3384 -180 0 0 11.34
						 516.41 Z" class="st3"/>
			<text x="49.29" y="476.89" class="st2" v:langID="1044"><v:paragraph v:horizAlign="1"/><v:tabList/>Org</text>		</g>
		<g id="shape6-13" v:mID="6" v:groupContext="shape" transform="translate(439.62,-5.91929)">
			<title>Rounded Rectangle.6</title>
			<desc>Authorization Rules</desc>
			<v:userDefs>
				<v:ud v:nameU="CTypeTopLeftSnip" v:prompt="" v:val="VT0(0):5"/>
				<v:ud v:nameU="CTypeTopRightSnip" v:prompt="" v:val="VT0(0):5"/>
				<v:ud v:nameU="CTypeBotLeftSnip" v:prompt="" v:val="VT0(0):5"/>
				<v:ud v:nameU="CTypeBotRightSnip" v:prompt="" v:val="VT0(0):5"/>
				<v:ud v:nameU="CornerLockHoriz" v:prompt="" v:val="VT0(1):5"/>
				<v:ud v:nameU="CornerLockVert" v:prompt="" v:val="VT0(1):5"/>
				<v:ud v:nameU="CornerLockDiag" v:prompt="" v:val="VT0(0):5"/>
				<v:ud v:nameU="TopLeftOffset" v:prompt="" v:val="VT0(0.15748031496063):24"/>
				<v:ud v:nameU="TopRightOffset" v:prompt="" v:val="VT0(0.15748031496063):24"/>
				<v:ud v:nameU="BotLeftOffset" v:prompt="" v:val="VT0(0.15748031496063):24"/>
				<v:ud v:nameU="BotRightOffset" v:prompt="" v:val="VT0(0.15748031496063):24"/>
				<v:ud v:nameU="visVersion" v:prompt="" v:val="VT0(15):26"/>
			</v:userDefs>
			<v:textBlock v:margins="rect(4,4,4,4)" v:tabSpace="42.5197"/>
			<v:textRect cx="56.6929" cy="473.886" width="113.39" height="85.0394"/>
			<path d="M11.34 516.41 L102.05 516.41 A11.3384 11.3384 -180 0 0 113.39 505.07 L113.39 442.7 A11.3384 11.3384 -180 0 0
						 102.05 431.37 L11.34 431.37 A11.3384 11.3384 -180 0 0 0 442.7 L0 505.07 A11.3384 11.3384 -180 0 0 11.34
						 516.41 Z" class="st3"/>
			<text x="16.82" y="476.89" class="st2" v:langID="1044"><v:paragraph v:horizAlign="1"/><v:tabList/>Authorization Rules</text>		</g>
		<g id="shape7-16" v:mID="7" v:groupContext="shape" transform="translate(683.399,-79.6201)">
			<title>Rounded Rectangle.7</title>
			<desc>ProcessFlow</desc>
			<v:userDefs>
				<v:ud v:nameU="CTypeTopLeftSnip" v:prompt="" v:val="VT0(0):5"/>
				<v:ud v:nameU="CTypeTopRightSnip" v:prompt="" v:val="VT0(0):5"/>
				<v:ud v:nameU="CTypeBotLeftSnip" v:prompt="" v:val="VT0(0):5"/>
				<v:ud v:nameU="CTypeBotRightSnip" v:prompt="" v:val="VT0(0):5"/>
				<v:ud v:nameU="CornerLockHoriz" v:prompt="" v:val="VT0(1):5"/>
				<v:ud v:nameU="CornerLockVert" v:prompt="" v:val="VT0(1):5"/>
				<v:ud v:nameU="CornerLockDiag" v:prompt="" v:val="VT0(0):5"/>
				<v:ud v:nameU="TopLeftOffset" v:prompt="" v:val="VT0(0.15748031496063):24"/>
				<v:ud v:nameU="TopRightOffset" v:prompt="" v:val="VT0(0.15748031496063):24"/>
				<v:ud v:nameU="BotLeftOffset" v:prompt="" v:val="VT0(0.15748031496063):24"/>
				<v:ud v:nameU="BotRightOffset" v:prompt="" v:val="VT0(0.15748031496063):24"/>
				<v:ud v:nameU="visVersion" v:prompt="" v:val="VT0(15):26"/>
			</v:userDefs>
			<v:textBlock v:margins="rect(4,4,4,4)" v:tabSpace="42.5197"/>
			<v:textRect cx="56.6929" cy="473.886" width="113.39" height="85.0394"/>
			<path d="M11.34 516.41 L102.05 516.41 A11.3384 11.3384 -180 0 0 113.39 505.07 L113.39 442.7 A11.3384 11.3384 -180 0 0
						 102.05 431.37 L11.34 431.37 A11.3384 11.3384 -180 0 0 0 442.7 L0 505.07 A11.3384 11.3384 -180 0 0 11.34
						 516.41 Z" class="st3"/>
			<text x="31.56" y="476.89" class="st2" v:langID="1044"><v:paragraph v:horizAlign="1"/><v:tabList/>ProcessFlow</text>		</g>
		<g id="shape8-19" v:mID="8" v:groupContext="shape" transform="translate(133.478,-402.77)">
			<title>Rounded Rectangle.8</title>
			<desc>Organization</desc>
			<v:userDefs>
				<v:ud v:nameU="CTypeTopLeftSnip" v:prompt="" v:val="VT0(0):5"/>
				<v:ud v:nameU="CTypeTopRightSnip" v:prompt="" v:val="VT0(0):5"/>
				<v:ud v:nameU="CTypeBotLeftSnip" v:prompt="" v:val="VT0(0):5"/>
				<v:ud v:nameU="CTypeBotRightSnip" v:prompt="" v:val="VT0(0):5"/>
				<v:ud v:nameU="CornerLockHoriz" v:prompt="" v:val="VT0(1):5"/>
				<v:ud v:nameU="CornerLockVert" v:prompt="" v:val="VT0(1):5"/>
				<v:ud v:nameU="CornerLockDiag" v:prompt="" v:val="VT0(0):5"/>
				<v:ud v:nameU="TopLeftOffset" v:prompt="" v:val="VT0(0.15748031496063):24"/>
				<v:ud v:nameU="TopRightOffset" v:prompt="" v:val="VT0(0.15748031496063):24"/>
				<v:ud v:nameU="BotLeftOffset" v:prompt="" v:val="VT0(0.15748031496063):24"/>
				<v:ud v:nameU="BotRightOffset" v:prompt="" v:val="VT0(0.15748031496063):24"/>
				<v:ud v:nameU="visVersion" v:prompt="" v:val="VT0(15):26"/>
			</v:userDefs>
			<v:textBlock v:margins="rect(4,4,4,4)" v:tabSpace="42.5197"/>
			<v:textRect cx="56.6929" cy="473.886" width="113.39" height="85.0394"/>
			<path d="M11.34 516.41 L102.05 516.41 A11.3384 11.3384 -180 0 0 113.39 505.07 L113.39 442.7 A11.3384 11.3384 -180 0 0
						 102.05 431.37 L11.34 431.37 A11.3384 11.3384 -180 0 0 0 442.7 L0 505.07 A11.3384 11.3384 -180 0 0 11.34
						 516.41 Z" class="st3"/>
			<text x="30.66" y="476.89" class="st2" v:langID="1044"><v:paragraph v:horizAlign="1"/><v:tabList/>Organization</text>		</g>
		<g id="shape10-22" v:mID="10" v:groupContext="shape" transform="translate(297.888,-402.77)">
			<title>Rounded Rectangle.10</title>
			<desc>Person</desc>
			<v:userDefs>
				<v:ud v:nameU="CTypeTopLeftSnip" v:prompt="" v:val="VT0(0):5"/>
				<v:ud v:nameU="CTypeTopRightSnip" v:prompt="" v:val="VT0(0):5"/>
				<v:ud v:nameU="CTypeBotLeftSnip" v:prompt="" v:val="VT0(0):5"/>
				<v:ud v:nameU="CTypeBotRightSnip" v:prompt="" v:val="VT0(0):5"/>
				<v:ud v:nameU="CornerLockHoriz" v:prompt="" v:val="VT0(1):5"/>
				<v:ud v:nameU="CornerLockVert" v:prompt="" v:val="VT0(1):5"/>
				<v:ud v:nameU="CornerLockDiag" v:prompt="" v:val="VT0(0):5"/>
				<v:ud v:nameU="TopLeftOffset" v:prompt="" v:val="VT0(0.15748031496063):24"/>
				<v:ud v:nameU="TopRightOffset" v:prompt="" v:val="VT0(0.15748031496063):24"/>
				<v:ud v:nameU="BotLeftOffset" v:prompt="" v:val="VT0(0.15748031496063):24"/>
				<v:ud v:nameU="BotRightOffset" v:prompt="" v:val="VT0(0.15748031496063):24"/>
				<v:ud v:nameU="visVersion" v:prompt="" v:val="VT0(15):26"/>
			</v:userDefs>
			<v:textBlock v:margins="rect(4,4,4,4)" v:tabSpace="42.5197"/>
			<v:textRect cx="56.6929" cy="473.886" width="113.39" height="85.0394"/>
			<path d="M11.34 516.41 L102.05 516.41 A11.3384 11.3384 -180 0 0 113.39 505.07 L113.39 442.7 A11.3384 11.3384 -180 0 0
						 102.05 431.37 L11.34 431.37 A11.3384 11.3384 -180 0 0 0 442.7 L0 505.07 A11.3384 11.3384 -180 0 0 11.34
						 516.41 Z" class="st3"/>
			<text x="42.66" y="476.89" class="st2" v:langID="1044"><v:paragraph v:horizAlign="1"/><v:tabList/>Person</text>		</g>
		<g id="shape11-25" v:mID="11" v:groupContext="shape" v:layerMember="0" transform="translate(626.706,-438.203)">
			<title>Dynamic connector</title>
			<desc>OwnedBy (InstanceOwner)</desc>
			<v:textBlock v:margins="rect(4,4,4,4)" v:tabSpace="42.5197"/>
			<v:textRect cx="-94.0394" cy="509.319" width="97.27" height="17.6036"/>
			<path d="M0 509.32 L-181.04 509.32" class="st4"/>
			<rect v:rectContext="textBkgnd" x="-137.763" y="504.519" width="87.4482" height="9.59985" class="st6"/>
			<text x="-137.76" y="511.72" class="st7" v:langID="1044"><v:paragraph v:horizAlign="1"/><v:tabList/>OwnedBy (InstanceOwner)</text>		</g>
		<g id="shape13-33" v:mID="13" v:groupContext="shape" transform="translate(683.399,-232.691)">
			<title>Rounded Rectangle.13</title>
			<desc>ProcessTask</desc>
			<v:userDefs>
				<v:ud v:nameU="CTypeTopLeftSnip" v:prompt="" v:val="VT0(0):5"/>
				<v:ud v:nameU="CTypeTopRightSnip" v:prompt="" v:val="VT0(0):5"/>
				<v:ud v:nameU="CTypeBotLeftSnip" v:prompt="" v:val="VT0(0):5"/>
				<v:ud v:nameU="CTypeBotRightSnip" v:prompt="" v:val="VT0(0):5"/>
				<v:ud v:nameU="CornerLockHoriz" v:prompt="" v:val="VT0(1):5"/>
				<v:ud v:nameU="CornerLockVert" v:prompt="" v:val="VT0(1):5"/>
				<v:ud v:nameU="CornerLockDiag" v:prompt="" v:val="VT0(0):5"/>
				<v:ud v:nameU="TopLeftOffset" v:prompt="" v:val="VT0(0.15748031496063):24"/>
				<v:ud v:nameU="TopRightOffset" v:prompt="" v:val="VT0(0.15748031496063):24"/>
				<v:ud v:nameU="BotLeftOffset" v:prompt="" v:val="VT0(0.15748031496063):24"/>
				<v:ud v:nameU="BotRightOffset" v:prompt="" v:val="VT0(0.15748031496063):24"/>
				<v:ud v:nameU="visVersion" v:prompt="" v:val="VT0(15):26"/>
			</v:userDefs>
			<v:textBlock v:margins="rect(4,4,4,4)" v:tabSpace="42.5197"/>
			<v:textRect cx="56.6929" cy="473.886" width="113.39" height="85.0394"/>
			<path d="M11.34 516.41 L102.05 516.41 A11.3384 11.3384 -180 0 0 113.39 505.07 L113.39 442.7 A11.3384 11.3384 -180 0 0
						 102.05 431.37 L11.34 431.37 A11.3384 11.3384 -180 0 0 0 442.7 L0 505.07 A11.3384 11.3384 -180 0 0 11.34
						 516.41 Z" class="st3"/>
			<text x="32.16" y="476.89" class="st2" v:langID="1044"><v:paragraph v:horizAlign="1"/><v:tabList/>ProcessTask</text>		</g>
		<g id="shape14-36" v:mID="14" v:groupContext="shape" v:layerMember="0" transform="translate(683.399,-402.77)">
			<title>Dynamic connector.14</title>
			<desc>Is connected to a current process Task</desc>
			<v:textBlock v:margins="rect(4,4,4,4)" v:tabSpace="42.5197"/>
			<v:textRect cx="56.6929" cy="530.579" width="134.13" height="17.6036"/>
			<path d="M0 516.41 L0 527.04 L56.69 527.04 L56.69 594.4" class="st4"/>
			<rect v:rectContext="textBkgnd" x="-5.46475" y="525.779" width="124.316" height="9.59985" class="st6"/>
			<text x="-5.46" y="532.98" class="st7" v:langID="1044"><v:paragraph v:horizAlign="1"/><v:tabList/>Is connected to a current process Task</text>		</g>
		<g id="shape16-43" v:mID="16" v:groupContext="shape" v:layerMember="0" transform="translate(733.006,-232.691)">
			<title>Dynamic connector.16</title>
			<desc>Is part of</desc>
			<v:textBlock v:margins="rect(4,4,4,4)" v:tabSpace="42.5197"/>
			<v:textRect cx="7.08661" cy="550.421" width="40" height="17.6036"/>
			<path d="M7.09 516.41 L7.09 577.4" class="st4"/>
			<rect v:rectContext="textBkgnd" x="-7.37628" y="545.621" width="28.9259" height="9.59985" class="st6"/>
			<text x="-7.38" y="552.82" class="st7" v:langID="1044"><v:paragraph v:horizAlign="1"/><v:tabList/>Is part of</text>		</g>
		<g id="shape17-50" v:mID="17" v:groupContext="shape" v:layerMember="0" transform="translate(501.982,-252.533)">
			<title>Dynamic connector.17</title>
			<path d="M0 516.41 L0 362.85 L121.01 362.85" class="st4"/>
		</g>
		<g id="shape18-55" v:mID="18" v:groupContext="shape" transform="translate(0.249816,-90.9587)">
			<title>Rounded Rectangle.18</title>
			<desc>End User System</desc>
			<v:userDefs>
				<v:ud v:nameU="CTypeTopLeftSnip" v:prompt="" v:val="VT0(0):5"/>
				<v:ud v:nameU="CTypeTopRightSnip" v:prompt="" v:val="VT0(0):5"/>
				<v:ud v:nameU="CTypeBotLeftSnip" v:prompt="" v:val="VT0(0):5"/>
				<v:ud v:nameU="CTypeBotRightSnip" v:prompt="" v:val="VT0(0):5"/>
				<v:ud v:nameU="CornerLockHoriz" v:prompt="" v:val="VT0(1):5"/>
				<v:ud v:nameU="CornerLockVert" v:prompt="" v:val="VT0(1):5"/>
				<v:ud v:nameU="CornerLockDiag" v:prompt="" v:val="VT0(0):5"/>
				<v:ud v:nameU="TopLeftOffset" v:prompt="" v:val="VT0(0.15748031496063):24"/>
				<v:ud v:nameU="TopRightOffset" v:prompt="" v:val="VT0(0.15748031496063):24"/>
				<v:ud v:nameU="BotLeftOffset" v:prompt="" v:val="VT0(0.15748031496063):24"/>
				<v:ud v:nameU="BotRightOffset" v:prompt="" v:val="VT0(0.15748031496063):24"/>
				<v:ud v:nameU="visVersion" v:prompt="" v:val="VT0(15):26"/>
			</v:userDefs>
			<v:textBlock v:margins="rect(4,4,4,4)" v:tabSpace="42.5197"/>
			<v:textRect cx="56.6929" cy="473.886" width="113.39" height="85.0394"/>
			<path d="M11.34 516.41 L102.05 516.41 A11.3384 11.3384 -180 0 0 113.39 505.07 L113.39 442.7 A11.3384 11.3384 -180 0 0
						 102.05 431.37 L11.34 431.37 A11.3384 11.3384 -180 0 0 0 442.7 L0 505.07 A11.3384 11.3384 -180 0 0 11.34
						 516.41 Z" class="st3"/>
			<text x="22.67" y="476.89" class="st2" v:langID="1044"><v:paragraph v:horizAlign="1"/><v:tabList/>End User System</text>		</g>
		<g id="shape19-58" v:mID="19" v:groupContext="shape" transform="translate(0.249814,-184.502)">
			<title>Rounded Rectangle.19</title>
			<desc>User</desc>
			<v:userDefs>
				<v:ud v:nameU="CTypeTopLeftSnip" v:prompt="" v:val="VT0(0):5"/>
				<v:ud v:nameU="CTypeTopRightSnip" v:prompt="" v:val="VT0(0):5"/>
				<v:ud v:nameU="CTypeBotLeftSnip" v:prompt="" v:val="VT0(0):5"/>
				<v:ud v:nameU="CTypeBotRightSnip" v:prompt="" v:val="VT0(0):5"/>
				<v:ud v:nameU="CornerLockHoriz" v:prompt="" v:val="VT0(1):5"/>
				<v:ud v:nameU="CornerLockVert" v:prompt="" v:val="VT0(1):5"/>
				<v:ud v:nameU="CornerLockDiag" v:prompt="" v:val="VT0(0):5"/>
				<v:ud v:nameU="TopLeftOffset" v:prompt="" v:val="VT0(0.15748031496063):24"/>
				<v:ud v:nameU="TopRightOffset" v:prompt="" v:val="VT0(0.15748031496063):24"/>
				<v:ud v:nameU="BotLeftOffset" v:prompt="" v:val="VT0(0.15748031496063):24"/>
				<v:ud v:nameU="BotRightOffset" v:prompt="" v:val="VT0(0.15748031496063):24"/>
				<v:ud v:nameU="visVersion" v:prompt="" v:val="VT0(15):26"/>
			</v:userDefs>
			<v:textBlock v:margins="rect(4,4,4,4)" v:tabSpace="42.5197"/>
			<v:textRect cx="56.6929" cy="473.886" width="113.39" height="85.0394"/>
			<path d="M11.34 516.41 L102.05 516.41 A11.3384 11.3384 -180 0 0 113.39 505.07 L113.39 442.7 A11.3384 11.3384 -180 0 0
						 102.05 431.37 L11.34 431.37 A11.3384 11.3384 -180 0 0 0 442.7 L0 505.07 A11.3384 11.3384 -180 0 0 11.34
						 516.41 Z" class="st3"/>
			<text x="47.3" y="476.89" class="st2" v:langID="1044"><v:paragraph v:horizAlign="1"/><v:tabList/>User</text>		</g>
		<g id="shape22-61" v:mID="22" v:groupContext="shape" transform="translate(0.249814,-0.25)">
			<title>Rounded Rectangle.22</title>
			<v:userDefs>
				<v:ud v:nameU="CTypeTopLeftSnip" v:prompt="" v:val="VT0(0):5"/>
				<v:ud v:nameU="CTypeTopRightSnip" v:prompt="" v:val="VT0(0):5"/>
				<v:ud v:nameU="CTypeBotLeftSnip" v:prompt="" v:val="VT0(0):5"/>
				<v:ud v:nameU="CTypeBotRightSnip" v:prompt="" v:val="VT0(0):5"/>
				<v:ud v:nameU="CornerLockHoriz" v:prompt="" v:val="VT0(1):5"/>
				<v:ud v:nameU="CornerLockVert" v:prompt="" v:val="VT0(1):5"/>
				<v:ud v:nameU="CornerLockDiag" v:prompt="" v:val="VT0(0):5"/>
				<v:ud v:nameU="TopLeftOffset" v:prompt="" v:val="VT0(0.15748031496063):24"/>
				<v:ud v:nameU="TopRightOffset" v:prompt="" v:val="VT0(0.15748031496063):24"/>
				<v:ud v:nameU="BotLeftOffset" v:prompt="" v:val="VT0(0.15748031496063):24"/>
				<v:ud v:nameU="BotRightOffset" v:prompt="" v:val="VT0(0.15748031496063):24"/>
				<v:ud v:nameU="visVersion" v:prompt="" v:val="VT0(15):26"/>
			</v:userDefs>
			<path d="M11.34 516.41 L102.05 516.41 A11.3384 11.3384 -180 0 0 113.39 505.07 L113.39 442.7 A11.3384 11.3384 -180 0 0
						 102.05 431.37 L11.34 431.37 A11.3384 11.3384 -180 0 0 0 442.7 L0 505.07 A11.3384 11.3384 -180 0 0 11.34
						 516.41 Z" class="st3"/>
		</g>
	</g>
</svg>
