<svg width="1966" height="474" viewBox="0 0 1966 474" fill="none" xmlns="http://www.w3.org/2000/svg">
<g clip-path="url(#clip0_3439:19025)">
<path d="M0 106.556H370.491L438 236.556L370.491 365.556H0V106.556Z" fill="#022F51"/>
<path d="M402 106.556H772.491L840 236.556L772.491 365.556H402L473 236.556L402 106.556Z" fill="#EFEFEF"/>
<path d="M1197 107H1567.49L1635 237L1567.49 366H1197L1268 237L1197 107Z" fill="#EFEFEF"/>
<path d="M1596 107H1966.49V237V366H1596L1667 237L1596 107Z" fill="#D4F9E4"/>
<path d="M869 250H1236L1168.49 366H798L869 250Z" fill="#EFEFEF"/>
<path d="M798 107H1168.49L1236 227H869L798 107Z" fill="#EFEFEF"/>
<path d="M83.3672 207.81C81.9258 206.403 79.957 205.7 77.4258 205.7H68.1094V230.556H72.8555V221.134H77.4258C79.957 221.134 81.9258 220.431 83.3672 219.06C84.8086 217.688 85.5469 215.86 85.5469 213.54C85.5469 211.114 84.8086 209.216 83.3672 207.81ZM79.8516 216.071C79.2188 216.669 78.3047 216.985 77.1797 216.985H72.8555V209.813H77.1797C78.3398 209.813 79.2539 210.13 79.8867 210.763C80.5195 211.396 80.8359 212.345 80.8359 213.54C80.8359 214.63 80.4844 215.474 79.8516 216.071ZM88.3242 211.853V230.556H92.7891V219.341C92.7891 218.075 93.1055 217.056 93.7734 216.388C94.4414 215.72 95.3203 215.368 96.4102 215.368C97.043 215.368 97.7812 215.474 98.625 215.755V211.571C98.168 211.466 97.6758 211.431 97.1133 211.431C96.1641 211.431 95.2852 211.642 94.5117 212.028C93.7383 212.415 93.1406 212.978 92.6836 213.786V211.853H88.3242ZM102.211 228.868C103.582 230.134 105.41 230.767 107.766 230.767C110.086 230.767 111.949 230.134 113.285 228.868C114.621 227.603 115.289 225.599 115.289 222.927V219.446C115.289 216.774 114.621 214.806 113.285 213.54C111.949 212.274 110.086 211.606 107.766 211.606C105.41 211.606 103.582 212.274 102.211 213.54C100.84 214.806 100.172 216.774 100.172 219.446V222.927C100.172 225.599 100.84 227.603 102.211 228.868ZM110.859 222.892C110.859 225.493 109.84 226.829 107.766 226.829C105.656 226.829 104.602 225.493 104.602 222.892V219.517C104.602 216.915 105.656 215.579 107.766 215.579C109.84 215.579 110.859 216.915 110.859 219.517V222.892ZM118.84 211.853V236.181H123.305V228.868C124.324 230.134 125.766 230.767 127.629 230.767C129.422 230.767 130.898 230.134 132.059 228.833C133.219 227.532 133.816 225.634 133.816 223.032V219.341C133.816 216.739 133.219 214.806 132.059 213.54C130.898 212.274 129.352 211.606 127.488 211.606C125.73 211.606 124.289 212.345 123.199 213.751V211.853H118.84ZM129.352 222.892C129.352 225.493 128.402 226.829 126.469 226.829C125.449 226.829 124.676 226.478 124.113 225.81C123.551 225.142 123.27 224.157 123.27 222.892V219.517C123.27 218.251 123.551 217.267 124.113 216.599C124.676 215.931 125.414 215.579 126.363 215.579C127.277 215.579 128.016 215.896 128.543 216.493C129.07 217.091 129.352 218.11 129.352 219.517V222.892ZM139.09 228.868C140.461 230.134 142.289 230.767 144.645 230.767C146.965 230.767 148.828 230.134 150.164 228.868C151.5 227.603 152.168 225.599 152.168 222.927V219.446C152.168 216.774 151.5 214.806 150.164 213.54C148.828 212.274 146.965 211.606 144.645 211.606C142.289 211.606 140.461 212.274 139.09 213.54C137.719 214.806 137.051 216.774 137.051 219.446V222.927C137.051 225.599 137.719 227.603 139.09 228.868ZM147.738 222.892C147.738 225.493 146.719 226.829 144.645 226.829C142.535 226.829 141.48 225.493 141.48 222.892V219.517C141.48 216.915 142.535 215.579 144.645 215.579C146.719 215.579 147.738 216.915 147.738 219.517V222.892ZM157.02 229.22C158.32 230.274 160.043 230.767 162.188 230.767C164.402 230.767 166.195 230.274 167.602 229.22C169.008 228.165 169.711 226.688 169.711 224.755C169.711 223.208 169.254 221.978 168.305 221.099C167.355 220.22 165.949 219.657 164.086 219.376L161.871 219.024C161.027 218.919 160.465 218.708 160.078 218.392C159.691 218.075 159.516 217.653 159.516 217.091C159.516 216.493 159.727 216.001 160.219 215.649C160.711 215.298 161.414 215.122 162.328 215.122C163.242 215.122 163.945 215.298 164.473 215.649C165 216.001 165.246 216.528 165.246 217.161V217.267H169.359V217.056C169.359 216.036 169.078 215.122 168.48 214.278C167.883 213.435 167.074 212.767 166.02 212.31C164.965 211.853 163.734 211.606 162.328 211.606C160.289 211.606 158.602 212.134 157.301 213.188C156 214.243 155.332 215.614 155.332 217.407C155.332 218.954 155.789 220.185 156.668 221.028C157.547 221.872 158.953 222.435 160.816 222.751L162.785 223.067C163.734 223.208 164.402 223.419 164.824 223.735C165.246 224.052 165.457 224.509 165.457 225.071C165.457 225.774 165.176 226.302 164.613 226.653C164.051 227.005 163.312 227.181 162.328 227.181C161.414 227.181 160.676 226.97 160.113 226.583C159.551 226.196 159.27 225.634 159.27 224.931V224.86H155.086V225.001C155.086 226.759 155.719 228.165 157.02 229.22ZM176.883 222.54H187.816V220.044C187.816 217.267 187.113 215.157 185.742 213.751C184.371 212.345 182.508 211.606 180.152 211.606C177.762 211.606 175.863 212.31 174.492 213.716C173.121 215.122 172.453 217.231 172.453 220.044V222.329C172.453 225.212 173.156 227.321 174.562 228.692C175.969 230.063 177.902 230.767 180.293 230.767C182.578 230.767 184.371 230.239 185.707 229.149C187.043 228.06 187.676 226.653 187.676 224.86V224.685H183.422L183.387 224.79C183.352 225.458 183.07 225.985 182.578 226.372C182.086 226.759 181.348 226.935 180.469 226.935C179.309 226.935 178.465 226.618 177.832 226.021C177.199 225.423 176.883 224.438 176.883 223.032V222.54ZM177.727 216.353C178.289 215.755 179.098 215.438 180.152 215.438C182.297 215.438 183.352 216.599 183.352 218.989V219.481H176.883V219.376C176.883 217.97 177.164 216.95 177.727 216.353ZM80.168 252.294C78.9023 251.169 77.1094 250.606 74.7188 250.606C72.6094 250.606 70.8867 251.134 69.6562 252.153C68.4258 253.173 67.793 254.544 67.793 256.302V256.442H71.9414V256.337C71.9414 255.634 72.1875 255.106 72.6797 254.685C73.1719 254.263 73.8398 254.052 74.6836 254.052C76.6875 254.052 77.6719 255.036 77.6719 257.04V258.517H73.6992C71.6953 258.517 70.1133 258.974 68.9883 259.958C67.8633 260.942 67.3008 262.243 67.3008 263.931C67.3008 265.759 67.8281 267.2 68.8828 268.22C69.9375 269.239 71.4141 269.767 73.3477 269.767C74.3672 269.767 75.1758 269.626 75.8438 269.345C76.5117 269.063 77.1445 268.571 77.7773 267.938V269.556H82.1016V257.251C82.1016 255.071 81.4336 253.419 80.168 252.294ZM76.8984 265.372C76.3711 265.899 75.5273 266.181 74.3672 266.181C72.5391 266.181 71.625 265.372 71.625 263.825C71.625 262.313 72.5742 261.575 74.4375 261.575H77.6719V262.911C77.6719 264.001 77.4258 264.845 76.8984 265.372ZM95.3906 267.868C96.7617 269.134 98.5898 269.767 100.945 269.767C103.266 269.767 105.059 269.169 106.359 267.974C107.66 266.778 108.293 265.196 108.293 263.122V262.876H104.039V263.087C104.039 263.966 103.758 264.599 103.23 265.091C102.703 265.583 101.965 265.829 101.016 265.829C99.9961 265.829 99.1875 265.513 98.625 264.915C98.0625 264.317 97.7812 263.298 97.7812 261.892V258.517C97.7812 255.915 98.8711 254.579 101.016 254.579C101.965 254.579 102.703 254.86 103.23 255.353C103.758 255.845 104.039 256.548 104.039 257.427V257.638H108.293V257.286C108.293 255.212 107.66 253.56 106.359 252.399C105.059 251.239 103.266 250.606 100.945 250.606C98.5898 250.606 96.7617 251.274 95.3906 252.54C94.0195 253.806 93.3516 255.774 93.3516 258.446V261.927C93.3516 264.599 94.0195 266.603 95.3906 267.868ZM113.566 267.868C114.938 269.134 116.766 269.767 119.121 269.767C121.441 269.767 123.305 269.134 124.641 267.868C125.977 266.603 126.645 264.599 126.645 261.927V258.446C126.645 255.774 125.977 253.806 124.641 252.54C123.305 251.274 121.441 250.606 119.121 250.606C116.766 250.606 114.938 251.274 113.566 252.54C112.195 253.806 111.527 255.774 111.527 258.446V261.927C111.527 264.599 112.195 266.603 113.566 267.868ZM122.215 261.892C122.215 264.493 121.195 265.829 119.121 265.829C117.012 265.829 115.957 264.493 115.957 261.892V258.517C115.957 255.915 117.012 254.579 119.121 254.579C121.195 254.579 122.215 255.915 122.215 258.517V261.892ZM130.195 250.853V269.556H134.66V257.884C134.66 256.829 134.941 256.021 135.504 255.458C136.066 254.896 136.77 254.579 137.648 254.579C138.527 254.579 139.23 254.86 139.758 255.423C140.285 255.985 140.566 256.794 140.566 257.884V269.556H145.031V257.778C145.031 256.829 145.312 256.056 145.84 255.458C146.367 254.86 147.105 254.579 148.02 254.579C148.898 254.579 149.602 254.86 150.129 255.423C150.656 255.985 150.938 256.794 150.938 257.884V269.556H155.402V257.356C155.402 255.282 154.84 253.63 153.715 252.435C152.59 251.239 151.078 250.606 149.074 250.606C147 250.606 145.207 251.415 143.766 252.962C142.676 251.415 141.059 250.606 138.984 250.606C138.141 250.606 137.332 250.782 136.559 251.134C135.785 251.485 135.117 251.942 134.555 252.54V250.853H130.195ZM159.27 250.853V275.181H163.734V267.868C164.754 269.134 166.195 269.767 168.059 269.767C169.852 269.767 171.328 269.134 172.488 267.833C173.648 266.532 174.246 264.634 174.246 262.032V258.341C174.246 255.739 173.648 253.806 172.488 252.54C171.328 251.274 169.781 250.606 167.918 250.606C166.16 250.606 164.719 251.345 163.629 252.751V250.853H159.27ZM169.781 261.892C169.781 264.493 168.832 265.829 166.898 265.829C165.879 265.829 165.105 265.478 164.543 264.81C163.98 264.142 163.699 263.157 163.699 261.892V258.517C163.699 257.251 163.98 256.267 164.543 255.599C165.105 254.931 165.844 254.579 166.793 254.579C167.707 254.579 168.445 254.896 168.973 255.493C169.5 256.091 169.781 257.11 169.781 258.517V261.892ZM179.52 267.868C180.891 269.134 182.719 269.767 185.074 269.767C187.395 269.767 189.258 269.134 190.594 267.868C191.93 266.603 192.598 264.599 192.598 261.927V258.446C192.598 255.774 191.93 253.806 190.594 252.54C189.258 251.274 187.395 250.606 185.074 250.606C182.719 250.606 180.891 251.274 179.52 252.54C178.148 253.806 177.48 255.774 177.48 258.446V261.927C177.48 264.599 178.148 266.603 179.52 267.868ZM188.168 261.892C188.168 264.493 187.148 265.829 185.074 265.829C182.965 265.829 181.91 264.493 181.91 261.892V258.517C181.91 255.915 182.965 254.579 185.074 254.579C187.148 254.579 188.168 255.915 188.168 258.517V261.892ZM196.148 250.853V269.556H200.613V257.884C200.613 256.829 200.895 256.021 201.457 255.458C202.02 254.896 202.723 254.579 203.602 254.579C204.48 254.579 205.219 254.896 205.746 255.458C206.273 256.021 206.52 256.829 206.52 257.884V269.556H210.984V257.356C210.984 255.282 210.457 253.63 209.402 252.435C208.348 251.239 206.871 250.606 204.938 250.606C204.094 250.606 203.285 250.782 202.512 251.099C201.738 251.415 201.07 251.907 200.508 252.54V250.853H196.148ZM218.965 261.54H229.898V259.044C229.898 256.267 229.195 254.157 227.824 252.751C226.453 251.345 224.59 250.606 222.234 250.606C219.844 250.606 217.945 251.31 216.574 252.716C215.203 254.122 214.535 256.231 214.535 259.044V261.329C214.535 264.212 215.238 266.321 216.645 267.692C218.051 269.063 219.984 269.767 222.375 269.767C224.66 269.767 226.453 269.239 227.789 268.149C229.125 267.06 229.758 265.653 229.758 263.86V263.685H225.504L225.469 263.79C225.434 264.458 225.152 264.985 224.66 265.372C224.168 265.759 223.43 265.935 222.551 265.935C221.391 265.935 220.547 265.618 219.914 265.021C219.281 264.423 218.965 263.438 218.965 262.032V261.54ZM219.809 255.353C220.371 254.755 221.18 254.438 222.234 254.438C224.379 254.438 225.434 255.599 225.434 257.989V258.481H218.965V258.376C218.965 256.97 219.246 255.95 219.809 255.353ZM233.449 250.853V269.556H237.914V257.884C237.914 256.829 238.195 256.021 238.758 255.458C239.32 254.896 240.023 254.579 240.902 254.579C241.781 254.579 242.52 254.896 243.047 255.458C243.574 256.021 243.82 256.829 243.82 257.884V269.556H248.285V257.356C248.285 255.282 247.758 253.63 246.703 252.435C245.648 251.239 244.172 250.606 242.238 250.606C241.395 250.606 240.586 250.782 239.812 251.099C239.039 251.415 238.371 251.907 237.809 252.54V250.853H233.449ZM257.953 253.981H261.574V250.853H257.953V245.614L253.523 247.161V250.853H250.957V253.981H253.523V264.142C253.523 265.794 254.051 267.13 255.035 268.114C256.02 269.099 257.391 269.556 259.078 269.556H261.188V265.759H259.816C258.586 265.759 257.953 265.126 257.953 263.86V253.981Z" fill="white"/>
<path d="M1728.99 203.145H1726.35V223.113L1713.52 203.145H1710.88V228H1713.52V207.996L1726.35 228H1728.99V203.145ZM1736.41 219.352H1747.83V217.207C1747.83 214.605 1747.2 212.637 1745.93 211.371C1744.67 210.105 1742.98 209.508 1740.91 209.508C1738.83 209.508 1737.14 210.105 1735.88 211.371C1734.61 212.637 1733.95 214.605 1733.95 217.207V220.371C1733.95 223.043 1734.61 225.047 1735.88 226.312C1737.14 227.578 1738.83 228.211 1740.98 228.211C1743.05 228.211 1744.7 227.684 1745.9 226.664C1747.09 225.645 1747.69 224.238 1747.69 222.551V222.375H1745.3V222.48C1745.3 223.57 1744.95 224.449 1744.21 225.082C1743.47 225.715 1742.45 226.031 1741.15 226.031C1739.68 226.031 1738.52 225.609 1737.67 224.766C1736.83 223.922 1736.41 222.516 1736.41 220.441V219.352ZM1737.64 212.918C1738.45 212.109 1739.54 211.723 1740.91 211.723C1742.31 211.723 1743.37 212.109 1744.18 212.883C1744.98 213.656 1745.37 214.992 1745.37 216.891V217.523H1736.41V217.137C1736.41 215.133 1736.83 213.727 1737.64 212.918ZM1750.43 209.754L1755.99 228H1758.17L1762.77 213.27L1767.38 228H1769.59L1775.15 209.754H1772.48L1768.33 224.379L1763.79 209.754H1761.75L1757.22 224.379L1753.11 209.754H1750.43ZM1712.04 265.418C1713.34 266.613 1715.07 267.211 1717.25 267.211C1719.29 267.211 1720.9 266.648 1722.13 265.559C1723.36 264.469 1724 262.992 1724 261.129V260.988H1721.61V261.164C1721.61 262.395 1721.22 263.344 1720.45 264.012C1719.67 264.68 1718.62 265.031 1717.28 265.031C1715.8 265.031 1714.64 264.609 1713.8 263.801C1712.96 262.992 1712.57 261.586 1712.57 259.582V256.137C1712.57 254.133 1712.99 252.727 1713.84 251.918C1714.68 251.109 1715.84 250.723 1717.32 250.723C1718.65 250.723 1719.67 251.074 1720.45 251.742C1721.22 252.41 1721.61 253.359 1721.61 254.59V254.766H1724V254.59C1724 252.727 1723.36 251.25 1722.17 250.16C1720.97 249.07 1719.29 248.508 1717.21 248.508C1715.07 248.508 1713.34 249.105 1712.04 250.301C1710.74 251.496 1710.11 253.395 1710.11 255.996V259.723C1710.11 262.324 1710.74 264.223 1712.04 265.418ZM1730.15 265.418C1731.41 266.613 1733.1 267.211 1735.25 267.211C1737.32 267.211 1739.01 266.613 1740.27 265.418C1741.54 264.223 1742.17 262.324 1742.17 259.723V255.996C1742.17 253.395 1741.54 251.496 1740.27 250.301C1739.01 249.105 1737.32 248.508 1735.25 248.508C1733.1 248.508 1731.41 249.105 1730.15 250.301C1728.88 251.496 1728.21 253.395 1728.21 255.996V259.723C1728.21 262.324 1728.88 264.223 1730.15 265.418ZM1738.52 263.801C1737.71 264.609 1736.62 265.031 1735.25 265.031C1733.84 265.031 1732.71 264.609 1731.91 263.801C1731.1 262.992 1730.68 261.586 1730.68 259.582V256.137C1730.68 254.133 1731.1 252.727 1731.91 251.918C1732.71 251.109 1733.84 250.723 1735.25 250.723C1736.62 250.723 1737.71 251.109 1738.52 251.918C1739.32 252.727 1739.71 254.133 1739.71 256.137V259.582C1739.71 261.586 1739.32 262.992 1738.52 263.801ZM1746.99 248.754V267H1749.41V255.363C1749.41 253.887 1749.84 252.727 1750.61 251.918C1751.38 251.109 1752.4 250.723 1753.7 250.723C1755.04 250.723 1756.06 251.109 1756.8 251.918C1757.54 252.727 1757.89 253.852 1757.89 255.363V267H1760.38V255.258C1760.38 253.852 1760.73 252.727 1761.51 251.918C1762.28 251.109 1763.34 250.723 1764.67 250.723C1766.01 250.723 1766.99 251.109 1767.73 251.918C1768.47 252.727 1768.82 253.852 1768.82 255.363V267H1771.28V255.012C1771.28 252.973 1770.75 251.355 1769.66 250.23C1768.57 249.105 1767.06 248.543 1765.13 248.543C1762.63 248.543 1760.77 249.562 1759.57 251.602C1759.08 250.617 1758.41 249.844 1757.54 249.316C1756.66 248.789 1755.57 248.543 1754.34 248.543C1753.28 248.543 1752.3 248.754 1751.45 249.176C1750.61 249.598 1749.91 250.16 1749.38 250.969V248.754H1746.99ZM1776.66 248.754V272.484H1779.09V264.574C1780.11 266.332 1781.76 267.211 1784.04 267.211C1785.84 267.211 1787.31 266.613 1788.47 265.418C1789.63 264.223 1790.2 262.324 1790.2 259.723V255.996C1790.2 253.43 1789.6 251.531 1788.44 250.336C1787.28 249.141 1785.73 248.543 1783.87 248.543C1782.81 248.543 1781.86 248.789 1781.05 249.246C1780.25 249.703 1779.58 250.406 1779.09 251.32V248.754H1776.66ZM1787.73 259.582C1787.73 263.203 1786.36 265.031 1783.66 265.031C1782.18 265.031 1781.05 264.504 1780.28 263.484C1779.51 262.465 1779.09 261.164 1779.09 259.547V256.348C1779.09 254.66 1779.47 253.289 1780.21 252.27C1780.95 251.25 1782.04 250.723 1783.52 250.723C1786.33 250.723 1787.73 252.551 1787.73 256.172V259.582ZM1796.35 265.418C1797.61 266.613 1799.3 267.211 1801.45 267.211C1803.52 267.211 1805.21 266.613 1806.47 265.418C1807.74 264.223 1808.37 262.324 1808.37 259.723V255.996C1808.37 253.395 1807.74 251.496 1806.47 250.301C1805.21 249.105 1803.52 248.508 1801.45 248.508C1799.3 248.508 1797.61 249.105 1796.35 250.301C1795.08 251.496 1794.41 253.395 1794.41 255.996V259.723C1794.41 262.324 1795.08 264.223 1796.35 265.418ZM1804.71 263.801C1803.91 264.609 1802.82 265.031 1801.45 265.031C1800.04 265.031 1798.91 264.609 1798.11 263.801C1797.3 262.992 1796.88 261.586 1796.88 259.582V256.137C1796.88 254.133 1797.3 252.727 1798.11 251.918C1798.91 251.109 1800.04 250.723 1801.45 250.723C1802.82 250.723 1803.91 251.109 1804.71 251.918C1805.52 252.727 1805.91 254.133 1805.91 256.137V259.582C1805.91 261.586 1805.52 262.992 1804.71 263.801ZM1813.19 248.754V267H1815.61V255.363C1815.61 253.887 1816.04 252.727 1816.81 251.918C1817.58 251.109 1818.6 250.723 1819.9 250.723C1821.24 250.723 1822.26 251.109 1823 251.918C1823.73 252.727 1824.12 253.852 1824.12 255.363V267H1826.58V255.012C1826.58 252.973 1826.05 251.355 1825 250.23C1823.95 249.105 1822.47 248.543 1820.54 248.543C1819.48 248.543 1818.5 248.719 1817.65 249.141C1816.81 249.562 1816.11 250.16 1815.58 250.969V248.754H1813.19ZM1833.82 258.352H1845.25V256.207C1845.25 253.605 1844.62 251.637 1843.35 250.371C1842.09 249.105 1840.4 248.508 1838.32 248.508C1836.25 248.508 1834.56 249.105 1833.3 250.371C1832.03 251.637 1831.36 253.605 1831.36 256.207V259.371C1831.36 262.043 1832.03 264.047 1833.3 265.312C1834.56 266.578 1836.25 267.211 1838.39 267.211C1840.47 267.211 1842.12 266.684 1843.32 265.664C1844.51 264.645 1845.11 263.238 1845.11 261.551V261.375H1842.72V261.48C1842.72 262.57 1842.37 263.449 1841.63 264.082C1840.89 264.715 1839.87 265.031 1838.57 265.031C1837.09 265.031 1835.93 264.609 1835.09 263.766C1834.25 262.922 1833.82 261.516 1833.82 259.441V258.352ZM1835.05 251.918C1835.86 251.109 1836.95 250.723 1838.32 250.723C1839.73 250.723 1840.79 251.109 1841.59 251.883C1842.4 252.656 1842.79 253.992 1842.79 255.891V256.523H1833.82V256.137C1833.82 254.133 1834.25 252.727 1835.05 251.918ZM1850.07 248.754V267H1852.49V255.363C1852.49 253.887 1852.91 252.727 1853.69 251.918C1854.46 251.109 1855.48 250.723 1856.78 250.723C1858.12 250.723 1859.14 251.109 1859.88 251.918C1860.61 252.727 1861 253.852 1861 255.363V267H1863.46V255.012C1863.46 252.973 1862.93 251.355 1861.88 250.23C1860.82 249.105 1859.35 248.543 1857.41 248.543C1856.36 248.543 1855.38 248.719 1854.53 249.141C1853.69 249.562 1852.98 250.16 1852.46 250.969V248.754H1850.07ZM1872.67 250.688H1876.79V248.754H1872.67V243.41L1870.21 244.57V248.754H1867.36V250.688H1870.21V262.465C1870.21 263.871 1870.6 264.996 1871.37 265.805C1872.14 266.613 1873.23 267 1874.64 267H1876.47V264.855H1875.03C1873.48 264.855 1872.67 264.012 1872.67 262.359V250.688Z" fill="black"/>
<path d="M886.402 173.287V194H893.492C895.689 194 897.418 193.355 898.707 192.096C899.996 190.836 900.641 188.844 900.641 186.09V181.227C900.641 178.473 899.996 176.451 898.707 175.191C897.418 173.932 895.689 173.287 893.492 173.287H886.402ZM893.521 192.008H888.629V175.279H893.521C895.104 175.279 896.305 175.748 897.154 176.715C898.004 177.682 898.443 179.205 898.443 181.314V186.207C898.443 190.074 896.803 192.008 893.521 192.008ZM906.412 186.793H915.934V185.006C915.934 182.838 915.406 181.197 914.352 180.143C913.297 179.088 911.891 178.59 910.162 178.59C908.434 178.59 907.027 179.088 905.973 180.143C904.918 181.197 904.361 182.838 904.361 185.006V187.643C904.361 189.869 904.918 191.539 905.973 192.594C907.027 193.648 908.434 194.176 910.221 194.176C911.949 194.176 913.326 193.736 914.322 192.887C915.318 192.037 915.816 190.865 915.816 189.459V189.312H913.824V189.4C913.824 190.309 913.531 191.041 912.916 191.568C912.301 192.096 911.451 192.359 910.367 192.359C909.137 192.359 908.17 192.008 907.467 191.305C906.764 190.602 906.412 189.43 906.412 187.701V186.793ZM907.438 181.432C908.111 180.758 909.02 180.436 910.162 180.436C911.334 180.436 912.213 180.758 912.887 181.402C913.561 182.047 913.883 183.16 913.883 184.742V185.27H906.412V184.947C906.412 183.277 906.764 182.105 907.438 181.432ZM918.102 178.795L923.375 194H925.191L930.436 178.795H928.238L924.283 191.012L920.328 178.795H918.102ZM934.654 186.793H944.176V185.006C944.176 182.838 943.648 181.197 942.594 180.143C941.539 179.088 940.133 178.59 938.404 178.59C936.676 178.59 935.27 179.088 934.215 180.143C933.16 181.197 932.604 182.838 932.604 185.006V187.643C932.604 189.869 933.16 191.539 934.215 192.594C935.27 193.648 936.676 194.176 938.463 194.176C940.191 194.176 941.568 193.736 942.564 192.887C943.561 192.037 944.059 190.865 944.059 189.459V189.312H942.066V189.4C942.066 190.309 941.773 191.041 941.158 191.568C940.543 192.096 939.693 192.359 938.609 192.359C937.379 192.359 936.412 192.008 935.709 191.305C935.006 190.602 934.654 189.43 934.654 187.701V186.793ZM935.68 181.432C936.354 180.758 937.262 180.436 938.404 180.436C939.576 180.436 940.455 180.758 941.129 181.402C941.803 182.047 942.125 183.16 942.125 184.742V185.27H934.654V184.947C934.654 183.277 935.006 182.105 935.68 181.432ZM949.156 192.975C949.801 193.648 950.709 194 951.939 194H953.375V192.154H952.145C951.471 192.154 950.973 191.949 950.68 191.598C950.387 191.246 950.211 190.689 950.211 189.898V173.287H948.189V190.016C948.189 191.305 948.512 192.301 949.156 192.975ZM957.477 192.682C958.531 193.678 959.938 194.176 961.725 194.176C963.453 194.176 964.859 193.678 965.914 192.682C966.969 191.686 967.496 190.104 967.496 187.936V184.83C967.496 182.662 966.969 181.08 965.914 180.084C964.859 179.088 963.453 178.59 961.725 178.59C959.938 178.59 958.531 179.088 957.477 180.084C956.422 181.08 955.865 182.662 955.865 184.83V187.936C955.865 190.104 956.422 191.686 957.477 192.682ZM964.449 191.334C963.775 192.008 962.867 192.359 961.725 192.359C960.553 192.359 959.615 192.008 958.941 191.334C958.268 190.66 957.916 189.488 957.916 187.818V184.947C957.916 183.277 958.268 182.105 958.941 181.432C959.615 180.758 960.553 180.436 961.725 180.436C962.867 180.436 963.775 180.758 964.449 181.432C965.123 182.105 965.445 183.277 965.445 184.947V187.818C965.445 189.488 965.123 190.66 964.449 191.334ZM971.51 178.795V198.57H973.531V191.979C974.381 193.443 975.758 194.176 977.662 194.176C979.156 194.176 980.387 193.678 981.354 192.682C982.32 191.686 982.789 190.104 982.789 187.936V184.83C982.789 182.691 982.291 181.109 981.324 180.113C980.357 179.117 979.068 178.619 977.516 178.619C976.637 178.619 975.846 178.824 975.172 179.205C974.498 179.586 973.941 180.172 973.531 180.934V178.795H971.51ZM980.738 187.818C980.738 190.836 979.596 192.359 977.34 192.359C976.109 192.359 975.172 191.92 974.527 191.07C973.883 190.221 973.531 189.137 973.531 187.789V185.123C973.531 183.717 973.854 182.574 974.469 181.725C975.084 180.875 975.992 180.436 977.223 180.436C979.566 180.436 980.738 181.959 980.738 184.977V187.818ZM994.42 192.682C995.504 193.678 996.939 194.176 998.756 194.176C1000.46 194.176 1001.8 193.707 1002.83 192.799C1003.85 191.891 1004.38 190.66 1004.38 189.107V188.99H1002.39V189.137C1002.39 190.162 1002.07 190.953 1001.42 191.51C1000.78 192.066 999.898 192.359 998.785 192.359C997.555 192.359 996.588 192.008 995.885 191.334C995.182 190.66 994.859 189.488 994.859 187.818V184.947C994.859 183.277 995.211 182.105 995.914 181.432C996.617 180.758 997.584 180.436 998.814 180.436C999.928 180.436 1000.78 180.729 1001.42 181.285C1002.07 181.842 1002.39 182.633 1002.39 183.658V183.805H1004.38V183.658C1004.38 182.105 1003.85 180.875 1002.86 179.967C1001.86 179.059 1000.46 178.59 998.727 178.59C996.939 178.59 995.504 179.088 994.42 180.084C993.336 181.08 992.809 182.662 992.809 184.83V187.936C992.809 190.104 993.336 191.686 994.42 192.682ZM1009.51 192.682C1010.56 193.678 1011.97 194.176 1013.76 194.176C1015.48 194.176 1016.89 193.678 1017.95 192.682C1019 191.686 1019.53 190.104 1019.53 187.936V184.83C1019.53 182.662 1019 181.08 1017.95 180.084C1016.89 179.088 1015.48 178.59 1013.76 178.59C1011.97 178.59 1010.56 179.088 1009.51 180.084C1008.45 181.08 1007.9 182.662 1007.9 184.83V187.936C1007.9 190.104 1008.45 191.686 1009.51 192.682ZM1016.48 191.334C1015.81 192.008 1014.9 192.359 1013.76 192.359C1012.58 192.359 1011.65 192.008 1010.97 191.334C1010.3 190.66 1009.95 189.488 1009.95 187.818V184.947C1009.95 183.277 1010.3 182.105 1010.97 181.432C1011.65 180.758 1012.58 180.436 1013.76 180.436C1014.9 180.436 1015.81 180.758 1016.48 181.432C1017.15 182.105 1017.48 183.277 1017.48 184.947V187.818C1017.48 189.488 1017.15 190.66 1016.48 191.334ZM1023.54 178.795V194H1025.56V184.303C1025.56 183.072 1025.91 182.105 1026.56 181.432C1027.2 180.758 1028.05 180.436 1029.14 180.436C1030.25 180.436 1031.1 180.758 1031.71 181.432C1032.33 182.105 1032.62 183.043 1032.62 184.303V194H1034.7V184.215C1034.7 183.043 1035 182.105 1035.64 181.432C1036.29 180.758 1037.16 180.436 1038.28 180.436C1039.39 180.436 1040.21 180.758 1040.83 181.432C1041.44 182.105 1041.73 183.043 1041.73 184.303V194H1043.79V184.01C1043.79 182.311 1043.35 180.963 1042.44 180.025C1041.53 179.088 1040.27 178.619 1038.66 178.619C1036.58 178.619 1035.03 179.469 1034.03 181.168C1033.62 180.348 1033.06 179.703 1032.33 179.264C1031.6 178.824 1030.69 178.619 1029.66 178.619C1028.79 178.619 1027.96 178.795 1027.26 179.146C1026.56 179.498 1025.97 179.967 1025.53 180.641V178.795H1023.54ZM1048.27 178.795V198.57H1050.29V191.979C1051.14 193.443 1052.52 194.176 1054.42 194.176C1055.91 194.176 1057.14 193.678 1058.11 192.682C1059.08 191.686 1059.55 190.104 1059.55 187.936V184.83C1059.55 182.691 1059.05 181.109 1058.08 180.113C1057.12 179.117 1055.83 178.619 1054.27 178.619C1053.39 178.619 1052.6 178.824 1051.93 179.205C1051.26 179.586 1050.7 180.172 1050.29 180.934V178.795H1048.27ZM1057.5 187.818C1057.5 190.836 1056.35 192.359 1054.1 192.359C1052.87 192.359 1051.93 191.92 1051.29 191.07C1050.64 190.221 1050.29 189.137 1050.29 187.789V185.123C1050.29 183.717 1050.61 182.574 1051.23 181.725C1051.84 180.875 1052.75 180.436 1053.98 180.436C1056.32 180.436 1057.5 181.959 1057.5 184.977V187.818ZM1064.67 192.682C1065.73 193.678 1067.13 194.176 1068.92 194.176C1070.65 194.176 1072.06 193.678 1073.11 192.682C1074.17 191.686 1074.69 190.104 1074.69 187.936V184.83C1074.69 182.662 1074.17 181.08 1073.11 180.084C1072.06 179.088 1070.65 178.59 1068.92 178.59C1067.13 178.59 1065.73 179.088 1064.67 180.084C1063.62 181.08 1063.06 182.662 1063.06 184.83V187.936C1063.06 190.104 1063.62 191.686 1064.67 192.682ZM1071.65 191.334C1070.97 192.008 1070.06 192.359 1068.92 192.359C1067.75 192.359 1066.81 192.008 1066.14 191.334C1065.46 190.66 1065.11 189.488 1065.11 187.818V184.947C1065.11 183.277 1065.46 182.105 1066.14 181.432C1066.81 180.758 1067.75 180.436 1068.92 180.436C1070.06 180.436 1070.97 180.758 1071.65 181.432C1072.32 182.105 1072.64 183.277 1072.64 184.947V187.818C1072.64 189.488 1072.32 190.66 1071.65 191.334ZM1078.71 178.795V194H1080.73V184.303C1080.73 183.072 1081.08 182.105 1081.72 181.432C1082.37 180.758 1083.22 180.436 1084.3 180.436C1085.42 180.436 1086.27 180.758 1086.88 181.432C1087.5 182.105 1087.82 183.043 1087.82 184.303V194H1089.87V184.01C1089.87 182.311 1089.43 180.963 1088.55 180.025C1087.67 179.088 1086.44 178.619 1084.83 178.619C1083.95 178.619 1083.13 178.766 1082.43 179.117C1081.72 179.469 1081.14 179.967 1080.7 180.641V178.795H1078.71ZM1095.9 186.793H1105.43V185.006C1105.43 182.838 1104.9 181.197 1103.84 180.143C1102.79 179.088 1101.38 178.59 1099.65 178.59C1097.93 178.59 1096.52 179.088 1095.46 180.143C1094.41 181.197 1093.85 182.838 1093.85 185.006V187.643C1093.85 189.869 1094.41 191.539 1095.46 192.594C1096.52 193.648 1097.93 194.176 1099.71 194.176C1101.44 194.176 1102.82 193.736 1103.81 192.887C1104.81 192.037 1105.31 190.865 1105.31 189.459V189.312H1103.32V189.4C1103.32 190.309 1103.02 191.041 1102.41 191.568C1101.79 192.096 1100.94 192.359 1099.86 192.359C1098.63 192.359 1097.66 192.008 1096.96 191.305C1096.26 190.602 1095.9 189.43 1095.9 187.701V186.793ZM1096.93 181.432C1097.6 180.758 1098.51 180.436 1099.65 180.436C1100.83 180.436 1101.71 180.758 1102.38 181.402C1103.05 182.047 1103.38 183.16 1103.38 184.742V185.27H1095.9V184.947C1095.9 183.277 1096.26 182.105 1096.93 181.432ZM1109.44 178.795V194H1111.46V184.303C1111.46 183.072 1111.81 182.105 1112.46 181.432C1113.1 180.758 1113.95 180.436 1115.04 180.436C1116.15 180.436 1117 180.758 1117.61 181.432C1118.23 182.105 1118.55 183.043 1118.55 184.303V194H1120.6V184.01C1120.6 182.311 1120.16 180.963 1119.28 180.025C1118.4 179.088 1117.17 178.619 1115.56 178.619C1114.68 178.619 1113.86 178.766 1113.16 179.117C1112.46 179.469 1111.87 179.967 1111.43 180.641V178.795H1109.44ZM1128.28 180.406H1131.71V178.795H1128.28V174.342L1126.23 175.309V178.795H1123.85V180.406H1126.23V190.221C1126.23 191.393 1126.55 192.33 1127.19 193.004C1127.84 193.678 1128.75 194 1129.92 194H1131.44V192.213H1130.24C1128.95 192.213 1128.28 191.51 1128.28 190.133V180.406Z" fill="black"/>
<path d="M886.402 314.287V335H893.492C895.689 335 897.418 334.355 898.707 333.096C899.996 331.836 900.641 329.844 900.641 327.09V322.227C900.641 319.473 899.996 317.451 898.707 316.191C897.418 314.932 895.689 314.287 893.492 314.287H886.402ZM893.521 333.008H888.629V316.279H893.521C895.104 316.279 896.305 316.748 897.154 317.715C898.004 318.682 898.443 320.205 898.443 322.314V327.207C898.443 331.074 896.803 333.008 893.521 333.008ZM906.412 327.793H915.934V326.006C915.934 323.838 915.406 322.197 914.352 321.143C913.297 320.088 911.891 319.59 910.162 319.59C908.434 319.59 907.027 320.088 905.973 321.143C904.918 322.197 904.361 323.838 904.361 326.006V328.643C904.361 330.869 904.918 332.539 905.973 333.594C907.027 334.648 908.434 335.176 910.221 335.176C911.949 335.176 913.326 334.736 914.322 333.887C915.318 333.037 915.816 331.865 915.816 330.459V330.312H913.824V330.4C913.824 331.309 913.531 332.041 912.916 332.568C912.301 333.096 911.451 333.359 910.367 333.359C909.137 333.359 908.17 333.008 907.467 332.305C906.764 331.602 906.412 330.43 906.412 328.701V327.793ZM907.438 322.432C908.111 321.758 909.02 321.436 910.162 321.436C911.334 321.436 912.213 321.758 912.887 322.402C913.561 323.047 913.883 324.16 913.883 325.742V326.27H906.412V325.947C906.412 324.277 906.764 323.105 907.438 322.432ZM918.102 319.795L923.375 335H925.191L930.436 319.795H928.238L924.283 332.012L920.328 319.795H918.102ZM934.654 327.793H944.176V326.006C944.176 323.838 943.648 322.197 942.594 321.143C941.539 320.088 940.133 319.59 938.404 319.59C936.676 319.59 935.27 320.088 934.215 321.143C933.16 322.197 932.604 323.838 932.604 326.006V328.643C932.604 330.869 933.16 332.539 934.215 333.594C935.27 334.648 936.676 335.176 938.463 335.176C940.191 335.176 941.568 334.736 942.564 333.887C943.561 333.037 944.059 331.865 944.059 330.459V330.312H942.066V330.4C942.066 331.309 941.773 332.041 941.158 332.568C940.543 333.096 939.693 333.359 938.609 333.359C937.379 333.359 936.412 333.008 935.709 332.305C935.006 331.602 934.654 330.43 934.654 328.701V327.793ZM935.68 322.432C936.354 321.758 937.262 321.436 938.404 321.436C939.576 321.436 940.455 321.758 941.129 322.402C941.803 323.047 942.125 324.16 942.125 325.742V326.27H934.654V325.947C934.654 324.277 935.006 323.105 935.68 322.432ZM949.156 333.975C949.801 334.648 950.709 335 951.939 335H953.375V333.154H952.145C951.471 333.154 950.973 332.949 950.68 332.598C950.387 332.246 950.211 331.689 950.211 330.898V314.287H948.189V331.016C948.189 332.305 948.512 333.301 949.156 333.975ZM957.477 333.682C958.531 334.678 959.938 335.176 961.725 335.176C963.453 335.176 964.859 334.678 965.914 333.682C966.969 332.686 967.496 331.104 967.496 328.936V325.83C967.496 323.662 966.969 322.08 965.914 321.084C964.859 320.088 963.453 319.59 961.725 319.59C959.938 319.59 958.531 320.088 957.477 321.084C956.422 322.08 955.865 323.662 955.865 325.83V328.936C955.865 331.104 956.422 332.686 957.477 333.682ZM964.449 332.334C963.775 333.008 962.867 333.359 961.725 333.359C960.553 333.359 959.615 333.008 958.941 332.334C958.268 331.66 957.916 330.488 957.916 328.818V325.947C957.916 324.277 958.268 323.105 958.941 322.432C959.615 321.758 960.553 321.436 961.725 321.436C962.867 321.436 963.775 321.758 964.449 322.432C965.123 323.105 965.445 324.277 965.445 325.947V328.818C965.445 330.488 965.123 331.66 964.449 332.334ZM971.51 319.795V339.57H973.531V332.979C974.381 334.443 975.758 335.176 977.662 335.176C979.156 335.176 980.387 334.678 981.354 333.682C982.32 332.686 982.789 331.104 982.789 328.936V325.83C982.789 323.691 982.291 322.109 981.324 321.113C980.357 320.117 979.068 319.619 977.516 319.619C976.637 319.619 975.846 319.824 975.172 320.205C974.498 320.586 973.941 321.172 973.531 321.934V319.795H971.51ZM980.738 328.818C980.738 331.836 979.596 333.359 977.34 333.359C976.109 333.359 975.172 332.92 974.527 332.07C973.883 331.221 973.531 330.137 973.531 328.789V326.123C973.531 324.717 973.854 323.574 974.469 322.725C975.084 321.875 975.992 321.436 977.223 321.436C979.566 321.436 980.738 322.959 980.738 325.977V328.818ZM994.42 333.682C995.504 334.678 996.939 335.176 998.756 335.176C1000.46 335.176 1001.8 334.707 1002.83 333.799C1003.85 332.891 1004.38 331.66 1004.38 330.107V329.99H1002.39V330.137C1002.39 331.162 1002.07 331.953 1001.42 332.51C1000.78 333.066 999.898 333.359 998.785 333.359C997.555 333.359 996.588 333.008 995.885 332.334C995.182 331.66 994.859 330.488 994.859 328.818V325.947C994.859 324.277 995.211 323.105 995.914 322.432C996.617 321.758 997.584 321.436 998.814 321.436C999.928 321.436 1000.78 321.729 1001.42 322.285C1002.07 322.842 1002.39 323.633 1002.39 324.658V324.805H1004.38V324.658C1004.38 323.105 1003.85 321.875 1002.86 320.967C1001.86 320.059 1000.46 319.59 998.727 319.59C996.939 319.59 995.504 320.088 994.42 321.084C993.336 322.08 992.809 323.662 992.809 325.83V328.936C992.809 331.104 993.336 332.686 994.42 333.682ZM1009.51 333.682C1010.56 334.678 1011.97 335.176 1013.76 335.176C1015.48 335.176 1016.89 334.678 1017.95 333.682C1019 332.686 1019.53 331.104 1019.53 328.936V325.83C1019.53 323.662 1019 322.08 1017.95 321.084C1016.89 320.088 1015.48 319.59 1013.76 319.59C1011.97 319.59 1010.56 320.088 1009.51 321.084C1008.45 322.08 1007.9 323.662 1007.9 325.83V328.936C1007.9 331.104 1008.45 332.686 1009.51 333.682ZM1016.48 332.334C1015.81 333.008 1014.9 333.359 1013.76 333.359C1012.58 333.359 1011.65 333.008 1010.97 332.334C1010.3 331.66 1009.95 330.488 1009.95 328.818V325.947C1009.95 324.277 1010.3 323.105 1010.97 322.432C1011.65 321.758 1012.58 321.436 1013.76 321.436C1014.9 321.436 1015.81 321.758 1016.48 322.432C1017.15 323.105 1017.48 324.277 1017.48 325.947V328.818C1017.48 330.488 1017.15 331.66 1016.48 332.334ZM1023.54 319.795V335H1025.56V325.303C1025.56 324.072 1025.91 323.105 1026.56 322.432C1027.2 321.758 1028.05 321.436 1029.14 321.436C1030.25 321.436 1031.1 321.758 1031.71 322.432C1032.33 323.105 1032.62 324.043 1032.62 325.303V335H1034.7V325.215C1034.7 324.043 1035 323.105 1035.64 322.432C1036.29 321.758 1037.16 321.436 1038.28 321.436C1039.39 321.436 1040.21 321.758 1040.83 322.432C1041.44 323.105 1041.73 324.043 1041.73 325.303V335H1043.79V325.01C1043.79 323.311 1043.35 321.963 1042.44 321.025C1041.53 320.088 1040.27 319.619 1038.66 319.619C1036.58 319.619 1035.03 320.469 1034.03 322.168C1033.62 321.348 1033.06 320.703 1032.33 320.264C1031.6 319.824 1030.69 319.619 1029.66 319.619C1028.79 319.619 1027.96 319.795 1027.26 320.146C1026.56 320.498 1025.97 320.967 1025.53 321.641V319.795H1023.54ZM1048.27 319.795V339.57H1050.29V332.979C1051.14 334.443 1052.52 335.176 1054.42 335.176C1055.91 335.176 1057.14 334.678 1058.11 333.682C1059.08 332.686 1059.55 331.104 1059.55 328.936V325.83C1059.55 323.691 1059.05 322.109 1058.08 321.113C1057.12 320.117 1055.83 319.619 1054.27 319.619C1053.39 319.619 1052.6 319.824 1051.93 320.205C1051.26 320.586 1050.7 321.172 1050.29 321.934V319.795H1048.27ZM1057.5 328.818C1057.5 331.836 1056.35 333.359 1054.1 333.359C1052.87 333.359 1051.93 332.92 1051.29 332.07C1050.64 331.221 1050.29 330.137 1050.29 328.789V326.123C1050.29 324.717 1050.61 323.574 1051.23 322.725C1051.84 321.875 1052.75 321.436 1053.98 321.436C1056.32 321.436 1057.5 322.959 1057.5 325.977V328.818ZM1064.67 333.682C1065.73 334.678 1067.13 335.176 1068.92 335.176C1070.65 335.176 1072.06 334.678 1073.11 333.682C1074.17 332.686 1074.69 331.104 1074.69 328.936V325.83C1074.69 323.662 1074.17 322.08 1073.11 321.084C1072.06 320.088 1070.65 319.59 1068.92 319.59C1067.13 319.59 1065.73 320.088 1064.67 321.084C1063.62 322.08 1063.06 323.662 1063.06 325.83V328.936C1063.06 331.104 1063.62 332.686 1064.67 333.682ZM1071.65 332.334C1070.97 333.008 1070.06 333.359 1068.92 333.359C1067.75 333.359 1066.81 333.008 1066.14 332.334C1065.46 331.66 1065.11 330.488 1065.11 328.818V325.947C1065.11 324.277 1065.46 323.105 1066.14 322.432C1066.81 321.758 1067.75 321.436 1068.92 321.436C1070.06 321.436 1070.97 321.758 1071.65 322.432C1072.32 323.105 1072.64 324.277 1072.64 325.947V328.818C1072.64 330.488 1072.32 331.66 1071.65 332.334ZM1078.71 319.795V335H1080.73V325.303C1080.73 324.072 1081.08 323.105 1081.72 322.432C1082.37 321.758 1083.22 321.436 1084.3 321.436C1085.42 321.436 1086.27 321.758 1086.88 322.432C1087.5 323.105 1087.82 324.043 1087.82 325.303V335H1089.87V325.01C1089.87 323.311 1089.43 321.963 1088.55 321.025C1087.67 320.088 1086.44 319.619 1084.83 319.619C1083.95 319.619 1083.13 319.766 1082.43 320.117C1081.72 320.469 1081.14 320.967 1080.7 321.641V319.795H1078.71ZM1095.9 327.793H1105.43V326.006C1105.43 323.838 1104.9 322.197 1103.84 321.143C1102.79 320.088 1101.38 319.59 1099.65 319.59C1097.93 319.59 1096.52 320.088 1095.46 321.143C1094.41 322.197 1093.85 323.838 1093.85 326.006V328.643C1093.85 330.869 1094.41 332.539 1095.46 333.594C1096.52 334.648 1097.93 335.176 1099.71 335.176C1101.44 335.176 1102.82 334.736 1103.81 333.887C1104.81 333.037 1105.31 331.865 1105.31 330.459V330.312H1103.32V330.4C1103.32 331.309 1103.02 332.041 1102.41 332.568C1101.79 333.096 1100.94 333.359 1099.86 333.359C1098.63 333.359 1097.66 333.008 1096.96 332.305C1096.26 331.602 1095.9 330.43 1095.9 328.701V327.793ZM1096.93 322.432C1097.6 321.758 1098.51 321.436 1099.65 321.436C1100.83 321.436 1101.71 321.758 1102.38 322.402C1103.05 323.047 1103.38 324.16 1103.38 325.742V326.27H1095.9V325.947C1095.9 324.277 1096.26 323.105 1096.93 322.432ZM1109.44 319.795V335H1111.46V325.303C1111.46 324.072 1111.81 323.105 1112.46 322.432C1113.1 321.758 1113.95 321.436 1115.04 321.436C1116.15 321.436 1117 321.758 1117.61 322.432C1118.23 323.105 1118.55 324.043 1118.55 325.303V335H1120.6V325.01C1120.6 323.311 1120.16 321.963 1119.28 321.025C1118.4 320.088 1117.17 319.619 1115.56 319.619C1114.68 319.619 1113.86 319.766 1113.16 320.117C1112.46 320.469 1111.87 320.967 1111.43 321.641V319.795H1109.44ZM1128.28 321.406H1131.71V319.795H1128.28V315.342L1126.23 316.309V319.795H1123.85V321.406H1126.23V331.221C1126.23 332.393 1126.55 333.33 1127.19 334.004C1127.84 334.678 1128.75 335 1129.92 335H1131.44V333.213H1130.24C1128.95 333.213 1128.28 332.51 1128.28 331.133V321.406Z" fill="black"/>
<path d="M897.945 154.605H890.24L888.775 159H884.103L892.042 137.672H896.114L904.098 159H899.425L897.945 154.605ZM891.427 151.046H896.759L894.078 143.062L891.427 151.046ZM910.279 159H906.031V136.5H910.279V159ZM918.849 139.254V143.15H921.559V146.256H918.849V154.166C918.849 154.752 918.961 155.172 919.186 155.426C919.41 155.68 919.84 155.807 920.475 155.807C920.943 155.807 921.358 155.772 921.72 155.704V158.912C920.89 159.166 920.035 159.293 919.156 159.293C916.188 159.293 914.674 157.794 914.615 154.796V146.256H912.301V143.15H914.615V139.254H918.849ZM928.385 159H924.137V143.15H928.385V159ZM923.888 139.049C923.888 138.414 924.098 137.892 924.518 137.481C924.947 137.071 925.528 136.866 926.261 136.866C926.983 136.866 927.56 137.071 927.989 137.481C928.419 137.892 928.634 138.414 928.634 139.049C928.634 139.693 928.414 140.221 927.975 140.631C927.545 141.041 926.974 141.246 926.261 141.246C925.548 141.246 924.972 141.041 924.532 140.631C924.103 140.221 923.888 139.693 923.888 139.049ZM935.782 143.15L935.914 144.981C937.047 143.565 938.565 142.857 940.47 142.857C942.149 142.857 943.399 143.351 944.22 144.337C945.04 145.323 945.46 146.798 945.479 148.761V159H941.246V148.863C941.246 147.965 941.051 147.315 940.66 146.915C940.27 146.505 939.62 146.3 938.712 146.3C937.521 146.3 936.627 146.808 936.031 147.823V159H931.798V143.15H935.782ZM952.599 143.15L952.73 144.981C953.863 143.565 955.382 142.857 957.286 142.857C958.966 142.857 960.216 143.351 961.036 144.337C961.856 145.323 962.276 146.798 962.296 148.761V159H958.062V148.863C958.062 147.965 957.867 147.315 957.477 146.915C957.086 146.505 956.437 146.3 955.528 146.3C954.337 146.3 953.443 146.808 952.848 147.823V159H948.614V143.15H952.599Z" fill="black"/>
<path d="M886.812 298.506C888.043 299.619 889.771 300.176 891.998 300.176C894.254 300.176 896.07 299.648 897.389 298.535C898.707 297.422 899.381 295.84 899.381 293.76C899.381 290.508 897.623 288.574 894.049 287.93L891.852 287.549C890.885 287.373 890.182 287.051 889.713 286.641C889.244 286.23 889.01 285.674 889.01 284.941C889.01 284.121 889.273 283.477 889.801 283.008C890.328 282.539 891.061 282.305 892.086 282.305C893.082 282.305 893.844 282.51 894.371 282.979C894.898 283.447 895.191 284.18 895.25 285.176H899.029C898.883 283.213 898.209 281.689 897.008 280.605C895.807 279.521 894.225 278.994 892.174 278.994C890.064 278.994 888.365 279.58 887.105 280.693C885.846 281.807 885.201 283.301 885.201 285.234C885.201 288.457 887.047 290.391 890.797 291.006L892.76 291.328C893.727 291.475 894.43 291.768 894.869 292.207C895.309 292.646 895.514 293.262 895.514 294.082C895.514 295.898 894.43 296.807 892.203 296.807C891.031 296.807 890.152 296.572 889.566 296.104C888.98 295.635 888.629 294.844 888.482 293.701H884.762C884.908 295.811 885.582 297.393 886.812 298.506ZM905.475 293.32H914.586V291.24C914.586 288.926 914 287.168 912.857 285.996C911.715 284.824 910.162 284.209 908.199 284.209C906.207 284.209 904.625 284.795 903.482 285.967C902.34 287.139 901.783 288.896 901.783 291.24V293.145C901.783 295.547 902.369 297.305 903.541 298.447C904.713 299.59 906.324 300.176 908.316 300.176C910.221 300.176 911.715 299.736 912.828 298.828C913.941 297.92 914.469 296.748 914.469 295.254V295.107H910.924L910.895 295.195C910.865 295.752 910.631 296.191 910.221 296.514C909.811 296.836 909.195 296.982 908.463 296.982C907.496 296.982 906.793 296.719 906.266 296.221C905.738 295.723 905.475 294.902 905.475 293.73V293.32ZM906.178 288.164C906.646 287.666 907.32 287.402 908.199 287.402C909.986 287.402 910.865 288.369 910.865 290.361V290.771H905.475V290.684C905.475 289.512 905.709 288.662 906.178 288.164ZM917.545 284.414V300H921.266V290.654C921.266 289.6 921.529 288.75 922.086 288.193C922.643 287.637 923.375 287.344 924.283 287.344C924.811 287.344 925.426 287.432 926.129 287.666V284.18C925.748 284.092 925.338 284.062 924.869 284.062C924.078 284.062 923.346 284.238 922.701 284.561C922.057 284.883 921.559 285.352 921.178 286.025V284.414H917.545ZM926.92 284.414L932.34 300H935.387L940.807 284.414H936.881L933.893 294.287L930.846 284.414H926.92ZM942.828 284.414V300H946.52V284.414H942.828ZM942.77 279.287V282.275H946.549V279.287H942.77ZM951.324 298.594C952.467 299.648 953.99 300.176 955.953 300.176C957.887 300.176 959.381 299.678 960.465 298.682C961.549 297.686 962.076 296.367 962.076 294.639V294.434H958.531V294.609C958.531 295.342 958.297 295.869 957.857 296.279C957.418 296.689 956.803 296.895 956.012 296.895C955.162 296.895 954.488 296.631 954.02 296.133C953.551 295.635 953.316 294.785 953.316 293.613V290.801C953.316 288.633 954.225 287.52 956.012 287.52C956.803 287.52 957.418 287.754 957.857 288.164C958.297 288.574 958.531 289.16 958.531 289.893V290.068H962.076V289.775C962.076 288.047 961.549 286.67 960.465 285.703C959.381 284.736 957.887 284.209 955.953 284.209C953.99 284.209 952.467 284.766 951.324 285.82C950.182 286.875 949.625 288.516 949.625 290.742V293.643C949.625 295.869 950.182 297.539 951.324 298.594ZM968.463 293.32H977.574V291.24C977.574 288.926 976.988 287.168 975.846 285.996C974.703 284.824 973.15 284.209 971.188 284.209C969.195 284.209 967.613 284.795 966.471 285.967C965.328 287.139 964.771 288.896 964.771 291.24V293.145C964.771 295.547 965.357 297.305 966.529 298.447C967.701 299.59 969.312 300.176 971.305 300.176C973.209 300.176 974.703 299.736 975.816 298.828C976.93 297.92 977.457 296.748 977.457 295.254V295.107H973.912L973.883 295.195C973.854 295.752 973.619 296.191 973.209 296.514C972.799 296.836 972.184 296.982 971.451 296.982C970.484 296.982 969.781 296.719 969.254 296.221C968.727 295.723 968.463 294.902 968.463 293.73V293.32ZM969.166 288.164C969.635 287.666 970.309 287.402 971.188 287.402C972.975 287.402 973.854 288.369 973.854 290.361V290.771H968.463V290.684C968.463 289.512 968.697 288.662 969.166 288.164ZM987.271 292.002C987.271 297.51 989.732 300.234 994.684 300.234C996.998 300.234 998.844 299.59 1000.22 298.301C1001.6 297.012 1002.27 294.932 1002.27 292.002V287.256C1002.27 284.326 1001.63 282.217 1000.28 280.928C998.932 279.639 997.115 278.994 994.801 278.994C989.791 278.994 987.271 281.748 987.271 287.256V292.002ZM997.467 295.576C996.881 296.338 996.002 296.719 994.801 296.719C993.541 296.719 992.633 296.367 992.076 295.605C991.52 294.844 991.227 293.643 991.227 291.943V287.461C991.227 285.674 991.52 284.355 992.076 283.594C992.633 282.832 993.541 282.451 994.801 282.451C996.002 282.451 996.881 282.832 997.467 283.623C998.053 284.414 998.346 285.703 998.346 287.461V291.943C998.346 293.613 998.053 294.814 997.467 295.576ZM1003.44 284.414L1008.01 300H1011.15L1014.2 289.893L1017.24 300H1020.41L1024.98 284.414H1021.02L1018.59 294.287L1015.6 284.414H1012.82L1009.8 294.287L1007.37 284.414H1003.44ZM1026.85 284.414V300H1030.57V290.273C1030.57 289.395 1030.81 288.721 1031.28 288.252C1031.74 287.783 1032.33 287.52 1033.06 287.52C1033.79 287.52 1034.41 287.783 1034.85 288.252C1035.29 288.721 1035.49 289.395 1035.49 290.273V300H1039.21V289.834C1039.21 288.105 1038.78 286.729 1037.9 285.732C1037.02 284.736 1035.79 284.209 1034.18 284.209C1033.47 284.209 1032.8 284.355 1032.15 284.619C1031.51 284.883 1030.95 285.293 1030.48 285.82V284.414H1026.85ZM1045.87 293.32H1054.98V291.24C1054.98 288.926 1054.39 287.168 1053.25 285.996C1052.11 284.824 1050.55 284.209 1048.59 284.209C1046.6 284.209 1045.02 284.795 1043.87 285.967C1042.73 287.139 1042.17 288.896 1042.17 291.24V293.145C1042.17 295.547 1042.76 297.305 1043.93 298.447C1045.1 299.59 1046.71 300.176 1048.71 300.176C1050.61 300.176 1052.11 299.736 1053.22 298.828C1054.33 297.92 1054.86 296.748 1054.86 295.254V295.107H1051.31L1051.29 295.195C1051.26 295.752 1051.02 296.191 1050.61 296.514C1050.2 296.836 1049.59 296.982 1048.85 296.982C1047.89 296.982 1047.18 296.719 1046.66 296.221C1046.13 295.723 1045.87 294.902 1045.87 293.73V293.32ZM1046.57 288.164C1047.04 287.666 1047.71 287.402 1048.59 287.402C1050.38 287.402 1051.26 288.369 1051.26 290.361V290.771H1045.87V290.684C1045.87 289.512 1046.1 288.662 1046.57 288.164ZM1057.94 284.414V300H1061.66V290.654C1061.66 289.6 1061.92 288.75 1062.48 288.193C1063.03 287.637 1063.77 287.344 1064.67 287.344C1065.2 287.344 1065.82 287.432 1066.52 287.666V284.18C1066.14 284.092 1065.73 284.062 1065.26 284.062C1064.47 284.062 1063.74 284.238 1063.09 284.561C1062.45 284.883 1061.95 285.352 1061.57 286.025V284.414H1057.94Z" fill="black"/>
<path d="M1048.5 85.4778C1048.49 86.5823 1049.37 87.4876 1050.48 87.4999L1068.48 87.6999C1069.58 87.7121 1070.49 86.8267 1070.5 85.7222C1070.51 84.6177 1069.63 83.7124 1068.52 83.7001L1052.52 83.5223L1052.7 67.5233C1052.71 66.4188 1051.83 65.5135 1050.72 65.5012C1049.62 65.489 1048.71 66.3744 1048.7 67.4789L1048.5 85.4778ZM1344.93 84.0994C1266.69 4.34859 1140.93 -5.73692 1049.1 84.0702L1051.9 86.9298C1142.07 -1.26308 1265.31 8.65141 1342.07 86.9006L1344.93 84.0994Z" fill="#BCC7CC"/>
<path d="M258 85.0334C257.988 86.1379 258.873 87.0433 259.978 87.0555L277.977 87.2555C279.081 87.2678 279.986 86.3824 279.999 85.2779C280.011 84.1734 279.126 83.268 278.021 83.2558L262.022 83.078L262.2 67.079C262.212 65.9745 261.327 65.0692 260.222 65.0569C259.118 65.0446 258.212 65.9301 258.2 67.0346L258 85.0334ZM554.428 83.6551C476.191 3.90425 350.427 -6.18125 258.602 83.6258L261.398 86.4855C351.573 -1.70742 474.809 8.20707 551.572 86.4563L554.428 83.6551Z" fill="#BCC7CC"/>
<path d="M1048.5 389.022C1048.49 387.918 1049.37 387.012 1050.48 387L1068.48 386.8C1069.58 386.788 1070.49 387.673 1070.5 388.778C1070.51 389.882 1069.63 390.788 1068.52 390.8L1052.52 390.978L1052.7 406.977C1052.71 408.081 1051.83 408.986 1050.72 408.999C1049.62 409.011 1048.71 408.126 1048.7 407.021L1048.5 389.022ZM1344.93 390.401C1266.69 470.151 1140.93 480.237 1049.1 390.43L1051.9 387.57C1142.07 475.763 1265.31 465.849 1342.07 387.599L1344.93 390.401Z" fill="#BCC7CC"/>
<path d="M258 388.578C257.988 387.473 258.873 386.568 259.978 386.556L277.977 386.356C279.081 386.344 279.986 387.229 279.999 388.333C280.011 389.438 279.126 390.343 278.021 390.356L262.022 390.533L262.2 406.532C262.212 407.637 261.327 408.542 260.222 408.554C259.118 408.567 258.212 407.681 258.2 406.577L258 388.578ZM554.428 389.956C476.191 469.707 350.427 479.793 258.602 389.986L261.398 387.126C351.573 475.319 474.809 465.404 551.572 387.155L554.428 389.956Z" fill="#BCC7CC"/>
<path d="M516.496 236.102L522.086 247H525.109L519.273 235.855C520.961 235.469 522.227 234.695 523.176 233.535C524.125 232.375 524.582 230.934 524.582 229.141C524.582 226.926 523.914 225.168 522.578 223.973C521.242 222.777 519.414 222.145 517.094 222.145H507.883V247H510.52V236.102H516.496ZM510.52 233.816V224.535H516.883C518.5 224.535 519.766 224.922 520.645 225.695C521.523 226.469 521.945 227.629 521.945 229.176C521.945 230.652 521.488 231.812 520.609 232.621C519.73 233.43 518.5 233.816 516.883 233.816H510.52ZM530.664 238.352H542.09V236.207C542.09 233.605 541.457 231.637 540.191 230.371C538.926 229.105 537.238 228.508 535.164 228.508C533.09 228.508 531.402 229.105 530.137 230.371C528.871 231.637 528.203 233.605 528.203 236.207V239.371C528.203 242.043 528.871 244.047 530.137 245.312C531.402 246.578 533.09 247.211 535.234 247.211C537.309 247.211 538.961 246.684 540.156 245.664C541.352 244.645 541.949 243.238 541.949 241.551V241.375H539.559V241.48C539.559 242.57 539.207 243.449 538.469 244.082C537.73 244.715 536.711 245.031 535.41 245.031C533.934 245.031 532.773 244.609 531.93 243.766C531.086 242.922 530.664 241.516 530.664 239.441V238.352ZM531.895 231.918C532.703 231.109 533.793 230.723 535.164 230.723C536.57 230.723 537.625 231.109 538.434 231.883C539.242 232.656 539.629 233.992 539.629 235.891V236.523H530.664V236.137C530.664 234.133 531.086 232.727 531.895 231.918ZM544.691 228.754L551.02 247H553.199L559.492 228.754H556.855L552.109 243.414L547.363 228.754H544.691ZM562.973 228.754V247H565.434V228.754H562.973ZM562.902 222.531V225.766H565.504V222.531H562.902ZM572.957 238.352H584.383V236.207C584.383 233.605 583.75 231.637 582.484 230.371C581.219 229.105 579.531 228.508 577.457 228.508C575.383 228.508 573.695 229.105 572.43 230.371C571.164 231.637 570.496 233.605 570.496 236.207V239.371C570.496 242.043 571.164 244.047 572.43 245.312C573.695 246.578 575.383 247.211 577.527 247.211C579.602 247.211 581.254 246.684 582.449 245.664C583.645 244.645 584.242 243.238 584.242 241.551V241.375H581.852V241.48C581.852 242.57 581.5 243.449 580.762 244.082C580.023 244.715 579.004 245.031 577.703 245.031C576.227 245.031 575.066 244.609 574.223 243.766C573.379 242.922 572.957 241.516 572.957 239.441V238.352ZM574.188 231.918C574.996 231.109 576.086 230.723 577.457 230.723C578.863 230.723 579.918 231.109 580.727 231.883C581.535 232.656 581.922 233.992 581.922 235.891V236.523H572.957V236.137C572.957 234.133 573.379 232.727 574.188 231.918ZM586.984 228.754L592.539 247H594.719L599.324 232.27L603.93 247H606.145L611.699 228.754H609.027L604.879 243.379L600.344 228.754H598.305L593.77 243.379L589.656 228.754H586.984ZM625.129 244.574C626.148 246.332 627.801 247.211 630.086 247.211C631.879 247.211 633.355 246.578 634.516 245.383C635.676 244.188 636.238 242.289 636.238 239.723V235.996C636.238 233.43 635.641 231.496 634.48 230.301C633.32 229.105 631.773 228.508 629.91 228.508C628.855 228.508 627.906 228.719 627.098 229.211C626.289 229.703 625.621 230.406 625.129 231.32V222.145H622.703V247H625.129V244.574ZM633.777 239.582C633.777 243.203 632.406 245.031 629.699 245.031C628.223 245.031 627.098 244.504 626.324 243.484C625.551 242.465 625.129 241.164 625.129 239.547V236.348C625.129 234.66 625.516 233.289 626.254 232.27C626.992 231.25 628.082 230.723 629.559 230.723C632.371 230.723 633.777 232.551 633.777 236.137V239.582ZM653.641 228.754H651.074L646.293 243.273L641.512 228.754H638.84L645.133 246.824L644.746 247.949C644.465 248.758 644.113 249.355 643.656 249.707C643.199 250.059 642.531 250.234 641.652 250.234H640.773V252.484H641.828C643.059 252.484 644.078 252.203 644.852 251.641C645.625 251.078 646.223 250.199 646.645 248.969L653.641 228.754ZM677.582 241.023L679.691 247H682.469L673.434 222.145H671.219L662.184 247H664.961L667.035 241.023H677.582ZM676.844 238.809H667.809L672.309 225.836L676.844 238.809ZM686.547 245.77C687.32 246.578 688.41 247 689.887 247H691.609V244.785H690.133C689.324 244.785 688.727 244.539 688.375 244.117C688.023 243.695 687.812 243.027 687.812 242.078V222.145H685.387V242.219C685.387 243.766 685.773 244.961 686.547 245.77ZM699.027 230.688H703.141V228.754H699.027V223.41L696.566 224.57V228.754H693.719V230.688H696.566V242.465C696.566 243.871 696.953 244.996 697.727 245.805C698.5 246.613 699.59 247 700.996 247H702.824V244.855H701.383C699.836 244.855 699.027 244.012 699.027 242.359V230.688ZM707.711 228.754V247H710.172V228.754H707.711ZM707.641 222.531V225.766H710.242V222.531H707.641ZM715.832 228.754V247H718.258V235.363C718.258 233.887 718.68 232.727 719.453 231.918C720.227 231.109 721.246 230.723 722.547 230.723C723.883 230.723 724.902 231.109 725.641 231.918C726.379 232.727 726.766 233.852 726.766 235.363V247H729.227V235.012C729.227 232.973 728.699 231.355 727.645 230.23C726.59 229.105 725.113 228.543 723.18 228.543C722.125 228.543 721.141 228.719 720.297 229.141C719.453 229.562 718.75 230.16 718.223 230.969V228.754H715.832ZM734.605 228.754V247H737.031V235.363C737.031 233.887 737.453 232.727 738.227 231.918C739 231.109 740.02 230.723 741.32 230.723C742.656 230.723 743.676 231.109 744.414 231.918C745.152 232.727 745.539 233.852 745.539 235.363V247H748V235.012C748 232.973 747.473 231.355 746.418 230.23C745.363 229.105 743.887 228.543 741.953 228.543C740.898 228.543 739.914 228.719 739.07 229.141C738.227 229.562 737.523 230.16 736.996 230.969V228.754H734.605Z" fill="black"/>
<path d="M1315.5 236.102L1321.09 247H1324.11L1318.27 235.855C1319.96 235.469 1321.23 234.695 1322.18 233.535C1323.12 232.375 1323.58 230.934 1323.58 229.141C1323.58 226.926 1322.91 225.168 1321.58 223.973C1320.24 222.777 1318.41 222.145 1316.09 222.145H1306.88V247H1309.52V236.102H1315.5ZM1309.52 233.816V224.535H1315.88C1317.5 224.535 1318.77 224.922 1319.64 225.695C1320.52 226.469 1320.95 227.629 1320.95 229.176C1320.95 230.652 1320.49 231.812 1319.61 232.621C1318.73 233.43 1317.5 233.816 1315.88 233.816H1309.52ZM1329.66 238.352H1341.09V236.207C1341.09 233.605 1340.46 231.637 1339.19 230.371C1337.93 229.105 1336.24 228.508 1334.16 228.508C1332.09 228.508 1330.4 229.105 1329.14 230.371C1327.87 231.637 1327.2 233.605 1327.2 236.207V239.371C1327.2 242.043 1327.87 244.047 1329.14 245.312C1330.4 246.578 1332.09 247.211 1334.23 247.211C1336.31 247.211 1337.96 246.684 1339.16 245.664C1340.35 244.645 1340.95 243.238 1340.95 241.551V241.375H1338.56V241.48C1338.56 242.57 1338.21 243.449 1337.47 244.082C1336.73 244.715 1335.71 245.031 1334.41 245.031C1332.93 245.031 1331.77 244.609 1330.93 243.766C1330.09 242.922 1329.66 241.516 1329.66 239.441V238.352ZM1330.89 231.918C1331.7 231.109 1332.79 230.723 1334.16 230.723C1335.57 230.723 1336.62 231.109 1337.43 231.883C1338.24 232.656 1338.63 233.992 1338.63 235.891V236.523H1329.66V236.137C1329.66 234.133 1330.09 232.727 1330.89 231.918ZM1343.69 228.754L1350.02 247H1352.2L1358.49 228.754H1355.86L1351.11 243.414L1346.36 228.754H1343.69ZM1361.97 228.754V247H1364.43V228.754H1361.97ZM1361.9 222.531V225.766H1364.5V222.531H1361.9ZM1371.96 238.352H1383.38V236.207C1383.38 233.605 1382.75 231.637 1381.48 230.371C1380.22 229.105 1378.53 228.508 1376.46 228.508C1374.38 228.508 1372.7 229.105 1371.43 230.371C1370.16 231.637 1369.5 233.605 1369.5 236.207V239.371C1369.5 242.043 1370.16 244.047 1371.43 245.312C1372.7 246.578 1374.38 247.211 1376.53 247.211C1378.6 247.211 1380.25 246.684 1381.45 245.664C1382.64 244.645 1383.24 243.238 1383.24 241.551V241.375H1380.85V241.48C1380.85 242.57 1380.5 243.449 1379.76 244.082C1379.02 244.715 1378 245.031 1376.7 245.031C1375.23 245.031 1374.07 244.609 1373.22 243.766C1372.38 242.922 1371.96 241.516 1371.96 239.441V238.352ZM1373.19 231.918C1374 231.109 1375.09 230.723 1376.46 230.723C1377.86 230.723 1378.92 231.109 1379.73 231.883C1380.54 232.656 1380.92 233.992 1380.92 235.891V236.523H1371.96V236.137C1371.96 234.133 1372.38 232.727 1373.19 231.918ZM1385.98 228.754L1391.54 247H1393.72L1398.32 232.27L1402.93 247H1405.14L1410.7 228.754H1408.03L1403.88 243.379L1399.34 228.754H1397.3L1392.77 243.379L1388.66 228.754H1385.98ZM1424.13 244.574C1425.15 246.332 1426.8 247.211 1429.09 247.211C1430.88 247.211 1432.36 246.578 1433.52 245.383C1434.68 244.188 1435.24 242.289 1435.24 239.723V235.996C1435.24 233.43 1434.64 231.496 1433.48 230.301C1432.32 229.105 1430.77 228.508 1428.91 228.508C1427.86 228.508 1426.91 228.719 1426.1 229.211C1425.29 229.703 1424.62 230.406 1424.13 231.32V222.145H1421.7V247H1424.13V244.574ZM1432.78 239.582C1432.78 243.203 1431.41 245.031 1428.7 245.031C1427.22 245.031 1426.1 244.504 1425.32 243.484C1424.55 242.465 1424.13 241.164 1424.13 239.547V236.348C1424.13 234.66 1424.52 233.289 1425.25 232.27C1425.99 231.25 1427.08 230.723 1428.56 230.723C1431.37 230.723 1432.78 232.551 1432.78 236.137V239.582ZM1452.64 228.754H1450.07L1445.29 243.273L1440.51 228.754H1437.84L1444.13 246.824L1443.75 247.949C1443.46 248.758 1443.11 249.355 1442.66 249.707C1442.2 250.059 1441.53 250.234 1440.65 250.234H1439.77V252.484H1440.83C1442.06 252.484 1443.08 252.203 1443.85 251.641C1444.62 251.078 1445.22 250.199 1445.64 248.969L1452.64 228.754ZM1476.58 241.023L1478.69 247H1481.47L1472.43 222.145H1470.22L1461.18 247H1463.96L1466.04 241.023H1476.58ZM1475.84 238.809H1466.81L1471.31 225.836L1475.84 238.809ZM1485.55 245.77C1486.32 246.578 1487.41 247 1488.89 247H1490.61V244.785H1489.13C1488.32 244.785 1487.73 244.539 1487.38 244.117C1487.02 243.695 1486.81 243.027 1486.81 242.078V222.145H1484.39V242.219C1484.39 243.766 1484.77 244.961 1485.55 245.77ZM1498.03 230.688H1502.14V228.754H1498.03V223.41L1495.57 224.57V228.754H1492.72V230.688H1495.57V242.465C1495.57 243.871 1495.95 244.996 1496.73 245.805C1497.5 246.613 1498.59 247 1500 247H1501.82V244.855H1500.38C1498.84 244.855 1498.03 244.012 1498.03 242.359V230.688ZM1506.71 228.754V247H1509.17V228.754H1506.71ZM1506.64 222.531V225.766H1509.24V222.531H1506.64ZM1514.83 228.754V247H1517.26V235.363C1517.26 233.887 1517.68 232.727 1518.45 231.918C1519.23 231.109 1520.25 230.723 1521.55 230.723C1522.88 230.723 1523.9 231.109 1524.64 231.918C1525.38 232.727 1525.77 233.852 1525.77 235.363V247H1528.23V235.012C1528.23 232.973 1527.7 231.355 1526.64 230.23C1525.59 229.105 1524.11 228.543 1522.18 228.543C1521.12 228.543 1520.14 228.719 1519.3 229.141C1518.45 229.562 1517.75 230.16 1517.22 230.969V228.754H1514.83ZM1533.61 228.754V247H1536.03V235.363C1536.03 233.887 1536.45 232.727 1537.23 231.918C1538 231.109 1539.02 230.723 1540.32 230.723C1541.66 230.723 1542.68 231.109 1543.41 231.918C1544.15 232.727 1544.54 233.852 1544.54 235.363V247H1547V235.012C1547 232.973 1546.47 231.355 1545.42 230.23C1544.36 229.105 1542.89 228.543 1540.95 228.543C1539.9 228.543 1538.91 228.719 1538.07 229.141C1537.23 229.562 1536.52 230.16 1536 230.969V228.754H1533.61Z" fill="black"/>
</g>
<defs>
<clipPath id="clip0_3439:19025">
<rect width="1966" height="474" fill="white"/>
</clipPath>
</defs>
</svg>
