<svg width="1966" height="474" viewBox="0 0 1966 474" fill="none" xmlns="http://www.w3.org/2000/svg">
<g clip-path="url(#clip0)">
<path d="M0 106.556H370.491L438 236.556L370.491 365.556H0V106.556Z" fill="#022F51"/>
<path d="M402 106.556H772.491L840 236.556L772.491 365.556H402L473 236.556L402 106.556Z" fill="#EFEFEF"/>
<path d="M1197 107H1567.49L1635 237L1567.49 366H1197L1268 237L1197 107Z" fill="#EFEFEF"/>
<path d="M1596 107H1966.49V237V366H1596L1667 237L1596 107Z" fill="#D4F9E4"/>
<path d="M869 250H1236L1168.49 366H798L869 250Z" fill="#EFEFEF"/>
<path d="M798 107H1168.49L1236 227H869L798 107Z" fill="#EFEFEF"/>
<path d="M72.8555 209.813H83.8945V205.7H68.1094V230.556H72.8555V220.29H82.3125V216.177H72.8555V209.813ZM87.1289 228.868C88.5 230.134 90.3281 230.767 92.6836 230.767C95.0039 230.767 96.8672 230.134 98.2031 228.868C99.5391 227.603 100.207 225.599 100.207 222.927V219.446C100.207 216.774 99.5391 214.806 98.2031 213.54C96.8672 212.274 95.0039 211.606 92.6836 211.606C90.3281 211.606 88.5 212.274 87.1289 213.54C85.7578 214.806 85.0898 216.774 85.0898 219.446V222.927C85.0898 225.599 85.7578 227.603 87.1289 228.868ZM95.7773 222.892C95.7773 225.493 94.7578 226.829 92.6836 226.829C90.5742 226.829 89.5195 225.493 89.5195 222.892V219.517C89.5195 216.915 90.5742 215.579 92.6836 215.579C94.7578 215.579 95.7773 216.915 95.7773 219.517V222.892ZM103.758 211.853V230.556H108.223V219.341C108.223 218.075 108.539 217.056 109.207 216.388C109.875 215.72 110.754 215.368 111.844 215.368C112.477 215.368 113.215 215.474 114.059 215.755V211.571C113.602 211.466 113.109 211.431 112.547 211.431C111.598 211.431 110.719 211.642 109.945 212.028C109.172 212.415 108.574 212.978 108.117 213.786V211.853H103.758ZM120.035 222.54H130.969V220.044C130.969 217.267 130.266 215.157 128.895 213.751C127.523 212.345 125.66 211.606 123.305 211.606C120.914 211.606 119.016 212.31 117.645 213.716C116.273 215.122 115.605 217.231 115.605 220.044V222.329C115.605 225.212 116.309 227.321 117.715 228.692C119.121 230.063 121.055 230.767 123.445 230.767C125.73 230.767 127.523 230.239 128.859 229.149C130.195 228.06 130.828 226.653 130.828 224.86V224.685H126.574L126.539 224.79C126.504 225.458 126.223 225.985 125.73 226.372C125.238 226.759 124.5 226.935 123.621 226.935C122.461 226.935 121.617 226.618 120.984 226.021C120.352 225.423 120.035 224.438 120.035 223.032V222.54ZM120.879 216.353C121.441 215.755 122.25 215.438 123.305 215.438C125.449 215.438 126.504 216.599 126.504 218.989V219.481H120.035V219.376C120.035 217.97 120.316 216.95 120.879 216.353ZM135.82 229.22C137.121 230.274 138.844 230.767 140.988 230.767C143.203 230.767 144.996 230.274 146.402 229.22C147.809 228.165 148.512 226.688 148.512 224.755C148.512 223.208 148.055 221.978 147.105 221.099C146.156 220.22 144.75 219.657 142.887 219.376L140.672 219.024C139.828 218.919 139.266 218.708 138.879 218.392C138.492 218.075 138.316 217.653 138.316 217.091C138.316 216.493 138.527 216.001 139.02 215.649C139.512 215.298 140.215 215.122 141.129 215.122C142.043 215.122 142.746 215.298 143.273 215.649C143.801 216.001 144.047 216.528 144.047 217.161V217.267H148.16V217.056C148.16 216.036 147.879 215.122 147.281 214.278C146.684 213.435 145.875 212.767 144.82 212.31C143.766 211.853 142.535 211.606 141.129 211.606C139.09 211.606 137.402 212.134 136.102 213.188C134.801 214.243 134.133 215.614 134.133 217.407C134.133 218.954 134.59 220.185 135.469 221.028C136.348 221.872 137.754 222.435 139.617 222.751L141.586 223.067C142.535 223.208 143.203 223.419 143.625 223.735C144.047 224.052 144.258 224.509 144.258 225.071C144.258 225.774 143.977 226.302 143.414 226.653C142.852 227.005 142.113 227.181 141.129 227.181C140.215 227.181 139.477 226.97 138.914 226.583C138.352 226.196 138.07 225.634 138.07 224.931V224.86H133.887V225.001C133.887 226.759 134.52 228.165 135.82 229.22ZM153.082 229.079C154.066 230.063 155.473 230.556 157.266 230.556H159.305V226.688H157.793C157.16 226.688 156.738 226.548 156.457 226.231C156.176 225.915 156.035 225.353 156.035 224.579V205.7H151.57V224.86C151.57 226.688 152.098 228.095 153.082 229.079ZM174.105 213.294C172.84 212.169 171.047 211.606 168.656 211.606C166.547 211.606 164.824 212.134 163.594 213.153C162.363 214.173 161.73 215.544 161.73 217.302V217.442H165.879V217.337C165.879 216.634 166.125 216.106 166.617 215.685C167.109 215.263 167.777 215.052 168.621 215.052C170.625 215.052 171.609 216.036 171.609 218.04V219.517H167.637C165.633 219.517 164.051 219.974 162.926 220.958C161.801 221.942 161.238 223.243 161.238 224.931C161.238 226.759 161.766 228.2 162.82 229.22C163.875 230.239 165.352 230.767 167.285 230.767C168.305 230.767 169.113 230.626 169.781 230.345C170.449 230.063 171.082 229.571 171.715 228.938V230.556H176.039V218.251C176.039 216.071 175.371 214.419 174.105 213.294ZM170.836 226.372C170.309 226.899 169.465 227.181 168.305 227.181C166.477 227.181 165.562 226.372 165.562 224.825C165.562 223.313 166.512 222.575 168.375 222.575H171.609V223.911C171.609 225.001 171.363 225.845 170.836 226.372ZM166.02 209.813C166.723 210.517 167.602 210.868 168.656 210.868C169.711 210.868 170.59 210.517 171.293 209.813C171.996 209.11 172.348 208.196 172.348 207.142C172.348 206.052 171.996 205.173 171.293 204.47C170.59 203.767 169.711 203.415 168.656 203.415C167.602 203.415 166.723 203.767 166.02 204.47C165.316 205.173 164.93 206.052 164.93 207.142C164.93 208.196 165.316 209.11 166.02 209.813ZM169.852 208.372C169.535 208.724 169.148 208.899 168.656 208.899C168.199 208.899 167.812 208.724 167.496 208.372C167.18 208.021 167.004 207.634 167.004 207.142C167.004 206.649 167.145 206.263 167.461 205.911C167.777 205.56 168.164 205.384 168.656 205.384C169.148 205.384 169.535 205.56 169.852 205.911C170.168 206.263 170.344 206.649 170.344 207.142C170.344 207.634 170.168 208.021 169.852 208.372ZM191.719 222.54H202.652V220.044C202.652 217.267 201.949 215.157 200.578 213.751C199.207 212.345 197.344 211.606 194.988 211.606C192.598 211.606 190.699 212.31 189.328 213.716C187.957 215.122 187.289 217.231 187.289 220.044V222.329C187.289 225.212 187.992 227.321 189.398 228.692C190.805 230.063 192.738 230.767 195.129 230.767C197.414 230.767 199.207 230.239 200.543 229.149C201.879 228.06 202.512 226.653 202.512 224.86V224.685H198.258L198.223 224.79C198.188 225.458 197.906 225.985 197.414 226.372C196.922 226.759 196.184 226.935 195.305 226.935C194.145 226.935 193.301 226.618 192.668 226.021C192.035 225.423 191.719 224.438 191.719 223.032V222.54ZM192.562 216.353C193.125 215.755 193.934 215.438 194.988 215.438C197.133 215.438 198.188 216.599 198.188 218.989V219.481H191.719V219.376C191.719 217.97 192 216.95 192.562 216.353ZM206.203 211.853V230.556H210.668V218.884C210.668 217.829 210.949 217.021 211.512 216.458C212.074 215.896 212.777 215.579 213.656 215.579C214.535 215.579 215.273 215.896 215.801 216.458C216.328 217.021 216.574 217.829 216.574 218.884V230.556H221.039V218.356C221.039 216.282 220.512 214.63 219.457 213.435C218.402 212.239 216.926 211.606 214.992 211.606C214.148 211.606 213.34 211.782 212.566 212.099C211.793 212.415 211.125 212.907 210.562 213.54V211.853H206.203ZM232.43 211.853V230.556H236.895V218.884C236.895 217.829 237.176 217.021 237.738 216.458C238.301 215.896 239.004 215.579 239.883 215.579C240.762 215.579 241.5 215.896 242.027 216.458C242.555 217.021 242.801 217.829 242.801 218.884V230.556H247.266V218.356C247.266 216.282 246.738 214.63 245.684 213.435C244.629 212.239 243.152 211.606 241.219 211.606C240.375 211.606 239.566 211.782 238.793 212.099C238.02 212.415 237.352 212.907 236.789 213.54V211.853H232.43ZM265.688 211.853H261.117L257.391 223.595L253.699 211.853H248.988L255.316 230.063L255.246 230.31C255.035 231.013 254.754 231.47 254.402 231.716C254.051 231.962 253.523 232.103 252.82 232.103H251.414V236.11H252.961C254.438 236.11 255.633 235.794 256.547 235.161C257.461 234.528 258.129 233.544 258.621 232.173L265.688 211.853ZM74.4023 261.716L78.832 269.556H84.2109L77.3555 258.271L83.7539 250.853H78.4453L72.3984 258.622V244.7H67.9336V269.556H72.3984V264.001L74.4023 261.716ZM86.918 267.868C88.2891 269.134 90.1172 269.767 92.4727 269.767C94.793 269.767 96.6562 269.134 97.9922 267.868C99.3281 266.603 99.9961 264.599 99.9961 261.927V258.446C99.9961 255.774 99.3281 253.806 97.9922 252.54C96.6562 251.274 94.793 250.606 92.4727 250.606C90.1172 250.606 88.2891 251.274 86.918 252.54C85.5469 253.806 84.8789 255.774 84.8789 258.446V261.927C84.8789 264.599 85.5469 266.603 86.918 267.868ZM95.5664 261.892C95.5664 264.493 94.5469 265.829 92.4727 265.829C90.3633 265.829 89.3086 264.493 89.3086 261.892V258.517C89.3086 255.915 90.3633 254.579 92.4727 254.579C94.5469 254.579 95.5664 255.915 95.5664 258.517V261.892ZM103.547 250.853V269.556H108.012V257.884C108.012 256.829 108.293 256.021 108.855 255.458C109.418 254.896 110.121 254.579 111 254.579C111.879 254.579 112.582 254.86 113.109 255.423C113.637 255.985 113.918 256.794 113.918 257.884V269.556H118.383V257.778C118.383 256.829 118.664 256.056 119.191 255.458C119.719 254.86 120.457 254.579 121.371 254.579C122.25 254.579 122.953 254.86 123.48 255.423C124.008 255.985 124.289 256.794 124.289 257.884V269.556H128.754V257.356C128.754 255.282 128.191 253.63 127.066 252.435C125.941 251.239 124.43 250.606 122.426 250.606C120.352 250.606 118.559 251.415 117.117 252.962C116.027 251.415 114.41 250.606 112.336 250.606C111.492 250.606 110.684 250.782 109.91 251.134C109.137 251.485 108.469 251.942 107.906 252.54V250.853H103.547ZM132.621 250.853V275.181H137.086V267.868C138.105 269.134 139.547 269.767 141.41 269.767C143.203 269.767 144.68 269.134 145.84 267.833C147 266.532 147.598 264.634 147.598 262.032V258.341C147.598 255.739 147 253.806 145.84 252.54C144.68 251.274 143.133 250.606 141.27 250.606C139.512 250.606 138.07 251.345 136.98 252.751V250.853H132.621ZM143.133 261.892C143.133 264.493 142.184 265.829 140.25 265.829C139.23 265.829 138.457 265.478 137.895 264.81C137.332 264.142 137.051 263.157 137.051 261.892V258.517C137.051 257.251 137.332 256.267 137.895 255.599C138.457 254.931 139.195 254.579 140.145 254.579C141.059 254.579 141.797 254.896 142.324 255.493C142.852 256.091 143.133 257.11 143.133 258.517V261.892ZM152.871 267.868C154.242 269.134 156.07 269.767 158.426 269.767C160.746 269.767 162.609 269.134 163.945 267.868C165.281 266.603 165.949 264.599 165.949 261.927V258.446C165.949 255.774 165.281 253.806 163.945 252.54C162.609 251.274 160.746 250.606 158.426 250.606C156.07 250.606 154.242 251.274 152.871 252.54C151.5 253.806 150.832 255.774 150.832 258.446V261.927C150.832 264.599 151.5 266.603 152.871 267.868ZM161.52 261.892C161.52 264.493 160.5 265.829 158.426 265.829C156.316 265.829 155.262 264.493 155.262 261.892V258.517C155.262 255.915 156.316 254.579 158.426 254.579C160.5 254.579 161.52 255.915 161.52 258.517V261.892ZM169.5 250.853V269.556H173.965V257.884C173.965 256.829 174.246 256.021 174.809 255.458C175.371 254.896 176.074 254.579 176.953 254.579C177.832 254.579 178.57 254.896 179.098 255.458C179.625 256.021 179.871 256.829 179.871 257.884V269.556H184.336V257.356C184.336 255.282 183.809 253.63 182.754 252.435C181.699 251.239 180.223 250.606 178.289 250.606C177.445 250.606 176.637 250.782 175.863 251.099C175.09 251.415 174.422 251.907 173.859 252.54V250.853H169.5ZM192.316 261.54H203.25V259.044C203.25 256.267 202.547 254.157 201.176 252.751C199.805 251.345 197.941 250.606 195.586 250.606C193.195 250.606 191.297 251.31 189.926 252.716C188.555 254.122 187.887 256.231 187.887 259.044V261.329C187.887 264.212 188.59 266.321 189.996 267.692C191.402 269.063 193.336 269.767 195.727 269.767C198.012 269.767 199.805 269.239 201.141 268.149C202.477 267.06 203.109 265.653 203.109 263.86V263.685H198.855L198.82 263.79C198.785 264.458 198.504 264.985 198.012 265.372C197.52 265.759 196.781 265.935 195.902 265.935C194.742 265.935 193.898 265.618 193.266 265.021C192.633 264.423 192.316 263.438 192.316 262.032V261.54ZM193.16 255.353C193.723 254.755 194.531 254.438 195.586 254.438C197.73 254.438 198.785 255.599 198.785 257.989V258.481H192.316V258.376C192.316 256.97 192.598 255.95 193.16 255.353ZM206.801 250.853V269.556H211.266V257.884C211.266 256.829 211.547 256.021 212.109 255.458C212.672 254.896 213.375 254.579 214.254 254.579C215.133 254.579 215.871 254.896 216.398 255.458C216.926 256.021 217.172 256.829 217.172 257.884V269.556H221.637V257.356C221.637 255.282 221.109 253.63 220.055 252.435C219 251.239 217.523 250.606 215.59 250.606C214.746 250.606 213.938 250.782 213.164 251.099C212.391 251.415 211.723 251.907 211.16 252.54V250.853H206.801ZM231.305 253.981H234.926V250.853H231.305V245.614L226.875 247.161V250.853H224.309V253.981H226.875V264.142C226.875 265.794 227.402 267.13 228.387 268.114C229.371 269.099 230.742 269.556 232.43 269.556H234.539V265.759H233.168C231.938 265.759 231.305 265.126 231.305 263.86V253.981Z" fill="white"/>
<path d="M507.746 228.996C509.328 230.508 511.402 231.281 514.039 231.281C516.641 231.281 518.75 230.543 520.297 229.066C521.844 227.59 522.582 225.199 522.582 221.93V218.203H514.004V220.488H519.945V222.387C519.945 224.637 519.453 226.324 518.469 227.344C517.484 228.363 516.008 228.891 514.109 228.891C510.031 228.891 507.992 226.57 507.992 221.93V215.461C507.992 212.93 508.52 211.031 509.539 209.906C510.559 208.781 512.07 208.219 514.074 208.219C515.867 208.219 517.273 208.676 518.328 209.59C519.383 210.504 519.875 211.77 519.875 213.352V213.492H522.512V213.352C522.512 211.875 522.16 210.539 521.457 209.414C520.754 208.289 519.77 207.41 518.504 206.777C517.238 206.145 515.727 205.828 514.039 205.828C511.402 205.828 509.328 206.602 507.746 208.113C506.164 209.625 505.391 212.051 505.391 215.355V221.789C505.391 225.094 506.164 227.484 507.746 228.996ZM527.539 206.145V209.414H530.105V206.145H527.539ZM523.848 234.234V236.484H525.57C527.047 236.484 528.172 236.062 528.945 235.254C529.719 234.445 530.07 233.215 530.07 231.668V212.754H527.645V231.527C527.645 232.477 527.434 233.18 527.082 233.602C526.73 234.023 526.133 234.234 525.324 234.234H523.848ZM537.629 222.352H549.055V220.207C549.055 217.605 548.422 215.637 547.156 214.371C545.891 213.105 544.203 212.508 542.129 212.508C540.055 212.508 538.367 213.105 537.102 214.371C535.836 215.637 535.168 217.605 535.168 220.207V223.371C535.168 226.043 535.836 228.047 537.102 229.312C538.367 230.578 540.055 231.211 542.199 231.211C544.273 231.211 545.926 230.684 547.121 229.664C548.316 228.645 548.914 227.238 548.914 225.551V225.375H546.523V225.48C546.523 226.57 546.172 227.449 545.434 228.082C544.695 228.715 543.676 229.031 542.375 229.031C540.898 229.031 539.738 228.609 538.895 227.766C538.051 226.922 537.629 225.516 537.629 223.441V222.352ZM538.859 215.918C539.668 215.109 540.758 214.723 542.129 214.723C543.535 214.723 544.59 215.109 545.398 215.883C546.207 216.656 546.594 217.992 546.594 219.891V220.523H537.629V220.137C537.629 218.133 538.051 216.727 538.859 215.918ZM553.871 212.754V231H556.297V219.363C556.297 217.887 556.719 216.727 557.492 215.918C558.266 215.109 559.285 214.723 560.586 214.723C561.922 214.723 562.941 215.109 563.68 215.918C564.418 216.727 564.805 217.852 564.805 219.363V231H567.266V219.012C567.266 216.973 566.738 215.355 565.684 214.23C564.629 213.105 563.152 212.543 561.219 212.543C560.164 212.543 559.18 212.719 558.336 213.141C557.492 213.562 556.789 214.16 556.262 214.969V212.754H553.871ZM572.645 212.754V231H575.07V219.363C575.07 217.887 575.492 216.727 576.266 215.918C577.039 215.109 578.059 214.723 579.359 214.723C580.695 214.723 581.715 215.109 582.453 215.918C583.191 216.727 583.578 217.852 583.578 219.363V231H586.039V219.012C586.039 216.973 585.512 215.355 584.457 214.23C583.402 213.105 581.926 212.543 579.992 212.543C578.938 212.543 577.953 212.719 577.109 213.141C576.266 213.562 575.562 214.16 575.035 214.969V212.754H572.645ZM592.754 229.418C594.02 230.613 595.707 231.211 597.852 231.211C599.926 231.211 601.613 230.613 602.879 229.418C604.145 228.223 604.777 226.324 604.777 223.723V219.996C604.777 217.395 604.145 215.496 602.879 214.301C601.613 213.105 599.926 212.508 597.852 212.508C595.707 212.508 594.02 213.105 592.754 214.301C591.488 215.496 590.82 217.395 590.82 219.996V223.723C590.82 226.324 591.488 228.223 592.754 229.418ZM601.121 227.801C600.312 228.609 599.223 229.031 597.852 229.031C596.445 229.031 595.32 228.609 594.512 227.801C593.703 226.992 593.281 225.586 593.281 223.582V220.137C593.281 218.133 593.703 216.727 594.512 215.918C595.32 215.109 596.445 214.723 597.852 214.723C599.223 214.723 600.312 215.109 601.121 215.918C601.93 216.727 602.316 218.133 602.316 220.137V223.582C602.316 225.586 601.93 226.992 601.121 227.801ZM609.594 212.754V231H612.02V219.363C612.02 217.887 612.441 216.727 613.215 215.918C613.988 215.109 615.008 214.723 616.309 214.723C617.645 214.723 618.664 215.109 619.402 215.918C620.141 216.727 620.492 217.852 620.492 219.363V231H622.988V219.258C622.988 217.852 623.34 216.727 624.113 215.918C624.887 215.109 625.941 214.723 627.277 214.723C628.613 214.723 629.598 215.109 630.336 215.918C631.074 216.727 631.426 217.852 631.426 219.363V231H633.887V219.012C633.887 216.973 633.359 215.355 632.27 214.23C631.18 213.105 629.668 212.543 627.734 212.543C625.238 212.543 623.375 213.562 622.18 215.602C621.688 214.617 621.02 213.844 620.141 213.316C619.262 212.789 618.172 212.543 616.941 212.543C615.887 212.543 614.902 212.754 614.059 213.176C613.215 213.598 612.512 214.16 611.984 214.969V212.754H609.594ZM640.883 235.395C642.008 236.273 643.555 236.695 645.488 236.695C647.633 236.695 649.285 236.062 650.48 234.797C651.676 233.531 652.238 231.773 652.238 229.559V212.613H649.777V215.145C648.758 213.281 647.105 212.402 644.891 212.402C643.062 212.402 641.586 213 640.426 214.195C639.266 215.391 638.668 217.289 638.668 219.855V222.352C638.668 224.953 639.266 226.887 640.426 228.082C641.586 229.277 643.062 229.875 644.855 229.875C646.016 229.875 646.965 229.664 647.809 229.207C648.652 228.75 649.285 228.082 649.777 227.203V229.77C649.777 232.969 648.336 234.551 645.488 234.551C644.328 234.551 643.414 234.305 642.711 233.812C642.008 233.32 641.551 232.723 641.445 231.914H639.02C639.125 233.391 639.758 234.516 640.883 235.395ZM648.617 226.148C647.844 227.168 646.719 227.66 645.207 227.66C642.535 227.66 641.164 225.832 641.164 222.211V220.031C641.164 216.41 642.57 214.582 645.348 214.582C646.824 214.582 647.914 215.109 648.652 216.129C649.391 217.148 649.777 218.52 649.777 220.207V222.176C649.777 223.793 649.391 225.129 648.617 226.148ZM668.41 214.055C667.285 213.035 665.668 212.508 663.523 212.508C661.555 212.508 660.008 212.965 658.883 213.914C657.758 214.863 657.16 216.094 657.16 217.641V217.816H659.551V217.711C659.551 216.727 659.902 215.953 660.605 215.391C661.309 214.828 662.328 214.547 663.559 214.547C664.895 214.547 665.914 214.898 666.617 215.566C667.32 216.234 667.672 217.219 667.672 218.555V220.629H662.75C660.816 220.629 659.305 221.121 658.25 222.035C657.195 222.949 656.633 224.25 656.633 225.867C656.633 227.625 657.16 228.926 658.215 229.84C659.27 230.754 660.746 231.211 662.68 231.211C663.84 231.211 664.859 231.035 665.668 230.684C666.477 230.332 667.18 229.805 667.742 229.066V231H670.133V218.59C670.133 216.586 669.535 215.074 668.41 214.055ZM666.582 228.152C665.844 228.891 664.684 229.242 663.066 229.242C660.395 229.242 659.094 228.117 659.094 225.832C659.094 223.582 660.43 222.422 663.102 222.422H667.672V224.812C667.672 226.289 667.32 227.414 666.582 228.152ZM675.512 212.754V231H677.938V219.363C677.938 217.887 678.359 216.727 679.133 215.918C679.906 215.109 680.926 214.723 682.227 214.723C683.562 214.723 684.582 215.109 685.32 215.918C686.059 216.727 686.445 217.852 686.445 219.363V231H688.906V219.012C688.906 216.973 688.379 215.355 687.324 214.23C686.27 213.105 684.793 212.543 682.859 212.543C681.805 212.543 680.82 212.719 679.977 213.141C679.133 213.562 678.43 214.16 677.902 214.969V212.754H675.512ZM695.902 235.395C697.027 236.273 698.574 236.695 700.508 236.695C702.652 236.695 704.305 236.062 705.5 234.797C706.695 233.531 707.258 231.773 707.258 229.559V212.613H704.797V215.145C703.777 213.281 702.125 212.402 699.91 212.402C698.082 212.402 696.605 213 695.445 214.195C694.285 215.391 693.688 217.289 693.688 219.855V222.352C693.688 224.953 694.285 226.887 695.445 228.082C696.605 229.277 698.082 229.875 699.875 229.875C701.035 229.875 701.984 229.664 702.828 229.207C703.672 228.75 704.305 228.082 704.797 227.203V229.77C704.797 232.969 703.355 234.551 700.508 234.551C699.348 234.551 698.434 234.305 697.73 233.812C697.027 233.32 696.57 232.723 696.465 231.914H694.039C694.145 233.391 694.777 234.516 695.902 235.395ZM703.637 226.148C702.863 227.168 701.738 227.66 700.227 227.66C697.555 227.66 696.184 225.832 696.184 222.211V220.031C696.184 216.41 697.59 214.582 700.367 214.582C701.844 214.582 702.934 215.109 703.672 216.129C704.41 217.148 704.797 218.52 704.797 220.207V222.176C704.797 223.793 704.41 225.129 703.637 226.148ZM516.465 253.055C515.34 252.035 513.723 251.508 511.578 251.508C509.609 251.508 508.062 251.965 506.938 252.914C505.812 253.863 505.215 255.094 505.215 256.641V256.816H507.605V256.711C507.605 255.727 507.957 254.953 508.66 254.391C509.363 253.828 510.383 253.547 511.613 253.547C512.949 253.547 513.969 253.898 514.672 254.566C515.375 255.234 515.727 256.219 515.727 257.555V259.629H510.805C508.871 259.629 507.359 260.121 506.305 261.035C505.25 261.949 504.688 263.25 504.688 264.867C504.688 266.625 505.215 267.926 506.27 268.84C507.324 269.754 508.801 270.211 510.734 270.211C511.895 270.211 512.914 270.035 513.723 269.684C514.531 269.332 515.234 268.805 515.797 268.066V270H518.188V257.59C518.188 255.586 517.59 254.074 516.465 253.055ZM514.637 267.152C513.898 267.891 512.738 268.242 511.121 268.242C508.449 268.242 507.148 267.117 507.148 264.832C507.148 262.582 508.484 261.422 511.156 261.422H515.727V263.812C515.727 265.289 515.375 266.414 514.637 267.152ZM521.352 251.754L527.68 270H529.859L536.152 251.754H533.516L528.77 266.414L524.023 251.754H521.352ZM560.094 264.023L562.203 270H564.98L555.945 245.145H553.73L544.695 270H547.473L549.547 264.023H560.094ZM559.355 261.809H550.32L554.82 248.836L559.355 261.809ZM569.059 268.77C569.832 269.578 570.922 270 572.398 270H574.121V267.785H572.645C571.836 267.785 571.238 267.539 570.887 267.117C570.535 266.695 570.324 266.027 570.324 265.078V245.145H567.898V265.219C567.898 266.766 568.285 267.961 569.059 268.77ZM581.539 253.688H585.652V251.754H581.539V246.41L579.078 247.57V251.754H576.23V253.688H579.078V265.465C579.078 266.871 579.465 267.996 580.238 268.805C581.012 269.613 582.102 270 583.508 270H585.336V267.855H583.895C582.348 267.855 581.539 267.012 581.539 265.359V253.688ZM590.223 251.754V270H592.684V251.754H590.223ZM590.152 245.531V248.766H592.754V245.531H590.152ZM598.344 251.754V270H600.77V258.363C600.77 256.887 601.191 255.727 601.965 254.918C602.738 254.109 603.758 253.723 605.059 253.723C606.395 253.723 607.414 254.109 608.152 254.918C608.891 255.727 609.277 256.852 609.277 258.363V270H611.738V258.012C611.738 255.973 611.211 254.355 610.156 253.23C609.102 252.105 607.625 251.543 605.691 251.543C604.637 251.543 603.652 251.719 602.809 252.141C601.965 252.562 601.262 253.16 600.734 253.969V251.754H598.344ZM617.117 251.754V270H619.543V258.363C619.543 256.887 619.965 255.727 620.738 254.918C621.512 254.109 622.531 253.723 623.832 253.723C625.168 253.723 626.188 254.109 626.926 254.918C627.664 255.727 628.051 256.852 628.051 258.363V270H630.512V258.012C630.512 255.973 629.984 254.355 628.93 253.23C627.875 252.105 626.398 251.543 624.465 251.543C623.41 251.543 622.426 251.719 621.582 252.141C620.738 252.562 620.035 253.16 619.508 253.969V251.754H617.117ZM644.961 268.77C646.121 269.824 647.703 270.352 649.707 270.352C651.711 270.352 653.363 269.754 654.594 268.523C655.824 267.293 656.422 265.641 656.422 263.566V262.688C656.422 261.281 656.105 260.051 655.508 259.031C654.91 258.012 654.031 257.273 652.871 256.852C653.82 256.43 654.559 255.762 655.121 254.883C655.684 254.004 656 252.949 656 251.754V250.945C656 249.082 655.438 247.605 654.312 246.48C653.188 245.355 651.676 244.793 649.742 244.793C647.809 244.793 646.262 245.32 645.137 246.41C644.012 247.5 643.484 248.941 643.484 250.77V251.438H645.98V250.84C645.98 249.715 646.332 248.801 646.965 248.133C647.598 247.465 648.512 247.148 649.672 247.148C650.832 247.148 651.746 247.5 652.414 248.203C653.082 248.906 653.398 249.891 653.398 251.086V251.824C653.398 253.055 653.082 254.004 652.379 254.777C651.676 255.551 650.727 255.938 649.531 255.938H648.266V258.293H649.566C650.902 258.293 651.887 258.715 652.66 259.523C653.434 260.332 653.82 261.387 653.82 262.758V263.707C653.82 265.043 653.434 266.062 652.73 266.836C652.027 267.609 651.008 268.031 649.742 268.031C648.547 268.031 647.562 267.715 646.859 267.047C646.156 266.379 645.805 265.465 645.805 264.305V263.848H643.168V264.41C643.168 266.238 643.801 267.715 644.961 268.77ZM683.633 247.535V245.145H666.863V247.535H673.965V270H676.566V247.535H683.633ZM685.602 261.352H697.027V259.207C697.027 256.605 696.395 254.637 695.129 253.371C693.863 252.105 692.176 251.508 690.102 251.508C688.027 251.508 686.34 252.105 685.074 253.371C683.809 254.637 683.141 256.605 683.141 259.207V262.371C683.141 265.043 683.809 267.047 685.074 268.312C686.34 269.578 688.027 270.211 690.172 270.211C692.246 270.211 693.898 269.684 695.094 268.664C696.289 267.645 696.887 266.238 696.887 264.551V264.375H694.496V264.48C694.496 265.57 694.145 266.449 693.406 267.082C692.668 267.715 691.648 268.031 690.348 268.031C688.871 268.031 687.711 267.609 686.867 266.766C686.023 265.922 685.602 264.516 685.602 262.441V261.352ZM686.832 254.918C687.641 254.109 688.73 253.723 690.102 253.723C691.508 253.723 692.562 254.109 693.371 254.883C694.18 255.656 694.566 256.992 694.566 258.891V259.523H685.602V259.137C685.602 257.133 686.023 255.727 686.832 254.918ZM712.602 253.055C711.477 252.035 709.859 251.508 707.715 251.508C705.746 251.508 704.199 251.965 703.074 252.914C701.949 253.863 701.352 255.094 701.352 256.641V256.816H703.742V256.711C703.742 255.727 704.094 254.953 704.797 254.391C705.5 253.828 706.52 253.547 707.75 253.547C709.086 253.547 710.105 253.898 710.809 254.566C711.512 255.234 711.863 256.219 711.863 257.555V259.629H706.941C705.008 259.629 703.496 260.121 702.441 261.035C701.387 261.949 700.824 263.25 700.824 264.867C700.824 266.625 701.352 267.926 702.406 268.84C703.461 269.754 704.938 270.211 706.871 270.211C708.031 270.211 709.051 270.035 709.859 269.684C710.668 269.332 711.371 268.805 711.934 268.066V270H714.324V257.59C714.324 255.586 713.727 254.074 712.602 253.055ZM710.773 267.152C710.035 267.891 708.875 268.242 707.258 268.242C704.586 268.242 703.285 267.117 703.285 264.832C703.285 262.582 704.621 261.422 707.293 261.422H711.863V263.812C711.863 265.289 711.512 266.414 710.773 267.152ZM719.703 251.754V270H722.129V258.363C722.129 256.887 722.551 255.727 723.324 254.918C724.098 254.109 725.117 253.723 726.418 253.723C727.754 253.723 728.773 254.109 729.512 254.918C730.25 255.727 730.602 256.852 730.602 258.363V270H733.098V258.258C733.098 256.852 733.449 255.727 734.223 254.918C734.996 254.109 736.051 253.723 737.387 253.723C738.723 253.723 739.707 254.109 740.445 254.918C741.184 255.727 741.535 256.852 741.535 258.363V270H743.996V258.012C743.996 255.973 743.469 254.355 742.379 253.23C741.289 252.105 739.777 251.543 737.844 251.543C735.348 251.543 733.484 252.562 732.289 254.602C731.797 253.617 731.129 252.844 730.25 252.316C729.371 251.789 728.281 251.543 727.051 251.543C725.996 251.543 725.012 251.754 724.168 252.176C723.324 252.598 722.621 253.16 722.094 253.969V251.754H719.703Z" fill="black"/>
<path d="M1309.75 228.996C1311.33 230.508 1313.4 231.281 1316.04 231.281C1318.64 231.281 1320.75 230.543 1322.3 229.066C1323.84 227.59 1324.58 225.199 1324.58 221.93V218.203H1316V220.488H1321.95V222.387C1321.95 224.637 1321.45 226.324 1320.47 227.344C1319.48 228.363 1318.01 228.891 1316.11 228.891C1312.03 228.891 1309.99 226.57 1309.99 221.93V215.461C1309.99 212.93 1310.52 211.031 1311.54 209.906C1312.56 208.781 1314.07 208.219 1316.07 208.219C1317.87 208.219 1319.27 208.676 1320.33 209.59C1321.38 210.504 1321.88 211.77 1321.88 213.352V213.492H1324.51V213.352C1324.51 211.875 1324.16 210.539 1323.46 209.414C1322.75 208.289 1321.77 207.41 1320.5 206.777C1319.24 206.145 1317.73 205.828 1316.04 205.828C1313.4 205.828 1311.33 206.602 1309.75 208.113C1308.16 209.625 1307.39 212.051 1307.39 215.355V221.789C1307.39 225.094 1308.16 227.484 1309.75 228.996ZM1329.54 206.145V209.414H1332.11V206.145H1329.54ZM1325.85 234.234V236.484H1327.57C1329.05 236.484 1330.17 236.062 1330.95 235.254C1331.72 234.445 1332.07 233.215 1332.07 231.668V212.754H1329.64V231.527C1329.64 232.477 1329.43 233.18 1329.08 233.602C1328.73 234.023 1328.13 234.234 1327.32 234.234H1325.85ZM1339.63 222.352H1351.05V220.207C1351.05 217.605 1350.42 215.637 1349.16 214.371C1347.89 213.105 1346.2 212.508 1344.13 212.508C1342.05 212.508 1340.37 213.105 1339.1 214.371C1337.84 215.637 1337.17 217.605 1337.17 220.207V223.371C1337.17 226.043 1337.84 228.047 1339.1 229.312C1340.37 230.578 1342.05 231.211 1344.2 231.211C1346.27 231.211 1347.93 230.684 1349.12 229.664C1350.32 228.645 1350.91 227.238 1350.91 225.551V225.375H1348.52V225.48C1348.52 226.57 1348.17 227.449 1347.43 228.082C1346.7 228.715 1345.68 229.031 1344.38 229.031C1342.9 229.031 1341.74 228.609 1340.89 227.766C1340.05 226.922 1339.63 225.516 1339.63 223.441V222.352ZM1340.86 215.918C1341.67 215.109 1342.76 214.723 1344.13 214.723C1345.54 214.723 1346.59 215.109 1347.4 215.883C1348.21 216.656 1348.59 217.992 1348.59 219.891V220.523H1339.63V220.137C1339.63 218.133 1340.05 216.727 1340.86 215.918ZM1355.87 212.754V231H1358.3V219.363C1358.3 217.887 1358.72 216.727 1359.49 215.918C1360.27 215.109 1361.29 214.723 1362.59 214.723C1363.92 214.723 1364.94 215.109 1365.68 215.918C1366.42 216.727 1366.8 217.852 1366.8 219.363V231H1369.27V219.012C1369.27 216.973 1368.74 215.355 1367.68 214.23C1366.63 213.105 1365.15 212.543 1363.22 212.543C1362.16 212.543 1361.18 212.719 1360.34 213.141C1359.49 213.562 1358.79 214.16 1358.26 214.969V212.754H1355.87ZM1374.64 212.754V231H1377.07V219.363C1377.07 217.887 1377.49 216.727 1378.27 215.918C1379.04 215.109 1380.06 214.723 1381.36 214.723C1382.7 214.723 1383.71 215.109 1384.45 215.918C1385.19 216.727 1385.58 217.852 1385.58 219.363V231H1388.04V219.012C1388.04 216.973 1387.51 215.355 1386.46 214.23C1385.4 213.105 1383.93 212.543 1381.99 212.543C1380.94 212.543 1379.95 212.719 1379.11 213.141C1378.27 213.562 1377.56 214.16 1377.04 214.969V212.754H1374.64ZM1394.75 229.418C1396.02 230.613 1397.71 231.211 1399.85 231.211C1401.93 231.211 1403.61 230.613 1404.88 229.418C1406.14 228.223 1406.78 226.324 1406.78 223.723V219.996C1406.78 217.395 1406.14 215.496 1404.88 214.301C1403.61 213.105 1401.93 212.508 1399.85 212.508C1397.71 212.508 1396.02 213.105 1394.75 214.301C1393.49 215.496 1392.82 217.395 1392.82 219.996V223.723C1392.82 226.324 1393.49 228.223 1394.75 229.418ZM1403.12 227.801C1402.31 228.609 1401.22 229.031 1399.85 229.031C1398.45 229.031 1397.32 228.609 1396.51 227.801C1395.7 226.992 1395.28 225.586 1395.28 223.582V220.137C1395.28 218.133 1395.7 216.727 1396.51 215.918C1397.32 215.109 1398.45 214.723 1399.85 214.723C1401.22 214.723 1402.31 215.109 1403.12 215.918C1403.93 216.727 1404.32 218.133 1404.32 220.137V223.582C1404.32 225.586 1403.93 226.992 1403.12 227.801ZM1411.59 212.754V231H1414.02V219.363C1414.02 217.887 1414.44 216.727 1415.21 215.918C1415.99 215.109 1417.01 214.723 1418.31 214.723C1419.64 214.723 1420.66 215.109 1421.4 215.918C1422.14 216.727 1422.49 217.852 1422.49 219.363V231H1424.99V219.258C1424.99 217.852 1425.34 216.727 1426.11 215.918C1426.89 215.109 1427.94 214.723 1429.28 214.723C1430.61 214.723 1431.6 215.109 1432.34 215.918C1433.07 216.727 1433.43 217.852 1433.43 219.363V231H1435.89V219.012C1435.89 216.973 1435.36 215.355 1434.27 214.23C1433.18 213.105 1431.67 212.543 1429.73 212.543C1427.24 212.543 1425.38 213.562 1424.18 215.602C1423.69 214.617 1423.02 213.844 1422.14 213.316C1421.26 212.789 1420.17 212.543 1418.94 212.543C1417.89 212.543 1416.9 212.754 1416.06 213.176C1415.21 213.598 1414.51 214.16 1413.98 214.969V212.754H1411.59ZM1442.88 235.395C1444.01 236.273 1445.55 236.695 1447.49 236.695C1449.63 236.695 1451.29 236.062 1452.48 234.797C1453.68 233.531 1454.24 231.773 1454.24 229.559V212.613H1451.78V215.145C1450.76 213.281 1449.11 212.402 1446.89 212.402C1445.06 212.402 1443.59 213 1442.43 214.195C1441.27 215.391 1440.67 217.289 1440.67 219.855V222.352C1440.67 224.953 1441.27 226.887 1442.43 228.082C1443.59 229.277 1445.06 229.875 1446.86 229.875C1448.02 229.875 1448.96 229.664 1449.81 229.207C1450.65 228.75 1451.29 228.082 1451.78 227.203V229.77C1451.78 232.969 1450.34 234.551 1447.49 234.551C1446.33 234.551 1445.41 234.305 1444.71 233.812C1444.01 233.32 1443.55 232.723 1443.45 231.914H1441.02C1441.12 233.391 1441.76 234.516 1442.88 235.395ZM1450.62 226.148C1449.84 227.168 1448.72 227.66 1447.21 227.66C1444.54 227.66 1443.16 225.832 1443.16 222.211V220.031C1443.16 216.41 1444.57 214.582 1447.35 214.582C1448.82 214.582 1449.91 215.109 1450.65 216.129C1451.39 217.148 1451.78 218.52 1451.78 220.207V222.176C1451.78 223.793 1451.39 225.129 1450.62 226.148ZM1470.41 214.055C1469.29 213.035 1467.67 212.508 1465.52 212.508C1463.55 212.508 1462.01 212.965 1460.88 213.914C1459.76 214.863 1459.16 216.094 1459.16 217.641V217.816H1461.55V217.711C1461.55 216.727 1461.9 215.953 1462.61 215.391C1463.31 214.828 1464.33 214.547 1465.56 214.547C1466.89 214.547 1467.91 214.898 1468.62 215.566C1469.32 216.234 1469.67 217.219 1469.67 218.555V220.629H1464.75C1462.82 220.629 1461.3 221.121 1460.25 222.035C1459.2 222.949 1458.63 224.25 1458.63 225.867C1458.63 227.625 1459.16 228.926 1460.21 229.84C1461.27 230.754 1462.75 231.211 1464.68 231.211C1465.84 231.211 1466.86 231.035 1467.67 230.684C1468.48 230.332 1469.18 229.805 1469.74 229.066V231H1472.13V218.59C1472.13 216.586 1471.54 215.074 1470.41 214.055ZM1468.58 228.152C1467.84 228.891 1466.68 229.242 1465.07 229.242C1462.39 229.242 1461.09 228.117 1461.09 225.832C1461.09 223.582 1462.43 222.422 1465.1 222.422H1469.67V224.812C1469.67 226.289 1469.32 227.414 1468.58 228.152ZM1477.51 212.754V231H1479.94V219.363C1479.94 217.887 1480.36 216.727 1481.13 215.918C1481.91 215.109 1482.93 214.723 1484.23 214.723C1485.56 214.723 1486.58 215.109 1487.32 215.918C1488.06 216.727 1488.45 217.852 1488.45 219.363V231H1490.91V219.012C1490.91 216.973 1490.38 215.355 1489.32 214.23C1488.27 213.105 1486.79 212.543 1484.86 212.543C1483.8 212.543 1482.82 212.719 1481.98 213.141C1481.13 213.562 1480.43 214.16 1479.9 214.969V212.754H1477.51ZM1497.9 235.395C1499.03 236.273 1500.57 236.695 1502.51 236.695C1504.65 236.695 1506.3 236.062 1507.5 234.797C1508.7 233.531 1509.26 231.773 1509.26 229.559V212.613H1506.8V215.145C1505.78 213.281 1504.12 212.402 1501.91 212.402C1500.08 212.402 1498.61 213 1497.45 214.195C1496.29 215.391 1495.69 217.289 1495.69 219.855V222.352C1495.69 224.953 1496.29 226.887 1497.45 228.082C1498.61 229.277 1500.08 229.875 1501.88 229.875C1503.04 229.875 1503.98 229.664 1504.83 229.207C1505.67 228.75 1506.3 228.082 1506.8 227.203V229.77C1506.8 232.969 1505.36 234.551 1502.51 234.551C1501.35 234.551 1500.43 234.305 1499.73 233.812C1499.03 233.32 1498.57 232.723 1498.46 231.914H1496.04C1496.14 233.391 1496.78 234.516 1497.9 235.395ZM1505.64 226.148C1504.86 227.168 1503.74 227.66 1502.23 227.66C1499.55 227.66 1498.18 225.832 1498.18 222.211V220.031C1498.18 216.41 1499.59 214.582 1502.37 214.582C1503.84 214.582 1504.93 215.109 1505.67 216.129C1506.41 217.148 1506.8 218.52 1506.8 220.207V222.176C1506.8 223.793 1506.41 225.129 1505.64 226.148ZM1318.46 253.055C1317.34 252.035 1315.72 251.508 1313.58 251.508C1311.61 251.508 1310.06 251.965 1308.94 252.914C1307.81 253.863 1307.21 255.094 1307.21 256.641V256.816H1309.61V256.711C1309.61 255.727 1309.96 254.953 1310.66 254.391C1311.36 253.828 1312.38 253.547 1313.61 253.547C1314.95 253.547 1315.97 253.898 1316.67 254.566C1317.38 255.234 1317.73 256.219 1317.73 257.555V259.629H1312.8C1310.87 259.629 1309.36 260.121 1308.3 261.035C1307.25 261.949 1306.69 263.25 1306.69 264.867C1306.69 266.625 1307.21 267.926 1308.27 268.84C1309.32 269.754 1310.8 270.211 1312.73 270.211C1313.89 270.211 1314.91 270.035 1315.72 269.684C1316.53 269.332 1317.23 268.805 1317.8 268.066V270H1320.19V257.59C1320.19 255.586 1319.59 254.074 1318.46 253.055ZM1316.64 267.152C1315.9 267.891 1314.74 268.242 1313.12 268.242C1310.45 268.242 1309.15 267.117 1309.15 264.832C1309.15 262.582 1310.48 261.422 1313.16 261.422H1317.73V263.812C1317.73 265.289 1317.38 266.414 1316.64 267.152ZM1323.35 251.754L1329.68 270H1331.86L1338.15 251.754H1335.52L1330.77 266.414L1326.02 251.754H1323.35ZM1362.09 264.023L1364.2 270H1366.98L1357.95 245.145H1355.73L1346.7 270H1349.47L1351.55 264.023H1362.09ZM1361.36 261.809H1352.32L1356.82 248.836L1361.36 261.809ZM1371.06 268.77C1371.83 269.578 1372.92 270 1374.4 270H1376.12V267.785H1374.64C1373.84 267.785 1373.24 267.539 1372.89 267.117C1372.54 266.695 1372.32 266.027 1372.32 265.078V245.145H1369.9V265.219C1369.9 266.766 1370.29 267.961 1371.06 268.77ZM1383.54 253.688H1387.65V251.754H1383.54V246.41L1381.08 247.57V251.754H1378.23V253.688H1381.08V265.465C1381.08 266.871 1381.46 267.996 1382.24 268.805C1383.01 269.613 1384.1 270 1385.51 270H1387.34V267.855H1385.89C1384.35 267.855 1383.54 267.012 1383.54 265.359V253.688ZM1392.22 251.754V270H1394.68V251.754H1392.22ZM1392.15 245.531V248.766H1394.75V245.531H1392.15ZM1400.34 251.754V270H1402.77V258.363C1402.77 256.887 1403.19 255.727 1403.96 254.918C1404.74 254.109 1405.76 253.723 1407.06 253.723C1408.39 253.723 1409.41 254.109 1410.15 254.918C1410.89 255.727 1411.28 256.852 1411.28 258.363V270H1413.74V258.012C1413.74 255.973 1413.21 254.355 1412.16 253.23C1411.1 252.105 1409.62 251.543 1407.69 251.543C1406.64 251.543 1405.65 251.719 1404.81 252.141C1403.96 252.562 1403.26 253.16 1402.73 253.969V251.754H1400.34ZM1419.12 251.754V270H1421.54V258.363C1421.54 256.887 1421.96 255.727 1422.74 254.918C1423.51 254.109 1424.53 253.723 1425.83 253.723C1427.17 253.723 1428.19 254.109 1428.93 254.918C1429.66 255.727 1430.05 256.852 1430.05 258.363V270H1432.51V258.012C1432.51 255.973 1431.98 254.355 1430.93 253.23C1429.88 252.105 1428.4 251.543 1426.46 251.543C1425.41 251.543 1424.43 251.719 1423.58 252.141C1422.74 252.562 1422.04 253.16 1421.51 253.969V251.754H1419.12ZM1446.96 268.77C1448.12 269.824 1449.7 270.352 1451.71 270.352C1453.71 270.352 1455.36 269.754 1456.59 268.523C1457.82 267.293 1458.42 265.641 1458.42 263.566V262.688C1458.42 261.281 1458.11 260.051 1457.51 259.031C1456.91 258.012 1456.03 257.273 1454.87 256.852C1455.82 256.43 1456.56 255.762 1457.12 254.883C1457.68 254.004 1458 252.949 1458 251.754V250.945C1458 249.082 1457.44 247.605 1456.31 246.48C1455.19 245.355 1453.68 244.793 1451.74 244.793C1449.81 244.793 1448.26 245.32 1447.14 246.41C1446.01 247.5 1445.48 248.941 1445.48 250.77V251.438H1447.98V250.84C1447.98 249.715 1448.33 248.801 1448.96 248.133C1449.6 247.465 1450.51 247.148 1451.67 247.148C1452.83 247.148 1453.75 247.5 1454.41 248.203C1455.08 248.906 1455.4 249.891 1455.4 251.086V251.824C1455.4 253.055 1455.08 254.004 1454.38 254.777C1453.68 255.551 1452.73 255.938 1451.53 255.938H1450.27V258.293H1451.57C1452.9 258.293 1453.89 258.715 1454.66 259.523C1455.43 260.332 1455.82 261.387 1455.82 262.758V263.707C1455.82 265.043 1455.43 266.062 1454.73 266.836C1454.03 267.609 1453.01 268.031 1451.74 268.031C1450.55 268.031 1449.56 267.715 1448.86 267.047C1448.16 266.379 1447.8 265.465 1447.8 264.305V263.848H1445.17V264.41C1445.17 266.238 1445.8 267.715 1446.96 268.77ZM1485.63 247.535V245.145H1468.86V247.535H1475.96V270H1478.57V247.535H1485.63ZM1487.6 261.352H1499.03V259.207C1499.03 256.605 1498.39 254.637 1497.13 253.371C1495.86 252.105 1494.18 251.508 1492.1 251.508C1490.03 251.508 1488.34 252.105 1487.07 253.371C1485.81 254.637 1485.14 256.605 1485.14 259.207V262.371C1485.14 265.043 1485.81 267.047 1487.07 268.312C1488.34 269.578 1490.03 270.211 1492.17 270.211C1494.25 270.211 1495.9 269.684 1497.09 268.664C1498.29 267.645 1498.89 266.238 1498.89 264.551V264.375H1496.5V264.48C1496.5 265.57 1496.14 266.449 1495.41 267.082C1494.67 267.715 1493.65 268.031 1492.35 268.031C1490.87 268.031 1489.71 267.609 1488.87 266.766C1488.02 265.922 1487.6 264.516 1487.6 262.441V261.352ZM1488.83 254.918C1489.64 254.109 1490.73 253.723 1492.1 253.723C1493.51 253.723 1494.56 254.109 1495.37 254.883C1496.18 255.656 1496.57 256.992 1496.57 258.891V259.523H1487.6V259.137C1487.6 257.133 1488.02 255.727 1488.83 254.918ZM1514.6 253.055C1513.48 252.035 1511.86 251.508 1509.71 251.508C1507.75 251.508 1506.2 251.965 1505.07 252.914C1503.95 253.863 1503.35 255.094 1503.35 256.641V256.816H1505.74V256.711C1505.74 255.727 1506.09 254.953 1506.8 254.391C1507.5 253.828 1508.52 253.547 1509.75 253.547C1511.09 253.547 1512.11 253.898 1512.81 254.566C1513.51 255.234 1513.86 256.219 1513.86 257.555V259.629H1508.94C1507.01 259.629 1505.5 260.121 1504.44 261.035C1503.39 261.949 1502.82 263.25 1502.82 264.867C1502.82 266.625 1503.35 267.926 1504.41 268.84C1505.46 269.754 1506.94 270.211 1508.87 270.211C1510.03 270.211 1511.05 270.035 1511.86 269.684C1512.67 269.332 1513.37 268.805 1513.93 268.066V270H1516.32V257.59C1516.32 255.586 1515.73 254.074 1514.6 253.055ZM1512.77 267.152C1512.04 267.891 1510.88 268.242 1509.26 268.242C1506.59 268.242 1505.29 267.117 1505.29 264.832C1505.29 262.582 1506.62 261.422 1509.29 261.422H1513.86V263.812C1513.86 265.289 1513.51 266.414 1512.77 267.152ZM1521.7 251.754V270H1524.13V258.363C1524.13 256.887 1524.55 255.727 1525.32 254.918C1526.1 254.109 1527.12 253.723 1528.42 253.723C1529.75 253.723 1530.77 254.109 1531.51 254.918C1532.25 255.727 1532.6 256.852 1532.6 258.363V270H1535.1V258.258C1535.1 256.852 1535.45 255.727 1536.22 254.918C1537 254.109 1538.05 253.723 1539.39 253.723C1540.72 253.723 1541.71 254.109 1542.45 254.918C1543.18 255.727 1543.54 256.852 1543.54 258.363V270H1546V258.012C1546 255.973 1545.47 254.355 1544.38 253.23C1543.29 252.105 1541.78 251.543 1539.84 251.543C1537.35 251.543 1535.48 252.562 1534.29 254.602C1533.8 253.617 1533.13 252.844 1532.25 252.316C1531.37 251.789 1530.28 251.543 1529.05 251.543C1528 251.543 1527.01 251.754 1526.17 252.176C1525.32 252.598 1524.62 253.16 1524.09 253.969V251.754H1521.7Z" fill="black"/>
<path d="M1724.99 225.145H1722.35V245.113L1709.52 225.145H1706.88V250H1709.52V229.996L1722.35 250H1724.99V225.145ZM1743.13 231.754H1740.56L1735.78 246.273L1731 231.754H1728.33L1734.62 249.824L1734.23 250.949C1733.95 251.758 1733.6 252.355 1733.14 252.707C1732.69 253.059 1732.02 253.234 1731.14 253.234H1730.26V255.484H1731.32C1732.55 255.484 1733.57 255.203 1734.34 254.641C1735.11 254.078 1735.71 253.199 1736.13 251.969L1743.13 231.754ZM1760 240.543L1765.52 250H1768.51L1761.62 238.645L1767.49 231.754H1764.54L1756.56 241.457V225.145H1754.13V250H1756.56V244.551L1760 240.543ZM1773.22 248.418C1774.49 249.613 1776.18 250.211 1778.32 250.211C1780.39 250.211 1782.08 249.613 1783.35 248.418C1784.61 247.223 1785.25 245.324 1785.25 242.723V238.996C1785.25 236.395 1784.61 234.496 1783.35 233.301C1782.08 232.105 1780.39 231.508 1778.32 231.508C1776.18 231.508 1774.49 232.105 1773.22 233.301C1771.96 234.496 1771.29 236.395 1771.29 238.996V242.723C1771.29 245.324 1771.96 247.223 1773.22 248.418ZM1781.59 246.801C1780.78 247.609 1779.69 248.031 1778.32 248.031C1776.91 248.031 1775.79 247.609 1774.98 246.801C1774.17 245.992 1773.75 244.586 1773.75 242.582V239.137C1773.75 237.133 1774.17 235.727 1774.98 234.918C1775.79 234.109 1776.91 233.723 1778.32 233.723C1779.69 233.723 1780.78 234.109 1781.59 234.918C1782.4 235.727 1782.79 237.133 1782.79 239.137V242.582C1782.79 244.586 1782.4 245.992 1781.59 246.801ZM1790.06 231.754V250H1792.49V238.363C1792.49 236.887 1792.91 235.727 1793.68 234.918C1794.46 234.109 1795.48 233.723 1796.78 233.723C1798.11 233.723 1799.13 234.109 1799.87 234.918C1800.61 235.727 1800.96 236.852 1800.96 238.363V250H1803.46V238.258C1803.46 236.852 1803.81 235.727 1804.58 234.918C1805.36 234.109 1806.41 233.723 1807.75 233.723C1809.08 233.723 1810.07 234.109 1810.8 234.918C1811.54 235.727 1811.89 236.852 1811.89 238.363V250H1814.36V238.012C1814.36 235.973 1813.83 234.355 1812.74 233.23C1811.65 232.105 1810.14 231.543 1808.2 231.543C1805.71 231.543 1803.84 232.562 1802.65 234.602C1802.16 233.617 1801.49 232.844 1800.61 232.316C1799.73 231.789 1798.64 231.543 1797.41 231.543C1796.36 231.543 1795.37 231.754 1794.53 232.176C1793.68 232.598 1792.98 233.16 1792.45 233.969V231.754H1790.06ZM1819.73 231.754V255.484H1822.16V247.574C1823.18 249.332 1824.83 250.211 1827.12 250.211C1828.91 250.211 1830.39 249.613 1831.55 248.418C1832.71 247.223 1833.27 245.324 1833.27 242.723V238.996C1833.27 236.43 1832.67 234.531 1831.51 233.336C1830.35 232.141 1828.8 231.543 1826.94 231.543C1825.89 231.543 1824.94 231.789 1824.13 232.246C1823.32 232.703 1822.65 233.406 1822.16 234.32V231.754H1819.73ZM1830.81 242.582C1830.81 246.203 1829.44 248.031 1826.73 248.031C1825.25 248.031 1824.13 247.504 1823.36 246.484C1822.58 245.465 1822.16 244.164 1822.16 242.547V239.348C1822.16 237.66 1822.55 236.289 1823.29 235.27C1824.02 234.25 1825.11 233.723 1826.59 233.723C1829.4 233.723 1830.81 235.551 1830.81 239.172V242.582ZM1839.42 248.418C1840.69 249.613 1842.38 250.211 1844.52 250.211C1846.59 250.211 1848.28 249.613 1849.55 248.418C1850.81 247.223 1851.45 245.324 1851.45 242.723V238.996C1851.45 236.395 1850.81 234.496 1849.55 233.301C1848.28 232.105 1846.59 231.508 1844.52 231.508C1842.38 231.508 1840.69 232.105 1839.42 233.301C1838.16 234.496 1837.49 236.395 1837.49 238.996V242.723C1837.49 245.324 1838.16 247.223 1839.42 248.418ZM1847.79 246.801C1846.98 247.609 1845.89 248.031 1844.52 248.031C1843.11 248.031 1841.99 247.609 1841.18 246.801C1840.37 245.992 1839.95 244.586 1839.95 242.582V239.137C1839.95 237.133 1840.37 235.727 1841.18 234.918C1841.99 234.109 1843.11 233.723 1844.52 233.723C1845.89 233.723 1846.98 234.109 1847.79 234.918C1848.6 235.727 1848.98 237.133 1848.98 239.137V242.582C1848.98 244.586 1848.6 245.992 1847.79 246.801ZM1856.26 231.754V250H1858.69V238.363C1858.69 236.887 1859.11 235.727 1859.88 234.918C1860.66 234.109 1861.68 233.723 1862.98 233.723C1864.31 233.723 1865.33 234.109 1866.07 234.918C1866.81 235.727 1867.2 236.852 1867.2 238.363V250H1869.66V238.012C1869.66 235.973 1869.13 234.355 1868.07 233.23C1867.02 232.105 1865.54 231.543 1863.61 231.543C1862.55 231.543 1861.57 231.719 1860.73 232.141C1859.88 232.562 1859.18 233.16 1858.65 233.969V231.754H1856.26ZM1876.9 241.352H1888.32V239.207C1888.32 236.605 1887.69 234.637 1886.43 233.371C1885.16 232.105 1883.47 231.508 1881.4 231.508C1879.32 231.508 1877.64 232.105 1876.37 233.371C1875.11 234.637 1874.44 236.605 1874.44 239.207V242.371C1874.44 245.043 1875.11 247.047 1876.37 248.312C1877.64 249.578 1879.32 250.211 1881.47 250.211C1883.54 250.211 1885.2 249.684 1886.39 248.664C1887.59 247.645 1888.18 246.238 1888.18 244.551V244.375H1885.79V244.48C1885.79 245.57 1885.44 246.449 1884.7 247.082C1883.96 247.715 1882.95 248.031 1881.64 248.031C1880.17 248.031 1879.01 247.609 1878.16 246.766C1877.32 245.922 1876.9 244.516 1876.9 242.441V241.352ZM1878.13 234.918C1878.94 234.109 1880.03 233.723 1881.4 233.723C1882.8 233.723 1883.86 234.109 1884.67 234.883C1885.48 235.656 1885.86 236.992 1885.86 238.891V239.523H1876.9V239.137C1876.9 237.133 1877.32 235.727 1878.13 234.918ZM1893.14 231.754V250H1895.57V238.363C1895.57 236.887 1895.99 235.727 1896.76 234.918C1897.54 234.109 1898.55 233.723 1899.86 233.723C1901.19 233.723 1902.21 234.109 1902.95 234.918C1903.69 235.727 1904.07 236.852 1904.07 238.363V250H1906.54V238.012C1906.54 235.973 1906.01 234.355 1904.95 233.23C1903.9 232.105 1902.42 231.543 1900.49 231.543C1899.43 231.543 1898.45 231.719 1897.61 232.141C1896.76 232.562 1896.06 233.16 1895.53 233.969V231.754H1893.14ZM1915.75 233.688H1919.86V231.754H1915.75V226.41L1913.29 227.57V231.754H1910.44V233.688H1913.29V245.465C1913.29 246.871 1913.67 247.996 1914.45 248.805C1915.22 249.613 1916.31 250 1917.71 250H1919.54V247.855H1918.1C1916.55 247.855 1915.75 247.012 1915.75 245.359V233.688Z" fill="black"/>
<path d="M889.889 193.297C890.973 193.883 892.203 194.176 893.551 194.176C894.898 194.176 896.129 193.883 897.213 193.297C898.297 192.711 899.117 191.92 899.732 190.865C900.348 189.811 900.641 188.609 900.641 187.262V173.287H898.473V187.057C898.473 188.639 898.004 189.898 897.096 190.836C896.188 191.773 895.045 192.242 893.551 192.242C892.057 192.242 890.826 191.773 889.947 190.836C889.068 189.898 888.629 188.639 888.629 187.057V173.287H886.402V187.262C886.402 188.609 886.725 189.781 887.34 190.836C887.955 191.891 888.805 192.711 889.889 193.297ZM908.492 180.406H911.92V178.795H908.492V174.342L906.441 175.309V178.795H904.068V180.406H906.441V190.221C906.441 191.393 906.764 192.33 907.408 193.004C908.053 193.678 908.961 194 910.133 194H911.656V192.213H910.455C909.166 192.213 908.492 191.51 908.492 190.133V180.406ZM913.648 178.795L918.922 194H920.738L925.982 178.795H923.785L919.83 191.012L915.875 178.795H913.648ZM928.883 178.795V194H930.934V178.795H928.883ZM928.824 173.609V176.305H930.992V173.609H928.824ZM940.543 186.119L945.143 194H947.633L941.891 184.537L946.783 178.795H944.322L937.672 186.881V173.287H935.65V194H937.672V189.459L940.543 186.119ZM951.412 192.975C952.057 193.648 952.965 194 954.195 194H955.631V192.154H954.4C953.727 192.154 953.229 191.949 952.936 191.598C952.643 191.246 952.467 190.689 952.467 189.898V173.287H950.445V190.016C950.445 191.305 950.768 192.301 951.412 192.975ZM960.172 186.793H969.693V185.006C969.693 182.838 969.166 181.197 968.111 180.143C967.057 179.088 965.65 178.59 963.922 178.59C962.193 178.59 960.787 179.088 959.732 180.143C958.678 181.197 958.121 182.838 958.121 185.006V187.643C958.121 189.869 958.678 191.539 959.732 192.594C960.787 193.648 962.193 194.176 963.98 194.176C965.709 194.176 967.086 193.736 968.082 192.887C969.078 192.037 969.576 190.865 969.576 189.459V189.312H967.584V189.4C967.584 190.309 967.291 191.041 966.676 191.568C966.061 192.096 965.211 192.359 964.127 192.359C962.896 192.359 961.93 192.008 961.227 191.305C960.523 190.602 960.172 189.43 960.172 187.701V186.793ZM961.197 181.432C961.871 180.758 962.779 180.436 963.922 180.436C965.094 180.436 965.973 180.758 966.646 181.402C967.32 182.047 967.643 183.16 967.643 184.742V185.27H960.172V184.947C960.172 183.277 960.523 182.105 961.197 181.432ZM985.104 186.119L989.703 194H992.193L986.451 184.537L991.344 178.795H988.883L982.232 186.881V173.287H980.211V194H982.232V189.459L985.104 186.119ZM996.119 192.682C997.174 193.678 998.58 194.176 1000.37 194.176C1002.1 194.176 1003.5 193.678 1004.56 192.682C1005.61 191.686 1006.14 190.104 1006.14 187.936V184.83C1006.14 182.662 1005.61 181.08 1004.56 180.084C1003.5 179.088 1002.1 178.59 1000.37 178.59C998.58 178.59 997.174 179.088 996.119 180.084C995.064 181.08 994.508 182.662 994.508 184.83V187.936C994.508 190.104 995.064 191.686 996.119 192.682ZM1003.09 191.334C1002.42 192.008 1001.51 192.359 1000.37 192.359C999.195 192.359 998.258 192.008 997.584 191.334C996.91 190.66 996.559 189.488 996.559 187.818V184.947C996.559 183.277 996.91 182.105 997.584 181.432C998.258 180.758 999.195 180.436 1000.37 180.436C1001.51 180.436 1002.42 180.758 1003.09 181.432C1003.77 182.105 1004.09 183.277 1004.09 184.947V187.818C1004.09 189.488 1003.77 190.66 1003.09 191.334ZM1010.15 178.795V194H1012.17V184.303C1012.17 183.072 1012.53 182.105 1013.17 181.432C1013.81 180.758 1014.66 180.436 1015.75 180.436C1016.86 180.436 1017.71 180.758 1018.33 181.432C1018.94 182.105 1019.23 183.043 1019.23 184.303V194H1021.31V184.215C1021.31 183.043 1021.61 182.105 1022.25 181.432C1022.9 180.758 1023.78 180.436 1024.89 180.436C1026 180.436 1026.82 180.758 1027.44 181.432C1028.05 182.105 1028.35 183.043 1028.35 184.303V194H1030.4V184.01C1030.4 182.311 1029.96 180.963 1029.05 180.025C1028.14 179.088 1026.88 178.619 1025.27 178.619C1023.19 178.619 1021.64 179.469 1020.64 181.168C1020.23 180.348 1019.67 179.703 1018.94 179.264C1018.21 178.824 1017.3 178.619 1016.28 178.619C1015.4 178.619 1014.58 178.795 1013.87 179.146C1013.17 179.498 1012.58 179.967 1012.14 180.641V178.795H1010.15ZM1034.88 178.795V198.57H1036.9V191.979C1037.75 193.443 1039.13 194.176 1041.03 194.176C1042.53 194.176 1043.76 193.678 1044.72 192.682C1045.69 191.686 1046.16 190.104 1046.16 187.936V184.83C1046.16 182.691 1045.66 181.109 1044.69 180.113C1043.73 179.117 1042.44 178.619 1040.88 178.619C1040.01 178.619 1039.21 178.824 1038.54 179.205C1037.87 179.586 1037.31 180.172 1036.9 180.934V178.795H1034.88ZM1044.11 187.818C1044.11 190.836 1042.96 192.359 1040.71 192.359C1039.48 192.359 1038.54 191.92 1037.9 191.07C1037.25 190.221 1036.9 189.137 1036.9 187.789V185.123C1036.9 183.717 1037.22 182.574 1037.84 181.725C1038.45 180.875 1039.36 180.436 1040.59 180.436C1042.94 180.436 1044.11 181.959 1044.11 184.977V187.818ZM1051.29 192.682C1052.34 193.678 1053.75 194.176 1055.53 194.176C1057.26 194.176 1058.67 193.678 1059.72 192.682C1060.78 191.686 1061.3 190.104 1061.3 187.936V184.83C1061.3 182.662 1060.78 181.08 1059.72 180.084C1058.67 179.088 1057.26 178.59 1055.53 178.59C1053.75 178.59 1052.34 179.088 1051.29 180.084C1050.23 181.08 1049.67 182.662 1049.67 184.83V187.936C1049.67 190.104 1050.23 191.686 1051.29 192.682ZM1058.26 191.334C1057.58 192.008 1056.68 192.359 1055.53 192.359C1054.36 192.359 1053.42 192.008 1052.75 191.334C1052.08 190.66 1051.72 189.488 1051.72 187.818V184.947C1051.72 183.277 1052.08 182.105 1052.75 181.432C1053.42 180.758 1054.36 180.436 1055.53 180.436C1056.68 180.436 1057.58 180.758 1058.26 181.432C1058.93 182.105 1059.25 183.277 1059.25 184.947V187.818C1059.25 189.488 1058.93 190.66 1058.26 191.334ZM1065.32 178.795V194H1067.34V184.303C1067.34 183.072 1067.69 182.105 1068.34 181.432C1068.98 180.758 1069.83 180.436 1070.91 180.436C1072.03 180.436 1072.88 180.758 1073.49 181.432C1074.11 182.105 1074.43 183.043 1074.43 184.303V194H1076.48V184.01C1076.48 182.311 1076.04 180.963 1075.16 180.025C1074.28 179.088 1073.05 178.619 1071.44 178.619C1070.56 178.619 1069.74 178.766 1069.04 179.117C1068.34 179.469 1067.75 179.967 1067.31 180.641V178.795H1065.32ZM1082.52 186.793H1092.04V185.006C1092.04 182.838 1091.51 181.197 1090.46 180.143C1089.4 179.088 1087.99 178.59 1086.27 178.59C1084.54 178.59 1083.13 179.088 1082.08 180.143C1081.02 181.197 1080.46 182.838 1080.46 185.006V187.643C1080.46 189.869 1081.02 191.539 1082.08 192.594C1083.13 193.648 1084.54 194.176 1086.32 194.176C1088.05 194.176 1089.43 193.736 1090.43 192.887C1091.42 192.037 1091.92 190.865 1091.92 189.459V189.312H1089.93V189.4C1089.93 190.309 1089.63 191.041 1089.02 191.568C1088.4 192.096 1087.55 192.359 1086.47 192.359C1085.24 192.359 1084.27 192.008 1083.57 191.305C1082.87 190.602 1082.52 189.43 1082.52 187.701V186.793ZM1083.54 181.432C1084.21 180.758 1085.12 180.436 1086.27 180.436C1087.44 180.436 1088.32 180.758 1088.99 181.402C1089.66 182.047 1089.99 183.16 1089.99 184.742V185.27H1082.52V184.947C1082.52 183.277 1082.87 182.105 1083.54 181.432ZM1096.05 178.795V194H1098.07V184.303C1098.07 183.072 1098.42 182.105 1099.07 181.432C1099.71 180.758 1100.56 180.436 1101.65 180.436C1102.76 180.436 1103.61 180.758 1104.22 181.432C1104.84 182.105 1105.16 183.043 1105.16 184.303V194H1107.21V184.01C1107.21 182.311 1106.77 180.963 1105.89 180.025C1105.02 179.088 1103.79 178.619 1102.17 178.619C1101.29 178.619 1100.47 178.766 1099.77 179.117C1099.07 179.469 1098.48 179.967 1098.04 180.641V178.795H1096.05ZM1114.89 180.406H1118.32V178.795H1114.89V174.342L1112.84 175.309V178.795H1110.46V180.406H1112.84V190.221C1112.84 191.393 1113.16 192.33 1113.8 193.004C1114.45 193.678 1115.36 194 1116.53 194H1118.05V192.213H1116.85C1115.56 192.213 1114.89 191.51 1114.89 190.133V180.406Z" fill="black"/>
<path d="M889.889 334.297C890.973 334.883 892.203 335.176 893.551 335.176C894.898 335.176 896.129 334.883 897.213 334.297C898.297 333.711 899.117 332.92 899.732 331.865C900.348 330.811 900.641 329.609 900.641 328.262V314.287H898.473V328.057C898.473 329.639 898.004 330.898 897.096 331.836C896.188 332.773 895.045 333.242 893.551 333.242C892.057 333.242 890.826 332.773 889.947 331.836C889.068 330.898 888.629 329.639 888.629 328.057V314.287H886.402V328.262C886.402 329.609 886.725 330.781 887.34 331.836C887.955 332.891 888.805 333.711 889.889 334.297ZM908.492 321.406H911.92V319.795H908.492V315.342L906.441 316.309V319.795H904.068V321.406H906.441V331.221C906.441 332.393 906.764 333.33 907.408 334.004C908.053 334.678 908.961 335 910.133 335H911.656V333.213H910.455C909.166 333.213 908.492 332.51 908.492 331.133V321.406ZM913.648 319.795L918.922 335H920.738L925.982 319.795H923.785L919.83 332.012L915.875 319.795H913.648ZM928.883 319.795V335H930.934V319.795H928.883ZM928.824 314.609V317.305H930.992V314.609H928.824ZM940.543 327.119L945.143 335H947.633L941.891 325.537L946.783 319.795H944.322L937.672 327.881V314.287H935.65V335H937.672V330.459L940.543 327.119ZM951.412 333.975C952.057 334.648 952.965 335 954.195 335H955.631V333.154H954.4C953.727 333.154 953.229 332.949 952.936 332.598C952.643 332.246 952.467 331.689 952.467 330.898V314.287H950.445V331.016C950.445 332.305 950.768 333.301 951.412 333.975ZM960.172 327.793H969.693V326.006C969.693 323.838 969.166 322.197 968.111 321.143C967.057 320.088 965.65 319.59 963.922 319.59C962.193 319.59 960.787 320.088 959.732 321.143C958.678 322.197 958.121 323.838 958.121 326.006V328.643C958.121 330.869 958.678 332.539 959.732 333.594C960.787 334.648 962.193 335.176 963.98 335.176C965.709 335.176 967.086 334.736 968.082 333.887C969.078 333.037 969.576 331.865 969.576 330.459V330.312H967.584V330.4C967.584 331.309 967.291 332.041 966.676 332.568C966.061 333.096 965.211 333.359 964.127 333.359C962.896 333.359 961.93 333.008 961.227 332.305C960.523 331.602 960.172 330.43 960.172 328.701V327.793ZM961.197 322.432C961.871 321.758 962.779 321.436 963.922 321.436C965.094 321.436 965.973 321.758 966.646 322.402C967.32 323.047 967.643 324.16 967.643 325.742V326.27H960.172V325.947C960.172 324.277 960.523 323.105 961.197 322.432ZM985.104 327.119L989.703 335H992.193L986.451 325.537L991.344 319.795H988.883L982.232 327.881V314.287H980.211V335H982.232V330.459L985.104 327.119ZM996.119 333.682C997.174 334.678 998.58 335.176 1000.37 335.176C1002.1 335.176 1003.5 334.678 1004.56 333.682C1005.61 332.686 1006.14 331.104 1006.14 328.936V325.83C1006.14 323.662 1005.61 322.08 1004.56 321.084C1003.5 320.088 1002.1 319.59 1000.37 319.59C998.58 319.59 997.174 320.088 996.119 321.084C995.064 322.08 994.508 323.662 994.508 325.83V328.936C994.508 331.104 995.064 332.686 996.119 333.682ZM1003.09 332.334C1002.42 333.008 1001.51 333.359 1000.37 333.359C999.195 333.359 998.258 333.008 997.584 332.334C996.91 331.66 996.559 330.488 996.559 328.818V325.947C996.559 324.277 996.91 323.105 997.584 322.432C998.258 321.758 999.195 321.436 1000.37 321.436C1001.51 321.436 1002.42 321.758 1003.09 322.432C1003.77 323.105 1004.09 324.277 1004.09 325.947V328.818C1004.09 330.488 1003.77 331.66 1003.09 332.334ZM1010.15 319.795V335H1012.17V325.303C1012.17 324.072 1012.53 323.105 1013.17 322.432C1013.81 321.758 1014.66 321.436 1015.75 321.436C1016.86 321.436 1017.71 321.758 1018.33 322.432C1018.94 323.105 1019.23 324.043 1019.23 325.303V335H1021.31V325.215C1021.31 324.043 1021.61 323.105 1022.25 322.432C1022.9 321.758 1023.78 321.436 1024.89 321.436C1026 321.436 1026.82 321.758 1027.44 322.432C1028.05 323.105 1028.35 324.043 1028.35 325.303V335H1030.4V325.01C1030.4 323.311 1029.96 321.963 1029.05 321.025C1028.14 320.088 1026.88 319.619 1025.27 319.619C1023.19 319.619 1021.64 320.469 1020.64 322.168C1020.23 321.348 1019.67 320.703 1018.94 320.264C1018.21 319.824 1017.3 319.619 1016.28 319.619C1015.4 319.619 1014.58 319.795 1013.87 320.146C1013.17 320.498 1012.58 320.967 1012.14 321.641V319.795H1010.15ZM1034.88 319.795V339.57H1036.9V332.979C1037.75 334.443 1039.13 335.176 1041.03 335.176C1042.53 335.176 1043.76 334.678 1044.72 333.682C1045.69 332.686 1046.16 331.104 1046.16 328.936V325.83C1046.16 323.691 1045.66 322.109 1044.69 321.113C1043.73 320.117 1042.44 319.619 1040.88 319.619C1040.01 319.619 1039.21 319.824 1038.54 320.205C1037.87 320.586 1037.31 321.172 1036.9 321.934V319.795H1034.88ZM1044.11 328.818C1044.11 331.836 1042.96 333.359 1040.71 333.359C1039.48 333.359 1038.54 332.92 1037.9 332.07C1037.25 331.221 1036.9 330.137 1036.9 328.789V326.123C1036.9 324.717 1037.22 323.574 1037.84 322.725C1038.45 321.875 1039.36 321.436 1040.59 321.436C1042.94 321.436 1044.11 322.959 1044.11 325.977V328.818ZM1051.29 333.682C1052.34 334.678 1053.75 335.176 1055.53 335.176C1057.26 335.176 1058.67 334.678 1059.72 333.682C1060.78 332.686 1061.3 331.104 1061.3 328.936V325.83C1061.3 323.662 1060.78 322.08 1059.72 321.084C1058.67 320.088 1057.26 319.59 1055.53 319.59C1053.75 319.59 1052.34 320.088 1051.29 321.084C1050.23 322.08 1049.67 323.662 1049.67 325.83V328.936C1049.67 331.104 1050.23 332.686 1051.29 333.682ZM1058.26 332.334C1057.58 333.008 1056.68 333.359 1055.53 333.359C1054.36 333.359 1053.42 333.008 1052.75 332.334C1052.08 331.66 1051.72 330.488 1051.72 328.818V325.947C1051.72 324.277 1052.08 323.105 1052.75 322.432C1053.42 321.758 1054.36 321.436 1055.53 321.436C1056.68 321.436 1057.58 321.758 1058.26 322.432C1058.93 323.105 1059.25 324.277 1059.25 325.947V328.818C1059.25 330.488 1058.93 331.66 1058.26 332.334ZM1065.32 319.795V335H1067.34V325.303C1067.34 324.072 1067.69 323.105 1068.34 322.432C1068.98 321.758 1069.83 321.436 1070.91 321.436C1072.03 321.436 1072.88 321.758 1073.49 322.432C1074.11 323.105 1074.43 324.043 1074.43 325.303V335H1076.48V325.01C1076.48 323.311 1076.04 321.963 1075.16 321.025C1074.28 320.088 1073.05 319.619 1071.44 319.619C1070.56 319.619 1069.74 319.766 1069.04 320.117C1068.34 320.469 1067.75 320.967 1067.31 321.641V319.795H1065.32ZM1082.52 327.793H1092.04V326.006C1092.04 323.838 1091.51 322.197 1090.46 321.143C1089.4 320.088 1087.99 319.59 1086.27 319.59C1084.54 319.59 1083.13 320.088 1082.08 321.143C1081.02 322.197 1080.46 323.838 1080.46 326.006V328.643C1080.46 330.869 1081.02 332.539 1082.08 333.594C1083.13 334.648 1084.54 335.176 1086.32 335.176C1088.05 335.176 1089.43 334.736 1090.43 333.887C1091.42 333.037 1091.92 331.865 1091.92 330.459V330.312H1089.93V330.4C1089.93 331.309 1089.63 332.041 1089.02 332.568C1088.4 333.096 1087.55 333.359 1086.47 333.359C1085.24 333.359 1084.27 333.008 1083.57 332.305C1082.87 331.602 1082.52 330.43 1082.52 328.701V327.793ZM1083.54 322.432C1084.21 321.758 1085.12 321.436 1086.27 321.436C1087.44 321.436 1088.32 321.758 1088.99 322.402C1089.66 323.047 1089.99 324.16 1089.99 325.742V326.27H1082.52V325.947C1082.52 324.277 1082.87 323.105 1083.54 322.432ZM1096.05 319.795V335H1098.07V325.303C1098.07 324.072 1098.42 323.105 1099.07 322.432C1099.71 321.758 1100.56 321.436 1101.65 321.436C1102.76 321.436 1103.61 321.758 1104.22 322.432C1104.84 323.105 1105.16 324.043 1105.16 325.303V335H1107.21V325.01C1107.21 323.311 1106.77 321.963 1105.89 321.025C1105.02 320.088 1103.79 319.619 1102.17 319.619C1101.29 319.619 1100.47 319.766 1099.77 320.117C1099.07 320.469 1098.48 320.967 1098.04 321.641V319.795H1096.05ZM1114.89 321.406H1118.32V319.795H1114.89V315.342L1112.84 316.309V319.795H1110.46V321.406H1112.84V331.221C1112.84 332.393 1113.16 333.33 1113.8 334.004C1114.45 334.678 1115.36 335 1116.53 335H1118.05V333.213H1116.85C1115.56 333.213 1114.89 332.51 1114.89 331.133V321.406Z" fill="black"/>
<path d="M897.945 154.605H890.24L888.775 159H884.103L892.042 137.672H896.114L904.098 159H899.425L897.945 154.605ZM891.427 151.046H896.759L894.078 143.062L891.427 151.046ZM910.279 159H906.031V136.5H910.279V159ZM918.849 139.254V143.15H921.559V146.256H918.849V154.166C918.849 154.752 918.961 155.172 919.186 155.426C919.41 155.68 919.84 155.807 920.475 155.807C920.943 155.807 921.358 155.772 921.72 155.704V158.912C920.89 159.166 920.035 159.293 919.156 159.293C916.188 159.293 914.674 157.794 914.615 154.796V146.256H912.301V143.15H914.615V139.254H918.849ZM928.385 159H924.137V143.15H928.385V159ZM923.888 139.049C923.888 138.414 924.098 137.892 924.518 137.481C924.947 137.071 925.528 136.866 926.261 136.866C926.983 136.866 927.56 137.071 927.989 137.481C928.419 137.892 928.634 138.414 928.634 139.049C928.634 139.693 928.414 140.221 927.975 140.631C927.545 141.041 926.974 141.246 926.261 141.246C925.548 141.246 924.972 141.041 924.532 140.631C924.103 140.221 923.888 139.693 923.888 139.049ZM935.782 143.15L935.914 144.981C937.047 143.565 938.565 142.857 940.47 142.857C942.149 142.857 943.399 143.351 944.22 144.337C945.04 145.323 945.46 146.798 945.479 148.761V159H941.246V148.863C941.246 147.965 941.051 147.315 940.66 146.915C940.27 146.505 939.62 146.3 938.712 146.3C937.521 146.3 936.627 146.808 936.031 147.823V159H931.798V143.15H935.782ZM952.599 143.15L952.73 144.981C953.863 143.565 955.382 142.857 957.286 142.857C958.966 142.857 960.216 143.351 961.036 144.337C961.856 145.323 962.276 146.798 962.296 148.761V159H958.062V148.863C958.062 147.965 957.867 147.315 957.477 146.915C957.086 146.505 956.437 146.3 955.528 146.3C954.337 146.3 953.443 146.808 952.848 147.823V159H948.614V143.15H952.599Z" fill="black"/>
<path d="M898.707 282.715V279.287H884.176V282.715H889.449V300H893.434V282.715H898.707ZM900.523 279.287V282.275H904.303V279.287H900.523ZM897.857 301.465V304.688H899.615C901.109 304.688 902.252 304.277 903.072 303.457C903.893 302.637 904.303 301.465 904.303 299.941V284.414H900.611V299.707C900.611 300.322 900.494 300.762 900.26 301.055C900.025 301.348 899.645 301.465 899.117 301.465H897.857ZM911.1 293.32H920.211V291.24C920.211 288.926 919.625 287.168 918.482 285.996C917.34 284.824 915.787 284.209 913.824 284.209C911.832 284.209 910.25 284.795 909.107 285.967C907.965 287.139 907.408 288.896 907.408 291.24V293.145C907.408 295.547 907.994 297.305 909.166 298.447C910.338 299.59 911.949 300.176 913.941 300.176C915.846 300.176 917.34 299.736 918.453 298.828C919.566 297.92 920.094 296.748 920.094 295.254V295.107H916.549L916.52 295.195C916.49 295.752 916.256 296.191 915.846 296.514C915.436 296.836 914.82 296.982 914.088 296.982C913.121 296.982 912.418 296.719 911.891 296.221C911.363 295.723 911.1 294.902 911.1 293.73V293.32ZM911.803 288.164C912.271 287.666 912.945 287.402 913.824 287.402C915.611 287.402 916.49 288.369 916.49 290.361V290.771H911.1V290.684C911.1 289.512 911.334 288.662 911.803 288.164ZM923.17 284.414V300H926.891V290.273C926.891 289.395 927.125 288.721 927.594 288.252C928.062 287.783 928.648 287.52 929.381 287.52C930.113 287.52 930.729 287.783 931.168 288.252C931.607 288.721 931.812 289.395 931.812 290.273V300H935.533V289.834C935.533 288.105 935.094 286.729 934.215 285.732C933.336 284.736 932.105 284.209 930.494 284.209C929.791 284.209 929.117 284.355 928.473 284.619C927.828 284.883 927.271 285.293 926.803 285.82V284.414H923.17ZM942.184 293.32H951.295V291.24C951.295 288.926 950.709 287.168 949.566 285.996C948.424 284.824 946.871 284.209 944.908 284.209C942.916 284.209 941.334 284.795 940.191 285.967C939.049 287.139 938.492 288.896 938.492 291.24V293.145C938.492 295.547 939.078 297.305 940.25 298.447C941.422 299.59 943.033 300.176 945.025 300.176C946.93 300.176 948.424 299.736 949.537 298.828C950.65 297.92 951.178 296.748 951.178 295.254V295.107H947.633L947.604 295.195C947.574 295.752 947.34 296.191 946.93 296.514C946.52 296.836 945.904 296.982 945.172 296.982C944.205 296.982 943.502 296.719 942.975 296.221C942.447 295.723 942.184 294.902 942.184 293.73V293.32ZM942.887 288.164C943.355 287.666 944.029 287.402 944.908 287.402C946.695 287.402 947.574 288.369 947.574 290.361V290.771H942.184V290.684C942.184 289.512 942.418 288.662 942.887 288.164ZM955.338 298.887C956.422 299.766 957.857 300.176 959.645 300.176C961.49 300.176 962.984 299.766 964.156 298.887C965.328 298.008 965.914 296.777 965.914 295.166C965.914 293.877 965.533 292.852 964.742 292.119C963.951 291.387 962.779 290.918 961.227 290.684L959.381 290.391C958.678 290.303 958.209 290.127 957.887 289.863C957.564 289.6 957.418 289.248 957.418 288.779C957.418 288.281 957.594 287.871 958.004 287.578C958.414 287.285 959 287.139 959.762 287.139C960.523 287.139 961.109 287.285 961.549 287.578C961.988 287.871 962.193 288.311 962.193 288.838V288.926H965.621V288.75C965.621 287.9 965.387 287.139 964.889 286.436C964.391 285.732 963.717 285.176 962.838 284.795C961.959 284.414 960.934 284.209 959.762 284.209C958.062 284.209 956.656 284.648 955.572 285.527C954.488 286.406 953.932 287.549 953.932 289.043C953.932 290.332 954.312 291.357 955.045 292.061C955.777 292.764 956.949 293.232 958.502 293.496L960.143 293.76C960.934 293.877 961.49 294.053 961.842 294.316C962.193 294.58 962.369 294.961 962.369 295.43C962.369 296.016 962.135 296.455 961.666 296.748C961.197 297.041 960.582 297.188 959.762 297.188C959 297.188 958.385 297.012 957.916 296.689C957.447 296.367 957.213 295.898 957.213 295.312V295.254H953.727V295.371C953.727 296.836 954.254 298.008 955.338 298.887ZM973.443 287.021H976.461V284.414H973.443V280.049L969.752 281.338V284.414H967.613V287.021H969.752V295.488C969.752 296.865 970.191 297.979 971.012 298.799C971.832 299.619 972.975 300 974.381 300H976.139V296.836H974.996C973.971 296.836 973.443 296.309 973.443 295.254V287.021ZM981.998 293.32H991.109V291.24C991.109 288.926 990.523 287.168 989.381 285.996C988.238 284.824 986.686 284.209 984.723 284.209C982.73 284.209 981.148 284.795 980.006 285.967C978.863 287.139 978.307 288.896 978.307 291.24V293.145C978.307 295.547 978.893 297.305 980.064 298.447C981.236 299.59 982.848 300.176 984.84 300.176C986.744 300.176 988.238 299.736 989.352 298.828C990.465 297.92 990.992 296.748 990.992 295.254V295.107H987.447L987.418 295.195C987.389 295.752 987.154 296.191 986.744 296.514C986.334 296.836 985.719 296.982 984.986 296.982C984.02 296.982 983.316 296.719 982.789 296.221C982.262 295.723 981.998 294.902 981.998 293.73V293.32ZM982.701 288.164C983.17 287.666 983.844 287.402 984.723 287.402C986.51 287.402 987.389 288.369 987.389 290.361V290.771H981.998V290.684C981.998 289.512 982.232 288.662 982.701 288.164ZM997.496 293.32H1006.61V291.24C1006.61 288.926 1006.02 287.168 1004.88 285.996C1003.74 284.824 1002.18 284.209 1000.22 284.209C998.229 284.209 996.646 284.795 995.504 285.967C994.361 287.139 993.805 288.896 993.805 291.24V293.145C993.805 295.547 994.391 297.305 995.562 298.447C996.734 299.59 998.346 300.176 1000.34 300.176C1002.24 300.176 1003.74 299.736 1004.85 298.828C1005.96 297.92 1006.49 296.748 1006.49 295.254V295.107H1002.95L1002.92 295.195C1002.89 295.752 1002.65 296.191 1002.24 296.514C1001.83 296.836 1001.22 296.982 1000.48 296.982C999.518 296.982 998.814 296.719 998.287 296.221C997.76 295.723 997.496 294.902 997.496 293.73V293.32ZM998.199 288.164C998.668 287.666 999.342 287.402 1000.22 287.402C1002.01 287.402 1002.89 288.369 1002.89 290.361V290.771H997.496V290.684C997.496 289.512 997.73 288.662 998.199 288.164ZM1009.71 284.414V300H1013.4V284.414H1009.71ZM1009.65 279.287V282.275H1013.43V279.287H1009.65ZM1020.2 293.32H1029.31V291.24C1029.31 288.926 1028.73 287.168 1027.58 285.996C1026.44 284.824 1024.89 284.209 1022.93 284.209C1020.93 284.209 1019.35 284.795 1018.21 285.967C1017.07 287.139 1016.51 288.896 1016.51 291.24V293.145C1016.51 295.547 1017.1 297.305 1018.27 298.447C1019.44 299.59 1021.05 300.176 1023.04 300.176C1024.95 300.176 1026.44 299.736 1027.55 298.828C1028.67 297.92 1029.2 296.748 1029.2 295.254V295.107H1025.65L1025.62 295.195C1025.59 295.752 1025.36 296.191 1024.95 296.514C1024.54 296.836 1023.92 296.982 1023.19 296.982C1022.22 296.982 1021.52 296.719 1020.99 296.221C1020.46 295.723 1020.2 294.902 1020.2 293.73V293.32ZM1020.9 288.164C1021.37 287.666 1022.05 287.402 1022.93 287.402C1024.71 287.402 1025.59 288.369 1025.59 290.361V290.771H1020.2V290.684C1020.2 289.512 1020.44 288.662 1020.9 288.164ZM1032.27 284.414V300H1035.99V290.654C1035.99 289.6 1036.26 288.75 1036.81 288.193C1037.37 287.637 1038.1 287.344 1039.01 287.344C1039.54 287.344 1040.15 287.432 1040.86 287.666V284.18C1040.47 284.092 1040.06 284.062 1039.6 284.062C1038.8 284.062 1038.07 284.238 1037.43 284.561C1036.78 284.883 1036.29 285.352 1035.9 286.025V284.414H1032.27Z" fill="black"/>
<path d="M1048.5 85.4778C1048.49 86.5823 1049.37 87.4876 1050.48 87.4999L1068.48 87.6999C1069.58 87.7121 1070.49 86.8267 1070.5 85.7222C1070.51 84.6177 1069.63 83.7124 1068.52 83.7001L1052.52 83.5223L1052.7 67.5233C1052.71 66.4188 1051.83 65.5135 1050.72 65.5012C1049.62 65.489 1048.71 66.3744 1048.7 67.4789L1048.5 85.4778ZM1344.93 84.0994C1266.69 4.34859 1140.93 -5.73692 1049.1 84.0702L1051.9 86.9298C1142.07 -1.26308 1265.31 8.65141 1342.07 86.9006L1344.93 84.0994Z" fill="#BCC7CC"/>
<path d="M258 85.0334C257.988 86.1379 258.873 87.0433 259.978 87.0555L277.977 87.2555C279.081 87.2678 279.986 86.3824 279.999 85.2779C280.011 84.1734 279.126 83.268 278.021 83.2558L262.022 83.078L262.2 67.079C262.212 65.9745 261.327 65.0692 260.222 65.0569C259.118 65.0446 258.212 65.9301 258.2 67.0346L258 85.0334ZM554.428 83.6551C476.191 3.90425 350.427 -6.18126 258.602 83.6258L261.398 86.4855C351.573 -1.70742 474.809 8.20708 551.572 86.4563L554.428 83.6551Z" fill="#BCC7CC"/>
<path d="M1048.5 389.022C1048.49 387.918 1049.37 387.012 1050.48 387L1068.48 386.8C1069.58 386.788 1070.49 387.673 1070.5 388.778C1070.51 389.882 1069.63 390.788 1068.52 390.8L1052.52 390.978L1052.7 406.977C1052.71 408.081 1051.83 408.986 1050.72 408.999C1049.62 409.011 1048.71 408.126 1048.7 407.021L1048.5 389.022ZM1344.93 390.401C1266.69 470.151 1140.93 480.237 1049.1 390.43L1051.9 387.57C1142.07 475.763 1265.31 465.849 1342.07 387.599L1344.93 390.401Z" fill="#BCC7CC"/>
<path d="M258 388.578C257.988 387.473 258.873 386.568 259.978 386.556L277.977 386.356C279.081 386.344 279.986 387.229 279.999 388.333C280.011 389.438 279.126 390.343 278.021 390.356L262.022 390.533L262.2 406.532C262.212 407.637 261.327 408.542 260.222 408.554C259.118 408.567 258.212 407.681 258.2 406.577L258 388.578ZM554.428 389.956C476.191 469.707 350.427 479.793 258.602 389.986L261.398 387.126C351.573 475.319 474.809 465.404 551.572 387.155L554.428 389.956Z" fill="#BCC7CC"/>
</g>
<defs>
<clipPath id="clip0">
<rect width="1966" height="474" fill="white"/>
</clipPath>
</defs>
</svg>
