<svg width="1966" height="474" viewBox="0 0 1966 474" fill="none" xmlns="http://www.w3.org/2000/svg">
<g clip-path="url(#clip0)">
<path d="M0 106.556H370.491L438 236.556L370.491 365.556H0V106.556Z" fill="#022F51"/>
<path d="M402 106.556H772.491L840 236.556L772.491 365.556H402L473 236.556L402 106.556Z" fill="#EFEFEF"/>
<path d="M1197 107H1567.49L1635 237L1567.49 366H1197L1268 237L1197 107Z" fill="#EFEFEF"/>
<path d="M1596 107H1966.49V237V366H1596L1667 237L1596 107Z" fill="#D4F9E4"/>
<path d="M869 250H1236L1168.49 366H798L869 250Z" fill="#EFEFEF"/>
<path d="M798 107H1168.49L1236 227H869L798 107Z" fill="#EFEFEF"/>
<path d="M72.8555 209.813H83.8945V205.7H68.1094V230.556H72.8555V220.29H82.3125V216.177H72.8555V209.813ZM87.1289 228.868C88.5 230.134 90.3281 230.767 92.6836 230.767C95.0039 230.767 96.8672 230.134 98.2031 228.868C99.5391 227.603 100.207 225.599 100.207 222.927V219.446C100.207 216.774 99.5391 214.806 98.2031 213.54C96.8672 212.274 95.0039 211.606 92.6836 211.606C90.3281 211.606 88.5 212.274 87.1289 213.54C85.7578 214.806 85.0898 216.774 85.0898 219.446V222.927C85.0898 225.599 85.7578 227.603 87.1289 228.868ZM95.7773 222.892C95.7773 225.493 94.7578 226.829 92.6836 226.829C90.5742 226.829 89.5195 225.493 89.5195 222.892V219.517C89.5195 216.915 90.5742 215.579 92.6836 215.579C94.7578 215.579 95.7773 216.915 95.7773 219.517V222.892ZM103.758 211.853V230.556H108.223V219.341C108.223 218.075 108.539 217.056 109.207 216.388C109.875 215.72 110.754 215.368 111.844 215.368C112.477 215.368 113.215 215.474 114.059 215.755V211.571C113.602 211.466 113.109 211.431 112.547 211.431C111.598 211.431 110.719 211.642 109.945 212.028C109.172 212.415 108.574 212.978 108.117 213.786V211.853H103.758ZM120.035 222.54H130.969V220.044C130.969 217.267 130.266 215.157 128.895 213.751C127.523 212.345 125.66 211.606 123.305 211.606C120.914 211.606 119.016 212.31 117.645 213.716C116.273 215.122 115.605 217.231 115.605 220.044V222.329C115.605 225.212 116.309 227.321 117.715 228.692C119.121 230.063 121.055 230.767 123.445 230.767C125.73 230.767 127.523 230.239 128.859 229.149C130.195 228.06 130.828 226.653 130.828 224.86V224.685H126.574L126.539 224.79C126.504 225.458 126.223 225.985 125.73 226.372C125.238 226.759 124.5 226.935 123.621 226.935C122.461 226.935 121.617 226.618 120.984 226.021C120.352 225.423 120.035 224.438 120.035 223.032V222.54ZM120.879 216.353C121.441 215.755 122.25 215.438 123.305 215.438C125.449 215.438 126.504 216.599 126.504 218.989V219.481H120.035V219.376C120.035 217.97 120.316 216.95 120.879 216.353ZM135.82 229.22C137.121 230.274 138.844 230.767 140.988 230.767C143.203 230.767 144.996 230.274 146.402 229.22C147.809 228.165 148.512 226.688 148.512 224.755C148.512 223.208 148.055 221.978 147.105 221.099C146.156 220.22 144.75 219.657 142.887 219.376L140.672 219.024C139.828 218.919 139.266 218.708 138.879 218.392C138.492 218.075 138.316 217.653 138.316 217.091C138.316 216.493 138.527 216.001 139.02 215.649C139.512 215.298 140.215 215.122 141.129 215.122C142.043 215.122 142.746 215.298 143.273 215.649C143.801 216.001 144.047 216.528 144.047 217.161V217.267H148.16V217.056C148.16 216.036 147.879 215.122 147.281 214.278C146.684 213.435 145.875 212.767 144.82 212.31C143.766 211.853 142.535 211.606 141.129 211.606C139.09 211.606 137.402 212.134 136.102 213.188C134.801 214.243 134.133 215.614 134.133 217.407C134.133 218.954 134.59 220.185 135.469 221.028C136.348 221.872 137.754 222.435 139.617 222.751L141.586 223.067C142.535 223.208 143.203 223.419 143.625 223.735C144.047 224.052 144.258 224.509 144.258 225.071C144.258 225.774 143.977 226.302 143.414 226.653C142.852 227.005 142.113 227.181 141.129 227.181C140.215 227.181 139.477 226.97 138.914 226.583C138.352 226.196 138.07 225.634 138.07 224.931V224.86H133.887V225.001C133.887 226.759 134.52 228.165 135.82 229.22ZM153.082 229.079C154.066 230.063 155.473 230.556 157.266 230.556H159.305V226.688H157.793C157.16 226.688 156.738 226.548 156.457 226.231C156.176 225.915 156.035 225.353 156.035 224.579V205.7H151.57V224.86C151.57 226.688 152.098 228.095 153.082 229.079ZM174.105 213.294C172.84 212.169 171.047 211.606 168.656 211.606C166.547 211.606 164.824 212.134 163.594 213.153C162.363 214.173 161.73 215.544 161.73 217.302V217.442H165.879V217.337C165.879 216.634 166.125 216.106 166.617 215.685C167.109 215.263 167.777 215.052 168.621 215.052C170.625 215.052 171.609 216.036 171.609 218.04V219.517H167.637C165.633 219.517 164.051 219.974 162.926 220.958C161.801 221.942 161.238 223.243 161.238 224.931C161.238 226.759 161.766 228.2 162.82 229.22C163.875 230.239 165.352 230.767 167.285 230.767C168.305 230.767 169.113 230.626 169.781 230.345C170.449 230.063 171.082 229.571 171.715 228.938V230.556H176.039V218.251C176.039 216.071 175.371 214.419 174.105 213.294ZM170.836 226.372C170.309 226.899 169.465 227.181 168.305 227.181C166.477 227.181 165.562 226.372 165.562 224.825C165.562 223.313 166.512 222.575 168.375 222.575H171.609V223.911C171.609 225.001 171.363 225.845 170.836 226.372ZM166.02 209.813C166.723 210.517 167.602 210.868 168.656 210.868C169.711 210.868 170.59 210.517 171.293 209.813C171.996 209.11 172.348 208.196 172.348 207.142C172.348 206.052 171.996 205.173 171.293 204.47C170.59 203.767 169.711 203.415 168.656 203.415C167.602 203.415 166.723 203.767 166.02 204.47C165.316 205.173 164.93 206.052 164.93 207.142C164.93 208.196 165.316 209.11 166.02 209.813ZM169.852 208.372C169.535 208.724 169.148 208.899 168.656 208.899C168.199 208.899 167.812 208.724 167.496 208.372C167.18 208.021 167.004 207.634 167.004 207.142C167.004 206.649 167.145 206.263 167.461 205.911C167.777 205.56 168.164 205.384 168.656 205.384C169.148 205.384 169.535 205.56 169.852 205.911C170.168 206.263 170.344 206.649 170.344 207.142C170.344 207.634 170.168 208.021 169.852 208.372ZM191.719 222.54H202.652V220.044C202.652 217.267 201.949 215.157 200.578 213.751C199.207 212.345 197.344 211.606 194.988 211.606C192.598 211.606 190.699 212.31 189.328 213.716C187.957 215.122 187.289 217.231 187.289 220.044V222.329C187.289 225.212 187.992 227.321 189.398 228.692C190.805 230.063 192.738 230.767 195.129 230.767C197.414 230.767 199.207 230.239 200.543 229.149C201.879 228.06 202.512 226.653 202.512 224.86V224.685H198.258L198.223 224.79C198.188 225.458 197.906 225.985 197.414 226.372C196.922 226.759 196.184 226.935 195.305 226.935C194.145 226.935 193.301 226.618 192.668 226.021C192.035 225.423 191.719 224.438 191.719 223.032V222.54ZM192.562 216.353C193.125 215.755 193.934 215.438 194.988 215.438C197.133 215.438 198.188 216.599 198.188 218.989V219.481H191.719V219.376C191.719 217.97 192 216.95 192.562 216.353ZM206.203 211.853V230.556H210.668V218.884C210.668 217.829 210.949 217.021 211.512 216.458C212.074 215.896 212.777 215.579 213.656 215.579C214.535 215.579 215.273 215.896 215.801 216.458C216.328 217.021 216.574 217.829 216.574 218.884V230.556H221.039V218.356C221.039 216.282 220.512 214.63 219.457 213.435C218.402 212.239 216.926 211.606 214.992 211.606C214.148 211.606 213.34 211.782 212.566 212.099C211.793 212.415 211.125 212.907 210.562 213.54V211.853H206.203ZM232.43 211.853V230.556H236.895V218.884C236.895 217.829 237.176 217.021 237.738 216.458C238.301 215.896 239.004 215.579 239.883 215.579C240.762 215.579 241.5 215.896 242.027 216.458C242.555 217.021 242.801 217.829 242.801 218.884V230.556H247.266V218.356C247.266 216.282 246.738 214.63 245.684 213.435C244.629 212.239 243.152 211.606 241.219 211.606C240.375 211.606 239.566 211.782 238.793 212.099C238.02 212.415 237.352 212.907 236.789 213.54V211.853H232.43ZM265.688 211.853H261.117L257.391 223.595L253.699 211.853H248.988L255.316 230.063L255.246 230.31C255.035 231.013 254.754 231.47 254.402 231.716C254.051 231.962 253.523 232.103 252.82 232.103H251.414V236.11H252.961C254.438 236.11 255.633 235.794 256.547 235.161C257.461 234.528 258.129 233.544 258.621 232.173L265.688 211.853ZM74.4023 261.716L78.832 269.556H84.2109L77.3555 258.271L83.7539 250.853H78.4453L72.3984 258.622V244.7H67.9336V269.556H72.3984V264.001L74.4023 261.716ZM86.918 267.868C88.2891 269.134 90.1172 269.767 92.4727 269.767C94.793 269.767 96.6562 269.134 97.9922 267.868C99.3281 266.603 99.9961 264.599 99.9961 261.927V258.446C99.9961 255.774 99.3281 253.806 97.9922 252.54C96.6562 251.274 94.793 250.606 92.4727 250.606C90.1172 250.606 88.2891 251.274 86.918 252.54C85.5469 253.806 84.8789 255.774 84.8789 258.446V261.927C84.8789 264.599 85.5469 266.603 86.918 267.868ZM95.5664 261.892C95.5664 264.493 94.5469 265.829 92.4727 265.829C90.3633 265.829 89.3086 264.493 89.3086 261.892V258.517C89.3086 255.915 90.3633 254.579 92.4727 254.579C94.5469 254.579 95.5664 255.915 95.5664 258.517V261.892ZM103.547 250.853V269.556H108.012V257.884C108.012 256.829 108.293 256.021 108.855 255.458C109.418 254.896 110.121 254.579 111 254.579C111.879 254.579 112.582 254.86 113.109 255.423C113.637 255.985 113.918 256.794 113.918 257.884V269.556H118.383V257.778C118.383 256.829 118.664 256.056 119.191 255.458C119.719 254.86 120.457 254.579 121.371 254.579C122.25 254.579 122.953 254.86 123.48 255.423C124.008 255.985 124.289 256.794 124.289 257.884V269.556H128.754V257.356C128.754 255.282 128.191 253.63 127.066 252.435C125.941 251.239 124.43 250.606 122.426 250.606C120.352 250.606 118.559 251.415 117.117 252.962C116.027 251.415 114.41 250.606 112.336 250.606C111.492 250.606 110.684 250.782 109.91 251.134C109.137 251.485 108.469 251.942 107.906 252.54V250.853H103.547ZM132.621 250.853V275.181H137.086V267.868C138.105 269.134 139.547 269.767 141.41 269.767C143.203 269.767 144.68 269.134 145.84 267.833C147 266.532 147.598 264.634 147.598 262.032V258.341C147.598 255.739 147 253.806 145.84 252.54C144.68 251.274 143.133 250.606 141.27 250.606C139.512 250.606 138.07 251.345 136.98 252.751V250.853H132.621ZM143.133 261.892C143.133 264.493 142.184 265.829 140.25 265.829C139.23 265.829 138.457 265.478 137.895 264.81C137.332 264.142 137.051 263.157 137.051 261.892V258.517C137.051 257.251 137.332 256.267 137.895 255.599C138.457 254.931 139.195 254.579 140.145 254.579C141.059 254.579 141.797 254.896 142.324 255.493C142.852 256.091 143.133 257.11 143.133 258.517V261.892ZM152.871 267.868C154.242 269.134 156.07 269.767 158.426 269.767C160.746 269.767 162.609 269.134 163.945 267.868C165.281 266.603 165.949 264.599 165.949 261.927V258.446C165.949 255.774 165.281 253.806 163.945 252.54C162.609 251.274 160.746 250.606 158.426 250.606C156.07 250.606 154.242 251.274 152.871 252.54C151.5 253.806 150.832 255.774 150.832 258.446V261.927C150.832 264.599 151.5 266.603 152.871 267.868ZM161.52 261.892C161.52 264.493 160.5 265.829 158.426 265.829C156.316 265.829 155.262 264.493 155.262 261.892V258.517C155.262 255.915 156.316 254.579 158.426 254.579C160.5 254.579 161.52 255.915 161.52 258.517V261.892ZM169.5 250.853V269.556H173.965V257.884C173.965 256.829 174.246 256.021 174.809 255.458C175.371 254.896 176.074 254.579 176.953 254.579C177.832 254.579 178.57 254.896 179.098 255.458C179.625 256.021 179.871 256.829 179.871 257.884V269.556H184.336V257.356C184.336 255.282 183.809 253.63 182.754 252.435C181.699 251.239 180.223 250.606 178.289 250.606C177.445 250.606 176.637 250.782 175.863 251.099C175.09 251.415 174.422 251.907 173.859 252.54V250.853H169.5ZM192.316 261.54H203.25V259.044C203.25 256.267 202.547 254.157 201.176 252.751C199.805 251.345 197.941 250.606 195.586 250.606C193.195 250.606 191.297 251.31 189.926 252.716C188.555 254.122 187.887 256.231 187.887 259.044V261.329C187.887 264.212 188.59 266.321 189.996 267.692C191.402 269.063 193.336 269.767 195.727 269.767C198.012 269.767 199.805 269.239 201.141 268.149C202.477 267.06 203.109 265.653 203.109 263.86V263.685H198.855L198.82 263.79C198.785 264.458 198.504 264.985 198.012 265.372C197.52 265.759 196.781 265.935 195.902 265.935C194.742 265.935 193.898 265.618 193.266 265.021C192.633 264.423 192.316 263.438 192.316 262.032V261.54ZM193.16 255.353C193.723 254.755 194.531 254.438 195.586 254.438C197.73 254.438 198.785 255.599 198.785 257.989V258.481H192.316V258.376C192.316 256.97 192.598 255.95 193.16 255.353ZM206.801 250.853V269.556H211.266V257.884C211.266 256.829 211.547 256.021 212.109 255.458C212.672 254.896 213.375 254.579 214.254 254.579C215.133 254.579 215.871 254.896 216.398 255.458C216.926 256.021 217.172 256.829 217.172 257.884V269.556H221.637V257.356C221.637 255.282 221.109 253.63 220.055 252.435C219 251.239 217.523 250.606 215.59 250.606C214.746 250.606 213.938 250.782 213.164 251.099C212.391 251.415 211.723 251.907 211.16 252.54V250.853H206.801ZM231.305 253.981H234.926V250.853H231.305V245.614L226.875 247.161V250.853H224.309V253.981H226.875V264.142C226.875 265.794 227.402 267.13 228.387 268.114C229.371 269.099 230.742 269.556 232.43 269.556H234.539V265.759H233.168C231.938 265.759 231.305 265.126 231.305 263.86V253.981Z" fill="white"/>
<path d="M515.496 259.102L521.086 270H524.109L518.273 258.855C519.961 258.469 521.227 257.695 522.176 256.535C523.125 255.375 523.582 253.934 523.582 252.141C523.582 249.926 522.914 248.168 521.578 246.973C520.242 245.777 518.414 245.145 516.094 245.145H506.883V270H509.52V259.102H515.496ZM509.52 256.816V247.535H515.883C517.5 247.535 518.766 247.922 519.645 248.695C520.523 249.469 520.945 250.629 520.945 252.176C520.945 253.652 520.488 254.812 519.609 255.621C518.73 256.43 517.5 256.816 515.883 256.816H509.52ZM529.664 261.352H541.09V259.207C541.09 256.605 540.457 254.637 539.191 253.371C537.926 252.105 536.238 251.508 534.164 251.508C532.09 251.508 530.402 252.105 529.137 253.371C527.871 254.637 527.203 256.605 527.203 259.207V262.371C527.203 265.043 527.871 267.047 529.137 268.312C530.402 269.578 532.09 270.211 534.234 270.211C536.309 270.211 537.961 269.684 539.156 268.664C540.352 267.645 540.949 266.238 540.949 264.551V264.375H538.559V264.48C538.559 265.57 538.207 266.449 537.469 267.082C536.73 267.715 535.711 268.031 534.41 268.031C532.934 268.031 531.773 267.609 530.93 266.766C530.086 265.922 529.664 264.516 529.664 262.441V261.352ZM530.895 254.918C531.703 254.109 532.793 253.723 534.164 253.723C535.57 253.723 536.625 254.109 537.434 254.883C538.242 255.656 538.629 256.992 538.629 258.891V259.523H529.664V259.137C529.664 257.133 530.086 255.727 530.895 254.918ZM543.691 251.754L550.02 270H552.199L558.492 251.754H555.855L551.109 266.414L546.363 251.754H543.691ZM561.973 251.754V270H564.434V251.754H561.973ZM561.902 245.531V248.766H564.504V245.531H561.902ZM571.957 261.352H583.383V259.207C583.383 256.605 582.75 254.637 581.484 253.371C580.219 252.105 578.531 251.508 576.457 251.508C574.383 251.508 572.695 252.105 571.43 253.371C570.164 254.637 569.496 256.605 569.496 259.207V262.371C569.496 265.043 570.164 267.047 571.43 268.312C572.695 269.578 574.383 270.211 576.527 270.211C578.602 270.211 580.254 269.684 581.449 268.664C582.645 267.645 583.242 266.238 583.242 264.551V264.375H580.852V264.48C580.852 265.57 580.5 266.449 579.762 267.082C579.023 267.715 578.004 268.031 576.703 268.031C575.227 268.031 574.066 267.609 573.223 266.766C572.379 265.922 571.957 264.516 571.957 262.441V261.352ZM573.188 254.918C573.996 254.109 575.086 253.723 576.457 253.723C577.863 253.723 578.918 254.109 579.727 254.883C580.535 255.656 580.922 256.992 580.922 258.891V259.523H571.957V259.137C571.957 257.133 572.379 255.727 573.188 254.918ZM585.984 251.754L591.539 270H593.719L598.324 255.27L602.93 270H605.145L610.699 251.754H608.027L603.879 266.379L599.344 251.754H597.305L592.77 266.379L588.656 251.754H585.984ZM632.461 253.055C631.336 252.035 629.719 251.508 627.574 251.508C625.605 251.508 624.059 251.965 622.934 252.914C621.809 253.863 621.211 255.094 621.211 256.641V256.816H623.602V256.711C623.602 255.727 623.953 254.953 624.656 254.391C625.359 253.828 626.379 253.547 627.609 253.547C628.945 253.547 629.965 253.898 630.668 254.566C631.371 255.234 631.723 256.219 631.723 257.555V259.629H626.801C624.867 259.629 623.355 260.121 622.301 261.035C621.246 261.949 620.684 263.25 620.684 264.867C620.684 266.625 621.211 267.926 622.266 268.84C623.32 269.754 624.797 270.211 626.73 270.211C627.891 270.211 628.91 270.035 629.719 269.684C630.527 269.332 631.23 268.805 631.793 268.066V270H634.184V257.59C634.184 255.586 633.586 254.074 632.461 253.055ZM630.633 267.152C629.895 267.891 628.734 268.242 627.117 268.242C624.445 268.242 623.145 267.117 623.145 264.832C623.145 262.582 624.48 261.422 627.152 261.422H631.723V263.812C631.723 265.289 631.371 266.414 630.633 267.152ZM637.348 251.754L643.676 270H645.855L652.148 251.754H649.512L644.766 266.414L640.02 251.754H637.348ZM667.02 249.574C667.02 247.922 667.793 247.113 669.34 247.113H670.852V245.145H668.953C667.582 245.145 666.492 245.566 665.719 246.375C664.945 247.184 664.559 248.273 664.559 249.68V251.754H662.238V253.688H664.559V270H667.02V253.688H670.852V251.754H667.02V249.574ZM676.23 268.418C677.496 269.613 679.184 270.211 681.328 270.211C683.402 270.211 685.09 269.613 686.355 268.418C687.621 267.223 688.254 265.324 688.254 262.723V258.996C688.254 256.395 687.621 254.496 686.355 253.301C685.09 252.105 683.402 251.508 681.328 251.508C679.184 251.508 677.496 252.105 676.23 253.301C674.965 254.496 674.297 256.395 674.297 258.996V262.723C674.297 265.324 674.965 267.223 676.23 268.418ZM684.598 266.801C683.789 267.609 682.699 268.031 681.328 268.031C679.922 268.031 678.797 267.609 677.988 266.801C677.18 265.992 676.758 264.586 676.758 262.582V259.137C676.758 257.133 677.18 255.727 677.988 254.918C678.797 254.109 679.922 253.723 681.328 253.723C682.699 253.723 683.789 254.109 684.598 254.918C685.406 255.727 685.793 257.133 685.793 259.137V262.582C685.793 264.586 685.406 265.992 684.598 266.801ZM693.07 251.754V270H695.496V258.434C695.496 257.027 695.918 255.938 696.691 255.059C697.465 254.18 698.484 253.758 699.715 253.758C700.383 253.758 701.016 253.863 701.578 254.039V251.613C701.156 251.543 700.734 251.508 700.277 251.508C699.258 251.508 698.309 251.719 697.465 252.176C696.621 252.633 695.953 253.266 695.461 254.18V251.754H693.07ZM705.973 268.77C707.168 269.719 708.785 270.211 710.789 270.211C712.863 270.211 714.551 269.754 715.781 268.805C717.012 267.855 717.645 266.52 717.645 264.797C717.645 263.355 717.223 262.266 716.379 261.492C715.535 260.719 714.199 260.191 712.406 259.84L710.016 259.418C708.926 259.242 708.082 258.926 707.59 258.469C707.098 258.012 706.852 257.414 706.852 256.605C706.852 255.656 707.203 254.918 707.906 254.355C708.609 253.793 709.629 253.512 710.895 253.512C712.195 253.512 713.215 253.793 713.953 254.355C714.691 254.918 715.043 255.656 715.043 256.605V256.711H717.434V256.5C717.434 255.023 716.836 253.793 715.641 252.879C714.445 251.965 712.828 251.508 710.824 251.508C708.961 251.508 707.379 251.965 706.219 252.914C705.059 253.863 704.461 255.129 704.461 256.711C704.461 258.117 704.883 259.207 705.691 259.945C706.5 260.684 707.801 261.211 709.594 261.527L711.844 261.949C713.039 262.16 713.918 262.477 714.445 262.898C714.973 263.32 715.289 264.023 715.289 264.938C715.289 265.957 714.867 266.73 714.094 267.293C713.32 267.855 712.266 268.137 710.895 268.137C709.559 268.137 708.504 267.855 707.73 267.258C706.957 266.66 706.57 265.887 706.57 264.867V264.727H704.18V264.902C704.18 266.52 704.777 267.82 705.973 268.77ZM722.988 268.77C723.762 269.578 724.852 270 726.328 270H728.051V267.785H726.574C725.766 267.785 725.168 267.539 724.816 267.117C724.465 266.695 724.254 266.027 724.254 265.078V245.145H721.828V265.219C721.828 266.766 722.215 267.961 722.988 268.77ZM742.395 253.055C741.27 252.035 739.652 251.508 737.508 251.508C735.539 251.508 733.992 251.965 732.867 252.914C731.742 253.863 731.145 255.094 731.145 256.641V256.816H733.535V256.711C733.535 255.727 733.887 254.953 734.59 254.391C735.293 253.828 736.312 253.547 737.543 253.547C738.879 253.547 739.898 253.898 740.602 254.566C741.305 255.234 741.656 256.219 741.656 257.555V259.629H736.734C734.801 259.629 733.289 260.121 732.234 261.035C731.18 261.949 730.617 263.25 730.617 264.867C730.617 266.625 731.145 267.926 732.199 268.84C733.254 269.754 734.73 270.211 736.664 270.211C737.824 270.211 738.844 270.035 739.652 269.684C740.461 269.332 741.164 268.805 741.727 268.066V270H744.117V257.59C744.117 255.586 743.52 254.074 742.395 253.055ZM740.566 267.152C739.828 267.891 738.668 268.242 737.051 268.242C734.379 268.242 733.078 267.117 733.078 264.832C733.078 262.582 734.414 261.422 737.086 261.422H741.656V263.812C741.656 265.289 741.305 266.414 740.566 267.152ZM751.113 274.395C752.238 275.273 753.785 275.695 755.719 275.695C757.863 275.695 759.516 275.062 760.711 273.797C761.906 272.531 762.469 270.773 762.469 268.559V251.613H760.008V254.145C758.988 252.281 757.336 251.402 755.121 251.402C753.293 251.402 751.816 252 750.656 253.195C749.496 254.391 748.898 256.289 748.898 258.855V261.352C748.898 263.953 749.496 265.887 750.656 267.082C751.816 268.277 753.293 268.875 755.086 268.875C756.246 268.875 757.195 268.664 758.039 268.207C758.883 267.75 759.516 267.082 760.008 266.203V268.77C760.008 271.969 758.566 273.551 755.719 273.551C754.559 273.551 753.645 273.305 752.941 272.812C752.238 272.32 751.781 271.723 751.676 270.914H749.25C749.355 272.391 749.988 273.516 751.113 274.395ZM758.848 265.148C758.074 266.168 756.949 266.66 755.438 266.66C752.766 266.66 751.395 264.832 751.395 261.211V259.031C751.395 255.41 752.801 253.582 755.578 253.582C757.055 253.582 758.145 254.109 758.883 255.129C759.621 256.148 760.008 257.52 760.008 259.207V261.176C760.008 262.793 759.621 264.129 758.848 265.148Z" fill="black"/>
<path d="M1314.5 238.102L1320.09 249H1323.11L1317.27 237.855C1318.96 237.469 1320.23 236.695 1321.18 235.535C1322.12 234.375 1322.58 232.934 1322.58 231.141C1322.58 228.926 1321.91 227.168 1320.58 225.973C1319.24 224.777 1317.41 224.145 1315.09 224.145H1305.88V249H1308.52V238.102H1314.5ZM1308.52 235.816V226.535H1314.88C1316.5 226.535 1317.77 226.922 1318.64 227.695C1319.52 228.469 1319.95 229.629 1319.95 231.176C1319.95 232.652 1319.49 233.812 1318.61 234.621C1317.73 235.43 1316.5 235.816 1314.88 235.816H1308.52ZM1328.66 240.352H1340.09V238.207C1340.09 235.605 1339.46 233.637 1338.19 232.371C1336.93 231.105 1335.24 230.508 1333.16 230.508C1331.09 230.508 1329.4 231.105 1328.14 232.371C1326.87 233.637 1326.2 235.605 1326.2 238.207V241.371C1326.2 244.043 1326.87 246.047 1328.14 247.312C1329.4 248.578 1331.09 249.211 1333.23 249.211C1335.31 249.211 1336.96 248.684 1338.16 247.664C1339.35 246.645 1339.95 245.238 1339.95 243.551V243.375H1337.56V243.48C1337.56 244.57 1337.21 245.449 1336.47 246.082C1335.73 246.715 1334.71 247.031 1333.41 247.031C1331.93 247.031 1330.77 246.609 1329.93 245.766C1329.09 244.922 1328.66 243.516 1328.66 241.441V240.352ZM1329.89 233.918C1330.7 233.109 1331.79 232.723 1333.16 232.723C1334.57 232.723 1335.62 233.109 1336.43 233.883C1337.24 234.656 1337.63 235.992 1337.63 237.891V238.523H1328.66V238.137C1328.66 236.133 1329.09 234.727 1329.89 233.918ZM1342.69 230.754L1349.02 249H1351.2L1357.49 230.754H1354.86L1350.11 245.414L1345.36 230.754H1342.69ZM1360.97 230.754V249H1363.43V230.754H1360.97ZM1360.9 224.531V227.766H1363.5V224.531H1360.9ZM1370.96 240.352H1382.38V238.207C1382.38 235.605 1381.75 233.637 1380.48 232.371C1379.22 231.105 1377.53 230.508 1375.46 230.508C1373.38 230.508 1371.7 231.105 1370.43 232.371C1369.16 233.637 1368.5 235.605 1368.5 238.207V241.371C1368.5 244.043 1369.16 246.047 1370.43 247.312C1371.7 248.578 1373.38 249.211 1375.53 249.211C1377.6 249.211 1379.25 248.684 1380.45 247.664C1381.64 246.645 1382.24 245.238 1382.24 243.551V243.375H1379.85V243.48C1379.85 244.57 1379.5 245.449 1378.76 246.082C1378.02 246.715 1377 247.031 1375.7 247.031C1374.23 247.031 1373.07 246.609 1372.22 245.766C1371.38 244.922 1370.96 243.516 1370.96 241.441V240.352ZM1372.19 233.918C1373 233.109 1374.09 232.723 1375.46 232.723C1376.86 232.723 1377.92 233.109 1378.73 233.883C1379.54 234.656 1379.92 235.992 1379.92 237.891V238.523H1370.96V238.137C1370.96 236.133 1371.38 234.727 1372.19 233.918ZM1384.98 230.754L1390.54 249H1392.72L1397.32 234.27L1401.93 249H1404.14L1409.7 230.754H1407.03L1402.88 245.379L1398.34 230.754H1396.3L1391.77 245.379L1387.66 230.754H1384.98ZM1316.46 271.055C1315.34 270.035 1313.72 269.508 1311.58 269.508C1309.61 269.508 1308.06 269.965 1306.94 270.914C1305.81 271.863 1305.21 273.094 1305.21 274.641V274.816H1307.61V274.711C1307.61 273.727 1307.96 272.953 1308.66 272.391C1309.36 271.828 1310.38 271.547 1311.61 271.547C1312.95 271.547 1313.97 271.898 1314.67 272.566C1315.38 273.234 1315.73 274.219 1315.73 275.555V277.629H1310.8C1308.87 277.629 1307.36 278.121 1306.3 279.035C1305.25 279.949 1304.69 281.25 1304.69 282.867C1304.69 284.625 1305.21 285.926 1306.27 286.84C1307.32 287.754 1308.8 288.211 1310.73 288.211C1311.89 288.211 1312.91 288.035 1313.72 287.684C1314.53 287.332 1315.23 286.805 1315.8 286.066V288H1318.19V275.59C1318.19 273.586 1317.59 272.074 1316.46 271.055ZM1314.64 285.152C1313.9 285.891 1312.74 286.242 1311.12 286.242C1308.45 286.242 1307.15 285.117 1307.15 282.832C1307.15 280.582 1308.48 279.422 1311.16 279.422H1315.73V281.812C1315.73 283.289 1315.38 284.414 1314.64 285.152ZM1321.35 269.754L1327.68 288H1329.86L1336.15 269.754H1333.52L1328.77 284.414L1324.02 269.754H1321.35ZM1353.03 278.543L1358.55 288H1361.54L1354.64 276.645L1360.52 269.754H1357.56L1349.58 279.457V263.145H1347.16V288H1349.58V282.551L1353.03 278.543ZM1366.25 286.418C1367.51 287.613 1369.2 288.211 1371.34 288.211C1373.42 288.211 1375.11 287.613 1376.37 286.418C1377.64 285.223 1378.27 283.324 1378.27 280.723V276.996C1378.27 274.395 1377.64 272.496 1376.37 271.301C1375.11 270.105 1373.42 269.508 1371.34 269.508C1369.2 269.508 1367.51 270.105 1366.25 271.301C1364.98 272.496 1364.31 274.395 1364.31 276.996V280.723C1364.31 283.324 1364.98 285.223 1366.25 286.418ZM1374.61 284.801C1373.8 285.609 1372.71 286.031 1371.34 286.031C1369.94 286.031 1368.81 285.609 1368 284.801C1367.2 283.992 1366.77 282.586 1366.77 280.582V277.137C1366.77 275.133 1367.2 273.727 1368 272.918C1368.81 272.109 1369.94 271.723 1371.34 271.723C1372.71 271.723 1373.8 272.109 1374.61 272.918C1375.42 273.727 1375.81 275.133 1375.81 277.137V280.582C1375.81 282.586 1375.42 283.992 1374.61 284.801ZM1383.09 269.754V288H1385.51V276.363C1385.51 274.887 1385.93 273.727 1386.71 272.918C1387.48 272.109 1388.5 271.723 1389.8 271.723C1391.14 271.723 1392.16 272.109 1392.89 272.918C1393.63 273.727 1393.98 274.852 1393.98 276.363V288H1396.48V276.258C1396.48 274.852 1396.83 273.727 1397.61 272.918C1398.38 272.109 1399.43 271.723 1400.77 271.723C1402.11 271.723 1403.09 272.109 1403.83 272.918C1404.57 273.727 1404.92 274.852 1404.92 276.363V288H1407.38V276.012C1407.38 273.973 1406.85 272.355 1405.76 271.23C1404.67 270.105 1403.16 269.543 1401.23 269.543C1398.73 269.543 1396.87 270.562 1395.67 272.602C1395.18 271.617 1394.51 270.844 1393.63 270.316C1392.75 269.789 1391.66 269.543 1390.43 269.543C1389.38 269.543 1388.39 269.754 1387.55 270.176C1386.71 270.598 1386 271.16 1385.48 271.969V269.754H1383.09ZM1412.76 269.754V293.484H1415.18V285.574C1416.2 287.332 1417.86 288.211 1420.14 288.211C1421.93 288.211 1423.41 287.613 1424.57 286.418C1425.73 285.223 1426.29 283.324 1426.29 280.723V276.996C1426.29 274.43 1425.7 272.531 1424.54 271.336C1423.38 270.141 1421.83 269.543 1419.96 269.543C1418.91 269.543 1417.96 269.789 1417.15 270.246C1416.34 270.703 1415.68 271.406 1415.18 272.32V269.754H1412.76ZM1423.83 280.582C1423.83 284.203 1422.46 286.031 1419.75 286.031C1418.28 286.031 1417.15 285.504 1416.38 284.484C1415.61 283.465 1415.18 282.164 1415.18 280.547V277.348C1415.18 275.66 1415.57 274.289 1416.31 273.27C1417.05 272.25 1418.14 271.723 1419.61 271.723C1422.43 271.723 1423.83 273.551 1423.83 277.172V280.582ZM1432.45 286.418C1433.71 287.613 1435.4 288.211 1437.54 288.211C1439.62 288.211 1441.3 287.613 1442.57 286.418C1443.84 285.223 1444.47 283.324 1444.47 280.723V276.996C1444.47 274.395 1443.84 272.496 1442.57 271.301C1441.3 270.105 1439.62 269.508 1437.54 269.508C1435.4 269.508 1433.71 270.105 1432.45 271.301C1431.18 272.496 1430.51 274.395 1430.51 276.996V280.723C1430.51 283.324 1431.18 285.223 1432.45 286.418ZM1440.81 284.801C1440 285.609 1438.91 286.031 1437.54 286.031C1436.14 286.031 1435.01 285.609 1434.2 284.801C1433.39 283.992 1432.97 282.586 1432.97 280.582V277.137C1432.97 275.133 1433.39 273.727 1434.2 272.918C1435.01 272.109 1436.14 271.723 1437.54 271.723C1438.91 271.723 1440 272.109 1440.81 272.918C1441.62 273.727 1442.01 275.133 1442.01 277.137V280.582C1442.01 282.586 1441.62 283.992 1440.81 284.801ZM1449.29 269.754V288H1451.71V276.363C1451.71 274.887 1452.13 273.727 1452.91 272.918C1453.68 272.109 1454.7 271.723 1456 271.723C1457.34 271.723 1458.36 272.109 1459.09 272.918C1459.83 273.727 1460.22 274.852 1460.22 276.363V288H1462.68V276.012C1462.68 273.973 1462.15 272.355 1461.1 271.23C1460.04 270.105 1458.57 269.543 1456.63 269.543C1455.58 269.543 1454.59 269.719 1453.75 270.141C1452.91 270.562 1452.2 271.16 1451.68 271.969V269.754H1449.29ZM1469.92 279.352H1481.35V277.207C1481.35 274.605 1480.71 272.637 1479.45 271.371C1478.18 270.105 1476.5 269.508 1474.42 269.508C1472.35 269.508 1470.66 270.105 1469.39 271.371C1468.13 272.637 1467.46 274.605 1467.46 277.207V280.371C1467.46 283.043 1468.13 285.047 1469.39 286.312C1470.66 287.578 1472.35 288.211 1474.49 288.211C1476.57 288.211 1478.22 287.684 1479.41 286.664C1480.61 285.645 1481.21 284.238 1481.21 282.551V282.375H1478.82V282.48C1478.82 283.57 1478.46 284.449 1477.73 285.082C1476.99 285.715 1475.97 286.031 1474.67 286.031C1473.19 286.031 1472.03 285.609 1471.19 284.766C1470.34 283.922 1469.92 282.516 1469.92 280.441V279.352ZM1471.15 272.918C1471.96 272.109 1473.05 271.723 1474.42 271.723C1475.83 271.723 1476.88 272.109 1477.69 272.883C1478.5 273.656 1478.89 274.992 1478.89 276.891V277.523H1469.92V277.137C1469.92 275.133 1470.34 273.727 1471.15 272.918ZM1486.16 269.754V288H1488.59V276.363C1488.59 274.887 1489.01 273.727 1489.79 272.918C1490.56 272.109 1491.58 271.723 1492.88 271.723C1494.21 271.723 1495.23 272.109 1495.97 272.918C1496.71 273.727 1497.1 274.852 1497.1 276.363V288H1499.56V276.012C1499.56 273.973 1499.03 272.355 1497.98 271.23C1496.92 270.105 1495.45 269.543 1493.51 269.543C1492.46 269.543 1491.47 269.719 1490.63 270.141C1489.79 270.562 1489.08 271.16 1488.55 271.969V269.754H1486.16ZM1508.77 271.688H1512.88V269.754H1508.77V264.41L1506.31 265.57V269.754H1503.46V271.688H1506.31V283.465C1506.31 284.871 1506.7 285.996 1507.47 286.805C1508.24 287.613 1509.33 288 1510.74 288H1512.57V285.855H1511.12C1509.58 285.855 1508.77 285.012 1508.77 283.359V271.688Z" fill="black"/>
<path d="M1724.99 225.145H1722.35V245.113L1709.52 225.145H1706.88V250H1709.52V229.996L1722.35 250H1724.99V225.145ZM1743.13 231.754H1740.56L1735.78 246.273L1731 231.754H1728.33L1734.62 249.824L1734.23 250.949C1733.95 251.758 1733.6 252.355 1733.14 252.707C1732.69 253.059 1732.02 253.234 1731.14 253.234H1730.26V255.484H1731.32C1732.55 255.484 1733.57 255.203 1734.34 254.641C1735.11 254.078 1735.71 253.199 1736.13 251.969L1743.13 231.754ZM1760 240.543L1765.52 250H1768.51L1761.62 238.645L1767.49 231.754H1764.54L1756.56 241.457V225.145H1754.13V250H1756.56V244.551L1760 240.543ZM1773.22 248.418C1774.49 249.613 1776.18 250.211 1778.32 250.211C1780.39 250.211 1782.08 249.613 1783.35 248.418C1784.61 247.223 1785.25 245.324 1785.25 242.723V238.996C1785.25 236.395 1784.61 234.496 1783.35 233.301C1782.08 232.105 1780.39 231.508 1778.32 231.508C1776.18 231.508 1774.49 232.105 1773.22 233.301C1771.96 234.496 1771.29 236.395 1771.29 238.996V242.723C1771.29 245.324 1771.96 247.223 1773.22 248.418ZM1781.59 246.801C1780.78 247.609 1779.69 248.031 1778.32 248.031C1776.91 248.031 1775.79 247.609 1774.98 246.801C1774.17 245.992 1773.75 244.586 1773.75 242.582V239.137C1773.75 237.133 1774.17 235.727 1774.98 234.918C1775.79 234.109 1776.91 233.723 1778.32 233.723C1779.69 233.723 1780.78 234.109 1781.59 234.918C1782.4 235.727 1782.79 237.133 1782.79 239.137V242.582C1782.79 244.586 1782.4 245.992 1781.59 246.801ZM1790.06 231.754V250H1792.49V238.363C1792.49 236.887 1792.91 235.727 1793.68 234.918C1794.46 234.109 1795.48 233.723 1796.78 233.723C1798.11 233.723 1799.13 234.109 1799.87 234.918C1800.61 235.727 1800.96 236.852 1800.96 238.363V250H1803.46V238.258C1803.46 236.852 1803.81 235.727 1804.58 234.918C1805.36 234.109 1806.41 233.723 1807.75 233.723C1809.08 233.723 1810.07 234.109 1810.8 234.918C1811.54 235.727 1811.89 236.852 1811.89 238.363V250H1814.36V238.012C1814.36 235.973 1813.83 234.355 1812.74 233.23C1811.65 232.105 1810.14 231.543 1808.2 231.543C1805.71 231.543 1803.84 232.562 1802.65 234.602C1802.16 233.617 1801.49 232.844 1800.61 232.316C1799.73 231.789 1798.64 231.543 1797.41 231.543C1796.36 231.543 1795.37 231.754 1794.53 232.176C1793.68 232.598 1792.98 233.16 1792.45 233.969V231.754H1790.06ZM1819.73 231.754V255.484H1822.16V247.574C1823.18 249.332 1824.83 250.211 1827.12 250.211C1828.91 250.211 1830.39 249.613 1831.55 248.418C1832.71 247.223 1833.27 245.324 1833.27 242.723V238.996C1833.27 236.43 1832.67 234.531 1831.51 233.336C1830.35 232.141 1828.8 231.543 1826.94 231.543C1825.89 231.543 1824.94 231.789 1824.13 232.246C1823.32 232.703 1822.65 233.406 1822.16 234.32V231.754H1819.73ZM1830.81 242.582C1830.81 246.203 1829.44 248.031 1826.73 248.031C1825.25 248.031 1824.13 247.504 1823.36 246.484C1822.58 245.465 1822.16 244.164 1822.16 242.547V239.348C1822.16 237.66 1822.55 236.289 1823.29 235.27C1824.02 234.25 1825.11 233.723 1826.59 233.723C1829.4 233.723 1830.81 235.551 1830.81 239.172V242.582ZM1839.42 248.418C1840.69 249.613 1842.38 250.211 1844.52 250.211C1846.59 250.211 1848.28 249.613 1849.55 248.418C1850.81 247.223 1851.45 245.324 1851.45 242.723V238.996C1851.45 236.395 1850.81 234.496 1849.55 233.301C1848.28 232.105 1846.59 231.508 1844.52 231.508C1842.38 231.508 1840.69 232.105 1839.42 233.301C1838.16 234.496 1837.49 236.395 1837.49 238.996V242.723C1837.49 245.324 1838.16 247.223 1839.42 248.418ZM1847.79 246.801C1846.98 247.609 1845.89 248.031 1844.52 248.031C1843.11 248.031 1841.99 247.609 1841.18 246.801C1840.37 245.992 1839.95 244.586 1839.95 242.582V239.137C1839.95 237.133 1840.37 235.727 1841.18 234.918C1841.99 234.109 1843.11 233.723 1844.52 233.723C1845.89 233.723 1846.98 234.109 1847.79 234.918C1848.6 235.727 1848.98 237.133 1848.98 239.137V242.582C1848.98 244.586 1848.6 245.992 1847.79 246.801ZM1856.26 231.754V250H1858.69V238.363C1858.69 236.887 1859.11 235.727 1859.88 234.918C1860.66 234.109 1861.68 233.723 1862.98 233.723C1864.31 233.723 1865.33 234.109 1866.07 234.918C1866.81 235.727 1867.2 236.852 1867.2 238.363V250H1869.66V238.012C1869.66 235.973 1869.13 234.355 1868.07 233.23C1867.02 232.105 1865.54 231.543 1863.61 231.543C1862.55 231.543 1861.57 231.719 1860.73 232.141C1859.88 232.562 1859.18 233.16 1858.65 233.969V231.754H1856.26ZM1876.9 241.352H1888.32V239.207C1888.32 236.605 1887.69 234.637 1886.43 233.371C1885.16 232.105 1883.47 231.508 1881.4 231.508C1879.32 231.508 1877.64 232.105 1876.37 233.371C1875.11 234.637 1874.44 236.605 1874.44 239.207V242.371C1874.44 245.043 1875.11 247.047 1876.37 248.312C1877.64 249.578 1879.32 250.211 1881.47 250.211C1883.54 250.211 1885.2 249.684 1886.39 248.664C1887.59 247.645 1888.18 246.238 1888.18 244.551V244.375H1885.79V244.48C1885.79 245.57 1885.44 246.449 1884.7 247.082C1883.96 247.715 1882.95 248.031 1881.64 248.031C1880.17 248.031 1879.01 247.609 1878.16 246.766C1877.32 245.922 1876.9 244.516 1876.9 242.441V241.352ZM1878.13 234.918C1878.94 234.109 1880.03 233.723 1881.4 233.723C1882.8 233.723 1883.86 234.109 1884.67 234.883C1885.48 235.656 1885.86 236.992 1885.86 238.891V239.523H1876.9V239.137C1876.9 237.133 1877.32 235.727 1878.13 234.918ZM1893.14 231.754V250H1895.57V238.363C1895.57 236.887 1895.99 235.727 1896.76 234.918C1897.54 234.109 1898.55 233.723 1899.86 233.723C1901.19 233.723 1902.21 234.109 1902.95 234.918C1903.69 235.727 1904.07 236.852 1904.07 238.363V250H1906.54V238.012C1906.54 235.973 1906.01 234.355 1904.95 233.23C1903.9 232.105 1902.42 231.543 1900.49 231.543C1899.43 231.543 1898.45 231.719 1897.61 232.141C1896.76 232.562 1896.06 233.16 1895.53 233.969V231.754H1893.14ZM1915.75 233.688H1919.86V231.754H1915.75V226.41L1913.29 227.57V231.754H1910.44V233.688H1913.29V245.465C1913.29 246.871 1913.67 247.996 1914.45 248.805C1915.22 249.613 1916.31 250 1917.71 250H1919.54V247.855H1918.1C1916.55 247.855 1915.75 247.012 1915.75 245.359V233.688Z" fill="black"/>
<path d="M889.889 193.297C890.973 193.883 892.203 194.176 893.551 194.176C894.898 194.176 896.129 193.883 897.213 193.297C898.297 192.711 899.117 191.92 899.732 190.865C900.348 189.811 900.641 188.609 900.641 187.262V173.287H898.473V187.057C898.473 188.639 898.004 189.898 897.096 190.836C896.188 191.773 895.045 192.242 893.551 192.242C892.057 192.242 890.826 191.773 889.947 190.836C889.068 189.898 888.629 188.639 888.629 187.057V173.287H886.402V187.262C886.402 188.609 886.725 189.781 887.34 190.836C887.955 191.891 888.805 192.711 889.889 193.297ZM908.492 180.406H911.92V178.795H908.492V174.342L906.441 175.309V178.795H904.068V180.406H906.441V190.221C906.441 191.393 906.764 192.33 907.408 193.004C908.053 193.678 908.961 194 910.133 194H911.656V192.213H910.455C909.166 192.213 908.492 191.51 908.492 190.133V180.406ZM913.648 178.795L918.922 194H920.738L925.982 178.795H923.785L919.83 191.012L915.875 178.795H913.648ZM928.883 178.795V194H930.934V178.795H928.883ZM928.824 173.609V176.305H930.992V173.609H928.824ZM940.543 186.119L945.143 194H947.633L941.891 184.537L946.783 178.795H944.322L937.672 186.881V173.287H935.65V194H937.672V189.459L940.543 186.119ZM951.412 192.975C952.057 193.648 952.965 194 954.195 194H955.631V192.154H954.4C953.727 192.154 953.229 191.949 952.936 191.598C952.643 191.246 952.467 190.689 952.467 189.898V173.287H950.445V190.016C950.445 191.305 950.768 192.301 951.412 192.975ZM960.172 186.793H969.693V185.006C969.693 182.838 969.166 181.197 968.111 180.143C967.057 179.088 965.65 178.59 963.922 178.59C962.193 178.59 960.787 179.088 959.732 180.143C958.678 181.197 958.121 182.838 958.121 185.006V187.643C958.121 189.869 958.678 191.539 959.732 192.594C960.787 193.648 962.193 194.176 963.98 194.176C965.709 194.176 967.086 193.736 968.082 192.887C969.078 192.037 969.576 190.865 969.576 189.459V189.312H967.584V189.4C967.584 190.309 967.291 191.041 966.676 191.568C966.061 192.096 965.211 192.359 964.127 192.359C962.896 192.359 961.93 192.008 961.227 191.305C960.523 190.602 960.172 189.43 960.172 187.701V186.793ZM961.197 181.432C961.871 180.758 962.779 180.436 963.922 180.436C965.094 180.436 965.973 180.758 966.646 181.402C967.32 182.047 967.643 183.16 967.643 184.742V185.27H960.172V184.947C960.172 183.277 960.523 182.105 961.197 181.432ZM985.104 186.119L989.703 194H992.193L986.451 184.537L991.344 178.795H988.883L982.232 186.881V173.287H980.211V194H982.232V189.459L985.104 186.119ZM996.119 192.682C997.174 193.678 998.58 194.176 1000.37 194.176C1002.1 194.176 1003.5 193.678 1004.56 192.682C1005.61 191.686 1006.14 190.104 1006.14 187.936V184.83C1006.14 182.662 1005.61 181.08 1004.56 180.084C1003.5 179.088 1002.1 178.59 1000.37 178.59C998.58 178.59 997.174 179.088 996.119 180.084C995.064 181.08 994.508 182.662 994.508 184.83V187.936C994.508 190.104 995.064 191.686 996.119 192.682ZM1003.09 191.334C1002.42 192.008 1001.51 192.359 1000.37 192.359C999.195 192.359 998.258 192.008 997.584 191.334C996.91 190.66 996.559 189.488 996.559 187.818V184.947C996.559 183.277 996.91 182.105 997.584 181.432C998.258 180.758 999.195 180.436 1000.37 180.436C1001.51 180.436 1002.42 180.758 1003.09 181.432C1003.77 182.105 1004.09 183.277 1004.09 184.947V187.818C1004.09 189.488 1003.77 190.66 1003.09 191.334ZM1010.15 178.795V194H1012.17V184.303C1012.17 183.072 1012.53 182.105 1013.17 181.432C1013.81 180.758 1014.66 180.436 1015.75 180.436C1016.86 180.436 1017.71 180.758 1018.33 181.432C1018.94 182.105 1019.23 183.043 1019.23 184.303V194H1021.31V184.215C1021.31 183.043 1021.61 182.105 1022.25 181.432C1022.9 180.758 1023.78 180.436 1024.89 180.436C1026 180.436 1026.82 180.758 1027.44 181.432C1028.05 182.105 1028.35 183.043 1028.35 184.303V194H1030.4V184.01C1030.4 182.311 1029.96 180.963 1029.05 180.025C1028.14 179.088 1026.88 178.619 1025.27 178.619C1023.19 178.619 1021.64 179.469 1020.64 181.168C1020.23 180.348 1019.67 179.703 1018.94 179.264C1018.21 178.824 1017.3 178.619 1016.28 178.619C1015.4 178.619 1014.58 178.795 1013.87 179.146C1013.17 179.498 1012.58 179.967 1012.14 180.641V178.795H1010.15ZM1034.88 178.795V198.57H1036.9V191.979C1037.75 193.443 1039.13 194.176 1041.03 194.176C1042.53 194.176 1043.76 193.678 1044.72 192.682C1045.69 191.686 1046.16 190.104 1046.16 187.936V184.83C1046.16 182.691 1045.66 181.109 1044.69 180.113C1043.73 179.117 1042.44 178.619 1040.88 178.619C1040.01 178.619 1039.21 178.824 1038.54 179.205C1037.87 179.586 1037.31 180.172 1036.9 180.934V178.795H1034.88ZM1044.11 187.818C1044.11 190.836 1042.96 192.359 1040.71 192.359C1039.48 192.359 1038.54 191.92 1037.9 191.07C1037.25 190.221 1036.9 189.137 1036.9 187.789V185.123C1036.9 183.717 1037.22 182.574 1037.84 181.725C1038.45 180.875 1039.36 180.436 1040.59 180.436C1042.94 180.436 1044.11 181.959 1044.11 184.977V187.818ZM1051.29 192.682C1052.34 193.678 1053.75 194.176 1055.53 194.176C1057.26 194.176 1058.67 193.678 1059.72 192.682C1060.78 191.686 1061.3 190.104 1061.3 187.936V184.83C1061.3 182.662 1060.78 181.08 1059.72 180.084C1058.67 179.088 1057.26 178.59 1055.53 178.59C1053.75 178.59 1052.34 179.088 1051.29 180.084C1050.23 181.08 1049.67 182.662 1049.67 184.83V187.936C1049.67 190.104 1050.23 191.686 1051.29 192.682ZM1058.26 191.334C1057.58 192.008 1056.68 192.359 1055.53 192.359C1054.36 192.359 1053.42 192.008 1052.75 191.334C1052.08 190.66 1051.72 189.488 1051.72 187.818V184.947C1051.72 183.277 1052.08 182.105 1052.75 181.432C1053.42 180.758 1054.36 180.436 1055.53 180.436C1056.68 180.436 1057.58 180.758 1058.26 181.432C1058.93 182.105 1059.25 183.277 1059.25 184.947V187.818C1059.25 189.488 1058.93 190.66 1058.26 191.334ZM1065.32 178.795V194H1067.34V184.303C1067.34 183.072 1067.69 182.105 1068.34 181.432C1068.98 180.758 1069.83 180.436 1070.91 180.436C1072.03 180.436 1072.88 180.758 1073.49 181.432C1074.11 182.105 1074.43 183.043 1074.43 184.303V194H1076.48V184.01C1076.48 182.311 1076.04 180.963 1075.16 180.025C1074.28 179.088 1073.05 178.619 1071.44 178.619C1070.56 178.619 1069.74 178.766 1069.04 179.117C1068.34 179.469 1067.75 179.967 1067.31 180.641V178.795H1065.32ZM1082.52 186.793H1092.04V185.006C1092.04 182.838 1091.51 181.197 1090.46 180.143C1089.4 179.088 1087.99 178.59 1086.27 178.59C1084.54 178.59 1083.13 179.088 1082.08 180.143C1081.02 181.197 1080.46 182.838 1080.46 185.006V187.643C1080.46 189.869 1081.02 191.539 1082.08 192.594C1083.13 193.648 1084.54 194.176 1086.32 194.176C1088.05 194.176 1089.43 193.736 1090.43 192.887C1091.42 192.037 1091.92 190.865 1091.92 189.459V189.312H1089.93V189.4C1089.93 190.309 1089.63 191.041 1089.02 191.568C1088.4 192.096 1087.55 192.359 1086.47 192.359C1085.24 192.359 1084.27 192.008 1083.57 191.305C1082.87 190.602 1082.52 189.43 1082.52 187.701V186.793ZM1083.54 181.432C1084.21 180.758 1085.12 180.436 1086.27 180.436C1087.44 180.436 1088.32 180.758 1088.99 181.402C1089.66 182.047 1089.99 183.16 1089.99 184.742V185.27H1082.52V184.947C1082.52 183.277 1082.87 182.105 1083.54 181.432ZM1096.05 178.795V194H1098.07V184.303C1098.07 183.072 1098.42 182.105 1099.07 181.432C1099.71 180.758 1100.56 180.436 1101.65 180.436C1102.76 180.436 1103.61 180.758 1104.22 181.432C1104.84 182.105 1105.16 183.043 1105.16 184.303V194H1107.21V184.01C1107.21 182.311 1106.77 180.963 1105.89 180.025C1105.02 179.088 1103.79 178.619 1102.17 178.619C1101.29 178.619 1100.47 178.766 1099.77 179.117C1099.07 179.469 1098.48 179.967 1098.04 180.641V178.795H1096.05ZM1114.89 180.406H1118.32V178.795H1114.89V174.342L1112.84 175.309V178.795H1110.46V180.406H1112.84V190.221C1112.84 191.393 1113.16 192.33 1113.8 193.004C1114.45 193.678 1115.36 194 1116.53 194H1118.05V192.213H1116.85C1115.56 192.213 1114.89 191.51 1114.89 190.133V180.406Z" fill="black"/>
<path d="M889.889 334.297C890.973 334.883 892.203 335.176 893.551 335.176C894.898 335.176 896.129 334.883 897.213 334.297C898.297 333.711 899.117 332.92 899.732 331.865C900.348 330.811 900.641 329.609 900.641 328.262V314.287H898.473V328.057C898.473 329.639 898.004 330.898 897.096 331.836C896.188 332.773 895.045 333.242 893.551 333.242C892.057 333.242 890.826 332.773 889.947 331.836C889.068 330.898 888.629 329.639 888.629 328.057V314.287H886.402V328.262C886.402 329.609 886.725 330.781 887.34 331.836C887.955 332.891 888.805 333.711 889.889 334.297ZM908.492 321.406H911.92V319.795H908.492V315.342L906.441 316.309V319.795H904.068V321.406H906.441V331.221C906.441 332.393 906.764 333.33 907.408 334.004C908.053 334.678 908.961 335 910.133 335H911.656V333.213H910.455C909.166 333.213 908.492 332.51 908.492 331.133V321.406ZM913.648 319.795L918.922 335H920.738L925.982 319.795H923.785L919.83 332.012L915.875 319.795H913.648ZM928.883 319.795V335H930.934V319.795H928.883ZM928.824 314.609V317.305H930.992V314.609H928.824ZM940.543 327.119L945.143 335H947.633L941.891 325.537L946.783 319.795H944.322L937.672 327.881V314.287H935.65V335H937.672V330.459L940.543 327.119ZM951.412 333.975C952.057 334.648 952.965 335 954.195 335H955.631V333.154H954.4C953.727 333.154 953.229 332.949 952.936 332.598C952.643 332.246 952.467 331.689 952.467 330.898V314.287H950.445V331.016C950.445 332.305 950.768 333.301 951.412 333.975ZM960.172 327.793H969.693V326.006C969.693 323.838 969.166 322.197 968.111 321.143C967.057 320.088 965.65 319.59 963.922 319.59C962.193 319.59 960.787 320.088 959.732 321.143C958.678 322.197 958.121 323.838 958.121 326.006V328.643C958.121 330.869 958.678 332.539 959.732 333.594C960.787 334.648 962.193 335.176 963.98 335.176C965.709 335.176 967.086 334.736 968.082 333.887C969.078 333.037 969.576 331.865 969.576 330.459V330.312H967.584V330.4C967.584 331.309 967.291 332.041 966.676 332.568C966.061 333.096 965.211 333.359 964.127 333.359C962.896 333.359 961.93 333.008 961.227 332.305C960.523 331.602 960.172 330.43 960.172 328.701V327.793ZM961.197 322.432C961.871 321.758 962.779 321.436 963.922 321.436C965.094 321.436 965.973 321.758 966.646 322.402C967.32 323.047 967.643 324.16 967.643 325.742V326.27H960.172V325.947C960.172 324.277 960.523 323.105 961.197 322.432ZM985.104 327.119L989.703 335H992.193L986.451 325.537L991.344 319.795H988.883L982.232 327.881V314.287H980.211V335H982.232V330.459L985.104 327.119ZM996.119 333.682C997.174 334.678 998.58 335.176 1000.37 335.176C1002.1 335.176 1003.5 334.678 1004.56 333.682C1005.61 332.686 1006.14 331.104 1006.14 328.936V325.83C1006.14 323.662 1005.61 322.08 1004.56 321.084C1003.5 320.088 1002.1 319.59 1000.37 319.59C998.58 319.59 997.174 320.088 996.119 321.084C995.064 322.08 994.508 323.662 994.508 325.83V328.936C994.508 331.104 995.064 332.686 996.119 333.682ZM1003.09 332.334C1002.42 333.008 1001.51 333.359 1000.37 333.359C999.195 333.359 998.258 333.008 997.584 332.334C996.91 331.66 996.559 330.488 996.559 328.818V325.947C996.559 324.277 996.91 323.105 997.584 322.432C998.258 321.758 999.195 321.436 1000.37 321.436C1001.51 321.436 1002.42 321.758 1003.09 322.432C1003.77 323.105 1004.09 324.277 1004.09 325.947V328.818C1004.09 330.488 1003.77 331.66 1003.09 332.334ZM1010.15 319.795V335H1012.17V325.303C1012.17 324.072 1012.53 323.105 1013.17 322.432C1013.81 321.758 1014.66 321.436 1015.75 321.436C1016.86 321.436 1017.71 321.758 1018.33 322.432C1018.94 323.105 1019.23 324.043 1019.23 325.303V335H1021.31V325.215C1021.31 324.043 1021.61 323.105 1022.25 322.432C1022.9 321.758 1023.78 321.436 1024.89 321.436C1026 321.436 1026.82 321.758 1027.44 322.432C1028.05 323.105 1028.35 324.043 1028.35 325.303V335H1030.4V325.01C1030.4 323.311 1029.96 321.963 1029.05 321.025C1028.14 320.088 1026.88 319.619 1025.27 319.619C1023.19 319.619 1021.64 320.469 1020.64 322.168C1020.23 321.348 1019.67 320.703 1018.94 320.264C1018.21 319.824 1017.3 319.619 1016.28 319.619C1015.4 319.619 1014.58 319.795 1013.87 320.146C1013.17 320.498 1012.58 320.967 1012.14 321.641V319.795H1010.15ZM1034.88 319.795V339.57H1036.9V332.979C1037.75 334.443 1039.13 335.176 1041.03 335.176C1042.53 335.176 1043.76 334.678 1044.72 333.682C1045.69 332.686 1046.16 331.104 1046.16 328.936V325.83C1046.16 323.691 1045.66 322.109 1044.69 321.113C1043.73 320.117 1042.44 319.619 1040.88 319.619C1040.01 319.619 1039.21 319.824 1038.54 320.205C1037.87 320.586 1037.31 321.172 1036.9 321.934V319.795H1034.88ZM1044.11 328.818C1044.11 331.836 1042.96 333.359 1040.71 333.359C1039.48 333.359 1038.54 332.92 1037.9 332.07C1037.25 331.221 1036.9 330.137 1036.9 328.789V326.123C1036.9 324.717 1037.22 323.574 1037.84 322.725C1038.45 321.875 1039.36 321.436 1040.59 321.436C1042.94 321.436 1044.11 322.959 1044.11 325.977V328.818ZM1051.29 333.682C1052.34 334.678 1053.75 335.176 1055.53 335.176C1057.26 335.176 1058.67 334.678 1059.72 333.682C1060.78 332.686 1061.3 331.104 1061.3 328.936V325.83C1061.3 323.662 1060.78 322.08 1059.72 321.084C1058.67 320.088 1057.26 319.59 1055.53 319.59C1053.75 319.59 1052.34 320.088 1051.29 321.084C1050.23 322.08 1049.67 323.662 1049.67 325.83V328.936C1049.67 331.104 1050.23 332.686 1051.29 333.682ZM1058.26 332.334C1057.58 333.008 1056.68 333.359 1055.53 333.359C1054.36 333.359 1053.42 333.008 1052.75 332.334C1052.08 331.66 1051.72 330.488 1051.72 328.818V325.947C1051.72 324.277 1052.08 323.105 1052.75 322.432C1053.42 321.758 1054.36 321.436 1055.53 321.436C1056.68 321.436 1057.58 321.758 1058.26 322.432C1058.93 323.105 1059.25 324.277 1059.25 325.947V328.818C1059.25 330.488 1058.93 331.66 1058.26 332.334ZM1065.32 319.795V335H1067.34V325.303C1067.34 324.072 1067.69 323.105 1068.34 322.432C1068.98 321.758 1069.83 321.436 1070.91 321.436C1072.03 321.436 1072.88 321.758 1073.49 322.432C1074.11 323.105 1074.43 324.043 1074.43 325.303V335H1076.48V325.01C1076.48 323.311 1076.04 321.963 1075.16 321.025C1074.28 320.088 1073.05 319.619 1071.44 319.619C1070.56 319.619 1069.74 319.766 1069.04 320.117C1068.34 320.469 1067.75 320.967 1067.31 321.641V319.795H1065.32ZM1082.52 327.793H1092.04V326.006C1092.04 323.838 1091.51 322.197 1090.46 321.143C1089.4 320.088 1087.99 319.59 1086.27 319.59C1084.54 319.59 1083.13 320.088 1082.08 321.143C1081.02 322.197 1080.46 323.838 1080.46 326.006V328.643C1080.46 330.869 1081.02 332.539 1082.08 333.594C1083.13 334.648 1084.54 335.176 1086.32 335.176C1088.05 335.176 1089.43 334.736 1090.43 333.887C1091.42 333.037 1091.92 331.865 1091.92 330.459V330.312H1089.93V330.4C1089.93 331.309 1089.63 332.041 1089.02 332.568C1088.4 333.096 1087.55 333.359 1086.47 333.359C1085.24 333.359 1084.27 333.008 1083.57 332.305C1082.87 331.602 1082.52 330.43 1082.52 328.701V327.793ZM1083.54 322.432C1084.21 321.758 1085.12 321.436 1086.27 321.436C1087.44 321.436 1088.32 321.758 1088.99 322.402C1089.66 323.047 1089.99 324.16 1089.99 325.742V326.27H1082.52V325.947C1082.52 324.277 1082.87 323.105 1083.54 322.432ZM1096.05 319.795V335H1098.07V325.303C1098.07 324.072 1098.42 323.105 1099.07 322.432C1099.71 321.758 1100.56 321.436 1101.65 321.436C1102.76 321.436 1103.61 321.758 1104.22 322.432C1104.84 323.105 1105.16 324.043 1105.16 325.303V335H1107.21V325.01C1107.21 323.311 1106.77 321.963 1105.89 321.025C1105.02 320.088 1103.79 319.619 1102.17 319.619C1101.29 319.619 1100.47 319.766 1099.77 320.117C1099.07 320.469 1098.48 320.967 1098.04 321.641V319.795H1096.05ZM1114.89 321.406H1118.32V319.795H1114.89V315.342L1112.84 316.309V319.795H1110.46V321.406H1112.84V331.221C1112.84 332.393 1113.16 333.33 1113.8 334.004C1114.45 334.678 1115.36 335 1116.53 335H1118.05V333.213H1116.85C1115.56 333.213 1114.89 332.51 1114.89 331.133V321.406Z" fill="black"/>
<path d="M897.945 154.605H890.24L888.775 159H884.103L892.042 137.672H896.114L904.098 159H899.425L897.945 154.605ZM891.427 151.046H896.759L894.078 143.062L891.427 151.046ZM910.279 159H906.031V136.5H910.279V159ZM918.849 139.254V143.15H921.559V146.256H918.849V154.166C918.849 154.752 918.961 155.172 919.186 155.426C919.41 155.68 919.84 155.807 920.475 155.807C920.943 155.807 921.358 155.772 921.72 155.704V158.912C920.89 159.166 920.035 159.293 919.156 159.293C916.188 159.293 914.674 157.794 914.615 154.796V146.256H912.301V143.15H914.615V139.254H918.849ZM928.385 159H924.137V143.15H928.385V159ZM923.888 139.049C923.888 138.414 924.098 137.892 924.518 137.481C924.947 137.071 925.528 136.866 926.261 136.866C926.983 136.866 927.56 137.071 927.989 137.481C928.419 137.892 928.634 138.414 928.634 139.049C928.634 139.693 928.414 140.221 927.975 140.631C927.545 141.041 926.974 141.246 926.261 141.246C925.548 141.246 924.972 141.041 924.532 140.631C924.103 140.221 923.888 139.693 923.888 139.049ZM935.782 143.15L935.914 144.981C937.047 143.565 938.565 142.857 940.47 142.857C942.149 142.857 943.399 143.351 944.22 144.337C945.04 145.323 945.46 146.798 945.479 148.761V159H941.246V148.863C941.246 147.965 941.051 147.315 940.66 146.915C940.27 146.505 939.62 146.3 938.712 146.3C937.521 146.3 936.627 146.808 936.031 147.823V159H931.798V143.15H935.782ZM952.599 143.15L952.73 144.981C953.863 143.565 955.382 142.857 957.286 142.857C958.966 142.857 960.216 143.351 961.036 144.337C961.856 145.323 962.276 146.798 962.296 148.761V159H958.062V148.863C958.062 147.965 957.867 147.315 957.477 146.915C957.086 146.505 956.437 146.3 955.528 146.3C954.337 146.3 953.443 146.808 952.848 147.823V159H948.614V143.15H952.599Z" fill="black"/>
<path d="M517.945 219.605H510.24L508.775 224H504.103L512.042 202.672H516.114L524.098 224H519.425L517.945 219.605ZM511.427 216.046H516.759L514.078 208.062L511.427 216.046ZM530.279 224H526.031V201.5H530.279V224ZM538.849 204.254V208.15H541.559V211.256H538.849V219.166C538.849 219.752 538.961 220.172 539.186 220.426C539.41 220.68 539.84 220.807 540.475 220.807C540.943 220.807 541.358 220.772 541.72 220.704V223.912C540.89 224.166 540.035 224.293 539.156 224.293C536.188 224.293 534.674 222.794 534.615 219.796V211.256H532.301V208.15H534.615V204.254H538.849ZM548.385 224H544.137V208.15H548.385V224ZM543.888 204.049C543.888 203.414 544.098 202.892 544.518 202.481C544.947 202.071 545.528 201.866 546.261 201.866C546.983 201.866 547.56 202.071 547.989 202.481C548.419 202.892 548.634 203.414 548.634 204.049C548.634 204.693 548.414 205.221 547.975 205.631C547.545 206.041 546.974 206.246 546.261 206.246C545.548 206.246 544.972 206.041 544.532 205.631C544.103 205.221 543.888 204.693 543.888 204.049ZM555.782 208.15L555.914 209.981C557.047 208.565 558.565 207.857 560.47 207.857C562.149 207.857 563.399 208.351 564.22 209.337C565.04 210.323 565.46 211.798 565.479 213.761V224H561.246V213.863C561.246 212.965 561.051 212.315 560.66 211.915C560.27 211.505 559.62 211.3 558.712 211.3C557.521 211.3 556.627 211.808 556.031 212.823V224H551.798V208.15H555.782ZM572.599 208.15L572.73 209.981C573.863 208.565 575.382 207.857 577.286 207.857C578.966 207.857 580.216 208.351 581.036 209.337C581.856 210.323 582.276 211.798 582.296 213.761V224H578.062V213.863C578.062 212.965 577.867 212.315 577.477 211.915C577.086 211.505 576.437 211.3 575.528 211.3C574.337 211.3 573.443 211.808 572.848 212.823V224H568.614V208.15H572.599Z" fill="black"/>
<path d="M1317.95 200.605H1310.24L1308.78 205H1304.1L1312.04 183.672H1316.11L1324.1 205H1319.42L1317.95 200.605ZM1311.43 197.046H1316.76L1314.08 189.062L1311.43 197.046ZM1330.28 205H1326.03V182.5H1330.28V205ZM1338.85 185.254V189.15H1341.56V192.256H1338.85V200.166C1338.85 200.752 1338.96 201.172 1339.19 201.426C1339.41 201.68 1339.84 201.807 1340.47 201.807C1340.94 201.807 1341.36 201.772 1341.72 201.704V204.912C1340.89 205.166 1340.04 205.293 1339.16 205.293C1336.19 205.293 1334.67 203.794 1334.62 200.796V192.256H1332.3V189.15H1334.62V185.254H1338.85ZM1348.38 205H1344.14V189.15H1348.38V205ZM1343.89 185.049C1343.89 184.414 1344.1 183.892 1344.52 183.481C1344.95 183.071 1345.53 182.866 1346.26 182.866C1346.98 182.866 1347.56 183.071 1347.99 183.481C1348.42 183.892 1348.63 184.414 1348.63 185.049C1348.63 185.693 1348.41 186.221 1347.97 186.631C1347.54 187.041 1346.97 187.246 1346.26 187.246C1345.55 187.246 1344.97 187.041 1344.53 186.631C1344.1 186.221 1343.89 185.693 1343.89 185.049ZM1355.78 189.15L1355.91 190.981C1357.05 189.565 1358.57 188.857 1360.47 188.857C1362.15 188.857 1363.4 189.351 1364.22 190.337C1365.04 191.323 1365.46 192.798 1365.48 194.761V205H1361.25V194.863C1361.25 193.965 1361.05 193.315 1360.66 192.915C1360.27 192.505 1359.62 192.3 1358.71 192.3C1357.52 192.3 1356.63 192.808 1356.03 193.823V205H1351.8V189.15H1355.78ZM1372.6 189.15L1372.73 190.981C1373.86 189.565 1375.38 188.857 1377.29 188.857C1378.97 188.857 1380.22 189.351 1381.04 190.337C1381.86 191.323 1382.28 192.798 1382.3 194.761V205H1378.06V194.863C1378.06 193.965 1377.87 193.315 1377.48 192.915C1377.09 192.505 1376.44 192.3 1375.53 192.3C1374.34 192.3 1373.44 192.808 1372.85 193.823V205H1368.61V189.15H1372.6Z" fill="black"/>
<path d="M898.707 282.715V279.287H884.176V282.715H889.449V300H893.434V282.715H898.707ZM900.523 279.287V282.275H904.303V279.287H900.523ZM897.857 301.465V304.688H899.615C901.109 304.688 902.252 304.277 903.072 303.457C903.893 302.637 904.303 301.465 904.303 299.941V284.414H900.611V299.707C900.611 300.322 900.494 300.762 900.26 301.055C900.025 301.348 899.645 301.465 899.117 301.465H897.857ZM911.1 293.32H920.211V291.24C920.211 288.926 919.625 287.168 918.482 285.996C917.34 284.824 915.787 284.209 913.824 284.209C911.832 284.209 910.25 284.795 909.107 285.967C907.965 287.139 907.408 288.896 907.408 291.24V293.145C907.408 295.547 907.994 297.305 909.166 298.447C910.338 299.59 911.949 300.176 913.941 300.176C915.846 300.176 917.34 299.736 918.453 298.828C919.566 297.92 920.094 296.748 920.094 295.254V295.107H916.549L916.52 295.195C916.49 295.752 916.256 296.191 915.846 296.514C915.436 296.836 914.82 296.982 914.088 296.982C913.121 296.982 912.418 296.719 911.891 296.221C911.363 295.723 911.1 294.902 911.1 293.73V293.32ZM911.803 288.164C912.271 287.666 912.945 287.402 913.824 287.402C915.611 287.402 916.49 288.369 916.49 290.361V290.771H911.1V290.684C911.1 289.512 911.334 288.662 911.803 288.164ZM923.17 284.414V300H926.891V290.273C926.891 289.395 927.125 288.721 927.594 288.252C928.062 287.783 928.648 287.52 929.381 287.52C930.113 287.52 930.729 287.783 931.168 288.252C931.607 288.721 931.812 289.395 931.812 290.273V300H935.533V289.834C935.533 288.105 935.094 286.729 934.215 285.732C933.336 284.736 932.105 284.209 930.494 284.209C929.791 284.209 929.117 284.355 928.473 284.619C927.828 284.883 927.271 285.293 926.803 285.82V284.414H923.17ZM942.184 293.32H951.295V291.24C951.295 288.926 950.709 287.168 949.566 285.996C948.424 284.824 946.871 284.209 944.908 284.209C942.916 284.209 941.334 284.795 940.191 285.967C939.049 287.139 938.492 288.896 938.492 291.24V293.145C938.492 295.547 939.078 297.305 940.25 298.447C941.422 299.59 943.033 300.176 945.025 300.176C946.93 300.176 948.424 299.736 949.537 298.828C950.65 297.92 951.178 296.748 951.178 295.254V295.107H947.633L947.604 295.195C947.574 295.752 947.34 296.191 946.93 296.514C946.52 296.836 945.904 296.982 945.172 296.982C944.205 296.982 943.502 296.719 942.975 296.221C942.447 295.723 942.184 294.902 942.184 293.73V293.32ZM942.887 288.164C943.355 287.666 944.029 287.402 944.908 287.402C946.695 287.402 947.574 288.369 947.574 290.361V290.771H942.184V290.684C942.184 289.512 942.418 288.662 942.887 288.164ZM955.338 298.887C956.422 299.766 957.857 300.176 959.645 300.176C961.49 300.176 962.984 299.766 964.156 298.887C965.328 298.008 965.914 296.777 965.914 295.166C965.914 293.877 965.533 292.852 964.742 292.119C963.951 291.387 962.779 290.918 961.227 290.684L959.381 290.391C958.678 290.303 958.209 290.127 957.887 289.863C957.564 289.6 957.418 289.248 957.418 288.779C957.418 288.281 957.594 287.871 958.004 287.578C958.414 287.285 959 287.139 959.762 287.139C960.523 287.139 961.109 287.285 961.549 287.578C961.988 287.871 962.193 288.311 962.193 288.838V288.926H965.621V288.75C965.621 287.9 965.387 287.139 964.889 286.436C964.391 285.732 963.717 285.176 962.838 284.795C961.959 284.414 960.934 284.209 959.762 284.209C958.062 284.209 956.656 284.648 955.572 285.527C954.488 286.406 953.932 287.549 953.932 289.043C953.932 290.332 954.312 291.357 955.045 292.061C955.777 292.764 956.949 293.232 958.502 293.496L960.143 293.76C960.934 293.877 961.49 294.053 961.842 294.316C962.193 294.58 962.369 294.961 962.369 295.43C962.369 296.016 962.135 296.455 961.666 296.748C961.197 297.041 960.582 297.188 959.762 297.188C959 297.188 958.385 297.012 957.916 296.689C957.447 296.367 957.213 295.898 957.213 295.312V295.254H953.727V295.371C953.727 296.836 954.254 298.008 955.338 298.887ZM973.443 287.021H976.461V284.414H973.443V280.049L969.752 281.338V284.414H967.613V287.021H969.752V295.488C969.752 296.865 970.191 297.979 971.012 298.799C971.832 299.619 972.975 300 974.381 300H976.139V296.836H974.996C973.971 296.836 973.443 296.309 973.443 295.254V287.021ZM981.998 293.32H991.109V291.24C991.109 288.926 990.523 287.168 989.381 285.996C988.238 284.824 986.686 284.209 984.723 284.209C982.73 284.209 981.148 284.795 980.006 285.967C978.863 287.139 978.307 288.896 978.307 291.24V293.145C978.307 295.547 978.893 297.305 980.064 298.447C981.236 299.59 982.848 300.176 984.84 300.176C986.744 300.176 988.238 299.736 989.352 298.828C990.465 297.92 990.992 296.748 990.992 295.254V295.107H987.447L987.418 295.195C987.389 295.752 987.154 296.191 986.744 296.514C986.334 296.836 985.719 296.982 984.986 296.982C984.02 296.982 983.316 296.719 982.789 296.221C982.262 295.723 981.998 294.902 981.998 293.73V293.32ZM982.701 288.164C983.17 287.666 983.844 287.402 984.723 287.402C986.51 287.402 987.389 288.369 987.389 290.361V290.771H981.998V290.684C981.998 289.512 982.232 288.662 982.701 288.164ZM997.496 293.32H1006.61V291.24C1006.61 288.926 1006.02 287.168 1004.88 285.996C1003.74 284.824 1002.18 284.209 1000.22 284.209C998.229 284.209 996.646 284.795 995.504 285.967C994.361 287.139 993.805 288.896 993.805 291.24V293.145C993.805 295.547 994.391 297.305 995.562 298.447C996.734 299.59 998.346 300.176 1000.34 300.176C1002.24 300.176 1003.74 299.736 1004.85 298.828C1005.96 297.92 1006.49 296.748 1006.49 295.254V295.107H1002.95L1002.92 295.195C1002.89 295.752 1002.65 296.191 1002.24 296.514C1001.83 296.836 1001.22 296.982 1000.48 296.982C999.518 296.982 998.814 296.719 998.287 296.221C997.76 295.723 997.496 294.902 997.496 293.73V293.32ZM998.199 288.164C998.668 287.666 999.342 287.402 1000.22 287.402C1002.01 287.402 1002.89 288.369 1002.89 290.361V290.771H997.496V290.684C997.496 289.512 997.73 288.662 998.199 288.164ZM1009.71 284.414V300H1013.4V284.414H1009.71ZM1009.65 279.287V282.275H1013.43V279.287H1009.65ZM1020.2 293.32H1029.31V291.24C1029.31 288.926 1028.73 287.168 1027.58 285.996C1026.44 284.824 1024.89 284.209 1022.93 284.209C1020.93 284.209 1019.35 284.795 1018.21 285.967C1017.07 287.139 1016.51 288.896 1016.51 291.24V293.145C1016.51 295.547 1017.1 297.305 1018.27 298.447C1019.44 299.59 1021.05 300.176 1023.04 300.176C1024.95 300.176 1026.44 299.736 1027.55 298.828C1028.67 297.92 1029.2 296.748 1029.2 295.254V295.107H1025.65L1025.62 295.195C1025.59 295.752 1025.36 296.191 1024.95 296.514C1024.54 296.836 1023.92 296.982 1023.19 296.982C1022.22 296.982 1021.52 296.719 1020.99 296.221C1020.46 295.723 1020.2 294.902 1020.2 293.73V293.32ZM1020.9 288.164C1021.37 287.666 1022.05 287.402 1022.93 287.402C1024.71 287.402 1025.59 288.369 1025.59 290.361V290.771H1020.2V290.684C1020.2 289.512 1020.44 288.662 1020.9 288.164ZM1032.27 284.414V300H1035.99V290.654C1035.99 289.6 1036.26 288.75 1036.81 288.193C1037.37 287.637 1038.1 287.344 1039.01 287.344C1039.54 287.344 1040.15 287.432 1040.86 287.666V284.18C1040.47 284.092 1040.06 284.062 1039.6 284.062C1038.8 284.062 1038.07 284.238 1037.43 284.561C1036.78 284.883 1036.29 285.352 1035.9 286.025V284.414H1032.27Z" fill="black"/>
<path d="M1048.5 85.4778C1048.49 86.5823 1049.37 87.4876 1050.48 87.4999L1068.48 87.6999C1069.58 87.7121 1070.49 86.8267 1070.5 85.7222C1070.51 84.6177 1069.63 83.7124 1068.52 83.7001L1052.52 83.5223L1052.7 67.5233C1052.71 66.4188 1051.83 65.5135 1050.72 65.5012C1049.62 65.489 1048.71 66.3744 1048.7 67.4789L1048.5 85.4778ZM1344.93 84.0994C1266.69 4.34859 1140.93 -5.73692 1049.1 84.0702L1051.9 86.9298C1142.07 -1.26308 1265.31 8.65141 1342.07 86.9006L1344.93 84.0994Z" fill="#BCC7CC"/>
<path d="M258 85.0334C257.988 86.1379 258.873 87.0433 259.978 87.0555L277.977 87.2555C279.081 87.2678 279.986 86.3824 279.999 85.2779C280.011 84.1734 279.126 83.268 278.021 83.2558L262.022 83.078L262.2 67.079C262.212 65.9745 261.327 65.0692 260.222 65.0569C259.118 65.0446 258.212 65.9301 258.2 67.0346L258 85.0334ZM554.428 83.6551C476.191 3.90425 350.427 -6.18126 258.602 83.6258L261.398 86.4855C351.573 -1.70742 474.809 8.20708 551.572 86.4563L554.428 83.6551Z" fill="#BCC7CC"/>
<path d="M1048.5 389.022C1048.49 387.918 1049.37 387.012 1050.48 387L1068.48 386.8C1069.58 386.788 1070.49 387.673 1070.5 388.778C1070.51 389.882 1069.63 390.788 1068.52 390.8L1052.52 390.978L1052.7 406.977C1052.71 408.081 1051.83 408.986 1050.72 408.999C1049.62 409.011 1048.71 408.126 1048.7 407.021L1048.5 389.022ZM1344.93 390.401C1266.69 470.151 1140.93 480.237 1049.1 390.43L1051.9 387.57C1142.07 475.763 1265.31 465.849 1342.07 387.599L1344.93 390.401Z" fill="#BCC7CC"/>
<path d="M258 388.578C257.988 387.473 258.873 386.568 259.978 386.556L277.977 386.356C279.081 386.344 279.986 387.229 279.999 388.333C280.011 389.438 279.126 390.343 278.021 390.356L262.022 390.533L262.2 406.532C262.212 407.637 261.327 408.542 260.222 408.554C259.118 408.567 258.212 407.681 258.2 406.577L258 388.578ZM554.428 389.956C476.191 469.707 350.427 479.793 258.602 389.986L261.398 387.126C351.573 475.319 474.809 465.404 551.572 387.155L554.428 389.956Z" fill="#BCC7CC"/>
</g>
<defs>
<clipPath id="clip0">
<rect width="1966" height="474" fill="white"/>
</clipPath>
</defs>
</svg>
