<?xml version="1.0" encoding="UTF-8" standalone="no"?>
<!DOCTYPE svg PUBLIC "-//W3C//DTD SVG 1.1//EN" "http://www.w3.org/Graphics/SVG/1.1/DTD/svg11.dtd">
<!-- Generated by Microsoft Visio, SVG Export AltinnStudio_ApplicationArchitecture.svg Page-1 -->
<svg xmlns="http://www.w3.org/2000/svg" xmlns:xlink="http://www.w3.org/1999/xlink" xmlns:ev="http://www.w3.org/2001/xml-events"
		xmlns:v="http://schemas.microsoft.com/visio/2003/SVGExtensions/" width="16.986in" height="15.6351in"
		viewBox="0 0 1222.99 1125.72" xml:space="preserve" color-interpolation-filters="sRGB" class="st34">
	<v:documentProperties v:langID="1033" v:metric="true" v:viewMarkup="false">
		<v:userDefs>
			<v:ud v:nameU="DisableSpdActionTags" v:prompt="" v:val="VT0(0):26"/>
		</v:userDefs>
	</v:documentProperties>

	<style type="text/css">
	<![CDATA[
		.st1 {visibility:visible}
		.st2 {fill:none;filter:url(#filter_2);stroke:#5b9bd5;stroke-dasharray:7,5;stroke-opacity:0.22}
		.st3 {fill:none;stroke:#c7c8c8;stroke-dasharray:7,5;stroke-width:1}
		.st4 {fill:none;stroke:none;stroke-width:0.25}
		.st5 {fill:#ffffff;font-family:Calibri;font-size:1.00001em}
		.st6 {font-size:1em}
		.st7 {fill:#5b9bd5;font-family:Calibri;font-size:1.00001em}
		.st8 {fill:#5b9bd5;font-family:Calibri;font-size:4.99999em}
		.st9 {fill:none;filter:url(#filter_2);stroke:#5b9bd5;stroke-dasharray:5.25,3.75,0.01,3.75;stroke-opacity:0.22}
		.st10 {fill:none;stroke:#c7c8c8;stroke-dasharray:5.25,3.75,0.01,3.75;stroke-width:0.75}
		.st11 {fill:#5b9bd5;fill-opacity:0.22;filter:url(#filter_2);stroke:#5b9bd5;stroke-opacity:0.22}
		.st12 {fill:#5b9bd5;stroke:#c7c8c8;stroke-width:0.25}
		.st13 {fill:#bdd0e9;stroke:#c7c8c8;stroke-width:0.25}
		.st14 {fill:#feffff;font-family:Calibri;font-size:1.00001em}
		.st15 {fill:#5b9bd5;fill-opacity:0.22;filter:url(#filter_2);marker-end:url(#mrkr1-55);marker-start:url(#mrkr1-53);stroke:#5b9bd5;stroke-opacity:0.22}
		.st16 {fill:#5b9bd5;fill-opacity:0.22;stroke:#5b9bd5;stroke-opacity:0.22;stroke-width:0.090252707581227}
		.st17 {fill:#bdd7ee;marker-end:url(#mrkr1-61);marker-start:url(#mrkr1-59);stroke:#c7c8c8;stroke-width:0.25}
		.st18 {fill:#c7c8c8;fill-opacity:1;stroke:#c7c8c8;stroke-opacity:1;stroke-width:0.090252707581227}
		.st19 {fill:#2e75b5;font-family:Calibri;font-size:1.00001em}
		.st20 {marker-end:url(#mrkr13-115);marker-start:url(#mrkr13-113);stroke:#5b9bd5;stroke-linecap:round;stroke-linejoin:round;stroke-width:1}
		.st21 {fill:#5b9bd5;fill-opacity:1;stroke:#5b9bd5;stroke-opacity:1;stroke-width:0.28409090909091}
		.st22 {marker-end:url(#mrkr1-131);marker-start:url(#mrkr1-129);stroke:#5b9bd5;stroke-linecap:round;stroke-linejoin:round;stroke-width:1}
		.st23 {fill:#ed7d31;stroke:#c7c8c8;stroke-width:0.25}
		.st24 {fill:#4a80b1;stroke:none;stroke-linecap:butt;stroke-width:0.75}
		.st25 {fill:#5b9bd5;fill-opacity:0.22;filter:url(#filter_2)}
		.st26 {fill:none;filter:url(#filter_2);stroke:#5b9bd5;stroke-opacity:0.22}
		.st27 {fill:#5b9bd5}
		.st28 {stroke:#c8c8c8;stroke-width:0.25}
		.st29 {fill:#feffff;font-family:Calibri;font-size:0.666664em}
		.st30 {fill:#ffd965;stroke:#c7c8c8;stroke-width:0.25}
		.st31 {marker-end:url(#mrkr4-254);stroke:#5b9bd5;stroke-linecap:round;stroke-linejoin:round;stroke-width:1}
		.st32 {fill:#ffffff;stroke:none;stroke-linecap:butt;stroke-width:7.2}
		.st33 {fill:#4f88bb;font-family:Calibri;font-size:0.666664em}
		.st34 {fill:none;fill-rule:evenodd;font-size:12px;overflow:visible;stroke-linecap:square;stroke-miterlimit:3}
	]]>
	</style>

	<defs id="Markers">
		<g id="lend1">
			<path d="M 1 -1 L 0 0 L 1 1 " style="stroke-linecap:round;stroke-linejoin:round;fill:none"/>
		</g>
		<marker id="mrkr1-53" class="st16" v:arrowType="1" v:arrowSize="2" orient="auto" markerUnits="strokeWidth"
				overflow="visible">
			<use xlink:href="#lend1" transform="scale(11.08) "/>
		</marker>
		<marker id="mrkr1-55" class="st16" v:arrowType="1" v:arrowSize="2" orient="auto" markerUnits="strokeWidth"
				overflow="visible">
			<use xlink:href="#lend1" transform="scale(-11.08,-11.08) "/>
		</marker>
		<marker id="mrkr1-59" class="st18" v:arrowType="1" v:arrowSize="2" orient="auto" markerUnits="strokeWidth"
				overflow="visible">
			<use xlink:href="#lend1" transform="scale(11.08) "/>
		</marker>
		<marker id="mrkr1-61" class="st18" v:arrowType="1" v:arrowSize="2" orient="auto" markerUnits="strokeWidth"
				overflow="visible">
			<use xlink:href="#lend1" transform="scale(-11.08,-11.08) "/>
		</marker>
		<g id="lend13">
			<path d="M 3 1 L 0 0 L 3 -1 L 3 1 " style="stroke:none"/>
		</g>
		<marker id="mrkr13-113" class="st21" v:arrowType="13" v:arrowSize="2" v:setback="10.2" refX="10.2" orient="auto"
				markerUnits="strokeWidth" overflow="visible">
			<use xlink:href="#lend13" transform="scale(3.52) "/>
		</marker>
		<marker id="mrkr13-115" class="st21" v:arrowType="13" v:arrowSize="2" v:setback="10.56" refX="-10.56" orient="auto"
				markerUnits="strokeWidth" overflow="visible">
			<use xlink:href="#lend13" transform="scale(-3.52,-3.52) "/>
		</marker>
		<marker id="mrkr1-129" class="st21" v:arrowType="1" v:arrowSize="2" orient="auto" markerUnits="strokeWidth"
				overflow="visible">
			<use xlink:href="#lend1" transform="scale(3.52) "/>
		</marker>
		<marker id="mrkr1-131" class="st21" v:arrowType="1" v:arrowSize="2" orient="auto" markerUnits="strokeWidth"
				overflow="visible">
			<use xlink:href="#lend1" transform="scale(-3.52,-3.52) "/>
		</marker>
		<g id="lend4">
			<path d="M 2 1 L 0 0 L 2 -1 L 2 1 " style="stroke:none"/>
		</g>
		<marker id="mrkr4-254" class="st21" v:arrowType="4" v:arrowSize="2" v:setback="7.04" refX="-7.04" orient="auto"
				markerUnits="strokeWidth" overflow="visible">
			<use xlink:href="#lend4" transform="scale(-3.52,-3.52) "/>
		</marker>
	</defs>
	<defs id="Filters">
		<filter id="filter_2">
			<feGaussianBlur stdDeviation="2"/>
		</filter>
	</defs>
	<g v:mID="0" v:index="1" v:groupContext="foregroundPage">
		<title>Page-1</title>
		<v:pageProperties v:drawingScale="0.0393701" v:pageScale="0.0393701" v:drawingUnits="24" v:shadowOffsetX="8.50394"
				v:shadowOffsetY="-8.50394"/>
		<v:layer v:name="Connector" v:index="0"/>
		<v:layer v:name="Flowchart" v:index="1"/>
		<g id="shape4-1" v:mID="4" v:groupContext="shape" transform="translate(89.5414,-5.4728)">
			<title>Sheet.4</title>
			<g id="shadow4-2" v:groupContext="shadow" v:shadowOffsetX="0.345598" v:shadowOffsetY="-1.97279" v:shadowType="1"
					transform="matrix(1,0,0,1,0.345598,1.97279)" class="st1">
				<path d="M0 1125.72 L1129.61 1125.72 L1129.61 428.4 L0 428.4 L0 1125.72 Z" class="st2"/>
			</g>
			<path d="M0 1125.72 L1129.61 1125.72 L1129.61 428.4 L0 428.4 L0 1125.72 Z" class="st3"/>
		</g>
		<g id="shape56-6" v:mID="56" v:groupContext="shape" transform="translate(889.008,-841.819)">
			<title>Sheet.56</title>
			<desc>Open External API</desc>
			<v:textBlock v:margins="rect(4,4,4,4)" v:tabSpace="42.5197"/>
			<v:textRect cx="51.5197" cy="1115.72" width="103.04" height="20"/>
			<rect x="0" y="1105.72" width="103.039" height="20" class="st4"/>
			<text x="23.97" y="1112.12" class="st5" v:langID="1044"><v:paragraph v:indentLeft="14.17" v:horizAlign="1"/><v:tabList/>Open External <tspan
						x="50.52" dy="1.2em" class="st6">API</tspan></text>		</g>
		<g id="shape133-10" v:mID="133" v:groupContext="shape" transform="translate(56.9429,-646.103)">
			<title>Sheet.133</title>
			<desc>Kubernetes</desc>
			<v:textBlock v:margins="rect(4,4,4,4)" v:tabSpace="42.5197"/>
			<v:textRect cx="96.6614" cy="1104.46" width="193.33" height="42.5197"/>
			<rect x="0" y="1083.2" width="193.323" height="42.5197" class="st4"/>
			<text x="68.68" y="1108.06" class="st7" v:langID="1044"><v:paragraph v:horizAlign="1"/><v:tabList/>Kubernetes</text>		</g>
		<g id="shape147-13" v:mID="147" v:groupContext="shape" transform="translate(0.25,-1058.54)">
			<title>Sheet.147</title>
			<desc>Altinn Studio application Architecture</desc>
			<v:textBlock v:margins="rect(4,4,4,4)" v:tabSpace="42.5197"/>
			<v:textRect cx="503.15" cy="1094.54" width="1006.3" height="62.3622"/>
			<rect x="0" y="1063.36" width="1006.3" height="62.3622" class="st4"/>
			<text x="44.8" y="1112.54" class="st8" v:langID="1044"><v:paragraph v:horizAlign="1"/><v:tabList/>Altinn Studio application Architecture</text>		</g>
		<g id="shape196-16" v:mID="196" v:groupContext="shape" transform="translate(481.289,-149.189)">
			<title>Sheet.196</title>
			<g id="shadow196-17" v:groupContext="shadow" v:shadowOffsetX="0.345598" v:shadowOffsetY="-1.97279" v:shadowType="1"
					transform="matrix(1,0,0,1,0.345598,1.97279)" class="st1">
				<path d="M0 1125.72 L665.57 1125.72 L665.57 615.49 L0 615.49 L0 1125.72 Z" class="st9"/>
			</g>
			<path d="M0 1125.72 L665.57 1125.72 L665.57 615.49 L0 615.49 L0 1125.72 Z" class="st10"/>
		</g>
		<a xlink:href="/products/tjenester/3.0/solutions/runtime/">
			<g id="shape198-21" v:mID="198" v:groupContext="shape" transform="translate(487.242,-162.491)">
				<title>Rectangle.198</title>
				<v:userDefs>
					<v:ud v:nameU="visVersion" v:val="VT0(15):26"/>
				</v:userDefs>
				<g id="shadow198-22" v:groupContext="shadow" v:shadowOffsetX="0.345598" v:shadowOffsetY="-1.97279" v:shadowType="1"
						transform="matrix(1,0,0,1,0.345598,1.97279)" class="st1">
					<rect x="0" y="643.53" width="644.598" height="482.194" class="st11"/>
				</g>
				<rect x="0" y="643.53" width="644.598" height="482.194" class="st12"/>
			</g>
		</a>
		<a xlink:href="/Content/RedirectToContent/?ContentType=Resource&#38;Title=Archive">
			<g id="shape199-26" v:mID="199" v:groupContext="shape" transform="translate(497.73,-178.082)">
				<title>Sheet.199</title>
				<g id="shadow199-27" v:groupContext="shadow" v:shadowOffsetX="0.345598" v:shadowOffsetY="-1.97279" v:shadowType="1"
						transform="matrix(1,0,0,1,0.345598,1.97279)" class="st1">
					<rect x="0" y="987.677" width="612.283" height="138.047" class="st11"/>
				</g>
				<rect x="0" y="987.677" width="612.283" height="138.047" class="st13"/>
			</g>
		</a>
		<g id="shape200-31" v:mID="200" v:groupContext="shape" transform="translate(507.652,-248.948)">
			<title>Sheet.200</title>
			<desc>Business Logic</desc>
			<v:textBlock v:margins="rect(4,4,4,4)" v:tabSpace="42.5197"/>
			<v:textRect cx="297.638" cy="1112.97" width="595.28" height="25.5118"/>
			<g id="shadow200-32" v:groupContext="shadow" v:shadowOffsetX="0.345598" v:shadowOffsetY="-1.97279" v:shadowType="1"
					transform="matrix(1,0,0,1,0.345598,1.97279)" class="st1">
				<rect x="0" y="1100.21" width="595.276" height="25.5118" class="st11"/>
			</g>
			<rect x="0" y="1100.21" width="595.276" height="25.5118" class="st12"/>
			<text x="262.89" y="1116.57" class="st14" v:langID="1044"><v:paragraph v:horizAlign="1"/><v:tabList/>Business Logic</text>		</g>
		<g id="shape201-37" v:mID="201" v:groupContext="shape" transform="translate(507.652,-192.255)">
			<title>Sheet.201</title>
			<desc>Data Access</desc>
			<v:textBlock v:margins="rect(4,4,4,4)" v:tabSpace="42.5197"/>
			<v:textRect cx="297.638" cy="1112.97" width="595.28" height="25.5118"/>
			<g id="shadow201-38" v:groupContext="shadow" v:shadowOffsetX="0.345598" v:shadowOffsetY="-1.97279" v:shadowType="1"
					transform="matrix(1,0,0,1,0.345598,1.97279)" class="st1">
				<rect x="0" y="1100.21" width="595.276" height="25.5118" class="st11"/>
			</g>
			<rect x="0" y="1100.21" width="595.276" height="25.5118" class="st12"/>
			<text x="268.61" y="1116.57" class="st14" v:langID="1044"><v:paragraph v:horizAlign="1"/><v:tabList/>Data Access</text>		</g>
		<g id="shape202-43" v:mID="202" v:groupContext="shape" transform="translate(507.652,-220.601)">
			<title>Sheet.202</title>
			<desc>Data Logic</desc>
			<v:textBlock v:margins="rect(4,4,4,4)" v:tabSpace="42.5197"/>
			<v:textRect cx="297.638" cy="1112.97" width="595.28" height="25.5118"/>
			<g id="shadow202-44" v:groupContext="shadow" v:shadowOffsetX="0.345598" v:shadowOffsetY="-1.97279" v:shadowType="1"
					transform="matrix(1,0,0,1,0.345598,1.97279)" class="st1">
				<rect x="0" y="1100.21" width="595.276" height="25.5118" class="st11"/>
			</g>
			<rect x="0" y="1100.21" width="595.276" height="25.5118" class="st12"/>
			<text x="272.41" y="1116.57" class="st14" v:langID="1044"><v:paragraph v:horizAlign="1"/><v:tabList/>Data Logic</text>		</g>
		<g id="shape203-49" v:mID="203" v:groupContext="shape" transform="translate(500.565,-328.885)">
			<title>Sheet.203</title>
			<g id="shadow203-50" v:groupContext="shadow" v:shadowOffsetX="0.345598" v:shadowOffsetY="-1.97279" v:shadowType="1"
					transform="matrix(1,0,0,1,0.345598,1.97279)" class="st1">
				<rect x="0" y="837.158" width="612.283" height="288.567" class="st15"/>
			</g>
			<rect x="0" y="837.158" width="612.283" height="288.567" class="st17"/>
		</g>
		<g id="shape204-62" v:mID="204" v:groupContext="shape" transform="translate(954.108,-448.79)">
			<title>Sheet.204</title>
			<desc>View</desc>
			<v:textBlock v:margins="rect(4,4,4,4)" v:tabSpace="42.5197"/>
			<v:textRect cx="42.5197" cy="1112.97" width="85.04" height="25.5118"/>
			<g id="shadow204-63" v:groupContext="shadow" v:shadowOffsetX="0.345598" v:shadowOffsetY="-1.97279" v:shadowType="1"
					transform="matrix(1,0,0,1,0.345598,1.97279)" class="st1">
				<rect x="0" y="1100.21" width="85.0394" height="25.5118" class="st11"/>
			</g>
			<rect x="0" y="1100.21" width="85.0394" height="25.5118" class="st12"/>
			<text x="30.46" y="1116.57" class="st14" v:langID="1044"><v:paragraph v:horizAlign="1"/><v:tabList/>View</text>		</g>
		<g id="shape205-68" v:mID="205" v:groupContext="shape" transform="translate(503.303,-385.011)">
			<title>Sheet.205</title>
			<desc>Controller</desc>
			<v:textBlock v:margins="rect(4,4,4,4)" v:tabSpace="42.5197"/>
			<v:textRect cx="275.009" cy="1112.97" width="550.02" height="25.5118"/>
			<g id="shadow205-69" v:groupContext="shadow" v:shadowOffsetX="0.345598" v:shadowOffsetY="-1.97279" v:shadowType="1"
					transform="matrix(1,0,0,1,0.345598,1.97279)" class="st1">
				<rect x="0" y="1100.21" width="550.018" height="25.5118" class="st11"/>
			</g>
			<rect x="0" y="1100.21" width="550.018" height="25.5118" class="st12"/>
			<text x="250.4" y="1116.57" class="st14" v:langID="1044"><v:paragraph v:horizAlign="1"/><v:tabList/>Controller</text>		</g>
		<g id="shape207-74" v:mID="207" v:groupContext="shape" transform="translate(503.4,-566.428)">
			<title>Sheet.207</title>
			<desc>Autentisering</desc>
			<v:textBlock v:margins="rect(4,4,4,4)" v:tabSpace="42.5197"/>
			<v:textRect cx="297.638" cy="1112.97" width="595.28" height="25.5118"/>
			<g id="shadow207-75" v:groupContext="shadow" v:shadowOffsetX="0.345598" v:shadowOffsetY="-1.97279" v:shadowType="1"
					transform="matrix(1,0,0,1,0.345598,1.97279)" class="st1">
				<rect x="0" y="1100.21" width="595.276" height="25.5118" class="st11"/>
			</g>
			<rect x="0" y="1100.21" width="595.276" height="25.5118" class="st12"/>
			<text x="264.7" y="1116.57" class="st14" v:langID="1044"><v:paragraph v:horizAlign="1"/><v:tabList/>Autentisering</text>		</g>
		<g id="shape208-80" v:mID="208" v:groupContext="shape" transform="translate(503.4,-532.412)">
			<title>Sheet.208</title>
			<desc>Autorisasjon</desc>
			<v:textBlock v:margins="rect(4,4,4,4)" v:tabSpace="42.5197"/>
			<v:textRect cx="297.638" cy="1112.97" width="595.28" height="25.5118"/>
			<g id="shadow208-81" v:groupContext="shadow" v:shadowOffsetX="0.345598" v:shadowOffsetY="-1.97279" v:shadowType="1"
					transform="matrix(1,0,0,1,0.345598,1.97279)" class="st1">
				<rect x="0" y="1100.21" width="595.276" height="25.5118" class="st11"/>
			</g>
			<rect x="0" y="1100.21" width="595.276" height="25.5118" class="st12"/>
			<text x="267.05" y="1116.57" class="st14" v:langID="1044"><v:paragraph v:horizAlign="1"/><v:tabList/>Autorisasjon</text>		</g>
		<g id="shape211-86" v:mID="211" v:groupContext="shape" transform="translate(486.392,-598.176)">
			<title>Sheet.211</title>
			<desc>AltinnCore.Designer</desc>
			<v:textBlock v:margins="rect(4,4,4,4)" v:tabSpace="42.5197"/>
			<v:textRect cx="68.0315" cy="1117.79" width="136.07" height="15.874"/>
			<rect x="0" y="1109.85" width="136.063" height="15.874" class="st4"/>
			<text x="19.08" y="1121.39" class="st19" v:langID="1044"><v:paragraph v:horizAlign="1"/><v:tabList/>AltinnCore.Designer</text>		</g>
		<g id="shape213-89" v:mID="213" v:groupContext="shape" transform="translate(656.47,-447.373)">
			<title>Sheet.213</title>
			<desc>Api Model</desc>
			<v:textBlock v:margins="rect(4,4,4,4)" v:tabSpace="42.5197"/>
			<v:textRect cx="56.6929" cy="1112.97" width="113.39" height="25.5118"/>
			<g id="shadow213-90" v:groupContext="shadow" v:shadowOffsetX="0.345598" v:shadowOffsetY="-1.97279" v:shadowType="1"
					transform="matrix(1,0,0,1,0.345598,1.97279)" class="st1">
				<rect x="0" y="1100.21" width="113.386" height="25.5118" class="st11"/>
			</g>
			<rect x="0" y="1100.21" width="113.386" height="25.5118" class="st12"/>
			<text x="31.53" y="1116.57" class="st14" v:langID="1044"><v:paragraph v:horizAlign="1"/><v:tabList/>Api Model</text>		</g>
		<g id="shape215-95" v:mID="215" v:groupContext="shape" transform="translate(507.517,-447.373)">
			<title>Sheet.215</title>
			<desc>API</desc>
			<v:textBlock v:margins="rect(4,4,4,4)" v:tabSpace="42.5197"/>
			<v:textRect cx="56.6929" cy="1112.97" width="113.39" height="25.5118"/>
			<g id="shadow215-96" v:groupContext="shadow" v:shadowOffsetX="0.345598" v:shadowOffsetY="-1.97279" v:shadowType="1"
					transform="matrix(1,0,0,1,0.345598,1.97279)" class="st1">
				<rect x="0" y="1100.21" width="113.386" height="25.5118" class="st11"/>
			</g>
			<rect x="0" y="1100.21" width="113.386" height="25.5118" class="st12"/>
			<text x="48.61" y="1116.57" class="st14" v:langID="1044"><v:paragraph v:horizAlign="1"/><v:tabList/>API</text>		</g>
		<g id="shape216-101" v:mID="216" v:groupContext="shape" transform="translate(826.549,-448.79)">
			<title>Sheet.216</title>
			<desc>Model</desc>
			<v:textBlock v:margins="rect(4,4,4,4)" v:tabSpace="42.5197"/>
			<v:textRect cx="42.5197" cy="1112.97" width="85.04" height="25.5118"/>
			<g id="shadow216-102" v:groupContext="shadow" v:shadowOffsetX="0.345598" v:shadowOffsetY="-1.97279" v:shadowType="1"
					transform="matrix(1,0,0,1,0.345598,1.97279)" class="st1">
				<rect x="0" y="1100.21" width="85.0394" height="25.5118" class="st11"/>
			</g>
			<rect x="0" y="1100.21" width="85.0394" height="25.5118" class="st12"/>
			<text x="26.71" y="1116.57" class="st14" v:langID="1044"><v:paragraph v:horizAlign="1"/><v:tabList/>Model</text>		</g>
		<g id="shape219-107" v:mID="219" v:groupContext="shape" v:layerMember="0" transform="translate(706.077,-447.373)">
			<title>Dynamic connector.219</title>
			<v:userDefs>
				<v:ud v:nameU="visVersion" v:val="VT0(15):26"/>
			</v:userDefs>
			<path d="M7.09 1135.92 L7.09 1136.28 L7.09 1152.01" class="st20"/>
		</g>
		<g id="shape220-116" v:mID="220" v:groupContext="shape" v:layerMember="0" transform="translate(557.124,-447.373)">
			<title>Dynamic connector.220</title>
			<v:userDefs>
				<v:ud v:nameU="visVersion" v:val="VT0(15):26"/>
			</v:userDefs>
			<path d="M7.09 1135.92 L7.09 1136.28 L7.09 1152.01" class="st20"/>
		</g>
		<g id="shape221-123" v:mID="221" v:groupContext="shape" v:layerMember="0" transform="translate(620.903,-453.042)">
			<title>Dynamic connector.221</title>
			<v:userDefs>
				<v:ud v:nameU="visVersion" v:val="VT0(15):26"/>
			</v:userDefs>
			<path d="M0 1118.64 L35.57 1118.64" class="st22"/>
		</g>
		<g id="shape222-132" v:mID="222" v:groupContext="shape" v:layerMember="0" transform="translate(861.982,-448.79)">
			<title>Dynamic connector.222</title>
			<v:userDefs>
				<v:ud v:nameU="visVersion" v:val="VT0(15):26"/>
			</v:userDefs>
			<path d="M7.09 1135.92 L7.09 1136.28 L7.09 1153.43" class="st20"/>
		</g>
		<g id="shape223-139" v:mID="223" v:groupContext="shape" v:layerMember="0" transform="translate(989.541,-410.523)">
			<title>Dynamic connector.223</title>
			<v:userDefs>
				<v:ud v:nameU="visVersion" v:val="VT0(15):26"/>
			</v:userDefs>
			<path d="M7.09 1115.52 L7.09 1115.16 L7.09 1098.02" class="st20"/>
		</g>
		<g id="shape224-146" v:mID="224" v:groupContext="shape" v:layerMember="0" transform="translate(954.108,-454.46)">
			<title>Dynamic connector.224</title>
			<v:userDefs>
				<v:ud v:nameU="visVersion" v:val="VT0(15):26"/>
			</v:userDefs>
			<path d="M-10.2 1118.64 L-10.56 1118.64 L-31.96 1118.64" class="st20"/>
		</g>
		<g id="shape225-153" v:mID="225" v:groupContext="shape" transform="translate(755.683,-297.704)">
			<title>Sheet.225</title>
			<desc>AltinnCore.Services</desc>
			<v:textBlock v:margins="rect(4,4,4,4)" v:tabSpace="42.5197"/>
			<v:textRect cx="68.0315" cy="1117.79" width="136.07" height="15.874"/>
			<rect x="0" y="1109.85" width="136.063" height="15.874" class="st4"/>
			<text x="20.75" y="1121.39" class="st19" v:langID="1044"><v:paragraph v:horizAlign="1"/><v:tabList/>AltinnCore.Services</text>		</g>
		<g id="shape226-156" v:mID="226" v:groupContext="shape" transform="translate(-652.402,965.957) rotate(-90)">
			<title>Sheet.226</title>
			<desc>REST</desc>
			<v:textBlock v:margins="rect(4,4,4,4)" v:tabSpace="42.5197"/>
			<v:textRect cx="28.9999" cy="1112.97" width="58" height="25.5118"/>
			<g id="shadow226-157" v:groupContext="shadow" v:shadowOffsetX="0.345598" v:shadowOffsetY="-1.97279" v:shadowType="1"
					transform="matrix(1,0,0,1,-1.97279,0.345598)" class="st1">
				<rect x="0" y="1100.21" width="57.9997" height="25.5118" class="st11"/>
			</g>
			<rect x="0" y="1100.21" width="57.9997" height="25.5118" class="st23"/>
			<text x="24.22" y="1116.57" class="st14" v:langID="1044"><v:paragraph v:indentLeft="14.17" v:horizAlign="1"/><v:tabList/>REST</text>		</g>
		<g id="shape235-162" v:mID="235" v:groupContext="shape" transform="translate(877.573,-55.1842)">
			<title>Sheet.235</title>
			<desc>SBL Integration</desc>
			<v:textBlock v:margins="rect(4,4,4,4)" v:tabSpace="42.5197"/>
			<v:textRect cx="76" cy="1115.72" width="152.01" height="20"/>
			<rect x="0" y="1105.72" width="152" height="20" class="st4"/>
			<text x="46.03" y="1119.32" class="st5" v:langID="1044"><v:paragraph v:indentLeft="14.17" v:horizAlign="1"/><v:tabList/>SBL Integration</text>		</g>
		<g id="shape237-165" v:mID="237" v:groupContext="shape" transform="translate(489.129,-624.685)">
			<title>Sheet.237</title>
			<desc>Service Container</desc>
			<v:textBlock v:margins="rect(4,4,4,4)" v:tabSpace="42.5197"/>
			<v:textRect cx="66.6627" cy="1115.72" width="133.33" height="20"/>
			<rect x="0" y="1105.72" width="133.325" height="20" class="st4"/>
			<text x="23.86" y="1119.32" class="st5" v:langID="1044"><v:paragraph v:horizAlign="1"/><v:tabList/>Service Container</text>		</g>
		<g id="shape244-168" v:mID="244" v:groupContext="shape" transform="translate(778.36,-69.1567)">
			<title>Hard drive.23</title>
			<v:userDefs>
				<v:ud v:nameU="msvShapeCategories" v:prompt="" v:val="VT4(Icon)"/>
				<v:ud v:nameU="visVersion" v:prompt="" v:val="VT0(15):26"/>
			</v:userDefs>
			<path d="M30.65 1117.94 L30.65 1119.5 L6.13 1119.5 L6.13 1117.94 L30.65 1117.94 ZM30.65 1113.27 L30.65 1114.83 L6.13
						 1114.83 L6.13 1113.27 L30.65 1113.27 ZM42.91 1114.83 L42.91 1119.5 L38.31 1119.5 L38.31 1114.83 L42.91 1114.83
						 ZM45.97 1122.61 L45.97 1110.15 L3.06 1110.15 L3.06 1122.61 L45.97 1122.61 ZM12.23 1096.14 C11 1097.74 5.99
						 1104.28 3.88 1107.04 L45.15 1107.04 C43.04 1104.28 38.03 1097.74 36.81 1096.14 L12.23 1096.14 ZM48.1 1105.81
						 C48.62 1106.49 49.04 1107.74 49.04 1108.6 L49.04 1124.17 C49.04 1125.02 48.35 1125.72 47.51 1125.72 L1.53
						 1125.72 C0.69 1125.72 -0 1125.02 0 1124.17 L0 1108.6 C-0 1107.74 0.42 1106.49 0.94 1105.81 L9.79 1094.26
						 C10.3 1093.58 11.42 1093.03 12.26 1093.03 L36.78 1093.03 C37.62 1093.03 38.73 1093.58 39.25 1094.26 L48.1
						 1105.81 Z" class="st24"/>
		</g>
		<a xlink:href="/products/tjenester/3.0/solutions/runtime/">
			<g id="shape246-170" v:mID="246" v:groupContext="shape" transform="translate(188.187,-163.909)">
				<title>Rectangle.246</title>
				<v:userDefs>
					<v:ud v:nameU="visVersion" v:val="VT0(15):26"/>
				</v:userDefs>
				<g id="shadow246-171" v:groupContext="shadow" v:shadowOffsetX="0.345598" v:shadowOffsetY="-1.97279"
						v:shadowType="1" transform="matrix(1,0,0,1,0.345598,1.97279)" class="st1">
					<rect x="0" y="643.53" width="247.748" height="482.194" class="st11"/>
				</g>
				<rect x="0" y="643.53" width="247.748" height="482.194" class="st12"/>
			</g>
		</a>
		<g id="shape247-175" v:mID="247" v:groupContext="shape" transform="translate(207.612,-178.386)">
			<title>Sheet.247</title>
			<g id="shadow247-176" v:groupContext="shadow" v:shadowOffsetX="0.345598" v:shadowOffsetY="-1.97279" v:shadowType="1"
					transform="matrix(1,0,0,1,0.345598,1.97279)" class="st1">
				<rect x="0" y="681.252" width="211.181" height="444.472" class="st15"/>
			</g>
			<rect x="0" y="681.252" width="211.181" height="444.472" class="st17"/>
		</g>
		<g id="shape248-184" v:mID="248" v:groupContext="shape" transform="translate(198.675,-595.646)">
			<title>Sheet.248</title>
			<desc>GITEA</desc>
			<v:textBlock v:margins="rect(4,4,4,4)" v:tabSpace="42.5197"/>
			<v:textRect cx="42.5197" cy="1117.79" width="85.04" height="15.874"/>
			<rect x="0" y="1109.85" width="85.0394" height="15.874" class="st4"/>
			<text x="27.9" y="1121.39" class="st19" v:langID="1044"><v:paragraph v:horizAlign="1"/><v:tabList/>GITEA</text>		</g>
		<g id="shape249-187" v:mID="249" v:groupContext="shape" transform="translate(312.061,-107.52)">
			<title>Hard drive.249</title>
			<v:userDefs>
				<v:ud v:nameU="msvShapeCategories" v:prompt="" v:val="VT4(Icon)"/>
				<v:ud v:nameU="visVersion" v:prompt="" v:val="VT0(15):26"/>
			</v:userDefs>
			<path d="M21.26 1120.32 L21.26 1121.4 L4.25 1121.4 L4.25 1120.32 L21.26 1120.32 ZM21.26 1117.08 L21.26 1118.16 L4.25
						 1118.16 L4.25 1117.08 L21.26 1117.08 ZM29.76 1118.16 L29.76 1121.4 L26.57 1121.4 L26.57 1118.16 L29.76 1118.16
						 ZM31.89 1123.56 L31.89 1114.92 L2.13 1114.92 L2.13 1123.56 L31.89 1123.56 ZM8.48 1105.2 C7.63 1106.31 4.16
						 1110.85 2.69 1112.76 L31.32 1112.76 C29.86 1110.85 26.38 1106.31 25.53 1105.2 L8.48 1105.2 ZM33.36 1111.91
						 C33.72 1112.38 34.02 1113.25 34.02 1113.84 L34.02 1124.64 C34.02 1125.24 33.54 1125.72 32.95 1125.72 L1.06
						 1125.72 C0.48 1125.72 -0 1125.24 0 1124.64 L0 1113.84 C-0 1113.25 0.29 1112.38 0.65 1111.91 L6.79 1103.9
						 C7.15 1103.43 7.92 1103.04 8.5 1103.04 L25.51 1103.04 C26.1 1103.04 26.87 1103.43 27.23 1103.9 L33.36 1111.91
						 Z" class="st24"/>
		</g>
		<g id="shape250-189" v:mID="250" v:groupContext="shape" v:layerMember="1" transform="translate(234.108,-97.6003)">
			<title>Database.250</title>
			<desc>Gitea DB</desc>
			<v:custProps>
				<v:cp v:nameU="Cost" v:lbl="Cost" v:type="7" v:format="@" v:langID="1033"/>
				<v:cp v:nameU="Duration" v:lbl="Duration" v:type="2" v:langID="1033"/>
				<v:cp v:nameU="Resources" v:lbl="Resources" v:langID="1033"/>
			</v:custProps>
			<v:userDefs>
				<v:ud v:nameU="visVersion" v:val="VT0(15):26"/>
			</v:userDefs>
			<v:textBlock v:margins="rect(2,2,2,2)" v:tabSpace="42.5197"/>
			<v:textRect cx="21.2598" cy="1110.84" width="42.52" height="29.7638"/>
			<g id="shadow250-190" v:groupContext="shadow" v:shadowOffsetX="0.345598" v:shadowOffsetY="-1.97279" v:shadowType="1"
					transform="matrix(1,0,0,1,0.345598,1.97279)" class="st1">
				<path d="M0 1087.46 L0 1121.47 A21.2598 4.25197 -180 1 0 42.52 1121.47 L42.52 1087.46 A21.2598 4.25197 -180 0 0 0
							 1087.46 Z" class="st25"/>
				<path d="M0 1087.46 L0 1121.47 A21.2598 4.25197 -180 1 0 42.52 1121.47 L42.52 1087.46 A21.2598 4.25197 -180 0 0 0
							 1087.46" class="st26"/>
				<path d="M0 1087.46 A21.2598 4.25197 -180 0 0 42.52 1087.46" class="st26"/>
				<path d="M0 1089.58 A21.2598 4.25197 -180 1 0 42.52 1089.58" class="st26"/>
				<path d="M0 1091.71 A21.2598 4.25197 -180 0 0 42.52 1091.71" class="st26"/>
			</g>
			<path d="M0 1087.46 L0 1121.47 A21.2598 4.25197 -180 1 0 42.52 1121.47 L42.52 1087.46 A21.2598 4.25197 -180 0 0 0 1087.46
						 Z" class="st27"/>
			<path d="M0 1087.46 L0 1121.47 A21.2598 4.25197 -180 1 0 42.52 1121.47 L42.52 1087.46 A21.2598 4.25197 -180 0 0 0 1087.46"
					class="st28"/>
			<path d="M0 1087.46 A21.2598 4.25197 -180 0 0 42.52 1087.46" class="st28"/>
			<path d="M0 1089.58 A21.2598 4.25197 -180 1 0 42.52 1089.58" class="st28"/>
			<path d="M0 1091.71 A21.2598 4.25197 -180 0 0 42.52 1091.71" class="st28"/>
			<text x="7.03" y="1113.24" class="st29" v:langID="1044"><v:paragraph v:horizAlign="1"/><v:tabList/>Gitea DB</text>		</g>
		<g id="shape251-204" v:mID="251" v:groupContext="shape" transform="translate(-650.91,904.819) rotate(-90)">
			<title>Sheet.251</title>
			<desc>GIT</desc>
			<v:textBlock v:margins="rect(4,4,4,4)" v:tabSpace="42.5197"/>
			<v:textRect cx="46.7717" cy="1112.97" width="93.55" height="25.5118"/>
			<g id="shadow251-205" v:groupContext="shadow" v:shadowOffsetX="0.345598" v:shadowOffsetY="-1.97279" v:shadowType="1"
					transform="matrix(1,0,0,1,-1.97279,0.345598)" class="st1">
				<rect x="0" y="1100.21" width="93.5433" height="25.5118" class="st11"/>
			</g>
			<rect x="0" y="1100.21" width="93.5433" height="25.5118" class="st23"/>
			<text x="45.64" y="1116.57" class="st14" v:langID="1044"><v:paragraph v:indentLeft="14.17" v:horizAlign="1"/><v:tabList/>GIT</text>		</g>
		<g id="shape254-210" v:mID="254" v:groupContext="shape" transform="translate(486.772,-828.229)">
			<title>Sheet.254</title>
			<desc>Designer Front End</desc>
			<v:textBlock v:margins="rect(4,4,4,4)" v:tabSpace="42.5197"/>
			<v:textRect cx="56.6929" cy="1121.47" width="113.39" height="8.50394"/>
			<rect x="0" y="1117.22" width="113.386" height="8.50394" class="st4"/>
			<text x="10.12" y="1125.07" class="st5" v:langID="1044"><v:paragraph v:horizAlign="1"/><v:tabList/>Designer Front End</text>		</g>
		<a xlink:href="/products/tjenester/3.0/solutions/runtime/architecture/react-app/">
			<g id="shape256-213" v:mID="256" v:groupContext="shape" transform="translate(482.14,-710.591)">
				<title>Sheet.256</title>
				<g id="shadow256-214" v:groupContext="shadow" v:shadowOffsetX="0.345598" v:shadowOffsetY="-1.97279"
						v:shadowType="1" transform="matrix(1,0,0,1,0.345598,1.97279)" class="st1">
					<rect x="0" y="987.677" width="550.018" height="138.047" class="st11"/>
				</g>
				<rect x="0" y="987.677" width="550.018" height="138.047" class="st30"/>
			</g>
		</a>
		<g id="shape257-218" v:mID="257" v:groupContext="shape" transform="translate(762.867,-896.26)">
			<title>Sheet.257</title>
			<desc>DOM</desc>
			<v:textBlock v:margins="rect(4,4,4,4)" v:tabSpace="42.5197"/>
			<v:textRect cx="42.5197" cy="1112.97" width="85.04" height="25.5118"/>
			<g id="shadow257-219" v:groupContext="shadow" v:shadowOffsetX="0.345598" v:shadowOffsetY="-1.97279" v:shadowType="1"
					transform="matrix(1,0,0,1,0.345598,1.97279)" class="st1">
				<rect x="0" y="1100.21" width="85.0394" height="25.5118" class="st11"/>
			</g>
			<rect x="0" y="1100.21" width="85.0394" height="25.5118" class="st12"/>
			<text x="29.73" y="1116.57" class="st14" v:langID="1044"><v:paragraph v:horizAlign="1"/><v:tabList/>DOM</text>		</g>
		<g id="shape258-224" v:mID="258" v:groupContext="shape" transform="translate(762.867,-810.512)">
			<title>Sheet.258</title>
			<desc>REACT Component</desc>
			<v:textBlock v:margins="rect(4,4,4,4)" v:tabSpace="42.5197"/>
			<v:textRect cx="42.5197" cy="1112.97" width="85.04" height="25.5118"/>
			<g id="shadow258-225" v:groupContext="shadow" v:shadowOffsetX="0.345598" v:shadowOffsetY="-1.97279" v:shadowType="1"
					transform="matrix(1,0,0,1,0.345598,1.97279)" class="st1">
				<rect x="0" y="1100.21" width="85.0394" height="25.5118" class="st11"/>
			</g>
			<rect x="0" y="1100.21" width="85.0394" height="25.5118" class="st12"/>
			<text x="26.74" y="1109.37" class="st14" v:langID="1044"><v:paragraph v:horizAlign="1"/><v:tabList/>REACT <tspan
						x="13.75" dy="1.2em" class="st6">Component</tspan></text>		</g>
		<g id="shape259-231" v:mID="259" v:groupContext="shape" transform="translate(649.481,-740.355)">
			<title>Sheet.259</title>
			<desc>Action Creators</desc>
			<v:textBlock v:margins="rect(4,4,4,4)" v:tabSpace="42.5197"/>
			<v:textRect cx="42.5197" cy="1112.97" width="85.04" height="25.5118"/>
			<g id="shadow259-232" v:groupContext="shadow" v:shadowOffsetX="0.345598" v:shadowOffsetY="-1.97279" v:shadowType="1"
					transform="matrix(1,0,0,1,0.345598,1.97279)" class="st1">
				<rect x="0" y="1100.21" width="85.0394" height="25.5118" class="st11"/>
			</g>
			<rect x="0" y="1100.21" width="85.0394" height="25.5118" class="st12"/>
			<text x="4.69" y="1116.57" class="st14" v:langID="1044"><v:paragraph v:horizAlign="1"/><v:tabList/>Action Creators</text>		</g>
		<g id="shape260-237" v:mID="260" v:groupContext="shape" transform="translate(932.945,-735.409)">
			<title>Sheet.260</title>
			<desc>Store</desc>
			<v:textBlock v:margins="rect(4,4,4,4)" v:tabSpace="42.5197"/>
			<v:textRect cx="42.5197" cy="1112.97" width="85.04" height="25.5118"/>
			<g id="shadow260-238" v:groupContext="shadow" v:shadowOffsetX="0.345598" v:shadowOffsetY="-1.97279" v:shadowType="1"
					transform="matrix(1,0,0,1,0.345598,1.97279)" class="st1">
				<rect x="0" y="1100.21" width="85.0394" height="25.5118" class="st11"/>
			</g>
			<rect x="0" y="1100.21" width="85.0394" height="25.5118" class="st12"/>
			<text x="29.51" y="1116.57" class="st14" v:langID="1044"><v:paragraph v:horizAlign="1"/><v:tabList/>Store</text>		</g>
		<g id="shape261-243" v:mID="261" v:groupContext="shape" transform="translate(805.386,-740.355)">
			<title>Sheet.261</title>
			<desc>Reducers</desc>
			<v:textBlock v:margins="rect(4,4,4,4)" v:tabSpace="42.5197"/>
			<v:textRect cx="42.5197" cy="1112.97" width="85.04" height="25.5118"/>
			<g id="shadow261-244" v:groupContext="shadow" v:shadowOffsetX="0.345598" v:shadowOffsetY="-1.97279" v:shadowType="1"
					transform="matrix(1,0,0,1,0.345598,1.97279)" class="st1">
				<rect x="0" y="1100.21" width="85.0394" height="25.5118" class="st11"/>
			</g>
			<rect x="0" y="1100.21" width="85.0394" height="25.5118" class="st12"/>
			<text x="20.01" y="1116.57" class="st14" v:langID="1044"><v:paragraph v:horizAlign="1"/><v:tabList/>Reducers</text>		</g>
		<g id="shape262-249" v:mID="262" v:groupContext="shape" v:layerMember="0" transform="translate(762.867,-823.268)">
			<title>Dynamic connector.262</title>
			<desc>Dispatch action</desc>
			<v:userDefs>
				<v:ud v:nameU="visVersion" v:val="VT0(15):26"/>
			</v:userDefs>
			<v:textBlock v:margins="rect(4,4,4,4)" v:tabSpace="42.5197"/>
			<v:textRect cx="-64.1339" cy="1125.72" width="59.96" height="17.6036"/>
			<path d="M0 1125.72 L-70.87 1125.72 L-70.87 1176.09" class="st31"/>
			<rect v:rectContext="textBkgnd" x="-89.2076" y="1120.92" width="50.1476" height="9.59985" class="st32"/>
			<text x="-89.21" y="1128.12" class="st33" v:langID="1044"><v:paragraph v:horizAlign="1"/><v:tabList/>Dispatch action</text>		</g>
		<g id="shape263-257" v:mID="263" v:groupContext="shape" transform="translate(493.575,-731.866)">
			<title>Sheet.263</title>
			<desc>Saga Middleware</desc>
			<v:textBlock v:margins="rect(4,4,4,4)" v:tabSpace="42.5197"/>
			<v:textRect cx="42.5197" cy="1110.84" width="85.04" height="29.7638"/>
			<g id="shadow263-258" v:groupContext="shadow" v:shadowOffsetX="0.345598" v:shadowOffsetY="-1.97279" v:shadowType="1"
					transform="matrix(1,0,0,1,0.345598,1.97279)" class="st1">
				<rect x="0" y="1095.96" width="85.0394" height="29.7638" class="st11"/>
			</g>
			<rect x="0" y="1095.96" width="85.0394" height="29.7638" class="st12"/>
			<text x="31.19" y="1107.24" class="st14" v:langID="1044"><v:paragraph v:horizAlign="1"/><v:tabList/>Saga <tspan
						x="13.11" dy="1.2em" class="st6">Middleware</tspan></text>		</g>
		<g id="shape264-264" v:mID="264" v:groupContext="shape" v:layerMember="0" transform="translate(670.53,-841.552)">
			<title>Dynamic connector.264</title>
			<v:userDefs>
				<v:ud v:nameU="visVersion" v:val="VT0(15):26"/>
			</v:userDefs>
			<path d="M0 1118.64 L0 1111.55 L130.72 1111.55 A2.3622 2.3622 0 0 1 135.44 1111.55 L177.36 1111.55 L177.36 1111.6"
					class="st31"/>
		</g>
		<g id="shape265-269" v:mID="265" v:groupContext="shape" v:layerMember="0" transform="translate(734.52,-746.024)">
			<title>Dynamic connector.265</title>
			<desc>Receive Action</desc>
			<v:userDefs>
				<v:ud v:nameU="visVersion" v:val="VT0(15):26"/>
			</v:userDefs>
			<v:textBlock v:margins="rect(4,4,4,4)" v:tabSpace="42.5197"/>
			<v:textRect cx="35.4331" cy="1118.64" width="57.69" height="17.6036"/>
			<path d="M0 1118.64 L63.83 1118.64" class="st31"/>
			<rect v:rectContext="textBkgnd" x="11.4962" y="1113.84" width="47.874" height="9.59985" class="st32"/>
			<text x="11.5" y="1121.04" class="st33" v:langID="1044"><v:paragraph v:horizAlign="1"/><v:tabList/>Receive Action</text>		</g>
		<g id="shape266-276" v:mID="266" v:groupContext="shape" v:layerMember="0" transform="translate(890.426,-743.551)">
			<title>Dynamic connector.266</title>
			<desc>Updates</desc>
			<v:userDefs>
				<v:ud v:nameU="visVersion" v:val="VT0(15):26"/>
			</v:userDefs>
			<v:textBlock v:margins="rect(4,4,4,4)" v:tabSpace="42.5197"/>
			<v:textRect cx="21.2598" cy="1118.64" width="40" height="17.6036"/>
			<path d="M0 1118.64 L35.48 1118.64" class="st31"/>
			<rect v:rectContext="textBkgnd" x="7.67998" y="1113.84" width="27.1599" height="9.59985" class="st32"/>
			<text x="7.68" y="1121.04" class="st33" v:langID="1044"><v:paragraph v:horizAlign="1"/><v:tabList/>Updates</text>		</g>
		<g id="shape267-283" v:mID="267" v:groupContext="shape" v:layerMember="0" transform="translate(975.465,-760.921)">
			<title>Dynamic connector.267</title>
			<desc>Re render</desc>
			<v:userDefs>
				<v:ud v:nameU="visVersion" v:val="VT0(15):26"/>
			</v:userDefs>
			<v:textBlock v:margins="rect(4,4,4,4)" v:tabSpace="42.5197"/>
			<v:textRect cx="-32.6059" cy="1063.38" width="41.9" height="17.6036"/>
			<path d="M0 1125.72 L0 1063.38 L-120.52 1063.38" class="st31"/>
			<rect v:rectContext="textBkgnd" x="-48.6447" y="1058.58" width="32.0779" height="9.59985" class="st32"/>
			<text x="-48.64" y="1065.78" class="st33" v:langID="1044"><v:paragraph v:horizAlign="1"/><v:tabList/>Re render</text>		</g>
		<g id="shape268-290" v:mID="268" v:groupContext="shape" v:layerMember="0" transform="translate(578.615,-743.905)">
			<title>Dynamic connector.268</title>
			<desc>Dispatch Action</desc>
			<v:userDefs>
				<v:ud v:nameU="visVersion" v:val="VT0(15):26"/>
			</v:userDefs>
			<v:textBlock v:margins="rect(4,4,4,4)" v:tabSpace="42.5197"/>
			<v:textRect cx="35.4331" cy="1118.64" width="60.76" height="17.6036"/>
			<path d="M0 1118.64 L63.83 1118.64" class="st31"/>
			<rect v:rectContext="textBkgnd" x="9.96097" y="1113.84" width="50.9444" height="9.59985" class="st32"/>
			<text x="9.96" y="1121.04" class="st33" v:langID="1044"><v:paragraph v:horizAlign="1"/><v:tabList/>Dispatch Action</text>		</g>
		<g id="shape269-297" v:mID="269" v:groupContext="shape" v:layerMember="0" transform="translate(649.481,-736.815)">
			<title>Dynamic connector.269</title>
			<desc>Receive Action</desc>
			<v:userDefs>
				<v:ud v:nameU="visVersion" v:val="VT0(15):26"/>
			</v:userDefs>
			<v:textBlock v:margins="rect(4,4,4,4)" v:tabSpace="42.5197"/>
			<v:textRect cx="-35.4331" cy="1118.64" width="57.69" height="17.6036"/>
			<path d="M0 1118.64 L-63.83 1118.64" class="st31"/>
			<rect v:rectContext="textBkgnd" x="-59.37" y="1113.84" width="47.874" height="9.59985" class="st32"/>
			<text x="-59.37" y="1121.04" class="st33" v:langID="1044"><v:paragraph v:horizAlign="1"/><v:tabList/>Receive Action</text>		</g>
		<g id="shape270-304" v:mID="270" v:groupContext="shape" transform="translate(465.229,-828.433)">
			<title>Sheet.270</title>
			<desc>Service Designer React App</desc>
			<v:textBlock v:margins="rect(4,4,4,4)" v:tabSpace="42.5197"/>
			<v:textRect cx="79.3216" cy="1115.72" width="158.65" height="20"/>
			<rect x="0" y="1105.72" width="158.643" height="20" class="st4"/>
			<text x="20" y="1119.32" class="st5" v:langID="1044"><v:paragraph v:indentLeft="14.17" v:horizAlign="1"/><v:tabList/>Service Designer React App</text>		</g>
		<g id="group271-307" transform="translate(921.137,-850.41)" v:mID="271" v:groupContext="group">
			<v:custProps>
				<v:cp v:nameU="Name" v:lbl="Name" v:prompt="" v:type="0" v:format="" v:sortKey="" v:invis="false" v:ask="false"
						v:langID="1033" v:cal="0"/>
				<v:cp v:nameU="Location" v:lbl="Location" v:prompt="" v:type="0" v:format="" v:sortKey="" v:invis="false"
						v:ask="false" v:langID="1033" v:cal="0"/>
				<v:cp v:nameU="Building" v:lbl="Building" v:prompt="" v:type="0" v:format="" v:sortKey="" v:invis="false"
						v:ask="false" v:langID="1033" v:cal="0"/>
				<v:cp v:nameU="Room" v:lbl="Room" v:prompt="" v:type="0" v:format="" v:sortKey="" v:invis="false" v:ask="false"
						v:langID="1033" v:cal="0"/>
				<v:cp v:nameU="Department" v:lbl="Department" v:prompt="" v:type="0" v:format="" v:sortKey="" v:invis="false"
						v:ask="false" v:langID="1033" v:cal="0"/>
				<v:cp v:nameU="ShapeClass" v:lbl="ShapeClass" v:prompt="" v:type="0" v:format="" v:sortKey="" v:invis="true"
						v:ask="false" v:langID="1033" v:cal="0" v:val="VT4(Connectivity)"/>
				<v:cp v:nameU="ShapeType" v:lbl="ShapeType" v:prompt="" v:type="0" v:format="" v:sortKey="" v:invis="true"
						v:ask="false" v:langID="1033" v:cal="0" v:val="VT4(User)"/>
			</v:custProps>
			<v:userDefs>
				<v:ud v:nameU="visVersion" v:prompt="" v:val="VT0(15):26"/>
				<v:ud v:nameU="ShapeClass" v:prompt="" v:val="VT0(5):26"/>
				<v:ud v:nameU="SolSH" v:prompt="" v:val="VT15({BF0433D9-CD73-4EB5-8390-8653BE590246}):41"/>
				<v:ud v:nameU="visLegendShape" v:prompt="" v:val="VT0(2):26"/>
			</v:userDefs>
			<title>User.271</title>
			<g id="shape272-308" v:mID="272" v:groupContext="shape" transform="translate(18.0575,0)">
				<title>Sheet.272</title>
				<g id="shadow272-309" v:groupContext="shadow" v:shadowOffsetX="0.345598" v:shadowOffsetY="-1.97279"
						v:shadowType="1" transform="matrix(1,0,0,1,0.345598,1.97279)" class="st1">
					<path d="M26.29 1063.67 A8.81 8.81 -180 1 0 8.67 1063.67 A8.81 8.81 -180 1 0 26.29 1063.67 ZM27.58 1074.86 L7.17
								 1074.86 C3.22 1074.86 0 1078.07 0 1082.03 L0 1107.03 L5.59 1107.03 L5.59 1092.48 L7.45 1092.48 L7.45
								 1125.72 L16.55 1125.72 L16.55 1110.87 C16.55 1110.35 16.97 1109.93 17.48 1109.93 C18 1109.93 18.42
								 1110.35 18.42 1110.87 L18.42 1125.72 L28.04 1125.72 L28.04 1092.42 L29.91 1092.42 L29.91 1107.03
								 L34.75 1107.03 L34.75 1082.03 C34.75 1078.07 31.54 1074.86 27.58 1074.86 Z" class="st11"/>
				</g>
				<path d="M26.29 1063.67 A8.81 8.81 -180 1 0 8.67 1063.67 A8.81 8.81 -180 1 0 26.29 1063.67 ZM27.58 1074.86 L7.17
							 1074.86 C3.22 1074.86 0 1078.07 0 1082.03 L0 1107.03 L5.59 1107.03 L5.59 1092.48 L7.45 1092.48 L7.45
							 1125.72 L16.55 1125.72 L16.55 1110.87 C16.55 1110.35 16.97 1109.93 17.48 1109.93 C18 1109.93 18.42 1110.35
							 18.42 1110.87 L18.42 1125.72 L28.04 1125.72 L28.04 1092.42 L29.91 1092.42 L29.91 1107.03 L34.75 1107.03
							 L34.75 1082.03 C34.75 1078.07 31.54 1074.86 27.58 1074.86 Z" class="st12"/>
			</g>
		</g>
		<g id="shape273-313" v:mID="273" v:groupContext="shape" v:layerMember="0" transform="translate(796.521,-896.26)">
			<title>Dynamic connector.273</title>
			<v:userDefs>
				<v:ud v:nameU="visVersion" v:val="VT0(15):26"/>
			</v:userDefs>
			<path d="M7.09 1125.72 L7.09 1178.92" class="st31"/>
		</g>
		<g id="shape274-318" v:mID="274" v:groupContext="shape" v:layerMember="0" transform="translate(956.57,-901.93)">
			<title>Dynamic connector.274</title>
			<v:userDefs>
				<v:ud v:nameU="visVersion" v:val="VT0(15):26"/>
			</v:userDefs>
			<path d="M0 1118.64 L-101.62 1118.64" class="st31"/>
		</g>
	</g>
</svg>
