<?xml version="1.0" encoding="UTF-8" standalone="no"?>
<!DOCTYPE svg PUBLIC "-//W3C//DTD SVG 1.1//EN" "http://www.w3.org/Graphics/SVG/1.1/DTD/svg11.dtd">
<!-- Generated by Microsoft Visio, SVG Export AltinnApps_SolutionArchitecture.svg Page-1 -->
<svg xmlns="http://www.w3.org/2000/svg" xmlns:xlink="http://www.w3.org/1999/xlink" xmlns:ev="http://www.w3.org/2001/xml-events"
		xmlns:v="http://schemas.microsoft.com/visio/2003/SVGExtensions/" width="12.1225in" height="6.69074in"
		viewBox="0 0 872.817 481.734" xml:space="preserve" color-interpolation-filters="sRGB" class="st22">
	<v:documentProperties v:langID="1033" v:metric="true" v:viewMarkup="false">
		<v:userDefs>
			<v:ud v:nameU="DisableSpdActionTags" v:prompt="" v:val="VT0(0):26"/>
		</v:userDefs>
	</v:documentProperties>

	<style type="text/css">
	<![CDATA[
		.st1 {fill:none;stroke:none;stroke-width:0.25}
		.st2 {fill:#000000;font-family:Calibri;font-size:1.00001em}
		.st3 {visibility:visible}
		.st4 {fill:#5b9bd5;fill-opacity:0.22;filter:url(#filter_2);stroke:#5b9bd5;stroke-opacity:0.22}
		.st5 {fill:#ffffff;stroke:#c7c8c8;stroke-width:0.25}
		.st6 {fill:#7f7f7f;font-family:Calibri;font-size:1.33333em;font-weight:bold}
		.st7 {fill:#5b9bd5;fill-opacity:0.22;filter:url(#filter_2)}
		.st8 {fill:none;filter:url(#filter_2);stroke:#5b9bd5;stroke-opacity:0.22}
		.st9 {fill:#5b9bd5}
		.st10 {stroke:#c8c8c8;stroke-width:0.25}
		.st11 {fill:#feffff;font-family:Calibri;font-size:0.666664em}
		.st12 {fill:#4a80b1;stroke:none;stroke-linecap:butt;stroke-width:0.75}
		.st13 {fill:#ffc000;stroke:#c7c8c8;stroke-width:0.25}
		.st14 {fill:#feffff;font-family:Calibri;font-size:0.833336em}
		.st15 {fill:#5b9bd5;stroke:#c7c8c8;stroke-width:0.25}
		.st16 {fill:#bdd0e9;stroke:#c7c8c8;stroke-width:0.25}
		.st17 {fill:#000000;font-family:Calibri;font-size:0.75em}
		.st18 {fill:#92d050;stroke:#c7c8c8;stroke-width:0.25}
		.st19 {fill:none;filter:url(#filter_2);stroke:#5b9bd5;stroke-dasharray:33.75,20.25;stroke-opacity:0.22}
		.st20 {fill:none;stroke:#c7c8c8;stroke-dasharray:33.75,20.25;stroke-width:2.25}
		.st21 {fill:#5b9bd5;font-family:Calibri;font-size:3em}
		.st22 {fill:none;fill-rule:evenodd;font-size:12px;overflow:visible;stroke-linecap:square;stroke-miterlimit:3}
	]]>
	</style>

	<defs id="Filters">
		<filter id="filter_2">
			<feGaussianBlur stdDeviation="2"/>
		</filter>
	</defs>
	<g v:mID="0" v:index="1" v:groupContext="foregroundPage">
		<title>Page-1</title>
		<v:pageProperties v:drawingScale="0.0393701" v:pageScale="0.0393701" v:drawingUnits="24" v:shadowOffsetX="8.50394"
				v:shadowOffsetY="-8.50394"/>
		<v:layer v:name="Flowchart" v:index="0"/>
		<g id="shape267-1" v:mID="267" v:groupContext="shape" transform="translate(111.496,-170.922)">
			<title>Sheet.267</title>
			<desc>External Datasources</desc>
			<v:textBlock v:margins="rect(4,4,4,4)" v:tabSpace="42.5197"/>
			<v:textRect cx="70.8661" cy="474.647" width="141.74" height="14.1732"/>
			<rect x="0" y="467.56" width="141.732" height="14.1732" class="st1"/>
			<text x="4" y="478.25" class="st2" v:langID="1044"><v:paragraph/><v:tabList/>External Datasources</text>		</g>
		<g id="shape273-4" v:mID="273" v:groupContext="shape" transform="translate(102.992,-76.9639)">
			<title>Cloud</title>
			<desc>Cloud</desc>
			<v:userDefs>
				<v:ud v:nameU="SolSH"/>
				<v:ud v:nameU="ShapeType" v:val="VT0(1):26"/>
				<v:ud v:nameU="shapelook" v:val="VT0(2):26"/>
				<v:ud v:nameU="visVersion" v:val="VT0(15):26"/>
			</v:userDefs>
			<v:textBlock v:margins="rect(0,0,0,0)" v:tabSpace="42.5197"/>
			<v:textRect cx="75.9685" cy="451.054" width="151.94" height="61.3592"/>
			<g id="shadow273-5" v:groupContext="shadow" v:shadowOffsetX="0.345598" v:shadowOffsetY="-1.97279" v:shadowType="1"
					transform="matrix(1,0,0,1,0.345598,1.97279)" class="st3">
				<path d="M56.44 428.82 A24.0489 15.7702 0 0 1 98.86 428.62 A17.6515 11.575 0 0 1 129.22 432.44 A17.7522 11.6411 0
							 0 1 150.19 438.31 A13.3913 8.7814 0 0 1 143.07 448.96 A15.1229 9.9169 0 0 1 131.47 467.27 A27.2324 17.8577
							 0 0 1 93.55 476.48 A34.2977 22.4909 0 0 1 45.96 474.24 A18.8747 12.3771 0 0 1 12.76 464.27 A13.6389
							 8.94375 0 0 1 12.82 446.41 A11.6698 7.6525 0 1 1 22.24 432.41 A18.2944 11.9966 0 0 1 56.44 428.82 Z"
						class="st4"/>
			</g>
			<path d="M56.44 428.82 A24.0489 15.7702 0 0 1 98.86 428.62 A17.6515 11.575 0 0 1 129.22 432.44 A17.7522 11.6411 0 0 1
						 150.19 438.31 A13.3913 8.7814 0 0 1 143.07 448.96 A15.1229 9.9169 0 0 1 131.47 467.27 A27.2324 17.8577 0
						 0 1 93.55 476.48 A34.2977 22.4909 0 0 1 45.96 474.24 A18.8747 12.3771 0 0 1 12.76 464.27 A13.6389 8.94375
						 0 0 1 12.82 446.41 A11.6698 7.6525 0 1 1 22.24 432.41 A18.2944 11.9966 0 0 1 56.44 428.82 Z" class="st5"/>
			<text x="56.88" y="455.85" class="st6" v:langID="1033"><v:paragraph v:horizAlign="1"/><v:tabList/>Cloud</text>		</g>
		<g id="shape401-10" v:mID="401" v:groupContext="shape" v:layerMember="0" transform="translate(317.008,-154.917)">
			<title>Database.401</title>
			<desc>Data</desc>
			<v:custProps>
				<v:cp v:nameU="Cost" v:lbl="Cost" v:type="7" v:format="@" v:langID="1033"/>
				<v:cp v:nameU="Duration" v:lbl="Duration" v:type="2" v:langID="1033"/>
				<v:cp v:nameU="Resources" v:lbl="Resources" v:langID="1033"/>
			</v:custProps>
			<v:userDefs>
				<v:ud v:nameU="visVersion" v:val="VT0(15):26"/>
			</v:userDefs>
			<v:textBlock v:margins="rect(2,2,2,2)" v:tabSpace="42.5197"/>
			<v:textRect cx="21.2598" cy="466.852" width="42.52" height="29.7638"/>
			<g id="shadow401-11" v:groupContext="shadow" v:shadowOffsetX="0.345598" v:shadowOffsetY="-1.97279" v:shadowType="1"
					transform="matrix(1,0,0,1,0.345598,1.97279)" class="st3">
				<path d="M0 443.47 L0 477.48 A21.2598 4.25197 -180 1 0 42.52 477.48 L42.52 443.47 A21.2598 4.25197 -180 0 0 0 443.47
							 Z" class="st7"/>
				<path d="M0 443.47 L0 477.48 A21.2598 4.25197 -180 1 0 42.52 477.48 L42.52 443.47 A21.2598 4.25197 -180 0 0 0 443.47"
						class="st8"/>
				<path d="M0 443.47 A21.2598 4.25197 -180 0 0 42.52 443.47" class="st8"/>
				<path d="M0 445.59 A21.2598 4.25197 -180 1 0 42.52 445.59" class="st8"/>
				<path d="M0 447.72 A21.2598 4.25197 -180 0 0 42.52 447.72" class="st8"/>
			</g>
			<path d="M0 443.47 L0 477.48 A21.2598 4.25197 -180 1 0 42.52 477.48 L42.52 443.47 A21.2598 4.25197 -180 0 0 0 443.47 Z"
					class="st9"/>
			<path d="M0 443.47 L0 477.48 A21.2598 4.25197 -180 1 0 42.52 477.48 L42.52 443.47 A21.2598 4.25197 -180 0 0 0 443.47"
					class="st10"/>
			<path d="M0 443.47 A21.2598 4.25197 -180 0 0 42.52 443.47" class="st10"/>
			<path d="M0 445.59 A21.2598 4.25197 -180 1 0 42.52 445.59" class="st10"/>
			<path d="M0 447.72 A21.2598 4.25197 -180 0 0 42.52 447.72" class="st10"/>
			<text x="13.63" y="469.25" class="st11" v:langID="1044"><v:paragraph v:horizAlign="1"/><v:tabList/>Data</text>		</g>
		<g id="shape410-25" v:mID="410" v:groupContext="shape" transform="translate(414.803,-154.917)">
			<title>Hard drive</title>
			<v:userDefs>
				<v:ud v:nameU="msvShapeCategories" v:prompt="" v:val="VT4(Icon)"/>
				<v:ud v:nameU="visVersion" v:prompt="" v:val="VT0(15):26"/>
			</v:userDefs>
			<path d="M31.89 473.63 L31.89 475.25 L6.38 475.25 L6.38 473.63 L31.89 473.63 ZM31.89 468.78 L31.89 470.4 L6.38 470.4
						 L6.38 468.78 L31.89 468.78 ZM44.64 470.4 L44.64 475.25 L39.86 475.25 L39.86 470.4 L44.64 470.4 ZM47.83 478.49
						 L47.83 465.54 L3.19 465.54 L3.19 478.49 L47.83 478.49 ZM12.72 450.96 C11.45 452.62 6.24 459.43 4.04 462.3
						 L46.98 462.3 C44.78 459.43 39.57 452.62 38.3 450.96 L12.72 450.96 ZM50.04 461.02 C50.58 461.72 51.02 463.02
						 51.02 463.92 L51.02 480.11 C51.02 481 50.3 481.73 49.42 481.73 L1.59 481.73 C0.72 481.73 -0 481 0 480.11
						 L0 463.92 C-0 463.02 0.44 461.72 0.98 461.02 L10.18 449 C10.72 448.29 11.88 447.72 12.75 447.72 L38.26 447.72
						 C39.14 447.72 40.3 448.29 40.84 449 L50.04 461.02 Z" class="st12"/>
		</g>
		<g id="shape472-27" v:mID="472" v:groupContext="shape" transform="translate(88.8187,-462.476)">
			<title>Rectangle.472</title>
			<desc>REST -API</desc>
			<v:userDefs>
				<v:ud v:nameU="visVersion" v:val="VT0(15):26"/>
			</v:userDefs>
			<v:textBlock v:margins="rect(4,4,4,4)" v:tabSpace="42.5197"/>
			<v:textRect cx="269.291" cy="474.647" width="538.59" height="14.1732"/>
			<g id="shadow472-28" v:groupContext="shadow" v:shadowOffsetX="0.345598" v:shadowOffsetY="-1.97279" v:shadowType="1"
					transform="matrix(1,0,0,1,0.345598,1.97279)" class="st3">
				<rect x="0" y="467.56" width="538.583" height="14.1732" class="st4"/>
			</g>
			<rect x="0" y="467.56" width="538.583" height="14.1732" class="st13"/>
			<text x="250" y="477.65" class="st14" v:langID="1044"><v:paragraph v:horizAlign="1"/><v:tabList/>REST -API</text>		</g>
		<g id="shape480-33" v:mID="480" v:groupContext="shape" transform="translate(89.5274,-218.696)">
			<title>Rectangle.480</title>
			<v:userDefs>
				<v:ud v:nameU="visVersion" v:val="VT0(15):26"/>
			</v:userDefs>
			<g id="shadow480-34" v:groupContext="shadow" v:shadowOffsetX="0.345598" v:shadowOffsetY="-1.97279" v:shadowType="1"
					transform="matrix(1,0,0,1,0.345598,1.97279)" class="st3">
				<rect x="0" y="240.789" width="113.386" height="240.945" class="st4"/>
			</g>
			<rect x="0" y="240.789" width="113.386" height="240.945" class="st15"/>
		</g>
		<a xlink:href="/Content/RedirectToContent/?ContentType=Resource&#38;Title=Archive">
			<g id="shape481-38" v:mID="481" v:groupContext="shape" transform="translate(95.1966,-227.2)">
				<title>Sheet.481</title>
				<g id="shadow481-39" v:groupContext="shadow" v:shadowOffsetX="0.345598" v:shadowOffsetY="-1.97279" v:shadowType="1"
						transform="matrix(1,0,0,1,0.345598,1.97279)" class="st3">
					<rect x="0" y="311.655" width="99.2126" height="170.079" class="st4"/>
				</g>
				<rect x="0" y="311.655" width="99.2126" height="170.079" class="st16"/>
			</g>
		</a>
		<g id="shape482-43" v:mID="482" v:groupContext="shape" transform="translate(89.5274,-441.216)">
			<title>Sheet.482</title>
			<desc>Storage</desc>
			<v:textBlock v:margins="rect(4,4,4,4)" v:tabSpace="42.5197"/>
			<v:textRect cx="59.8819" cy="474.647" width="119.77" height="14.1732"/>
			<rect x="0" y="467.56" width="119.764" height="14.1732" class="st1"/>
			<text x="4" y="477.35" class="st17" v:langID="1044"><v:paragraph/><v:tabList/>Storage</text>		</g>
		<g id="shape483-46" v:mID="483" v:groupContext="shape" transform="translate(-355.356,248.864) rotate(-90)">
			<title>Rectangle.483</title>
			<desc>Instance</desc>
			<v:userDefs>
				<v:ud v:nameU="visVersion" v:val="VT0(15):26"/>
			</v:userDefs>
			<v:textBlock v:margins="rect(4,4,4,4)" v:tabSpace="42.5197"/>
			<v:textRect cx="63.7795" cy="468.978" width="127.56" height="25.5118"/>
			<g id="shadow483-47" v:groupContext="shadow" v:shadowOffsetX="0.345598" v:shadowOffsetY="-1.97279" v:shadowType="1"
					transform="matrix(1,0,0,1,-1.97279,0.345598)" class="st3">
				<rect x="0" y="456.222" width="127.559" height="25.5118" class="st4"/>
			</g>
			<rect x="0" y="456.222" width="127.559" height="25.5118" class="st18"/>
			<text x="50.07" y="471.38" class="st11" v:langID="1044"><v:paragraph v:horizAlign="1"/><v:tabList/>Instance</text>		</g>
		<g id="shape484-52" v:mID="484" v:groupContext="shape" transform="translate(-324.175,248.864) rotate(-90)">
			<title>Rectangle.484</title>
			<desc>MetaData</desc>
			<v:userDefs>
				<v:ud v:nameU="visVersion" v:val="VT0(15):26"/>
			</v:userDefs>
			<v:textBlock v:margins="rect(4,4,4,4)" v:tabSpace="42.5197"/>
			<v:textRect cx="63.7795" cy="468.978" width="127.56" height="25.5118"/>
			<g id="shadow484-53" v:groupContext="shadow" v:shadowOffsetX="0.345598" v:shadowOffsetY="-1.97279" v:shadowType="1"
					transform="matrix(1,0,0,1,-1.97279,0.345598)" class="st3">
				<rect x="0" y="456.222" width="127.559" height="25.5118" class="st4"/>
			</g>
			<rect x="0" y="456.222" width="127.559" height="25.5118" class="st18"/>
			<text x="47.48" y="471.38" class="st11" v:langID="1044"><v:paragraph v:horizAlign="1"/><v:tabList/>MetaData</text>		</g>
		<g id="shape597-58" v:mID="597" v:groupContext="shape" transform="translate(207.874,-218.696)">
			<title>Rectangle.597</title>
			<v:userDefs>
				<v:ud v:nameU="visVersion" v:val="VT0(15):26"/>
			</v:userDefs>
			<g id="shadow597-59" v:groupContext="shadow" v:shadowOffsetX="0.345598" v:shadowOffsetY="-1.97279" v:shadowType="1"
					transform="matrix(1,0,0,1,0.345598,1.97279)" class="st3">
				<rect x="0" y="240.789" width="131.811" height="240.945" class="st4"/>
			</g>
			<rect x="0" y="240.789" width="131.811" height="240.945" class="st15"/>
		</g>
		<a xlink:href="/Content/RedirectToContent/?ContentType=Resource&#38;Title=Archive">
			<g id="shape598-63" v:mID="598" v:groupContext="shape" transform="translate(213.543,-227.2)">
				<title>Sheet.598</title>
				<g id="shadow598-64" v:groupContext="shadow" v:shadowOffsetX="0.345598" v:shadowOffsetY="-1.97279" v:shadowType="1"
						transform="matrix(1,0,0,1,0.345598,1.97279)" class="st3">
					<rect x="0" y="311.655" width="119.764" height="170.079" class="st4"/>
				</g>
				<rect x="0" y="311.655" width="119.764" height="170.079" class="st16"/>
			</g>
		</a>
		<g id="shape599-68" v:mID="599" v:groupContext="shape" transform="translate(207.874,-441.216)">
			<title>Sheet.599</title>
			<desc>Authorization</desc>
			<v:textBlock v:margins="rect(4,4,4,4)" v:tabSpace="42.5197"/>
			<v:textRect cx="70.8661" cy="474.647" width="141.74" height="14.1732"/>
			<rect x="0" y="467.56" width="141.732" height="14.1732" class="st1"/>
			<text x="4" y="477.35" class="st17" v:langID="1044"><v:paragraph/><v:tabList/>Authorization</text>		</g>
		<g id="shape600-71" v:mID="600" v:groupContext="shape" transform="translate(-240.553,248.864) rotate(-90)">
			<title>Rectangle.600</title>
			<desc>Policy Decision Point</desc>
			<v:userDefs>
				<v:ud v:nameU="visVersion" v:val="VT0(15):26"/>
			</v:userDefs>
			<v:textBlock v:margins="rect(4,4,4,4)" v:tabSpace="42.5197"/>
			<v:textRect cx="63.7795" cy="468.978" width="127.56" height="25.5118"/>
			<g id="shadow600-72" v:groupContext="shadow" v:shadowOffsetX="0.345598" v:shadowOffsetY="-1.97279" v:shadowType="1"
					transform="matrix(1,0,0,1,-1.97279,0.345598)" class="st3">
				<rect x="0" y="456.222" width="127.559" height="25.5118" class="st4"/>
			</g>
			<rect x="0" y="456.222" width="127.559" height="25.5118" class="st18"/>
			<text x="30.17" y="471.38" class="st11" v:langID="1044"><v:paragraph v:horizAlign="1"/><v:tabList/>Policy Decision Point</text>		</g>
		<g id="shape602-77" v:mID="602" v:groupContext="shape" transform="translate(-292.994,248.864) rotate(-90)">
			<title>Rectangle.602</title>
			<desc>Workflow</desc>
			<v:userDefs>
				<v:ud v:nameU="visVersion" v:val="VT0(15):26"/>
			</v:userDefs>
			<v:textBlock v:margins="rect(4,4,4,4)" v:tabSpace="42.5197"/>
			<v:textRect cx="63.7795" cy="468.978" width="127.56" height="25.5118"/>
			<g id="shadow602-78" v:groupContext="shadow" v:shadowOffsetX="0.345598" v:shadowOffsetY="-1.97279" v:shadowType="1"
					transform="matrix(1,0,0,1,-1.97279,0.345598)" class="st3">
				<rect x="0" y="456.222" width="127.559" height="25.5118" class="st4"/>
			</g>
			<rect x="0" y="456.222" width="127.559" height="25.5118" class="st18"/>
			<text x="47.79" y="471.38" class="st11" v:langID="1044"><v:paragraph v:horizAlign="1"/><v:tabList/>Workflow</text>		</g>
		<g id="shape607-83" v:mID="607" v:groupContext="shape" transform="translate(342.519,-218.696)">
			<title>Rectangle.607</title>
			<v:userDefs>
				<v:ud v:nameU="visVersion" v:val="VT0(15):26"/>
			</v:userDefs>
			<g id="shadow607-84" v:groupContext="shadow" v:shadowOffsetX="0.345598" v:shadowOffsetY="-1.97279" v:shadowType="1"
					transform="matrix(1,0,0,1,0.345598,1.97279)" class="st3">
				<rect x="0" y="240.789" width="75.1181" height="240.945" class="st4"/>
			</g>
			<rect x="0" y="240.789" width="75.1181" height="240.945" class="st15"/>
		</g>
		<a xlink:href="/Content/RedirectToContent/?ContentType=Resource&#38;Title=Archive">
			<g id="shape608-88" v:mID="608" v:groupContext="shape" transform="translate(345.354,-227.2)">
				<title>Sheet.608</title>
				<g id="shadow608-89" v:groupContext="shadow" v:shadowOffsetX="0.345598" v:shadowOffsetY="-1.97279" v:shadowType="1"
						transform="matrix(1,0,0,1,0.345598,1.97279)" class="st3">
					<rect x="0" y="311.655" width="65.1969" height="170.079" class="st4"/>
				</g>
				<rect x="0" y="311.655" width="65.1969" height="170.079" class="st16"/>
			</g>
		</a>
		<g id="shape612-93" v:mID="612" v:groupContext="shape" transform="translate(344.645,-442.633)">
			<title>Sheet.612</title>
			<desc>Authentication</desc>
			<v:textBlock v:margins="rect(4,4,4,4)" v:tabSpace="42.5197"/>
			<v:textRect cx="59.8819" cy="474.647" width="119.77" height="14.1732"/>
			<rect x="0" y="467.56" width="119.764" height="14.1732" class="st1"/>
			<text x="4" y="477.35" class="st17" v:langID="1044"><v:paragraph/><v:tabList/>Authentication</text>		</g>
		<g id="shape613-96" v:mID="613" v:groupContext="shape" transform="translate(-109.45,248.864) rotate(-90)">
			<title>Rectangle.613</title>
			<desc>Authentiation</desc>
			<v:userDefs>
				<v:ud v:nameU="visVersion" v:val="VT0(15):26"/>
			</v:userDefs>
			<v:textBlock v:margins="rect(4,4,4,4)" v:tabSpace="42.5197"/>
			<v:textRect cx="63.7795" cy="468.978" width="127.56" height="25.5118"/>
			<g id="shadow613-97" v:groupContext="shadow" v:shadowOffsetX="0.345598" v:shadowOffsetY="-1.97279" v:shadowType="1"
					transform="matrix(1,0,0,1,-1.97279,0.345598)" class="st3">
				<rect x="0" y="456.222" width="127.559" height="25.5118" class="st4"/>
			</g>
			<rect x="0" y="456.222" width="127.559" height="25.5118" class="st18"/>
			<text x="41.19" y="471.38" class="st11" v:langID="1044"><v:paragraph v:horizAlign="1"/><v:tabList/>Authentiation</text>		</g>
		<g id="shape615-102" v:mID="615" v:groupContext="shape" transform="translate(-212.206,248.864) rotate(-90)">
			<title>Rectangle.615</title>
			<desc>Policy Information Point</desc>
			<v:userDefs>
				<v:ud v:nameU="visVersion" v:val="VT0(15):26"/>
			</v:userDefs>
			<v:textBlock v:margins="rect(4,4,4,4)" v:tabSpace="42.5197"/>
			<v:textRect cx="63.7795" cy="468.978" width="127.56" height="25.5118"/>
			<g id="shadow615-103" v:groupContext="shadow" v:shadowOffsetX="0.345598" v:shadowOffsetY="-1.97279" v:shadowType="1"
					transform="matrix(1,0,0,1,-1.97279,0.345598)" class="st3">
				<rect x="0" y="456.222" width="127.559" height="25.5118" class="st4"/>
			</g>
			<rect x="0" y="456.222" width="127.559" height="25.5118" class="st18"/>
			<text x="24.51" y="471.38" class="st11" v:langID="1044"><v:paragraph v:horizAlign="1"/><v:tabList/>Policy Information Point</text>		</g>
		<g id="shape616-108" v:mID="616" v:groupContext="shape" transform="translate(-183.86,248.864) rotate(-90)">
			<title>Rectangle.616</title>
			<desc>Policy Retrieval Point</desc>
			<v:userDefs>
				<v:ud v:nameU="visVersion" v:val="VT0(15):26"/>
			</v:userDefs>
			<v:textBlock v:margins="rect(4,4,4,4)" v:tabSpace="42.5197"/>
			<v:textRect cx="63.7795" cy="468.978" width="127.56" height="25.5118"/>
			<g id="shadow616-109" v:groupContext="shadow" v:shadowOffsetX="0.345598" v:shadowOffsetY="-1.97279" v:shadowType="1"
					transform="matrix(1,0,0,1,-1.97279,0.345598)" class="st3">
				<rect x="0" y="456.222" width="127.559" height="25.5118" class="st4"/>
			</g>
			<rect x="0" y="456.222" width="127.559" height="25.5118" class="st18"/>
			<text x="29.48" y="471.38" class="st11" v:langID="1044"><v:paragraph v:horizAlign="1"/><v:tabList/>Policy Retrieval Point</text>		</g>
		<g id="shape618-114" v:mID="618" v:groupContext="shape" transform="translate(-155.513,248.864) rotate(-90)">
			<title>Rectangle.618</title>
			<desc>Context Handler</desc>
			<v:userDefs>
				<v:ud v:nameU="visVersion" v:val="VT0(15):26"/>
			</v:userDefs>
			<v:textBlock v:margins="rect(4,4,4,4)" v:tabSpace="42.5197"/>
			<v:textRect cx="63.7795" cy="468.978" width="127.56" height="25.5118"/>
			<g id="shadow618-115" v:groupContext="shadow" v:shadowOffsetX="0.345598" v:shadowOffsetY="-1.97279" v:shadowType="1"
					transform="matrix(1,0,0,1,-1.97279,0.345598)" class="st3">
				<rect x="0" y="456.222" width="127.559" height="25.5118" class="st4"/>
			</g>
			<rect x="0" y="456.222" width="127.559" height="25.5118" class="st18"/>
			<text x="37.22" y="471.38" class="st11" v:langID="1044"><v:paragraph v:horizAlign="1"/><v:tabList/>Context Handler</text>		</g>
		<g id="shape619-120" v:mID="619" v:groupContext="shape" transform="translate(3.77944,-6.09779)">
			<title>Rectangle.619</title>
			<v:userDefs>
				<v:ud v:nameU="visVersion" v:val="VT0(15):26"/>
			</v:userDefs>
			<g id="shadow619-121" v:groupContext="shadow" v:shadowOffsetX="0.345598" v:shadowOffsetY="-1.97279" v:shadowType="1"
					transform="matrix(1,0,0,1,0.345598,1.97279)" class="st3">
				<path d="M0 481.73 L864.57 481.73 L864.57 8.35 L0 8.35 L0 481.73 Z" class="st19"/>
			</g>
			<path d="M0 481.73 L864.57 481.73 L864.57 8.35 L0 8.35 L0 481.73 Z" class="st20"/>
		</g>
		<g id="shape620-125" v:mID="620" v:groupContext="shape" transform="translate(17.9525,-20.271)">
			<title>Sheet.620</title>
			<desc>Altinn Platform</desc>
			<v:textBlock v:margins="rect(4,4,4,4)" v:tabSpace="42.5197"/>
			<v:textRect cx="148.819" cy="467.56" width="297.64" height="28.3465"/>
			<rect x="0" y="453.387" width="297.638" height="28.3465" class="st1"/>
			<text x="4" y="478.36" class="st21" v:langID="1044"><v:paragraph/><v:tabList/>Altinn Platform</text>		</g>
		<g id="shape621-128" v:mID="621" v:groupContext="shape" transform="translate(420.472,-218.696)">
			<title>Rectangle.621</title>
			<v:userDefs>
				<v:ud v:nameU="visVersion" v:val="VT0(15):26"/>
			</v:userDefs>
			<g id="shadow621-129" v:groupContext="shadow" v:shadowOffsetX="0.345598" v:shadowOffsetY="-1.97279" v:shadowType="1"
					transform="matrix(1,0,0,1,0.345598,1.97279)" class="st3">
				<rect x="0" y="240.789" width="42.5197" height="240.945" class="st4"/>
			</g>
			<rect x="0" y="240.789" width="42.5197" height="240.945" class="st15"/>
		</g>
		<a xlink:href="/Content/RedirectToContent/?ContentType=Resource&#38;Title=Archive">
			<g id="shape622-133" v:mID="622" v:groupContext="shape" transform="translate(423.307,-227.2)">
				<title>Sheet.622</title>
				<g id="shadow622-134" v:groupContext="shadow" v:shadowOffsetX="0.345598" v:shadowOffsetY="-1.97279"
						v:shadowType="1" transform="matrix(1,0,0,1,0.345598,1.97279)" class="st3">
					<rect x="0" y="311.655" width="36.8504" height="170.079" class="st4"/>
				</g>
				<rect x="0" y="311.655" width="36.8504" height="170.079" class="st16"/>
			</g>
		</a>
		<g id="shape625-138" v:mID="625" v:groupContext="shape" transform="translate(422.598,-442.633)">
			<title>Sheet.625</title>
			<desc>Profile</desc>
			<v:textBlock v:margins="rect(4,4,4,4)" v:tabSpace="42.5197"/>
			<v:textRect cx="59.8819" cy="474.647" width="119.77" height="14.1732"/>
			<rect x="0" y="467.56" width="119.764" height="14.1732" class="st1"/>
			<text x="4" y="477.35" class="st17" v:langID="1044"><v:paragraph/><v:tabList/>Profile</text>		</g>
		<g id="shape626-141" v:mID="626" v:groupContext="shape" transform="translate(-31.4976,248.864) rotate(-90)">
			<title>Rectangle.626</title>
			<desc>Profile</desc>
			<v:userDefs>
				<v:ud v:nameU="visVersion" v:val="VT0(15):26"/>
			</v:userDefs>
			<v:textBlock v:margins="rect(4,4,4,4)" v:tabSpace="42.5197"/>
			<v:textRect cx="63.7795" cy="468.978" width="127.56" height="25.5118"/>
			<g id="shadow626-142" v:groupContext="shadow" v:shadowOffsetX="0.345598" v:shadowOffsetY="-1.97279" v:shadowType="1"
					transform="matrix(1,0,0,1,-1.97279,0.345598)" class="st3">
				<rect x="0" y="456.222" width="127.559" height="25.5118" class="st4"/>
			</g>
			<rect x="0" y="456.222" width="127.559" height="25.5118" class="st18"/>
			<text x="53.16" y="471.38" class="st11" v:langID="1044"><v:paragraph v:horizAlign="1"/><v:tabList/>Profile</text>		</g>
		<g id="shape628-147" v:mID="628" v:groupContext="shape" transform="translate(468.661,-218.696)">
			<title>Rectangle.628</title>
			<v:userDefs>
				<v:ud v:nameU="visVersion" v:val="VT0(15):26"/>
			</v:userDefs>
			<g id="shadow628-148" v:groupContext="shadow" v:shadowOffsetX="0.345598" v:shadowOffsetY="-1.97279" v:shadowType="1"
					transform="matrix(1,0,0,1,0.345598,1.97279)" class="st3">
				<rect x="0" y="240.789" width="75.1181" height="240.945" class="st4"/>
			</g>
			<rect x="0" y="240.789" width="75.1181" height="240.945" class="st15"/>
		</g>
		<a xlink:href="/Content/RedirectToContent/?ContentType=Resource&#38;Title=Archive">
			<g id="shape629-152" v:mID="629" v:groupContext="shape" transform="translate(471.496,-227.2)">
				<title>Sheet.629</title>
				<g id="shadow629-153" v:groupContext="shadow" v:shadowOffsetX="0.345598" v:shadowOffsetY="-1.97279"
						v:shadowType="1" transform="matrix(1,0,0,1,0.345598,1.97279)" class="st3">
					<rect x="0" y="311.655" width="65.1969" height="170.079" class="st4"/>
				</g>
				<rect x="0" y="311.655" width="65.1969" height="170.079" class="st16"/>
			</g>
		</a>
		<g id="shape632-157" v:mID="632" v:groupContext="shape" transform="translate(470.787,-442.633)">
			<title>Sheet.632</title>
			<desc>Register</desc>
			<v:textBlock v:margins="rect(4,4,4,4)" v:tabSpace="42.5197"/>
			<v:textRect cx="59.8819" cy="474.647" width="119.77" height="14.1732"/>
			<rect x="0" y="467.56" width="119.764" height="14.1732" class="st1"/>
			<text x="4" y="477.35" class="st17" v:langID="1044"><v:paragraph/><v:tabList/>Register</text>		</g>
		<g id="shape633-160" v:mID="633" v:groupContext="shape" transform="translate(16.6914,248.864) rotate(-90)">
			<title>Rectangle.633</title>
			<desc>ER</desc>
			<v:userDefs>
				<v:ud v:nameU="visVersion" v:val="VT0(15):26"/>
			</v:userDefs>
			<v:textBlock v:margins="rect(4,4,4,4)" v:tabSpace="42.5197"/>
			<v:textRect cx="63.7795" cy="468.978" width="127.56" height="25.5118"/>
			<g id="shadow633-161" v:groupContext="shadow" v:shadowOffsetX="0.345598" v:shadowOffsetY="-1.97279" v:shadowType="1"
					transform="matrix(1,0,0,1,-1.97279,0.345598)" class="st3">
				<rect x="0" y="456.222" width="127.559" height="25.5118" class="st4"/>
			</g>
			<rect x="0" y="456.222" width="127.559" height="25.5118" class="st18"/>
			<text x="59.65" y="471.38" class="st11" v:langID="1044"><v:paragraph v:horizAlign="1"/><v:tabList/>ER</text>		</g>
		<g id="shape634-166" v:mID="634" v:groupContext="shape" transform="translate(45.0379,248.864) rotate(-90)">
			<title>Rectangle.634</title>
			<desc>DSF</desc>
			<v:userDefs>
				<v:ud v:nameU="visVersion" v:val="VT0(15):26"/>
			</v:userDefs>
			<v:textBlock v:margins="rect(4,4,4,4)" v:tabSpace="42.5197"/>
			<v:textRect cx="63.7795" cy="468.978" width="127.56" height="25.5118"/>
			<g id="shadow634-167" v:groupContext="shadow" v:shadowOffsetX="0.345598" v:shadowOffsetY="-1.97279" v:shadowType="1"
					transform="matrix(1,0,0,1,-1.97279,0.345598)" class="st3">
				<rect x="0" y="456.222" width="127.559" height="25.5118" class="st4"/>
			</g>
			<rect x="0" y="456.222" width="127.559" height="25.5118" class="st18"/>
			<text x="57.64" y="471.38" class="st11" v:langID="1044"><v:paragraph v:horizAlign="1"/><v:tabList/>DSF</text>		</g>
		<g id="shape635-172" v:mID="635" v:groupContext="shape" transform="translate(548.74,-218.696)">
			<title>Rectangle.635</title>
			<v:userDefs>
				<v:ud v:nameU="visVersion" v:val="VT0(15):26"/>
			</v:userDefs>
			<g id="shadow635-173" v:groupContext="shadow" v:shadowOffsetX="0.345598" v:shadowOffsetY="-1.97279" v:shadowType="1"
					transform="matrix(1,0,0,1,0.345598,1.97279)" class="st3">
				<rect x="0" y="240.789" width="65.1969" height="240.945" class="st4"/>
			</g>
			<rect x="0" y="240.789" width="65.1969" height="240.945" class="st15"/>
		</g>
		<a xlink:href="/Content/RedirectToContent/?ContentType=Resource&#38;Title=Archive">
			<g id="shape636-177" v:mID="636" v:groupContext="shape" transform="translate(551.575,-227.2)">
				<title>Sheet.636</title>
				<g id="shadow636-178" v:groupContext="shadow" v:shadowOffsetX="0.345598" v:shadowOffsetY="-1.97279"
						v:shadowType="1" transform="matrix(1,0,0,1,0.345598,1.97279)" class="st3">
					<rect x="0" y="311.655" width="36.8504" height="170.079" class="st4"/>
				</g>
				<rect x="0" y="311.655" width="36.8504" height="170.079" class="st16"/>
			</g>
		</a>
		<g id="shape639-182" v:mID="639" v:groupContext="shape" transform="translate(550.866,-442.633)">
			<title>Sheet.639</title>
			<desc>Intermediary</desc>
			<v:textBlock v:margins="rect(4,4,4,4)" v:tabSpace="42.5197"/>
			<v:textRect cx="32.5984" cy="474.647" width="65.2" height="14.1732"/>
			<rect x="0" y="467.56" width="65.1969" height="14.1732" class="st1"/>
			<text x="4" y="477.35" class="st17" v:langID="1044"><v:paragraph/><v:tabList/>Intermediary</text>		</g>
		<g id="shape641-185" v:mID="641" v:groupContext="shape" transform="translate(98.1875,248.864) rotate(-90)">
			<title>Rectangle.641</title>
			<desc>Shipment</desc>
			<v:userDefs>
				<v:ud v:nameU="visVersion" v:val="VT0(15):26"/>
			</v:userDefs>
			<v:textBlock v:margins="rect(4,4,4,4)" v:tabSpace="42.5197"/>
			<v:textRect cx="63.7795" cy="468.978" width="127.56" height="25.5118"/>
			<g id="shadow641-186" v:groupContext="shadow" v:shadowOffsetX="0.345598" v:shadowOffsetY="-1.97279" v:shadowType="1"
					transform="matrix(1,0,0,1,-1.97279,0.345598)" class="st3">
				<rect x="0" y="456.222" width="127.559" height="25.5118" class="st4"/>
			</g>
			<rect x="0" y="456.222" width="127.559" height="25.5118" class="st18"/>
			<text x="48.19" y="471.38" class="st11" v:langID="1044"><v:paragraph v:horizAlign="1"/><v:tabList/>Shipment</text>		</g>
	</g>
</svg>
