<svg width="202" height="202" viewBox="0 0 202 202" fill="none" xmlns="http://www.w3.org/2000/svg">
<mask id="mask0_905_9853" style="mask-type:alpha" maskUnits="userSpaceOnUse" x="0" y="0" width="202" height="202">
<circle cx="101" cy="101" r="101" fill="#C4C4C4"/>
</mask>
<g mask="url(#mask0_905_9853)">
<g clip-path="url(#clip0_905_9853)">
<rect width="1024" height="468" transform="translate(-102 -266)" fill="white"/>
<path d="M930.57 -302H-152.37V22.08H930.57V-302Z" fill="#C0EFFF"/>
<path d="M-115.89 -156.45C-115.89 -156.45 -109.63 -142.91 -94.48 -142.45C-79.33 -141.99 -7.63001 -183.86 70.63 -164.54C148.89 -145.22 153.63 -62.94 205.95 -56.87C261.49 -50.43 264.16 -73.28 301.38 -72.05C343.29 -70.67 354.38 -40.76 384.19 -47.66C414 -54.56 455.38 -42.6 454.37 -14.53C454.37 -14.53 518.68 -38.43 548 21.03L546.11 76.13H-112.17L-115.89 -156.45Z" fill="white"/>
<path d="M816.57 118.7H-123.17V212.03H816.57V118.7Z" fill="#C0EFFF"/>
<path d="M-116.14 204.83C-114.05 204.14 -19.46 203.2 34.34 157.92L48.05 133.92L-5.07001 129.64L-120.35 159.52L-116.14 204.83Z" fill="white"/>
<path d="M321.39 32.53H188.24V135.8H321.39V32.53Z" fill="white"/>
<path d="M137.46 36.98H-125.68V119.14H137.46V36.98Z" fill="white"/>
<path d="M37.39 42.79H-8.10999V121.03H37.39V42.79Z" fill="#6A6A6A"/>
<path d="M197.5 47.42H309.35V79.13H318.91V36.75L203.75 34.9L197.5 47.42Z" fill="#0062BD"/>
<path d="M18.87 49.97L-8.11 49.41L-201 35.8V11.91L25.03 43.59L18.87 49.97Z" fill="#422D62"/>
<path d="M36.34 22.75L-122.5 -10.15V-22.55C-122.5 -22.55 -144.5 -26.39 -151.68 -27.72C-158.86 -29.05 -155.79 -39.72 -155.79 -56.03V-78.34L-197.17 -87.41V18.14L36.34 52.55V22.75Z" fill="#00AFF9"/>
<path d="M400.96 21.34H197.5V47.42L233.83 34.9H403.5L400.96 21.34Z" fill="#00AFF9"/>
<path d="M380.5 32.23H220.5L197.5 47.42C197.5 47.42 207.5 40.26 279.5 40.26H389.1L380.5 32.23Z" fill="#422D62"/>
<path d="M220.5 32.23L204.26 43.7L195.92 34.38L197.5 21.2H318.91V32.23H220.5Z" fill="#C0EFFF"/>
<path d="M36.34 141.75C36.34 141.75 70.2 103.21 112.23 98.75C154.26 94.29 164.6 141.75 164.6 141.75V0.209983H36.34V141.75Z" fill="#EEEEEE"/>
<path d="M202.6 99.9C202.6 99.9 218.99 99.07 235.19 83.62C242.19 76.95 249.92 60.79 249.92 60.79C249.92 60.79 254.56 76.25 262.92 84.31C281.35 102.14 290.13 96.25 290.13 96.25H306.5V47.19H197.5V94.85L202.6 99.9Z" fill="#FF3853"/>
<path d="M164.6 0.209983L197.5 21.34V35.39H164.6V0.209983Z" fill="#C0EFFF"/>
<path d="M56.59 6.10001C52.41 6.20001 51.98 10.28 48.44 11.91C44.53 13.71 37.44 13.18 31.44 15.44C28.44 16.58 25.61 19.39 23.44 22.08C16.5 30.74 18.61 39.08 18.81 50.25C19.01 61.42 9.47 60.64 5.16 72.13C-0.840003 88.26 10.42 101.87 12.43 104.48C29.1 116.92 11.36 111.53 20.11 118.48C24.97 122.36 37.81 121.15 37.81 136.34C37.81 140.02 39.69 140.96 39.61 144.65C39.53 148.16 72.61 144.73 74.18 143.32C74.18 128.08 77.55 108.32 78.76 101.32C81.15 87.56 88.66 75.08 89.02 70.91C89.76 62.29 81.84 54.48 83.88 52.2C100.61 33.68 84.76 5.40001 56.59 6.10001Z" fill="#0062BD"/>
<path d="M197.5 21.34C195.1 19.34 188.74 15.71 180.62 22.34C176.9 25.34 171.74 16.65 165.1 17.2C160.16 17.61 156.05 21.2 157.1 26.2C154.34 27.61 151.1 27.75 148.23 28.92C147.603 29.1306 147.027 29.4714 146.54 29.92C145.37 31.16 145.54 33.16 146.18 34.74C146.82 36.32 147.82 37.74 148.18 39.44C148.54 41.14 147.82 43.19 146.18 43.61C144.18 44.12 142.18 41.9 140.18 42.33C138.63 42.66 137.77 44.47 137.95 46.05C138.258 47.6121 138.945 49.0748 139.95 50.31L143.59 55.57C143.785 55.7875 143.935 56.0422 144.029 56.3188C144.124 56.5955 144.162 56.8884 144.14 57.18C143.95 58.04 142.88 58.3 142.04 58.56C140.921 58.9166 139.918 59.5687 139.138 60.4474C138.358 61.3261 137.83 62.3989 137.609 63.5527C137.388 64.7066 137.482 65.8987 137.882 67.0035C138.281 68.1083 138.972 69.0847 139.88 69.83C141.76 71.37 144.45 71.83 146 73.7C146.724 74.6101 147.108 75.744 147.086 76.9066C147.064 78.0692 146.638 79.1878 145.88 80.07C145.14 80.9 144.13 81.45 143.34 82.24C141.4 84.17 141.07 87.18 141.2 89.92C141.186 91.0336 141.429 92.1355 141.91 93.14C143.11 95.28 145.91 95.89 148.36 95.86C150.81 95.83 153.36 95.4 155.65 96.32C158.42 97.45 160.07 100.32 160.96 103.19C161.752 105.719 162.124 108.361 162.06 111.01C162 113.52 161.55 116.01 162.06 118.52C162.57 121.03 164.31 123.45 166.81 123.7C168.419 123.751 169.984 123.169 171.17 122.08C178.54 116.08 176.47 102.72 184.32 97.31C186.81 95.6 189.87 95.03 192.81 94.31C195.75 93.59 202.04 96.21 203.99 93.91C205.94 91.61 209.27 84.74 206.9 82.91C206.19 82.35 199.99 70.21 201.75 69.03C204.24 67.37 206.4 64.91 206.84 61.95C207.28 58.99 205.47 55.61 202.53 55.06C201.41 54.85 200.26 55.06 199.13 54.9C198.556 54.8935 197.997 54.7133 197.528 54.3831C197.058 54.0528 196.7 53.588 196.5 53.05C196.22 51.76 197.34 50.64 198.31 49.75C199.92 48.27 201.48 46.5 201.78 44.33C202.08 42.16 200.56 39.63 198.37 39.65C199.89 38.28 197.83 33.65 198.37 32.65C200.5 28.4 200.71 23.95 197.5 21.34Z" fill="#00AFF9"/>
<path d="M102.7 126.16C102.358 126.906 101.852 127.566 101.22 128.09C98.46 130.58 82.73 142.38 77.07 144.64C72.64 146.41 67.68 146 62.93 145.56C62.67 145.56 62.08 145.49 62.08 144.56C62.08 142.56 59.55 136.56 59.82 136.23C60.09 135.9 75.87 131.84 82.03 129.55C85.8821 128.099 89.6482 126.43 93.31 124.55C96.82 122.76 100.25 119.55 103.86 118.09C103.752 120.813 103.363 123.517 102.7 126.16Z" fill="#6A6A6A"/>
<path d="M64.72 114.23C66.41 111.43 69.26 108.87 72.52 109.15C74.22 109.3 75.94 110.21 77.52 109.67C78.2547 109.374 78.9316 108.95 79.52 108.42C82.52 106.03 86.32 104.32 90.16 104.61C94 104.9 97.8 107.61 98.45 111.44C98.4792 112.324 98.7192 113.188 99.15 113.96C100.05 115.14 101.94 114.96 103.04 115.96C104.14 116.96 104.04 118.96 103.1 120.26C102.043 121.44 100.705 122.335 99.21 122.86C89.74 127.07 81.72 132.21 71.93 135.62C69.7 136.4 62.19 137.27 59.83 136.26C57.83 135.4 61.14 132.21 61.14 130.39C61.12 124.84 61.78 119.09 64.72 114.23Z" fill="#0062BD"/>
<path d="M89.83 54.53C89.74 52.63 91.45 51.2 92.6 49.69C95.39 46.03 97.91 40.06 97.78 35.46C97.43 23.8 86.72 20.6 86.72 20.6C86.72 20.6 88.37 4.68001 70.5 1.92001C59.57 0.230013 50.63 4.82001 46.05 10.57C34.59 11.07 29.68 14.23 24.93 20.41C31.93 14.16 44.74 10.28 54.2 19.03C56.37 13.03 61.03 10.8 68.01 11.85C77.53 13.28 85.79 25.98 75.62 38.15C67.01 48.45 64.93 48.97 63.94 52.91C73.69 44.47 91.15 57.55 85.74 72.35C83.03 79.76 74.46 89.54 73.33 90.99C68.45 97.26 70.49 104.86 78.85 101.4C80.73 93.47 85.85 89.79 87.95 88.07C90.1451 86.3979 91.9534 84.2716 93.2513 81.8364C94.5491 79.4012 95.3059 76.7146 95.47 73.96C95.8361 68.1656 94.3247 62.4076 91.16 57.54C90.4627 56.6693 90.0043 55.6318 89.83 54.53Z" fill="#00AFF9"/>
<path d="M191.24 66.63H188.24V174.87H191.24V66.63Z" fill="#422D62"/>
<path d="M168.33 94.67C168.33 94.67 168.24 115.55 188.96 115.55C209.68 115.55 209.06 94.94 209.06 94.94" stroke="#422D62" stroke-width="6" stroke-miterlimit="10"/>
<path d="M160.33 93.85C160.374 94.1845 160.505 94.5016 160.71 94.77C160.99 95.0108 161.341 95.1515 161.71 95.17C166.54 95.81 171.71 96.39 176.02 93.98C176.428 93.7933 176.774 93.4952 177.02 93.12C177.162 92.8204 177.253 92.4994 177.29 92.17C178.63 84.24 180.53 76.69 181.87 68.77C177.45 68.77 172.93 65.34 168.54 64.77C165.466 64.5392 162.388 65.1548 159.64 66.55C158.5 67.06 158.06 66.55 157.22 67.55C156.22 68.77 155.98 67.63 154.7 69.4C156.36 76.46 158.72 86.81 160.33 93.85Z" fill="#B9EEFD"/>
<path d="M162.07 59.75C163.79 58.95 167.5 57.57 168.94 57.57C170.18 57.57 176.17 59.14 178.35 60.57C179.93 61.57 182.12 68.57 181.91 68.77C181.16 68.92 175.41 67.97 168.91 67.77C163.8 68.05 155.04 69.86 154.77 69.45C154.5 69.04 157.05 64.45 157.72 63.33C158.78 61.7293 160.295 60.4825 162.07 59.75Z" fill="#422D62"/>
<path d="M219.68 93.85C219.636 94.1845 219.505 94.5016 219.3 94.77C219.02 95.0108 218.669 95.1515 218.3 95.17C213.47 95.81 208.3 96.39 203.99 93.98C203.582 93.7933 203.236 93.4952 202.99 93.12C202.848 92.8204 202.757 92.4994 202.72 92.17C201.38 84.24 199.48 76.69 198.14 68.77C202.56 68.77 207.08 65.34 211.47 64.77C214.544 64.5392 217.622 65.1548 220.37 66.55C221.51 67.06 221.95 66.55 222.79 67.55C223.79 68.77 224.03 67.63 225.31 69.4C223.66 76.46 221.3 86.81 219.68 93.85Z" fill="#B9EEFD"/>
<path d="M217.95 59.75C216.23 58.95 212.52 57.57 211.08 57.57C209.84 57.57 203.85 59.14 201.67 60.57C200.09 61.57 197.9 68.57 198.11 68.77C198.86 68.92 204.25 67.98 210.78 67.77C215.94 68.39 225.01 69.84 225.27 69.44C225.53 69.04 222.99 64.44 222.32 63.32C221.253 61.7199 219.731 60.4764 217.95 59.75Z" fill="#422D62"/>
<path d="M203.68 42.75C202.8 41.75 200.43 41.08 199.23 40.58C193.364 38.2107 186.806 38.2107 180.94 40.58C179.74 41.09 177.38 41.77 176.49 42.75C175.41 43.95 176.11 44.99 176.49 46.69L181.58 67.6C181.629 67.9339 181.767 68.2483 181.98 68.51C182.292 68.7615 182.679 68.9022 183.08 68.91C185.344 69.23 187.624 69.4137 189.91 69.46L190.01 69.36C190.01 69.36 204.47 44.36 204.07 43.42C203.978 43.1766 203.846 42.9502 203.68 42.75Z" fill="#B9EEFD"/>
<path d="M204.26 43.7C204.55 43.14 204.05 42.61 203.87 42.12C203.69 41.63 198.64 32.99 198.36 32.62C198.27 32.5 184.24 32.46 183.41 32.68C181.41 33.21 180.41 35.45 179.29 37.04C178.079 38.8362 177.038 40.7411 176.18 42.73C175.97 43.21 175.56 43.64 177.18 43.64L193.26 43.7C193.26 43.7 204.19 43.82 204.26 43.7Z" fill="#422D62"/>
<path d="M189.74 43.7L189.95 69.5L198.34 68.79L204.26 43.7H189.74Z" fill="white"/>
<path d="M-28.91 135.8H-3.84999C-3.84999 135.8 0.650005 109.36 -9.21 100.98C-19.07 92.6 -24.91 102.1 -24.91 102.1C-24.91 102.1 -29.12 99.73 -35.22 108.1C-41.32 116.47 -46.34 117.48 -46.34 117.48L-41.81 126.17C-41.81 126.17 -31.22 123.39 -28.91 118.65V135.8Z" fill="#C0EFFF"/>
<path d="M56.86 114.52C56.43 110.74 43.02 98.71 43.13 99.02C37.67 97.82 31.55 110.61 25.89 112.07C24.6732 112.374 23.4827 112.776 22.33 113.27C22.21 112.67 22.08 112.07 21.92 111.48C20.5 106.27 32.13 96.75 32.4 97.13C25.27 98.45 23.27 77.63 16.06 85.62C9.82001 92.53 8.82001 111.47 27.06 132.83C32.76 139.52 32.21 150.89 33.93 155.22C42.8 177.53 26.53 155.94 49.48 156.94C51.69 157.04 51.6 152.71 52.26 150.86C52.6413 150.982 53.0329 151.069 53.43 151.12C55.57 151.38 57.79 150.49 59.76 149.5C61.23 148.77 64.61 148.24 63.83 146.88C53.21 128.6 58.21 126.29 56.86 114.52Z" fill="#00AFF9"/>
<path d="M165.6 92.51C165.6 92.51 127.5 103.59 117.5 114.22C107.5 124.85 68.5 171.75 74.25 234.37L228.05 229.97L223.8 139.34L220.66 124.84C220.66 124.84 228.42 116.34 223.66 103.04C218.9 89.74 190.17 85.3 165.6 92.51Z" fill="#422D62"/>
<path d="M142.5 153.07C144.71 148.148 146.587 143.083 148.12 137.91C151.12 127.52 157.73 115.12 171.86 111.8C192.55 106.94 199.86 119.8 220.7 124.8C220.7 124.8 236.08 120.63 245.12 134.58C251.21 143.97 251.69 148.2 251.69 148.2C251.69 148.2 267.22 152.74 277.76 177.2C288.3 201.66 278.64 225.2 278.64 225.2L209.36 224.32C209.36 224.32 211.12 214.65 215.36 189.75C219.6 164.85 207.7 136.83 189.87 122.66C184.16 118.12 161.6 112.26 158.27 133.66C157.724 137.568 156.717 141.398 155.27 145.07C151.11 155.14 142.5 153.07 142.5 153.07Z" fill="#C0EFFF"/>
<path d="M141.65 107.82C141.65 107.82 99.65 138.58 99.02 221.49C98.53 290.17 114.33 180.14 127.46 182.11C133.23 158.79 141.4 136.55 142.8 120.52C143.282 116.252 142.891 111.932 141.65 107.82Z" fill="#0062BD"/>
<path d="M143.71 182.84C141.39 182.84 127.46 182.1 127.46 182.1C127.46 182.1 124.46 159.67 125.81 146.1C127.16 132.53 153.68 121.88 155.59 122.45C151.492 129.158 148.5 136.481 146.73 144.14C146.03 146.95 145.46 150.39 145.46 150.39C145.46 150.39 154.76 148.55 156.46 141.75C158.04 135.46 157.91 135.43 157.91 135.43C157.91 135.43 160.23 136 161.04 137.43C164.28 143.12 157.93 160.95 154.29 167.28C152.166 171.162 150.325 175.193 148.78 179.34C148.404 180.378 147.713 181.273 146.804 181.9C145.896 182.528 144.814 182.856 143.71 182.84Z" fill="#00AFF9"/>
<path d="M142.8 120.51C144.8 109.78 158.21 110.26 165.69 108.12C174.93 105.48 168.36 100.97 167.1 85.98C165.84 70.99 143.85 39.41 143.85 39.41L96.96 35.41C96.96 35.41 99.5 57.8 100.5 64.61C101.7 72.54 98.21 79.61 100.33 82.39C103.91 87.11 105.82 83.72 108.33 91.31C110.33 97.11 111.49 103.21 126.9 106.51C130.65 107.31 133.04 113.68 133.37 121.05C133.7 128.42 141.2 121.81 142.8 120.51Z" fill="#00AFF9"/>
<path d="M167.1 85.99C167.1 85.99 166.1 70.23 170.1 56.45C172.8 47.03 165.89 8.99002 116.99 21.54C68.09 34.09 92.7 51.88 104.57 51.75C111.06 51.66 119.57 57.03 122.31 62.69C124.61 67.38 128.98 68.15 129.91 59.9C130.84 51.65 142.71 50.41 140.91 62.7C139.11 74.99 138.18 87.31 167.1 85.99Z" fill="#422D62"/>
<path d="M26.77 162.13C28.04 172.23 54.5 234.37 54.5 234.37L84.03 231.75L91.61 181.14C91.61 181.14 76.17 166.14 64.21 141.43C57.62 127.85 42.12 138.78 32.71 145.04C24.75 150.34 25.5 152.03 26.77 162.13Z" fill="#422D62"/>
<path d="M25.32 118.75C28.32 124.63 28.32 128.75 37.66 128.57C42.17 128.51 48.23 128.22 49.75 124.99C50.19 124.04 50.94 122.99 50.21 121.27C48.31 116.93 45.6 114.9 41.21 105.27C37.62 97.49 35.5 92.42 33.54 88.35C31.74 84.61 16.29 82.81 14.07 82.6C11.35 82.34 8.99999 85.41 9.78999 87.22C11.2 90.54 22.68 113.58 25.32 118.75Z" fill="#6A6A6A"/>
<path d="M13.29 84.94C17.52 92.82 27.29 113.36 32.45 122.7C34.36 126.16 52.14 125.18 50.21 121.26C49.21 119.26 35.21 89.26 32.34 85.59C31.9993 85.0512 31.549 84.5902 31.0183 84.237C30.4876 83.8838 29.8885 83.6463 29.26 83.54C28.36 83.47 19.93 82.71 14.96 82.6C12.42 82.53 12.31 83.11 13.29 84.94Z" fill="#EEEEEE"/>
<path d="M39.6 117.54C38.6 118.13 38.6 119.43 39.49 120.45C39.8945 120.936 40.4485 121.274 41.0654 121.411C41.6824 121.549 42.3275 121.478 42.9 121.21C43.9 120.62 43.9 119.32 43.01 118.3C42.6055 117.814 42.0515 117.476 41.4345 117.339C40.8176 117.201 40.1725 117.272 39.6 117.54Z" fill="#00AFF9"/>
<path d="M17.15 84.35L28.15 84.94C28.8152 84.9526 29.4658 85.137 30.0387 85.4751C30.6117 85.8133 31.0875 86.2938 31.42 86.87L46.24 116.03L31.07 115.93L16.07 85.61C15.75 84.99 16.33 84.31 17.15 84.35Z" fill="white"/>
<path d="M52.88 103.35C49.95 100.4 45.7 98.83 43.38 98C41.4277 97.2432 39.4223 96.6316 37.38 96.17C37.1388 96.0965 36.8812 96.0965 36.64 96.17C36.4698 96.2711 36.3229 96.4072 36.2092 96.5692C36.0954 96.7312 36.0173 96.9155 35.98 97.11C35.66 98.11 38.64 103.19 39.98 104.11C40.85 104.71 41.78 105.25 42.67 105.84C45.842 107.912 48.5936 110.566 50.78 113.66C50.9562 113.983 51.2338 114.24 51.57 114.39C52.19 114.59 54.9 125.45 55.32 124.9C59.17 119.75 55.81 106.29 52.88 103.35Z" fill="#00AFF9"/>
<path d="M12.55 93.08C13.49 86.79 19.9 90.21 19.86 97.91C19.86 97.91 24.79 103.39 22.86 113.76C20.97 123.7 30.11 134.03 30.11 134.03L12.55 93.08Z" fill="#00AFF9"/>
</g>
</g>
<defs>
<clipPath id="clip0_905_9853">
<rect width="1024" height="468" fill="white" transform="translate(-102 -266)"/>
</clipPath>
</defs>
</svg>
