<?xml version="1.0" encoding="UTF-8" standalone="no"?>
<!DOCTYPE svg PUBLIC "-//W3C//DTD SVG 1.1//EN" "http://www.w3.org/Graphics/SVG/1.1/DTD/svg11.dtd">
<!-- Generated by Microsoft Visio, SVG Export app_application_architecture.svg Page-1 -->
<svg xmlns="http://www.w3.org/2000/svg" xmlns:xlink="http://www.w3.org/1999/xlink" xmlns:ev="http://www.w3.org/2001/xml-events"
		xmlns:v="http://schemas.microsoft.com/visio/2003/SVGExtensions/" width="11.1453in" height="11.7494in"
		viewBox="0 0 802.461 845.96" xml:space="preserve" color-interpolation-filters="sRGB" class="st24">
	<v:documentProperties v:langID="1033" v:metric="true" v:viewMarkup="false">
		<v:userDefs>
			<v:ud v:nameU="DisableSpdActionTags" v:prompt="" v:val="VT0(0):26"/>
		</v:userDefs>
	</v:documentProperties>

	<style type="text/css">
	<![CDATA[
		.st1 {visibility:visible}
		.st2 {fill:#5b9bd5;fill-opacity:0.22;filter:url(#filter_2);stroke:#5b9bd5;stroke-opacity:0.22}
		.st3 {fill:#5b9bd5;stroke:#c7c8c8;stroke-width:0.25}
		.st4 {fill:#bdd0e9;stroke:#c7c8c8;stroke-width:0.25}
		.st5 {fill:#5b9bd5;fill-opacity:0.22;filter:url(#filter_2);marker-end:url(#mrkr1-17);marker-start:url(#mrkr1-15);stroke:#5b9bd5;stroke-opacity:0.22}
		.st6 {fill:#5b9bd5;fill-opacity:0.22;stroke:#5b9bd5;stroke-opacity:0.22;stroke-width:0.090252707581227}
		.st7 {fill:#bdd7ee;marker-end:url(#mrkr1-23);marker-start:url(#mrkr1-21);stroke:#c7c8c8;stroke-width:0.25}
		.st8 {fill:#c7c8c8;fill-opacity:1;stroke:#c7c8c8;stroke-opacity:1;stroke-width:0.090252707581227}
		.st9 {fill:#92d050;stroke:#c7c8c8;stroke-width:0.25}
		.st10 {fill:none;stroke:none;stroke-width:0.25}
		.st11 {fill:#2e75b5;font-family:Calibri;font-size:1.00001em}
		.st12 {fill:#feffff;font-family:Calibri;font-size:1.00001em}
		.st13 {font-size:1em}
		.st14 {marker-end:url(#mrkr4-67);stroke:#5b9bd5;stroke-linecap:round;stroke-linejoin:round;stroke-width:1}
		.st15 {fill:#5b9bd5;fill-opacity:1;stroke:#5b9bd5;stroke-opacity:1;stroke-width:0.28409090909091}
		.st16 {fill:#ffffff;stroke:none;stroke-linecap:butt;stroke-width:7.2}
		.st17 {fill:#4f88bb;font-family:Calibri;font-size:0.666664em}
		.st18 {fill:#ffffff;font-family:Calibri;font-size:1.00001em}
		.st19 {marker-end:url(#mrkr4-128);stroke:#ed7d31;stroke-linecap:round;stroke-linejoin:round;stroke-width:2.25}
		.st20 {fill:#ed7d31;fill-opacity:1;stroke:#ed7d31;stroke-opacity:1;stroke-width:0.47169811320755}
		.st21 {fill:#2e75b5;stroke:#c7c8c8;stroke-width:0.25}
		.st22 {fill:#feffff;font-family:Calibri;font-size:0.833336em}
		.st23 {fill:#ff3300;stroke:#c7c8c8;stroke-width:0.25}
		.st24 {fill:none;fill-rule:evenodd;font-size:12px;overflow:visible;stroke-linecap:square;stroke-miterlimit:3}
	]]>
	</style>

	<defs id="Markers">
		<g id="lend1">
			<path d="M 1 -1 L 0 0 L 1 1 " style="stroke-linecap:round;stroke-linejoin:round;fill:none"/>
		</g>
		<marker id="mrkr1-15" class="st6" v:arrowType="1" v:arrowSize="2" orient="auto" markerUnits="strokeWidth"
				overflow="visible">
			<use xlink:href="#lend1" transform="scale(11.08) "/>
		</marker>
		<marker id="mrkr1-17" class="st6" v:arrowType="1" v:arrowSize="2" orient="auto" markerUnits="strokeWidth"
				overflow="visible">
			<use xlink:href="#lend1" transform="scale(-11.08,-11.08) "/>
		</marker>
		<marker id="mrkr1-21" class="st8" v:arrowType="1" v:arrowSize="2" orient="auto" markerUnits="strokeWidth"
				overflow="visible">
			<use xlink:href="#lend1" transform="scale(11.08) "/>
		</marker>
		<marker id="mrkr1-23" class="st8" v:arrowType="1" v:arrowSize="2" orient="auto" markerUnits="strokeWidth"
				overflow="visible">
			<use xlink:href="#lend1" transform="scale(-11.08,-11.08) "/>
		</marker>
		<g id="lend4">
			<path d="M 2 1 L 0 0 L 2 -1 L 2 1 " style="stroke:none"/>
		</g>
		<marker id="mrkr4-67" class="st15" v:arrowType="4" v:arrowSize="2" v:setback="7.04" refX="-7.04" orient="auto"
				markerUnits="strokeWidth" overflow="visible">
			<use xlink:href="#lend4" transform="scale(-3.52,-3.52) "/>
		</marker>
		<marker id="mrkr4-128" class="st20" v:arrowType="4" v:arrowSize="2" v:setback="4.24" refX="-4.24" orient="auto"
				markerUnits="strokeWidth" overflow="visible">
			<use xlink:href="#lend4" transform="scale(-2.12,-2.12) "/>
		</marker>
	</defs>
	<defs id="Filters">
		<filter id="filter_2">
			<feGaussianBlur stdDeviation="2"/>
		</filter>
	</defs>
	<g v:mID="0" v:index="1" v:groupContext="foregroundPage">
		<title>Page-1</title>
		<v:pageProperties v:drawingScale="0.0393701" v:pageScale="0.0393701" v:drawingUnits="24" v:shadowOffsetX="8.50394"
				v:shadowOffsetY="-8.50394"/>
		<v:layer v:name="Connector" v:index="0"/>
		<a xlink:href="/products/tjenester/3.0/solutions/runtime/">
			<g id="shape9-1" v:mID="9" v:groupContext="shape" transform="translate(2.77937,-5.09785)">
				<title>Rectangle</title>
				<v:userDefs>
					<v:ud v:nameU="visVersion" v:val="VT0(15):26"/>
				</v:userDefs>
				<g id="shadow9-2" v:groupContext="shadow" v:shadowOffsetX="0.345598" v:shadowOffsetY="-1.97279" v:shadowType="1"
						transform="matrix(1,0,0,1,0.345598,1.97279)" class="st1">
					<rect x="0" y="283.113" width="742.677" height="562.847" class="st2"/>
				</g>
				<rect x="0" y="283.113" width="742.677" height="562.847" class="st3"/>
			</g>
		</a>
		<a xlink:href="/Content/RedirectToContent/?ContentType=Resource&#38;Title=Archive">
			<g id="shape10-6" v:mID="10" v:groupContext="shape" transform="translate(306.086,-20.8585)">
				<title>Sheet.10</title>
				<g id="shadow10-7" v:groupContext="shadow" v:shadowOffsetX="0.345598" v:shadowOffsetY="-1.97279" v:shadowType="1"
						transform="matrix(1,0,0,1,0.345598,1.97279)" class="st1">
					<rect x="0" y="661.708" width="425.197" height="184.252" class="st2"/>
				</g>
				<rect x="0" y="661.708" width="425.197" height="184.252" class="st4"/>
			</g>
		</a>
		<g id="shape14-11" v:mID="14" v:groupContext="shape" transform="translate(306.086,-236.292)">
			<title>Sheet.14</title>
			<g id="shadow14-12" v:groupContext="shadow" v:shadowOffsetX="0.345598" v:shadowOffsetY="-1.97279" v:shadowType="1"
					transform="matrix(1,0,0,1,0.345598,1.97279)" class="st1">
				<rect x="0" y="661.708" width="425.197" height="184.252" class="st5"/>
			</g>
			<rect x="0" y="661.708" width="425.197" height="184.252" class="st7"/>
		</g>
		<g id="shape17-24" v:mID="17" v:groupContext="shape" transform="translate(25.4565,-20.8585)">
			<title>Sheet.17</title>
			<g id="shadow17-25" v:groupContext="shadow" v:shadowOffsetX="0.345598" v:shadowOffsetY="-1.97279" v:shadowType="1"
					transform="matrix(1,0,0,1,0.345598,1.97279)" class="st1">
				<rect x="0" y="449.11" width="136.063" height="396.85" class="st2"/>
			</g>
			<rect x="0" y="449.11" width="136.063" height="396.85" class="st9"/>
		</g>
		<g id="shape22-29" v:mID="22" v:groupContext="shape" transform="translate(308.921,-398.433)">
			<title>Sheet.22</title>
			<desc>Altinn.App.Api</desc>
			<v:textBlock v:margins="rect(4,4,4,4)" v:tabSpace="42.5197"/>
			<v:textRect cx="68.0315" cy="838.023" width="136.07" height="15.874"/>
			<rect x="0" y="830.086" width="136.063" height="15.874" class="st10"/>
			<text x="4" y="841.62" class="st11" v:langID="1044"><v:paragraph/><v:tabList/>Altinn.App.Api</text>		</g>
		<a xlink:href="/products/tjenester/3.0/solutions/runtime/architecture/react-app/">
			<g id="shape25-32" v:mID="25" v:groupContext="shape" transform="translate(8.44866,-662.339)">
				<title>Sheet.25</title>
				<g id="shadow25-33" v:groupContext="shadow" v:shadowOffsetX="0.345598" v:shadowOffsetY="-1.97279" v:shadowType="1"
						transform="matrix(1,0,0,1,0.345598,1.97279)" class="st1">
					<rect x="0" y="707.913" width="694.488" height="138.047" class="st2"/>
				</g>
				<rect x="0" y="707.913" width="694.488" height="138.047" class="st9"/>
			</g>
		</a>
		<g id="shape35-37" v:mID="35" v:groupContext="shape" transform="translate(360.042,-762.26)">
			<title>Sheet.35</title>
			<desc>REACT Component</desc>
			<v:textBlock v:margins="rect(4,4,4,4)" v:tabSpace="42.5197"/>
			<v:textRect cx="42.5197" cy="833.204" width="85.04" height="25.5118"/>
			<g id="shadow35-38" v:groupContext="shadow" v:shadowOffsetX="0.345598" v:shadowOffsetY="-1.97279" v:shadowType="1"
					transform="matrix(1,0,0,1,0.345598,1.97279)" class="st1">
				<rect x="0" y="820.448" width="85.0394" height="25.5118" class="st2"/>
			</g>
			<rect x="0" y="820.448" width="85.0394" height="25.5118" class="st3"/>
			<text x="26.74" y="829.6" class="st12" v:langID="1044"><v:paragraph v:horizAlign="1"/><v:tabList/>REACT <tspan
						x="13.75" dy="1.2em" class="st13">Component</tspan></text>		</g>
		<g id="shape36-44" v:mID="36" v:groupContext="shape" transform="translate(246.656,-692.103)">
			<title>Sheet.36</title>
			<desc>Action Creators</desc>
			<v:textBlock v:margins="rect(4,4,4,4)" v:tabSpace="42.5197"/>
			<v:textRect cx="42.5197" cy="833.204" width="85.04" height="25.5118"/>
			<g id="shadow36-45" v:groupContext="shadow" v:shadowOffsetX="0.345598" v:shadowOffsetY="-1.97279" v:shadowType="1"
					transform="matrix(1,0,0,1,0.345598,1.97279)" class="st1">
				<rect x="0" y="820.448" width="85.0394" height="25.5118" class="st2"/>
			</g>
			<rect x="0" y="820.448" width="85.0394" height="25.5118" class="st3"/>
			<text x="4.69" y="836.8" class="st12" v:langID="1044"><v:paragraph v:horizAlign="1"/><v:tabList/>Action Creators</text>		</g>
		<g id="shape37-50" v:mID="37" v:groupContext="shape" transform="translate(530.121,-687.157)">
			<title>Sheet.37</title>
			<desc>Store</desc>
			<v:textBlock v:margins="rect(4,4,4,4)" v:tabSpace="42.5197"/>
			<v:textRect cx="42.5197" cy="833.204" width="85.04" height="25.5118"/>
			<g id="shadow37-51" v:groupContext="shadow" v:shadowOffsetX="0.345598" v:shadowOffsetY="-1.97279" v:shadowType="1"
					transform="matrix(1,0,0,1,0.345598,1.97279)" class="st1">
				<rect x="0" y="820.448" width="85.0394" height="25.5118" class="st2"/>
			</g>
			<rect x="0" y="820.448" width="85.0394" height="25.5118" class="st3"/>
			<text x="29.51" y="836.8" class="st12" v:langID="1044"><v:paragraph v:horizAlign="1"/><v:tabList/>Store</text>		</g>
		<g id="shape38-56" v:mID="38" v:groupContext="shape" transform="translate(402.561,-692.103)">
			<title>Sheet.38</title>
			<desc>Reducers</desc>
			<v:textBlock v:margins="rect(4,4,4,4)" v:tabSpace="42.5197"/>
			<v:textRect cx="42.5197" cy="833.204" width="85.04" height="25.5118"/>
			<g id="shadow38-57" v:groupContext="shadow" v:shadowOffsetX="0.345598" v:shadowOffsetY="-1.97279" v:shadowType="1"
					transform="matrix(1,0,0,1,0.345598,1.97279)" class="st1">
				<rect x="0" y="820.448" width="85.0394" height="25.5118" class="st2"/>
			</g>
			<rect x="0" y="820.448" width="85.0394" height="25.5118" class="st3"/>
			<text x="20.01" y="836.8" class="st12" v:langID="1044"><v:paragraph v:horizAlign="1"/><v:tabList/>Reducers</text>		</g>
		<g id="shape39-62" v:mID="39" v:groupContext="shape" v:layerMember="0" transform="translate(175.79,-686.972)">
			<title>Dynamic connector</title>
			<desc>Request with JWT Cookie</desc>
			<v:userDefs>
				<v:ud v:nameU="visVersion" v:val="VT0(15):26"/>
			</v:userDefs>
			<v:textBlock v:margins="rect(4,4,4,4)" v:tabSpace="42.5197"/>
			<v:textRect cx="134.583" cy="845.96" width="91.92" height="17.6036"/>
			<path d="M0 845.96 L198.33 845.96 L198.33 909.76" class="st14"/>
			<rect v:rectContext="textBkgnd" x="93.531" y="841.16" width="82.1047" height="9.59985" class="st16"/>
			<text x="93.53" y="848.36" class="st17" v:langID="1044"><v:paragraph v:horizAlign="1"/><v:tabList/>Request with JWT Cookie</text>		</g>
		<g id="shape40-70" v:mID="40" v:groupContext="shape" v:layerMember="0" transform="translate(360.042,-775.016)">
			<title>Dynamic connector.40</title>
			<desc>Dispatch action</desc>
			<v:userDefs>
				<v:ud v:nameU="visVersion" v:val="VT0(15):26"/>
			</v:userDefs>
			<v:textBlock v:margins="rect(4,4,4,4)" v:tabSpace="42.5197"/>
			<v:textRect cx="-64.1339" cy="845.96" width="59.96" height="17.6036"/>
			<path d="M0 845.96 L-70.87 845.96 L-70.87 896.32" class="st14"/>
			<rect v:rectContext="textBkgnd" x="-89.2076" y="841.16" width="50.1476" height="9.59985" class="st16"/>
			<text x="-89.21" y="848.36" class="st17" v:langID="1044"><v:paragraph v:horizAlign="1"/><v:tabList/>Dispatch action</text>		</g>
		<g id="shape41-77" v:mID="41" v:groupContext="shape" transform="translate(90.7504,-683.614)">
			<title>Sheet.41</title>
			<desc>Saga Middleware</desc>
			<v:textBlock v:margins="rect(4,4,4,4)" v:tabSpace="42.5197"/>
			<v:textRect cx="42.5197" cy="831.078" width="85.04" height="29.7638"/>
			<g id="shadow41-78" v:groupContext="shadow" v:shadowOffsetX="0.345598" v:shadowOffsetY="-1.97279" v:shadowType="1"
					transform="matrix(1,0,0,1,0.345598,1.97279)" class="st1">
				<rect x="0" y="816.196" width="85.0394" height="29.7638" class="st2"/>
			</g>
			<rect x="0" y="816.196" width="85.0394" height="29.7638" class="st3"/>
			<text x="31.19" y="827.48" class="st12" v:langID="1044"><v:paragraph v:horizAlign="1"/><v:tabList/>Saga <tspan
						x="13.11" dy="1.2em" class="st13">Middleware</tspan></text>		</g>
		<g id="shape43-84" v:mID="43" v:groupContext="shape" v:layerMember="0" transform="translate(331.695,-697.772)">
			<title>Dynamic connector.43</title>
			<desc>Receive Action</desc>
			<v:userDefs>
				<v:ud v:nameU="visVersion" v:val="VT0(15):26"/>
			</v:userDefs>
			<v:textBlock v:margins="rect(4,4,4,4)" v:tabSpace="42.5197"/>
			<v:textRect cx="35.4331" cy="838.873" width="57.69" height="17.6036"/>
			<path d="M0 838.87 L63.83 838.87" class="st14"/>
			<rect v:rectContext="textBkgnd" x="11.4962" y="834.074" width="47.874" height="9.59985" class="st16"/>
			<text x="11.5" y="841.27" class="st17" v:langID="1044"><v:paragraph v:horizAlign="1"/><v:tabList/>Receive Action</text>		</g>
		<g id="shape44-91" v:mID="44" v:groupContext="shape" v:layerMember="0" transform="translate(487.601,-695.299)">
			<title>Dynamic connector.44</title>
			<desc>Updates</desc>
			<v:userDefs>
				<v:ud v:nameU="visVersion" v:val="VT0(15):26"/>
			</v:userDefs>
			<v:textBlock v:margins="rect(4,4,4,4)" v:tabSpace="42.5197"/>
			<v:textRect cx="21.2598" cy="838.873" width="40" height="17.6036"/>
			<path d="M0 838.87 L35.48 838.87" class="st14"/>
			<rect v:rectContext="textBkgnd" x="7.67998" y="834.074" width="27.1599" height="9.59985" class="st16"/>
			<text x="7.68" y="841.27" class="st17" v:langID="1044"><v:paragraph v:horizAlign="1"/><v:tabList/>Updates</text>		</g>
		<g id="shape45-98" v:mID="45" v:groupContext="shape" v:layerMember="0" transform="translate(572.64,-712.669)">
			<title>Dynamic connector.113</title>
			<desc>Re render</desc>
			<v:userDefs>
				<v:ud v:nameU="visVersion" v:val="VT0(15):26"/>
			</v:userDefs>
			<v:textBlock v:margins="rect(4,4,4,4)" v:tabSpace="42.5197"/>
			<v:textRect cx="-32.6059" cy="783.613" width="41.9" height="17.6036"/>
			<path d="M0 845.96 L0 783.61 L-120.52 783.61" class="st14"/>
			<rect v:rectContext="textBkgnd" x="-48.6447" y="778.813" width="32.0779" height="9.59985" class="st16"/>
			<text x="-48.64" y="786.01" class="st17" v:langID="1044"><v:paragraph v:horizAlign="1"/><v:tabList/>Re render</text>		</g>
		<g id="shape46-105" v:mID="46" v:groupContext="shape" v:layerMember="0" transform="translate(175.79,-695.653)">
			<title>Dynamic connector.115</title>
			<desc>Dispatch Action</desc>
			<v:userDefs>
				<v:ud v:nameU="visVersion" v:val="VT0(15):26"/>
			</v:userDefs>
			<v:textBlock v:margins="rect(4,4,4,4)" v:tabSpace="42.5197"/>
			<v:textRect cx="35.4331" cy="838.873" width="60.76" height="17.6036"/>
			<path d="M0 838.87 L63.83 838.87" class="st14"/>
			<rect v:rectContext="textBkgnd" x="9.96097" y="834.074" width="50.9444" height="9.59985" class="st16"/>
			<text x="9.96" y="841.27" class="st17" v:langID="1044"><v:paragraph v:horizAlign="1"/><v:tabList/>Dispatch Action</text>		</g>
		<g id="shape47-112" v:mID="47" v:groupContext="shape" v:layerMember="0" transform="translate(246.656,-688.563)">
			<title>Dynamic connector.116</title>
			<desc>Receive Action</desc>
			<v:userDefs>
				<v:ud v:nameU="visVersion" v:val="VT0(15):26"/>
			</v:userDefs>
			<v:textBlock v:margins="rect(4,4,4,4)" v:tabSpace="42.5197"/>
			<v:textRect cx="-35.4331" cy="838.873" width="57.69" height="17.6036"/>
			<path d="M0 838.87 L-63.83 838.87" class="st14"/>
			<rect v:rectContext="textBkgnd" x="-59.37" y="834.074" width="47.874" height="9.59985" class="st16"/>
			<text x="-59.37" y="841.27" class="st17" v:langID="1044"><v:paragraph v:horizAlign="1"/><v:tabList/>Receive Action</text>		</g>
		<g id="shape49-119" v:mID="49" v:groupContext="shape" transform="translate(90.7504,-769.898)">
			<title>Sheet.49</title>
			<desc>App-Frontend (React app)</desc>
			<v:textBlock v:margins="rect(4,4,4,4)" v:tabSpace="42.5197"/>
			<v:textRect cx="51.5197" cy="835.96" width="103.04" height="20"/>
			<rect x="0" y="825.96" width="103.039" height="20" class="st10"/>
			<text x="24.53" y="832.36" class="st18" v:langID="1044"><v:paragraph v:indentLeft="14.17" v:horizAlign="1"/><v:tabList/>App-Frontend <tspan
						x="30.77" dy="1.2em" class="st13">(React app)</tspan></text>		</g>
		<g id="shape103-123" v:mID="103" v:groupContext="shape" v:layerMember="0" transform="translate(757.858,-835.294)">
			<title>Dynamic connector.211</title>
			<desc>Request with JWT header</desc>
			<v:userDefs>
				<v:ud v:nameU="visVersion" v:val="VT0(15):26"/>
			</v:userDefs>
			<v:textBlock v:margins="rect(4,4,4,4)" v:tabSpace="42.5197"/>
			<v:textRect cx="-1.77164" cy="967.942" width="92.75" height="17.6036"/>
			<path d="M-1.77 845.96 L-1.77 1079.29 L-2.86 1079.29" class="st19"/>
			<rect v:rectContext="textBkgnd" x="-43.2398" y="963.142" width="82.9366" height="9.59985" class="st16"/>
			<text x="-43.24" y="970.34" class="st17" v:langID="1044"><v:paragraph v:horizAlign="1"/><v:tabList/>Request with JWT header</text>		</g>
		<g id="shape115-131" v:mID="115" v:groupContext="shape" transform="translate(306.086,-184.134)">
			<title>Sheet.115</title>
			<desc>Altinn.App.PlatformServices</desc>
			<v:textBlock v:margins="rect(4,4,4,4)" v:tabSpace="42.5197"/>
			<v:textRect cx="81.9921" cy="838.023" width="163.99" height="15.874"/>
			<rect x="0" y="830.086" width="163.984" height="15.874" class="st10"/>
			<text x="13.62" y="841.62" class="st11" v:langID="1044"><v:paragraph v:horizAlign="1"/><v:tabList/>Altinn.App.PlatformServices</text>		</g>
		<g id="shape134-134" v:mID="134" v:groupContext="shape" transform="translate(99.4856,-454.402)">
			<title>Sheet.134</title>
			<desc>App-backend (Kubernes Pod)</desc>
			<v:textBlock v:margins="rect(4,4,4,4)" v:tabSpace="42.5197"/>
			<v:textRect cx="76" cy="835.96" width="152.01" height="20"/>
			<rect x="0" y="825.96" width="152" height="20" class="st10"/>
			<text x="5.05" y="839.56" class="st18" v:langID="1044"><v:paragraph v:horizAlign="1"/><v:tabList/>App-backend (Kubernes Pod)</text>		</g>
		<g id="shape157-137" v:mID="157" v:groupContext="shape" transform="translate(33.9605,-401.835)">
			<title>Sheet.157</title>
			<desc>App Logic</desc>
			<v:textBlock v:margins="rect(4,4,4,4)" v:tabSpace="42.5197"/>
			<v:textRect cx="68.0315" cy="838.023" width="136.07" height="15.874"/>
			<rect x="0" y="830.086" width="136.063" height="15.874" class="st10"/>
			<text x="4" y="841.62" class="st11" v:langID="1044"><v:paragraph/><v:tabList/>App Logic</text>		</g>
		<g id="shape417-140" v:mID="417" v:groupContext="shape" transform="translate(2.77943,-587.788)">
			<title>Rectangle.417</title>
			<desc>Routing ( Traefik)</desc>
			<v:userDefs>
				<v:ud v:nameU="visVersion" v:val="VT0(15):26"/>
			</v:userDefs>
			<v:textBlock v:margins="rect(4,4,4,4)" v:tabSpace="42.5197"/>
			<v:textRect cx="371.339" cy="831.787" width="742.68" height="28.3465"/>
			<g id="shadow417-141" v:groupContext="shadow" v:shadowOffsetX="0.345598" v:shadowOffsetY="-1.97279" v:shadowType="1"
					transform="matrix(1,0,0,1,0.345598,1.97279)" class="st1">
				<rect x="0" y="817.614" width="742.677" height="28.3465" class="st2"/>
			</g>
			<rect x="0" y="817.614" width="742.677" height="28.3465" class="st21"/>
			<text x="335.13" y="834.79" class="st22" v:langID="1044"><v:paragraph v:horizAlign="1"/><v:tabList/>Routing  ( Traefik)</text>		</g>
		<g id="shape456-146" v:mID="456" v:groupContext="shape" transform="translate(14.118,-446.055)">
			<title>Sheet.456</title>
			<g id="shadow456-147" v:groupContext="shadow" v:shadowOffsetX="0.345598" v:shadowOffsetY="-1.97279" v:shadowType="1"
					transform="matrix(1,0,0,1,0.345598,1.97279)" class="st1">
				<rect x="0" y="803.44" width="717.165" height="42.5197" class="st5"/>
			</g>
			<rect x="0" y="803.44" width="717.165" height="42.5197" class="st7"/>
		</g>
		<g id="shape19-155" v:mID="19" v:groupContext="shape" transform="translate(36.7951,-448.89)">
			<title>Sheet.19</title>
			<desc>Policy Enforcment Point (PEP</desc>
			<v:textBlock v:margins="rect(4,4,4,4)" v:tabSpace="42.5197"/>
			<v:textRect cx="340.157" cy="833.204" width="680.32" height="25.5118"/>
			<g id="shadow19-156" v:groupContext="shadow" v:shadowOffsetX="0.345598" v:shadowOffsetY="-1.97279" v:shadowType="1"
					transform="matrix(1,0,0,1,0.345598,1.97279)" class="st1">
				<rect x="0" y="820.448" width="680.315" height="25.5118" class="st2"/>
			</g>
			<rect x="0" y="820.448" width="680.315" height="25.5118" class="st23"/>
			<text x="269.42" y="836.8" class="st12" v:langID="1044"><v:paragraph v:horizAlign="1"/><v:tabList/>Policy Enforcment Point (PEP</text>		</g>
		<g id="shape457-161" v:mID="457" v:groupContext="shape" transform="translate(-500.189,810.928) rotate(-90)">
			<title>Sheet.457</title>
			<desc>Authentication</desc>
			<v:textBlock v:margins="rect(4,4,4,4)" v:tabSpace="42.5197"/>
			<v:textRect cx="70.8661" cy="833.204" width="141.74" height="25.5118"/>
			<g id="shadow457-162" v:groupContext="shadow" v:shadowOffsetX="0.345598" v:shadowOffsetY="-1.97279" v:shadowType="1"
					transform="matrix(1,0,0,1,-1.97279,0.345598)" class="st1">
				<rect x="0" y="820.448" width="141.732" height="25.5118" class="st2"/>
			</g>
			<rect x="0" y="820.448" width="141.732" height="25.5118" class="st3"/>
			<text x="4" y="836.8" class="st12" v:langID="1044"><v:paragraph/><v:tabList/>Authentication</text>		</g>
		<g id="shape459-167" v:mID="459" v:groupContext="shape" transform="translate(-500.189,598.33) rotate(-90)">
			<title>Sheet.459</title>
			<desc>Account</desc>
			<v:textBlock v:margins="rect(4,4,4,4)" v:tabSpace="42.5197"/>
			<v:textRect cx="70.8661" cy="833.204" width="141.74" height="25.5118"/>
			<g id="shadow459-168" v:groupContext="shadow" v:shadowOffsetX="0.345598" v:shadowOffsetY="-1.97279" v:shadowType="1"
					transform="matrix(1,0,0,1,-1.97279,0.345598)" class="st1">
				<rect x="0" y="820.448" width="141.732" height="25.5118" class="st2"/>
			</g>
			<rect x="0" y="820.448" width="141.732" height="25.5118" class="st21"/>
			<text x="4" y="836.8" class="st12" v:langID="1044"><v:paragraph/><v:tabList/>Account</text>		</g>
		<g id="shape460-173" v:mID="460" v:groupContext="shape" transform="translate(-471.842,598.33) rotate(-90)">
			<title>Sheet.460</title>
			<desc>ApplicationMetadata</desc>
			<v:textBlock v:margins="rect(4,4,4,4)" v:tabSpace="42.5197"/>
			<v:textRect cx="70.8661" cy="833.204" width="141.74" height="25.5118"/>
			<g id="shadow460-174" v:groupContext="shadow" v:shadowOffsetX="0.345598" v:shadowOffsetY="-1.97279" v:shadowType="1"
					transform="matrix(1,0,0,1,-1.97279,0.345598)" class="st1">
				<rect x="0" y="820.448" width="141.732" height="25.5118" class="st2"/>
			</g>
			<rect x="0" y="820.448" width="141.732" height="25.5118" class="st3"/>
			<text x="4" y="836.8" class="st12" v:langID="1044"><v:paragraph/><v:tabList/>ApplicationMetadata</text>		</g>
		<g id="shape461-179" v:mID="461" v:groupContext="shape" transform="translate(-443.496,598.33) rotate(-90)">
			<title>Sheet.461</title>
			<desc>Authentication</desc>
			<v:textBlock v:margins="rect(4,4,4,4)" v:tabSpace="42.5197"/>
			<v:textRect cx="70.8661" cy="833.204" width="141.74" height="25.5118"/>
			<g id="shadow461-180" v:groupContext="shadow" v:shadowOffsetX="0.345598" v:shadowOffsetY="-1.97279" v:shadowType="1"
					transform="matrix(1,0,0,1,-1.97279,0.345598)" class="st1">
				<rect x="0" y="820.448" width="141.732" height="25.5118" class="st2"/>
			</g>
			<rect x="0" y="820.448" width="141.732" height="25.5118" class="st3"/>
			<text x="4" y="836.8" class="st12" v:langID="1044"><v:paragraph/><v:tabList/>Authentication</text>		</g>
		<g id="shape462-185" v:mID="462" v:groupContext="shape" transform="translate(-415.149,598.33) rotate(-90)">
			<title>Sheet.462</title>
			<desc>Authorization</desc>
			<v:textBlock v:margins="rect(4,4,4,4)" v:tabSpace="42.5197"/>
			<v:textRect cx="70.8661" cy="833.204" width="141.74" height="25.5118"/>
			<g id="shadow462-186" v:groupContext="shadow" v:shadowOffsetX="0.345598" v:shadowOffsetY="-1.97279" v:shadowType="1"
					transform="matrix(1,0,0,1,-1.97279,0.345598)" class="st1">
				<rect x="0" y="820.448" width="141.732" height="25.5118" class="st2"/>
			</g>
			<rect x="0" y="820.448" width="141.732" height="25.5118" class="st3"/>
			<text x="4" y="836.8" class="st12" v:langID="1044"><v:paragraph/><v:tabList/>Authorization</text>		</g>
		<g id="shape463-191" v:mID="463" v:groupContext="shape" transform="translate(-386.803,598.33) rotate(-90)">
			<title>Sheet.463</title>
			<desc>Data</desc>
			<v:textBlock v:margins="rect(4,4,4,4)" v:tabSpace="42.5197"/>
			<v:textRect cx="70.8661" cy="833.204" width="141.74" height="25.5118"/>
			<g id="shadow463-192" v:groupContext="shadow" v:shadowOffsetX="0.345598" v:shadowOffsetY="-1.97279" v:shadowType="1"
					transform="matrix(1,0,0,1,-1.97279,0.345598)" class="st1">
				<rect x="0" y="820.448" width="141.732" height="25.5118" class="st2"/>
			</g>
			<rect x="0" y="820.448" width="141.732" height="25.5118" class="st3"/>
			<text x="4" y="836.8" class="st12" v:langID="1044"><v:paragraph/><v:tabList/>Data</text>		</g>
		<g id="shape464-197" v:mID="464" v:groupContext="shape" transform="translate(-358.456,598.33) rotate(-90)">
			<title>Sheet.464</title>
			<desc>Home</desc>
			<v:textBlock v:margins="rect(4,4,4,4)" v:tabSpace="42.5197"/>
			<v:textRect cx="70.8661" cy="833.204" width="141.74" height="25.5118"/>
			<g id="shadow464-198" v:groupContext="shadow" v:shadowOffsetX="0.345598" v:shadowOffsetY="-1.97279" v:shadowType="1"
					transform="matrix(1,0,0,1,-1.97279,0.345598)" class="st1">
				<rect x="0" y="820.448" width="141.732" height="25.5118" class="st2"/>
			</g>
			<rect x="0" y="820.448" width="141.732" height="25.5118" class="st21"/>
			<text x="4" y="836.8" class="st12" v:langID="1044"><v:paragraph/><v:tabList/>Home</text>		</g>
		<g id="shape465-203" v:mID="465" v:groupContext="shape" transform="translate(-330.11,598.33) rotate(-90)">
			<title>Sheet.465</title>
			<desc>Instances</desc>
			<v:textBlock v:margins="rect(4,4,4,4)" v:tabSpace="42.5197"/>
			<v:textRect cx="70.8661" cy="833.204" width="141.74" height="25.5118"/>
			<g id="shadow465-204" v:groupContext="shadow" v:shadowOffsetX="0.345598" v:shadowOffsetY="-1.97279" v:shadowType="1"
					transform="matrix(1,0,0,1,-1.97279,0.345598)" class="st1">
				<rect x="0" y="820.448" width="141.732" height="25.5118" class="st2"/>
			</g>
			<rect x="0" y="820.448" width="141.732" height="25.5118" class="st3"/>
			<text x="4" y="836.8" class="st12" v:langID="1044"><v:paragraph/><v:tabList/>Instances</text>		</g>
		<g id="shape466-209" v:mID="466" v:groupContext="shape" transform="translate(-301.763,598.33) rotate(-90)">
			<title>Sheet.466</title>
			<desc>Parties</desc>
			<v:textBlock v:margins="rect(4,4,4,4)" v:tabSpace="42.5197"/>
			<v:textRect cx="70.8661" cy="833.204" width="141.74" height="25.5118"/>
			<g id="shadow466-210" v:groupContext="shadow" v:shadowOffsetX="0.345598" v:shadowOffsetY="-1.97279" v:shadowType="1"
					transform="matrix(1,0,0,1,-1.97279,0.345598)" class="st1">
				<rect x="0" y="820.448" width="141.732" height="25.5118" class="st2"/>
			</g>
			<rect x="0" y="820.448" width="141.732" height="25.5118" class="st3"/>
			<text x="4" y="836.8" class="st12" v:langID="1044"><v:paragraph/><v:tabList/>Parties</text>		</g>
		<g id="shape467-215" v:mID="467" v:groupContext="shape" transform="translate(-273.417,598.33) rotate(-90)">
			<title>Sheet.467</title>
			<desc>Process</desc>
			<v:textBlock v:margins="rect(4,4,4,4)" v:tabSpace="42.5197"/>
			<v:textRect cx="70.8661" cy="833.204" width="141.74" height="25.5118"/>
			<g id="shadow467-216" v:groupContext="shadow" v:shadowOffsetX="0.345598" v:shadowOffsetY="-1.97279" v:shadowType="1"
					transform="matrix(1,0,0,1,-1.97279,0.345598)" class="st1">
				<rect x="0" y="820.448" width="141.732" height="25.5118" class="st2"/>
			</g>
			<rect x="0" y="820.448" width="141.732" height="25.5118" class="st3"/>
			<text x="4" y="836.8" class="st12" v:langID="1044"><v:paragraph/><v:tabList/>Process</text>		</g>
		<g id="shape468-221" v:mID="468" v:groupContext="shape" transform="translate(-245.07,598.33) rotate(-90)">
			<title>Sheet.468</title>
			<desc>Profile</desc>
			<v:textBlock v:margins="rect(4,4,4,4)" v:tabSpace="42.5197"/>
			<v:textRect cx="70.8661" cy="833.204" width="141.74" height="25.5118"/>
			<g id="shadow468-222" v:groupContext="shadow" v:shadowOffsetX="0.345598" v:shadowOffsetY="-1.97279" v:shadowType="1"
					transform="matrix(1,0,0,1,-1.97279,0.345598)" class="st1">
				<rect x="0" y="820.448" width="141.732" height="25.5118" class="st2"/>
			</g>
			<rect x="0" y="820.448" width="141.732" height="25.5118" class="st3"/>
			<text x="4" y="836.8" class="st12" v:langID="1044"><v:paragraph/><v:tabList/>Profile</text>		</g>
		<g id="shape469-227" v:mID="469" v:groupContext="shape" transform="translate(-216.724,598.33) rotate(-90)">
			<title>Sheet.469</title>
			<desc>Resource</desc>
			<v:textBlock v:margins="rect(4,4,4,4)" v:tabSpace="42.5197"/>
			<v:textRect cx="70.8661" cy="833.204" width="141.74" height="25.5118"/>
			<g id="shadow469-228" v:groupContext="shadow" v:shadowOffsetX="0.345598" v:shadowOffsetY="-1.97279" v:shadowType="1"
					transform="matrix(1,0,0,1,-1.97279,0.345598)" class="st1">
				<rect x="0" y="820.448" width="141.732" height="25.5118" class="st2"/>
			</g>
			<rect x="0" y="820.448" width="141.732" height="25.5118" class="st3"/>
			<text x="4" y="836.8" class="st12" v:langID="1044"><v:paragraph/><v:tabList/>Resource</text>		</g>
		<g id="shape470-233" v:mID="470" v:groupContext="shape" transform="translate(-188.377,598.33) rotate(-90)">
			<title>Sheet.470</title>
			<desc>Validation</desc>
			<v:textBlock v:margins="rect(4,4,4,4)" v:tabSpace="42.5197"/>
			<v:textRect cx="70.8661" cy="833.204" width="141.74" height="25.5118"/>
			<g id="shadow470-234" v:groupContext="shadow" v:shadowOffsetX="0.345598" v:shadowOffsetY="-1.97279" v:shadowType="1"
					transform="matrix(1,0,0,1,-1.97279,0.345598)" class="st1">
				<rect x="0" y="820.448" width="141.732" height="25.5118" class="st2"/>
			</g>
			<rect x="0" y="820.448" width="141.732" height="25.5118" class="st3"/>
			<text x="4" y="836.8" class="st12" v:langID="1044"><v:paragraph/><v:tabList/>Validation</text>		</g>
		<g id="shape474-239" v:mID="474" v:groupContext="shape" transform="translate(-471.842,810.928) rotate(-90)">
			<title>Sheet.474</title>
			<desc>Authorization</desc>
			<v:textBlock v:margins="rect(4,4,4,4)" v:tabSpace="42.5197"/>
			<v:textRect cx="70.8661" cy="833.204" width="141.74" height="25.5118"/>
			<g id="shadow474-240" v:groupContext="shadow" v:shadowOffsetX="0.345598" v:shadowOffsetY="-1.97279" v:shadowType="1"
					transform="matrix(1,0,0,1,-1.97279,0.345598)" class="st1">
				<rect x="0" y="820.448" width="141.732" height="25.5118" class="st2"/>
			</g>
			<rect x="0" y="820.448" width="141.732" height="25.5118" class="st3"/>
			<text x="4" y="836.8" class="st12" v:langID="1044"><v:paragraph/><v:tabList/>Authorization</text>		</g>
		<g id="shape475-245" v:mID="475" v:groupContext="shape" transform="translate(-443.496,810.928) rotate(-90)">
			<title>Sheet.475</title>
			<desc>DSF</desc>
			<v:textBlock v:margins="rect(4,4,4,4)" v:tabSpace="42.5197"/>
			<v:textRect cx="70.8661" cy="833.204" width="141.74" height="25.5118"/>
			<g id="shadow475-246" v:groupContext="shadow" v:shadowOffsetX="0.345598" v:shadowOffsetY="-1.97279" v:shadowType="1"
					transform="matrix(1,0,0,1,-1.97279,0.345598)" class="st1">
				<rect x="0" y="820.448" width="141.732" height="25.5118" class="st2"/>
			</g>
			<rect x="0" y="820.448" width="141.732" height="25.5118" class="st3"/>
			<text x="4" y="836.8" class="st12" v:langID="1044"><v:paragraph/><v:tabList/>DSF</text>		</g>
		<g id="shape476-251" v:mID="476" v:groupContext="shape" transform="translate(-415.149,810.928) rotate(-90)">
			<title>Sheet.476</title>
			<desc>Data</desc>
			<v:textBlock v:margins="rect(4,4,4,4)" v:tabSpace="42.5197"/>
			<v:textRect cx="70.8661" cy="833.204" width="141.74" height="25.5118"/>
			<g id="shadow476-252" v:groupContext="shadow" v:shadowOffsetX="0.345598" v:shadowOffsetY="-1.97279" v:shadowType="1"
					transform="matrix(1,0,0,1,-1.97279,0.345598)" class="st1">
				<rect x="0" y="820.448" width="141.732" height="25.5118" class="st2"/>
			</g>
			<rect x="0" y="820.448" width="141.732" height="25.5118" class="st3"/>
			<text x="4" y="836.8" class="st12" v:langID="1044"><v:paragraph/><v:tabList/>Data</text>		</g>
		<g id="shape477-257" v:mID="477" v:groupContext="shape" transform="translate(-386.803,810.928) rotate(-90)">
			<title>Sheet.477</title>
			<desc>ER</desc>
			<v:textBlock v:margins="rect(4,4,4,4)" v:tabSpace="42.5197"/>
			<v:textRect cx="70.8661" cy="833.204" width="141.74" height="25.5118"/>
			<g id="shadow477-258" v:groupContext="shadow" v:shadowOffsetX="0.345598" v:shadowOffsetY="-1.97279" v:shadowType="1"
					transform="matrix(1,0,0,1,-1.97279,0.345598)" class="st1">
				<rect x="0" y="820.448" width="141.732" height="25.5118" class="st2"/>
			</g>
			<rect x="0" y="820.448" width="141.732" height="25.5118" class="st3"/>
			<text x="4" y="836.8" class="st12" v:langID="1044"><v:paragraph/><v:tabList/>ER</text>		</g>
		<g id="shape478-263" v:mID="478" v:groupContext="shape" transform="translate(-358.456,810.928) rotate(-90)">
			<title>Sheet.478</title>
			<desc>Instances</desc>
			<v:textBlock v:margins="rect(4,4,4,4)" v:tabSpace="42.5197"/>
			<v:textRect cx="70.8661" cy="833.204" width="141.74" height="25.5118"/>
			<g id="shadow478-264" v:groupContext="shadow" v:shadowOffsetX="0.345598" v:shadowOffsetY="-1.97279" v:shadowType="1"
					transform="matrix(1,0,0,1,-1.97279,0.345598)" class="st1">
				<rect x="0" y="820.448" width="141.732" height="25.5118" class="st2"/>
			</g>
			<rect x="0" y="820.448" width="141.732" height="25.5118" class="st3"/>
			<text x="4" y="836.8" class="st12" v:langID="1044"><v:paragraph/><v:tabList/>Instances</text>		</g>
		<g id="shape479-269" v:mID="479" v:groupContext="shape" transform="translate(-330.11,810.928) rotate(-90)">
			<title>Sheet.479</title>
			<desc>InstanceEvent</desc>
			<v:textBlock v:margins="rect(4,4,4,4)" v:tabSpace="42.5197"/>
			<v:textRect cx="70.8661" cy="833.204" width="141.74" height="25.5118"/>
			<g id="shadow479-270" v:groupContext="shadow" v:shadowOffsetX="0.345598" v:shadowOffsetY="-1.97279" v:shadowType="1"
					transform="matrix(1,0,0,1,-1.97279,0.345598)" class="st1">
				<rect x="0" y="820.448" width="141.732" height="25.5118" class="st2"/>
			</g>
			<rect x="0" y="820.448" width="141.732" height="25.5118" class="st3"/>
			<text x="4" y="836.8" class="st12" v:langID="1044"><v:paragraph/><v:tabList/>InstanceEvent</text>		</g>
		<g id="shape480-275" v:mID="480" v:groupContext="shape" transform="translate(-301.763,810.928) rotate(-90)">
			<title>Sheet.480</title>
			<desc>PDF</desc>
			<v:textBlock v:margins="rect(4,4,4,4)" v:tabSpace="42.5197"/>
			<v:textRect cx="70.8661" cy="833.204" width="141.74" height="25.5118"/>
			<g id="shadow480-276" v:groupContext="shadow" v:shadowOffsetX="0.345598" v:shadowOffsetY="-1.97279" v:shadowType="1"
					transform="matrix(1,0,0,1,-1.97279,0.345598)" class="st1">
				<rect x="0" y="820.448" width="141.732" height="25.5118" class="st2"/>
			</g>
			<rect x="0" y="820.448" width="141.732" height="25.5118" class="st3"/>
			<text x="4" y="836.8" class="st12" v:langID="1044"><v:paragraph/><v:tabList/>PDF</text>		</g>
		<g id="shape481-281" v:mID="481" v:groupContext="shape" transform="translate(-273.417,810.928) rotate(-90)">
			<title>Sheet.481</title>
			<desc>Prefill</desc>
			<v:textBlock v:margins="rect(4,4,4,4)" v:tabSpace="42.5197"/>
			<v:textRect cx="70.8661" cy="833.204" width="141.74" height="25.5118"/>
			<g id="shadow481-282" v:groupContext="shadow" v:shadowOffsetX="0.345598" v:shadowOffsetY="-1.97279" v:shadowType="1"
					transform="matrix(1,0,0,1,-1.97279,0.345598)" class="st1">
				<rect x="0" y="820.448" width="141.732" height="25.5118" class="st2"/>
			</g>
			<rect x="0" y="820.448" width="141.732" height="25.5118" class="st3"/>
			<text x="4" y="836.8" class="st12" v:langID="1044"><v:paragraph/><v:tabList/>Prefill</text>		</g>
		<g id="shape482-287" v:mID="482" v:groupContext="shape" transform="translate(-245.07,810.928) rotate(-90)">
			<title>Sheet.482</title>
			<desc>Process</desc>
			<v:textBlock v:margins="rect(4,4,4,4)" v:tabSpace="42.5197"/>
			<v:textRect cx="70.8661" cy="833.204" width="141.74" height="25.5118"/>
			<g id="shadow482-288" v:groupContext="shadow" v:shadowOffsetX="0.345598" v:shadowOffsetY="-1.97279" v:shadowType="1"
					transform="matrix(1,0,0,1,-1.97279,0.345598)" class="st1">
				<rect x="0" y="820.448" width="141.732" height="25.5118" class="st2"/>
			</g>
			<rect x="0" y="820.448" width="141.732" height="25.5118" class="st3"/>
			<text x="4" y="836.8" class="st12" v:langID="1044"><v:paragraph/><v:tabList/>Process</text>		</g>
		<g id="shape483-293" v:mID="483" v:groupContext="shape" transform="translate(-216.724,810.928) rotate(-90)">
			<title>Sheet.483</title>
			<desc>Profile</desc>
			<v:textBlock v:margins="rect(4,4,4,4)" v:tabSpace="42.5197"/>
			<v:textRect cx="70.8661" cy="833.204" width="141.74" height="25.5118"/>
			<g id="shadow483-294" v:groupContext="shadow" v:shadowOffsetX="0.345598" v:shadowOffsetY="-1.97279" v:shadowType="1"
					transform="matrix(1,0,0,1,-1.97279,0.345598)" class="st1">
				<rect x="0" y="820.448" width="141.732" height="25.5118" class="st2"/>
			</g>
			<rect x="0" y="820.448" width="141.732" height="25.5118" class="st3"/>
			<text x="4" y="836.8" class="st12" v:langID="1044"><v:paragraph/><v:tabList/>Profile</text>		</g>
		<g id="shape484-299" v:mID="484" v:groupContext="shape" transform="translate(-188.377,810.928) rotate(-90)">
			<title>Sheet.484</title>
			<desc>Register</desc>
			<v:textBlock v:margins="rect(4,4,4,4)" v:tabSpace="42.5197"/>
			<v:textRect cx="70.8661" cy="833.204" width="141.74" height="25.5118"/>
			<g id="shadow484-300" v:groupContext="shadow" v:shadowOffsetX="0.345598" v:shadowOffsetY="-1.97279" v:shadowType="1"
					transform="matrix(1,0,0,1,-1.97279,0.345598)" class="st1">
				<rect x="0" y="820.448" width="141.732" height="25.5118" class="st2"/>
			</g>
			<rect x="0" y="820.448" width="141.732" height="25.5118" class="st3"/>
			<text x="4" y="836.8" class="st12" v:langID="1044"><v:paragraph/><v:tabList/>Register</text>		</g>
		<g id="shape485-305" v:mID="485" v:groupContext="shape" transform="translate(-160.031,810.928) rotate(-90)">
			<title>Sheet.485</title>
			<desc>Validation</desc>
			<v:textBlock v:margins="rect(4,4,4,4)" v:tabSpace="42.5197"/>
			<v:textRect cx="70.8661" cy="833.204" width="141.74" height="25.5118"/>
			<g id="shadow485-306" v:groupContext="shadow" v:shadowOffsetX="0.345598" v:shadowOffsetY="-1.97279" v:shadowType="1"
					transform="matrix(1,0,0,1,-1.97279,0.345598)" class="st1">
				<rect x="0" y="820.448" width="141.732" height="25.5118" class="st2"/>
			</g>
			<rect x="0" y="820.448" width="141.732" height="25.5118" class="st3"/>
			<text x="4" y="836.8" class="st12" v:langID="1044"><v:paragraph/><v:tabList/>Validation</text>		</g>
		<a xlink:href="/Content/RedirectToContent/?ContentType=Resource&#38;Title=Archive">
			<g id="shape488-311" v:mID="488" v:groupContext="shape" transform="translate(172.858,-20.8585)">
				<title>Sheet.488</title>
				<g id="shadow488-312" v:groupContext="shadow" v:shadowOffsetX="0.345598" v:shadowOffsetY="-1.97279"
						v:shadowType="1" transform="matrix(1,0,0,1,0.345598,1.97279)" class="st1">
					<rect x="0" y="661.708" width="113.386" height="184.252" class="st2"/>
				</g>
				<rect x="0" y="661.708" width="113.386" height="184.252" class="st4"/>
			</g>
		</a>
		<g id="shape489-316" v:mID="489" v:groupContext="shape" transform="translate(142.102,-182.747)">
			<title>Sheet.489</title>
			<desc>Altinn.App.Common</desc>
			<v:textBlock v:margins="rect(4,4,4,4)" v:tabSpace="42.5197"/>
			<v:textRect cx="81.9921" cy="838.023" width="163.99" height="15.874"/>
			<rect x="0" y="830.086" width="163.984" height="15.874" class="st10"/>
			<text x="32.38" y="841.62" class="st11" v:langID="1044"><v:paragraph v:horizAlign="1"/><v:tabList/>Altinn.App.Common</text>		</g>
		<g id="shape490-319" v:mID="490" v:groupContext="shape" transform="translate(-783.653,598.33) rotate(-90)">
			<title>Sheet.490</title>
			<desc>Custom Api A</desc>
			<v:textBlock v:margins="rect(4,4,4,4)" v:tabSpace="42.5197"/>
			<v:textRect cx="70.8661" cy="833.204" width="141.74" height="25.5118"/>
			<g id="shadow490-320" v:groupContext="shadow" v:shadowOffsetX="0.345598" v:shadowOffsetY="-1.97279" v:shadowType="1"
					transform="matrix(1,0,0,1,-1.97279,0.345598)" class="st1">
				<rect x="0" y="820.448" width="141.732" height="25.5118" class="st2"/>
			</g>
			<rect x="0" y="820.448" width="141.732" height="25.5118" class="st3"/>
			<text x="4" y="836.8" class="st12" v:langID="1044"><v:paragraph/><v:tabList/>Custom Api A</text>		</g>
		<g id="shape492-325" v:mID="492" v:groupContext="shape" transform="translate(-755.307,598.33) rotate(-90)">
			<title>Sheet.492</title>
			<desc>Custom Api B</desc>
			<v:textBlock v:margins="rect(4,4,4,4)" v:tabSpace="42.5197"/>
			<v:textRect cx="70.8661" cy="833.204" width="141.74" height="25.5118"/>
			<g id="shadow492-326" v:groupContext="shadow" v:shadowOffsetX="0.345598" v:shadowOffsetY="-1.97279" v:shadowType="1"
					transform="matrix(1,0,0,1,-1.97279,0.345598)" class="st1">
				<rect x="0" y="820.448" width="141.732" height="25.5118" class="st2"/>
			</g>
			<rect x="0" y="820.448" width="141.732" height="25.5118" class="st3"/>
			<text x="4" y="836.8" class="st12" v:langID="1044"><v:paragraph/><v:tabList/>Custom Api B</text>		</g>
		<g id="shape493-331" v:mID="493" v:groupContext="shape" transform="translate(-726.96,598.33) rotate(-90)">
			<title>Sheet.493</title>
			<desc>Custom Api C</desc>
			<v:textBlock v:margins="rect(4,4,4,4)" v:tabSpace="42.5197"/>
			<v:textRect cx="70.8661" cy="833.204" width="141.74" height="25.5118"/>
			<g id="shadow493-332" v:groupContext="shadow" v:shadowOffsetX="0.345598" v:shadowOffsetY="-1.97279" v:shadowType="1"
					transform="matrix(1,0,0,1,-1.97279,0.345598)" class="st1">
				<rect x="0" y="820.448" width="141.732" height="25.5118" class="st2"/>
			</g>
			<rect x="0" y="820.448" width="141.732" height="25.5118" class="st3"/>
			<text x="4" y="836.8" class="st12" v:langID="1044"><v:paragraph/><v:tabList/>Custom Api C</text>		</g>
		<g id="shape494-337" v:mID="494" v:groupContext="shape" transform="translate(-783.653,810.928) rotate(-90)">
			<title>Sheet.494</title>
			<desc>App</desc>
			<v:textBlock v:margins="rect(4,4,4,4)" v:tabSpace="42.5197"/>
			<v:textRect cx="70.8661" cy="833.204" width="141.74" height="25.5118"/>
			<g id="shadow494-338" v:groupContext="shadow" v:shadowOffsetX="0.345598" v:shadowOffsetY="-1.97279" v:shadowType="1"
					transform="matrix(1,0,0,1,-1.97279,0.345598)" class="st1">
				<rect x="0" y="820.448" width="141.732" height="25.5118" class="st2"/>
			</g>
			<rect x="0" y="820.448" width="141.732" height="25.5118" class="st3"/>
			<text x="4" y="836.8" class="st12" v:langID="1044"><v:paragraph/><v:tabList/>App</text>		</g>
		<g id="shape495-343" v:mID="495" v:groupContext="shape" transform="translate(-755.307,810.928) rotate(-90)">
			<title>Sheet.495</title>
			<desc>Custom Client X</desc>
			<v:textBlock v:margins="rect(4,4,4,4)" v:tabSpace="42.5197"/>
			<v:textRect cx="70.8661" cy="833.204" width="141.74" height="25.5118"/>
			<g id="shadow495-344" v:groupContext="shadow" v:shadowOffsetX="0.345598" v:shadowOffsetY="-1.97279" v:shadowType="1"
					transform="matrix(1,0,0,1,-1.97279,0.345598)" class="st1">
				<rect x="0" y="820.448" width="141.732" height="25.5118" class="st2"/>
			</g>
			<rect x="0" y="820.448" width="141.732" height="25.5118" class="st3"/>
			<text x="4" y="836.8" class="st12" v:langID="1044"><v:paragraph/><v:tabList/>Custom Client X</text>		</g>
		<g id="shape496-349" v:mID="496" v:groupContext="shape" transform="translate(-726.96,810.928) rotate(-90)">
			<title>Sheet.496</title>
			<desc>Custom Client Z</desc>
			<v:textBlock v:margins="rect(4,4,4,4)" v:tabSpace="42.5197"/>
			<v:textRect cx="70.8661" cy="833.204" width="141.74" height="25.5118"/>
			<g id="shadow496-350" v:groupContext="shadow" v:shadowOffsetX="0.345598" v:shadowOffsetY="-1.97279" v:shadowType="1"
					transform="matrix(1,0,0,1,-1.97279,0.345598)" class="st1">
				<rect x="0" y="820.448" width="141.732" height="25.5118" class="st2"/>
			</g>
			<rect x="0" y="820.448" width="141.732" height="25.5118" class="st3"/>
			<text x="4" y="836.8" class="st12" v:langID="1044"><v:paragraph/><v:tabList/>Custom Client Z</text>		</g>
		<g id="shape497-355" v:mID="497" v:groupContext="shape" transform="translate(-641.921,810.928) rotate(-90)">
			<title>Sheet.497</title>
			<desc>AppResource</desc>
			<v:textBlock v:margins="rect(4,4,4,4)" v:tabSpace="42.5197"/>
			<v:textRect cx="70.8661" cy="833.204" width="141.74" height="25.5118"/>
			<g id="shadow497-356" v:groupContext="shadow" v:shadowOffsetX="0.345598" v:shadowOffsetY="-1.97279" v:shadowType="1"
					transform="matrix(1,0,0,1,-1.97279,0.345598)" class="st1">
				<rect x="0" y="820.448" width="141.732" height="25.5118" class="st2"/>
			</g>
			<rect x="0" y="820.448" width="141.732" height="25.5118" class="st3"/>
			<text x="4" y="836.8" class="st12" v:langID="1044"><v:paragraph/><v:tabList/>AppResource</text>		</g>
		<g id="shape498-361" v:mID="498" v:groupContext="shape" transform="translate(12.1337,-502.748)">
			<title>Sheet.498</title>
			<g id="shadow498-362" v:groupContext="shadow" v:shadowOffsetX="0.345598" v:shadowOffsetY="-1.97279" v:shadowType="1"
					transform="matrix(1,0,0,1,0.345598,1.97279)" class="st1">
				<rect x="0" y="803.44" width="717.165" height="42.5197" class="st5"/>
			</g>
			<rect x="0" y="803.44" width="717.165" height="42.5197" class="st7"/>
		</g>
		<g id="shape18-370" v:mID="18" v:groupContext="shape" transform="translate(36.7951,-505.583)">
			<title>Sheet.18</title>
			<desc>AuthenticationHandler</desc>
			<v:textBlock v:margins="rect(4,4,4,4)" v:tabSpace="42.5197"/>
			<v:textRect cx="340.157" cy="833.204" width="680.32" height="25.5118"/>
			<g id="shadow18-371" v:groupContext="shadow" v:shadowOffsetX="0.345598" v:shadowOffsetY="-1.97279" v:shadowType="1"
					transform="matrix(1,0,0,1,0.345598,1.97279)" class="st1">
				<rect x="0" y="820.448" width="680.315" height="25.5118" class="st2"/>
			</g>
			<rect x="0" y="820.448" width="680.315" height="25.5118" class="st23"/>
			<text x="284.36" y="836.8" class="st12" v:langID="1044"><v:paragraph v:horizAlign="1"/><v:tabList/>AuthenticationHandler</text>		</g>
		<g id="shape499-376" v:mID="499" v:groupContext="shape" transform="translate(12.1337,-472.261)">
			<title>Sheet.499</title>
			<desc>Altinn.Common.PEP</desc>
			<v:textBlock v:margins="rect(4,4,4,4)" v:tabSpace="42.5197"/>
			<v:textRect cx="68.0315" cy="838.023" width="136.07" height="15.874"/>
			<rect x="0" y="830.086" width="136.063" height="15.874" class="st10"/>
			<text x="4" y="841.62" class="st11" v:langID="1044"><v:paragraph/><v:tabList/>Altinn.Common.PEP</text>		</g>
		<g id="shape500-379" v:mID="500" v:groupContext="shape" transform="translate(12.1337,-531.095)">
			<title>Sheet.500</title>
			<desc>JWTCookieAuthentication</desc>
			<v:textBlock v:margins="rect(4,4,4,4)" v:tabSpace="42.5197"/>
			<v:textRect cx="68.0315" cy="838.023" width="136.07" height="15.874"/>
			<rect x="0" y="830.086" width="136.063" height="15.874" class="st10"/>
			<text x="4" y="841.62" class="st11" v:langID="1044"><v:paragraph/><v:tabList/>JWTCookieAuthentication</text>		</g>
		<g id="shape503-382" v:mID="503" v:groupContext="shape" transform="translate(8.44873,-551.504)">
			<title>Sheet.503</title>
			<desc>App (asp.net template)</desc>
			<v:textBlock v:margins="rect(4,4,4,4)" v:tabSpace="42.5197"/>
			<v:textRect cx="68.0315" cy="838.023" width="136.07" height="15.874"/>
			<rect x="0" y="830.086" width="136.063" height="15.874" class="st10"/>
			<text x="4" y="841.62" class="st18" v:langID="1044"><v:paragraph/><v:tabList/>App (asp.net template)</text>		</g>
	</g>
</svg>
