<svg width="202" height="202" viewBox="0 0 202 202" fill="none" xmlns="http://www.w3.org/2000/svg">
<mask id="mask0_905_9439" style="mask-type:alpha" maskUnits="userSpaceOnUse" x="0" y="0" width="202" height="202">
<circle cx="101" cy="101" r="101" fill="#C4C4C4"/>
</mask>
<g mask="url(#mask0_905_9439)">
<g clip-path="url(#clip0_905_9439)">
<path d="M318.864 -190.902H-604.103V343.234H318.864V-190.902Z" fill="white"/>
<path d="M253.233 168.418H-95.1986V-67.5993L253.233 -141.416V168.418Z" fill="white"/>
<path d="M74.2862 88.9695H88.7791V66.0661H112.659L111.908 144.538L51.3078 136.203L74.2862 88.9695Z" fill="#6A6A6A"/>
<path d="M128.278 66.0661C128.879 66.7419 129.479 67.3427 130.08 68.0185C131.357 69.4453 132.709 70.8721 133.985 72.2988C135.337 73.7256 136.613 75.2274 137.965 76.6542C138.34 77.0297 138.641 77.4051 139.016 77.7806C139.392 78.1561 139.842 78.4564 139.917 79.0572C139.917 79.2074 139.917 79.2825 139.917 79.4327C139.917 79.8081 139.917 80.2587 139.917 80.6341C139.917 81.9107 139.917 83.2624 139.917 84.539C139.917 86.2661 139.917 88.0683 139.917 89.7955C139.917 91.7479 139.917 93.7754 139.917 95.7278C139.917 97.6802 139.917 99.6327 139.917 101.585C139.917 103.312 139.917 104.964 139.917 106.691C139.917 107.893 139.917 109.169 139.917 110.371C139.917 110.897 139.917 111.347 139.917 111.873H143.972C143.972 111.422 143.972 110.972 143.972 110.521C143.972 109.395 143.972 108.268 143.972 107.217C143.972 105.64 143.972 103.988 143.972 102.411C143.972 100.534 143.972 98.5814 143.972 96.704C143.972 94.6765 143.972 92.649 143.972 90.6215C143.972 88.6691 143.972 86.6416 143.972 84.6892C143.972 82.962 143.972 81.2349 143.972 79.4327C143.972 78.081 143.972 76.8044 143.972 75.4527C143.972 75.0022 143.972 74.5516 143.972 74.1011C143.972 73.9509 143.972 73.8007 143.972 73.5754C143.972 73.0497 144.198 72.8996 144.723 72.9747C145.249 73.0498 145.85 72.9747 146.375 72.9747C147.126 72.9747 147.952 72.9747 148.703 72.9747C150.656 72.9747 152.683 72.9747 154.636 72.9747C156.738 72.9747 158.766 72.9747 160.868 72.9747C162.52 72.9747 164.172 72.9747 165.825 72.9747C166.5 72.9747 167.176 72.9747 167.852 72.9747L198.64 103.988L201.644 139.357L150.881 144.688L123.848 127.342L128.278 66.0661Z" fill="#6A6A6A"/>
<path d="M107.327 80.7092H103.497V88.4438H107.327V80.7092Z" fill="#3F3161"/>
<path d="M98.8416 91.898H94.8617V100.459H98.8416V91.898Z" fill="#3F3161"/>
<path d="M105.45 107.292H101.47V117.355H105.45V107.292Z" fill="#3F3161"/>
<path d="M78.4163 49.6207C76.3888 50.8973 79.3175 47.5181 82.6966 45.7159C84.9494 44.5144 85.5502 47.6683 85.5502 47.6683C85.5502 47.6683 87.803 44.5144 92.0082 46.7672C92.0082 46.7672 85.6253 48.9449 84.8743 51.4981C84.7992 51.4981 84.3487 45.9412 78.4163 49.6207Z" fill="#CFF0FF"/>
<path d="M175.511 12.8252C175.511 12.8252 168.978 13.2007 165.975 17.2557C162.971 21.3107 163.572 9.07055 173.859 8.84527C173.859 8.84527 174.01 3.81405 178.215 3.36349C182.42 2.91293 185.499 5.61628 185.499 5.61628C185.499 5.61628 176.337 4.4148 175.511 12.8252Z" fill="#CFF0FF"/>
<path d="M76.539 125.84L122.271 128.243L118.591 144.764L42.2966 140.108L43.7985 134.776L76.539 125.84Z" fill="#1EAEF7"/>
<path d="M79.017 118.106C78.6415 118.106 78.3412 117.805 78.2661 117.43C78.191 117.054 78.4914 116.679 78.9419 116.604C79.017 116.604 83.8981 116.003 88.0282 115.778C93.1345 115.552 96.8141 113.675 98.8416 110.446C101.47 106.016 100.794 99.2572 96.8141 90.8468C91.2572 79.1323 87.052 69.5204 87.8029 62.2363C88.2535 58.3315 90.1308 55.2527 93.2096 53.3003C97.6401 50.5969 104.098 50.5219 110.932 53.1501C111.307 53.3003 111.532 53.7509 111.382 54.1263C111.232 54.5018 110.781 54.7271 110.406 54.5769C104.098 52.1739 98.0156 52.1739 94.0356 54.5769C91.3323 56.2289 89.6802 58.9323 89.3048 62.3865C88.5538 69.2951 92.8341 79.0572 98.1657 90.1709C102.371 99.0319 103.047 106.316 100.118 111.197C97.8654 114.877 93.7353 116.979 88.1033 117.28C84.0483 117.505 79.1672 118.03 79.017 118.106C79.0921 118.106 79.0921 118.106 79.017 118.106Z" fill="#1EAEF7"/>
<path d="M133.985 52.0237C133.685 52.0237 133.384 51.7985 133.384 51.4981C133.309 51.1226 133.61 50.8222 133.91 50.7472C134.06 50.7472 147.276 48.7947 152.984 39.1828C153.359 38.5821 153.734 37.8312 154.11 37.0802C149.454 35.5033 146.225 32.7248 144.723 29.9464C143.372 27.4683 143.221 24.765 144.123 22.2118C144.949 19.959 146.601 18.2319 148.553 17.481C150.43 16.8051 152.383 16.9553 154.11 18.0066C156.363 19.3583 157.865 21.9865 158.315 25.1404C158.766 28.5947 157.489 32.7999 155.912 36.3293C158.841 37.1553 162.22 37.5308 166.125 37.2304C179.792 36.1791 184.297 30.9226 188.953 25.3657C194.285 19.0579 199.842 12.5248 219.516 12.9003C219.891 12.9003 220.117 13.2007 220.117 13.5761C220.117 13.9516 219.891 14.252 219.441 14.1769C200.442 13.8014 195.336 19.8089 189.929 26.1918C185.273 31.6735 180.392 37.3806 166.2 38.507C162.07 38.8074 158.465 38.4319 155.387 37.5308C154.936 38.3568 154.56 39.1828 154.11 39.8587C148.102 49.9962 134.736 51.9487 134.135 52.0237C134.06 52.0237 134.06 52.0237 133.985 52.0237ZM150.806 18.307C150.205 18.307 149.604 18.3821 149.004 18.6825C147.427 19.2832 146 20.7851 145.324 22.6624C144.498 24.8401 144.723 27.2431 145.85 29.3457C147.276 31.9739 150.28 34.452 154.711 35.9538C156.213 32.5747 157.414 28.5196 157.039 25.2906C156.663 22.5122 155.387 20.2594 153.509 19.0579C152.608 18.6074 151.707 18.307 150.806 18.307Z" fill="#1EAEF7"/>
<path d="M214.109 151.071C209.228 150.546 204.347 150.095 199.466 149.569C190.455 148.668 181.444 148.819 172.358 148.819C161.619 148.819 150.806 148.443 140.143 147.692C137.439 147.467 108.303 145.139 108.378 144.238C108.378 143.787 108.454 143.412 108.454 142.961C108.829 135.001 108.829 127.042 108.829 119.082C108.829 109.995 108.829 100.909 108.829 91.823C108.829 80.6341 108.829 69.4453 108.829 58.2564C108.829 46.2416 108.829 34.2267 108.829 22.2869C108.829 10.7226 108.829 -0.841705 108.829 -12.3309C108.829 -22.1681 108.829 -32.0053 108.829 -41.7673C108.829 -48.6008 108.829 -55.4343 108.829 -62.2677C108.829 -64.8209 108.829 -68.7257 108.829 -71.2789L12.6349 -51.3792V105.265L-6.51373 102.261V-47.3993L-79.2788 -32.3056V114.576C-79.2788 112.999 -83.9346 110.596 -85.3613 110.746C-85.2862 108.193 -85.3613 105.64 -85.3613 103.087L-87.539 101.435L-87.7643 46.4668L-339.326 45.9412L-348.562 92.2735L-580.975 114.576L-571.588 -168.224H218.39L236.337 -97.8618L134.661 -76.6856V129.369L189.779 134.776L214.184 134.926V151.071H214.109Z" fill="#CFF0FF"/>
<path d="M152.833 149.344L26.452 213.774L172.808 250.344L152.833 149.344Z" fill="#3F3161"/>
<path d="M-131.168 169.92V166.015L-78.4528 156.778L-71.5443 168.943L-45.1866 166.015L-44.3606 150.846L50.7821 134.251L189.704 148.894C182.045 152.573 174.31 156.178 166.651 159.857C150.881 167.366 135.111 174.876 119.342 182.385C113.109 185.389 106.801 188.317 100.569 191.321C93.0594 194.926 87.4275 201.534 83.5977 208.968C83.2223 209.719 82.8468 210.545 82.171 211.146C81.5702 211.746 80.594 212.122 79.8431 211.821C79.1673 211.596 78.7167 210.995 78.3412 210.395C76.9896 208.517 75.1873 204.462 73.0847 203.411C72.4089 203.111 71.2825 203.186 70.5316 203.036C69.255 202.81 68.0535 202.66 66.7769 202.435C63.2475 201.834 59.6431 201.233 56.1137 200.708C45.6758 198.981 35.1628 197.253 24.7249 195.526C11.5085 193.349 -1.63275 191.171 -14.8491 189.068C-28.7413 186.816 -42.5584 184.488 -56.4506 182.235C-68.916 180.207 -81.3815 178.18 -93.8469 176.077C-102.858 174.575 -111.794 173.149 -120.805 171.647C-124.259 171.046 -127.714 170.445 -131.168 169.92Z" fill="#CFF0FF"/>
<path d="M-124.56 232.923L-127.489 174.575L67.5278 203.636L65.9508 241.784L-124.56 232.923Z" fill="#3F3161"/>
<path d="M-131.168 169.92V224.963H-115.999V178.781L-44.8112 191.772V228.868H-30.168V193.499L59.1174 208.893V230.294H74.2862V203.636L-131.168 169.92Z" fill="#6A6A6A"/>
<path d="M75.4126 66.0661H-24.2357L-28.4409 71.3977L-23.1093 148.518L81.1948 130.946C81.2699 130.946 82.171 86.8669 75.4126 66.0661Z" fill="#0062BA"/>
<path d="M-14.9994 72.2237L69.4802 70.2713L75.2623 125.39L-10.4938 137.93L-14.9994 72.2237Z" fill="white"/>
<path d="M18.6423 139.056C17.9665 140.558 17.5159 142.21 17.2155 143.787C16.9902 145.289 16.9902 146.641 16.2393 147.993C15.7137 148.969 14.8125 149.795 13.8363 150.395C11.8088 151.672 9.55604 152.348 7.37835 153.399C6.17686 154 4.97537 154.751 3.99916 155.727C3.09804 156.703 2.72255 157.529 2.42218 158.806C3.99913 159.632 5.501 160.458 7.07796 161.284C8.12926 161.81 9.18054 162.41 10.1568 162.936C10.382 163.011 11.2832 163.687 11.5085 163.612C12.2594 163.387 13.0854 163.161 13.8363 162.936C17.591 161.81 21.4207 160.683 25.1754 159.557C30.5821 157.98 35.9137 156.403 41.3204 154.751C46.5769 153.174 51.8334 151.597 57.0899 150.095C60.2438 149.119 63.5479 148.518 66.5516 147.166C67.0773 146.941 68.1286 146.716 68.0535 145.965C68.0535 145.364 67.3026 144.914 66.9271 144.613C66.026 144.013 65.0498 143.562 64.0736 143.187C61.5955 142.21 58.8921 141.985 56.2639 142.06C46.2014 142.285 48.3791 131.022 48.3791 131.022C44.9999 131.848 41.5457 132.749 38.1665 133.575C32.6847 134.926 27.2029 136.353 21.7962 137.705C20.7449 137.93 19.0929 138.005 18.6423 139.056Z" fill="#0062BA"/>
<path d="M15.5635 171.722V179.231L55.1375 187.191L125.65 160.908V155.877L95.9129 147.317L15.5635 171.722Z" fill="#0062BA"/>
<path d="M-18.4536 163.612V169.92L-1.48261 173.299L13.9866 167.216V162.861L2.42223 161.209L-18.4536 163.612Z" fill="#1EAEF7"/>
<path d="M114.16 155.427C115.512 155.802 115.813 158.43 116.789 159.557C117.99 160.908 119.642 161.81 121.445 161.96C124.298 162.185 127.001 160.758 129.78 160.158C131.958 159.707 134.135 159.707 136.313 160.082C138.491 160.458 140.518 161.584 142.621 162.035C143.972 162.26 143.672 162.26 143.972 160.908C144.198 159.857 144.423 158.881 144.648 157.83C144.798 156.929 146.676 146.34 147.051 146.34C141.645 146.265 136.013 145.514 130.906 143.562C129.479 143.036 128.053 142.436 126.551 142.361C124.598 142.285 122.721 143.111 120.994 143.937C116.939 145.815 112.884 147.692 108.904 149.72C106.876 150.771 104.849 151.822 102.897 152.949C101.545 153.7 99.6676 155.051 101.32 156.778C101.92 157.379 102.821 157.604 103.723 157.529C104.549 157.454 105.375 157.154 106.201 156.929C107.703 156.328 111.983 154.826 114.16 155.427Z" fill="#1EAEF7"/>
<path d="M133.384 148.218C133.384 148.368 133.309 148.518 133.309 148.668C132.934 151.822 133.009 155.051 133.459 158.205C133.835 161.209 134.886 162.561 137.74 163.011C138.791 163.161 139.617 163.612 140.743 163.987C142.921 164.738 145.249 164.963 147.502 165.489C150.28 166.09 153.059 166.616 155.837 167.066C161.619 168.042 167.852 169.019 173.184 166.691C178.065 164.588 181.444 160.158 184.523 155.877C185.574 154.375 186.625 152.874 187.226 151.221C187.827 149.494 187.977 147.542 187.151 145.89C186.1 143.862 183.847 142.736 181.594 142.511C179.341 142.285 177.088 142.736 174.911 143.187C169.354 144.238 163.497 145.89 157.79 145.514C152.158 145.064 147.051 143.937 141.569 142.661C139.842 142.21 137.89 141.91 136.238 142.736C134.436 143.712 133.685 146.04 133.384 148.218Z" fill="#E23B53"/>
<path d="M153.284 91.898C153.209 91.898 153.059 91.898 152.984 92.0482C152.833 92.2735 152.909 93.7003 152.909 94.0007C152.758 94.8267 152.608 95.5776 152.383 96.4036C151.557 99.6326 150.28 102.711 148.628 105.565C148.027 106.616 147.352 107.668 147.502 108.869C147.652 110.221 148.853 111.197 150.055 111.948C151.181 112.624 152.383 113.375 153.284 114.426C154.11 115.402 154.26 116.829 154.636 118.03C155.086 119.607 155.537 121.184 155.987 122.686C156.888 125.615 158.09 129.895 160.868 131.622C164.698 134.1 172.207 132.523 172.883 133.95C173.559 135.377 176.638 152.423 176.938 152.273C177.239 152.123 205.699 134.025 205.699 134.025L191.356 98.2809C188.127 97.7553 184.973 97.2297 181.744 96.704C174.535 95.5025 167.326 94.301 160.117 93.0995C158.165 92.7992 155.912 92.0482 153.885 92.0482C153.584 91.9731 153.434 91.898 153.284 91.898Z" fill="#1EAEF7"/>
<path d="M198.19 131.021C192.708 131.247 183.847 131.172 180.918 124.714C179.116 120.584 180.317 116.453 181.219 113.074C182.12 109.47 182.57 103.162 177.013 103.312C170.03 103.462 176.187 113.9 172.207 114.351C168.227 114.801 165.975 111.422 165.299 104.664C164.848 100.233 159.141 98.7315 156.137 96.4787C153.96 94.8267 152.533 92.7241 151.932 90.0958C151.256 86.9419 151.482 83.6378 152.533 80.6341C152.758 79.8832 153.059 79.2074 153.434 78.5315C155.762 73.9509 160.042 70.4966 164.923 68.9196C169.804 67.3427 175.211 67.7181 180.017 69.5955C184.598 71.3977 188.352 74.3263 193.308 75.3025C198.039 76.2037 202.995 76.1285 207.651 77.33C210.355 78.0059 213.058 79.2074 215.01 81.2349C216.813 83.1122 217.939 85.5152 218.615 87.9932C219.441 90.997 219.591 94.1508 218.99 97.1546C218.39 100.158 216.963 103.087 214.71 105.265C213.133 106.842 211.181 107.968 209.529 109.395C208.027 110.746 207.501 112.924 206.224 114.576C200.593 121.935 204.347 130.646 204.347 130.646C204.347 130.646 203.746 130.796 198.19 131.021Z" fill="#3F3161"/>
<path d="M16.3896 141.835L22.1717 140.859C22.1717 140.859 25.3256 146.941 21.571 150.17C19.6186 151.822 17.2156 153.024 14.8126 154C12.71 154.901 10.4572 155.877 9.25574 157.905C8.80518 158.656 8.5799 159.482 8.12934 160.233C8.05425 160.383 7.15312 161.96 7.07802 161.96C6.55237 161.885 5.95162 161.81 5.42597 161.659C4.59994 161.509 4.22447 161.659 3.39844 161.81C2.94789 161.885 -1.55769 161.434 -1.33241 160.833C-0.206012 157.98 1.29586 155.201 3.69884 153.324C6.85274 150.846 14.8877 149.344 16.0141 146.641C16.9152 144.613 16.6899 143.036 16.3896 141.835Z" fill="#3F3161"/>
<path d="M-18.4536 163.612L-0.506384 158.881C-0.506384 158.881 11.3583 160.308 15.5635 159.482L0.0943508 167.291L-18.4536 163.612Z" fill="white"/>
<path d="M15.5635 171.722V179.231L55.1375 187.191C55.1375 186.215 55.4379 184.563 55.0624 183.737C54.6119 182.836 53.0349 182.761 52.2089 182.535C50.9323 182.16 49.5807 181.784 48.3041 181.409C43.7985 180.057 39.2929 178.781 34.7873 177.429C30.3568 176.152 25.9263 174.801 21.5709 173.524C19.5434 172.923 17.5159 172.323 15.5635 171.722Z" fill="#3F3161"/>
<path d="M70.907 179.682C69.1048 178.706 67.3025 177.654 65.5003 176.678C64.2988 176.002 63.0973 175.326 61.9709 174.425C61.22 173.9 59.4928 172.998 60.2438 171.947C60.5442 171.497 61.1449 171.271 61.5954 170.971C67.0772 168.493 73.2349 166.39 78.7918 164.213C81.6453 163.086 84.4988 162.035 87.3524 161.059C88.7791 160.533 90.2059 160.082 91.6326 159.557C93.6601 158.881 94.8616 158.806 96.8891 159.482C98.6914 160.082 100.644 160.833 102.221 161.885C103.497 162.711 104.924 163.537 105.675 164.888C106.276 165.865 106.426 167.216 105.75 168.117C105.3 168.868 104.398 169.244 103.648 169.619C98.1657 172.097 92.4587 174.05 86.7516 175.777C86.1508 176.002 85.3999 176.152 84.7992 175.927C83.9732 175.552 83.823 175.477 82.9219 175.777C82.0208 176.077 81.0445 176.378 80.1434 176.678C78.5665 177.204 76.9895 177.729 75.4126 178.18C74.2862 178.555 73.2349 178.931 72.1085 179.231C71.8081 179.381 71.2074 179.757 70.907 179.682Z" fill="#3F3161"/>
<path d="M106.201 186.59C103.572 184.262 100.419 182.385 98.0906 179.907C93.1345 174.726 86.9018 171.046 79.6178 170.37C77.365 170.145 75.1873 170.445 72.9345 170.37C70.3814 170.295 67.8282 170.22 65.3501 170.746C62.7219 171.271 61.8958 175.401 61.9709 177.804C62.2713 183.587 69.1048 188.242 73.6103 191.096C77.5903 193.574 82.0958 194.4 86.3761 196.202C88.0282 196.878 89.7553 197.629 91.5576 197.704C93.2096 197.704 94.8616 197.178 96.4386 196.503C100.419 194.775 104.248 192.297 106.651 188.693C106.801 188.392 107.027 188.092 107.027 187.792C106.876 187.266 106.501 186.891 106.201 186.59Z" fill="#1EAEF7"/>
<path d="M-131.168 166.015V169.92L74.2862 206.64V202.885L-131.168 166.015Z" fill="white"/>
<path d="M104.999 226.239C103.572 223.085 103.572 220.833 100.343 219.03C96.5888 216.928 92.4587 215.351 88.2535 214.375C86.3761 213.924 84.4988 213.624 82.7717 212.798C81.0445 211.972 79.4676 210.62 78.942 208.818C78.191 206.415 79.4676 203.787 80.8193 201.684C84.7241 195.451 89.9806 189.969 96.0631 185.839C97.8654 184.563 99.8929 183.436 102.071 183.286C104.398 183.211 106.501 184.262 108.604 185.314C113.935 188.092 119.267 190.796 124.598 193.574C126.401 194.475 128.353 195.451 130.23 195.001C132.333 194.55 133.685 192.598 134.886 190.871C138.265 185.914 141.569 180.958 144.949 176.002C147.877 171.722 150.505 166.165 154.636 163.011C157.114 161.134 159.366 159.031 162.145 157.379C167.476 154.15 172.508 150.546 177.764 147.242C183.171 143.787 188.653 140.633 194.285 137.63C198.49 135.377 202.845 133.274 207.426 131.998C212.532 130.646 218.915 130.12 223.871 132.448C226.499 133.65 228.602 135.903 230.329 138.155C234.76 144.163 237.388 151.447 239.641 158.506C241.593 164.738 243.17 171.196 244.372 177.654C244.672 179.081 244.897 180.583 245.198 182.085L170.781 236.077C169.955 235.926 169.204 235.851 168.378 235.701C156.363 233.899 144.348 232.172 132.333 230.369C123.322 228.943 114.085 227.065 104.999 226.239Z" fill="#E23B53"/>
<path d="M226.575 166.916C226.575 166.916 192.933 178.48 184.447 197.629C175.962 216.703 174.385 221.433 174.385 221.433L230.029 219.631L226.575 166.916Z" fill="#3F3161"/>
<path d="M-4.8618 128.318C-5.01199 128.318 -5.23725 128.243 -5.31234 128.168C-5.46253 128.018 -5.53764 127.868 -5.61273 127.642L-6.13835 114.726C-6.13835 114.351 -5.838 113.975 -5.46254 113.975L65.8758 106.691L64.8245 99.6326L-5.838 105.114C-6.06328 105.114 -6.21348 105.039 -6.36366 104.964C-6.51385 104.814 -6.58893 104.664 -6.58893 104.439L-7.26474 91.5977C-7.26474 91.1471 -6.9644 90.8467 -6.58893 90.7717L63.7732 86.8668L62.6468 78.6817L-14.0982 80.4088H-14.4737L-14.5488 78.907H-13.7978L63.3226 77.1798C63.6981 77.1798 63.9985 77.4802 64.0736 77.8557L65.4252 87.5427C65.4252 87.7679 65.4252 87.9932 65.275 88.1434C65.1249 88.2936 64.9747 88.3687 64.7494 88.4438L-5.68781 92.3486L-5.08707 103.688L65.5003 98.2059C65.8758 98.2059 66.2513 98.4311 66.3264 98.8066L67.6029 107.292C67.6029 107.517 67.6029 107.668 67.4528 107.893C67.3026 108.043 67.1524 108.193 66.9271 108.193L-4.48634 115.477L-4.03575 126.891L74.0609 117.204L74.3613 117.129L74.5115 118.631L-4.71161 128.468C-4.7867 128.318 -4.78671 128.318 -4.8618 128.318Z" fill="#1EAEF7"/>
</g>
</g>
<defs>
<clipPath id="clip0_905_9439">
<rect width="768.952" height="350.834" fill="white" transform="translate(-561 -149)"/>
</clipPath>
</defs>
</svg>
