<svg width="78" height="78" viewBox="0 0 78 78" fill="none" xmlns="http://www.w3.org/2000/svg">
<circle cx="39" cy="39" r="39" fill="#6A6A6A"/>
<path fill-rule="evenodd" clip-rule="evenodd" d="M54.1111 17.8936H27.4444V20.5745H51.4444V54.5319H54.1111V17.8936ZM51.4444 55.4255V59H23V20.5745H26.5556V17H55V55.4255H51.4444ZM50.5556 21.4681H23.8889V58.1064H50.5556V21.4681ZM35.1458 44.7379L37.7751 34.8723L38.8062 35.1494L36.176 45.0158L35.1458 44.7388V44.7379ZM33.0267 36.1529L29.4373 39.7613L29.4409 39.7649L29.2222 39.9847L32.9884 43.771L33.9307 42.8237L31.104 39.982L33.9698 37.101L33.0276 36.1538L33.0267 36.1529ZM44.4222 40.1634L40.832 43.7719L39.8898 42.8237L42.7547 39.9427L39.928 37.101L40.8711 36.1538L44.6373 39.94L44.4187 40.1599L44.4213 40.1634H44.4222Z" fill="white"/>
</svg>
