<?xml version="1.0" encoding="UTF-8" standalone="no"?>
<!DOCTYPE svg PUBLIC "-//W3C//DTD SVG 1.1//EN" "http://www.w3.org/Graphics/SVG/1.1/DTD/svg11.dtd">
<!-- Generated by Microsoft Visio, SVG Export api-concept.svg Page-1 -->
<svg xmlns="http://www.w3.org/2000/svg" xmlns:xlink="http://www.w3.org/1999/xlink" xmlns:ev="http://www.w3.org/2001/xml-events"
		xmlns:v="http://schemas.microsoft.com/visio/2003/SVGExtensions/" width="10.1102in" height="5.89089in"
		viewBox="0 0 727.933 424.144" xml:space="preserve" color-interpolation-filters="sRGB" class="st29">
	<v:documentProperties v:langID="1033" v:metric="true" v:viewMarkup="false"/>

	<style type="text/css">
	<![CDATA[
		.st1 {fill:#4672c4;stroke:#c7c8c8;stroke-width:0.25}
		.st2 {fill:#feffff;font-family:Calibri;font-size:0.833336em}
		.st3 {fill:#a8d08d;stroke:#c7c8c8;stroke-width:0.25}
		.st4 {stroke:#395ea3;stroke-linecap:round;stroke-linejoin:round;stroke-width:1}
		.st5 {fill:#4672c4;stroke:#ffffff;stroke-width:0.25}
		.st6 {fill:#ffffff}
		.st7 {stroke:#ffffff;stroke-width:0.25}
		.st8 {fill:#ffffff;stroke:none;stroke-linecap:butt;stroke-width:0.75}
		.st9 {fill:url(#grad10-37);stroke:none;stroke-linecap:butt;stroke-width:0.75}
		.st10 {fill:url(#grad0-45);stroke:none;stroke-linecap:butt;stroke-width:0.75}
		.st11 {fill:url(#grad6-49);stroke:none;stroke-linecap:butt;stroke-width:0.75}
		.st12 {stroke:#ffffff;stroke-linecap:butt;stroke-width:0.5}
		.st13 {stroke:#19a94e;stroke-linecap:butt;stroke-width:0.5}
		.st14 {fill:none;stroke:none;stroke-linecap:butt;stroke-width:0.75}
		.st15 {fill:url(#grad1-62);stroke:none;stroke-linecap:butt;stroke-width:0.75}
		.st16 {fill:url(#grad1-66);stroke:none;stroke-linecap:butt;stroke-width:0.75}
		.st17 {fill:url(#grad6-73);stroke:none;stroke-linecap:butt;stroke-width:0.75}
		.st18 {fill:url(#grad0-77);stroke:none;stroke-linecap:butt;stroke-width:0.75}
		.st19 {fill:url(#grad0-81);stroke:none;stroke-linecap:butt;stroke-width:0.75}
		.st20 {fill:url(#grad10-88);stroke:none;stroke-linecap:butt;stroke-width:0.75}
		.st21 {fill:#2c4381;stroke:none;stroke-linecap:butt;stroke-width:0.75}
		.st22 {fill:none;stroke:#c8c8c8;stroke-width:0.25}
		.st23 {marker-end:url(#mrkr4-103);stroke:#4672c4;stroke-linecap:round;stroke-linejoin:round;stroke-width:1}
		.st24 {fill:#4672c4;fill-opacity:1;stroke:#4672c4;stroke-opacity:1;stroke-width:0.28409090909091}
		.st25 {fill:none;stroke:none;stroke-width:0.25}
		.st26 {fill:#4672c4;font-family:Calibri;font-size:1.00001em}
		.st27 {fill:#96afde;stroke:#c7c8c8;stroke-width:0.25}
		.st28 {font-size:1em}
		.st29 {fill:none;fill-rule:evenodd;font-size:12px;overflow:visible;stroke-linecap:square;stroke-miterlimit:3}
	]]>
	</style>

	<defs id="Patterns_And_Gradients">
		<pattern id="grad10-37" x="0" y="0" width="1" height="1" patternContentUnits="objectBoundingBox">
			<path d="M 0.5 0.5 L 0 0 L 0 1 z" style="fill:url(#grad0-38)"/>
			<path d="M 0.5 0.5 L 1 0 L 1 1 z" style="fill:url(#grad0-39)"/>
			<path d="M 0.5 0.5 L 0 0 L 1 0 z" style="fill:url(#grad0-40)"/>
			<path d="M 0.5 0.5 L 0 1 L 1 1 z" style="fill:url(#grad0-41)"/>
		</pattern>
		<linearGradient id="grad0-38" x1="0" y1="0" x2="1" y2="0" gradientTransform="rotate(180 0.5 0.5)">
			<stop offset="0" stop-color="#ffffff" stop-opacity="1"/>
			<stop offset="1" stop-color="#799ae6" stop-opacity="1"/>
		</linearGradient>
		<linearGradient id="grad0-39" x1="0" y1="0" x2="1" y2="0" gradientTransform="rotate(360 0.5 0.5)">
			<stop offset="0" stop-color="#ffffff" stop-opacity="1"/>
			<stop offset="1" stop-color="#799ae6" stop-opacity="1"/>
		</linearGradient>
		<linearGradient id="grad0-40" x1="0" y1="0" x2="1" y2="0" gradientTransform="rotate(270 0.5 0.5)">
			<stop offset="0" stop-color="#ffffff" stop-opacity="1"/>
			<stop offset="1" stop-color="#799ae6" stop-opacity="1"/>
		</linearGradient>
		<linearGradient id="grad0-41" x1="0" y1="0" x2="1" y2="0" gradientTransform="rotate(90 0.5 0.5)">
			<stop offset="0" stop-color="#ffffff" stop-opacity="1"/>
			<stop offset="1" stop-color="#799ae6" stop-opacity="1"/>
		</linearGradient>
		<linearGradient id="grad0-45" x1="0" y1="0" x2="1" y2="0" gradientTransform="rotate(0 0.5 0.5)">
			<stop offset="0" stop-color="#bcbec0" stop-opacity="1"/>
			<stop offset="1" stop-color="#9d9fa1" stop-opacity="1"/>
		</linearGradient>
		<radialGradient id="grad6-49" cx="1" cy="0" r="1.4">
			<stop offset="0" stop-color="#2c4381" stop-opacity="1"/>
			<stop offset="1" stop-color="#3c61ae" stop-opacity="1"/>
		</radialGradient>
		<radialGradient id="grad1-62" cx="1" cy="1" r="1.4">
			<stop offset="0" stop-color="#1a4795" stop-opacity="1"/>
			<stop offset="1" stop-color="#086bc2" stop-opacity="1"/>
		</radialGradient>
		<radialGradient id="grad1-66" cx="1" cy="1" r="1.4">
			<stop offset="0" stop-color="#1b4995" stop-opacity="1"/>
			<stop offset="1" stop-color="#27b3dd" stop-opacity="1"/>
		</radialGradient>
		<radialGradient id="grad6-73" cx="1" cy="0" r="1.4">
			<stop offset="0" stop-color="#42bc33" stop-opacity="1"/>
			<stop offset="1" stop-color="#bde1a1" stop-opacity="1"/>
		</radialGradient>
		<linearGradient id="grad0-77" x1="0" y1="0" x2="1" y2="0" gradientTransform="rotate(270 0.5 0.5)">
			<stop offset="0" stop-color="#19a94e" stop-opacity="1"/>
			<stop offset="1" stop-color="#abd782" stop-opacity="1"/>
		</linearGradient>
		<linearGradient id="grad0-81" x1="0" y1="0" x2="1" y2="0" gradientTransform="rotate(180 0.5 0.5)">
			<stop offset="0" stop-color="#42bc33" stop-opacity="1"/>
			<stop offset="1" stop-color="#bde1a1" stop-opacity="1"/>
		</linearGradient>
		<pattern id="grad10-88" x="0" y="0" width="1" height="1" patternContentUnits="objectBoundingBox">
			<path d="M 0.5 0.5 L 0 0 L 0 1 z" style="fill:url(#grad0-81)"/>
			<path d="M 0.5 0.5 L 1 0 L 1 1 z" style="fill:url(#grad0-89)"/>
			<path d="M 0.5 0.5 L 0 0 L 1 0 z" style="fill:url(#grad0-90)"/>
			<path d="M 0.5 0.5 L 0 1 L 1 1 z" style="fill:url(#grad0-91)"/>
		</pattern>
		<linearGradient id="grad0-89" x1="0" y1="0" x2="1" y2="0" gradientTransform="rotate(360 0.5 0.5)">
			<stop offset="0" stop-color="#42bc33" stop-opacity="1"/>
			<stop offset="1" stop-color="#bde1a1" stop-opacity="1"/>
		</linearGradient>
		<linearGradient id="grad0-90" x1="0" y1="0" x2="1" y2="0" gradientTransform="rotate(270 0.5 0.5)">
			<stop offset="0" stop-color="#42bc33" stop-opacity="1"/>
			<stop offset="1" stop-color="#bde1a1" stop-opacity="1"/>
		</linearGradient>
		<linearGradient id="grad0-91" x1="0" y1="0" x2="1" y2="0" gradientTransform="rotate(90 0.5 0.5)">
			<stop offset="0" stop-color="#42bc33" stop-opacity="1"/>
			<stop offset="1" stop-color="#bde1a1" stop-opacity="1"/>
		</linearGradient>
	</defs>
	<defs id="Markers">
		<g id="lend4">
			<path d="M 2 1 L 0 0 L 2 -1 L 2 1 " style="stroke:none"/>
		</g>
		<marker id="mrkr4-103" class="st24" v:arrowType="4" v:arrowSize="2" v:setback="7.04" refX="-7.04" orient="auto"
				markerUnits="strokeWidth" overflow="visible">
			<use xlink:href="#lend4" transform="scale(-3.52,-3.52) "/>
		</marker>
	</defs>
	<g v:mID="0" v:index="1" v:groupContext="foregroundPage">
		<title>Page-1</title>
		<v:pageProperties v:drawingScale="0.0393701" v:pageScale="0.0393701" v:drawingUnits="24" v:shadowOffsetX="8.50394"
				v:shadowOffsetY="-8.50394"/>
		<v:layer v:name="Connector" v:index="0"/>
		<g id="shape1-1" v:mID="1" v:groupContext="shape" transform="translate(210.187,-231.24)">
			<title>Rectangle</title>
			<desc>App Api</desc>
			<v:userDefs>
				<v:ud v:nameU="visVersion" v:val="VT0(15):26"/>
			</v:userDefs>
			<v:textBlock v:margins="rect(4,4,4,4)" v:tabSpace="42.5197"/>
			<v:textRect cx="99.2126" cy="411.388" width="198.43" height="25.5118"/>
			<rect x="0" y="398.632" width="198.425" height="25.5118" class="st1"/>
			<text x="83.27" y="414.39" class="st2" v:langID="1044"><v:paragraph v:horizAlign="1"/><v:tabList/>App Api</text>		</g>
		<g id="shape3-4" v:mID="3" v:groupContext="shape" transform="translate(210.187,-202.893)">
			<title>Rectangle.3</title>
			<desc>Business Logic</desc>
			<v:userDefs>
				<v:ud v:nameU="visVersion" v:val="VT0(15):26"/>
			</v:userDefs>
			<v:textBlock v:margins="rect(4,4,4,4)" v:tabSpace="42.5197"/>
			<v:textRect cx="99.2126" cy="411.388" width="198.43" height="25.5118"/>
			<rect x="0" y="398.632" width="198.425" height="25.5118" class="st1"/>
			<text x="70.25" y="414.39" class="st2" v:langID="1044"><v:paragraph v:horizAlign="1"/><v:tabList/>Business Logic</text>		</g>
		<g id="shape4-7" v:mID="4" v:groupContext="shape" transform="translate(208.77,-144.783)">
			<title>Rectangle.4</title>
			<desc>Platform Api</desc>
			<v:userDefs>
				<v:ud v:nameU="visVersion" v:val="VT0(15):26"/>
			</v:userDefs>
			<v:textBlock v:margins="rect(4,4,4,4)" v:tabSpace="42.5197"/>
			<v:textRect cx="99.2126" cy="411.388" width="198.43" height="25.5118"/>
			<rect x="0" y="398.632" width="198.425" height="25.5118" class="st3"/>
			<text x="73.71" y="414.39" class="st2" v:langID="1044"><v:paragraph v:horizAlign="1"/><v:tabList/>Platform Api</text>		</g>
		<g id="shape5-10" v:mID="5" v:groupContext="shape" transform="translate(208.77,-174.547)">
			<title>Rectangle.5</title>
			<desc>Data Logic</desc>
			<v:userDefs>
				<v:ud v:nameU="visVersion" v:val="VT0(15):26"/>
			</v:userDefs>
			<v:textBlock v:margins="rect(4,4,4,4)" v:tabSpace="42.5197"/>
			<v:textRect cx="99.2126" cy="411.388" width="198.43" height="25.5118"/>
			<rect x="0" y="398.632" width="198.425" height="25.5118" class="st1"/>
			<text x="78.19" y="414.39" class="st2" v:langID="1044"><v:paragraph v:horizAlign="1"/><v:tabList/>Data Logic</text>		</g>
		<g id="shape18-13" v:mID="18" v:groupContext="shape" transform="translate(208.77,-115.019)">
			<title>Rectangle.18</title>
			<desc>Platform Logic</desc>
			<v:userDefs>
				<v:ud v:nameU="visVersion" v:val="VT0(15):26"/>
			</v:userDefs>
			<v:textBlock v:margins="rect(4,4,4,4)" v:tabSpace="42.5197"/>
			<v:textRect cx="99.2126" cy="411.388" width="198.43" height="25.5118"/>
			<rect x="0" y="398.632" width="198.425" height="25.5118" class="st3"/>
			<text x="70.03" y="414.39" class="st2" v:langID="1044"><v:paragraph v:horizAlign="1"/><v:tabList/>Platform Logic</text>		</g>
		<g id="shape19-16" v:mID="19" v:groupContext="shape" transform="translate(208.77,-85.2557)">
			<title>Rectangle.19</title>
			<desc>Data Logic</desc>
			<v:userDefs>
				<v:ud v:nameU="visVersion" v:val="VT0(15):26"/>
			</v:userDefs>
			<v:textBlock v:margins="rect(4,4,4,4)" v:tabSpace="42.5197"/>
			<v:textRect cx="99.2126" cy="411.388" width="198.43" height="25.5118"/>
			<rect x="0" y="398.632" width="198.425" height="25.5118" class="st3"/>
			<text x="78.19" y="414.39" class="st2" v:langID="1044"><v:paragraph v:horizAlign="1"/><v:tabList/>Data Logic</text>		</g>
		<g id="shape20-19" v:mID="20" v:groupContext="shape" transform="translate(288.848,-0.216298)">
			<title>Database</title>
			<v:userDefs>
				<v:ud v:nameU="msvShapeCategories" v:prompt="" v:val="VT4(Icon)"/>
				<v:ud v:nameU="visVersion" v:prompt="" v:val="VT0(15):26"/>
			</v:userDefs>
			<path d="M-0.03 378.25 A19.944 10.571 179.4 1 1 39.86 377.84 A19.944 10.571 179.4 1 1 -0.03 378.25" class="st4"/>
			<path d="M39.83 378.4 L39.83 412.26 A18.9725 11.0218 0 0 1 19.88 423.84 A18.9126 10.9871 0 0 1 -0 412.26 L0 378.4"
					class="st4"/>
		</g>
		<g id="group21-23" transform="translate(464.596,-354.4)" v:mID="21" v:groupContext="group">
			<v:custProps>
				<v:cp v:nameU="AssetNumber" v:lbl="Asset Number" v:prompt="" v:type="0" v:format="" v:sortKey="Asset"
						v:invis="false" v:ask="false" v:langID="1033" v:cal="0"/>
				<v:cp v:nameU="SerialNumber" v:lbl="Serial Number" v:prompt="" v:type="0" v:format="" v:sortKey="Asset"
						v:invis="false" v:ask="false" v:langID="1033" v:cal="0"/>
				<v:cp v:nameU="Location" v:lbl="Location" v:prompt="" v:type="0" v:format="" v:sortKey="Asset" v:invis="false"
						v:ask="false" v:langID="1033" v:cal="0"/>
				<v:cp v:nameU="Building" v:lbl="Building" v:prompt="" v:type="0" v:format="" v:sortKey="Asset" v:invis="false"
						v:ask="false" v:langID="1033" v:cal="0"/>
				<v:cp v:nameU="Room" v:lbl="Room" v:prompt="" v:type="0" v:format="" v:sortKey="Asset" v:invis="false"
						v:ask="false" v:langID="1033" v:cal="0"/>
				<v:cp v:nameU="Manufacturer" v:lbl="Manufacturer" v:prompt="" v:type="0" v:format="" v:sortKey="Equipment"
						v:invis="false" v:ask="false" v:langID="1033" v:cal="0"/>
				<v:cp v:nameU="ProductNumber" v:lbl="Product Number" v:prompt="" v:type="0" v:format="" v:sortKey="Equipment"
						v:invis="false" v:ask="false" v:langID="1033" v:cal="0"/>
				<v:cp v:nameU="PartNumber" v:lbl="Part Number" v:prompt="" v:type="0" v:format="" v:sortKey="Equipment"
						v:invis="false" v:ask="false" v:langID="1033" v:cal="0"/>
				<v:cp v:nameU="ProductDescription" v:lbl="Product Description" v:prompt="" v:type="0" v:format=""
						v:sortKey="Equipment" v:invis="false" v:ask="false" v:langID="1033" v:cal="0"/>
				<v:cp v:nameU="NetworkName" v:lbl="Network Name" v:prompt="" v:type="0" v:format="" v:sortKey="Network"
						v:invis="false" v:ask="false" v:langID="1033" v:cal="0"/>
				<v:cp v:nameU="IPAddress" v:lbl="IP Address" v:prompt="" v:type="0" v:format="" v:sortKey="Network" v:invis="false"
						v:ask="false" v:langID="1033" v:cal="0"/>
				<v:cp v:nameU="SubnetMask" v:lbl="Subnet Mask" v:prompt="" v:type="0" v:format="" v:sortKey="Network"
						v:invis="false" v:ask="false" v:langID="1033" v:cal="0"/>
				<v:cp v:nameU="AdminInterface" v:lbl="Administrative Interface" v:prompt="" v:type="0" v:format=""
						v:sortKey="Network" v:invis="false" v:ask="false" v:langID="1033" v:cal="0"/>
				<v:cp v:nameU="NumberofPorts" v:lbl="Number of Ports" v:prompt="" v:type="0" v:format="" v:sortKey="Network"
						v:invis="false" v:ask="false" v:langID="1033" v:cal="0"/>
				<v:cp v:nameU="CommunityString" v:lbl="Community String" v:prompt="" v:type="0" v:format="" v:sortKey="Network"
						v:invis="false" v:ask="false" v:langID="1033" v:cal="0"/>
				<v:cp v:nameU="NetworkDescription" v:lbl="Network Description" v:prompt="" v:type="0" v:format=""
						v:sortKey="Network" v:invis="false" v:ask="false" v:langID="1033" v:cal="0"/>
				<v:cp v:nameU="MACAddress" v:lbl="MAC Address" v:prompt="" v:type="0" v:format="" v:sortKey="Network"
						v:invis="false" v:ask="false" v:langID="1033" v:cal="0"/>
				<v:cp v:nameU="CPU" v:lbl="CPU" v:prompt="" v:type="0" v:format="" v:sortKey="Workstation" v:invis="false"
						v:ask="false" v:langID="1033" v:cal="0"/>
				<v:cp v:nameU="Memory" v:lbl="Memory" v:prompt="" v:type="0" v:format="" v:sortKey="Workstation" v:invis="false"
						v:ask="false" v:langID="1033" v:cal="0"/>
				<v:cp v:nameU="OperatingSystem" v:lbl="Operating System" v:prompt="" v:type="0" v:format="" v:sortKey="Workstation"
						v:invis="false" v:ask="false" v:langID="1033" v:cal="0"/>
				<v:cp v:nameU="HardDriveSize" v:lbl="Hard Drive Capacity" v:prompt="" v:type="0" v:format=""
						v:sortKey="Workstation" v:invis="false" v:ask="false" v:langID="1033" v:cal="0"/>
				<v:cp v:nameU="ShapeClass" v:lbl="ShapeClass" v:prompt="" v:type="0" v:format="" v:sortKey="" v:invis="true"
						v:ask="false" v:langID="1033" v:cal="0" v:val="VT4(Equipment)"/>
				<v:cp v:nameU="ShapeType" v:lbl="ShapeType" v:prompt="" v:type="0" v:format="" v:sortKey="" v:invis="true"
						v:ask="false" v:langID="1033" v:cal="0" v:val="VT4(MobilePhone)"/>
			</v:custProps>
			<v:userDefs>
				<v:ud v:nameU="visVersion" v:prompt="" v:val="VT0(15):26"/>
				<v:ud v:nameU="ShapeClass" v:prompt="" v:val="VT0(5):26"/>
				<v:ud v:nameU="SolSH" v:prompt="" v:val="VT15({BF0433D9-CD73-4EB5-8390-8653BE590246}):41"/>
				<v:ud v:nameU="visLegendShape" v:prompt="" v:val="VT0(2):26"/>
			</v:userDefs>
			<title>Smart phone</title>
			<g id="shape22-24" v:mID="22" v:groupContext="shape" transform="translate(9.39188,5.68434E-14)">
				<title>Sheet.22</title>
				<path d="M0 421.66 C0 422.54 0.71 423.35 1.57 423.46 C1.57 423.46 6.71 424.14 10.52 424.14 C14.34 424.14 19.47 423.46
							 19.47 423.46 C20.34 423.35 21.05 422.54 21.05 421.66 L21.05 386.79 C21.05 385.92 20.34 385.11 19.47
							 384.99 C19.47 384.99 14.43 384.31 10.52 384.31 C6.71 384.31 1.57 384.99 1.57 384.99 C0.71 385.11 0 385.92
							 0 386.79 L0 421.66 Z" class="st1"/>
			</g>
			<g id="shape23-26" v:mID="23" v:groupContext="shape" transform="translate(10.9802,-4.89106)">
				<title>Sheet.23</title>
				<v:userDefs>
					<v:ud v:nameU="SurroundingRegionColor" v:prompt="" v:val="VT5(1)"/>
					<v:ud v:nameU="SurroundingRegionColor" v:prompt="" v:val="VT5(#4672c4)"/>
				</v:userDefs>
				<rect x="0" y="394.865" width="17.8718" height="29.2787" class="st5"/>
			</g>
			<g id="shape24-28" v:mID="24" v:groupContext="shape" transform="translate(16.6334,-1.98663)">
				<title>Sheet.24</title>
				<v:userDefs>
					<v:ud v:nameU="SurroundingRegionColor" v:prompt="" v:val="VT5(1)"/>
					<v:ud v:nameU="SurroundingRegionColor" v:prompt="" v:val="VT5(#4672c4)"/>
				</v:userDefs>
				<path d="M1.42 423.44 a0.708265 0.708265 -180 1 0 -1.41653 0 a0.708265 0.708265 -180 1 0 1.41653 0 ZM3.99 423.44
							 a0.708265 0.708265 -180 1 0 -1.41653 0 a0.708265 0.708265 -180 1 0 1.41653 0 ZM6.57 423.44 a0.70868
							 0.70868 -180 1 0 -1.41736 0 a0.70868 0.70868 -180 1 0 1.41736 0 Z" class="st6"/>
				<path d="M0.65 389.55 L5.91 389.55" class="st7"/>
			</g>
		</g>
		<g id="group42-31" transform="translate(8.2185,-344.626)" v:mID="42" v:groupContext="group">
			<v:userDefs>
				<v:ud v:nameU="visVersion" v:prompt="" v:val="VT0(15):26"/>
			</v:userDefs>
			<title>Web page</title>
			<g id="shape43-32" v:mID="43" v:groupContext="shape" transform="translate(2.61785,-6.02106)">
				<title>Sheet.43</title>
				<path d="M0 379.49 L0 424.14 L65.55 424.14 L65.55 379.49 L0 379.49 Z" class="st8"/>
			</g>
			<g id="shape44-34" v:mID="44" v:groupContext="shape" transform="translate(3.03487,-6.47106)">
				<title>Sheet.44</title>
				<path d="M0 380.39 L0 424.14 L64.71 424.14 L64.71 380.39 L0 380.39 Z" class="st9"/>
			</g>
			<g id="shape45-42" v:mID="45" v:groupContext="shape" transform="translate(2.80087,-38.7487)">
				<title>Sheet.45</title>
				<rect x="0" y="416.893" width="65.3112" height="7.2504" class="st10"/>
			</g>
			<g id="shape46-46" v:mID="46" v:groupContext="shape" transform="translate(2.80087,-44.533)">
				<title>Sheet.46</title>
				<rect x="0" y="418.108" width="65.4507" height="6.0363" class="st11"/>
			</g>
			<g id="shape47-50" v:mID="47" v:groupContext="shape" transform="translate(2.99437,-41.4577)">
				<title>Sheet.47</title>
				<path d="M0 424.14 L42.09 424.14" class="st12"/>
			</g>
			<g id="shape48-53" v:mID="48" v:groupContext="shape" transform="translate(42.7609,-41.4577)">
				<title>Sheet.48</title>
				<path d="M0 424.14 L7.5 424.14" class="st13"/>
			</g>
			<g id="group49-56" transform="translate(8.40967,-13.5397)" v:mID="49" v:groupContext="group">
				<title>Sheet.49</title>
				<g id="shape50-57" v:mID="50" v:groupContext="shape" transform="translate(4.2291,-0.261)">
					<title>Sheet.50</title>
					<path d="M1.02 416.53 a0.70697 0.70697 0 0 1 -0.3834 0.4815 A1.77461 1.77461 0 0 1 0.45 417.91 A1.12476 1.12476
								 -180 0 0 0 418.59 A1.26345 1.26345 -180 0 0 0.19 418.9 A1.98404 1.98404 -180 0 0 0.45 419.65 A2.22099
								 2.22099 0 0 1 1.02 420.46 A1.481 1.481 -180 0 0 1.78 421.22 a0.702648 0.702648 0 0 1 0.6984 0.5634
								 A19.2842 19.2842 -180 0 0 2.59 423.13 A1.14912 1.14912 -180 0 0 2.86 423.79 A8.88815 8.88815 -180
								 0 0 4.06 424.14 A34.4709 34.4709 0 0 1 5.12 423.58 A2.62691 2.62691 -180 0 0 6.35 422.84 a0.489177
								 0.489177 0 0 1 0.3816 -0.4761 A1.42159 1.42159 -180 0 0 7.86 422.1 a0.847187 0.847187 -180 0 0 0.4023
								 -0.6984 a0.664578 0.664578 0 0 1 0.3411 -0.6282 A2.66825 2.66825 -180 0 0 9.23 419.69 a0.963622
								 0.963622 -180 0 0 -0.6057 -0.1116 A6.56066 6.56066 -180 0 0 7.64 419.44 A6.42275 6.42275 -180 0
								 0 6.15 419.1 A6.7089 6.7089 0 0 1 5.84 418.14 A2.8895 2.8895 -180 0 0 4.64 417.84 A11.9118 11.9118
								 -180 0 0 3.94 417.05 A5.95146 5.95146 0 0 1 3.54 417.07 A6.15636 6.15636 0 0 1 1.02 416.53 Z"
							class="st14"/>
				</g>
				<g id="shape51-59" v:mID="51" v:groupContext="shape" transform="translate(-2.41235E-06,5.68434E-14)">
					<title>Sheet.51</title>
					<path d="M19.88 416.5 A2.70924 2.70924 0 0 1 19.68 415.67 L19.74 415.02 L19.41 415.15 a0.343046 0.343046 -180
								 0 0 -0.2916 -0.1809 A3.34721 3.34721 -180 0 0 18.53 415.73 A3.09937 3.09937 0 0 1 17.81 416.12 a0.639023
								 0.639023 0 0 1 -0.4293 -0.5409 a0.811174 0.811174 -180 0 0 -0.5652 -0.4266 A1.12371 1.12371 0 0
								 1 16.77 414 A11.6 11.6 -180 0 0 16.55 412.85 A6.16691 6.16691 0 0 1 16.95 411.19 A9.22865 9.22865
								 -180 0 0 16.91 410.42 a0.318267 0.318267 0 0 1 0.4248 -0.2934 A4.58252 4.58252 -180 0 0 17.9 409.2
								 a0.83087 0.83087 0 0 1 0.4275 0.7002 a0.799792 0.799792 -180 0 0 0.5607 0.0198 L18.96 409.52 L19.16
								 409.36 L19.5 410.02 A10.1569 10.1569 -180 0 0 18.1 407.68 A2.47101 2.47101 0 0 1 17.83 408.53 A1.27524
								 1.27524 0 0 1 17.04 408.19 A1.09533 1.09533 -180 0 0 16.91 408.66 A13.7773 13.7773 0 0 1 17.09 409.3
								 a0.573006 0.573006 0 0 1 -0.2223 0.6075 a0.49998 0.49998 0 0 1 -0.6318 -0.4266 A5.1136 5.1136 0
								 0 1 15.94 408.75 a0.752752 0.752752 0 0 1 0.5202 -0.1791 A1.42139 1.42139 -180 0 0 15.87 407.85
								 L16.16 407.33 A1.36925 1.36925 0 0 1 15.96 406.66 a0.386506 0.386506 -180 0 0 -1.95399E-14 -0.5436
								 A7.8771 7.8771 -180 0 0 15.11 405.53 A5.1624 5.1624 0 0 1 15.69 406.19 a0.267956 0.267956 0 0 1
								 -0.1593 0.3618 A6.33789 6.33789 0 0 1 15.42 406.16 a0.274651 0.274651 -180 0 0 -0.4059 -0.0459 A31.5918
								 31.5918 0 0 1 14.52 405.87 a0.402303 0.402303 0 0 1 -0.0927 -0.405 A3.22421 3.22421 -180 0 0 13.71
								 404.95 a0.312538 0.312538 0 0 1 -0.0882 -0.4275 A2.30443 2.30443 0 0 1 14.12 404.64 A10.1356 10.1356
								 -180 0 0 10.15 403.84 A13.1332 13.1332 -180 0 0 9.77 403.86 A9.05051 9.05051 0 0 1 11.69 404 a0.837324
								 0.837324 0 0 1 -0.5175 0.2178 L10.77 404.29 L11.17 404.44 A2.49637 2.49637 0 0 1 12 405.06 a0.278716
								 0.278716 0 0 1 -0.1035 0.4923 a0.437205 0.437205 0 0 1 -0.1746 0.2754 A6.18927 6.18927 0 0 1 13.97
								 410.61 A6.19691 6.19691 0 0 1 8.17 416.79 A11.9118 11.9118 0 0 1 8.87 417.58 A2.8895 2.8895 0 0
								 1 10.06 417.88 A6.59371 6.59371 -180 0 0 10.38 418.84 A6.42275 6.42275 0 0 1 11.87 419.18 A6.57564
								 6.57564 0 0 1 12.86 419.32 a0.964719 0.964719 0 0 1 0.6057 0.1116 A2.66215 2.66215 0 0 1 12.84 420.51
								 a0.665916 0.665916 -180 0 0 -0.3411 0.6282 a0.847187 0.847187 0 0 1 -0.4023 0.6984 A1.42861 1.42861
								 0 0 1 10.97 422.1 a0.490188 0.490188 -180 0 0 -0.3816 0.4761 A2.62691 2.62691 0 0 1 9.34 423.32
								 A34.4709 34.4709 -180 0 0 8.29 423.88 A9.02313 9.02313 0 0 1 7.09 423.53 A1.15143 1.15143 0 0 1
								 6.82 422.87 A19.2842 19.2842 0 0 1 6.71 421.52 a0.70332 0.70332 -180 0 0 -0.6984 -0.5634 A1.4806
								 1.4806 0 0 1 5.25 420.2 A2.22099 2.22099 -180 0 0 4.68 419.38 A1.98404 1.98404 0 0 1 4.41 418.64
								 A1.24324 1.24324 0 0 1 4.23 418.32 A1.12476 1.12476 0 0 1 4.68 417.65 A1.77461 1.77461 -180 0 0
								 4.87 416.75 a0.70697 0.70697 -180 0 0 0.3834 -0.4815 A6.14944 6.14944 0 0 1 3.9 415.45 A36.1488
								 36.1488 -180 0 0 3.9 415.92 L4.21 416.19 L4.07 416.46 a0.911864 0.911864 0 0 1 -0.6534 -0.6768 A1.41394
								 1.41394 -180 0 0 3.15 414.95 a0.388789 0.388789 0 0 1 -0.3582 -0.1341 A2.58985 2.58985 -180 0 0
								 2.39 414.09 L1.96 414 A3.64363 3.64363 0 0 1 1.5 412.9 A9.17783 9.17783 0 0 1 1.5 409.54 A7.51516
								 7.51516 0 0 1 1.99 408.36 A6.18697 6.18697 0 0 1 2.52 407.31 A10.0872 10.0872 -180 0 0 0 413.99
								 A10.1542 10.1542 -180 0 0 10.15 424.14 A10.1486 10.1486 -180 0 0 20.13 415.81 A1.40465 1.40465 0
								 0 1 19.88 416.5 Z" class="st15"/>
				</g>
				<g id="shape52-63" v:mID="52" v:groupContext="shape" transform="translate(1.9935,-15.7842)">
					<title>Sheet.52</title>
					<path d="M2.26 421.55 A9.69802 9.69802 0 0 1 4.31 420.44 a0.366164 0.366164 -180 0 0 0.1368 0.4752 A1.24459 1.24459
								 0 0 1 5.05 420.44 A2.10241 2.10241 -180 0 0 5.52 420.53 A1.62409 1.62409 0 0 1 5.57 420.2 A6.28486
								 6.28486 -180 0 0 4.5 420.32 A10.1762 10.1762 -180 0 0 0.53 423.1 A6.25451 6.25451 -180 0 0 0 424.14
								 A6.99999 6.99999 0 0 1 2.26 421.55 Z" class="st16"/>
				</g>
				<g id="shape53-67" v:mID="53" v:groupContext="shape" transform="translate(2.33547,-7.362)">
					<title>Sheet.53</title>
					<path d="M8.99 414.14 a0.331938 0.331938 0 0 1 -0.3879 -0.0648 a0.828549 0.828549 -180 0 0 -0.3519 -0.0495 A3.89161
								 3.89161 0 0 1 7.79 413.3 a0.361437 0.361437 0 0 1 0.1953 -0.4635 a0.20473 0.20473 0 0 1 -0.1719
								 -0.2844 a0.899093 0.899093 -180 0 0 -0.9027 -0.4932 a0.28517 0.28517 -180 0 0 -0.3501 0.1827 A11.3028
								 11.3028 0 0 1 6.26 412.25 A1.28301 1.28301 0 0 1 7.25 412.63 A1.16559 1.16559 0 0 1 6.4 413.78 a0.483564
								 0.483564 0 0 1 -0.4977 -0.3834 A1.05418 1.05418 -180 0 0 5.3 413.35 a0.669503 0.669503 0 0 1 -0.6525
								 -0.0207 a0.836989 0.836989 -180 0 0 -0.9036 0.6507 A1.77152 1.77152 0 0 1 4.3 414.61 a0.392608 0.392608
								 -180 0 0 0.0225 0.5202 A1.74847 1.74847 -180 0 0 5.02 414.23 a0.620179 0.620179 0 0 1 0.585 -0.6084
								 A2.42999 2.42999 0 0 1 5.86 414.11 a0.387452 0.387452 0 0 1 0.5868 -0.0243 A23.1259 23.1259 -180
								 0 0 7.01 414.9 A4.94276 4.94276 -180 0 0 7.19 415.78 a0.488612 0.488612 -180 0 0 0.3816 0.1548 a0.813026
								 0.813026 0 0 1 -0.6066 0.2034 a0.906314 0.906314 -180 0 0 -0.3402 -0.5634 A2.91775 2.91775 0 0 1
								 5.74 415.6 A1.03052 1.03052 -180 0 0 5.97 416.29 a0.24826 0.24826 0 0 1 -0.1341 0.4761 a0.641313
								 0.641313 0 0 1 -0.4302 -0.225 A2.2128 2.2128 -180 0 0 4.86 417.04 A1.19173 1.19173 0 0 1 4.3 417.17
								 L3.8 417.67 A1.65299 1.65299 0 0 1 3.11 418.57 a0.916517 0.916517 -180 0 0 -0.5436 0.7209 A1.44588
								 1.44588 0 0 1 2.34 420.26 a0.601051 0.601051 0 0 1 -0.0207 -0.5841 L2.1 419.11 L1.4 418.8 L1.29
								 419 L0.59 418.71 a0.262685 0.262685 -180 0 0 -0.1836 0.2916 A1.33657 1.33657 0 0 1 0.05 419.72 A10.8454
								 10.8454 -180 0 0 0 420.75 A2.28717 2.28717 -180 0 0 0.48 421.09 L0.72 420.78 L1.19 420.8 A1.73503
								 1.73503 -180 0 0 0.86 421.72 A1.39091 1.39091 0 0 1 1.58 422.31 A7.3635 7.3635 -180 0 0 1.56 422.81
								 A6.14944 6.14944 -180 0 0 2.91 423.63 A2.34386 2.34386 -180 0 0 2.95 423.48 L3.51 423.5 a0.281332
								 0.281332 -180 0 0 0.2025 0.3618 A1.28046 1.28046 -180 0 0 4.1 423.55 A3.00004 3.00004 0 0 1 5 424.08
								 a0.57688 0.57688 0 0 1 0.2916 -0.3132 a0.881735 0.881735 0 0 1 0.5418 0.3726 A6.19625 6.19625 -180
								 0 0 11.64 417.96 A6.18927 6.18927 -180 0 0 9.39 413.19 A1.80061 1.80061 0 0 1 9.05 413.41 A1.20535
								 1.20535 0 0 1 8.99 414.14 Z" class="st16"/>
				</g>
				<g id="shape54-70" v:mID="54" v:groupContext="shape" transform="translate(1.35012,-7.6869)">
					<title>Sheet.54</title>
					<path d="M6.18 412.49 a0.0769461 0.0769461 0 0 1 -0.0171 -0.0531 A2.03994 2.03994 0 0 1 5.7 412.34 A1.25377 1.25377
								 -180 0 0 5.09 412.82 a0.366164 0.366164 0 0 1 -0.1368 -0.4752 A9.75284 9.75284 -180 0 0 2.9 413.45
								 A7.16915 7.16915 -180 0 0 0.15 417.23 A9.17963 9.17963 -180 0 0 0.15 420.59 A3.63081 3.63081 -180
								 0 0 0.61 421.69 L1.03 421.78 A2.55435 2.55435 0 0 1 1.44 422.5 a0.389536 0.389536 -180 0 0 0.3582
								 0.1341 A1.41394 1.41394 0 0 1 2.07 423.47 a0.911864 0.911864 -180 0 0 0.6534 0.6768 L2.86 423.87
								 L2.55 423.6 A18.0802 18.0802 0 0 1 2.57 422.63 A1.38665 1.38665 -180 0 0 1.85 422.05 A1.73503 1.73503
								 0 0 1 2.18 421.13 L1.71 421.1 L1.46 421.42 A2.28717 2.28717 0 0 1 0.99 421.08 A10.5552 10.5552 0
								 0 1 1.03 420.05 A1.33047 1.33047 -180 0 0 1.39 419.33 a0.262685 0.262685 0 0 1 0.1836 -0.2916 L2.28
								 419.33 L2.39 419.12 L3.08 419.44 L3.31 420 a0.6035 0.6035 -180 0 0 0.0207 0.5841 A1.44588 1.44588
								 -180 0 0 3.55 419.62 a0.916517 0.916517 0 0 1 0.5436 -0.7209 A1.64854 1.64854 -180 0 0 4.79 418
								 L5.29 417.5 A1.20251 1.20251 -180 0 0 5.85 417.37 A2.2128 2.2128 0 0 1 6.39 416.87 a0.641313 0.641313
								 -180 0 0 0.4302 0.225 a0.24826 0.24826 -180 0 0 0.1341 -0.4761 A1.03052 1.03052 0 0 1 6.73 415.92
								 A2.94912 2.94912 -180 0 0 7.61 415.9 a0.906314 0.906314 0 0 1 0.3402 0.5634 a0.813026 0.813026 -180
								 0 0 0.6066 -0.2034 a0.488612 0.488612 0 0 1 -0.3816 -0.1548 A4.94276 4.94276 0 0 1 7.99 415.23 A24.0714
								 24.0714 0 0 1 7.43 414.42 a0.387452 0.387452 -180 0 0 -0.5868 0.0243 A2.50251 2.50251 -180 0 0 6.6
								 413.95 a0.619574 0.619574 -180 0 0 -0.585 0.6084 A1.74847 1.74847 0 0 1 5.32 415.46 a0.392608 0.392608
								 0 0 1 -0.0225 -0.5202 A1.77152 1.77152 -180 0 0 4.73 414.3 a0.837827 0.837827 0 0 1 0.9036 -0.6507
								 a0.669409 0.669409 -180 0 0 0.6525 0.0207 A1.05418 1.05418 0 0 1 6.89 413.72 a0.483564 0.483564
								 -180 0 0 0.4977 0.3834 A1.16535 1.16535 -180 0 0 8.24 412.95 A1.2795 1.2795 -180 0 0 7.25 412.58
								 A3.61812 3.61812 0 0 1 6.18 412.49 Z" class="st17"/>
				</g>
				<g id="shape55-74" v:mID="55" v:groupContext="shape" transform="translate(4.2282,-0.2592)">
					<title>Sheet.55</title>
					<path d="M8.63 419.58 A6.56066 6.56066 -180 0 0 7.64 419.44 A6.42275 6.42275 -180 0 0 6.15 419.1 A6.7089 6.7089
								 0 0 1 5.84 418.14 A2.8895 2.8895 -180 0 0 4.64 417.84 A4.11392 4.11392 -180 0 0 3.4 416.67 a0.57688
								 0.57688 -180 0 0 -0.2916 0.3132 A3.01883 3.01883 -180 0 0 2.21 416.45 A1.29417 1.29417 0 0 1 1.83
								 416.76 a0.282307 0.282307 0 0 1 -0.2025 -0.3618 L1.06 416.38 a0.870906 0.870906 0 0 1 -0.4257 0.6291
								 A1.77461 1.77461 0 0 1 0.45 417.91 A1.12476 1.12476 -180 0 0 0 418.59 A1.26345 1.26345 -180 0 0
								 0.19 418.9 A1.98404 1.98404 -180 0 0 0.45 419.65 A2.22099 2.22099 0 0 1 1.02 420.46 A1.481 1.481
								 -180 0 0 1.78 421.22 a0.702648 0.702648 0 0 1 0.6984 0.5634 A19.2842 19.2842 -180 0 0 2.59 423.13
								 A1.14912 1.14912 -180 0 0 2.86 423.79 A8.88815 8.88815 -180 0 0 4.06 424.14 A34.4709 34.4709 0 0
								 1 5.12 423.58 A2.62691 2.62691 -180 0 0 6.35 422.84 a0.489177 0.489177 0 0 1 0.3816 -0.4761 A1.42159
								 1.42159 -180 0 0 7.86 422.1 a0.847187 0.847187 -180 0 0 0.4023 -0.6984 a0.664578 0.664578 0 0 1
								 0.3411 -0.6282 A2.66825 2.66825 -180 0 0 9.23 419.69 a0.949115 0.949115 -180 0 0 -0.6048 -0.1134
								 Z" class="st18"/>
				</g>
				<g id="shape56-78" v:mID="56" v:groupContext="shape" transform="translate(16.5492,-7.6401)">
					<title>Sheet.56</title>
					<path d="M3.72 420.85 A10.6372 10.6372 -180 0 0 3.6 419.88 L3.03 417.88 A9.35038 9.35038 -180 0 0 2.95 417.66
								 L2.61 417 L2.41 417.16 L2.34 417.56 a0.799792 0.799792 0 0 1 -0.5607 -0.0198 a0.83087 0.83087 -180
								 0 0 -0.4275 -0.7002 A4.55747 4.55747 0 0 1 0.78 417.77 a0.318713 0.318713 -180 0 0 -0.4248 0.2934
								 A9.20833 9.20833 0 0 1 0.4 418.83 A6.15648 6.15648 -180 0 0 0 420.49 A11.6 11.6 0 0 1 0.22 421.64
								 A1.12371 1.12371 -180 0 0 0.27 422.79 a0.811174 0.811174 0 0 1 0.5652 0.4266 a0.640179 0.640179
								 -180 0 0 0.4293 0.5409 A3.09937 3.09937 -180 0 0 1.98 423.38 A3.39287 3.39287 0 0 1 2.57 422.61
								 a0.343046 0.343046 0 0 1 0.2916 0.1809 L3.19 422.66 L3.13 423.31 A2.70924 2.70924 -180 0 0 3.33
								 424.14 A1.40465 1.40465 -180 0 0 3.58 423.45 A9.50223 9.50223 -180 0 0 3.72 422.41 L3.72 420.85
								 L3.72 420.85 Z" class="st19"/>
				</g>
				<g id="shape57-82" v:mID="57" v:groupContext="shape" transform="translate(13.5735,-14.2215)">
					<title>Sheet.57</title>
					<path d="M0.14 419.17 A3.2765 3.2765 0 0 1 0.86 419.69 a0.397626 0.397626 -180 0 0 0.0927 0.405 A24.8975 24.8975
								 -180 0 0 1.45 420.34 a0.273704 0.273704 0 0 1 0.4059 0.0477 A6.60479 6.60479 -180 0 0 1.96 420.77
								 a0.267956 0.267956 -180 0 0 0.1593 -0.3618 A5.1624 5.1624 -180 0 0 1.53 419.76 A7.8771 7.8771 0
								 0 1 2.39 420.34 a0.386393 0.386393 0 0 1 2.22045E-15 0.5436 A1.36925 1.36925 -180 0 0 2.59 421.55
								 L2.3 422.08 A1.41689 1.41689 0 0 1 2.89 422.8 a0.755203 0.755203 -180 0 0 -0.5202 0.1791 A5.27012
								 5.27012 -180 0 0 2.66 423.7 a0.500835 0.500835 -180 0 0 0.6318 0.4266 a0.572672 0.572672 -180 0
								 0 0.2223 -0.6075 A13.7773 13.7773 -180 0 0 3.34 422.89 A1.09533 1.09533 0 0 1 3.47 422.42 A1.27524
								 1.27524 -180 0 0 4.26 422.75 A2.47681 2.47681 -180 0 0 4.53 421.9 a0.457656 0.457656 -180 0 0 -0.0252
								 -0.0306 A106.052 106.052 -180 0 0 2.77 420.18 A10.2186 10.2186 -180 0 0 0.55 418.86 A2.29228 2.29228
								 -180 0 0 0.05 418.74 a0.312029 0.312029 -180 0 0 0.0873 0.4275 Z" class="st17"/>
				</g>
				<g id="shape58-85" v:mID="58" v:groupContext="shape" transform="translate(7.5168,-17.3285)">
					<title>Sheet.58</title>
					<path d="M-0 422.08 A65.2082 65.2082 0 0 1 1.08 422.22 A11.3028 11.3028 -180 0 0 1.39 422.21 a0.28517 0.28517
								 0 0 1 0.3501 -0.1827 a0.899093 0.899093 0 0 1 0.9027 0.4932 a0.205412 0.205412 -180 0 0 0.1719 0.2844
								 L2.83 422.79 a0.0833397 0.0833397 0 0 1 -0.0234 0.0153 a0.362204 0.362204 -180 0 0 -0.1953 0.4635
								 A3.89161 3.89161 -180 0 0 3.07 423.99 a0.813667 0.813667 0 0 1 0.3519 0.0495 a0.330569 0.330569
								 -180 0 0 0.3879 0.0648 A1.19762 1.19762 -180 0 0 3.87 423.39 a0.924601 0.924601 -180 0 0 0.5139
								 -0.504 a0.278472 0.278472 -180 0 0 0.1035 -0.4923 A2.50147 2.50147 -180 0 0 3.66 421.77 L3.26 421.61
								 L3.66 421.55 a0.84245 0.84245 -180 0 0 0.5175 -0.2178 A9.05051 9.05051 -180 0 0 2.26 421.18 A10.7533
								 10.7533 -180 0 0 1.74 421.21 L0.23 421.47 A4.80847 4.80847 -180 0 0 0.02 421.52 A1.37062 1.37062
								 0 0 1 0 422.08 Z" class="st20"/>
				</g>
			</g>
			<g id="shape59-92" v:mID="59" v:groupContext="shape" transform="translate(8.00467,-13.1239)">
				<title>Sheet.59</title>
				<path d="M10.56 403.02 A10.5288 10.5288 -180 0 0 3.1 406.12 A10.5276 10.5276 -180 0 0 0 413.58 A10.526 10.526 -180
							 0 0 3.1 421.05 A10.5296 10.5296 -180 0 0 10.56 424.14 A10.5296 10.5296 -180 0 0 18.03 421.05 A10.526
							 10.526 -180 0 0 21.12 413.58 A10.5276 10.5276 -180 0 0 18.03 406.12 A10.5288 10.5288 -180 0 0 10.56
							 403.02 ZM10.56 423.69 A10.081 10.081 0 0 1 3.41 420.73 A10.0773 10.0773 0 0 1 0.45 413.59 A10.0788 10.0788
							 0 0 1 3.41 406.44 A10.0804 10.0804 0 0 1 10.56 403.47 A10.0804 10.0804 0 0 1 17.71 406.44 A10.0788 10.0788
							 0 0 1 20.67 413.59 A10.0773 10.0773 0 0 1 17.71 420.73 A10.081 10.081 0 0 1 10.56 423.69 Z"
						class="st21"/>
			</g>
			<g id="shape60-94" v:mID="60" v:groupContext="shape" transform="translate(2.61457,-6.02106)">
				<title>Sheet.60</title>
				<path d="M0 379.49 L0 424.14 L65.55 424.14 L65.55 379.49 L0 379.49 Z" class="st22"/>
			</g>
			<g id="shape61-96" v:mID="61" v:groupContext="shape" transform="translate(35.0605,-17.0623)">
				<title>Sheet.61</title>
				<path d="M0.45 423.24 L28.02 423.24 a0.449588 0.449588 0 0 1 0.45 0.45 a0.450742 0.450742 0 0 1 -0.45 0.45 L0.45
							 424.14 a0.450742 0.450742 0 0 1 -0.45 -0.45 a0.449588 0.449588 0 0 1 0.45 -0.45 ZM0.45 417.36 L28.02
							 417.36 a0.450742 0.450742 0 0 1 0.45 0.45 a0.449588 0.449588 0 0 1 -0.45 0.45 L0.45 418.26 a0.449588
							 0.449588 0 0 1 -0.45 -0.45 a0.450742 0.450742 0 0 1 0.45 -0.45 ZM0.45 411.47 L28.02 411.47 a0.449588
							 0.449588 0 0 1 0.45 0.45 a0.450742 0.450742 0 0 1 -0.45 0.45 L0.45 412.37 a0.450742 0.450742 0 0 1 -0.45
							 -0.45 a0.449588 0.449588 0 0 1 0.45 -0.45 Z" class="st21"/>
			</g>
		</g>
		<g id="shape63-98" v:mID="63" v:groupContext="shape" v:layerMember="0" transform="translate(484.513,-354.4)">
			<title>Dynamic connector</title>
			<path d="M0 424.14 L0 534.55 L-7.6 534.55 A2.3622 2.3622 -180 0 0 -12.32 534.55 L-68.86 534.55" class="st23"/>
		</g>
		<g id="shape64-104" v:mID="64" v:groupContext="shape" v:layerMember="0" transform="translate(474.555,-355.587)">
			<title>Dynamic connector.64</title>
			<path d="M0 424.14 L0 622.19 L-60.32 622.19" class="st23"/>
		</g>
		<g id="shape65-109" v:mID="65" v:groupContext="shape" v:layerMember="0" transform="translate(43.6516,-350.647)">
			<title>Dynamic connector.65</title>
			<path d="M0 424.14 L0 530.79 L15.35 530.79 A2.3622 2.3622 0 1 1 20.08 530.79 L121.65 530.79 A2.3622 2.3622 0 0 1 126.38
						 530.79 L159.5 530.79" class="st23"/>
		</g>
		<g id="shape66-114" v:mID="66" v:groupContext="shape" v:layerMember="0" transform="translate(61.3681,-350.647)">
			<title>Dynamic connector.66</title>
			<path d="M0 424.14 L0 617.25 L140.36 617.25" class="st23"/>
		</g>
		<g id="group67-119" transform="translate(556.722,-354.4)" v:mID="67" v:groupContext="group">
			<v:custProps>
				<v:cp v:nameU="AssetNumber" v:lbl="Asset Number" v:prompt="" v:type="0" v:format="" v:sortKey="Asset"
						v:invis="false" v:ask="false" v:langID="1033" v:cal="0"/>
				<v:cp v:nameU="SerialNumber" v:lbl="Serial Number" v:prompt="" v:type="0" v:format="" v:sortKey="Asset"
						v:invis="false" v:ask="false" v:langID="1033" v:cal="0"/>
				<v:cp v:nameU="Location" v:lbl="Location" v:prompt="" v:type="0" v:format="" v:sortKey="Asset" v:invis="false"
						v:ask="false" v:langID="1033" v:cal="0"/>
				<v:cp v:nameU="Building" v:lbl="Building" v:prompt="" v:type="0" v:format="" v:sortKey="Asset" v:invis="false"
						v:ask="false" v:langID="1033" v:cal="0"/>
				<v:cp v:nameU="Room" v:lbl="Room" v:prompt="" v:type="0" v:format="" v:sortKey="Asset" v:invis="false"
						v:ask="false" v:langID="1033" v:cal="0"/>
				<v:cp v:nameU="Manufacturer" v:lbl="Manufacturer" v:prompt="" v:type="0" v:format="" v:sortKey="Equipment"
						v:invis="false" v:ask="false" v:langID="1033" v:cal="0"/>
				<v:cp v:nameU="ProductNumber" v:lbl="Product Number" v:prompt="" v:type="0" v:format="" v:sortKey="Equipment"
						v:invis="false" v:ask="false" v:langID="1033" v:cal="0"/>
				<v:cp v:nameU="PartNumber" v:lbl="Part Number" v:prompt="" v:type="0" v:format="" v:sortKey="Equipment"
						v:invis="false" v:ask="false" v:langID="1033" v:cal="0"/>
				<v:cp v:nameU="ProductDescription" v:lbl="Product Description" v:prompt="" v:type="0" v:format=""
						v:sortKey="Equipment" v:invis="false" v:ask="false" v:langID="1033" v:cal="0"/>
				<v:cp v:nameU="NetworkName" v:lbl="Network Name" v:prompt="" v:type="0" v:format="" v:sortKey="Network"
						v:invis="false" v:ask="false" v:langID="1033" v:cal="0"/>
				<v:cp v:nameU="IPAddress" v:lbl="IP Address" v:prompt="" v:type="0" v:format="" v:sortKey="Network" v:invis="false"
						v:ask="false" v:langID="1033" v:cal="0"/>
				<v:cp v:nameU="SubnetMask" v:lbl="Subnet Mask" v:prompt="" v:type="0" v:format="" v:sortKey="Network"
						v:invis="false" v:ask="false" v:langID="1033" v:cal="0"/>
				<v:cp v:nameU="AdminInterface" v:lbl="Administrative Interface" v:prompt="" v:type="0" v:format=""
						v:sortKey="Network" v:invis="false" v:ask="false" v:langID="1033" v:cal="0"/>
				<v:cp v:nameU="NumberofPorts" v:lbl="Number of Ports" v:prompt="" v:type="0" v:format="" v:sortKey="Network"
						v:invis="false" v:ask="false" v:langID="1033" v:cal="0"/>
				<v:cp v:nameU="CommunityString" v:lbl="Community String" v:prompt="" v:type="0" v:format="" v:sortKey="Network"
						v:invis="false" v:ask="false" v:langID="1033" v:cal="0"/>
				<v:cp v:nameU="NetworkDescription" v:lbl="Network Description" v:prompt="" v:type="0" v:format=""
						v:sortKey="Network" v:invis="false" v:ask="false" v:langID="1033" v:cal="0"/>
				<v:cp v:nameU="MACAddress" v:lbl="MAC Address" v:prompt="" v:type="0" v:format="" v:sortKey="Network"
						v:invis="false" v:ask="false" v:langID="1033" v:cal="0"/>
				<v:cp v:nameU="CPU" v:lbl="CPU" v:prompt="" v:type="0" v:format="" v:sortKey="Workstation" v:invis="false"
						v:ask="false" v:langID="1033" v:cal="0"/>
				<v:cp v:nameU="Memory" v:lbl="Memory" v:prompt="" v:type="0" v:format="" v:sortKey="Workstation" v:invis="false"
						v:ask="false" v:langID="1033" v:cal="0"/>
				<v:cp v:nameU="OperatingSystem" v:lbl="Operating System" v:prompt="" v:type="0" v:format="" v:sortKey="Workstation"
						v:invis="false" v:ask="false" v:langID="1033" v:cal="0"/>
				<v:cp v:nameU="HardDriveSize" v:lbl="Hard Drive Capacity" v:prompt="" v:type="0" v:format=""
						v:sortKey="Workstation" v:invis="false" v:ask="false" v:langID="1033" v:cal="0"/>
				<v:cp v:nameU="Department" v:lbl="Department" v:prompt="" v:type="0" v:format="" v:sortKey="" v:invis="false"
						v:ask="false" v:langID="1033" v:cal="0"/>
				<v:cp v:nameU="ShapeClass" v:lbl="ShapeClass" v:prompt="" v:type="0" v:format="" v:sortKey="" v:invis="true"
						v:ask="false" v:langID="1033" v:cal="0" v:val="VT4(Equipment)"/>
				<v:cp v:nameU="ShapeType" v:lbl="ShapeType" v:prompt="" v:type="0" v:format="" v:sortKey="" v:invis="true"
						v:ask="false" v:langID="1033" v:cal="0" v:val="VT4(Computer)"/>
				<v:cp v:nameU="SubShapeType" v:lbl="SubShapeType" v:prompt="" v:type="0" v:format="" v:sortKey="" v:invis="true"
						v:ask="false" v:langID="1033" v:cal="0" v:val="VT4(Desktop)"/>
				<v:cp v:nameU="BelongsTo" v:lbl="Belongs To" v:prompt="" v:type="0" v:format="" v:sortKey="" v:invis="true"
						v:ask="false" v:langID="1033" v:cal="0"/>
			</v:custProps>
			<v:userDefs>
				<v:ud v:nameU="visVersion" v:prompt="" v:val="VT0(15):26"/>
				<v:ud v:nameU="ShapeClass" v:prompt="" v:val="VT0(5):26"/>
				<v:ud v:nameU="SolSH" v:prompt="" v:val="VT15({BF0433D9-CD73-4EB5-8390-8653BE590246}):41"/>
				<v:ud v:nameU="visLegendShape" v:prompt="" v:val="VT0(2):26"/>
			</v:userDefs>
			<title>PC</title>
			<g id="shape68-120" v:mID="68" v:groupContext="shape" transform="translate(0,-2.8357)">
				<title>Sheet.68</title>
				<path d="M28.8 413.7 L28.8 417.29 L30.97 417.29 L33.02 419.86 L42.52 419.86 L42.52 387.3 L28.8 387.3 L28.8 391.97
							 L34.69 391.97 L34.69 413.7 L28.8 413.7 ZM34.69 391.97 L2.12 391.97 L2.12 413.7 L34.69 413.7 L34.69 391.97
							 ZM36.44 424.14 L30.97 417.29 L5.47 417.29 L0 424.14 L36.44 424.14 ZM21.08 413.7 L15.36 413.7 L15.36
							 417.29 L21.08 417.29 L21.08 413.7 Z" class="st1"/>
			</g>
			<g id="shape69-122" v:mID="69" v:groupContext="shape" transform="translate(4.23169,-15.2358)">
				<title>Sheet.69</title>
				<v:userDefs>
					<v:ud v:nameU="SurroundingRegionColor" v:prompt="" v:val="VT5(1)"/>
					<v:ud v:nameU="SurroundingRegionColor" v:prompt="" v:val="VT5(#4672c4)"/>
				</v:userDefs>
				<path d="M28.39 406.52 L0 406.52 L0 424.14 L28.39 424.14 L28.39 406.52 Z" class="st5"/>
			</g>
			<g id="shape70-124" v:mID="70" v:groupContext="shape" transform="translate(4.95917,-4.25018)">
				<title>Sheet.70</title>
				<v:userDefs>
					<v:ud v:nameU="SurroundingRegionColor" v:prompt="" v:val="VT5(1)"/>
					<v:ud v:nameU="SurroundingRegionColor" v:prompt="" v:val="VT5(#4672c4)"/>
				</v:userDefs>
				<path d="M32.07 392.36 L35 392.36 L35 391.21 L32.07 391.21 L32.07 392.36 ZM32.07 394.39 L35 394.39 L35 393.25 L32.07
							 393.25 L32.07 394.39 ZM24.88 421.49 L23.26 421.49 L24.17 422.49 L25.92 422.49 L24.88 421.49 ZM23.05
							 419.7 L21.66 419.7 L22.63 420.78 L24.16 420.78 L23.05 419.7 ZM22.39 421.49 L20.77 421.49 L21.48 422.49
							 L23.23 422.49 L22.39 421.49 ZM20.91 419.7 L19.51 419.7 L20.28 420.78 L21.81 420.78 L20.91 419.7 ZM19.9
							 421.49 L18.28 421.49 L18.8 422.49 L20.55 422.49 L19.9 421.49 ZM18.76 419.7 L17.37 419.7 L17.93 420.8
							 L19.46 420.8 L18.76 419.7 ZM17.41 421.49 L15.79 421.49 L16.11 422.49 L17.86 422.49 L17.41 421.49 ZM16.65
							 419.77 L15.24 419.77 L15.57 420.8 L17.11 420.8 L16.65 419.77 ZM14.92 421.49 L13.3 421.49 L13.43 422.49
							 L15.17 422.49 L14.92 421.49 ZM14.51 419.86 L13.09 419.86 L13.22 420.87 L14.76 420.87 L14.51 419.86 ZM12.33
							 419.86 L10.92 419.86 L10.85 420.87 L12.39 420.87 L12.33 419.86 ZM12.43 421.49 L10.81 421.49 L10.74 422.49
							 L12.49 422.49 L12.43 421.49 ZM10.16 419.86 L8.74 419.86 L8.48 420.87 L10.02 420.87 L10.16 419.86 ZM9.94
							 421.49 L8.32 421.49 L8.06 422.49 L9.8 422.49 L9.94 421.49 ZM18.82 423.14 L7.39 423.14 L7.1 424.14 L19.32
							 424.14 L18.82 423.14 ZM7.98 419.86 L6.56 419.86 L6.11 420.87 L7.65 420.87 L7.98 419.86 ZM7.45 421.49
							 L5.83 421.49 L5.37 422.49 L7.12 422.49 L7.45 421.49 ZM5.8 419.86 L4.39 419.86 L3.73 420.87 L5.28 420.87
							 L5.8 419.86 ZM4.96 421.49 L3.34 421.49 L2.69 422.49 L4.43 422.49 L4.96 421.49 ZM3.62 419.86 L2.21 419.86
							 L1.36 420.87 L2.91 420.87 L3.62 419.86 ZM2.46 421.49 L0.84 421.49 L0 422.49 L1.75 422.49 L2.46 421.49
							 Z" class="st6"/>
			</g>
		</g>
		<g id="shape71-127" v:mID="71" v:groupContext="shape" v:layerMember="0" transform="translate(577.982,-357.236)">
			<title>Dynamic connector.71</title>
			<path d="M0 424.14 L0 537.38 L-8.27 537.38 A2.3622 2.3622 -180 0 0 -12.99 537.38 L-101.07 537.38 A2.3622 2.3622 -180
						 1 0 -105.79 537.38 L-162.33 537.38" class="st23"/>
		</g>
		<g id="shape72-132" v:mID="72" v:groupContext="shape" v:layerMember="0" transform="translate(567.352,-357.236)">
			<title>Dynamic connector.72</title>
			<path d="M0 424.14 L0 623.84 L-153.12 623.84" class="st23"/>
		</g>
		<g id="group73-137" transform="translate(114.518,-344.626)" v:mID="73" v:groupContext="group">
			<v:userDefs>
				<v:ud v:nameU="visVersion" v:prompt="" v:val="VT0(15):26"/>
			</v:userDefs>
			<title>Web page.73</title>
			<g id="shape74-138" v:mID="74" v:groupContext="shape" transform="translate(2.61785,-6.02106)">
				<title>Sheet.74</title>
				<path d="M0 379.49 L0 424.14 L65.55 424.14 L65.55 379.49 L0 379.49 Z" class="st8"/>
			</g>
			<g id="shape75-140" v:mID="75" v:groupContext="shape" transform="translate(3.03487,-6.47106)">
				<title>Sheet.75</title>
				<path d="M0 380.39 L0 424.14 L64.71 424.14 L64.71 380.39 L0 380.39 Z" class="st9"/>
			</g>
			<g id="shape76-143" v:mID="76" v:groupContext="shape" transform="translate(2.80087,-38.7487)">
				<title>Sheet.76</title>
				<rect x="0" y="416.893" width="65.3112" height="7.2504" class="st10"/>
			</g>
			<g id="shape77-146" v:mID="77" v:groupContext="shape" transform="translate(2.80087,-44.533)">
				<title>Sheet.77</title>
				<rect x="0" y="418.108" width="65.4507" height="6.0363" class="st11"/>
			</g>
			<g id="shape78-149" v:mID="78" v:groupContext="shape" transform="translate(2.99437,-41.4577)">
				<title>Sheet.78</title>
				<path d="M0 424.14 L42.09 424.14" class="st12"/>
			</g>
			<g id="shape79-152" v:mID="79" v:groupContext="shape" transform="translate(42.7609,-41.4577)">
				<title>Sheet.79</title>
				<path d="M0 424.14 L7.5 424.14" class="st13"/>
			</g>
			<g id="group80-155" transform="translate(8.40967,-13.5397)" v:mID="80" v:groupContext="group">
				<title>Sheet.80</title>
				<g id="shape81-156" v:mID="81" v:groupContext="shape" transform="translate(4.2291,-0.261)">
					<title>Sheet.81</title>
					<path d="M1.02 416.53 a0.70697 0.70697 0 0 1 -0.3834 0.4815 A1.77461 1.77461 0 0 1 0.45 417.91 A1.12476 1.12476
								 -180 0 0 0 418.59 A1.26345 1.26345 -180 0 0 0.19 418.9 A1.98404 1.98404 -180 0 0 0.45 419.65 A2.22099
								 2.22099 0 0 1 1.02 420.46 A1.481 1.481 -180 0 0 1.78 421.22 a0.702648 0.702648 0 0 1 0.6984 0.5634
								 A19.2842 19.2842 -180 0 0 2.59 423.13 A1.14912 1.14912 -180 0 0 2.86 423.79 A8.88815 8.88815 -180
								 0 0 4.06 424.14 A34.4709 34.4709 0 0 1 5.12 423.58 A2.62691 2.62691 -180 0 0 6.35 422.84 a0.489177
								 0.489177 0 0 1 0.3816 -0.4761 A1.42159 1.42159 -180 0 0 7.86 422.1 a0.847187 0.847187 -180 0 0 0.4023
								 -0.6984 a0.664578 0.664578 0 0 1 0.3411 -0.6282 A2.66825 2.66825 -180 0 0 9.23 419.69 a0.963622
								 0.963622 -180 0 0 -0.6057 -0.1116 A6.56066 6.56066 -180 0 0 7.64 419.44 A6.42275 6.42275 -180 0
								 0 6.15 419.1 A6.7089 6.7089 0 0 1 5.84 418.14 A2.8895 2.8895 -180 0 0 4.64 417.84 A11.9118 11.9118
								 -180 0 0 3.94 417.05 A5.95146 5.95146 0 0 1 3.54 417.07 A6.15636 6.15636 0 0 1 1.02 416.53 Z"
							class="st14"/>
				</g>
				<g id="shape82-158" v:mID="82" v:groupContext="shape" transform="translate(-2.41235E-06,5.68434E-14)">
					<title>Sheet.82</title>
					<path d="M19.88 416.5 A2.70924 2.70924 0 0 1 19.68 415.67 L19.74 415.02 L19.41 415.15 a0.343046 0.343046 -180
								 0 0 -0.2916 -0.1809 A3.34721 3.34721 -180 0 0 18.53 415.73 A3.09937 3.09937 0 0 1 17.81 416.12 a0.639023
								 0.639023 0 0 1 -0.4293 -0.5409 a0.811174 0.811174 -180 0 0 -0.5652 -0.4266 A1.12371 1.12371 0 0
								 1 16.77 414 A11.6 11.6 -180 0 0 16.55 412.85 A6.16691 6.16691 0 0 1 16.95 411.19 A9.22865 9.22865
								 -180 0 0 16.91 410.42 a0.318267 0.318267 0 0 1 0.4248 -0.2934 A4.58252 4.58252 -180 0 0 17.9 409.2
								 a0.83087 0.83087 0 0 1 0.4275 0.7002 a0.799792 0.799792 -180 0 0 0.5607 0.0198 L18.96 409.52 L19.16
								 409.36 L19.5 410.02 A10.1569 10.1569 -180 0 0 18.1 407.68 A2.47101 2.47101 0 0 1 17.83 408.53 A1.27524
								 1.27524 0 0 1 17.04 408.19 A1.09533 1.09533 -180 0 0 16.91 408.66 A13.7773 13.7773 0 0 1 17.09 409.3
								 a0.573006 0.573006 0 0 1 -0.2223 0.6075 a0.49998 0.49998 0 0 1 -0.6318 -0.4266 A5.1136 5.1136 0
								 0 1 15.94 408.75 a0.752752 0.752752 0 0 1 0.5202 -0.1791 A1.42139 1.42139 -180 0 0 15.87 407.85
								 L16.16 407.33 A1.36925 1.36925 0 0 1 15.96 406.66 a0.386506 0.386506 -180 0 0 -1.95399E-14 -0.5436
								 A7.8771 7.8771 -180 0 0 15.11 405.53 A5.1624 5.1624 0 0 1 15.69 406.19 a0.267956 0.267956 0 0 1
								 -0.1593 0.3618 A6.33789 6.33789 0 0 1 15.42 406.16 a0.274651 0.274651 -180 0 0 -0.4059 -0.0459 A31.5918
								 31.5918 0 0 1 14.52 405.87 a0.402303 0.402303 0 0 1 -0.0927 -0.405 A3.22421 3.22421 -180 0 0 13.71
								 404.95 a0.312538 0.312538 0 0 1 -0.0882 -0.4275 A2.30443 2.30443 0 0 1 14.12 404.64 A10.1356 10.1356
								 -180 0 0 10.15 403.84 A13.1332 13.1332 -180 0 0 9.77 403.86 A9.05051 9.05051 0 0 1 11.69 404 a0.837324
								 0.837324 0 0 1 -0.5175 0.2178 L10.77 404.29 L11.17 404.44 A2.49637 2.49637 0 0 1 12 405.06 a0.278716
								 0.278716 0 0 1 -0.1035 0.4923 a0.437205 0.437205 0 0 1 -0.1746 0.2754 A6.18927 6.18927 0 0 1 13.97
								 410.61 A6.19691 6.19691 0 0 1 8.17 416.79 A11.9118 11.9118 0 0 1 8.87 417.58 A2.8895 2.8895 0 0
								 1 10.06 417.88 A6.59371 6.59371 -180 0 0 10.38 418.84 A6.42275 6.42275 0 0 1 11.87 419.18 A6.57564
								 6.57564 0 0 1 12.86 419.32 a0.964719 0.964719 0 0 1 0.6057 0.1116 A2.66215 2.66215 0 0 1 12.84 420.51
								 a0.665916 0.665916 -180 0 0 -0.3411 0.6282 a0.847187 0.847187 0 0 1 -0.4023 0.6984 A1.42861 1.42861
								 0 0 1 10.97 422.1 a0.490188 0.490188 -180 0 0 -0.3816 0.4761 A2.62691 2.62691 0 0 1 9.34 423.32
								 A34.4709 34.4709 -180 0 0 8.29 423.88 A9.02313 9.02313 0 0 1 7.09 423.53 A1.15143 1.15143 0 0 1
								 6.82 422.87 A19.2842 19.2842 0 0 1 6.71 421.52 a0.70332 0.70332 -180 0 0 -0.6984 -0.5634 A1.4806
								 1.4806 0 0 1 5.25 420.2 A2.22099 2.22099 -180 0 0 4.68 419.38 A1.98404 1.98404 0 0 1 4.41 418.64
								 A1.24324 1.24324 0 0 1 4.23 418.32 A1.12476 1.12476 0 0 1 4.68 417.65 A1.77461 1.77461 -180 0 0
								 4.87 416.75 a0.70697 0.70697 -180 0 0 0.3834 -0.4815 A6.14944 6.14944 0 0 1 3.9 415.45 A36.1488
								 36.1488 -180 0 0 3.9 415.92 L4.21 416.19 L4.07 416.46 a0.911864 0.911864 0 0 1 -0.6534 -0.6768 A1.41394
								 1.41394 -180 0 0 3.15 414.95 a0.388789 0.388789 0 0 1 -0.3582 -0.1341 A2.58985 2.58985 -180 0 0
								 2.39 414.09 L1.96 414 A3.64363 3.64363 0 0 1 1.5 412.9 A9.17783 9.17783 0 0 1 1.5 409.54 A7.51516
								 7.51516 0 0 1 1.99 408.36 A6.18697 6.18697 0 0 1 2.52 407.31 A10.0872 10.0872 -180 0 0 0 413.99
								 A10.1542 10.1542 -180 0 0 10.15 424.14 A10.1486 10.1486 -180 0 0 20.13 415.81 A1.40465 1.40465 0
								 0 1 19.88 416.5 Z" class="st15"/>
				</g>
				<g id="shape83-161" v:mID="83" v:groupContext="shape" transform="translate(1.9935,-15.7842)">
					<title>Sheet.83</title>
					<path d="M2.26 421.55 A9.69802 9.69802 0 0 1 4.31 420.44 a0.366164 0.366164 -180 0 0 0.1368 0.4752 A1.24459 1.24459
								 0 0 1 5.05 420.44 A2.10241 2.10241 -180 0 0 5.52 420.53 A1.62409 1.62409 0 0 1 5.57 420.2 A6.28486
								 6.28486 -180 0 0 4.5 420.32 A10.1762 10.1762 -180 0 0 0.53 423.1 A6.25451 6.25451 -180 0 0 0 424.14
								 A6.99999 6.99999 0 0 1 2.26 421.55 Z" class="st16"/>
				</g>
				<g id="shape84-164" v:mID="84" v:groupContext="shape" transform="translate(2.33547,-7.362)">
					<title>Sheet.84</title>
					<path d="M8.99 414.14 a0.331938 0.331938 0 0 1 -0.3879 -0.0648 a0.828549 0.828549 -180 0 0 -0.3519 -0.0495 A3.89161
								 3.89161 0 0 1 7.79 413.3 a0.361437 0.361437 0 0 1 0.1953 -0.4635 a0.20473 0.20473 0 0 1 -0.1719
								 -0.2844 a0.899093 0.899093 -180 0 0 -0.9027 -0.4932 a0.28517 0.28517 -180 0 0 -0.3501 0.1827 A11.3028
								 11.3028 0 0 1 6.26 412.25 A1.28301 1.28301 0 0 1 7.25 412.63 A1.16559 1.16559 0 0 1 6.4 413.78 a0.483564
								 0.483564 0 0 1 -0.4977 -0.3834 A1.05418 1.05418 -180 0 0 5.3 413.35 a0.669503 0.669503 0 0 1 -0.6525
								 -0.0207 a0.836989 0.836989 -180 0 0 -0.9036 0.6507 A1.77152 1.77152 0 0 1 4.3 414.61 a0.392608 0.392608
								 -180 0 0 0.0225 0.5202 A1.74847 1.74847 -180 0 0 5.02 414.23 a0.620179 0.620179 0 0 1 0.585 -0.6084
								 A2.42999 2.42999 0 0 1 5.86 414.11 a0.387452 0.387452 0 0 1 0.5868 -0.0243 A23.1259 23.1259 -180
								 0 0 7.01 414.9 A4.94276 4.94276 -180 0 0 7.19 415.78 a0.488612 0.488612 -180 0 0 0.3816 0.1548 a0.813026
								 0.813026 0 0 1 -0.6066 0.2034 a0.906314 0.906314 -180 0 0 -0.3402 -0.5634 A2.91775 2.91775 0 0 1
								 5.74 415.6 A1.03052 1.03052 -180 0 0 5.97 416.29 a0.24826 0.24826 0 0 1 -0.1341 0.4761 a0.641313
								 0.641313 0 0 1 -0.4302 -0.225 A2.2128 2.2128 -180 0 0 4.86 417.04 A1.19173 1.19173 0 0 1 4.3 417.17
								 L3.8 417.67 A1.65299 1.65299 0 0 1 3.11 418.57 a0.916517 0.916517 -180 0 0 -0.5436 0.7209 A1.44588
								 1.44588 0 0 1 2.34 420.26 a0.601051 0.601051 0 0 1 -0.0207 -0.5841 L2.1 419.11 L1.4 418.8 L1.29
								 419 L0.59 418.71 a0.262685 0.262685 -180 0 0 -0.1836 0.2916 A1.33657 1.33657 0 0 1 0.05 419.72 A10.8454
								 10.8454 -180 0 0 0 420.75 A2.28717 2.28717 -180 0 0 0.48 421.09 L0.72 420.78 L1.19 420.8 A1.73503
								 1.73503 -180 0 0 0.86 421.72 A1.39091 1.39091 0 0 1 1.58 422.31 A7.3635 7.3635 -180 0 0 1.56 422.81
								 A6.14944 6.14944 -180 0 0 2.91 423.63 A2.34386 2.34386 -180 0 0 2.95 423.48 L3.51 423.5 a0.281332
								 0.281332 -180 0 0 0.2025 0.3618 A1.28046 1.28046 -180 0 0 4.1 423.55 A3.00004 3.00004 0 0 1 5 424.08
								 a0.57688 0.57688 0 0 1 0.2916 -0.3132 a0.881735 0.881735 0 0 1 0.5418 0.3726 A6.19625 6.19625 -180
								 0 0 11.64 417.96 A6.18927 6.18927 -180 0 0 9.39 413.19 A1.80061 1.80061 0 0 1 9.05 413.41 A1.20535
								 1.20535 0 0 1 8.99 414.14 Z" class="st16"/>
				</g>
				<g id="shape85-167" v:mID="85" v:groupContext="shape" transform="translate(1.35012,-7.6869)">
					<title>Sheet.85</title>
					<path d="M6.18 412.49 a0.0769461 0.0769461 0 0 1 -0.0171 -0.0531 A2.03994 2.03994 0 0 1 5.7 412.34 A1.25377 1.25377
								 -180 0 0 5.09 412.82 a0.366164 0.366164 0 0 1 -0.1368 -0.4752 A9.75284 9.75284 -180 0 0 2.9 413.45
								 A7.16915 7.16915 -180 0 0 0.15 417.23 A9.17963 9.17963 -180 0 0 0.15 420.59 A3.63081 3.63081 -180
								 0 0 0.61 421.69 L1.03 421.78 A2.55435 2.55435 0 0 1 1.44 422.5 a0.389536 0.389536 -180 0 0 0.3582
								 0.1341 A1.41394 1.41394 0 0 1 2.07 423.47 a0.911864 0.911864 -180 0 0 0.6534 0.6768 L2.86 423.87
								 L2.55 423.6 A18.0802 18.0802 0 0 1 2.57 422.63 A1.38665 1.38665 -180 0 0 1.85 422.05 A1.73503 1.73503
								 0 0 1 2.18 421.13 L1.71 421.1 L1.46 421.42 A2.28717 2.28717 0 0 1 0.99 421.08 A10.5552 10.5552 0
								 0 1 1.03 420.05 A1.33047 1.33047 -180 0 0 1.39 419.33 a0.262685 0.262685 0 0 1 0.1836 -0.2916 L2.28
								 419.33 L2.39 419.12 L3.08 419.44 L3.31 420 a0.6035 0.6035 -180 0 0 0.0207 0.5841 A1.44588 1.44588
								 -180 0 0 3.55 419.62 a0.916517 0.916517 0 0 1 0.5436 -0.7209 A1.64854 1.64854 -180 0 0 4.79 418
								 L5.29 417.5 A1.20251 1.20251 -180 0 0 5.85 417.37 A2.2128 2.2128 0 0 1 6.39 416.87 a0.641313 0.641313
								 -180 0 0 0.4302 0.225 a0.24826 0.24826 -180 0 0 0.1341 -0.4761 A1.03052 1.03052 0 0 1 6.73 415.92
								 A2.94912 2.94912 -180 0 0 7.61 415.9 a0.906314 0.906314 0 0 1 0.3402 0.5634 a0.813026 0.813026 -180
								 0 0 0.6066 -0.2034 a0.488612 0.488612 0 0 1 -0.3816 -0.1548 A4.94276 4.94276 0 0 1 7.99 415.23 A24.0714
								 24.0714 0 0 1 7.43 414.42 a0.387452 0.387452 -180 0 0 -0.5868 0.0243 A2.50251 2.50251 -180 0 0 6.6
								 413.95 a0.619574 0.619574 -180 0 0 -0.585 0.6084 A1.74847 1.74847 0 0 1 5.32 415.46 a0.392608 0.392608
								 0 0 1 -0.0225 -0.5202 A1.77152 1.77152 -180 0 0 4.73 414.3 a0.837827 0.837827 0 0 1 0.9036 -0.6507
								 a0.669409 0.669409 -180 0 0 0.6525 0.0207 A1.05418 1.05418 0 0 1 6.89 413.72 a0.483564 0.483564
								 -180 0 0 0.4977 0.3834 A1.16535 1.16535 -180 0 0 8.24 412.95 A1.2795 1.2795 -180 0 0 7.25 412.58
								 A3.61812 3.61812 0 0 1 6.18 412.49 Z" class="st17"/>
				</g>
				<g id="shape86-170" v:mID="86" v:groupContext="shape" transform="translate(4.2282,-0.2592)">
					<title>Sheet.86</title>
					<path d="M8.63 419.58 A6.56066 6.56066 -180 0 0 7.64 419.44 A6.42275 6.42275 -180 0 0 6.15 419.1 A6.7089 6.7089
								 0 0 1 5.84 418.14 A2.8895 2.8895 -180 0 0 4.64 417.84 A4.11392 4.11392 -180 0 0 3.4 416.67 a0.57688
								 0.57688 -180 0 0 -0.2916 0.3132 A3.01883 3.01883 -180 0 0 2.21 416.45 A1.29417 1.29417 0 0 1 1.83
								 416.76 a0.282307 0.282307 0 0 1 -0.2025 -0.3618 L1.06 416.38 a0.870906 0.870906 0 0 1 -0.4257 0.6291
								 A1.77461 1.77461 0 0 1 0.45 417.91 A1.12476 1.12476 -180 0 0 0 418.59 A1.26345 1.26345 -180 0 0
								 0.19 418.9 A1.98404 1.98404 -180 0 0 0.45 419.65 A2.22099 2.22099 0 0 1 1.02 420.46 A1.481 1.481
								 -180 0 0 1.78 421.22 a0.702648 0.702648 0 0 1 0.6984 0.5634 A19.2842 19.2842 -180 0 0 2.59 423.13
								 A1.14912 1.14912 -180 0 0 2.86 423.79 A8.88815 8.88815 -180 0 0 4.06 424.14 A34.4709 34.4709 0 0
								 1 5.12 423.58 A2.62691 2.62691 -180 0 0 6.35 422.84 a0.489177 0.489177 0 0 1 0.3816 -0.4761 A1.42159
								 1.42159 -180 0 0 7.86 422.1 a0.847187 0.847187 -180 0 0 0.4023 -0.6984 a0.664578 0.664578 0 0 1
								 0.3411 -0.6282 A2.66825 2.66825 -180 0 0 9.23 419.69 a0.949115 0.949115 -180 0 0 -0.6048 -0.1134
								 Z" class="st18"/>
				</g>
				<g id="shape87-173" v:mID="87" v:groupContext="shape" transform="translate(16.5492,-7.6401)">
					<title>Sheet.87</title>
					<path d="M3.72 420.85 A10.6372 10.6372 -180 0 0 3.6 419.88 L3.03 417.88 A9.35038 9.35038 -180 0 0 2.95 417.66
								 L2.61 417 L2.41 417.16 L2.34 417.56 a0.799792 0.799792 0 0 1 -0.5607 -0.0198 a0.83087 0.83087 -180
								 0 0 -0.4275 -0.7002 A4.55747 4.55747 0 0 1 0.78 417.77 a0.318713 0.318713 -180 0 0 -0.4248 0.2934
								 A9.20833 9.20833 0 0 1 0.4 418.83 A6.15648 6.15648 -180 0 0 0 420.49 A11.6 11.6 0 0 1 0.22 421.64
								 A1.12371 1.12371 -180 0 0 0.27 422.79 a0.811174 0.811174 0 0 1 0.5652 0.4266 a0.640179 0.640179
								 -180 0 0 0.4293 0.5409 A3.09937 3.09937 -180 0 0 1.98 423.38 A3.39287 3.39287 0 0 1 2.57 422.61
								 a0.343046 0.343046 0 0 1 0.2916 0.1809 L3.19 422.66 L3.13 423.31 A2.70924 2.70924 -180 0 0 3.33
								 424.14 A1.40465 1.40465 -180 0 0 3.58 423.45 A9.50223 9.50223 -180 0 0 3.72 422.41 L3.72 420.85
								 L3.72 420.85 Z" class="st19"/>
				</g>
				<g id="shape88-176" v:mID="88" v:groupContext="shape" transform="translate(13.5735,-14.2215)">
					<title>Sheet.88</title>
					<path d="M0.14 419.17 A3.2765 3.2765 0 0 1 0.86 419.69 a0.397626 0.397626 -180 0 0 0.0927 0.405 A24.8975 24.8975
								 -180 0 0 1.45 420.34 a0.273704 0.273704 0 0 1 0.4059 0.0477 A6.60479 6.60479 -180 0 0 1.96 420.77
								 a0.267956 0.267956 -180 0 0 0.1593 -0.3618 A5.1624 5.1624 -180 0 0 1.53 419.76 A7.8771 7.8771 0
								 0 1 2.39 420.34 a0.386393 0.386393 0 0 1 2.22045E-15 0.5436 A1.36925 1.36925 -180 0 0 2.59 421.55
								 L2.3 422.08 A1.41689 1.41689 0 0 1 2.89 422.8 a0.755203 0.755203 -180 0 0 -0.5202 0.1791 A5.27012
								 5.27012 -180 0 0 2.66 423.7 a0.500835 0.500835 -180 0 0 0.6318 0.4266 a0.572672 0.572672 -180 0
								 0 0.2223 -0.6075 A13.7773 13.7773 -180 0 0 3.34 422.89 A1.09533 1.09533 0 0 1 3.47 422.42 A1.27524
								 1.27524 -180 0 0 4.26 422.75 A2.47681 2.47681 -180 0 0 4.53 421.9 a0.457656 0.457656 -180 0 0 -0.0252
								 -0.0306 A106.052 106.052 -180 0 0 2.77 420.18 A10.2186 10.2186 -180 0 0 0.55 418.86 A2.29228 2.29228
								 -180 0 0 0.05 418.74 a0.312029 0.312029 -180 0 0 0.0873 0.4275 Z" class="st17"/>
				</g>
				<g id="shape89-179" v:mID="89" v:groupContext="shape" transform="translate(7.5168,-17.3285)">
					<title>Sheet.89</title>
					<path d="M-0 422.08 A65.2082 65.2082 0 0 1 1.08 422.22 A11.3028 11.3028 -180 0 0 1.39 422.21 a0.28517 0.28517
								 0 0 1 0.3501 -0.1827 a0.899093 0.899093 0 0 1 0.9027 0.4932 a0.205412 0.205412 -180 0 0 0.1719 0.2844
								 L2.83 422.79 a0.0833397 0.0833397 0 0 1 -0.0234 0.0153 a0.362204 0.362204 -180 0 0 -0.1953 0.4635
								 A3.89161 3.89161 -180 0 0 3.07 423.99 a0.813667 0.813667 0 0 1 0.3519 0.0495 a0.330569 0.330569
								 -180 0 0 0.3879 0.0648 A1.19762 1.19762 -180 0 0 3.87 423.39 a0.924601 0.924601 -180 0 0 0.5139
								 -0.504 a0.278472 0.278472 -180 0 0 0.1035 -0.4923 A2.50147 2.50147 -180 0 0 3.66 421.77 L3.26 421.61
								 L3.66 421.55 a0.84245 0.84245 -180 0 0 0.5175 -0.2178 A9.05051 9.05051 -180 0 0 2.26 421.18 A10.7533
								 10.7533 -180 0 0 1.74 421.21 L0.23 421.47 A4.80847 4.80847 -180 0 0 0.02 421.52 A1.37062 1.37062
								 0 0 1 0 422.08 Z" class="st20"/>
				</g>
			</g>
			<g id="shape90-182" v:mID="90" v:groupContext="shape" transform="translate(8.00467,-13.1239)">
				<title>Sheet.90</title>
				<path d="M10.56 403.02 A10.5288 10.5288 -180 0 0 3.1 406.12 A10.5276 10.5276 -180 0 0 0 413.58 A10.526 10.526 -180
							 0 0 3.1 421.05 A10.5296 10.5296 -180 0 0 10.56 424.14 A10.5296 10.5296 -180 0 0 18.03 421.05 A10.526
							 10.526 -180 0 0 21.12 413.58 A10.5276 10.5276 -180 0 0 18.03 406.12 A10.5288 10.5288 -180 0 0 10.56
							 403.02 ZM10.56 423.69 A10.081 10.081 0 0 1 3.41 420.73 A10.0773 10.0773 0 0 1 0.45 413.59 A10.0788 10.0788
							 0 0 1 3.41 406.44 A10.0804 10.0804 0 0 1 10.56 403.47 A10.0804 10.0804 0 0 1 17.71 406.44 A10.0788 10.0788
							 0 0 1 20.67 413.59 A10.0773 10.0773 0 0 1 17.71 420.73 A10.081 10.081 0 0 1 10.56 423.69 Z"
						class="st21"/>
			</g>
			<g id="shape91-184" v:mID="91" v:groupContext="shape" transform="translate(2.61457,-6.02106)">
				<title>Sheet.91</title>
				<path d="M0 379.49 L0 424.14 L65.55 424.14 L65.55 379.49 L0 379.49 Z" class="st22"/>
			</g>
			<g id="shape92-186" v:mID="92" v:groupContext="shape" transform="translate(35.0605,-17.0623)">
				<title>Sheet.92</title>
				<path d="M0.45 423.24 L28.02 423.24 a0.449588 0.449588 0 0 1 0.45 0.45 a0.450742 0.450742 0 0 1 -0.45 0.45 L0.45
							 424.14 a0.450742 0.450742 0 0 1 -0.45 -0.45 a0.449588 0.449588 0 0 1 0.45 -0.45 ZM0.45 417.36 L28.02
							 417.36 a0.450742 0.450742 0 0 1 0.45 0.45 a0.449588 0.449588 0 0 1 -0.45 0.45 L0.45 418.26 a0.449588
							 0.449588 0 0 1 -0.45 -0.45 a0.450742 0.450742 0 0 1 0.45 -0.45 ZM0.45 411.47 L28.02 411.47 a0.449588
							 0.449588 0 0 1 0.45 0.45 a0.450742 0.450742 0 0 1 -0.45 0.45 L0.45 412.37 a0.450742 0.450742 0 0 1 -0.45
							 -0.45 a0.449588 0.449588 0 0 1 0.45 -0.45 Z" class="st21"/>
			</g>
		</g>
		<g id="shape93-188" v:mID="93" v:groupContext="shape" v:layerMember="0" transform="translate(149.951,-350.647)">
			<title>Dynamic connector.93</title>
			<path d="M0 424.14 L0 530.79 L15.35 530.79 A2.3622 2.3622 0 1 1 20.08 530.79 L53.2 530.79" class="st23"/>
		</g>
		<g id="shape94-193" v:mID="94" v:groupContext="shape" v:layerMember="0" transform="translate(167.667,-350.647)">
			<title>Dynamic connector.94</title>
			<path d="M0 424.14 L0 617.25 L34.06 617.25" class="st23"/>
		</g>
		<g id="shape95-198" v:mID="95" v:groupContext="shape" transform="translate(0.25,-397.067)">
			<title>Sheet.95</title>
			<desc>App Frontend</desc>
			<v:textBlock v:margins="rect(4,4,4,4)" v:tabSpace="42.5197"/>
			<v:textRect cx="39.4173" cy="414.144" width="78.84" height="20"/>
			<rect x="0" y="404.144" width="78.8346" height="20" class="st25"/>
			<text x="5.82" y="417.74" class="st26" v:langID="1044"><v:paragraph v:horizAlign="1"/><v:tabList/>App Frontend</text>		</g>
		<g id="group97-201" transform="translate(631.693,-354.4)" v:mID="97" v:groupContext="group">
			<v:custProps>
				<v:cp v:nameU="AssetNumber" v:lbl="Asset Number" v:prompt="" v:type="0" v:format="" v:sortKey="Asset"
						v:invis="false" v:ask="false" v:langID="1033" v:cal="0"/>
				<v:cp v:nameU="SerialNumber" v:lbl="Serial Number" v:prompt="" v:type="0" v:format="" v:sortKey="Asset"
						v:invis="false" v:ask="false" v:langID="1033" v:cal="0"/>
				<v:cp v:nameU="Location" v:lbl="Location" v:prompt="" v:type="0" v:format="" v:sortKey="Asset" v:invis="false"
						v:ask="false" v:langID="1033" v:cal="0"/>
				<v:cp v:nameU="Building" v:lbl="Building" v:prompt="" v:type="0" v:format="" v:sortKey="Asset" v:invis="false"
						v:ask="false" v:langID="1033" v:cal="0"/>
				<v:cp v:nameU="Room" v:lbl="Room" v:prompt="" v:type="0" v:format="" v:sortKey="Asset" v:invis="false"
						v:ask="false" v:langID="1033" v:cal="0"/>
				<v:cp v:nameU="Manufacturer" v:lbl="Manufacturer" v:prompt="" v:type="0" v:format="" v:sortKey="Equipment"
						v:invis="false" v:ask="false" v:langID="1033" v:cal="0"/>
				<v:cp v:nameU="ProductNumber" v:lbl="Product Number" v:prompt="" v:type="0" v:format="" v:sortKey="Equipment"
						v:invis="false" v:ask="false" v:langID="1033" v:cal="0"/>
				<v:cp v:nameU="PartNumber" v:lbl="Part Number" v:prompt="" v:type="0" v:format="" v:sortKey="Equipment"
						v:invis="false" v:ask="false" v:langID="1033" v:cal="0"/>
				<v:cp v:nameU="ProductDescription" v:lbl="Product Description" v:prompt="" v:type="0" v:format=""
						v:sortKey="Equipment" v:invis="false" v:ask="false" v:langID="1033" v:cal="0"/>
				<v:cp v:nameU="NetworkName" v:lbl="Network Name" v:prompt="" v:type="0" v:format="" v:sortKey="Network"
						v:invis="false" v:ask="false" v:langID="1033" v:cal="0"/>
				<v:cp v:nameU="IPAddress" v:lbl="IP Address" v:prompt="" v:type="0" v:format="" v:sortKey="Network" v:invis="false"
						v:ask="false" v:langID="1033" v:cal="0"/>
				<v:cp v:nameU="SubnetMask" v:lbl="Subnet Mask" v:prompt="" v:type="0" v:format="" v:sortKey="Network"
						v:invis="false" v:ask="false" v:langID="1033" v:cal="0"/>
				<v:cp v:nameU="AdminInterface" v:lbl="Administrative Interface" v:prompt="" v:type="0" v:format=""
						v:sortKey="Network" v:invis="false" v:ask="false" v:langID="1033" v:cal="0"/>
				<v:cp v:nameU="NumberofPorts" v:lbl="Number of Ports" v:prompt="" v:type="0" v:format="" v:sortKey="Network"
						v:invis="false" v:ask="false" v:langID="1033" v:cal="0"/>
				<v:cp v:nameU="CommunityString" v:lbl="Community String" v:prompt="" v:type="0" v:format="" v:sortKey="Network"
						v:invis="false" v:ask="false" v:langID="1033" v:cal="0"/>
				<v:cp v:nameU="NetworkDescription" v:lbl="Network Description" v:prompt="" v:type="0" v:format=""
						v:sortKey="Network" v:invis="false" v:ask="false" v:langID="1033" v:cal="0"/>
				<v:cp v:nameU="MACAddress" v:lbl="MAC Address" v:prompt="" v:type="0" v:format="" v:sortKey="Network"
						v:invis="false" v:ask="false" v:langID="1033" v:cal="0"/>
				<v:cp v:nameU="CPU" v:lbl="CPU" v:prompt="" v:type="0" v:format="" v:sortKey="Workstation" v:invis="false"
						v:ask="false" v:langID="1033" v:cal="0"/>
				<v:cp v:nameU="Memory" v:lbl="Memory" v:prompt="" v:type="0" v:format="" v:sortKey="Workstation" v:invis="false"
						v:ask="false" v:langID="1033" v:cal="0"/>
				<v:cp v:nameU="OperatingSystem" v:lbl="Operating System" v:prompt="" v:type="0" v:format="" v:sortKey="Workstation"
						v:invis="false" v:ask="false" v:langID="1033" v:cal="0"/>
				<v:cp v:nameU="HardDriveSize" v:lbl="Hard Drive Capacity" v:prompt="" v:type="0" v:format=""
						v:sortKey="Workstation" v:invis="false" v:ask="false" v:langID="1033" v:cal="0"/>
				<v:cp v:nameU="Department" v:lbl="Department" v:prompt="" v:type="0" v:format="" v:sortKey="" v:invis="false"
						v:ask="false" v:langID="1033" v:cal="0"/>
				<v:cp v:nameU="ShapeClass" v:lbl="ShapeClass" v:prompt="" v:type="0" v:format="" v:sortKey="" v:invis="true"
						v:ask="false" v:langID="1033" v:cal="0" v:val="VT4(Equipment)"/>
				<v:cp v:nameU="ShapeType" v:lbl="ShapeType" v:prompt="" v:type="0" v:format="" v:sortKey="" v:invis="true"
						v:ask="false" v:langID="1033" v:cal="0" v:val="VT4(Server)"/>
				<v:cp v:nameU="BelongsTo" v:lbl="Belongs To" v:prompt="" v:type="0" v:format="" v:sortKey="" v:invis="true"
						v:ask="false" v:langID="1033" v:cal="0"/>
			</v:custProps>
			<v:userDefs>
				<v:ud v:nameU="visVersion" v:prompt="" v:val="VT0(15):26"/>
				<v:ud v:nameU="ShapeClass" v:prompt="" v:val="VT0(5):26"/>
				<v:ud v:nameU="SolSH" v:prompt="" v:val="VT15({BF0433D9-CD73-4EB5-8390-8653BE590246}):41"/>
				<v:ud v:nameU="visLegendShape" v:prompt="" v:val="VT0(2):26"/>
			</v:userDefs>
			<title>Server</title>
			<g id="shape98-202" v:mID="98" v:groupContext="shape" transform="translate(7.20205,5.68434E-14)">
				<title>Sheet.98</title>
				<rect x="0" y="384.312" width="25.428" height="39.8321" class="st1"/>
			</g>
			<g id="shape99-204" v:mID="99" v:groupContext="shape" transform="translate(26.2068,-17.0035)">
				<title>Sheet.99</title>
				<ellipse cx="1.53712" cy="422.607" rx="1.53712" ry="1.53712" class="st27"/>
			</g>
			<g id="shape100-206" v:mID="100" v:groupContext="shape" transform="translate(16.8789,-6.52929)">
				<title>Sheet.100</title>
				<v:userDefs>
					<v:ud v:nameU="SurroundingRegionColor" v:prompt="" v:val="VT5(1)"/>
					<v:ud v:nameU="SurroundingRegionColor" v:prompt="" v:val="VT5(#4672c4)"/>
				</v:userDefs>
				<path d="M-0 424.14 L12.4 424.14 L12.4 423.15 L-0 423.15 L-0 424.14 ZM-0 421.12 L12.4 421.12 L12.4 420.13 L-0 420.13
							 L-0 421.12 ZM-0 418.1 L12.4 418.1 L12.4 417.11 L-0 417.11 L-0 418.1 Z" class="st6"/>
			</g>
		</g>
		<g id="shape101-209" v:mID="101" v:groupContext="shape" v:layerMember="0" transform="translate(651.61,-354.4)">
			<title>Dynamic connector.101</title>
			<path d="M0 424.14 L0 534.55 L-7.6 534.55 A2.3622 2.3622 -180 0 0 -12.32 534.55 L-81.89 534.55 A2.3622 2.3622 -180 0
						 0 -86.62 534.55 L-174.69 534.55 A2.3622 2.3622 -180 1 0 -179.42 534.55 L-235.96 534.55" class="st23"/>
		</g>
		<g id="shape102-214" v:mID="102" v:groupContext="shape" v:layerMember="0" transform="translate(641.651,-354.4)">
			<title>Dynamic connector.102</title>
			<path d="M0 424.14 L0 621 L-227.42 621" class="st23"/>
		</g>
		<g id="shape103-219" v:mID="103" v:groupContext="shape" transform="translate(99.8091,-397.067)">
			<title>Sheet.103</title>
			<desc>External Portal</desc>
			<v:textBlock v:margins="rect(4,4,4,4)" v:tabSpace="42.5197"/>
			<v:textRect cx="49.6063" cy="414.144" width="99.22" height="20"/>
			<rect x="0" y="404.144" width="99.2126" height="20" class="st25"/>
			<text x="13.61" y="417.74" class="st26" v:langID="1044"><v:paragraph v:horizAlign="1"/><v:tabList/>External Portal</text>		</g>
		<g id="shape105-222" v:mID="105" v:groupContext="shape" transform="translate(441.993,-399.744)">
			<title>Sheet.105</title>
			<desc>Mobile App</desc>
			<v:textBlock v:margins="rect(4,4,4,4)" v:tabSpace="42.5197"/>
			<v:textRect cx="42.5197" cy="414.144" width="85.04" height="20"/>
			<rect x="0" y="404.144" width="85.0394" height="20" class="st25"/>
			<text x="14.2" y="417.74" class="st26" v:langID="1044"><v:paragraph v:horizAlign="1"/><v:tabList/>Mobile App</text>		</g>
		<g id="shape107-225" v:mID="107" v:groupContext="shape" transform="translate(526.959,-399.744)">
			<title>Sheet.107</title>
			<desc>End User System</desc>
			<v:textBlock v:margins="rect(4,4,4,4)" v:tabSpace="42.5197"/>
			<v:textRect cx="42.5197" cy="414.144" width="85.04" height="20"/>
			<rect x="0" y="404.144" width="85.0394" height="20" class="st25"/>
			<text x="20.66" y="410.54" class="st26" v:langID="1044"><v:paragraph v:horizAlign="1"/><v:tabList/>End User <tspan
						x="24.91" dy="1.2em" class="st28">System</tspan></text>		</g>
		<g id="shape108-229" v:mID="108" v:groupContext="shape" transform="translate(575.683,-399.744)">
			<title>Sheet.108</title>
			<desc>Agency System</desc>
			<v:textBlock v:margins="rect(4,4,4,4)" v:tabSpace="42.5197"/>
			<v:textRect cx="76" cy="414.144" width="152" height="20"/>
			<rect x="0" y="404.144" width="152" height="20" class="st25"/>
			<text x="39.35" y="417.74" class="st26" v:langID="1044"><v:paragraph v:horizAlign="1"/><v:tabList/>Agency System</text>		</g>
		<g id="shape110-232" v:mID="110" v:groupContext="shape" v:layerMember="0" transform="translate(300.896,-85.2557)">
			<title>Dynamic connector.110</title>
			<path d="M7.09 424.14 L7.09 445.49" class="st23"/>
		</g>
	</g>
</svg>
