<?xml version="1.0" encoding="UTF-8" standalone="no"?>
<!DOCTYPE svg PUBLIC "-//W3C//DTD SVG 1.1//EN" "http://www.w3.org/Graphics/SVG/1.1/DTD/svg11.dtd">
<!-- Generated by Microsoft Visio, SVG Export conceptual_model.svg Page-1 -->
<svg xmlns="http://www.w3.org/2000/svg" xmlns:xlink="http://www.w3.org/1999/xlink" xmlns:ev="http://www.w3.org/2001/xml-events"
		xmlns:v="http://schemas.microsoft.com/visio/2003/SVGExtensions/" width="16.9361in" height="9.70442in"
		viewBox="0 0 1219.4 698.718" xml:space="preserve" color-interpolation-filters="sRGB" class="st9">
	<v:documentProperties v:langID="1033" v:metric="true" v:viewMarkup="false"/>

	<style type="text/css">
	<![CDATA[
		.st1 {fill:#595959;stroke:#c7c8c8;stroke-width:0.25}
		.st2 {fill:#feffff;font-family:Calibri;font-size:0.833336em}
		.st3 {fill:#4672c4;stroke:#c7c8c8;stroke-width:0.25}
		.st4 {marker-end:url(#mrkr4-30);stroke:#4672c4;stroke-linecap:round;stroke-linejoin:round;stroke-width:1}
		.st5 {fill:#4672c4;fill-opacity:1;stroke:#4672c4;stroke-opacity:1;stroke-width:0.28409090909091}
		.st6 {fill:#ffffff;stroke:none;stroke-linecap:butt;stroke-width:7.2}
		.st7 {fill:#3c63ac;font-family:Calibri;font-size:0.666664em}
		.st8 {fill:#ffffff;stroke:none;stroke-linecap:butt}
		.st9 {fill:none;fill-rule:evenodd;font-size:12px;overflow:visible;stroke-linecap:square;stroke-miterlimit:3}
	]]>
	</style>

	<defs id="Markers">
		<g id="lend4">
			<path d="M 2 1 L 0 0 L 2 -1 L 2 1 " style="stroke:none"/>
		</g>
		<marker id="mrkr4-30" class="st5" v:arrowType="4" v:arrowSize="2" v:setback="7.04" refX="-7.04" orient="auto"
				markerUnits="strokeWidth" overflow="visible">
			<use xlink:href="#lend4" transform="scale(-3.52,-3.52) "/>
		</marker>
	</defs>
	<g v:mID="0" v:index="1" v:groupContext="foregroundPage">
		<title>Page-1</title>
		<v:pageProperties v:drawingScale="0.0393701" v:pageScale="0.0393701" v:drawingUnits="24" v:shadowOffsetX="8.50394"
				v:shadowOffsetY="-8.50394"/>
		<v:layer v:name="Connector" v:index="0"/>
		<g id="shape9-1" v:mID="9" v:groupContext="shape" transform="translate(380.092,-368.456)">
			<title>Rectangle</title>
			<desc>Party</desc>
			<v:userDefs>
				<v:ud v:nameU="visVersion" v:val="VT0(15):26"/>
			</v:userDefs>
			<v:textBlock v:margins="rect(4,4,4,4)" v:tabSpace="42.5197"/>
			<v:textRect cx="163.913" cy="627.852" width="327.83" height="141.732"/>
			<rect x="0" y="556.986" width="327.827" height="141.732" class="st1"/>
			<text x="153.25" y="630.85" class="st2" v:langID="1044"><v:paragraph v:horizAlign="1"/><v:tabList/>Party</text>		</g>
		<g id="shape3-4" v:mID="3" v:groupContext="shape" transform="translate(895.998,-396.802)">
			<title>Rounded Rectangle</title>
			<desc>Instance</desc>
			<v:userDefs>
				<v:ud v:nameU="CTypeTopLeftSnip" v:prompt="" v:val="VT0(0):5"/>
				<v:ud v:nameU="CTypeTopRightSnip" v:prompt="" v:val="VT0(0):5"/>
				<v:ud v:nameU="CTypeBotLeftSnip" v:prompt="" v:val="VT0(0):5"/>
				<v:ud v:nameU="CTypeBotRightSnip" v:prompt="" v:val="VT0(0):5"/>
				<v:ud v:nameU="CornerLockHoriz" v:prompt="" v:val="VT0(1):5"/>
				<v:ud v:nameU="CornerLockVert" v:prompt="" v:val="VT0(1):5"/>
				<v:ud v:nameU="CornerLockDiag" v:prompt="" v:val="VT0(0):5"/>
				<v:ud v:nameU="TopLeftOffset" v:prompt="" v:val="VT0(0.15748031496063):24"/>
				<v:ud v:nameU="TopRightOffset" v:prompt="" v:val="VT0(0.15748031496063):24"/>
				<v:ud v:nameU="BotLeftOffset" v:prompt="" v:val="VT0(0.15748031496063):24"/>
				<v:ud v:nameU="BotRightOffset" v:prompt="" v:val="VT0(0.15748031496063):24"/>
				<v:ud v:nameU="visVersion" v:prompt="" v:val="VT0(15):26"/>
			</v:userDefs>
			<v:textBlock v:margins="rect(4,4,4,4)" v:tabSpace="42.5197"/>
			<v:textRect cx="56.6929" cy="656.198" width="113.39" height="85.0394"/>
			<path d="M11.34 698.72 L102.05 698.72 A11.3384 11.3384 -180 0 0 113.39 687.38 L113.39 625.02 A11.3384 11.3384 -180 0
						 0 102.05 613.68 L11.34 613.68 A11.3384 11.3384 -180 0 0 0 625.02 L0 687.38 A11.3384 11.3384 -180 0 0 11.34
						 698.72 Z" class="st3"/>
			<text x="39.55" y="659.2" class="st2" v:langID="1044"><v:paragraph v:horizAlign="1"/><v:tabList/>Instance</text>		</g>
		<g id="shape4-7" v:mID="4" v:groupContext="shape" transform="translate(714.581,-161.526)">
			<title>Rounded Rectangle.4</title>
			<desc>App</desc>
			<v:userDefs>
				<v:ud v:nameU="CTypeTopLeftSnip" v:prompt="" v:val="VT0(0):5"/>
				<v:ud v:nameU="CTypeTopRightSnip" v:prompt="" v:val="VT0(0):5"/>
				<v:ud v:nameU="CTypeBotLeftSnip" v:prompt="" v:val="VT0(0):5"/>
				<v:ud v:nameU="CTypeBotRightSnip" v:prompt="" v:val="VT0(0):5"/>
				<v:ud v:nameU="CornerLockHoriz" v:prompt="" v:val="VT0(1):5"/>
				<v:ud v:nameU="CornerLockVert" v:prompt="" v:val="VT0(1):5"/>
				<v:ud v:nameU="CornerLockDiag" v:prompt="" v:val="VT0(0):5"/>
				<v:ud v:nameU="TopLeftOffset" v:prompt="" v:val="VT0(0.15748031496063):24"/>
				<v:ud v:nameU="TopRightOffset" v:prompt="" v:val="VT0(0.15748031496063):24"/>
				<v:ud v:nameU="BotLeftOffset" v:prompt="" v:val="VT0(0.15748031496063):24"/>
				<v:ud v:nameU="BotRightOffset" v:prompt="" v:val="VT0(0.15748031496063):24"/>
				<v:ud v:nameU="visVersion" v:prompt="" v:val="VT0(15):26"/>
			</v:userDefs>
			<v:textBlock v:margins="rect(4,4,4,4)" v:tabSpace="42.5197"/>
			<v:textRect cx="56.6929" cy="656.198" width="113.39" height="85.0394"/>
			<path d="M11.34 698.72 L102.05 698.72 A11.3384 11.3384 -180 0 0 113.39 687.38 L113.39 625.02 A11.3384 11.3384 -180 0
						 0 102.05 613.68 L11.34 613.68 A11.3384 11.3384 -180 0 0 0 625.02 L0 687.38 A11.3384 11.3384 -180 0 0 11.34
						 698.72 Z" class="st3"/>
			<text x="48.55" y="659.2" class="st2" v:langID="1044"><v:paragraph v:horizAlign="1"/><v:tabList/>App</text>		</g>
		<g id="shape5-10" v:mID="5" v:groupContext="shape" transform="translate(482.14,-161.526)">
			<title>Rounded Rectangle.5</title>
			<desc>Org</desc>
			<v:userDefs>
				<v:ud v:nameU="CTypeTopLeftSnip" v:prompt="" v:val="VT0(0):5"/>
				<v:ud v:nameU="CTypeTopRightSnip" v:prompt="" v:val="VT0(0):5"/>
				<v:ud v:nameU="CTypeBotLeftSnip" v:prompt="" v:val="VT0(0):5"/>
				<v:ud v:nameU="CTypeBotRightSnip" v:prompt="" v:val="VT0(0):5"/>
				<v:ud v:nameU="CornerLockHoriz" v:prompt="" v:val="VT0(1):5"/>
				<v:ud v:nameU="CornerLockVert" v:prompt="" v:val="VT0(1):5"/>
				<v:ud v:nameU="CornerLockDiag" v:prompt="" v:val="VT0(0):5"/>
				<v:ud v:nameU="TopLeftOffset" v:prompt="" v:val="VT0(0.15748031496063):24"/>
				<v:ud v:nameU="TopRightOffset" v:prompt="" v:val="VT0(0.15748031496063):24"/>
				<v:ud v:nameU="BotLeftOffset" v:prompt="" v:val="VT0(0.15748031496063):24"/>
				<v:ud v:nameU="BotRightOffset" v:prompt="" v:val="VT0(0.15748031496063):24"/>
				<v:ud v:nameU="visVersion" v:prompt="" v:val="VT0(15):26"/>
			</v:userDefs>
			<v:textBlock v:margins="rect(4,4,4,4)" v:tabSpace="42.5197"/>
			<v:textRect cx="56.6929" cy="656.198" width="113.39" height="85.0394"/>
			<path d="M11.34 698.72 L102.05 698.72 A11.3384 11.3384 -180 0 0 113.39 687.38 L113.39 625.02 A11.3384 11.3384 -180 0
						 0 102.05 613.68 L11.34 613.68 A11.3384 11.3384 -180 0 0 0 625.02 L0 687.38 A11.3384 11.3384 -180 0 0 11.34
						 698.72 Z" class="st3"/>
			<text x="49.29" y="659.2" class="st2" v:langID="1044"><v:paragraph v:horizAlign="1"/><v:tabList/>Org</text>		</g>
		<g id="shape6-13" v:mID="6" v:groupContext="shape" transform="translate(714.581,-0.25)">
			<title>Rounded Rectangle.6</title>
			<desc>Authorization Rules</desc>
			<v:userDefs>
				<v:ud v:nameU="CTypeTopLeftSnip" v:prompt="" v:val="VT0(0):5"/>
				<v:ud v:nameU="CTypeTopRightSnip" v:prompt="" v:val="VT0(0):5"/>
				<v:ud v:nameU="CTypeBotLeftSnip" v:prompt="" v:val="VT0(0):5"/>
				<v:ud v:nameU="CTypeBotRightSnip" v:prompt="" v:val="VT0(0):5"/>
				<v:ud v:nameU="CornerLockHoriz" v:prompt="" v:val="VT0(1):5"/>
				<v:ud v:nameU="CornerLockVert" v:prompt="" v:val="VT0(1):5"/>
				<v:ud v:nameU="CornerLockDiag" v:prompt="" v:val="VT0(0):5"/>
				<v:ud v:nameU="TopLeftOffset" v:prompt="" v:val="VT0(0.15748031496063):24"/>
				<v:ud v:nameU="TopRightOffset" v:prompt="" v:val="VT0(0.15748031496063):24"/>
				<v:ud v:nameU="BotLeftOffset" v:prompt="" v:val="VT0(0.15748031496063):24"/>
				<v:ud v:nameU="BotRightOffset" v:prompt="" v:val="VT0(0.15748031496063):24"/>
				<v:ud v:nameU="visVersion" v:prompt="" v:val="VT0(15):26"/>
			</v:userDefs>
			<v:textBlock v:margins="rect(4,4,4,4)" v:tabSpace="42.5197"/>
			<v:textRect cx="56.6929" cy="656.198" width="113.39" height="85.0394"/>
			<path d="M11.34 698.72 L102.05 698.72 A11.3384 11.3384 -180 0 0 113.39 687.38 L113.39 625.02 A11.3384 11.3384 -180 0
						 0 102.05 613.68 L11.34 613.68 A11.3384 11.3384 -180 0 0 0 625.02 L0 687.38 A11.3384 11.3384 -180 0 0 11.34
						 698.72 Z" class="st3"/>
			<text x="16.82" y="659.2" class="st2" v:langID="1044"><v:paragraph v:horizAlign="1"/><v:tabList/>Authorization Rules</text>		</g>
		<g id="shape7-16" v:mID="7" v:groupContext="shape" transform="translate(952.691,-73.6524)">
			<title>Rounded Rectangle.7</title>
			<desc>Process</desc>
			<v:userDefs>
				<v:ud v:nameU="CTypeTopLeftSnip" v:prompt="" v:val="VT0(0):5"/>
				<v:ud v:nameU="CTypeTopRightSnip" v:prompt="" v:val="VT0(0):5"/>
				<v:ud v:nameU="CTypeBotLeftSnip" v:prompt="" v:val="VT0(0):5"/>
				<v:ud v:nameU="CTypeBotRightSnip" v:prompt="" v:val="VT0(0):5"/>
				<v:ud v:nameU="CornerLockHoriz" v:prompt="" v:val="VT0(1):5"/>
				<v:ud v:nameU="CornerLockVert" v:prompt="" v:val="VT0(1):5"/>
				<v:ud v:nameU="CornerLockDiag" v:prompt="" v:val="VT0(0):5"/>
				<v:ud v:nameU="TopLeftOffset" v:prompt="" v:val="VT0(0.15748031496063):24"/>
				<v:ud v:nameU="TopRightOffset" v:prompt="" v:val="VT0(0.15748031496063):24"/>
				<v:ud v:nameU="BotLeftOffset" v:prompt="" v:val="VT0(0.15748031496063):24"/>
				<v:ud v:nameU="BotRightOffset" v:prompt="" v:val="VT0(0.15748031496063):24"/>
				<v:ud v:nameU="visVersion" v:prompt="" v:val="VT0(15):26"/>
			</v:userDefs>
			<v:textBlock v:margins="rect(4,4,4,4)" v:tabSpace="42.5197"/>
			<v:textRect cx="56.6929" cy="656.198" width="113.39" height="85.0394"/>
			<path d="M11.34 698.72 L102.05 698.72 A11.3384 11.3384 -180 0 0 113.39 687.38 L113.39 625.02 A11.3384 11.3384 -180 0
						 0 102.05 613.68 L11.34 613.68 A11.3384 11.3384 -180 0 0 0 625.02 L0 687.38 A11.3384 11.3384 -180 0 0 11.34
						 698.72 Z" class="st3"/>
			<text x="41.22" y="659.2" class="st2" v:langID="1044"><v:paragraph v:horizAlign="1"/><v:tabList/>Process</text>		</g>
		<g id="shape8-19" v:mID="8" v:groupContext="shape" transform="translate(402.77,-396.802)">
			<title>Rounded Rectangle.8</title>
			<desc>Organization</desc>
			<v:userDefs>
				<v:ud v:nameU="CTypeTopLeftSnip" v:prompt="" v:val="VT0(0):5"/>
				<v:ud v:nameU="CTypeTopRightSnip" v:prompt="" v:val="VT0(0):5"/>
				<v:ud v:nameU="CTypeBotLeftSnip" v:prompt="" v:val="VT0(0):5"/>
				<v:ud v:nameU="CTypeBotRightSnip" v:prompt="" v:val="VT0(0):5"/>
				<v:ud v:nameU="CornerLockHoriz" v:prompt="" v:val="VT0(1):5"/>
				<v:ud v:nameU="CornerLockVert" v:prompt="" v:val="VT0(1):5"/>
				<v:ud v:nameU="CornerLockDiag" v:prompt="" v:val="VT0(0):5"/>
				<v:ud v:nameU="TopLeftOffset" v:prompt="" v:val="VT0(0.15748031496063):24"/>
				<v:ud v:nameU="TopRightOffset" v:prompt="" v:val="VT0(0.15748031496063):24"/>
				<v:ud v:nameU="BotLeftOffset" v:prompt="" v:val="VT0(0.15748031496063):24"/>
				<v:ud v:nameU="BotRightOffset" v:prompt="" v:val="VT0(0.15748031496063):24"/>
				<v:ud v:nameU="visVersion" v:prompt="" v:val="VT0(15):26"/>
			</v:userDefs>
			<v:textBlock v:margins="rect(4,4,4,4)" v:tabSpace="42.5197"/>
			<v:textRect cx="56.6929" cy="656.198" width="113.39" height="85.0394"/>
			<path d="M11.34 698.72 L102.05 698.72 A11.3384 11.3384 -180 0 0 113.39 687.38 L113.39 625.02 A11.3384 11.3384 -180 0
						 0 102.05 613.68 L11.34 613.68 A11.3384 11.3384 -180 0 0 0 625.02 L0 687.38 A11.3384 11.3384 -180 0 0 11.34
						 698.72 Z" class="st3"/>
			<text x="30.66" y="659.2" class="st2" v:langID="1044"><v:paragraph v:horizAlign="1"/><v:tabList/>Organization</text>		</g>
		<g id="shape10-22" v:mID="10" v:groupContext="shape" transform="translate(567.179,-396.802)">
			<title>Rounded Rectangle.10</title>
			<desc>Person</desc>
			<v:userDefs>
				<v:ud v:nameU="CTypeTopLeftSnip" v:prompt="" v:val="VT0(0):5"/>
				<v:ud v:nameU="CTypeTopRightSnip" v:prompt="" v:val="VT0(0):5"/>
				<v:ud v:nameU="CTypeBotLeftSnip" v:prompt="" v:val="VT0(0):5"/>
				<v:ud v:nameU="CTypeBotRightSnip" v:prompt="" v:val="VT0(0):5"/>
				<v:ud v:nameU="CornerLockHoriz" v:prompt="" v:val="VT0(1):5"/>
				<v:ud v:nameU="CornerLockVert" v:prompt="" v:val="VT0(1):5"/>
				<v:ud v:nameU="CornerLockDiag" v:prompt="" v:val="VT0(0):5"/>
				<v:ud v:nameU="TopLeftOffset" v:prompt="" v:val="VT0(0.15748031496063):24"/>
				<v:ud v:nameU="TopRightOffset" v:prompt="" v:val="VT0(0.15748031496063):24"/>
				<v:ud v:nameU="BotLeftOffset" v:prompt="" v:val="VT0(0.15748031496063):24"/>
				<v:ud v:nameU="BotRightOffset" v:prompt="" v:val="VT0(0.15748031496063):24"/>
				<v:ud v:nameU="visVersion" v:prompt="" v:val="VT0(15):26"/>
			</v:userDefs>
			<v:textBlock v:margins="rect(4,4,4,4)" v:tabSpace="42.5197"/>
			<v:textRect cx="56.6929" cy="656.198" width="113.39" height="85.0394"/>
			<path d="M11.34 698.72 L102.05 698.72 A11.3384 11.3384 -180 0 0 113.39 687.38 L113.39 625.02 A11.3384 11.3384 -180 0
						 0 102.05 613.68 L11.34 613.68 A11.3384 11.3384 -180 0 0 0 625.02 L0 687.38 A11.3384 11.3384 -180 0 0 11.34
						 698.72 Z" class="st3"/>
			<text x="42.66" y="659.2" class="st2" v:langID="1044"><v:paragraph v:horizAlign="1"/><v:tabList/>Person</text>		</g>
		<g id="shape11-25" v:mID="11" v:groupContext="shape" v:layerMember="0" transform="translate(895.998,-432.235)">
			<title>Dynamic connector</title>
			<desc>OwnedBy (InstanceOwner)</desc>
			<v:textBlock v:margins="rect(4,4,4,4)" v:tabSpace="42.5197"/>
			<v:textRect cx="-94.0394" cy="691.631" width="97.27" height="17.6036"/>
			<path d="M0 691.63 L-181.04 691.63" class="st4"/>
			<rect v:rectContext="textBkgnd" x="-137.763" y="686.832" width="87.4482" height="9.59985" class="st6"/>
			<text x="-137.76" y="694.03" class="st7" v:langID="1044"><v:paragraph v:horizAlign="1"/><v:tabList/>OwnedBy (InstanceOwner)</text>		</g>
		<g id="shape13-33" v:mID="13" v:groupContext="shape" transform="translate(952.691,-226.723)">
			<title>Rounded Rectangle.13</title>
			<desc>ProcessTask</desc>
			<v:userDefs>
				<v:ud v:nameU="CTypeTopLeftSnip" v:prompt="" v:val="VT0(0):5"/>
				<v:ud v:nameU="CTypeTopRightSnip" v:prompt="" v:val="VT0(0):5"/>
				<v:ud v:nameU="CTypeBotLeftSnip" v:prompt="" v:val="VT0(0):5"/>
				<v:ud v:nameU="CTypeBotRightSnip" v:prompt="" v:val="VT0(0):5"/>
				<v:ud v:nameU="CornerLockHoriz" v:prompt="" v:val="VT0(1):5"/>
				<v:ud v:nameU="CornerLockVert" v:prompt="" v:val="VT0(1):5"/>
				<v:ud v:nameU="CornerLockDiag" v:prompt="" v:val="VT0(0):5"/>
				<v:ud v:nameU="TopLeftOffset" v:prompt="" v:val="VT0(0.15748031496063):24"/>
				<v:ud v:nameU="TopRightOffset" v:prompt="" v:val="VT0(0.15748031496063):24"/>
				<v:ud v:nameU="BotLeftOffset" v:prompt="" v:val="VT0(0.15748031496063):24"/>
				<v:ud v:nameU="BotRightOffset" v:prompt="" v:val="VT0(0.15748031496063):24"/>
				<v:ud v:nameU="visVersion" v:prompt="" v:val="VT0(15):26"/>
			</v:userDefs>
			<v:textBlock v:margins="rect(4,4,4,4)" v:tabSpace="42.5197"/>
			<v:textRect cx="56.6929" cy="656.198" width="113.39" height="85.0394"/>
			<path d="M11.34 698.72 L102.05 698.72 A11.3384 11.3384 -180 0 0 113.39 687.38 L113.39 625.02 A11.3384 11.3384 -180 0
						 0 102.05 613.68 L11.34 613.68 A11.3384 11.3384 -180 0 0 0 625.02 L0 687.38 A11.3384 11.3384 -180 0 0 11.34
						 698.72 Z" class="st3"/>
			<text x="32.16" y="659.2" class="st2" v:langID="1044"><v:paragraph v:horizAlign="1"/><v:tabList/>ProcessTask</text>		</g>
		<g id="shape14-36" v:mID="14" v:groupContext="shape" v:layerMember="0" transform="translate(952.691,-396.802)">
			<title>Dynamic connector.14</title>
			<desc>Is connected to a current process Task</desc>
			<v:textBlock v:margins="rect(4,4,4,4)" v:tabSpace="42.5197"/>
			<v:textRect cx="56.6929" cy="712.891" width="134.13" height="17.6036"/>
			<path d="M0 698.72 L0 709.35 L56.69 709.35 L56.69 776.72" class="st4"/>
			<rect v:rectContext="textBkgnd" x="-5.46475" y="708.092" width="124.316" height="9.59985" class="st6"/>
			<text x="-5.46" y="715.29" class="st7" v:langID="1044"><v:paragraph v:horizAlign="1"/><v:tabList/>Is connected to a current process Task</text>		</g>
		<g id="shape16-43" v:mID="16" v:groupContext="shape" v:layerMember="0" transform="translate(1002.3,-226.723)">
			<title>Dynamic connector.16</title>
			<desc>Is part of</desc>
			<v:textBlock v:margins="rect(4,4,4,4)" v:tabSpace="42.5197"/>
			<v:textRect cx="7.08661" cy="732.734" width="40" height="17.6036"/>
			<path d="M7.09 698.72 L7.09 759.71" class="st4"/>
			<rect v:rectContext="textBkgnd" x="-7.37628" y="727.934" width="28.9259" height="9.59985" class="st8"/>
			<text x="-7.38" y="735.13" class="st7" v:langID="1044"><v:paragraph v:horizAlign="1"/><v:tabList/>Is part of</text>		</g>
		<g id="shape17-50" v:mID="17" v:groupContext="shape" v:layerMember="0" transform="translate(771.273,-246.566)">
			<title>Dynamic connector.17</title>
			<path d="M0 698.72 L0 545.16 L121.01 545.16" class="st4"/>
		</g>
		<g id="shape18-55" v:mID="18" v:groupContext="shape" transform="translate(814.584,-613.429)">
			<title>Rounded Rectangle.18</title>
			<desc>End User System</desc>
			<v:userDefs>
				<v:ud v:nameU="CTypeTopLeftSnip" v:prompt="" v:val="VT0(0):5"/>
				<v:ud v:nameU="CTypeTopRightSnip" v:prompt="" v:val="VT0(0):5"/>
				<v:ud v:nameU="CTypeBotLeftSnip" v:prompt="" v:val="VT0(0):5"/>
				<v:ud v:nameU="CTypeBotRightSnip" v:prompt="" v:val="VT0(0):5"/>
				<v:ud v:nameU="CornerLockHoriz" v:prompt="" v:val="VT0(1):5"/>
				<v:ud v:nameU="CornerLockVert" v:prompt="" v:val="VT0(1):5"/>
				<v:ud v:nameU="CornerLockDiag" v:prompt="" v:val="VT0(0):5"/>
				<v:ud v:nameU="TopLeftOffset" v:prompt="" v:val="VT0(0.15748031496063):24"/>
				<v:ud v:nameU="TopRightOffset" v:prompt="" v:val="VT0(0.15748031496063):24"/>
				<v:ud v:nameU="BotLeftOffset" v:prompt="" v:val="VT0(0.15748031496063):24"/>
				<v:ud v:nameU="BotRightOffset" v:prompt="" v:val="VT0(0.15748031496063):24"/>
				<v:ud v:nameU="visVersion" v:prompt="" v:val="VT0(15):26"/>
			</v:userDefs>
			<v:textBlock v:margins="rect(4,4,4,4)" v:tabSpace="42.5197"/>
			<v:textRect cx="56.6929" cy="656.198" width="113.39" height="85.0394"/>
			<path d="M11.34 698.72 L102.05 698.72 A11.3384 11.3384 -180 0 0 113.39 687.38 L113.39 625.02 A11.3384 11.3384 -180 0
						 0 102.05 613.68 L11.34 613.68 A11.3384 11.3384 -180 0 0 0 625.02 L0 687.38 A11.3384 11.3384 -180 0 0 11.34
						 698.72 Z" class="st3"/>
			<text x="22.67" y="659.2" class="st2" v:langID="1044"><v:paragraph v:horizAlign="1"/><v:tabList/>End User System</text>		</g>
		<g id="shape19-58" v:mID="19" v:groupContext="shape" transform="translate(992.376,-613.429)">
			<title>Rounded Rectangle.19</title>
			<desc>User</desc>
			<v:userDefs>
				<v:ud v:nameU="CTypeTopLeftSnip" v:prompt="" v:val="VT0(0):5"/>
				<v:ud v:nameU="CTypeTopRightSnip" v:prompt="" v:val="VT0(0):5"/>
				<v:ud v:nameU="CTypeBotLeftSnip" v:prompt="" v:val="VT0(0):5"/>
				<v:ud v:nameU="CTypeBotRightSnip" v:prompt="" v:val="VT0(0):5"/>
				<v:ud v:nameU="CornerLockHoriz" v:prompt="" v:val="VT0(1):5"/>
				<v:ud v:nameU="CornerLockVert" v:prompt="" v:val="VT0(1):5"/>
				<v:ud v:nameU="CornerLockDiag" v:prompt="" v:val="VT0(0):5"/>
				<v:ud v:nameU="TopLeftOffset" v:prompt="" v:val="VT0(0.15748031496063):24"/>
				<v:ud v:nameU="TopRightOffset" v:prompt="" v:val="VT0(0.15748031496063):24"/>
				<v:ud v:nameU="BotLeftOffset" v:prompt="" v:val="VT0(0.15748031496063):24"/>
				<v:ud v:nameU="BotRightOffset" v:prompt="" v:val="VT0(0.15748031496063):24"/>
				<v:ud v:nameU="visVersion" v:prompt="" v:val="VT0(15):26"/>
			</v:userDefs>
			<v:textBlock v:margins="rect(4,4,4,4)" v:tabSpace="42.5197"/>
			<v:textRect cx="56.6929" cy="656.198" width="113.39" height="85.0394"/>
			<path d="M11.34 698.72 L102.05 698.72 A11.3384 11.3384 -180 0 0 113.39 687.38 L113.39 625.02 A11.3384 11.3384 -180 0
						 0 102.05 613.68 L11.34 613.68 A11.3384 11.3384 -180 0 0 0 625.02 L0 687.38 A11.3384 11.3384 -180 0 0 11.34
						 698.72 Z" class="st3"/>
			<text x="47.3" y="659.2" class="st2" v:langID="1044"><v:paragraph v:horizAlign="1"/><v:tabList/>User</text>		</g>
		<g id="shape23-61" v:mID="23" v:groupContext="shape" transform="translate(1105.76,-396.802)">
			<title>Rounded Rectangle.23</title>
			<desc>Data</desc>
			<v:userDefs>
				<v:ud v:nameU="CTypeTopLeftSnip" v:prompt="" v:val="VT0(0):5"/>
				<v:ud v:nameU="CTypeTopRightSnip" v:prompt="" v:val="VT0(0):5"/>
				<v:ud v:nameU="CTypeBotLeftSnip" v:prompt="" v:val="VT0(0):5"/>
				<v:ud v:nameU="CTypeBotRightSnip" v:prompt="" v:val="VT0(0):5"/>
				<v:ud v:nameU="CornerLockHoriz" v:prompt="" v:val="VT0(1):5"/>
				<v:ud v:nameU="CornerLockVert" v:prompt="" v:val="VT0(1):5"/>
				<v:ud v:nameU="CornerLockDiag" v:prompt="" v:val="VT0(0):5"/>
				<v:ud v:nameU="TopLeftOffset" v:prompt="" v:val="VT0(0.15748031496063):24"/>
				<v:ud v:nameU="TopRightOffset" v:prompt="" v:val="VT0(0.15748031496063):24"/>
				<v:ud v:nameU="BotLeftOffset" v:prompt="" v:val="VT0(0.15748031496063):24"/>
				<v:ud v:nameU="BotRightOffset" v:prompt="" v:val="VT0(0.15748031496063):24"/>
				<v:ud v:nameU="visVersion" v:prompt="" v:val="VT0(15):26"/>
			</v:userDefs>
			<v:textBlock v:margins="rect(4,4,4,4)" v:tabSpace="42.5197"/>
			<v:textRect cx="56.6929" cy="656.198" width="113.39" height="85.0394"/>
			<path d="M11.34 698.72 L102.05 698.72 A11.3384 11.3384 -180 0 0 113.39 687.38 L113.39 625.02 A11.3384 11.3384 -180 0
						 0 102.05 613.68 L11.34 613.68 A11.3384 11.3384 -180 0 0 0 625.02 L0 687.38 A11.3384 11.3384 -180 0 0 11.34
						 698.72 Z" class="st3"/>
			<text x="47.15" y="659.2" class="st2" v:langID="1044"><v:paragraph v:horizAlign="1"/><v:tabList/>Data</text>		</g>
		<g id="shape24-64" v:mID="24" v:groupContext="shape" v:layerMember="0" transform="translate(1105.76,-432.235)">
			<title>Dynamic connector.24</title>
			<desc>Belongs to</desc>
			<v:textBlock v:margins="rect(4,4,4,4)" v:tabSpace="42.5197"/>
			<v:textRect cx="-48.189" cy="691.631" width="44.01" height="17.6036"/>
			<path d="M0 691.63 L-89.34 691.63" class="st4"/>
			<rect v:rectContext="textBkgnd" x="-65.2843" y="686.832" width="34.1908" height="9.59985" class="st6"/>
			<text x="-65.28" y="694.03" class="st7" v:langID="1044"><v:paragraph v:horizAlign="1"/><v:tabList/>Belongs to</text>		</g>
		<g id="shape25-71" v:mID="25" v:groupContext="shape" v:layerMember="0" transform="translate(827.966,-204.046)">
			<title>Dynamic connector.25</title>
			<desc>Define</desc>
			<v:textBlock v:margins="rect(4,4,4,4)" v:tabSpace="42.5197"/>
			<v:textRect cx="18.4252" cy="786.592" width="40" height="17.6036"/>
			<path d="M0 698.72 L10.63 698.72 L10.63 786.59 L117.68 786.59" class="st4"/>
			<rect v:rectContext="textBkgnd" x="7.7438" y="781.792" width="21.3629" height="9.59985" class="st6"/>
			<text x="7.74" y="788.99" class="st7" v:langID="1044"><v:paragraph v:horizAlign="1"/><v:tabList/>Define</text>		</g>
		<g id="shape26-78" v:mID="26" v:groupContext="shape" v:layerMember="0" transform="translate(764.187,-161.526)">
			<title>Dynamic connector.26</title>
			<desc>Define</desc>
			<v:textBlock v:margins="rect(4,4,4,4)" v:tabSpace="42.5197"/>
			<v:textRect cx="7.08661" cy="736.837" width="40" height="17.6036"/>
			<path d="M7.09 698.72 L7.09 767.92" class="st4"/>
			<rect v:rectContext="textBkgnd" x="-3.59478" y="732.037" width="21.3629" height="9.59985" class="st6"/>
			<text x="-3.59" y="739.24" class="st7" v:langID="1044"><v:paragraph v:horizAlign="1"/><v:tabList/>Define</text>		</g>
		<g id="shape27-85" v:mID="27" v:groupContext="shape" v:layerMember="0" transform="translate(482.14,-196.959)">
			<title>Dynamic connector.27</title>
			<desc>owns</desc>
			<v:textBlock v:margins="rect(4,4,4,4)" v:tabSpace="42.5197"/>
			<v:textRect cx="-92.126" cy="691.631" width="40" height="17.6036"/>
			<path d="M0 691.63 L-177.21 691.63" class="st4"/>
			<rect v:rectContext="textBkgnd" x="-100.761" y="686.832" width="17.2694" height="9.59985" class="st6"/>
			<text x="-100.76" y="694.03" class="st7" v:langID="1044"><v:paragraph v:horizAlign="1"/><v:tabList/>owns</text>		</g>
		<g id="shape28-92" v:mID="28" v:groupContext="shape" v:layerMember="0" transform="translate(871.277,-613.429)">
			<title>Dynamic connector.28</title>
			<desc>CRUD</desc>
			<v:textBlock v:margins="rect(4,4,4,4)" v:tabSpace="42.5197"/>
			<v:textRect cx="81.4139" cy="723.805" width="40" height="17.6036"/>
			<path d="M0 698.72 L0 709.35 L81.41 709.35 L81.41 823.27" class="st4"/>
			<rect v:rectContext="textBkgnd" x="72.0819" y="719.005" width="18.6641" height="9.59985" class="st6"/>
			<text x="72.08" y="726.2" class="st7" v:langID="1044"><v:paragraph v:horizAlign="1"/><v:tabList/>CRUD</text>		</g>
		<g id="shape29-99" v:mID="29" v:groupContext="shape" v:layerMember="0" transform="translate(1049.07,-613.429)">
			<title>Dynamic connector.29</title>
			<desc>CRUD</desc>
			<v:textBlock v:margins="rect(4,4,4,4)" v:tabSpace="42.5197"/>
			<v:textRect cx="0" cy="812.701" width="40" height="17.6036"/>
			<path d="M0 698.72 L0 819.68 L-96.38 819.68 L-96.38 823.27" class="st4"/>
			<rect v:rectContext="textBkgnd" x="-9.332" y="807.901" width="18.6641" height="9.59985" class="st6"/>
			<text x="-9.33" y="815.1" class="st7" v:langID="1044"><v:paragraph v:horizAlign="1"/><v:tabList/>CRUD</text>		</g>
		<g id="shape31-106" v:mID="31" v:groupContext="shape" transform="translate(184.502,-161.526)">
			<title>Rounded Rectangle.31</title>
			<desc>Application Repsitory</desc>
			<v:userDefs>
				<v:ud v:nameU="CTypeTopLeftSnip" v:prompt="" v:val="VT0(0):5"/>
				<v:ud v:nameU="CTypeTopRightSnip" v:prompt="" v:val="VT0(0):5"/>
				<v:ud v:nameU="CTypeBotLeftSnip" v:prompt="" v:val="VT0(0):5"/>
				<v:ud v:nameU="CTypeBotRightSnip" v:prompt="" v:val="VT0(0):5"/>
				<v:ud v:nameU="CornerLockHoriz" v:prompt="" v:val="VT0(1):5"/>
				<v:ud v:nameU="CornerLockVert" v:prompt="" v:val="VT0(1):5"/>
				<v:ud v:nameU="CornerLockDiag" v:prompt="" v:val="VT0(0):5"/>
				<v:ud v:nameU="TopLeftOffset" v:prompt="" v:val="VT0(0.15748031496063):24"/>
				<v:ud v:nameU="TopRightOffset" v:prompt="" v:val="VT0(0.15748031496063):24"/>
				<v:ud v:nameU="BotLeftOffset" v:prompt="" v:val="VT0(0.15748031496063):24"/>
				<v:ud v:nameU="BotRightOffset" v:prompt="" v:val="VT0(0.15748031496063):24"/>
				<v:ud v:nameU="visVersion" v:prompt="" v:val="VT0(15):26"/>
			</v:userDefs>
			<v:textBlock v:margins="rect(4,4,4,4)" v:tabSpace="42.5197"/>
			<v:textRect cx="56.6929" cy="656.198" width="113.39" height="85.0394"/>
			<path d="M11.34 698.72 L102.05 698.72 A11.3384 11.3384 -180 0 0 113.39 687.38 L113.39 625.02 A11.3384 11.3384 -180 0
						 0 102.05 613.68 L11.34 613.68 A11.3384 11.3384 -180 0 0 0 625.02 L0 687.38 A11.3384 11.3384 -180 0 0 11.34
						 698.72 Z" class="st3"/>
			<text x="13.27" y="659.2" class="st2" v:langID="1044"><v:paragraph v:horizAlign="1"/><v:tabList/>Application Repsitory</text>		</g>
		<g id="shape33-109" v:mID="33" v:groupContext="shape" transform="translate(0.249814,-33.9674)">
			<title>Rounded Rectangle.33</title>
			<desc>Application configuration</desc>
			<v:userDefs>
				<v:ud v:nameU="CTypeTopLeftSnip" v:prompt="" v:val="VT0(0):5"/>
				<v:ud v:nameU="CTypeTopRightSnip" v:prompt="" v:val="VT0(0):5"/>
				<v:ud v:nameU="CTypeBotLeftSnip" v:prompt="" v:val="VT0(0):5"/>
				<v:ud v:nameU="CTypeBotRightSnip" v:prompt="" v:val="VT0(0):5"/>
				<v:ud v:nameU="CornerLockHoriz" v:prompt="" v:val="VT0(1):5"/>
				<v:ud v:nameU="CornerLockVert" v:prompt="" v:val="VT0(1):5"/>
				<v:ud v:nameU="CornerLockDiag" v:prompt="" v:val="VT0(0):5"/>
				<v:ud v:nameU="TopLeftOffset" v:prompt="" v:val="VT0(0.15748031496063):24"/>
				<v:ud v:nameU="TopRightOffset" v:prompt="" v:val="VT0(0.15748031496063):24"/>
				<v:ud v:nameU="BotLeftOffset" v:prompt="" v:val="VT0(0.15748031496063):24"/>
				<v:ud v:nameU="BotRightOffset" v:prompt="" v:val="VT0(0.15748031496063):24"/>
				<v:ud v:nameU="visVersion" v:prompt="" v:val="VT0(15):26"/>
			</v:userDefs>
			<v:textBlock v:margins="rect(4,4,4,4)" v:tabSpace="42.5197"/>
			<v:textRect cx="56.6929" cy="656.198" width="113.39" height="85.0394"/>
			<path d="M11.34 698.72 L102.05 698.72 A11.3384 11.3384 -180 0 0 113.39 687.38 L113.39 625.02 A11.3384 11.3384 -180 0
						 0 102.05 613.68 L11.34 613.68 A11.3384 11.3384 -180 0 0 0 625.02 L0 687.38 A11.3384 11.3384 -180 0 0 11.34
						 698.72 Z" class="st3"/>
			<text x="5.27" y="659.2" class="st2" v:langID="1044"><v:paragraph v:horizAlign="1"/><v:tabList/>Application configuration</text>		</g>
		<g id="shape34-112" v:mID="34" v:groupContext="shape" transform="translate(0.249814,-178.534)">
			<title>Rounded Rectangle.34</title>
			<desc>Application logic code</desc>
			<v:userDefs>
				<v:ud v:nameU="CTypeTopLeftSnip" v:prompt="" v:val="VT0(0):5"/>
				<v:ud v:nameU="CTypeTopRightSnip" v:prompt="" v:val="VT0(0):5"/>
				<v:ud v:nameU="CTypeBotLeftSnip" v:prompt="" v:val="VT0(0):5"/>
				<v:ud v:nameU="CTypeBotRightSnip" v:prompt="" v:val="VT0(0):5"/>
				<v:ud v:nameU="CornerLockHoriz" v:prompt="" v:val="VT0(1):5"/>
				<v:ud v:nameU="CornerLockVert" v:prompt="" v:val="VT0(1):5"/>
				<v:ud v:nameU="CornerLockDiag" v:prompt="" v:val="VT0(0):5"/>
				<v:ud v:nameU="TopLeftOffset" v:prompt="" v:val="VT0(0.15748031496063):24"/>
				<v:ud v:nameU="TopRightOffset" v:prompt="" v:val="VT0(0.15748031496063):24"/>
				<v:ud v:nameU="BotLeftOffset" v:prompt="" v:val="VT0(0.15748031496063):24"/>
				<v:ud v:nameU="BotRightOffset" v:prompt="" v:val="VT0(0.15748031496063):24"/>
				<v:ud v:nameU="visVersion" v:prompt="" v:val="VT0(15):26"/>
			</v:userDefs>
			<v:textBlock v:margins="rect(4,4,4,4)" v:tabSpace="42.5197"/>
			<v:textRect cx="56.6929" cy="656.198" width="113.39" height="85.0394"/>
			<path d="M11.34 698.72 L102.05 698.72 A11.3384 11.3384 -180 0 0 113.39 687.38 L113.39 625.02 A11.3384 11.3384 -180 0
						 0 102.05 613.68 L11.34 613.68 A11.3384 11.3384 -180 0 0 0 625.02 L0 687.38 A11.3384 11.3384 -180 0 0 11.34
						 698.72 Z" class="st3"/>
			<text x="12.13" y="659.2" class="st2" v:langID="1044"><v:paragraph v:horizAlign="1"/><v:tabList/>Application logic code</text>		</g>
		<g id="shape35-115" v:mID="35" v:groupContext="shape" v:layerMember="0" transform="translate(241.195,-161.526)">
			<title>Dynamic connector.35</title>
			<desc>Contains</desc>
			<v:textBlock v:margins="rect(4,4,4,4)" v:tabSpace="42.5197"/>
			<v:textRect cx="-21.2599" cy="783.757" width="40" height="17.6036"/>
			<path d="M0 698.72 L0 783.76 L-120.52 783.76" class="st4"/>
			<rect v:rectContext="textBkgnd" x="-35.4434" y="778.958" width="28.367" height="9.59985" class="st6"/>
			<text x="-35.44" y="786.16" class="st7" v:langID="1044"><v:paragraph v:horizAlign="1"/><v:tabList/>Contains</text>		</g>
		<g id="shape36-122" v:mID="36" v:groupContext="shape" v:layerMember="0" transform="translate(184.502,-204.046)">
			<title>Dynamic connector.36</title>
			<desc>Contains</desc>
			<v:textBlock v:margins="rect(4,4,4,4)" v:tabSpace="42.5197"/>
			<v:textRect cx="-26.9291" cy="681.71" width="40" height="17.6036"/>
			<path d="M0 698.72 L-10.63 698.72 L-10.63 681.71 L-63.83 681.71" class="st4"/>
			<rect v:rectContext="textBkgnd" x="-41.1127" y="676.91" width="28.367" height="9.59985" class="st6"/>
			<text x="-41.11" y="684.11" class="st7" v:langID="1044"><v:paragraph v:horizAlign="1"/><v:tabList/>Contains</text>		</g>
		<g id="shape37-129" v:mID="37" v:groupContext="shape" v:layerMember="0" transform="translate(241.195,-239.479)">
			<title>Dynamic connector.37</title>
			<desc>Is built to a</desc>
			<v:textBlock v:margins="rect(4,4,4,4)" v:tabSpace="42.5197"/>
			<v:textRect cx="265.039" cy="681.001" width="47.68" height="17.6036"/>
			<path d="M0 691.63 L0 681 L530.08 681 L530.08 684.59" class="st4"/>
			<rect v:rectContext="textBkgnd" x="247.01" y="676.202" width="36.0582" height="9.59985" class="st8"/>
			<text x="247.01" y="683.4" class="st7" v:langID="1044"><v:paragraph v:horizAlign="1"/><v:tabList/>Is built to a  </text>		</g>
	</g>
</svg>
