<?xml version="1.0" encoding="UTF-8" standalone="no"?>
<!DOCTYPE svg PUBLIC "-//W3C//DTD SVG 1.1//EN" "http://www.w3.org/Graphics/SVG/1.1/DTD/svg11.dtd">
<!-- Generated by Microsoft Visio, SVG Export app_backend_application_architecture.svg Page-1 -->
<svg xmlns="http://www.w3.org/2000/svg" xmlns:xlink="http://www.w3.org/1999/xlink" xmlns:ev="http://www.w3.org/2001/xml-events"
		xmlns:v="http://schemas.microsoft.com/visio/2003/SVGExtensions/" width="10.4018in" height="8.57342in"
		viewBox="0 0 748.927 617.286" xml:space="preserve" color-interpolation-filters="sRGB" class="st17">
	<v:documentProperties v:langID="1033" v:metric="true" v:viewMarkup="false">
		<v:userDefs>
			<v:ud v:nameU="DisableSpdActionTags" v:prompt="" v:val="VT0(0):26"/>
		</v:userDefs>
	</v:documentProperties>

	<style type="text/css">
	<![CDATA[
		.st1 {visibility:visible}
		.st2 {fill:#5b9bd5;fill-opacity:0.22;filter:url(#filter_2);stroke:#5b9bd5;stroke-opacity:0.22}
		.st3 {fill:#5b9bd5;stroke:#c7c8c8;stroke-width:0.25}
		.st4 {fill:#bdd0e9;stroke:#c7c8c8;stroke-width:0.25}
		.st5 {fill:#5b9bd5;fill-opacity:0.22;filter:url(#filter_2);marker-end:url(#mrkr1-17);marker-start:url(#mrkr1-15);stroke:#5b9bd5;stroke-opacity:0.22}
		.st6 {fill:#5b9bd5;fill-opacity:0.22;stroke:#5b9bd5;stroke-opacity:0.22;stroke-width:0.090252707581227}
		.st7 {fill:#bdd7ee;marker-end:url(#mrkr1-23);marker-start:url(#mrkr1-21);stroke:#c7c8c8;stroke-width:0.25}
		.st8 {fill:#c7c8c8;fill-opacity:1;stroke:#c7c8c8;stroke-opacity:1;stroke-width:0.090252707581227}
		.st9 {fill:#92d050;stroke:#c7c8c8;stroke-width:0.25}
		.st10 {fill:none;stroke:none;stroke-width:0.25}
		.st11 {fill:#2e75b5;font-family:Calibri;font-size:1.00001em}
		.st12 {fill:#ffffff;font-family:Calibri;font-size:1.00001em}
		.st13 {fill:#2e75b5;stroke:#c7c8c8;stroke-width:0.25}
		.st14 {fill:#feffff;font-family:Calibri;font-size:0.833336em}
		.st15 {fill:#ff3300;stroke:#c7c8c8;stroke-width:0.25}
		.st16 {fill:#feffff;font-family:Calibri;font-size:1.00001em}
		.st17 {fill:none;fill-rule:evenodd;font-size:12px;overflow:visible;stroke-linecap:square;stroke-miterlimit:3}
	]]>
	</style>

	<defs id="Markers">
		<g id="lend1">
			<path d="M 1 -1 L 0 0 L 1 1 " style="stroke-linecap:round;stroke-linejoin:round;fill:none"/>
		</g>
		<marker id="mrkr1-15" class="st6" v:arrowType="1" v:arrowSize="2" orient="auto" markerUnits="strokeWidth"
				overflow="visible">
			<use xlink:href="#lend1" transform="scale(11.08) "/>
		</marker>
		<marker id="mrkr1-17" class="st6" v:arrowType="1" v:arrowSize="2" orient="auto" markerUnits="strokeWidth"
				overflow="visible">
			<use xlink:href="#lend1" transform="scale(-11.08,-11.08) "/>
		</marker>
		<marker id="mrkr1-21" class="st8" v:arrowType="1" v:arrowSize="2" orient="auto" markerUnits="strokeWidth"
				overflow="visible">
			<use xlink:href="#lend1" transform="scale(11.08) "/>
		</marker>
		<marker id="mrkr1-23" class="st8" v:arrowType="1" v:arrowSize="2" orient="auto" markerUnits="strokeWidth"
				overflow="visible">
			<use xlink:href="#lend1" transform="scale(-11.08,-11.08) "/>
		</marker>
	</defs>
	<defs id="Filters">
		<filter id="filter_2">
			<feGaussianBlur stdDeviation="2"/>
		</filter>
	</defs>
	<g v:mID="0" v:index="1" v:groupContext="foregroundPage">
		<title>Page-1</title>
		<v:pageProperties v:drawingScale="0.0393701" v:pageScale="0.0393701" v:drawingUnits="24" v:shadowOffsetX="8.50394"
				v:shadowOffsetY="-8.50394"/>
		<a xlink:href="/products/tjenester/3.0/solutions/runtime/">
			<g id="shape9-1" v:mID="9" v:groupContext="shape" transform="translate(2.77937,-5.09777)">
				<title>Rectangle</title>
				<v:userDefs>
					<v:ud v:nameU="visVersion" v:val="VT0(15):26"/>
				</v:userDefs>
				<g id="shadow9-2" v:groupContext="shadow" v:shadowOffsetX="0.345598" v:shadowOffsetY="-1.97279" v:shadowType="1"
						transform="matrix(1,0,0,1,0.345598,1.97279)" class="st1">
					<rect x="0" y="54.4391" width="742.677" height="562.847" class="st2"/>
				</g>
				<rect x="0" y="54.4391" width="742.677" height="562.847" class="st3"/>
			</g>
		</a>
		<a xlink:href="/Content/RedirectToContent/?ContentType=Resource&#38;Title=Archive">
			<g id="shape10-6" v:mID="10" v:groupContext="shape" transform="translate(306.086,-20.8585)">
				<title>Sheet.10</title>
				<g id="shadow10-7" v:groupContext="shadow" v:shadowOffsetX="0.345598" v:shadowOffsetY="-1.97279" v:shadowType="1"
						transform="matrix(1,0,0,1,0.345598,1.97279)" class="st1">
					<rect x="0" y="433.034" width="425.197" height="184.252" class="st2"/>
				</g>
				<rect x="0" y="433.034" width="425.197" height="184.252" class="st4"/>
			</g>
		</a>
		<g id="shape14-11" v:mID="14" v:groupContext="shape" transform="translate(306.086,-236.291)">
			<title>Sheet.14</title>
			<g id="shadow14-12" v:groupContext="shadow" v:shadowOffsetX="0.345598" v:shadowOffsetY="-1.97279" v:shadowType="1"
					transform="matrix(1,0,0,1,0.345598,1.97279)" class="st1">
				<rect x="0" y="433.034" width="425.197" height="184.252" class="st5"/>
			</g>
			<rect x="0" y="433.034" width="425.197" height="184.252" class="st7"/>
		</g>
		<g id="shape17-24" v:mID="17" v:groupContext="shape" transform="translate(25.4565,-20.8584)">
			<title>Sheet.17</title>
			<g id="shadow17-25" v:groupContext="shadow" v:shadowOffsetX="0.345598" v:shadowOffsetY="-1.97279" v:shadowType="1"
					transform="matrix(1,0,0,1,0.345598,1.97279)" class="st1">
				<rect x="0" y="220.436" width="136.063" height="396.85" class="st2"/>
			</g>
			<rect x="0" y="220.436" width="136.063" height="396.85" class="st9"/>
		</g>
		<g id="shape22-29" v:mID="22" v:groupContext="shape" transform="translate(308.921,-398.433)">
			<title>Sheet.22</title>
			<desc>Altinn.App.Api</desc>
			<v:textBlock v:margins="rect(4,4,4,4)" v:tabSpace="42.5197"/>
			<v:textRect cx="68.0315" cy="609.349" width="136.07" height="15.874"/>
			<rect x="0" y="601.412" width="136.063" height="15.874" class="st10"/>
			<text x="4" y="612.95" class="st11" v:langID="1044"><v:paragraph/><v:tabList/>Altinn.App.Api</text>		</g>
		<g id="shape115-32" v:mID="115" v:groupContext="shape" transform="translate(306.086,-184.134)">
			<title>Sheet.115</title>
			<desc>Altinn.App.PlatformServices</desc>
			<v:textBlock v:margins="rect(4,4,4,4)" v:tabSpace="42.5197"/>
			<v:textRect cx="81.9921" cy="609.349" width="163.99" height="15.874"/>
			<rect x="0" y="601.412" width="163.984" height="15.874" class="st10"/>
			<text x="13.62" y="612.95" class="st11" v:langID="1044"><v:paragraph v:horizAlign="1"/><v:tabList/>Altinn.App.PlatformServices</text>		</g>
		<g id="shape134-35" v:mID="134" v:groupContext="shape" transform="translate(99.4856,-454.402)">
			<title>Sheet.134</title>
			<desc>App-backend (Kubernes Pod)</desc>
			<v:textBlock v:margins="rect(4,4,4,4)" v:tabSpace="42.5197"/>
			<v:textRect cx="76" cy="607.286" width="152.01" height="20"/>
			<rect x="0" y="597.286" width="152" height="20" class="st10"/>
			<text x="5.05" y="610.89" class="st12" v:langID="1044"><v:paragraph v:horizAlign="1"/><v:tabList/>App-backend (Kubernes Pod)</text>		</g>
		<g id="shape157-38" v:mID="157" v:groupContext="shape" transform="translate(33.9605,-401.835)">
			<title>Sheet.157</title>
			<desc>App Logic</desc>
			<v:textBlock v:margins="rect(4,4,4,4)" v:tabSpace="42.5197"/>
			<v:textRect cx="68.0315" cy="609.349" width="136.07" height="15.874"/>
			<rect x="0" y="601.412" width="136.063" height="15.874" class="st10"/>
			<text x="4" y="612.95" class="st11" v:langID="1044"><v:paragraph/><v:tabList/>App Logic</text>		</g>
		<g id="shape417-41" v:mID="417" v:groupContext="shape" transform="translate(2.77943,-587.788)">
			<title>Rectangle.417</title>
			<desc>Routing ( Traefik)</desc>
			<v:userDefs>
				<v:ud v:nameU="visVersion" v:val="VT0(15):26"/>
			</v:userDefs>
			<v:textBlock v:margins="rect(4,4,4,4)" v:tabSpace="42.5197"/>
			<v:textRect cx="371.339" cy="603.113" width="742.68" height="28.3465"/>
			<g id="shadow417-42" v:groupContext="shadow" v:shadowOffsetX="0.345598" v:shadowOffsetY="-1.97279" v:shadowType="1"
					transform="matrix(1,0,0,1,0.345598,1.97279)" class="st1">
				<rect x="0" y="588.94" width="742.677" height="28.3465" class="st2"/>
			</g>
			<rect x="0" y="588.94" width="742.677" height="28.3465" class="st13"/>
			<text x="335.13" y="606.11" class="st14" v:langID="1044"><v:paragraph v:horizAlign="1"/><v:tabList/>Routing  ( Traefik)</text>		</g>
		<g id="shape456-47" v:mID="456" v:groupContext="shape" transform="translate(14.118,-446.055)">
			<title>Sheet.456</title>
			<g id="shadow456-48" v:groupContext="shadow" v:shadowOffsetX="0.345598" v:shadowOffsetY="-1.97279" v:shadowType="1"
					transform="matrix(1,0,0,1,0.345598,1.97279)" class="st1">
				<rect x="0" y="574.767" width="717.165" height="42.5197" class="st5"/>
			</g>
			<rect x="0" y="574.767" width="717.165" height="42.5197" class="st7"/>
		</g>
		<g id="shape19-56" v:mID="19" v:groupContext="shape" transform="translate(36.7951,-448.89)">
			<title>Sheet.19</title>
			<desc>Policy Enforcment Point (PEP</desc>
			<v:textBlock v:margins="rect(4,4,4,4)" v:tabSpace="42.5197"/>
			<v:textRect cx="340.157" cy="604.53" width="680.32" height="25.5118"/>
			<g id="shadow19-57" v:groupContext="shadow" v:shadowOffsetX="0.345598" v:shadowOffsetY="-1.97279" v:shadowType="1"
					transform="matrix(1,0,0,1,0.345598,1.97279)" class="st1">
				<rect x="0" y="591.775" width="680.315" height="25.5118" class="st2"/>
			</g>
			<rect x="0" y="591.775" width="680.315" height="25.5118" class="st15"/>
			<text x="269.42" y="608.13" class="st16" v:langID="1044"><v:paragraph v:horizAlign="1"/><v:tabList/>Policy Enforcment Point (PEP</text>		</g>
		<g id="shape457-62" v:mID="457" v:groupContext="shape" transform="translate(-271.515,582.255) rotate(-90)">
			<title>Sheet.457</title>
			<desc>Authentication</desc>
			<v:textBlock v:margins="rect(4,4,4,4)" v:tabSpace="42.5197"/>
			<v:textRect cx="70.8661" cy="604.53" width="141.74" height="25.5118"/>
			<g id="shadow457-63" v:groupContext="shadow" v:shadowOffsetX="0.345598" v:shadowOffsetY="-1.97279" v:shadowType="1"
					transform="matrix(1,0,0,1,-1.97279,0.345598)" class="st1">
				<rect x="0" y="591.775" width="141.732" height="25.5118" class="st2"/>
			</g>
			<rect x="0" y="591.775" width="141.732" height="25.5118" class="st3"/>
			<text x="4" y="608.13" class="st16" v:langID="1044"><v:paragraph/><v:tabList/>Authentication</text>		</g>
		<g id="shape459-68" v:mID="459" v:groupContext="shape" transform="translate(-271.515,369.656) rotate(-90)">
			<title>Sheet.459</title>
			<desc>Account</desc>
			<v:textBlock v:margins="rect(4,4,4,4)" v:tabSpace="42.5197"/>
			<v:textRect cx="70.8661" cy="604.53" width="141.74" height="25.5118"/>
			<g id="shadow459-69" v:groupContext="shadow" v:shadowOffsetX="0.345598" v:shadowOffsetY="-1.97279" v:shadowType="1"
					transform="matrix(1,0,0,1,-1.97279,0.345598)" class="st1">
				<rect x="0" y="591.775" width="141.732" height="25.5118" class="st2"/>
			</g>
			<rect x="0" y="591.775" width="141.732" height="25.5118" class="st13"/>
			<text x="4" y="608.13" class="st16" v:langID="1044"><v:paragraph/><v:tabList/>Account</text>		</g>
		<g id="shape460-74" v:mID="460" v:groupContext="shape" transform="translate(-243.168,369.656) rotate(-90)">
			<title>Sheet.460</title>
			<desc>ApplicationMetadata</desc>
			<v:textBlock v:margins="rect(4,4,4,4)" v:tabSpace="42.5197"/>
			<v:textRect cx="70.8661" cy="604.53" width="141.74" height="25.5118"/>
			<g id="shadow460-75" v:groupContext="shadow" v:shadowOffsetX="0.345598" v:shadowOffsetY="-1.97279" v:shadowType="1"
					transform="matrix(1,0,0,1,-1.97279,0.345598)" class="st1">
				<rect x="0" y="591.775" width="141.732" height="25.5118" class="st2"/>
			</g>
			<rect x="0" y="591.775" width="141.732" height="25.5118" class="st3"/>
			<text x="4" y="608.13" class="st16" v:langID="1044"><v:paragraph/><v:tabList/>ApplicationMetadata</text>		</g>
		<g id="shape461-80" v:mID="461" v:groupContext="shape" transform="translate(-214.822,369.656) rotate(-90)">
			<title>Sheet.461</title>
			<desc>Authentication</desc>
			<v:textBlock v:margins="rect(4,4,4,4)" v:tabSpace="42.5197"/>
			<v:textRect cx="70.8661" cy="604.53" width="141.74" height="25.5118"/>
			<g id="shadow461-81" v:groupContext="shadow" v:shadowOffsetX="0.345598" v:shadowOffsetY="-1.97279" v:shadowType="1"
					transform="matrix(1,0,0,1,-1.97279,0.345598)" class="st1">
				<rect x="0" y="591.775" width="141.732" height="25.5118" class="st2"/>
			</g>
			<rect x="0" y="591.775" width="141.732" height="25.5118" class="st3"/>
			<text x="4" y="608.13" class="st16" v:langID="1044"><v:paragraph/><v:tabList/>Authentication</text>		</g>
		<g id="shape462-86" v:mID="462" v:groupContext="shape" transform="translate(-186.475,369.656) rotate(-90)">
			<title>Sheet.462</title>
			<desc>Authorization</desc>
			<v:textBlock v:margins="rect(4,4,4,4)" v:tabSpace="42.5197"/>
			<v:textRect cx="70.8661" cy="604.53" width="141.74" height="25.5118"/>
			<g id="shadow462-87" v:groupContext="shadow" v:shadowOffsetX="0.345598" v:shadowOffsetY="-1.97279" v:shadowType="1"
					transform="matrix(1,0,0,1,-1.97279,0.345598)" class="st1">
				<rect x="0" y="591.775" width="141.732" height="25.5118" class="st2"/>
			</g>
			<rect x="0" y="591.775" width="141.732" height="25.5118" class="st3"/>
			<text x="4" y="608.13" class="st16" v:langID="1044"><v:paragraph/><v:tabList/>Authorization</text>		</g>
		<g id="shape463-92" v:mID="463" v:groupContext="shape" transform="translate(-158.129,369.656) rotate(-90)">
			<title>Sheet.463</title>
			<desc>Data</desc>
			<v:textBlock v:margins="rect(4,4,4,4)" v:tabSpace="42.5197"/>
			<v:textRect cx="70.8661" cy="604.53" width="141.74" height="25.5118"/>
			<g id="shadow463-93" v:groupContext="shadow" v:shadowOffsetX="0.345598" v:shadowOffsetY="-1.97279" v:shadowType="1"
					transform="matrix(1,0,0,1,-1.97279,0.345598)" class="st1">
				<rect x="0" y="591.775" width="141.732" height="25.5118" class="st2"/>
			</g>
			<rect x="0" y="591.775" width="141.732" height="25.5118" class="st3"/>
			<text x="4" y="608.13" class="st16" v:langID="1044"><v:paragraph/><v:tabList/>Data</text>		</g>
		<g id="shape464-98" v:mID="464" v:groupContext="shape" transform="translate(-129.783,369.656) rotate(-90)">
			<title>Sheet.464</title>
			<desc>Home</desc>
			<v:textBlock v:margins="rect(4,4,4,4)" v:tabSpace="42.5197"/>
			<v:textRect cx="70.8661" cy="604.53" width="141.74" height="25.5118"/>
			<g id="shadow464-99" v:groupContext="shadow" v:shadowOffsetX="0.345598" v:shadowOffsetY="-1.97279" v:shadowType="1"
					transform="matrix(1,0,0,1,-1.97279,0.345598)" class="st1">
				<rect x="0" y="591.775" width="141.732" height="25.5118" class="st2"/>
			</g>
			<rect x="0" y="591.775" width="141.732" height="25.5118" class="st13"/>
			<text x="4" y="608.13" class="st16" v:langID="1044"><v:paragraph/><v:tabList/>Home</text>		</g>
		<g id="shape465-104" v:mID="465" v:groupContext="shape" transform="translate(-101.436,369.656) rotate(-90)">
			<title>Sheet.465</title>
			<desc>Instances</desc>
			<v:textBlock v:margins="rect(4,4,4,4)" v:tabSpace="42.5197"/>
			<v:textRect cx="70.8661" cy="604.53" width="141.74" height="25.5118"/>
			<g id="shadow465-105" v:groupContext="shadow" v:shadowOffsetX="0.345598" v:shadowOffsetY="-1.97279" v:shadowType="1"
					transform="matrix(1,0,0,1,-1.97279,0.345598)" class="st1">
				<rect x="0" y="591.775" width="141.732" height="25.5118" class="st2"/>
			</g>
			<rect x="0" y="591.775" width="141.732" height="25.5118" class="st3"/>
			<text x="4" y="608.13" class="st16" v:langID="1044"><v:paragraph/><v:tabList/>Instances</text>		</g>
		<g id="shape466-110" v:mID="466" v:groupContext="shape" transform="translate(-73.0896,369.656) rotate(-90)">
			<title>Sheet.466</title>
			<desc>Parties</desc>
			<v:textBlock v:margins="rect(4,4,4,4)" v:tabSpace="42.5197"/>
			<v:textRect cx="70.8661" cy="604.53" width="141.74" height="25.5118"/>
			<g id="shadow466-111" v:groupContext="shadow" v:shadowOffsetX="0.345598" v:shadowOffsetY="-1.97279" v:shadowType="1"
					transform="matrix(1,0,0,1,-1.97279,0.345598)" class="st1">
				<rect x="0" y="591.775" width="141.732" height="25.5118" class="st2"/>
			</g>
			<rect x="0" y="591.775" width="141.732" height="25.5118" class="st3"/>
			<text x="4" y="608.13" class="st16" v:langID="1044"><v:paragraph/><v:tabList/>Parties</text>		</g>
		<g id="shape467-116" v:mID="467" v:groupContext="shape" transform="translate(-44.7432,369.656) rotate(-90)">
			<title>Sheet.467</title>
			<desc>Process</desc>
			<v:textBlock v:margins="rect(4,4,4,4)" v:tabSpace="42.5197"/>
			<v:textRect cx="70.8661" cy="604.53" width="141.74" height="25.5118"/>
			<g id="shadow467-117" v:groupContext="shadow" v:shadowOffsetX="0.345598" v:shadowOffsetY="-1.97279" v:shadowType="1"
					transform="matrix(1,0,0,1,-1.97279,0.345598)" class="st1">
				<rect x="0" y="591.775" width="141.732" height="25.5118" class="st2"/>
			</g>
			<rect x="0" y="591.775" width="141.732" height="25.5118" class="st3"/>
			<text x="4" y="608.13" class="st16" v:langID="1044"><v:paragraph/><v:tabList/>Process</text>		</g>
		<g id="shape468-122" v:mID="468" v:groupContext="shape" transform="translate(-16.3967,369.656) rotate(-90)">
			<title>Sheet.468</title>
			<desc>Profile</desc>
			<v:textBlock v:margins="rect(4,4,4,4)" v:tabSpace="42.5197"/>
			<v:textRect cx="70.8661" cy="604.53" width="141.74" height="25.5118"/>
			<g id="shadow468-123" v:groupContext="shadow" v:shadowOffsetX="0.345598" v:shadowOffsetY="-1.97279" v:shadowType="1"
					transform="matrix(1,0,0,1,-1.97279,0.345598)" class="st1">
				<rect x="0" y="591.775" width="141.732" height="25.5118" class="st2"/>
			</g>
			<rect x="0" y="591.775" width="141.732" height="25.5118" class="st3"/>
			<text x="4" y="608.13" class="st16" v:langID="1044"><v:paragraph/><v:tabList/>Profile</text>		</g>
		<g id="shape469-128" v:mID="469" v:groupContext="shape" transform="translate(11.9498,369.656) rotate(-90)">
			<title>Sheet.469</title>
			<desc>Resource</desc>
			<v:textBlock v:margins="rect(4,4,4,4)" v:tabSpace="42.5197"/>
			<v:textRect cx="70.8661" cy="604.53" width="141.74" height="25.5118"/>
			<g id="shadow469-129" v:groupContext="shadow" v:shadowOffsetX="0.345598" v:shadowOffsetY="-1.97279" v:shadowType="1"
					transform="matrix(1,0,0,1,-1.97279,0.345598)" class="st1">
				<rect x="0" y="591.775" width="141.732" height="25.5118" class="st2"/>
			</g>
			<rect x="0" y="591.775" width="141.732" height="25.5118" class="st3"/>
			<text x="4" y="608.13" class="st16" v:langID="1044"><v:paragraph/><v:tabList/>Resource</text>		</g>
		<g id="shape470-134" v:mID="470" v:groupContext="shape" transform="translate(40.2962,369.656) rotate(-90)">
			<title>Sheet.470</title>
			<desc>Validation</desc>
			<v:textBlock v:margins="rect(4,4,4,4)" v:tabSpace="42.5197"/>
			<v:textRect cx="70.8661" cy="604.53" width="141.74" height="25.5118"/>
			<g id="shadow470-135" v:groupContext="shadow" v:shadowOffsetX="0.345598" v:shadowOffsetY="-1.97279" v:shadowType="1"
					transform="matrix(1,0,0,1,-1.97279,0.345598)" class="st1">
				<rect x="0" y="591.775" width="141.732" height="25.5118" class="st2"/>
			</g>
			<rect x="0" y="591.775" width="141.732" height="25.5118" class="st3"/>
			<text x="4" y="608.13" class="st16" v:langID="1044"><v:paragraph/><v:tabList/>Validation</text>		</g>
		<g id="shape474-140" v:mID="474" v:groupContext="shape" transform="translate(-243.168,582.255) rotate(-90)">
			<title>Sheet.474</title>
			<desc>Authorization</desc>
			<v:textBlock v:margins="rect(4,4,4,4)" v:tabSpace="42.5197"/>
			<v:textRect cx="70.8661" cy="604.53" width="141.74" height="25.5118"/>
			<g id="shadow474-141" v:groupContext="shadow" v:shadowOffsetX="0.345598" v:shadowOffsetY="-1.97279" v:shadowType="1"
					transform="matrix(1,0,0,1,-1.97279,0.345598)" class="st1">
				<rect x="0" y="591.775" width="141.732" height="25.5118" class="st2"/>
			</g>
			<rect x="0" y="591.775" width="141.732" height="25.5118" class="st3"/>
			<text x="4" y="608.13" class="st16" v:langID="1044"><v:paragraph/><v:tabList/>Authorization</text>		</g>
		<g id="shape475-146" v:mID="475" v:groupContext="shape" transform="translate(-214.822,582.255) rotate(-90)">
			<title>Sheet.475</title>
			<desc>DSF</desc>
			<v:textBlock v:margins="rect(4,4,4,4)" v:tabSpace="42.5197"/>
			<v:textRect cx="70.8661" cy="604.53" width="141.74" height="25.5118"/>
			<g id="shadow475-147" v:groupContext="shadow" v:shadowOffsetX="0.345598" v:shadowOffsetY="-1.97279" v:shadowType="1"
					transform="matrix(1,0,0,1,-1.97279,0.345598)" class="st1">
				<rect x="0" y="591.775" width="141.732" height="25.5118" class="st2"/>
			</g>
			<rect x="0" y="591.775" width="141.732" height="25.5118" class="st3"/>
			<text x="4" y="608.13" class="st16" v:langID="1044"><v:paragraph/><v:tabList/>DSF</text>		</g>
		<g id="shape476-152" v:mID="476" v:groupContext="shape" transform="translate(-186.475,582.255) rotate(-90)">
			<title>Sheet.476</title>
			<desc>Data</desc>
			<v:textBlock v:margins="rect(4,4,4,4)" v:tabSpace="42.5197"/>
			<v:textRect cx="70.8661" cy="604.53" width="141.74" height="25.5118"/>
			<g id="shadow476-153" v:groupContext="shadow" v:shadowOffsetX="0.345598" v:shadowOffsetY="-1.97279" v:shadowType="1"
					transform="matrix(1,0,0,1,-1.97279,0.345598)" class="st1">
				<rect x="0" y="591.775" width="141.732" height="25.5118" class="st2"/>
			</g>
			<rect x="0" y="591.775" width="141.732" height="25.5118" class="st3"/>
			<text x="4" y="608.13" class="st16" v:langID="1044"><v:paragraph/><v:tabList/>Data</text>		</g>
		<g id="shape477-158" v:mID="477" v:groupContext="shape" transform="translate(-158.129,582.255) rotate(-90)">
			<title>Sheet.477</title>
			<desc>ER</desc>
			<v:textBlock v:margins="rect(4,4,4,4)" v:tabSpace="42.5197"/>
			<v:textRect cx="70.8661" cy="604.53" width="141.74" height="25.5118"/>
			<g id="shadow477-159" v:groupContext="shadow" v:shadowOffsetX="0.345598" v:shadowOffsetY="-1.97279" v:shadowType="1"
					transform="matrix(1,0,0,1,-1.97279,0.345598)" class="st1">
				<rect x="0" y="591.775" width="141.732" height="25.5118" class="st2"/>
			</g>
			<rect x="0" y="591.775" width="141.732" height="25.5118" class="st3"/>
			<text x="4" y="608.13" class="st16" v:langID="1044"><v:paragraph/><v:tabList/>ER</text>		</g>
		<g id="shape478-164" v:mID="478" v:groupContext="shape" transform="translate(-129.783,582.255) rotate(-90)">
			<title>Sheet.478</title>
			<desc>Instances</desc>
			<v:textBlock v:margins="rect(4,4,4,4)" v:tabSpace="42.5197"/>
			<v:textRect cx="70.8661" cy="604.53" width="141.74" height="25.5118"/>
			<g id="shadow478-165" v:groupContext="shadow" v:shadowOffsetX="0.345598" v:shadowOffsetY="-1.97279" v:shadowType="1"
					transform="matrix(1,0,0,1,-1.97279,0.345598)" class="st1">
				<rect x="0" y="591.775" width="141.732" height="25.5118" class="st2"/>
			</g>
			<rect x="0" y="591.775" width="141.732" height="25.5118" class="st3"/>
			<text x="4" y="608.13" class="st16" v:langID="1044"><v:paragraph/><v:tabList/>Instances</text>		</g>
		<g id="shape479-170" v:mID="479" v:groupContext="shape" transform="translate(-101.436,582.255) rotate(-90)">
			<title>Sheet.479</title>
			<desc>InstanceEvent</desc>
			<v:textBlock v:margins="rect(4,4,4,4)" v:tabSpace="42.5197"/>
			<v:textRect cx="70.8661" cy="604.53" width="141.74" height="25.5118"/>
			<g id="shadow479-171" v:groupContext="shadow" v:shadowOffsetX="0.345598" v:shadowOffsetY="-1.97279" v:shadowType="1"
					transform="matrix(1,0,0,1,-1.97279,0.345598)" class="st1">
				<rect x="0" y="591.775" width="141.732" height="25.5118" class="st2"/>
			</g>
			<rect x="0" y="591.775" width="141.732" height="25.5118" class="st3"/>
			<text x="4" y="608.13" class="st16" v:langID="1044"><v:paragraph/><v:tabList/>InstanceEvent</text>		</g>
		<g id="shape480-176" v:mID="480" v:groupContext="shape" transform="translate(-73.0896,582.255) rotate(-90)">
			<title>Sheet.480</title>
			<desc>PDF</desc>
			<v:textBlock v:margins="rect(4,4,4,4)" v:tabSpace="42.5197"/>
			<v:textRect cx="70.8661" cy="604.53" width="141.74" height="25.5118"/>
			<g id="shadow480-177" v:groupContext="shadow" v:shadowOffsetX="0.345598" v:shadowOffsetY="-1.97279" v:shadowType="1"
					transform="matrix(1,0,0,1,-1.97279,0.345598)" class="st1">
				<rect x="0" y="591.775" width="141.732" height="25.5118" class="st2"/>
			</g>
			<rect x="0" y="591.775" width="141.732" height="25.5118" class="st3"/>
			<text x="4" y="608.13" class="st16" v:langID="1044"><v:paragraph/><v:tabList/>PDF</text>		</g>
		<g id="shape481-182" v:mID="481" v:groupContext="shape" transform="translate(-44.7432,582.255) rotate(-90)">
			<title>Sheet.481</title>
			<desc>Prefill</desc>
			<v:textBlock v:margins="rect(4,4,4,4)" v:tabSpace="42.5197"/>
			<v:textRect cx="70.8661" cy="604.53" width="141.74" height="25.5118"/>
			<g id="shadow481-183" v:groupContext="shadow" v:shadowOffsetX="0.345598" v:shadowOffsetY="-1.97279" v:shadowType="1"
					transform="matrix(1,0,0,1,-1.97279,0.345598)" class="st1">
				<rect x="0" y="591.775" width="141.732" height="25.5118" class="st2"/>
			</g>
			<rect x="0" y="591.775" width="141.732" height="25.5118" class="st3"/>
			<text x="4" y="608.13" class="st16" v:langID="1044"><v:paragraph/><v:tabList/>Prefill</text>		</g>
		<g id="shape482-188" v:mID="482" v:groupContext="shape" transform="translate(-16.3967,582.255) rotate(-90)">
			<title>Sheet.482</title>
			<desc>Process</desc>
			<v:textBlock v:margins="rect(4,4,4,4)" v:tabSpace="42.5197"/>
			<v:textRect cx="70.8661" cy="604.53" width="141.74" height="25.5118"/>
			<g id="shadow482-189" v:groupContext="shadow" v:shadowOffsetX="0.345598" v:shadowOffsetY="-1.97279" v:shadowType="1"
					transform="matrix(1,0,0,1,-1.97279,0.345598)" class="st1">
				<rect x="0" y="591.775" width="141.732" height="25.5118" class="st2"/>
			</g>
			<rect x="0" y="591.775" width="141.732" height="25.5118" class="st3"/>
			<text x="4" y="608.13" class="st16" v:langID="1044"><v:paragraph/><v:tabList/>Process</text>		</g>
		<g id="shape483-194" v:mID="483" v:groupContext="shape" transform="translate(11.9498,582.255) rotate(-90)">
			<title>Sheet.483</title>
			<desc>Profile</desc>
			<v:textBlock v:margins="rect(4,4,4,4)" v:tabSpace="42.5197"/>
			<v:textRect cx="70.8661" cy="604.53" width="141.74" height="25.5118"/>
			<g id="shadow483-195" v:groupContext="shadow" v:shadowOffsetX="0.345598" v:shadowOffsetY="-1.97279" v:shadowType="1"
					transform="matrix(1,0,0,1,-1.97279,0.345598)" class="st1">
				<rect x="0" y="591.775" width="141.732" height="25.5118" class="st2"/>
			</g>
			<rect x="0" y="591.775" width="141.732" height="25.5118" class="st3"/>
			<text x="4" y="608.13" class="st16" v:langID="1044"><v:paragraph/><v:tabList/>Profile</text>		</g>
		<g id="shape484-200" v:mID="484" v:groupContext="shape" transform="translate(40.2962,582.255) rotate(-90)">
			<title>Sheet.484</title>
			<desc>Register</desc>
			<v:textBlock v:margins="rect(4,4,4,4)" v:tabSpace="42.5197"/>
			<v:textRect cx="70.8661" cy="604.53" width="141.74" height="25.5118"/>
			<g id="shadow484-201" v:groupContext="shadow" v:shadowOffsetX="0.345598" v:shadowOffsetY="-1.97279" v:shadowType="1"
					transform="matrix(1,0,0,1,-1.97279,0.345598)" class="st1">
				<rect x="0" y="591.775" width="141.732" height="25.5118" class="st2"/>
			</g>
			<rect x="0" y="591.775" width="141.732" height="25.5118" class="st3"/>
			<text x="4" y="608.13" class="st16" v:langID="1044"><v:paragraph/><v:tabList/>Register</text>		</g>
		<g id="shape485-206" v:mID="485" v:groupContext="shape" transform="translate(68.6427,582.255) rotate(-90)">
			<title>Sheet.485</title>
			<desc>Validation</desc>
			<v:textBlock v:margins="rect(4,4,4,4)" v:tabSpace="42.5197"/>
			<v:textRect cx="70.8661" cy="604.53" width="141.74" height="25.5118"/>
			<g id="shadow485-207" v:groupContext="shadow" v:shadowOffsetX="0.345598" v:shadowOffsetY="-1.97279" v:shadowType="1"
					transform="matrix(1,0,0,1,-1.97279,0.345598)" class="st1">
				<rect x="0" y="591.775" width="141.732" height="25.5118" class="st2"/>
			</g>
			<rect x="0" y="591.775" width="141.732" height="25.5118" class="st3"/>
			<text x="4" y="608.13" class="st16" v:langID="1044"><v:paragraph/><v:tabList/>Validation</text>		</g>
		<a xlink:href="/Content/RedirectToContent/?ContentType=Resource&#38;Title=Archive">
			<g id="shape488-212" v:mID="488" v:groupContext="shape" transform="translate(172.858,-20.8585)">
				<title>Sheet.488</title>
				<g id="shadow488-213" v:groupContext="shadow" v:shadowOffsetX="0.345598" v:shadowOffsetY="-1.97279"
						v:shadowType="1" transform="matrix(1,0,0,1,0.345598,1.97279)" class="st1">
					<rect x="0" y="433.034" width="113.386" height="184.252" class="st2"/>
				</g>
				<rect x="0" y="433.034" width="113.386" height="184.252" class="st4"/>
			</g>
		</a>
		<g id="shape489-217" v:mID="489" v:groupContext="shape" transform="translate(142.102,-182.747)">
			<title>Sheet.489</title>
			<desc>Altinn.App.Common</desc>
			<v:textBlock v:margins="rect(4,4,4,4)" v:tabSpace="42.5197"/>
			<v:textRect cx="81.9921" cy="609.349" width="163.99" height="15.874"/>
			<rect x="0" y="601.412" width="163.984" height="15.874" class="st10"/>
			<text x="32.38" y="612.95" class="st11" v:langID="1044"><v:paragraph v:horizAlign="1"/><v:tabList/>Altinn.App.Common</text>		</g>
		<g id="shape490-220" v:mID="490" v:groupContext="shape" transform="translate(-554.979,369.656) rotate(-90)">
			<title>Sheet.490</title>
			<desc>Custom Api A</desc>
			<v:textBlock v:margins="rect(4,4,4,4)" v:tabSpace="42.5197"/>
			<v:textRect cx="70.8661" cy="604.53" width="141.74" height="25.5118"/>
			<g id="shadow490-221" v:groupContext="shadow" v:shadowOffsetX="0.345598" v:shadowOffsetY="-1.97279" v:shadowType="1"
					transform="matrix(1,0,0,1,-1.97279,0.345598)" class="st1">
				<rect x="0" y="591.775" width="141.732" height="25.5118" class="st2"/>
			</g>
			<rect x="0" y="591.775" width="141.732" height="25.5118" class="st3"/>
			<text x="4" y="608.13" class="st16" v:langID="1044"><v:paragraph/><v:tabList/>Custom Api A</text>		</g>
		<g id="shape492-226" v:mID="492" v:groupContext="shape" transform="translate(-526.633,369.656) rotate(-90)">
			<title>Sheet.492</title>
			<desc>Custom Api B</desc>
			<v:textBlock v:margins="rect(4,4,4,4)" v:tabSpace="42.5197"/>
			<v:textRect cx="70.8661" cy="604.53" width="141.74" height="25.5118"/>
			<g id="shadow492-227" v:groupContext="shadow" v:shadowOffsetX="0.345598" v:shadowOffsetY="-1.97279" v:shadowType="1"
					transform="matrix(1,0,0,1,-1.97279,0.345598)" class="st1">
				<rect x="0" y="591.775" width="141.732" height="25.5118" class="st2"/>
			</g>
			<rect x="0" y="591.775" width="141.732" height="25.5118" class="st3"/>
			<text x="4" y="608.13" class="st16" v:langID="1044"><v:paragraph/><v:tabList/>Custom Api B</text>		</g>
		<g id="shape493-232" v:mID="493" v:groupContext="shape" transform="translate(-498.286,369.656) rotate(-90)">
			<title>Sheet.493</title>
			<desc>Custom Api C</desc>
			<v:textBlock v:margins="rect(4,4,4,4)" v:tabSpace="42.5197"/>
			<v:textRect cx="70.8661" cy="604.53" width="141.74" height="25.5118"/>
			<g id="shadow493-233" v:groupContext="shadow" v:shadowOffsetX="0.345598" v:shadowOffsetY="-1.97279" v:shadowType="1"
					transform="matrix(1,0,0,1,-1.97279,0.345598)" class="st1">
				<rect x="0" y="591.775" width="141.732" height="25.5118" class="st2"/>
			</g>
			<rect x="0" y="591.775" width="141.732" height="25.5118" class="st3"/>
			<text x="4" y="608.13" class="st16" v:langID="1044"><v:paragraph/><v:tabList/>Custom Api C</text>		</g>
		<g id="shape494-238" v:mID="494" v:groupContext="shape" transform="translate(-554.979,582.255) rotate(-90)">
			<title>Sheet.494</title>
			<desc>App</desc>
			<v:textBlock v:margins="rect(4,4,4,4)" v:tabSpace="42.5197"/>
			<v:textRect cx="70.8661" cy="604.53" width="141.74" height="25.5118"/>
			<g id="shadow494-239" v:groupContext="shadow" v:shadowOffsetX="0.345598" v:shadowOffsetY="-1.97279" v:shadowType="1"
					transform="matrix(1,0,0,1,-1.97279,0.345598)" class="st1">
				<rect x="0" y="591.775" width="141.732" height="25.5118" class="st2"/>
			</g>
			<rect x="0" y="591.775" width="141.732" height="25.5118" class="st3"/>
			<text x="4" y="608.13" class="st16" v:langID="1044"><v:paragraph/><v:tabList/>App</text>		</g>
		<g id="shape495-244" v:mID="495" v:groupContext="shape" transform="translate(-526.633,582.255) rotate(-90)">
			<title>Sheet.495</title>
			<desc>Custom Client X</desc>
			<v:textBlock v:margins="rect(4,4,4,4)" v:tabSpace="42.5197"/>
			<v:textRect cx="70.8661" cy="604.53" width="141.74" height="25.5118"/>
			<g id="shadow495-245" v:groupContext="shadow" v:shadowOffsetX="0.345598" v:shadowOffsetY="-1.97279" v:shadowType="1"
					transform="matrix(1,0,0,1,-1.97279,0.345598)" class="st1">
				<rect x="0" y="591.775" width="141.732" height="25.5118" class="st2"/>
			</g>
			<rect x="0" y="591.775" width="141.732" height="25.5118" class="st3"/>
			<text x="4" y="608.13" class="st16" v:langID="1044"><v:paragraph/><v:tabList/>Custom Client X</text>		</g>
		<g id="shape496-250" v:mID="496" v:groupContext="shape" transform="translate(-498.286,582.255) rotate(-90)">
			<title>Sheet.496</title>
			<desc>Custom Client Z</desc>
			<v:textBlock v:margins="rect(4,4,4,4)" v:tabSpace="42.5197"/>
			<v:textRect cx="70.8661" cy="604.53" width="141.74" height="25.5118"/>
			<g id="shadow496-251" v:groupContext="shadow" v:shadowOffsetX="0.345598" v:shadowOffsetY="-1.97279" v:shadowType="1"
					transform="matrix(1,0,0,1,-1.97279,0.345598)" class="st1">
				<rect x="0" y="591.775" width="141.732" height="25.5118" class="st2"/>
			</g>
			<rect x="0" y="591.775" width="141.732" height="25.5118" class="st3"/>
			<text x="4" y="608.13" class="st16" v:langID="1044"><v:paragraph/><v:tabList/>Custom Client Z</text>		</g>
		<g id="shape497-256" v:mID="497" v:groupContext="shape" transform="translate(-413.247,582.255) rotate(-90)">
			<title>Sheet.497</title>
			<desc>AppResource</desc>
			<v:textBlock v:margins="rect(4,4,4,4)" v:tabSpace="42.5197"/>
			<v:textRect cx="70.8661" cy="604.53" width="141.74" height="25.5118"/>
			<g id="shadow497-257" v:groupContext="shadow" v:shadowOffsetX="0.345598" v:shadowOffsetY="-1.97279" v:shadowType="1"
					transform="matrix(1,0,0,1,-1.97279,0.345598)" class="st1">
				<rect x="0" y="591.775" width="141.732" height="25.5118" class="st2"/>
			</g>
			<rect x="0" y="591.775" width="141.732" height="25.5118" class="st3"/>
			<text x="4" y="608.13" class="st16" v:langID="1044"><v:paragraph/><v:tabList/>AppResource</text>		</g>
		<g id="shape498-262" v:mID="498" v:groupContext="shape" transform="translate(12.1337,-502.748)">
			<title>Sheet.498</title>
			<g id="shadow498-263" v:groupContext="shadow" v:shadowOffsetX="0.345598" v:shadowOffsetY="-1.97279" v:shadowType="1"
					transform="matrix(1,0,0,1,0.345598,1.97279)" class="st1">
				<rect x="0" y="574.767" width="717.165" height="42.5197" class="st5"/>
			</g>
			<rect x="0" y="574.767" width="717.165" height="42.5197" class="st7"/>
		</g>
		<g id="shape18-271" v:mID="18" v:groupContext="shape" transform="translate(36.7951,-505.583)">
			<title>Sheet.18</title>
			<desc>AuthenticationHandler</desc>
			<v:textBlock v:margins="rect(4,4,4,4)" v:tabSpace="42.5197"/>
			<v:textRect cx="340.157" cy="604.53" width="680.32" height="25.5118"/>
			<g id="shadow18-272" v:groupContext="shadow" v:shadowOffsetX="0.345598" v:shadowOffsetY="-1.97279" v:shadowType="1"
					transform="matrix(1,0,0,1,0.345598,1.97279)" class="st1">
				<rect x="0" y="591.775" width="680.315" height="25.5118" class="st2"/>
			</g>
			<rect x="0" y="591.775" width="680.315" height="25.5118" class="st15"/>
			<text x="284.36" y="608.13" class="st16" v:langID="1044"><v:paragraph v:horizAlign="1"/><v:tabList/>AuthenticationHandler</text>		</g>
		<g id="shape499-277" v:mID="499" v:groupContext="shape" transform="translate(12.1337,-472.261)">
			<title>Sheet.499</title>
			<desc>Altinn.Common.PEP</desc>
			<v:textBlock v:margins="rect(4,4,4,4)" v:tabSpace="42.5197"/>
			<v:textRect cx="68.0315" cy="609.349" width="136.07" height="15.874"/>
			<rect x="0" y="601.412" width="136.063" height="15.874" class="st10"/>
			<text x="4" y="612.95" class="st11" v:langID="1044"><v:paragraph/><v:tabList/>Altinn.Common.PEP</text>		</g>
		<g id="shape500-280" v:mID="500" v:groupContext="shape" transform="translate(12.1337,-531.095)">
			<title>Sheet.500</title>
			<desc>JWTCookieAuthentication</desc>
			<v:textBlock v:margins="rect(4,4,4,4)" v:tabSpace="42.5197"/>
			<v:textRect cx="68.0315" cy="609.349" width="136.07" height="15.874"/>
			<rect x="0" y="601.412" width="136.063" height="15.874" class="st10"/>
			<text x="4" y="612.95" class="st11" v:langID="1044"><v:paragraph/><v:tabList/>JWTCookieAuthentication</text>		</g>
		<g id="shape503-283" v:mID="503" v:groupContext="shape" transform="translate(8.44873,-551.504)">
			<title>Sheet.503</title>
			<desc>App (asp.net template)</desc>
			<v:textBlock v:margins="rect(4,4,4,4)" v:tabSpace="42.5197"/>
			<v:textRect cx="68.0315" cy="609.349" width="136.07" height="15.874"/>
			<rect x="0" y="601.412" width="136.063" height="15.874" class="st10"/>
			<text x="4" y="612.95" class="st12" v:langID="1044"><v:paragraph/><v:tabList/>App (asp.net template)</text>		</g>
		<g id="shape506-286" v:mID="506" v:groupContext="shape" transform="translate(31.1258,-207.945)">
			<title>Sheet.506</title>
			<desc>App model A</desc>
			<v:textBlock v:margins="rect(4,4,4,4)" v:tabSpace="42.5197"/>
			<v:textRect cx="56.6929" cy="604.53" width="113.39" height="25.5118"/>
			<g id="shadow506-287" v:groupContext="shadow" v:shadowOffsetX="0.345598" v:shadowOffsetY="-1.97279" v:shadowType="1"
					transform="matrix(1,0,0,1,0.345598,1.97279)" class="st1">
				<rect x="0" y="591.775" width="113.386" height="25.5118" class="st2"/>
			</g>
			<rect x="0" y="591.775" width="113.386" height="25.5118" class="st3"/>
			<text x="4" y="608.13" class="st16" v:langID="1044"><v:paragraph/><v:tabList/>App model A</text>		</g>
		<g id="shape507-292" v:mID="507" v:groupContext="shape" transform="translate(42.4644,-193.772)">
			<title>Sheet.507</title>
			<desc>App model B</desc>
			<v:textBlock v:margins="rect(4,4,4,4)" v:tabSpace="42.5197"/>
			<v:textRect cx="56.6929" cy="604.53" width="113.39" height="25.5118"/>
			<g id="shadow507-293" v:groupContext="shadow" v:shadowOffsetX="0.345598" v:shadowOffsetY="-1.97279" v:shadowType="1"
					transform="matrix(1,0,0,1,0.345598,1.97279)" class="st1">
				<rect x="0" y="591.775" width="113.386" height="25.5118" class="st2"/>
			</g>
			<rect x="0" y="591.775" width="113.386" height="25.5118" class="st3"/>
			<text x="4" y="608.13" class="st16" v:langID="1044"><v:paragraph/><v:tabList/>App model B</text>		</g>
	</g>
</svg>
