<svg width="1966" height="466" viewBox="0 0 1966 466" fill="none" xmlns="http://www.w3.org/2000/svg">
<g clip-path="url(#clip0)">
<path d="M0 101.556H370.491L438 231.556L370.491 360.556H0V101.556Z" fill="#EFEFEF"/>
<path d="M402 101.556H772.491L840 231.556L772.491 360.556H402L473 231.556L402 101.556Z" fill="#EFEFEF"/>
<path d="M1197 102H1567.49L1635 232L1567.49 361H1197L1268 232L1197 102Z" fill="#EFEFEF"/>
<path d="M1596 102H1966.49V232V361H1596L1667 232L1596 102Z" fill="#D4F9E4"/>
<path d="M869 245H1236L1168.49 361H798L869 245Z" fill="#022F51"/>
<path d="M798 102H1168.49L1236 222H869L798 102Z" fill="#EFEFEF"/>
<path d="M71.5195 203.091H83.9648V200.7H68.8828V225.556H71.5195V214.165H82.1719V211.81H71.5195V203.091ZM87.6211 223.974C88.8867 225.169 90.5742 225.767 92.7188 225.767C94.793 225.767 96.4805 225.169 97.7461 223.974C99.0117 222.778 99.6445 220.88 99.6445 218.278V214.552C99.6445 211.95 99.0117 210.052 97.7461 208.856C96.4805 207.661 94.793 207.063 92.7188 207.063C90.5742 207.063 88.8867 207.661 87.6211 208.856C86.3555 210.052 85.6875 211.95 85.6875 214.552V218.278C85.6875 220.88 86.3555 222.778 87.6211 223.974ZM95.9883 222.356C95.1797 223.165 94.0898 223.587 92.7188 223.587C91.3125 223.587 90.1875 223.165 89.3789 222.356C88.5703 221.548 88.1484 220.142 88.1484 218.138V214.692C88.1484 212.688 88.5703 211.282 89.3789 210.474C90.1875 209.665 91.3125 209.278 92.7188 209.278C94.0898 209.278 95.1797 209.665 95.9883 210.474C96.7969 211.282 97.1836 212.688 97.1836 214.692V218.138C97.1836 220.142 96.7969 221.548 95.9883 222.356ZM104.461 207.31V225.556H106.887V213.989C106.887 212.583 107.309 211.493 108.082 210.614C108.855 209.735 109.875 209.313 111.105 209.313C111.773 209.313 112.406 209.419 112.969 209.595V207.169C112.547 207.099 112.125 207.063 111.668 207.063C110.648 207.063 109.699 207.274 108.855 207.731C108.012 208.188 107.344 208.821 106.852 209.735V207.31H104.461ZM118.453 216.907H129.879V214.763C129.879 212.161 129.246 210.192 127.98 208.927C126.715 207.661 125.027 207.063 122.953 207.063C120.879 207.063 119.191 207.661 117.926 208.927C116.66 210.192 115.992 212.161 115.992 214.763V217.927C115.992 220.599 116.66 222.603 117.926 223.868C119.191 225.134 120.879 225.767 123.023 225.767C125.098 225.767 126.75 225.239 127.945 224.22C129.141 223.2 129.738 221.794 129.738 220.106V219.931H127.348V220.036C127.348 221.126 126.996 222.005 126.258 222.638C125.52 223.271 124.5 223.587 123.199 223.587C121.723 223.587 120.562 223.165 119.719 222.321C118.875 221.478 118.453 220.071 118.453 217.997V216.907ZM119.684 210.474C120.492 209.665 121.582 209.278 122.953 209.278C124.359 209.278 125.414 209.665 126.223 210.438C127.031 211.212 127.418 212.548 127.418 214.446V215.079H118.453V214.692C118.453 212.688 118.875 211.282 119.684 210.474ZM135.469 224.325C136.664 225.274 138.281 225.767 140.285 225.767C142.359 225.767 144.047 225.31 145.277 224.36C146.508 223.411 147.141 222.075 147.141 220.353C147.141 218.911 146.719 217.821 145.875 217.048C145.031 216.274 143.695 215.747 141.902 215.396L139.512 214.974C138.422 214.798 137.578 214.481 137.086 214.024C136.594 213.567 136.348 212.97 136.348 212.161C136.348 211.212 136.699 210.474 137.402 209.911C138.105 209.349 139.125 209.067 140.391 209.067C141.691 209.067 142.711 209.349 143.449 209.911C144.188 210.474 144.539 211.212 144.539 212.161V212.267H146.93V212.056C146.93 210.579 146.332 209.349 145.137 208.435C143.941 207.521 142.324 207.063 140.32 207.063C138.457 207.063 136.875 207.521 135.715 208.47C134.555 209.419 133.957 210.685 133.957 212.267C133.957 213.673 134.379 214.763 135.188 215.501C135.996 216.239 137.297 216.767 139.09 217.083L141.34 217.505C142.535 217.716 143.414 218.032 143.941 218.454C144.469 218.876 144.785 219.579 144.785 220.493C144.785 221.513 144.363 222.286 143.59 222.849C142.816 223.411 141.762 223.692 140.391 223.692C139.055 223.692 138 223.411 137.227 222.813C136.453 222.216 136.066 221.442 136.066 220.423V220.282H133.676V220.458C133.676 222.075 134.273 223.376 135.469 224.325ZM152.484 224.325C153.258 225.134 154.348 225.556 155.824 225.556H157.547V223.341H156.07C155.262 223.341 154.664 223.095 154.312 222.673C153.961 222.251 153.75 221.583 153.75 220.634V200.7H151.324V220.774C151.324 222.321 151.711 223.517 152.484 224.325ZM171.891 208.61C170.766 207.591 169.148 207.063 167.004 207.063C165.035 207.063 163.488 207.521 162.363 208.47C161.238 209.419 160.641 210.649 160.641 212.196V212.372H163.031V212.267C163.031 211.282 163.383 210.509 164.086 209.946C164.789 209.384 165.809 209.103 167.039 209.103C168.375 209.103 169.395 209.454 170.098 210.122C170.801 210.79 171.152 211.774 171.152 213.11V215.185H166.23C164.297 215.185 162.785 215.677 161.73 216.591C160.676 217.505 160.113 218.806 160.113 220.423C160.113 222.181 160.641 223.481 161.695 224.396C162.75 225.31 164.227 225.767 166.16 225.767C167.32 225.767 168.34 225.591 169.148 225.239C169.957 224.888 170.66 224.36 171.223 223.622V225.556H173.613V213.146C173.613 211.142 173.016 209.63 171.891 208.61ZM170.062 222.708C169.324 223.446 168.164 223.798 166.547 223.798C163.875 223.798 162.574 222.673 162.574 220.388C162.574 218.138 163.91 216.978 166.582 216.978H171.152V219.368C171.152 220.845 170.801 221.97 170.062 222.708ZM164.93 204.497C165.527 205.13 166.336 205.446 167.285 205.446C168.234 205.446 168.973 205.13 169.605 204.497C170.238 203.864 170.555 203.091 170.555 202.142C170.555 201.192 170.238 200.419 169.605 199.786C168.973 199.153 168.234 198.837 167.285 198.837C166.336 198.837 165.527 199.153 164.93 199.786C164.332 200.419 164.016 201.192 164.016 202.142C164.016 203.091 164.332 203.864 164.93 204.497ZM168.621 203.513C168.27 203.864 167.812 204.075 167.285 204.075C166.758 204.075 166.301 203.864 165.949 203.513C165.598 203.161 165.422 202.704 165.422 202.142C165.422 201.579 165.598 201.157 165.949 200.771C166.301 200.384 166.758 200.208 167.285 200.208C167.812 200.208 168.27 200.384 168.621 200.771C168.973 201.157 169.148 201.579 169.148 202.142C169.148 202.704 168.973 203.161 168.621 203.513ZM188.66 216.907H200.086V214.763C200.086 212.161 199.453 210.192 198.188 208.927C196.922 207.661 195.234 207.063 193.16 207.063C191.086 207.063 189.398 207.661 188.133 208.927C186.867 210.192 186.199 212.161 186.199 214.763V217.927C186.199 220.599 186.867 222.603 188.133 223.868C189.398 225.134 191.086 225.767 193.23 225.767C195.305 225.767 196.957 225.239 198.152 224.22C199.348 223.2 199.945 221.794 199.945 220.106V219.931H197.555V220.036C197.555 221.126 197.203 222.005 196.465 222.638C195.727 223.271 194.707 223.587 193.406 223.587C191.93 223.587 190.77 223.165 189.926 222.321C189.082 221.478 188.66 220.071 188.66 217.997V216.907ZM189.891 210.474C190.699 209.665 191.789 209.278 193.16 209.278C194.566 209.278 195.621 209.665 196.43 210.438C197.238 211.212 197.625 212.548 197.625 214.446V215.079H188.66V214.692C188.66 212.688 189.082 211.282 189.891 210.474ZM204.902 207.31V225.556H207.328V213.919C207.328 212.442 207.75 211.282 208.523 210.474C209.297 209.665 210.316 209.278 211.617 209.278C212.953 209.278 213.973 209.665 214.711 210.474C215.449 211.282 215.836 212.407 215.836 213.919V225.556H218.297V213.567C218.297 211.528 217.77 209.911 216.715 208.786C215.66 207.661 214.184 207.099 212.25 207.099C211.195 207.099 210.211 207.274 209.367 207.696C208.523 208.118 207.82 208.716 207.293 209.524V207.31H204.902ZM231.48 207.31V225.556H233.906V213.919C233.906 212.442 234.328 211.282 235.102 210.474C235.875 209.665 236.895 209.278 238.195 209.278C239.531 209.278 240.551 209.665 241.289 210.474C242.027 211.282 242.414 212.407 242.414 213.919V225.556H244.875V213.567C244.875 211.528 244.348 209.911 243.293 208.786C242.238 207.661 240.762 207.099 238.828 207.099C237.773 207.099 236.789 207.274 235.945 207.696C235.102 208.118 234.398 208.716 233.871 209.524V207.31H231.48ZM262.84 207.31H260.273L255.492 221.829L250.711 207.31H248.039L254.332 225.38L253.945 226.505C253.664 227.313 253.312 227.911 252.855 228.263C252.398 228.614 251.73 228.79 250.852 228.79H249.973V231.04H251.027C252.258 231.04 253.277 230.759 254.051 230.196C254.824 229.634 255.422 228.755 255.844 227.524L262.84 207.31ZM74.5781 255.099L80.0977 264.556H83.0859L76.1953 253.2L82.0664 246.31H79.1133L71.1328 256.013V239.7H68.707V264.556H71.1328V259.106L74.5781 255.099ZM87.7969 262.974C89.0625 264.169 90.75 264.767 92.8945 264.767C94.9688 264.767 96.6562 264.169 97.9219 262.974C99.1875 261.778 99.8203 259.88 99.8203 257.278V253.552C99.8203 250.95 99.1875 249.052 97.9219 247.856C96.6562 246.661 94.9688 246.063 92.8945 246.063C90.75 246.063 89.0625 246.661 87.7969 247.856C86.5312 249.052 85.8633 250.95 85.8633 253.552V257.278C85.8633 259.88 86.5312 261.778 87.7969 262.974ZM96.1641 261.356C95.3555 262.165 94.2656 262.587 92.8945 262.587C91.4883 262.587 90.3633 262.165 89.5547 261.356C88.7461 260.548 88.3242 259.142 88.3242 257.138V253.692C88.3242 251.688 88.7461 250.282 89.5547 249.474C90.3633 248.665 91.4883 248.278 92.8945 248.278C94.2656 248.278 95.3555 248.665 96.1641 249.474C96.9727 250.282 97.3594 251.688 97.3594 253.692V257.138C97.3594 259.142 96.9727 260.548 96.1641 261.356ZM104.637 246.31V264.556H107.062V252.919C107.062 251.442 107.484 250.282 108.258 249.474C109.031 248.665 110.051 248.278 111.352 248.278C112.688 248.278 113.707 248.665 114.445 249.474C115.184 250.282 115.535 251.407 115.535 252.919V264.556H118.031V252.813C118.031 251.407 118.383 250.282 119.156 249.474C119.93 248.665 120.984 248.278 122.32 248.278C123.656 248.278 124.641 248.665 125.379 249.474C126.117 250.282 126.469 251.407 126.469 252.919V264.556H128.93V252.567C128.93 250.528 128.402 248.911 127.312 247.786C126.223 246.661 124.711 246.099 122.777 246.099C120.281 246.099 118.418 247.118 117.223 249.157C116.73 248.173 116.062 247.399 115.184 246.872C114.305 246.345 113.215 246.099 111.984 246.099C110.93 246.099 109.945 246.31 109.102 246.731C108.258 247.153 107.555 247.716 107.027 248.524V246.31H104.637ZM134.309 246.31V270.04H136.734V262.13C137.754 263.888 139.406 264.767 141.691 264.767C143.484 264.767 144.961 264.169 146.121 262.974C147.281 261.778 147.844 259.88 147.844 257.278V253.552C147.844 250.985 147.246 249.087 146.086 247.892C144.926 246.696 143.379 246.099 141.516 246.099C140.461 246.099 139.512 246.345 138.703 246.802C137.895 247.259 137.227 247.962 136.734 248.876V246.31H134.309ZM145.383 257.138C145.383 260.759 144.012 262.587 141.305 262.587C139.828 262.587 138.703 262.06 137.93 261.04C137.156 260.021 136.734 258.72 136.734 257.103V253.903C136.734 252.216 137.121 250.845 137.859 249.825C138.598 248.806 139.688 248.278 141.164 248.278C143.977 248.278 145.383 250.106 145.383 253.728V257.138ZM153.996 262.974C155.262 264.169 156.949 264.767 159.094 264.767C161.168 264.767 162.855 264.169 164.121 262.974C165.387 261.778 166.02 259.88 166.02 257.278V253.552C166.02 250.95 165.387 249.052 164.121 247.856C162.855 246.661 161.168 246.063 159.094 246.063C156.949 246.063 155.262 246.661 153.996 247.856C152.73 249.052 152.062 250.95 152.062 253.552V257.278C152.062 259.88 152.73 261.778 153.996 262.974ZM162.363 261.356C161.555 262.165 160.465 262.587 159.094 262.587C157.688 262.587 156.562 262.165 155.754 261.356C154.945 260.548 154.523 259.142 154.523 257.138V253.692C154.523 251.688 154.945 250.282 155.754 249.474C156.562 248.665 157.688 248.278 159.094 248.278C160.465 248.278 161.555 248.665 162.363 249.474C163.172 250.282 163.559 251.688 163.559 253.692V257.138C163.559 259.142 163.172 260.548 162.363 261.356ZM170.836 246.31V264.556H173.262V252.919C173.262 251.442 173.684 250.282 174.457 249.474C175.23 248.665 176.25 248.278 177.551 248.278C178.887 248.278 179.906 248.665 180.645 249.474C181.383 250.282 181.77 251.407 181.77 252.919V264.556H184.23V252.567C184.23 250.528 183.703 248.911 182.648 247.786C181.594 246.661 180.117 246.099 178.184 246.099C177.129 246.099 176.145 246.274 175.301 246.696C174.457 247.118 173.754 247.716 173.227 248.524V246.31H170.836ZM191.473 255.907H202.898V253.763C202.898 251.161 202.266 249.192 201 247.927C199.734 246.661 198.047 246.063 195.973 246.063C193.898 246.063 192.211 246.661 190.945 247.927C189.68 249.192 189.012 251.161 189.012 253.763V256.927C189.012 259.599 189.68 261.603 190.945 262.868C192.211 264.134 193.898 264.767 196.043 264.767C198.117 264.767 199.77 264.239 200.965 263.22C202.16 262.2 202.758 260.794 202.758 259.106V258.931H200.367V259.036C200.367 260.126 200.016 261.005 199.277 261.638C198.539 262.271 197.52 262.587 196.219 262.587C194.742 262.587 193.582 262.165 192.738 261.321C191.895 260.478 191.473 259.071 191.473 256.997V255.907ZM192.703 249.474C193.512 248.665 194.602 248.278 195.973 248.278C197.379 248.278 198.434 248.665 199.242 249.438C200.051 250.212 200.438 251.548 200.438 253.446V254.079H191.473V253.692C191.473 251.688 191.895 250.282 192.703 249.474ZM207.715 246.31V264.556H210.141V252.919C210.141 251.442 210.562 250.282 211.336 249.474C212.109 248.665 213.129 248.278 214.43 248.278C215.766 248.278 216.785 248.665 217.523 249.474C218.262 250.282 218.648 251.407 218.648 252.919V264.556H221.109V252.567C221.109 250.528 220.582 248.911 219.527 247.786C218.473 246.661 216.996 246.099 215.062 246.099C214.008 246.099 213.023 246.274 212.18 246.696C211.336 247.118 210.633 247.716 210.105 248.524V246.31H207.715ZM230.32 248.243H234.434V246.31H230.32V240.966L227.859 242.126V246.31H225.012V248.243H227.859V260.021C227.859 261.427 228.246 262.552 229.02 263.36C229.793 264.169 230.883 264.556 232.289 264.556H234.117V262.411H232.676C231.129 262.411 230.32 261.567 230.32 259.915V248.243Z" fill="black"/>
<path d="M507.746 223.996C509.328 225.508 511.402 226.281 514.039 226.281C516.641 226.281 518.75 225.543 520.297 224.066C521.844 222.59 522.582 220.199 522.582 216.93V213.203H514.004V215.488H519.945V217.387C519.945 219.637 519.453 221.324 518.469 222.344C517.484 223.363 516.008 223.891 514.109 223.891C510.031 223.891 507.992 221.57 507.992 216.93V210.461C507.992 207.93 508.52 206.031 509.539 204.906C510.559 203.781 512.07 203.219 514.074 203.219C515.867 203.219 517.273 203.676 518.328 204.59C519.383 205.504 519.875 206.77 519.875 208.352V208.492H522.512V208.352C522.512 206.875 522.16 205.539 521.457 204.414C520.754 203.289 519.77 202.41 518.504 201.777C517.238 201.145 515.727 200.828 514.039 200.828C511.402 200.828 509.328 201.602 507.746 203.113C506.164 204.625 505.391 207.051 505.391 210.355V216.789C505.391 220.094 506.164 222.484 507.746 223.996ZM527.539 201.145V204.414H530.105V201.145H527.539ZM523.848 229.234V231.484H525.57C527.047 231.484 528.172 231.062 528.945 230.254C529.719 229.445 530.07 228.215 530.07 226.668V207.754H527.645V226.527C527.645 227.477 527.434 228.18 527.082 228.602C526.73 229.023 526.133 229.234 525.324 229.234H523.848ZM537.629 217.352H549.055V215.207C549.055 212.605 548.422 210.637 547.156 209.371C545.891 208.105 544.203 207.508 542.129 207.508C540.055 207.508 538.367 208.105 537.102 209.371C535.836 210.637 535.168 212.605 535.168 215.207V218.371C535.168 221.043 535.836 223.047 537.102 224.312C538.367 225.578 540.055 226.211 542.199 226.211C544.273 226.211 545.926 225.684 547.121 224.664C548.316 223.645 548.914 222.238 548.914 220.551V220.375H546.523V220.48C546.523 221.57 546.172 222.449 545.434 223.082C544.695 223.715 543.676 224.031 542.375 224.031C540.898 224.031 539.738 223.609 538.895 222.766C538.051 221.922 537.629 220.516 537.629 218.441V217.352ZM538.859 210.918C539.668 210.109 540.758 209.723 542.129 209.723C543.535 209.723 544.59 210.109 545.398 210.883C546.207 211.656 546.594 212.992 546.594 214.891V215.523H537.629V215.137C537.629 213.133 538.051 211.727 538.859 210.918ZM553.871 207.754V226H556.297V214.363C556.297 212.887 556.719 211.727 557.492 210.918C558.266 210.109 559.285 209.723 560.586 209.723C561.922 209.723 562.941 210.109 563.68 210.918C564.418 211.727 564.805 212.852 564.805 214.363V226H567.266V214.012C567.266 211.973 566.738 210.355 565.684 209.23C564.629 208.105 563.152 207.543 561.219 207.543C560.164 207.543 559.18 207.719 558.336 208.141C557.492 208.562 556.789 209.16 556.262 209.969V207.754H553.871ZM572.645 207.754V226H575.07V214.363C575.07 212.887 575.492 211.727 576.266 210.918C577.039 210.109 578.059 209.723 579.359 209.723C580.695 209.723 581.715 210.109 582.453 210.918C583.191 211.727 583.578 212.852 583.578 214.363V226H586.039V214.012C586.039 211.973 585.512 210.355 584.457 209.23C583.402 208.105 581.926 207.543 579.992 207.543C578.938 207.543 577.953 207.719 577.109 208.141C576.266 208.562 575.562 209.16 575.035 209.969V207.754H572.645ZM592.754 224.418C594.02 225.613 595.707 226.211 597.852 226.211C599.926 226.211 601.613 225.613 602.879 224.418C604.145 223.223 604.777 221.324 604.777 218.723V214.996C604.777 212.395 604.145 210.496 602.879 209.301C601.613 208.105 599.926 207.508 597.852 207.508C595.707 207.508 594.02 208.105 592.754 209.301C591.488 210.496 590.82 212.395 590.82 214.996V218.723C590.82 221.324 591.488 223.223 592.754 224.418ZM601.121 222.801C600.312 223.609 599.223 224.031 597.852 224.031C596.445 224.031 595.32 223.609 594.512 222.801C593.703 221.992 593.281 220.586 593.281 218.582V215.137C593.281 213.133 593.703 211.727 594.512 210.918C595.32 210.109 596.445 209.723 597.852 209.723C599.223 209.723 600.312 210.109 601.121 210.918C601.93 211.727 602.316 213.133 602.316 215.137V218.582C602.316 220.586 601.93 221.992 601.121 222.801ZM609.594 207.754V226H612.02V214.363C612.02 212.887 612.441 211.727 613.215 210.918C613.988 210.109 615.008 209.723 616.309 209.723C617.645 209.723 618.664 210.109 619.402 210.918C620.141 211.727 620.492 212.852 620.492 214.363V226H622.988V214.258C622.988 212.852 623.34 211.727 624.113 210.918C624.887 210.109 625.941 209.723 627.277 209.723C628.613 209.723 629.598 210.109 630.336 210.918C631.074 211.727 631.426 212.852 631.426 214.363V226H633.887V214.012C633.887 211.973 633.359 210.355 632.27 209.23C631.18 208.105 629.668 207.543 627.734 207.543C625.238 207.543 623.375 208.562 622.18 210.602C621.688 209.617 621.02 208.844 620.141 208.316C619.262 207.789 618.172 207.543 616.941 207.543C615.887 207.543 614.902 207.754 614.059 208.176C613.215 208.598 612.512 209.16 611.984 209.969V207.754H609.594ZM640.883 230.395C642.008 231.273 643.555 231.695 645.488 231.695C647.633 231.695 649.285 231.062 650.48 229.797C651.676 228.531 652.238 226.773 652.238 224.559V207.613H649.777V210.145C648.758 208.281 647.105 207.402 644.891 207.402C643.062 207.402 641.586 208 640.426 209.195C639.266 210.391 638.668 212.289 638.668 214.855V217.352C638.668 219.953 639.266 221.887 640.426 223.082C641.586 224.277 643.062 224.875 644.855 224.875C646.016 224.875 646.965 224.664 647.809 224.207C648.652 223.75 649.285 223.082 649.777 222.203V224.77C649.777 227.969 648.336 229.551 645.488 229.551C644.328 229.551 643.414 229.305 642.711 228.812C642.008 228.32 641.551 227.723 641.445 226.914H639.02C639.125 228.391 639.758 229.516 640.883 230.395ZM648.617 221.148C647.844 222.168 646.719 222.66 645.207 222.66C642.535 222.66 641.164 220.832 641.164 217.211V215.031C641.164 211.41 642.57 209.582 645.348 209.582C646.824 209.582 647.914 210.109 648.652 211.129C649.391 212.148 649.777 213.52 649.777 215.207V217.176C649.777 218.793 649.391 220.129 648.617 221.148ZM668.41 209.055C667.285 208.035 665.668 207.508 663.523 207.508C661.555 207.508 660.008 207.965 658.883 208.914C657.758 209.863 657.16 211.094 657.16 212.641V212.816H659.551V212.711C659.551 211.727 659.902 210.953 660.605 210.391C661.309 209.828 662.328 209.547 663.559 209.547C664.895 209.547 665.914 209.898 666.617 210.566C667.32 211.234 667.672 212.219 667.672 213.555V215.629H662.75C660.816 215.629 659.305 216.121 658.25 217.035C657.195 217.949 656.633 219.25 656.633 220.867C656.633 222.625 657.16 223.926 658.215 224.84C659.27 225.754 660.746 226.211 662.68 226.211C663.84 226.211 664.859 226.035 665.668 225.684C666.477 225.332 667.18 224.805 667.742 224.066V226H670.133V213.59C670.133 211.586 669.535 210.074 668.41 209.055ZM666.582 223.152C665.844 223.891 664.684 224.242 663.066 224.242C660.395 224.242 659.094 223.117 659.094 220.832C659.094 218.582 660.43 217.422 663.102 217.422H667.672V219.812C667.672 221.289 667.32 222.414 666.582 223.152ZM675.512 207.754V226H677.938V214.363C677.938 212.887 678.359 211.727 679.133 210.918C679.906 210.109 680.926 209.723 682.227 209.723C683.562 209.723 684.582 210.109 685.32 210.918C686.059 211.727 686.445 212.852 686.445 214.363V226H688.906V214.012C688.906 211.973 688.379 210.355 687.324 209.23C686.27 208.105 684.793 207.543 682.859 207.543C681.805 207.543 680.82 207.719 679.977 208.141C679.133 208.562 678.43 209.16 677.902 209.969V207.754H675.512ZM695.902 230.395C697.027 231.273 698.574 231.695 700.508 231.695C702.652 231.695 704.305 231.062 705.5 229.797C706.695 228.531 707.258 226.773 707.258 224.559V207.613H704.797V210.145C703.777 208.281 702.125 207.402 699.91 207.402C698.082 207.402 696.605 208 695.445 209.195C694.285 210.391 693.688 212.289 693.688 214.855V217.352C693.688 219.953 694.285 221.887 695.445 223.082C696.605 224.277 698.082 224.875 699.875 224.875C701.035 224.875 701.984 224.664 702.828 224.207C703.672 223.75 704.305 223.082 704.797 222.203V224.77C704.797 227.969 703.355 229.551 700.508 229.551C699.348 229.551 698.434 229.305 697.73 228.812C697.027 228.32 696.57 227.723 696.465 226.914H694.039C694.145 228.391 694.777 229.516 695.902 230.395ZM703.637 221.148C702.863 222.168 701.738 222.66 700.227 222.66C697.555 222.66 696.184 220.832 696.184 217.211V215.031C696.184 211.41 697.59 209.582 700.367 209.582C701.844 209.582 702.934 210.109 703.672 211.129C704.41 212.148 704.797 213.52 704.797 215.207V217.176C704.797 218.793 704.41 220.129 703.637 221.148ZM516.465 248.055C515.34 247.035 513.723 246.508 511.578 246.508C509.609 246.508 508.062 246.965 506.938 247.914C505.812 248.863 505.215 250.094 505.215 251.641V251.816H507.605V251.711C507.605 250.727 507.957 249.953 508.66 249.391C509.363 248.828 510.383 248.547 511.613 248.547C512.949 248.547 513.969 248.898 514.672 249.566C515.375 250.234 515.727 251.219 515.727 252.555V254.629H510.805C508.871 254.629 507.359 255.121 506.305 256.035C505.25 256.949 504.688 258.25 504.688 259.867C504.688 261.625 505.215 262.926 506.27 263.84C507.324 264.754 508.801 265.211 510.734 265.211C511.895 265.211 512.914 265.035 513.723 264.684C514.531 264.332 515.234 263.805 515.797 263.066V265H518.188V252.59C518.188 250.586 517.59 249.074 516.465 248.055ZM514.637 262.152C513.898 262.891 512.738 263.242 511.121 263.242C508.449 263.242 507.148 262.117 507.148 259.832C507.148 257.582 508.484 256.422 511.156 256.422H515.727V258.812C515.727 260.289 515.375 261.414 514.637 262.152ZM521.352 246.754L527.68 265H529.859L536.152 246.754H533.516L528.77 261.414L524.023 246.754H521.352ZM560.094 259.023L562.203 265H564.98L555.945 240.145H553.73L544.695 265H547.473L549.547 259.023H560.094ZM559.355 256.809H550.32L554.82 243.836L559.355 256.809ZM569.059 263.77C569.832 264.578 570.922 265 572.398 265H574.121V262.785H572.645C571.836 262.785 571.238 262.539 570.887 262.117C570.535 261.695 570.324 261.027 570.324 260.078V240.145H567.898V260.219C567.898 261.766 568.285 262.961 569.059 263.77ZM581.539 248.688H585.652V246.754H581.539V241.41L579.078 242.57V246.754H576.23V248.688H579.078V260.465C579.078 261.871 579.465 262.996 580.238 263.805C581.012 264.613 582.102 265 583.508 265H585.336V262.855H583.895C582.348 262.855 581.539 262.012 581.539 260.359V248.688ZM590.223 246.754V265H592.684V246.754H590.223ZM590.152 240.531V243.766H592.754V240.531H590.152ZM598.344 246.754V265H600.77V253.363C600.77 251.887 601.191 250.727 601.965 249.918C602.738 249.109 603.758 248.723 605.059 248.723C606.395 248.723 607.414 249.109 608.152 249.918C608.891 250.727 609.277 251.852 609.277 253.363V265H611.738V253.012C611.738 250.973 611.211 249.355 610.156 248.23C609.102 247.105 607.625 246.543 605.691 246.543C604.637 246.543 603.652 246.719 602.809 247.141C601.965 247.562 601.262 248.16 600.734 248.969V246.754H598.344ZM617.117 246.754V265H619.543V253.363C619.543 251.887 619.965 250.727 620.738 249.918C621.512 249.109 622.531 248.723 623.832 248.723C625.168 248.723 626.188 249.109 626.926 249.918C627.664 250.727 628.051 251.852 628.051 253.363V265H630.512V253.012C630.512 250.973 629.984 249.355 628.93 248.23C627.875 247.105 626.398 246.543 624.465 246.543C623.41 246.543 622.426 246.719 621.582 247.141C620.738 247.562 620.035 248.16 619.508 248.969V246.754H617.117ZM644.961 263.77C646.121 264.824 647.703 265.352 649.707 265.352C651.711 265.352 653.363 264.754 654.594 263.523C655.824 262.293 656.422 260.641 656.422 258.566V257.688C656.422 256.281 656.105 255.051 655.508 254.031C654.91 253.012 654.031 252.273 652.871 251.852C653.82 251.43 654.559 250.762 655.121 249.883C655.684 249.004 656 247.949 656 246.754V245.945C656 244.082 655.438 242.605 654.312 241.48C653.188 240.355 651.676 239.793 649.742 239.793C647.809 239.793 646.262 240.32 645.137 241.41C644.012 242.5 643.484 243.941 643.484 245.77V246.438H645.98V245.84C645.98 244.715 646.332 243.801 646.965 243.133C647.598 242.465 648.512 242.148 649.672 242.148C650.832 242.148 651.746 242.5 652.414 243.203C653.082 243.906 653.398 244.891 653.398 246.086V246.824C653.398 248.055 653.082 249.004 652.379 249.777C651.676 250.551 650.727 250.938 649.531 250.938H648.266V253.293H649.566C650.902 253.293 651.887 253.715 652.66 254.523C653.434 255.332 653.82 256.387 653.82 257.758V258.707C653.82 260.043 653.434 261.062 652.73 261.836C652.027 262.609 651.008 263.031 649.742 263.031C648.547 263.031 647.562 262.715 646.859 262.047C646.156 261.379 645.805 260.465 645.805 259.305V258.848H643.168V259.41C643.168 261.238 643.801 262.715 644.961 263.77ZM683.633 242.535V240.145H666.863V242.535H673.965V265H676.566V242.535H683.633ZM685.602 256.352H697.027V254.207C697.027 251.605 696.395 249.637 695.129 248.371C693.863 247.105 692.176 246.508 690.102 246.508C688.027 246.508 686.34 247.105 685.074 248.371C683.809 249.637 683.141 251.605 683.141 254.207V257.371C683.141 260.043 683.809 262.047 685.074 263.312C686.34 264.578 688.027 265.211 690.172 265.211C692.246 265.211 693.898 264.684 695.094 263.664C696.289 262.645 696.887 261.238 696.887 259.551V259.375H694.496V259.48C694.496 260.57 694.145 261.449 693.406 262.082C692.668 262.715 691.648 263.031 690.348 263.031C688.871 263.031 687.711 262.609 686.867 261.766C686.023 260.922 685.602 259.516 685.602 257.441V256.352ZM686.832 249.918C687.641 249.109 688.73 248.723 690.102 248.723C691.508 248.723 692.562 249.109 693.371 249.883C694.18 250.656 694.566 251.992 694.566 253.891V254.523H685.602V254.137C685.602 252.133 686.023 250.727 686.832 249.918ZM712.602 248.055C711.477 247.035 709.859 246.508 707.715 246.508C705.746 246.508 704.199 246.965 703.074 247.914C701.949 248.863 701.352 250.094 701.352 251.641V251.816H703.742V251.711C703.742 250.727 704.094 249.953 704.797 249.391C705.5 248.828 706.52 248.547 707.75 248.547C709.086 248.547 710.105 248.898 710.809 249.566C711.512 250.234 711.863 251.219 711.863 252.555V254.629H706.941C705.008 254.629 703.496 255.121 702.441 256.035C701.387 256.949 700.824 258.25 700.824 259.867C700.824 261.625 701.352 262.926 702.406 263.84C703.461 264.754 704.938 265.211 706.871 265.211C708.031 265.211 709.051 265.035 709.859 264.684C710.668 264.332 711.371 263.805 711.934 263.066V265H714.324V252.59C714.324 250.586 713.727 249.074 712.602 248.055ZM710.773 262.152C710.035 262.891 708.875 263.242 707.258 263.242C704.586 263.242 703.285 262.117 703.285 259.832C703.285 257.582 704.621 256.422 707.293 256.422H711.863V258.812C711.863 260.289 711.512 261.414 710.773 262.152ZM719.703 246.754V265H722.129V253.363C722.129 251.887 722.551 250.727 723.324 249.918C724.098 249.109 725.117 248.723 726.418 248.723C727.754 248.723 728.773 249.109 729.512 249.918C730.25 250.727 730.602 251.852 730.602 253.363V265H733.098V253.258C733.098 251.852 733.449 250.727 734.223 249.918C734.996 249.109 736.051 248.723 737.387 248.723C738.723 248.723 739.707 249.109 740.445 249.918C741.184 250.727 741.535 251.852 741.535 253.363V265H743.996V253.012C743.996 250.973 743.469 249.355 742.379 248.23C741.289 247.105 739.777 246.543 737.844 246.543C735.348 246.543 733.484 247.562 732.289 249.602C731.797 248.617 731.129 247.844 730.25 247.316C729.371 246.789 728.281 246.543 727.051 246.543C725.996 246.543 725.012 246.754 724.168 247.176C723.324 247.598 722.621 248.16 722.094 248.969V246.754H719.703Z" fill="black"/>
<path d="M1309.75 223.996C1311.33 225.508 1313.4 226.281 1316.04 226.281C1318.64 226.281 1320.75 225.543 1322.3 224.066C1323.84 222.59 1324.58 220.199 1324.58 216.93V213.203H1316V215.488H1321.95V217.387C1321.95 219.637 1321.45 221.324 1320.47 222.344C1319.48 223.363 1318.01 223.891 1316.11 223.891C1312.03 223.891 1309.99 221.57 1309.99 216.93V210.461C1309.99 207.93 1310.52 206.031 1311.54 204.906C1312.56 203.781 1314.07 203.219 1316.07 203.219C1317.87 203.219 1319.27 203.676 1320.33 204.59C1321.38 205.504 1321.88 206.77 1321.88 208.352V208.492H1324.51V208.352C1324.51 206.875 1324.16 205.539 1323.46 204.414C1322.75 203.289 1321.77 202.41 1320.5 201.777C1319.24 201.145 1317.73 200.828 1316.04 200.828C1313.4 200.828 1311.33 201.602 1309.75 203.113C1308.16 204.625 1307.39 207.051 1307.39 210.355V216.789C1307.39 220.094 1308.16 222.484 1309.75 223.996ZM1329.54 201.145V204.414H1332.11V201.145H1329.54ZM1325.85 229.234V231.484H1327.57C1329.05 231.484 1330.17 231.062 1330.95 230.254C1331.72 229.445 1332.07 228.215 1332.07 226.668V207.754H1329.64V226.527C1329.64 227.477 1329.43 228.18 1329.08 228.602C1328.73 229.023 1328.13 229.234 1327.32 229.234H1325.85ZM1339.63 217.352H1351.05V215.207C1351.05 212.605 1350.42 210.637 1349.16 209.371C1347.89 208.105 1346.2 207.508 1344.13 207.508C1342.05 207.508 1340.37 208.105 1339.1 209.371C1337.84 210.637 1337.17 212.605 1337.17 215.207V218.371C1337.17 221.043 1337.84 223.047 1339.1 224.312C1340.37 225.578 1342.05 226.211 1344.2 226.211C1346.27 226.211 1347.93 225.684 1349.12 224.664C1350.32 223.645 1350.91 222.238 1350.91 220.551V220.375H1348.52V220.48C1348.52 221.57 1348.17 222.449 1347.43 223.082C1346.7 223.715 1345.68 224.031 1344.38 224.031C1342.9 224.031 1341.74 223.609 1340.89 222.766C1340.05 221.922 1339.63 220.516 1339.63 218.441V217.352ZM1340.86 210.918C1341.67 210.109 1342.76 209.723 1344.13 209.723C1345.54 209.723 1346.59 210.109 1347.4 210.883C1348.21 211.656 1348.59 212.992 1348.59 214.891V215.523H1339.63V215.137C1339.63 213.133 1340.05 211.727 1340.86 210.918ZM1355.87 207.754V226H1358.3V214.363C1358.3 212.887 1358.72 211.727 1359.49 210.918C1360.27 210.109 1361.29 209.723 1362.59 209.723C1363.92 209.723 1364.94 210.109 1365.68 210.918C1366.42 211.727 1366.8 212.852 1366.8 214.363V226H1369.27V214.012C1369.27 211.973 1368.74 210.355 1367.68 209.23C1366.63 208.105 1365.15 207.543 1363.22 207.543C1362.16 207.543 1361.18 207.719 1360.34 208.141C1359.49 208.562 1358.79 209.16 1358.26 209.969V207.754H1355.87ZM1374.64 207.754V226H1377.07V214.363C1377.07 212.887 1377.49 211.727 1378.27 210.918C1379.04 210.109 1380.06 209.723 1381.36 209.723C1382.7 209.723 1383.71 210.109 1384.45 210.918C1385.19 211.727 1385.58 212.852 1385.58 214.363V226H1388.04V214.012C1388.04 211.973 1387.51 210.355 1386.46 209.23C1385.4 208.105 1383.93 207.543 1381.99 207.543C1380.94 207.543 1379.95 207.719 1379.11 208.141C1378.27 208.562 1377.56 209.16 1377.04 209.969V207.754H1374.64ZM1394.75 224.418C1396.02 225.613 1397.71 226.211 1399.85 226.211C1401.93 226.211 1403.61 225.613 1404.88 224.418C1406.14 223.223 1406.78 221.324 1406.78 218.723V214.996C1406.78 212.395 1406.14 210.496 1404.88 209.301C1403.61 208.105 1401.93 207.508 1399.85 207.508C1397.71 207.508 1396.02 208.105 1394.75 209.301C1393.49 210.496 1392.82 212.395 1392.82 214.996V218.723C1392.82 221.324 1393.49 223.223 1394.75 224.418ZM1403.12 222.801C1402.31 223.609 1401.22 224.031 1399.85 224.031C1398.45 224.031 1397.32 223.609 1396.51 222.801C1395.7 221.992 1395.28 220.586 1395.28 218.582V215.137C1395.28 213.133 1395.7 211.727 1396.51 210.918C1397.32 210.109 1398.45 209.723 1399.85 209.723C1401.22 209.723 1402.31 210.109 1403.12 210.918C1403.93 211.727 1404.32 213.133 1404.32 215.137V218.582C1404.32 220.586 1403.93 221.992 1403.12 222.801ZM1411.59 207.754V226H1414.02V214.363C1414.02 212.887 1414.44 211.727 1415.21 210.918C1415.99 210.109 1417.01 209.723 1418.31 209.723C1419.64 209.723 1420.66 210.109 1421.4 210.918C1422.14 211.727 1422.49 212.852 1422.49 214.363V226H1424.99V214.258C1424.99 212.852 1425.34 211.727 1426.11 210.918C1426.89 210.109 1427.94 209.723 1429.28 209.723C1430.61 209.723 1431.6 210.109 1432.34 210.918C1433.07 211.727 1433.43 212.852 1433.43 214.363V226H1435.89V214.012C1435.89 211.973 1435.36 210.355 1434.27 209.23C1433.18 208.105 1431.67 207.543 1429.73 207.543C1427.24 207.543 1425.38 208.562 1424.18 210.602C1423.69 209.617 1423.02 208.844 1422.14 208.316C1421.26 207.789 1420.17 207.543 1418.94 207.543C1417.89 207.543 1416.9 207.754 1416.06 208.176C1415.21 208.598 1414.51 209.16 1413.98 209.969V207.754H1411.59ZM1442.88 230.395C1444.01 231.273 1445.55 231.695 1447.49 231.695C1449.63 231.695 1451.29 231.062 1452.48 229.797C1453.68 228.531 1454.24 226.773 1454.24 224.559V207.613H1451.78V210.145C1450.76 208.281 1449.11 207.402 1446.89 207.402C1445.06 207.402 1443.59 208 1442.43 209.195C1441.27 210.391 1440.67 212.289 1440.67 214.855V217.352C1440.67 219.953 1441.27 221.887 1442.43 223.082C1443.59 224.277 1445.06 224.875 1446.86 224.875C1448.02 224.875 1448.96 224.664 1449.81 224.207C1450.65 223.75 1451.29 223.082 1451.78 222.203V224.77C1451.78 227.969 1450.34 229.551 1447.49 229.551C1446.33 229.551 1445.41 229.305 1444.71 228.812C1444.01 228.32 1443.55 227.723 1443.45 226.914H1441.02C1441.12 228.391 1441.76 229.516 1442.88 230.395ZM1450.62 221.148C1449.84 222.168 1448.72 222.66 1447.21 222.66C1444.54 222.66 1443.16 220.832 1443.16 217.211V215.031C1443.16 211.41 1444.57 209.582 1447.35 209.582C1448.82 209.582 1449.91 210.109 1450.65 211.129C1451.39 212.148 1451.78 213.52 1451.78 215.207V217.176C1451.78 218.793 1451.39 220.129 1450.62 221.148ZM1470.41 209.055C1469.29 208.035 1467.67 207.508 1465.52 207.508C1463.55 207.508 1462.01 207.965 1460.88 208.914C1459.76 209.863 1459.16 211.094 1459.16 212.641V212.816H1461.55V212.711C1461.55 211.727 1461.9 210.953 1462.61 210.391C1463.31 209.828 1464.33 209.547 1465.56 209.547C1466.89 209.547 1467.91 209.898 1468.62 210.566C1469.32 211.234 1469.67 212.219 1469.67 213.555V215.629H1464.75C1462.82 215.629 1461.3 216.121 1460.25 217.035C1459.2 217.949 1458.63 219.25 1458.63 220.867C1458.63 222.625 1459.16 223.926 1460.21 224.84C1461.27 225.754 1462.75 226.211 1464.68 226.211C1465.84 226.211 1466.86 226.035 1467.67 225.684C1468.48 225.332 1469.18 224.805 1469.74 224.066V226H1472.13V213.59C1472.13 211.586 1471.54 210.074 1470.41 209.055ZM1468.58 223.152C1467.84 223.891 1466.68 224.242 1465.07 224.242C1462.39 224.242 1461.09 223.117 1461.09 220.832C1461.09 218.582 1462.43 217.422 1465.1 217.422H1469.67V219.812C1469.67 221.289 1469.32 222.414 1468.58 223.152ZM1477.51 207.754V226H1479.94V214.363C1479.94 212.887 1480.36 211.727 1481.13 210.918C1481.91 210.109 1482.93 209.723 1484.23 209.723C1485.56 209.723 1486.58 210.109 1487.32 210.918C1488.06 211.727 1488.45 212.852 1488.45 214.363V226H1490.91V214.012C1490.91 211.973 1490.38 210.355 1489.32 209.23C1488.27 208.105 1486.79 207.543 1484.86 207.543C1483.8 207.543 1482.82 207.719 1481.98 208.141C1481.13 208.562 1480.43 209.16 1479.9 209.969V207.754H1477.51ZM1497.9 230.395C1499.03 231.273 1500.57 231.695 1502.51 231.695C1504.65 231.695 1506.3 231.062 1507.5 229.797C1508.7 228.531 1509.26 226.773 1509.26 224.559V207.613H1506.8V210.145C1505.78 208.281 1504.12 207.402 1501.91 207.402C1500.08 207.402 1498.61 208 1497.45 209.195C1496.29 210.391 1495.69 212.289 1495.69 214.855V217.352C1495.69 219.953 1496.29 221.887 1497.45 223.082C1498.61 224.277 1500.08 224.875 1501.88 224.875C1503.04 224.875 1503.98 224.664 1504.83 224.207C1505.67 223.75 1506.3 223.082 1506.8 222.203V224.77C1506.8 227.969 1505.36 229.551 1502.51 229.551C1501.35 229.551 1500.43 229.305 1499.73 228.812C1499.03 228.32 1498.57 227.723 1498.46 226.914H1496.04C1496.14 228.391 1496.78 229.516 1497.9 230.395ZM1505.64 221.148C1504.86 222.168 1503.74 222.66 1502.23 222.66C1499.55 222.66 1498.18 220.832 1498.18 217.211V215.031C1498.18 211.41 1499.59 209.582 1502.37 209.582C1503.84 209.582 1504.93 210.109 1505.67 211.129C1506.41 212.148 1506.8 213.52 1506.8 215.207V217.176C1506.8 218.793 1506.41 220.129 1505.64 221.148ZM1318.46 248.055C1317.34 247.035 1315.72 246.508 1313.58 246.508C1311.61 246.508 1310.06 246.965 1308.94 247.914C1307.81 248.863 1307.21 250.094 1307.21 251.641V251.816H1309.61V251.711C1309.61 250.727 1309.96 249.953 1310.66 249.391C1311.36 248.828 1312.38 248.547 1313.61 248.547C1314.95 248.547 1315.97 248.898 1316.67 249.566C1317.38 250.234 1317.73 251.219 1317.73 252.555V254.629H1312.8C1310.87 254.629 1309.36 255.121 1308.3 256.035C1307.25 256.949 1306.69 258.25 1306.69 259.867C1306.69 261.625 1307.21 262.926 1308.27 263.84C1309.32 264.754 1310.8 265.211 1312.73 265.211C1313.89 265.211 1314.91 265.035 1315.72 264.684C1316.53 264.332 1317.23 263.805 1317.8 263.066V265H1320.19V252.59C1320.19 250.586 1319.59 249.074 1318.46 248.055ZM1316.64 262.152C1315.9 262.891 1314.74 263.242 1313.12 263.242C1310.45 263.242 1309.15 262.117 1309.15 259.832C1309.15 257.582 1310.48 256.422 1313.16 256.422H1317.73V258.812C1317.73 260.289 1317.38 261.414 1316.64 262.152ZM1323.35 246.754L1329.68 265H1331.86L1338.15 246.754H1335.52L1330.77 261.414L1326.02 246.754H1323.35ZM1362.09 259.023L1364.2 265H1366.98L1357.95 240.145H1355.73L1346.7 265H1349.47L1351.55 259.023H1362.09ZM1361.36 256.809H1352.32L1356.82 243.836L1361.36 256.809ZM1371.06 263.77C1371.83 264.578 1372.92 265 1374.4 265H1376.12V262.785H1374.64C1373.84 262.785 1373.24 262.539 1372.89 262.117C1372.54 261.695 1372.32 261.027 1372.32 260.078V240.145H1369.9V260.219C1369.9 261.766 1370.29 262.961 1371.06 263.77ZM1383.54 248.688H1387.65V246.754H1383.54V241.41L1381.08 242.57V246.754H1378.23V248.688H1381.08V260.465C1381.08 261.871 1381.46 262.996 1382.24 263.805C1383.01 264.613 1384.1 265 1385.51 265H1387.34V262.855H1385.89C1384.35 262.855 1383.54 262.012 1383.54 260.359V248.688ZM1392.22 246.754V265H1394.68V246.754H1392.22ZM1392.15 240.531V243.766H1394.75V240.531H1392.15ZM1400.34 246.754V265H1402.77V253.363C1402.77 251.887 1403.19 250.727 1403.96 249.918C1404.74 249.109 1405.76 248.723 1407.06 248.723C1408.39 248.723 1409.41 249.109 1410.15 249.918C1410.89 250.727 1411.28 251.852 1411.28 253.363V265H1413.74V253.012C1413.74 250.973 1413.21 249.355 1412.16 248.23C1411.1 247.105 1409.62 246.543 1407.69 246.543C1406.64 246.543 1405.65 246.719 1404.81 247.141C1403.96 247.562 1403.26 248.16 1402.73 248.969V246.754H1400.34ZM1419.12 246.754V265H1421.54V253.363C1421.54 251.887 1421.96 250.727 1422.74 249.918C1423.51 249.109 1424.53 248.723 1425.83 248.723C1427.17 248.723 1428.19 249.109 1428.93 249.918C1429.66 250.727 1430.05 251.852 1430.05 253.363V265H1432.51V253.012C1432.51 250.973 1431.98 249.355 1430.93 248.23C1429.88 247.105 1428.4 246.543 1426.46 246.543C1425.41 246.543 1424.43 246.719 1423.58 247.141C1422.74 247.562 1422.04 248.16 1421.51 248.969V246.754H1419.12ZM1446.96 263.77C1448.12 264.824 1449.7 265.352 1451.71 265.352C1453.71 265.352 1455.36 264.754 1456.59 263.523C1457.82 262.293 1458.42 260.641 1458.42 258.566V257.688C1458.42 256.281 1458.11 255.051 1457.51 254.031C1456.91 253.012 1456.03 252.273 1454.87 251.852C1455.82 251.43 1456.56 250.762 1457.12 249.883C1457.68 249.004 1458 247.949 1458 246.754V245.945C1458 244.082 1457.44 242.605 1456.31 241.48C1455.19 240.355 1453.68 239.793 1451.74 239.793C1449.81 239.793 1448.26 240.32 1447.14 241.41C1446.01 242.5 1445.48 243.941 1445.48 245.77V246.438H1447.98V245.84C1447.98 244.715 1448.33 243.801 1448.96 243.133C1449.6 242.465 1450.51 242.148 1451.67 242.148C1452.83 242.148 1453.75 242.5 1454.41 243.203C1455.08 243.906 1455.4 244.891 1455.4 246.086V246.824C1455.4 248.055 1455.08 249.004 1454.38 249.777C1453.68 250.551 1452.73 250.938 1451.53 250.938H1450.27V253.293H1451.57C1452.9 253.293 1453.89 253.715 1454.66 254.523C1455.43 255.332 1455.82 256.387 1455.82 257.758V258.707C1455.82 260.043 1455.43 261.062 1454.73 261.836C1454.03 262.609 1453.01 263.031 1451.74 263.031C1450.55 263.031 1449.56 262.715 1448.86 262.047C1448.16 261.379 1447.8 260.465 1447.8 259.305V258.848H1445.17V259.41C1445.17 261.238 1445.8 262.715 1446.96 263.77ZM1485.63 242.535V240.145H1468.86V242.535H1475.96V265H1478.57V242.535H1485.63ZM1487.6 256.352H1499.03V254.207C1499.03 251.605 1498.39 249.637 1497.13 248.371C1495.86 247.105 1494.18 246.508 1492.1 246.508C1490.03 246.508 1488.34 247.105 1487.07 248.371C1485.81 249.637 1485.14 251.605 1485.14 254.207V257.371C1485.14 260.043 1485.81 262.047 1487.07 263.312C1488.34 264.578 1490.03 265.211 1492.17 265.211C1494.25 265.211 1495.9 264.684 1497.09 263.664C1498.29 262.645 1498.89 261.238 1498.89 259.551V259.375H1496.5V259.48C1496.5 260.57 1496.14 261.449 1495.41 262.082C1494.67 262.715 1493.65 263.031 1492.35 263.031C1490.87 263.031 1489.71 262.609 1488.87 261.766C1488.02 260.922 1487.6 259.516 1487.6 257.441V256.352ZM1488.83 249.918C1489.64 249.109 1490.73 248.723 1492.1 248.723C1493.51 248.723 1494.56 249.109 1495.37 249.883C1496.18 250.656 1496.57 251.992 1496.57 253.891V254.523H1487.6V254.137C1487.6 252.133 1488.02 250.727 1488.83 249.918ZM1514.6 248.055C1513.48 247.035 1511.86 246.508 1509.71 246.508C1507.75 246.508 1506.2 246.965 1505.07 247.914C1503.95 248.863 1503.35 250.094 1503.35 251.641V251.816H1505.74V251.711C1505.74 250.727 1506.09 249.953 1506.8 249.391C1507.5 248.828 1508.52 248.547 1509.75 248.547C1511.09 248.547 1512.11 248.898 1512.81 249.566C1513.51 250.234 1513.86 251.219 1513.86 252.555V254.629H1508.94C1507.01 254.629 1505.5 255.121 1504.44 256.035C1503.39 256.949 1502.82 258.25 1502.82 259.867C1502.82 261.625 1503.35 262.926 1504.41 263.84C1505.46 264.754 1506.94 265.211 1508.87 265.211C1510.03 265.211 1511.05 265.035 1511.86 264.684C1512.67 264.332 1513.37 263.805 1513.93 263.066V265H1516.32V252.59C1516.32 250.586 1515.73 249.074 1514.6 248.055ZM1512.77 262.152C1512.04 262.891 1510.88 263.242 1509.26 263.242C1506.59 263.242 1505.29 262.117 1505.29 259.832C1505.29 257.582 1506.62 256.422 1509.29 256.422H1513.86V258.812C1513.86 260.289 1513.51 261.414 1512.77 262.152ZM1521.7 246.754V265H1524.13V253.363C1524.13 251.887 1524.55 250.727 1525.32 249.918C1526.1 249.109 1527.12 248.723 1528.42 248.723C1529.75 248.723 1530.77 249.109 1531.51 249.918C1532.25 250.727 1532.6 251.852 1532.6 253.363V265H1535.1V253.258C1535.1 251.852 1535.45 250.727 1536.22 249.918C1537 249.109 1538.05 248.723 1539.39 248.723C1540.72 248.723 1541.71 249.109 1542.45 249.918C1543.18 250.727 1543.54 251.852 1543.54 253.363V265H1546V253.012C1546 250.973 1545.47 249.355 1544.38 248.23C1543.29 247.105 1541.78 246.543 1539.84 246.543C1537.35 246.543 1535.48 247.562 1534.29 249.602C1533.8 248.617 1533.13 247.844 1532.25 247.316C1531.37 246.789 1530.28 246.543 1529.05 246.543C1528 246.543 1527.01 246.754 1526.17 247.176C1525.32 247.598 1524.62 248.16 1524.09 248.969V246.754H1521.7Z" fill="black"/>
<path d="M889.889 188.297C890.973 188.883 892.203 189.176 893.551 189.176C894.898 189.176 896.129 188.883 897.213 188.297C898.297 187.711 899.117 186.92 899.732 185.865C900.348 184.811 900.641 183.609 900.641 182.262V168.287H898.473V182.057C898.473 183.639 898.004 184.898 897.096 185.836C896.188 186.773 895.045 187.242 893.551 187.242C892.057 187.242 890.826 186.773 889.947 185.836C889.068 184.898 888.629 183.639 888.629 182.057V168.287H886.402V182.262C886.402 183.609 886.725 184.781 887.34 185.836C887.955 186.891 888.805 187.711 889.889 188.297ZM908.492 175.406H911.92V173.795H908.492V169.342L906.441 170.309V173.795H904.068V175.406H906.441V185.221C906.441 186.393 906.764 187.33 907.408 188.004C908.053 188.678 908.961 189 910.133 189H911.656V187.213H910.455C909.166 187.213 908.492 186.51 908.492 185.133V175.406ZM913.648 173.795L918.922 189H920.738L925.982 173.795H923.785L919.83 186.012L915.875 173.795H913.648ZM928.883 173.795V189H930.934V173.795H928.883ZM928.824 168.609V171.305H930.992V168.609H928.824ZM940.543 181.119L945.143 189H947.633L941.891 179.537L946.783 173.795H944.322L937.672 181.881V168.287H935.65V189H937.672V184.459L940.543 181.119ZM951.412 187.975C952.057 188.648 952.965 189 954.195 189H955.631V187.154H954.4C953.727 187.154 953.229 186.949 952.936 186.598C952.643 186.246 952.467 185.689 952.467 184.898V168.287H950.445V185.016C950.445 186.305 950.768 187.301 951.412 187.975ZM960.172 181.793H969.693V180.006C969.693 177.838 969.166 176.197 968.111 175.143C967.057 174.088 965.65 173.59 963.922 173.59C962.193 173.59 960.787 174.088 959.732 175.143C958.678 176.197 958.121 177.838 958.121 180.006V182.643C958.121 184.869 958.678 186.539 959.732 187.594C960.787 188.648 962.193 189.176 963.98 189.176C965.709 189.176 967.086 188.736 968.082 187.887C969.078 187.037 969.576 185.865 969.576 184.459V184.312H967.584V184.4C967.584 185.309 967.291 186.041 966.676 186.568C966.061 187.096 965.211 187.359 964.127 187.359C962.896 187.359 961.93 187.008 961.227 186.305C960.523 185.602 960.172 184.43 960.172 182.701V181.793ZM961.197 176.432C961.871 175.758 962.779 175.436 963.922 175.436C965.094 175.436 965.973 175.758 966.646 176.402C967.32 177.047 967.643 178.16 967.643 179.742V180.27H960.172V179.947C960.172 178.277 960.523 177.105 961.197 176.432ZM985.104 181.119L989.703 189H992.193L986.451 179.537L991.344 173.795H988.883L982.232 181.881V168.287H980.211V189H982.232V184.459L985.104 181.119ZM996.119 187.682C997.174 188.678 998.58 189.176 1000.37 189.176C1002.1 189.176 1003.5 188.678 1004.56 187.682C1005.61 186.686 1006.14 185.104 1006.14 182.936V179.83C1006.14 177.662 1005.61 176.08 1004.56 175.084C1003.5 174.088 1002.1 173.59 1000.37 173.59C998.58 173.59 997.174 174.088 996.119 175.084C995.064 176.08 994.508 177.662 994.508 179.83V182.936C994.508 185.104 995.064 186.686 996.119 187.682ZM1003.09 186.334C1002.42 187.008 1001.51 187.359 1000.37 187.359C999.195 187.359 998.258 187.008 997.584 186.334C996.91 185.66 996.559 184.488 996.559 182.818V179.947C996.559 178.277 996.91 177.105 997.584 176.432C998.258 175.758 999.195 175.436 1000.37 175.436C1001.51 175.436 1002.42 175.758 1003.09 176.432C1003.77 177.105 1004.09 178.277 1004.09 179.947V182.818C1004.09 184.488 1003.77 185.66 1003.09 186.334ZM1010.15 173.795V189H1012.17V179.303C1012.17 178.072 1012.53 177.105 1013.17 176.432C1013.81 175.758 1014.66 175.436 1015.75 175.436C1016.86 175.436 1017.71 175.758 1018.33 176.432C1018.94 177.105 1019.23 178.043 1019.23 179.303V189H1021.31V179.215C1021.31 178.043 1021.61 177.105 1022.25 176.432C1022.9 175.758 1023.78 175.436 1024.89 175.436C1026 175.436 1026.82 175.758 1027.44 176.432C1028.05 177.105 1028.35 178.043 1028.35 179.303V189H1030.4V179.01C1030.4 177.311 1029.96 175.963 1029.05 175.025C1028.14 174.088 1026.88 173.619 1025.27 173.619C1023.19 173.619 1021.64 174.469 1020.64 176.168C1020.23 175.348 1019.67 174.703 1018.94 174.264C1018.21 173.824 1017.3 173.619 1016.28 173.619C1015.4 173.619 1014.58 173.795 1013.87 174.146C1013.17 174.498 1012.58 174.967 1012.14 175.641V173.795H1010.15ZM1034.88 173.795V193.57H1036.9V186.979C1037.75 188.443 1039.13 189.176 1041.03 189.176C1042.53 189.176 1043.76 188.678 1044.72 187.682C1045.69 186.686 1046.16 185.104 1046.16 182.936V179.83C1046.16 177.691 1045.66 176.109 1044.69 175.113C1043.73 174.117 1042.44 173.619 1040.88 173.619C1040.01 173.619 1039.21 173.824 1038.54 174.205C1037.87 174.586 1037.31 175.172 1036.9 175.934V173.795H1034.88ZM1044.11 182.818C1044.11 185.836 1042.96 187.359 1040.71 187.359C1039.48 187.359 1038.54 186.92 1037.9 186.07C1037.25 185.221 1036.9 184.137 1036.9 182.789V180.123C1036.9 178.717 1037.22 177.574 1037.84 176.725C1038.45 175.875 1039.36 175.436 1040.59 175.436C1042.94 175.436 1044.11 176.959 1044.11 179.977V182.818ZM1051.29 187.682C1052.34 188.678 1053.75 189.176 1055.53 189.176C1057.26 189.176 1058.67 188.678 1059.72 187.682C1060.78 186.686 1061.3 185.104 1061.3 182.936V179.83C1061.3 177.662 1060.78 176.08 1059.72 175.084C1058.67 174.088 1057.26 173.59 1055.53 173.59C1053.75 173.59 1052.34 174.088 1051.29 175.084C1050.23 176.08 1049.67 177.662 1049.67 179.83V182.936C1049.67 185.104 1050.23 186.686 1051.29 187.682ZM1058.26 186.334C1057.58 187.008 1056.68 187.359 1055.53 187.359C1054.36 187.359 1053.42 187.008 1052.75 186.334C1052.08 185.66 1051.72 184.488 1051.72 182.818V179.947C1051.72 178.277 1052.08 177.105 1052.75 176.432C1053.42 175.758 1054.36 175.436 1055.53 175.436C1056.68 175.436 1057.58 175.758 1058.26 176.432C1058.93 177.105 1059.25 178.277 1059.25 179.947V182.818C1059.25 184.488 1058.93 185.66 1058.26 186.334ZM1065.32 173.795V189H1067.34V179.303C1067.34 178.072 1067.69 177.105 1068.34 176.432C1068.98 175.758 1069.83 175.436 1070.91 175.436C1072.03 175.436 1072.88 175.758 1073.49 176.432C1074.11 177.105 1074.43 178.043 1074.43 179.303V189H1076.48V179.01C1076.48 177.311 1076.04 175.963 1075.16 175.025C1074.28 174.088 1073.05 173.619 1071.44 173.619C1070.56 173.619 1069.74 173.766 1069.04 174.117C1068.34 174.469 1067.75 174.967 1067.31 175.641V173.795H1065.32ZM1082.52 181.793H1092.04V180.006C1092.04 177.838 1091.51 176.197 1090.46 175.143C1089.4 174.088 1087.99 173.59 1086.27 173.59C1084.54 173.59 1083.13 174.088 1082.08 175.143C1081.02 176.197 1080.46 177.838 1080.46 180.006V182.643C1080.46 184.869 1081.02 186.539 1082.08 187.594C1083.13 188.648 1084.54 189.176 1086.32 189.176C1088.05 189.176 1089.43 188.736 1090.43 187.887C1091.42 187.037 1091.92 185.865 1091.92 184.459V184.312H1089.93V184.4C1089.93 185.309 1089.63 186.041 1089.02 186.568C1088.4 187.096 1087.55 187.359 1086.47 187.359C1085.24 187.359 1084.27 187.008 1083.57 186.305C1082.87 185.602 1082.52 184.43 1082.52 182.701V181.793ZM1083.54 176.432C1084.21 175.758 1085.12 175.436 1086.27 175.436C1087.44 175.436 1088.32 175.758 1088.99 176.402C1089.66 177.047 1089.99 178.16 1089.99 179.742V180.27H1082.52V179.947C1082.52 178.277 1082.87 177.105 1083.54 176.432ZM1096.05 173.795V189H1098.07V179.303C1098.07 178.072 1098.42 177.105 1099.07 176.432C1099.71 175.758 1100.56 175.436 1101.65 175.436C1102.76 175.436 1103.61 175.758 1104.22 176.432C1104.84 177.105 1105.16 178.043 1105.16 179.303V189H1107.21V179.01C1107.21 177.311 1106.77 175.963 1105.89 175.025C1105.02 174.088 1103.79 173.619 1102.17 173.619C1101.29 173.619 1100.47 173.766 1099.77 174.117C1099.07 174.469 1098.48 174.967 1098.04 175.641V173.795H1096.05ZM1114.89 175.406H1118.32V173.795H1114.89V169.342L1112.84 170.309V173.795H1110.46V175.406H1112.84V185.221C1112.84 186.393 1113.16 187.33 1113.8 188.004C1114.45 188.678 1115.36 189 1116.53 189H1118.05V187.213H1116.85C1115.56 187.213 1114.89 186.51 1114.89 185.133V175.406Z" fill="black"/>
<path d="M889.889 329.297C890.973 329.883 892.203 330.176 893.551 330.176C894.898 330.176 896.129 329.883 897.213 329.297C898.297 328.711 899.117 327.92 899.732 326.865C900.348 325.811 900.641 324.609 900.641 323.262V309.287H898.473V323.057C898.473 324.639 898.004 325.898 897.096 326.836C896.188 327.773 895.045 328.242 893.551 328.242C892.057 328.242 890.826 327.773 889.947 326.836C889.068 325.898 888.629 324.639 888.629 323.057V309.287H886.402V323.262C886.402 324.609 886.725 325.781 887.34 326.836C887.955 327.891 888.805 328.711 889.889 329.297ZM908.492 316.406H911.92V314.795H908.492V310.342L906.441 311.309V314.795H904.068V316.406H906.441V326.221C906.441 327.393 906.764 328.33 907.408 329.004C908.053 329.678 908.961 330 910.133 330H911.656V328.213H910.455C909.166 328.213 908.492 327.51 908.492 326.133V316.406ZM913.648 314.795L918.922 330H920.738L925.982 314.795H923.785L919.83 327.012L915.875 314.795H913.648ZM928.883 314.795V330H930.934V314.795H928.883ZM928.824 309.609V312.305H930.992V309.609H928.824ZM940.543 322.119L945.143 330H947.633L941.891 320.537L946.783 314.795H944.322L937.672 322.881V309.287H935.65V330H937.672V325.459L940.543 322.119ZM951.412 328.975C952.057 329.648 952.965 330 954.195 330H955.631V328.154H954.4C953.727 328.154 953.229 327.949 952.936 327.598C952.643 327.246 952.467 326.689 952.467 325.898V309.287H950.445V326.016C950.445 327.305 950.768 328.301 951.412 328.975ZM960.172 322.793H969.693V321.006C969.693 318.838 969.166 317.197 968.111 316.143C967.057 315.088 965.65 314.59 963.922 314.59C962.193 314.59 960.787 315.088 959.732 316.143C958.678 317.197 958.121 318.838 958.121 321.006V323.643C958.121 325.869 958.678 327.539 959.732 328.594C960.787 329.648 962.193 330.176 963.98 330.176C965.709 330.176 967.086 329.736 968.082 328.887C969.078 328.037 969.576 326.865 969.576 325.459V325.312H967.584V325.4C967.584 326.309 967.291 327.041 966.676 327.568C966.061 328.096 965.211 328.359 964.127 328.359C962.896 328.359 961.93 328.008 961.227 327.305C960.523 326.602 960.172 325.43 960.172 323.701V322.793ZM961.197 317.432C961.871 316.758 962.779 316.436 963.922 316.436C965.094 316.436 965.973 316.758 966.646 317.402C967.32 318.047 967.643 319.16 967.643 320.742V321.27H960.172V320.947C960.172 319.277 960.523 318.105 961.197 317.432ZM985.104 322.119L989.703 330H992.193L986.451 320.537L991.344 314.795H988.883L982.232 322.881V309.287H980.211V330H982.232V325.459L985.104 322.119ZM996.119 328.682C997.174 329.678 998.58 330.176 1000.37 330.176C1002.1 330.176 1003.5 329.678 1004.56 328.682C1005.61 327.686 1006.14 326.104 1006.14 323.936V320.83C1006.14 318.662 1005.61 317.08 1004.56 316.084C1003.5 315.088 1002.1 314.59 1000.37 314.59C998.58 314.59 997.174 315.088 996.119 316.084C995.064 317.08 994.508 318.662 994.508 320.83V323.936C994.508 326.104 995.064 327.686 996.119 328.682ZM1003.09 327.334C1002.42 328.008 1001.51 328.359 1000.37 328.359C999.195 328.359 998.258 328.008 997.584 327.334C996.91 326.66 996.559 325.488 996.559 323.818V320.947C996.559 319.277 996.91 318.105 997.584 317.432C998.258 316.758 999.195 316.436 1000.37 316.436C1001.51 316.436 1002.42 316.758 1003.09 317.432C1003.77 318.105 1004.09 319.277 1004.09 320.947V323.818C1004.09 325.488 1003.77 326.66 1003.09 327.334ZM1010.15 314.795V330H1012.17V320.303C1012.17 319.072 1012.53 318.105 1013.17 317.432C1013.81 316.758 1014.66 316.436 1015.75 316.436C1016.86 316.436 1017.71 316.758 1018.33 317.432C1018.94 318.105 1019.23 319.043 1019.23 320.303V330H1021.31V320.215C1021.31 319.043 1021.61 318.105 1022.25 317.432C1022.9 316.758 1023.78 316.436 1024.89 316.436C1026 316.436 1026.82 316.758 1027.44 317.432C1028.05 318.105 1028.35 319.043 1028.35 320.303V330H1030.4V320.01C1030.4 318.311 1029.96 316.963 1029.05 316.025C1028.14 315.088 1026.88 314.619 1025.27 314.619C1023.19 314.619 1021.64 315.469 1020.64 317.168C1020.23 316.348 1019.67 315.703 1018.94 315.264C1018.21 314.824 1017.3 314.619 1016.28 314.619C1015.4 314.619 1014.58 314.795 1013.87 315.146C1013.17 315.498 1012.58 315.967 1012.14 316.641V314.795H1010.15ZM1034.88 314.795V334.57H1036.9V327.979C1037.75 329.443 1039.13 330.176 1041.03 330.176C1042.53 330.176 1043.76 329.678 1044.72 328.682C1045.69 327.686 1046.16 326.104 1046.16 323.936V320.83C1046.16 318.691 1045.66 317.109 1044.69 316.113C1043.73 315.117 1042.44 314.619 1040.88 314.619C1040.01 314.619 1039.21 314.824 1038.54 315.205C1037.87 315.586 1037.31 316.172 1036.9 316.934V314.795H1034.88ZM1044.11 323.818C1044.11 326.836 1042.96 328.359 1040.71 328.359C1039.48 328.359 1038.54 327.92 1037.9 327.07C1037.25 326.221 1036.9 325.137 1036.9 323.789V321.123C1036.9 319.717 1037.22 318.574 1037.84 317.725C1038.45 316.875 1039.36 316.436 1040.59 316.436C1042.94 316.436 1044.11 317.959 1044.11 320.977V323.818ZM1051.29 328.682C1052.34 329.678 1053.75 330.176 1055.53 330.176C1057.26 330.176 1058.67 329.678 1059.72 328.682C1060.78 327.686 1061.3 326.104 1061.3 323.936V320.83C1061.3 318.662 1060.78 317.08 1059.72 316.084C1058.67 315.088 1057.26 314.59 1055.53 314.59C1053.75 314.59 1052.34 315.088 1051.29 316.084C1050.23 317.08 1049.67 318.662 1049.67 320.83V323.936C1049.67 326.104 1050.23 327.686 1051.29 328.682ZM1058.26 327.334C1057.58 328.008 1056.68 328.359 1055.53 328.359C1054.36 328.359 1053.42 328.008 1052.75 327.334C1052.08 326.66 1051.72 325.488 1051.72 323.818V320.947C1051.72 319.277 1052.08 318.105 1052.75 317.432C1053.42 316.758 1054.36 316.436 1055.53 316.436C1056.68 316.436 1057.58 316.758 1058.26 317.432C1058.93 318.105 1059.25 319.277 1059.25 320.947V323.818C1059.25 325.488 1058.93 326.66 1058.26 327.334ZM1065.32 314.795V330H1067.34V320.303C1067.34 319.072 1067.69 318.105 1068.34 317.432C1068.98 316.758 1069.83 316.436 1070.91 316.436C1072.03 316.436 1072.88 316.758 1073.49 317.432C1074.11 318.105 1074.43 319.043 1074.43 320.303V330H1076.48V320.01C1076.48 318.311 1076.04 316.963 1075.16 316.025C1074.28 315.088 1073.05 314.619 1071.44 314.619C1070.56 314.619 1069.74 314.766 1069.04 315.117C1068.34 315.469 1067.75 315.967 1067.31 316.641V314.795H1065.32ZM1082.52 322.793H1092.04V321.006C1092.04 318.838 1091.51 317.197 1090.46 316.143C1089.4 315.088 1087.99 314.59 1086.27 314.59C1084.54 314.59 1083.13 315.088 1082.08 316.143C1081.02 317.197 1080.46 318.838 1080.46 321.006V323.643C1080.46 325.869 1081.02 327.539 1082.08 328.594C1083.13 329.648 1084.54 330.176 1086.32 330.176C1088.05 330.176 1089.43 329.736 1090.43 328.887C1091.42 328.037 1091.92 326.865 1091.92 325.459V325.312H1089.93V325.4C1089.93 326.309 1089.63 327.041 1089.02 327.568C1088.4 328.096 1087.55 328.359 1086.47 328.359C1085.24 328.359 1084.27 328.008 1083.57 327.305C1082.87 326.602 1082.52 325.43 1082.52 323.701V322.793ZM1083.54 317.432C1084.21 316.758 1085.12 316.436 1086.27 316.436C1087.44 316.436 1088.32 316.758 1088.99 317.402C1089.66 318.047 1089.99 319.16 1089.99 320.742V321.27H1082.52V320.947C1082.52 319.277 1082.87 318.105 1083.54 317.432ZM1096.05 314.795V330H1098.07V320.303C1098.07 319.072 1098.42 318.105 1099.07 317.432C1099.71 316.758 1100.56 316.436 1101.65 316.436C1102.76 316.436 1103.61 316.758 1104.22 317.432C1104.84 318.105 1105.16 319.043 1105.16 320.303V330H1107.21V320.01C1107.21 318.311 1106.77 316.963 1105.89 316.025C1105.02 315.088 1103.79 314.619 1102.17 314.619C1101.29 314.619 1100.47 314.766 1099.77 315.117C1099.07 315.469 1098.48 315.967 1098.04 316.641V314.795H1096.05ZM1114.89 316.406H1118.32V314.795H1114.89V310.342L1112.84 311.309V314.795H1110.46V316.406H1112.84V326.221C1112.84 327.393 1113.16 328.33 1113.8 329.004C1114.45 329.678 1115.36 330 1116.53 330H1118.05V328.213H1116.85C1115.56 328.213 1114.89 327.51 1114.89 326.133V316.406Z" fill="white"/>
<path d="M896.627 149.986L897.887 154H902.047L894.693 133.287H891.471L884.117 154H888.248L889.508 149.986H896.627ZM895.572 146.705H890.562L893.053 138.766L895.572 146.705ZM905.064 152.77C905.885 153.59 907.057 154 908.551 154H910.25V150.777H908.99C908.463 150.777 908.111 150.66 907.877 150.396C907.643 150.133 907.525 149.664 907.525 149.02V133.287H903.805V149.254C903.805 150.777 904.244 151.949 905.064 152.77ZM917.369 141.021H920.387V138.414H917.369V134.049L913.678 135.338V138.414H911.539V141.021H913.678V149.488C913.678 150.865 914.117 151.979 914.938 152.799C915.758 153.619 916.9 154 918.307 154H920.064V150.836H918.922C917.896 150.836 917.369 150.309 917.369 149.254V141.021ZM922.936 138.414V154H926.627V138.414H922.936ZM922.877 133.287V136.275H926.656V133.287H922.877ZM929.996 138.414V154H933.717V144.273C933.717 143.395 933.951 142.721 934.42 142.252C934.889 141.783 935.475 141.52 936.207 141.52C936.939 141.52 937.555 141.783 937.994 142.252C938.434 142.721 938.639 143.395 938.639 144.273V154H942.359V143.834C942.359 142.105 941.92 140.729 941.041 139.732C940.162 138.736 938.932 138.209 937.32 138.209C936.617 138.209 935.943 138.355 935.299 138.619C934.654 138.883 934.098 139.293 933.629 139.82V138.414H929.996ZM945.582 138.414V154H949.303V144.273C949.303 143.395 949.537 142.721 950.006 142.252C950.475 141.783 951.061 141.52 951.793 141.52C952.525 141.52 953.141 141.783 953.58 142.252C954.02 142.721 954.225 143.395 954.225 144.273V154H957.945V143.834C957.945 142.105 957.506 140.729 956.627 139.732C955.748 138.736 954.518 138.209 952.906 138.209C952.203 138.209 951.529 138.355 950.885 138.619C950.24 138.883 949.684 139.293 949.215 139.82V138.414H945.582Z" fill="black"/>
<path d="M898.707 277.715V274.287H884.176V277.715H889.449V295H893.434V277.715H898.707ZM900.523 274.287V277.275H904.303V274.287H900.523ZM897.857 296.465V299.688H899.615C901.109 299.688 902.252 299.277 903.072 298.457C903.893 297.637 904.303 296.465 904.303 294.941V279.414H900.611V294.707C900.611 295.322 900.494 295.762 900.26 296.055C900.025 296.348 899.645 296.465 899.117 296.465H897.857ZM911.1 288.32H920.211V286.24C920.211 283.926 919.625 282.168 918.482 280.996C917.34 279.824 915.787 279.209 913.824 279.209C911.832 279.209 910.25 279.795 909.107 280.967C907.965 282.139 907.408 283.896 907.408 286.24V288.145C907.408 290.547 907.994 292.305 909.166 293.447C910.338 294.59 911.949 295.176 913.941 295.176C915.846 295.176 917.34 294.736 918.453 293.828C919.566 292.92 920.094 291.748 920.094 290.254V290.107H916.549L916.52 290.195C916.49 290.752 916.256 291.191 915.846 291.514C915.436 291.836 914.82 291.982 914.088 291.982C913.121 291.982 912.418 291.719 911.891 291.221C911.363 290.723 911.1 289.902 911.1 288.73V288.32ZM911.803 283.164C912.271 282.666 912.945 282.402 913.824 282.402C915.611 282.402 916.49 283.369 916.49 285.361V285.771H911.1V285.684C911.1 284.512 911.334 283.662 911.803 283.164ZM923.17 279.414V295H926.891V285.273C926.891 284.395 927.125 283.721 927.594 283.252C928.062 282.783 928.648 282.52 929.381 282.52C930.113 282.52 930.729 282.783 931.168 283.252C931.607 283.721 931.812 284.395 931.812 285.273V295H935.533V284.834C935.533 283.105 935.094 281.729 934.215 280.732C933.336 279.736 932.105 279.209 930.494 279.209C929.791 279.209 929.117 279.355 928.473 279.619C927.828 279.883 927.271 280.293 926.803 280.82V279.414H923.17ZM942.184 288.32H951.295V286.24C951.295 283.926 950.709 282.168 949.566 280.996C948.424 279.824 946.871 279.209 944.908 279.209C942.916 279.209 941.334 279.795 940.191 280.967C939.049 282.139 938.492 283.896 938.492 286.24V288.145C938.492 290.547 939.078 292.305 940.25 293.447C941.422 294.59 943.033 295.176 945.025 295.176C946.93 295.176 948.424 294.736 949.537 293.828C950.65 292.92 951.178 291.748 951.178 290.254V290.107H947.633L947.604 290.195C947.574 290.752 947.34 291.191 946.93 291.514C946.52 291.836 945.904 291.982 945.172 291.982C944.205 291.982 943.502 291.719 942.975 291.221C942.447 290.723 942.184 289.902 942.184 288.73V288.32ZM942.887 283.164C943.355 282.666 944.029 282.402 944.908 282.402C946.695 282.402 947.574 283.369 947.574 285.361V285.771H942.184V285.684C942.184 284.512 942.418 283.662 942.887 283.164ZM955.338 293.887C956.422 294.766 957.857 295.176 959.645 295.176C961.49 295.176 962.984 294.766 964.156 293.887C965.328 293.008 965.914 291.777 965.914 290.166C965.914 288.877 965.533 287.852 964.742 287.119C963.951 286.387 962.779 285.918 961.227 285.684L959.381 285.391C958.678 285.303 958.209 285.127 957.887 284.863C957.564 284.6 957.418 284.248 957.418 283.779C957.418 283.281 957.594 282.871 958.004 282.578C958.414 282.285 959 282.139 959.762 282.139C960.523 282.139 961.109 282.285 961.549 282.578C961.988 282.871 962.193 283.311 962.193 283.838V283.926H965.621V283.75C965.621 282.9 965.387 282.139 964.889 281.436C964.391 280.732 963.717 280.176 962.838 279.795C961.959 279.414 960.934 279.209 959.762 279.209C958.062 279.209 956.656 279.648 955.572 280.527C954.488 281.406 953.932 282.549 953.932 284.043C953.932 285.332 954.312 286.357 955.045 287.061C955.777 287.764 956.949 288.232 958.502 288.496L960.143 288.76C960.934 288.877 961.49 289.053 961.842 289.316C962.193 289.58 962.369 289.961 962.369 290.43C962.369 291.016 962.135 291.455 961.666 291.748C961.197 292.041 960.582 292.188 959.762 292.188C959 292.188 958.385 292.012 957.916 291.689C957.447 291.367 957.213 290.898 957.213 290.312V290.254H953.727V290.371C953.727 291.836 954.254 293.008 955.338 293.887ZM973.443 282.021H976.461V279.414H973.443V275.049L969.752 276.338V279.414H967.613V282.021H969.752V290.488C969.752 291.865 970.191 292.979 971.012 293.799C971.832 294.619 972.975 295 974.381 295H976.139V291.836H974.996C973.971 291.836 973.443 291.309 973.443 290.254V282.021ZM981.998 288.32H991.109V286.24C991.109 283.926 990.523 282.168 989.381 280.996C988.238 279.824 986.686 279.209 984.723 279.209C982.73 279.209 981.148 279.795 980.006 280.967C978.863 282.139 978.307 283.896 978.307 286.24V288.145C978.307 290.547 978.893 292.305 980.064 293.447C981.236 294.59 982.848 295.176 984.84 295.176C986.744 295.176 988.238 294.736 989.352 293.828C990.465 292.92 990.992 291.748 990.992 290.254V290.107H987.447L987.418 290.195C987.389 290.752 987.154 291.191 986.744 291.514C986.334 291.836 985.719 291.982 984.986 291.982C984.02 291.982 983.316 291.719 982.789 291.221C982.262 290.723 981.998 289.902 981.998 288.73V288.32ZM982.701 283.164C983.17 282.666 983.844 282.402 984.723 282.402C986.51 282.402 987.389 283.369 987.389 285.361V285.771H981.998V285.684C981.998 284.512 982.232 283.662 982.701 283.164ZM997.496 288.32H1006.61V286.24C1006.61 283.926 1006.02 282.168 1004.88 280.996C1003.74 279.824 1002.18 279.209 1000.22 279.209C998.229 279.209 996.646 279.795 995.504 280.967C994.361 282.139 993.805 283.896 993.805 286.24V288.145C993.805 290.547 994.391 292.305 995.562 293.447C996.734 294.59 998.346 295.176 1000.34 295.176C1002.24 295.176 1003.74 294.736 1004.85 293.828C1005.96 292.92 1006.49 291.748 1006.49 290.254V290.107H1002.95L1002.92 290.195C1002.89 290.752 1002.65 291.191 1002.24 291.514C1001.83 291.836 1001.22 291.982 1000.48 291.982C999.518 291.982 998.814 291.719 998.287 291.221C997.76 290.723 997.496 289.902 997.496 288.73V288.32ZM998.199 283.164C998.668 282.666 999.342 282.402 1000.22 282.402C1002.01 282.402 1002.89 283.369 1002.89 285.361V285.771H997.496V285.684C997.496 284.512 997.73 283.662 998.199 283.164ZM1009.71 279.414V295H1013.4V279.414H1009.71ZM1009.65 274.287V277.275H1013.43V274.287H1009.65ZM1020.2 288.32H1029.31V286.24C1029.31 283.926 1028.73 282.168 1027.58 280.996C1026.44 279.824 1024.89 279.209 1022.93 279.209C1020.93 279.209 1019.35 279.795 1018.21 280.967C1017.07 282.139 1016.51 283.896 1016.51 286.24V288.145C1016.51 290.547 1017.1 292.305 1018.27 293.447C1019.44 294.59 1021.05 295.176 1023.04 295.176C1024.95 295.176 1026.44 294.736 1027.55 293.828C1028.67 292.92 1029.2 291.748 1029.2 290.254V290.107H1025.65L1025.62 290.195C1025.59 290.752 1025.36 291.191 1024.95 291.514C1024.54 291.836 1023.92 291.982 1023.19 291.982C1022.22 291.982 1021.52 291.719 1020.99 291.221C1020.46 290.723 1020.2 289.902 1020.2 288.73V288.32ZM1020.9 283.164C1021.37 282.666 1022.05 282.402 1022.93 282.402C1024.71 282.402 1025.59 283.369 1025.59 285.361V285.771H1020.2V285.684C1020.2 284.512 1020.44 283.662 1020.9 283.164ZM1032.27 279.414V295H1035.99V285.654C1035.99 284.6 1036.26 283.75 1036.81 283.193C1037.37 282.637 1038.1 282.344 1039.01 282.344C1039.54 282.344 1040.15 282.432 1040.86 282.666V279.18C1040.47 279.092 1040.06 279.062 1039.6 279.062C1038.8 279.062 1038.07 279.238 1037.43 279.561C1036.78 279.883 1036.29 280.352 1035.9 281.025V279.414H1032.27Z" fill="white"/>
<path d="M1048.5 80.4778C1048.49 81.5823 1049.37 82.4876 1050.48 82.4999L1068.48 82.6999C1069.58 82.7121 1070.49 81.8267 1070.5 80.7222C1070.51 79.6177 1069.63 78.7124 1068.52 78.7001L1052.52 78.5223L1052.7 62.5233C1052.71 61.4188 1051.83 60.5135 1050.72 60.5012C1049.62 60.489 1048.71 61.3744 1048.7 62.4789L1048.5 80.4778ZM1344.93 79.0994C1266.69 -0.651414 1140.93 -10.7369 1049.1 79.0702L1051.9 81.9298C1142.07 -6.26308 1265.31 3.65141 1342.07 81.9006L1344.93 79.0994Z" fill="#BCC7CC"/>
<path d="M258 80.0334C257.988 81.1379 258.873 82.0433 259.978 82.0555L277.977 82.2555C279.081 82.2678 279.986 81.3824 279.999 80.2779C280.011 79.1734 279.126 78.268 278.021 78.2558L262.022 78.078L262.2 62.079C262.212 60.9745 261.327 60.0692 260.222 60.0569C259.118 60.0446 258.212 60.9301 258.2 62.0346L258 80.0334ZM554.428 78.6551C476.191 -1.09575 350.427 -11.1813 258.602 78.6258L261.398 81.4855C351.573 -6.70742 474.809 3.20708 551.572 81.4563L554.428 78.6551Z" fill="#BCC7CC"/>
<path d="M1048.5 384.022C1048.49 382.918 1049.37 382.012 1050.48 382L1068.48 381.8C1069.58 381.788 1070.49 382.673 1070.5 383.778C1070.51 384.882 1069.63 385.788 1068.52 385.8L1052.52 385.978L1052.7 401.977C1052.71 403.081 1051.83 403.986 1050.72 403.999C1049.62 404.011 1048.71 403.126 1048.7 402.021L1048.5 384.022ZM1344.93 385.401C1266.69 465.151 1140.93 475.237 1049.1 385.43L1051.9 382.57C1142.07 470.763 1265.31 460.849 1342.07 382.599L1344.93 385.401Z" fill="#BCC7CC"/>
<path d="M258 383.578C257.988 382.473 258.873 381.568 259.978 381.556L277.977 381.356C279.081 381.344 279.986 382.229 279.999 383.333C280.011 384.438 279.126 385.343 278.021 385.356L262.022 385.533L262.2 401.532C262.212 402.637 261.327 403.542 260.222 403.554C259.118 403.567 258.212 402.681 258.2 401.577L258 383.578ZM554.428 384.956C476.191 464.707 350.427 474.793 258.602 384.986L261.398 382.126C351.573 470.319 474.809 460.404 551.572 382.155L554.428 384.956Z" fill="#BCC7CC"/>
<path d="M1724.99 220.145H1722.35V240.113L1709.52 220.145H1706.88V245H1709.52V224.996L1722.35 245H1724.99V220.145ZM1743.13 226.754H1740.56L1735.78 241.273L1731 226.754H1728.33L1734.62 244.824L1734.23 245.949C1733.95 246.758 1733.6 247.355 1733.14 247.707C1732.69 248.059 1732.02 248.234 1731.14 248.234H1730.26V250.484H1731.32C1732.55 250.484 1733.57 250.203 1734.34 249.641C1735.11 249.078 1735.71 248.199 1736.13 246.969L1743.13 226.754ZM1760 235.543L1765.52 245H1768.51L1761.62 233.645L1767.49 226.754H1764.54L1756.56 236.457V220.145H1754.13V245H1756.56V239.551L1760 235.543ZM1773.22 243.418C1774.49 244.613 1776.18 245.211 1778.32 245.211C1780.39 245.211 1782.08 244.613 1783.35 243.418C1784.61 242.223 1785.25 240.324 1785.25 237.723V233.996C1785.25 231.395 1784.61 229.496 1783.35 228.301C1782.08 227.105 1780.39 226.508 1778.32 226.508C1776.18 226.508 1774.49 227.105 1773.22 228.301C1771.96 229.496 1771.29 231.395 1771.29 233.996V237.723C1771.29 240.324 1771.96 242.223 1773.22 243.418ZM1781.59 241.801C1780.78 242.609 1779.69 243.031 1778.32 243.031C1776.91 243.031 1775.79 242.609 1774.98 241.801C1774.17 240.992 1773.75 239.586 1773.75 237.582V234.137C1773.75 232.133 1774.17 230.727 1774.98 229.918C1775.79 229.109 1776.91 228.723 1778.32 228.723C1779.69 228.723 1780.78 229.109 1781.59 229.918C1782.4 230.727 1782.79 232.133 1782.79 234.137V237.582C1782.79 239.586 1782.4 240.992 1781.59 241.801ZM1790.06 226.754V245H1792.49V233.363C1792.49 231.887 1792.91 230.727 1793.68 229.918C1794.46 229.109 1795.48 228.723 1796.78 228.723C1798.11 228.723 1799.13 229.109 1799.87 229.918C1800.61 230.727 1800.96 231.852 1800.96 233.363V245H1803.46V233.258C1803.46 231.852 1803.81 230.727 1804.58 229.918C1805.36 229.109 1806.41 228.723 1807.75 228.723C1809.08 228.723 1810.07 229.109 1810.8 229.918C1811.54 230.727 1811.89 231.852 1811.89 233.363V245H1814.36V233.012C1814.36 230.973 1813.83 229.355 1812.74 228.23C1811.65 227.105 1810.14 226.543 1808.2 226.543C1805.71 226.543 1803.84 227.562 1802.65 229.602C1802.16 228.617 1801.49 227.844 1800.61 227.316C1799.73 226.789 1798.64 226.543 1797.41 226.543C1796.36 226.543 1795.37 226.754 1794.53 227.176C1793.68 227.598 1792.98 228.16 1792.45 228.969V226.754H1790.06ZM1819.73 226.754V250.484H1822.16V242.574C1823.18 244.332 1824.83 245.211 1827.12 245.211C1828.91 245.211 1830.39 244.613 1831.55 243.418C1832.71 242.223 1833.27 240.324 1833.27 237.723V233.996C1833.27 231.43 1832.67 229.531 1831.51 228.336C1830.35 227.141 1828.8 226.543 1826.94 226.543C1825.89 226.543 1824.94 226.789 1824.13 227.246C1823.32 227.703 1822.65 228.406 1822.16 229.32V226.754H1819.73ZM1830.81 237.582C1830.81 241.203 1829.44 243.031 1826.73 243.031C1825.25 243.031 1824.13 242.504 1823.36 241.484C1822.58 240.465 1822.16 239.164 1822.16 237.547V234.348C1822.16 232.66 1822.55 231.289 1823.29 230.27C1824.02 229.25 1825.11 228.723 1826.59 228.723C1829.4 228.723 1830.81 230.551 1830.81 234.172V237.582ZM1839.42 243.418C1840.69 244.613 1842.38 245.211 1844.52 245.211C1846.59 245.211 1848.28 244.613 1849.55 243.418C1850.81 242.223 1851.45 240.324 1851.45 237.723V233.996C1851.45 231.395 1850.81 229.496 1849.55 228.301C1848.28 227.105 1846.59 226.508 1844.52 226.508C1842.38 226.508 1840.69 227.105 1839.42 228.301C1838.16 229.496 1837.49 231.395 1837.49 233.996V237.723C1837.49 240.324 1838.16 242.223 1839.42 243.418ZM1847.79 241.801C1846.98 242.609 1845.89 243.031 1844.52 243.031C1843.11 243.031 1841.99 242.609 1841.18 241.801C1840.37 240.992 1839.95 239.586 1839.95 237.582V234.137C1839.95 232.133 1840.37 230.727 1841.18 229.918C1841.99 229.109 1843.11 228.723 1844.52 228.723C1845.89 228.723 1846.98 229.109 1847.79 229.918C1848.6 230.727 1848.98 232.133 1848.98 234.137V237.582C1848.98 239.586 1848.6 240.992 1847.79 241.801ZM1856.26 226.754V245H1858.69V233.363C1858.69 231.887 1859.11 230.727 1859.88 229.918C1860.66 229.109 1861.68 228.723 1862.98 228.723C1864.31 228.723 1865.33 229.109 1866.07 229.918C1866.81 230.727 1867.2 231.852 1867.2 233.363V245H1869.66V233.012C1869.66 230.973 1869.13 229.355 1868.07 228.23C1867.02 227.105 1865.54 226.543 1863.61 226.543C1862.55 226.543 1861.57 226.719 1860.73 227.141C1859.88 227.562 1859.18 228.16 1858.65 228.969V226.754H1856.26ZM1876.9 236.352H1888.32V234.207C1888.32 231.605 1887.69 229.637 1886.43 228.371C1885.16 227.105 1883.47 226.508 1881.4 226.508C1879.32 226.508 1877.64 227.105 1876.37 228.371C1875.11 229.637 1874.44 231.605 1874.44 234.207V237.371C1874.44 240.043 1875.11 242.047 1876.37 243.312C1877.64 244.578 1879.32 245.211 1881.47 245.211C1883.54 245.211 1885.2 244.684 1886.39 243.664C1887.59 242.645 1888.18 241.238 1888.18 239.551V239.375H1885.79V239.48C1885.79 240.57 1885.44 241.449 1884.7 242.082C1883.96 242.715 1882.95 243.031 1881.64 243.031C1880.17 243.031 1879.01 242.609 1878.16 241.766C1877.32 240.922 1876.9 239.516 1876.9 237.441V236.352ZM1878.13 229.918C1878.94 229.109 1880.03 228.723 1881.4 228.723C1882.8 228.723 1883.86 229.109 1884.67 229.883C1885.48 230.656 1885.86 231.992 1885.86 233.891V234.523H1876.9V234.137C1876.9 232.133 1877.32 230.727 1878.13 229.918ZM1893.14 226.754V245H1895.57V233.363C1895.57 231.887 1895.99 230.727 1896.76 229.918C1897.54 229.109 1898.55 228.723 1899.86 228.723C1901.19 228.723 1902.21 229.109 1902.95 229.918C1903.69 230.727 1904.07 231.852 1904.07 233.363V245H1906.54V233.012C1906.54 230.973 1906.01 229.355 1904.95 228.23C1903.9 227.105 1902.42 226.543 1900.49 226.543C1899.43 226.543 1898.45 226.719 1897.61 227.141C1896.76 227.562 1896.06 228.16 1895.53 228.969V226.754H1893.14ZM1915.75 228.688H1919.86V226.754H1915.75V221.41L1913.29 222.57V226.754H1910.44V228.688H1913.29V240.465C1913.29 241.871 1913.67 242.996 1914.45 243.805C1915.22 244.613 1916.31 245 1917.71 245H1919.54V242.855H1918.1C1916.55 242.855 1915.75 242.012 1915.75 240.359V228.688Z" fill="black"/>
</g>
<defs>
<clipPath id="clip0">
<rect width="1966" height="466" fill="white"/>
</clipPath>
</defs>
</svg>
