<svg width="1966" height="466" viewBox="0 0 1966 466" fill="none" xmlns="http://www.w3.org/2000/svg">
<g clip-path="url(#clip0)">
<path d="M0 101.556H370.491L438 231.556L370.491 360.556H0V101.556Z" fill="#EFEFEF"/>
<path d="M402 101.556H772.491L840 231.556L772.491 360.556H402L473 231.556L402 101.556Z" fill="#EFEFEF"/>
<path d="M1197 102H1567.49L1635 232L1567.49 361H1197L1268 232L1197 102Z" fill="#EFEFEF"/>
<path d="M1596 102H1966.49V232V361H1596L1667 232L1596 102Z" fill="#D4F9E4"/>
<path d="M869 245H1236L1168.49 361H798L869 245Z" fill="#022F51"/>
<path d="M798 102H1168.49L1236 222H869L798 102Z" fill="#EFEFEF"/>
<path d="M71.5195 203.091H83.9648V200.7H68.8828V225.556H71.5195V214.165H82.1719V211.81H71.5195V203.091ZM87.6211 223.974C88.8867 225.169 90.5742 225.767 92.7188 225.767C94.793 225.767 96.4805 225.169 97.7461 223.974C99.0117 222.778 99.6445 220.88 99.6445 218.278V214.552C99.6445 211.95 99.0117 210.052 97.7461 208.856C96.4805 207.661 94.793 207.063 92.7188 207.063C90.5742 207.063 88.8867 207.661 87.6211 208.856C86.3555 210.052 85.6875 211.95 85.6875 214.552V218.278C85.6875 220.88 86.3555 222.778 87.6211 223.974ZM95.9883 222.356C95.1797 223.165 94.0898 223.587 92.7188 223.587C91.3125 223.587 90.1875 223.165 89.3789 222.356C88.5703 221.548 88.1484 220.142 88.1484 218.138V214.692C88.1484 212.688 88.5703 211.282 89.3789 210.474C90.1875 209.665 91.3125 209.278 92.7188 209.278C94.0898 209.278 95.1797 209.665 95.9883 210.474C96.7969 211.282 97.1836 212.688 97.1836 214.692V218.138C97.1836 220.142 96.7969 221.548 95.9883 222.356ZM104.461 207.31V225.556H106.887V213.989C106.887 212.583 107.309 211.493 108.082 210.614C108.855 209.735 109.875 209.313 111.105 209.313C111.773 209.313 112.406 209.419 112.969 209.595V207.169C112.547 207.099 112.125 207.063 111.668 207.063C110.648 207.063 109.699 207.274 108.855 207.731C108.012 208.188 107.344 208.821 106.852 209.735V207.31H104.461ZM118.453 216.907H129.879V214.763C129.879 212.161 129.246 210.192 127.98 208.927C126.715 207.661 125.027 207.063 122.953 207.063C120.879 207.063 119.191 207.661 117.926 208.927C116.66 210.192 115.992 212.161 115.992 214.763V217.927C115.992 220.599 116.66 222.603 117.926 223.868C119.191 225.134 120.879 225.767 123.023 225.767C125.098 225.767 126.75 225.239 127.945 224.22C129.141 223.2 129.738 221.794 129.738 220.106V219.931H127.348V220.036C127.348 221.126 126.996 222.005 126.258 222.638C125.52 223.271 124.5 223.587 123.199 223.587C121.723 223.587 120.562 223.165 119.719 222.321C118.875 221.478 118.453 220.071 118.453 217.997V216.907ZM119.684 210.474C120.492 209.665 121.582 209.278 122.953 209.278C124.359 209.278 125.414 209.665 126.223 210.438C127.031 211.212 127.418 212.548 127.418 214.446V215.079H118.453V214.692C118.453 212.688 118.875 211.282 119.684 210.474ZM135.469 224.325C136.664 225.274 138.281 225.767 140.285 225.767C142.359 225.767 144.047 225.31 145.277 224.36C146.508 223.411 147.141 222.075 147.141 220.353C147.141 218.911 146.719 217.821 145.875 217.048C145.031 216.274 143.695 215.747 141.902 215.396L139.512 214.974C138.422 214.798 137.578 214.481 137.086 214.024C136.594 213.567 136.348 212.97 136.348 212.161C136.348 211.212 136.699 210.474 137.402 209.911C138.105 209.349 139.125 209.067 140.391 209.067C141.691 209.067 142.711 209.349 143.449 209.911C144.188 210.474 144.539 211.212 144.539 212.161V212.267H146.93V212.056C146.93 210.579 146.332 209.349 145.137 208.435C143.941 207.521 142.324 207.063 140.32 207.063C138.457 207.063 136.875 207.521 135.715 208.47C134.555 209.419 133.957 210.685 133.957 212.267C133.957 213.673 134.379 214.763 135.188 215.501C135.996 216.239 137.297 216.767 139.09 217.083L141.34 217.505C142.535 217.716 143.414 218.032 143.941 218.454C144.469 218.876 144.785 219.579 144.785 220.493C144.785 221.513 144.363 222.286 143.59 222.849C142.816 223.411 141.762 223.692 140.391 223.692C139.055 223.692 138 223.411 137.227 222.813C136.453 222.216 136.066 221.442 136.066 220.423V220.282H133.676V220.458C133.676 222.075 134.273 223.376 135.469 224.325ZM152.484 224.325C153.258 225.134 154.348 225.556 155.824 225.556H157.547V223.341H156.07C155.262 223.341 154.664 223.095 154.312 222.673C153.961 222.251 153.75 221.583 153.75 220.634V200.7H151.324V220.774C151.324 222.321 151.711 223.517 152.484 224.325ZM171.891 208.61C170.766 207.591 169.148 207.063 167.004 207.063C165.035 207.063 163.488 207.521 162.363 208.47C161.238 209.419 160.641 210.649 160.641 212.196V212.372H163.031V212.267C163.031 211.282 163.383 210.509 164.086 209.946C164.789 209.384 165.809 209.103 167.039 209.103C168.375 209.103 169.395 209.454 170.098 210.122C170.801 210.79 171.152 211.774 171.152 213.11V215.185H166.23C164.297 215.185 162.785 215.677 161.73 216.591C160.676 217.505 160.113 218.806 160.113 220.423C160.113 222.181 160.641 223.481 161.695 224.396C162.75 225.31 164.227 225.767 166.16 225.767C167.32 225.767 168.34 225.591 169.148 225.239C169.957 224.888 170.66 224.36 171.223 223.622V225.556H173.613V213.146C173.613 211.142 173.016 209.63 171.891 208.61ZM170.062 222.708C169.324 223.446 168.164 223.798 166.547 223.798C163.875 223.798 162.574 222.673 162.574 220.388C162.574 218.138 163.91 216.978 166.582 216.978H171.152V219.368C171.152 220.845 170.801 221.97 170.062 222.708ZM164.93 204.497C165.527 205.13 166.336 205.446 167.285 205.446C168.234 205.446 168.973 205.13 169.605 204.497C170.238 203.864 170.555 203.091 170.555 202.142C170.555 201.192 170.238 200.419 169.605 199.786C168.973 199.153 168.234 198.837 167.285 198.837C166.336 198.837 165.527 199.153 164.93 199.786C164.332 200.419 164.016 201.192 164.016 202.142C164.016 203.091 164.332 203.864 164.93 204.497ZM168.621 203.513C168.27 203.864 167.812 204.075 167.285 204.075C166.758 204.075 166.301 203.864 165.949 203.513C165.598 203.161 165.422 202.704 165.422 202.142C165.422 201.579 165.598 201.157 165.949 200.771C166.301 200.384 166.758 200.208 167.285 200.208C167.812 200.208 168.27 200.384 168.621 200.771C168.973 201.157 169.148 201.579 169.148 202.142C169.148 202.704 168.973 203.161 168.621 203.513ZM188.66 216.907H200.086V214.763C200.086 212.161 199.453 210.192 198.188 208.927C196.922 207.661 195.234 207.063 193.16 207.063C191.086 207.063 189.398 207.661 188.133 208.927C186.867 210.192 186.199 212.161 186.199 214.763V217.927C186.199 220.599 186.867 222.603 188.133 223.868C189.398 225.134 191.086 225.767 193.23 225.767C195.305 225.767 196.957 225.239 198.152 224.22C199.348 223.2 199.945 221.794 199.945 220.106V219.931H197.555V220.036C197.555 221.126 197.203 222.005 196.465 222.638C195.727 223.271 194.707 223.587 193.406 223.587C191.93 223.587 190.77 223.165 189.926 222.321C189.082 221.478 188.66 220.071 188.66 217.997V216.907ZM189.891 210.474C190.699 209.665 191.789 209.278 193.16 209.278C194.566 209.278 195.621 209.665 196.43 210.438C197.238 211.212 197.625 212.548 197.625 214.446V215.079H188.66V214.692C188.66 212.688 189.082 211.282 189.891 210.474ZM204.902 207.31V225.556H207.328V213.919C207.328 212.442 207.75 211.282 208.523 210.474C209.297 209.665 210.316 209.278 211.617 209.278C212.953 209.278 213.973 209.665 214.711 210.474C215.449 211.282 215.836 212.407 215.836 213.919V225.556H218.297V213.567C218.297 211.528 217.77 209.911 216.715 208.786C215.66 207.661 214.184 207.099 212.25 207.099C211.195 207.099 210.211 207.274 209.367 207.696C208.523 208.118 207.82 208.716 207.293 209.524V207.31H204.902ZM231.48 207.31V225.556H233.906V213.919C233.906 212.442 234.328 211.282 235.102 210.474C235.875 209.665 236.895 209.278 238.195 209.278C239.531 209.278 240.551 209.665 241.289 210.474C242.027 211.282 242.414 212.407 242.414 213.919V225.556H244.875V213.567C244.875 211.528 244.348 209.911 243.293 208.786C242.238 207.661 240.762 207.099 238.828 207.099C237.773 207.099 236.789 207.274 235.945 207.696C235.102 208.118 234.398 208.716 233.871 209.524V207.31H231.48ZM262.84 207.31H260.273L255.492 221.829L250.711 207.31H248.039L254.332 225.38L253.945 226.505C253.664 227.313 253.312 227.911 252.855 228.263C252.398 228.614 251.73 228.79 250.852 228.79H249.973V231.04H251.027C252.258 231.04 253.277 230.759 254.051 230.196C254.824 229.634 255.422 228.755 255.844 227.524L262.84 207.31ZM74.5781 255.099L80.0977 264.556H83.0859L76.1953 253.2L82.0664 246.31H79.1133L71.1328 256.013V239.7H68.707V264.556H71.1328V259.106L74.5781 255.099ZM87.7969 262.974C89.0625 264.169 90.75 264.767 92.8945 264.767C94.9688 264.767 96.6562 264.169 97.9219 262.974C99.1875 261.778 99.8203 259.88 99.8203 257.278V253.552C99.8203 250.95 99.1875 249.052 97.9219 247.856C96.6562 246.661 94.9688 246.063 92.8945 246.063C90.75 246.063 89.0625 246.661 87.7969 247.856C86.5312 249.052 85.8633 250.95 85.8633 253.552V257.278C85.8633 259.88 86.5312 261.778 87.7969 262.974ZM96.1641 261.356C95.3555 262.165 94.2656 262.587 92.8945 262.587C91.4883 262.587 90.3633 262.165 89.5547 261.356C88.7461 260.548 88.3242 259.142 88.3242 257.138V253.692C88.3242 251.688 88.7461 250.282 89.5547 249.474C90.3633 248.665 91.4883 248.278 92.8945 248.278C94.2656 248.278 95.3555 248.665 96.1641 249.474C96.9727 250.282 97.3594 251.688 97.3594 253.692V257.138C97.3594 259.142 96.9727 260.548 96.1641 261.356ZM104.637 246.31V264.556H107.062V252.919C107.062 251.442 107.484 250.282 108.258 249.474C109.031 248.665 110.051 248.278 111.352 248.278C112.688 248.278 113.707 248.665 114.445 249.474C115.184 250.282 115.535 251.407 115.535 252.919V264.556H118.031V252.813C118.031 251.407 118.383 250.282 119.156 249.474C119.93 248.665 120.984 248.278 122.32 248.278C123.656 248.278 124.641 248.665 125.379 249.474C126.117 250.282 126.469 251.407 126.469 252.919V264.556H128.93V252.567C128.93 250.528 128.402 248.911 127.312 247.786C126.223 246.661 124.711 246.099 122.777 246.099C120.281 246.099 118.418 247.118 117.223 249.157C116.73 248.173 116.062 247.399 115.184 246.872C114.305 246.345 113.215 246.099 111.984 246.099C110.93 246.099 109.945 246.31 109.102 246.731C108.258 247.153 107.555 247.716 107.027 248.524V246.31H104.637ZM134.309 246.31V270.04H136.734V262.13C137.754 263.888 139.406 264.767 141.691 264.767C143.484 264.767 144.961 264.169 146.121 262.974C147.281 261.778 147.844 259.88 147.844 257.278V253.552C147.844 250.985 147.246 249.087 146.086 247.892C144.926 246.696 143.379 246.099 141.516 246.099C140.461 246.099 139.512 246.345 138.703 246.802C137.895 247.259 137.227 247.962 136.734 248.876V246.31H134.309ZM145.383 257.138C145.383 260.759 144.012 262.587 141.305 262.587C139.828 262.587 138.703 262.06 137.93 261.04C137.156 260.021 136.734 258.72 136.734 257.103V253.903C136.734 252.216 137.121 250.845 137.859 249.825C138.598 248.806 139.688 248.278 141.164 248.278C143.977 248.278 145.383 250.106 145.383 253.728V257.138ZM153.996 262.974C155.262 264.169 156.949 264.767 159.094 264.767C161.168 264.767 162.855 264.169 164.121 262.974C165.387 261.778 166.02 259.88 166.02 257.278V253.552C166.02 250.95 165.387 249.052 164.121 247.856C162.855 246.661 161.168 246.063 159.094 246.063C156.949 246.063 155.262 246.661 153.996 247.856C152.73 249.052 152.062 250.95 152.062 253.552V257.278C152.062 259.88 152.73 261.778 153.996 262.974ZM162.363 261.356C161.555 262.165 160.465 262.587 159.094 262.587C157.688 262.587 156.562 262.165 155.754 261.356C154.945 260.548 154.523 259.142 154.523 257.138V253.692C154.523 251.688 154.945 250.282 155.754 249.474C156.562 248.665 157.688 248.278 159.094 248.278C160.465 248.278 161.555 248.665 162.363 249.474C163.172 250.282 163.559 251.688 163.559 253.692V257.138C163.559 259.142 163.172 260.548 162.363 261.356ZM170.836 246.31V264.556H173.262V252.919C173.262 251.442 173.684 250.282 174.457 249.474C175.23 248.665 176.25 248.278 177.551 248.278C178.887 248.278 179.906 248.665 180.645 249.474C181.383 250.282 181.77 251.407 181.77 252.919V264.556H184.23V252.567C184.23 250.528 183.703 248.911 182.648 247.786C181.594 246.661 180.117 246.099 178.184 246.099C177.129 246.099 176.145 246.274 175.301 246.696C174.457 247.118 173.754 247.716 173.227 248.524V246.31H170.836ZM191.473 255.907H202.898V253.763C202.898 251.161 202.266 249.192 201 247.927C199.734 246.661 198.047 246.063 195.973 246.063C193.898 246.063 192.211 246.661 190.945 247.927C189.68 249.192 189.012 251.161 189.012 253.763V256.927C189.012 259.599 189.68 261.603 190.945 262.868C192.211 264.134 193.898 264.767 196.043 264.767C198.117 264.767 199.77 264.239 200.965 263.22C202.16 262.2 202.758 260.794 202.758 259.106V258.931H200.367V259.036C200.367 260.126 200.016 261.005 199.277 261.638C198.539 262.271 197.52 262.587 196.219 262.587C194.742 262.587 193.582 262.165 192.738 261.321C191.895 260.478 191.473 259.071 191.473 256.997V255.907ZM192.703 249.474C193.512 248.665 194.602 248.278 195.973 248.278C197.379 248.278 198.434 248.665 199.242 249.438C200.051 250.212 200.438 251.548 200.438 253.446V254.079H191.473V253.692C191.473 251.688 191.895 250.282 192.703 249.474ZM207.715 246.31V264.556H210.141V252.919C210.141 251.442 210.562 250.282 211.336 249.474C212.109 248.665 213.129 248.278 214.43 248.278C215.766 248.278 216.785 248.665 217.523 249.474C218.262 250.282 218.648 251.407 218.648 252.919V264.556H221.109V252.567C221.109 250.528 220.582 248.911 219.527 247.786C218.473 246.661 216.996 246.099 215.062 246.099C214.008 246.099 213.023 246.274 212.18 246.696C211.336 247.118 210.633 247.716 210.105 248.524V246.31H207.715ZM230.32 248.243H234.434V246.31H230.32V240.966L227.859 242.126V246.31H225.012V248.243H227.859V260.021C227.859 261.427 228.246 262.552 229.02 263.36C229.793 264.169 230.883 264.556 232.289 264.556H234.117V262.411H232.676C231.129 262.411 230.32 261.567 230.32 259.915V248.243Z" fill="black"/>
<path d="M889.889 188.297C890.973 188.883 892.203 189.176 893.551 189.176C894.898 189.176 896.129 188.883 897.213 188.297C898.297 187.711 899.117 186.92 899.732 185.865C900.348 184.811 900.641 183.609 900.641 182.262V168.287H898.473V182.057C898.473 183.639 898.004 184.898 897.096 185.836C896.188 186.773 895.045 187.242 893.551 187.242C892.057 187.242 890.826 186.773 889.947 185.836C889.068 184.898 888.629 183.639 888.629 182.057V168.287H886.402V182.262C886.402 183.609 886.725 184.781 887.34 185.836C887.955 186.891 888.805 187.711 889.889 188.297ZM908.492 175.406H911.92V173.795H908.492V169.342L906.441 170.309V173.795H904.068V175.406H906.441V185.221C906.441 186.393 906.764 187.33 907.408 188.004C908.053 188.678 908.961 189 910.133 189H911.656V187.213H910.455C909.166 187.213 908.492 186.51 908.492 185.133V175.406ZM913.648 173.795L918.922 189H920.738L925.982 173.795H923.785L919.83 186.012L915.875 173.795H913.648ZM928.883 173.795V189H930.934V173.795H928.883ZM928.824 168.609V171.305H930.992V168.609H928.824ZM940.543 181.119L945.143 189H947.633L941.891 179.537L946.783 173.795H944.322L937.672 181.881V168.287H935.65V189H937.672V184.459L940.543 181.119ZM951.412 187.975C952.057 188.648 952.965 189 954.195 189H955.631V187.154H954.4C953.727 187.154 953.229 186.949 952.936 186.598C952.643 186.246 952.467 185.689 952.467 184.898V168.287H950.445V185.016C950.445 186.305 950.768 187.301 951.412 187.975ZM960.172 181.793H969.693V180.006C969.693 177.838 969.166 176.197 968.111 175.143C967.057 174.088 965.65 173.59 963.922 173.59C962.193 173.59 960.787 174.088 959.732 175.143C958.678 176.197 958.121 177.838 958.121 180.006V182.643C958.121 184.869 958.678 186.539 959.732 187.594C960.787 188.648 962.193 189.176 963.98 189.176C965.709 189.176 967.086 188.736 968.082 187.887C969.078 187.037 969.576 185.865 969.576 184.459V184.312H967.584V184.4C967.584 185.309 967.291 186.041 966.676 186.568C966.061 187.096 965.211 187.359 964.127 187.359C962.896 187.359 961.93 187.008 961.227 186.305C960.523 185.602 960.172 184.43 960.172 182.701V181.793ZM961.197 176.432C961.871 175.758 962.779 175.436 963.922 175.436C965.094 175.436 965.973 175.758 966.646 176.402C967.32 177.047 967.643 178.16 967.643 179.742V180.27H960.172V179.947C960.172 178.277 960.523 177.105 961.197 176.432ZM985.104 181.119L989.703 189H992.193L986.451 179.537L991.344 173.795H988.883L982.232 181.881V168.287H980.211V189H982.232V184.459L985.104 181.119ZM996.119 187.682C997.174 188.678 998.58 189.176 1000.37 189.176C1002.1 189.176 1003.5 188.678 1004.56 187.682C1005.61 186.686 1006.14 185.104 1006.14 182.936V179.83C1006.14 177.662 1005.61 176.08 1004.56 175.084C1003.5 174.088 1002.1 173.59 1000.37 173.59C998.58 173.59 997.174 174.088 996.119 175.084C995.064 176.08 994.508 177.662 994.508 179.83V182.936C994.508 185.104 995.064 186.686 996.119 187.682ZM1003.09 186.334C1002.42 187.008 1001.51 187.359 1000.37 187.359C999.195 187.359 998.258 187.008 997.584 186.334C996.91 185.66 996.559 184.488 996.559 182.818V179.947C996.559 178.277 996.91 177.105 997.584 176.432C998.258 175.758 999.195 175.436 1000.37 175.436C1001.51 175.436 1002.42 175.758 1003.09 176.432C1003.77 177.105 1004.09 178.277 1004.09 179.947V182.818C1004.09 184.488 1003.77 185.66 1003.09 186.334ZM1010.15 173.795V189H1012.17V179.303C1012.17 178.072 1012.53 177.105 1013.17 176.432C1013.81 175.758 1014.66 175.436 1015.75 175.436C1016.86 175.436 1017.71 175.758 1018.33 176.432C1018.94 177.105 1019.23 178.043 1019.23 179.303V189H1021.31V179.215C1021.31 178.043 1021.61 177.105 1022.25 176.432C1022.9 175.758 1023.78 175.436 1024.89 175.436C1026 175.436 1026.82 175.758 1027.44 176.432C1028.05 177.105 1028.35 178.043 1028.35 179.303V189H1030.4V179.01C1030.4 177.311 1029.96 175.963 1029.05 175.025C1028.14 174.088 1026.88 173.619 1025.27 173.619C1023.19 173.619 1021.64 174.469 1020.64 176.168C1020.23 175.348 1019.67 174.703 1018.94 174.264C1018.21 173.824 1017.3 173.619 1016.28 173.619C1015.4 173.619 1014.58 173.795 1013.87 174.146C1013.17 174.498 1012.58 174.967 1012.14 175.641V173.795H1010.15ZM1034.88 173.795V193.57H1036.9V186.979C1037.75 188.443 1039.13 189.176 1041.03 189.176C1042.53 189.176 1043.76 188.678 1044.72 187.682C1045.69 186.686 1046.16 185.104 1046.16 182.936V179.83C1046.16 177.691 1045.66 176.109 1044.69 175.113C1043.73 174.117 1042.44 173.619 1040.88 173.619C1040.01 173.619 1039.21 173.824 1038.54 174.205C1037.87 174.586 1037.31 175.172 1036.9 175.934V173.795H1034.88ZM1044.11 182.818C1044.11 185.836 1042.96 187.359 1040.71 187.359C1039.48 187.359 1038.54 186.92 1037.9 186.07C1037.25 185.221 1036.9 184.137 1036.9 182.789V180.123C1036.9 178.717 1037.22 177.574 1037.84 176.725C1038.45 175.875 1039.36 175.436 1040.59 175.436C1042.94 175.436 1044.11 176.959 1044.11 179.977V182.818ZM1051.29 187.682C1052.34 188.678 1053.75 189.176 1055.53 189.176C1057.26 189.176 1058.67 188.678 1059.72 187.682C1060.78 186.686 1061.3 185.104 1061.3 182.936V179.83C1061.3 177.662 1060.78 176.08 1059.72 175.084C1058.67 174.088 1057.26 173.59 1055.53 173.59C1053.75 173.59 1052.34 174.088 1051.29 175.084C1050.23 176.08 1049.67 177.662 1049.67 179.83V182.936C1049.67 185.104 1050.23 186.686 1051.29 187.682ZM1058.26 186.334C1057.58 187.008 1056.68 187.359 1055.53 187.359C1054.36 187.359 1053.42 187.008 1052.75 186.334C1052.08 185.66 1051.72 184.488 1051.72 182.818V179.947C1051.72 178.277 1052.08 177.105 1052.75 176.432C1053.42 175.758 1054.36 175.436 1055.53 175.436C1056.68 175.436 1057.58 175.758 1058.26 176.432C1058.93 177.105 1059.25 178.277 1059.25 179.947V182.818C1059.25 184.488 1058.93 185.66 1058.26 186.334ZM1065.32 173.795V189H1067.34V179.303C1067.34 178.072 1067.69 177.105 1068.34 176.432C1068.98 175.758 1069.83 175.436 1070.91 175.436C1072.03 175.436 1072.88 175.758 1073.49 176.432C1074.11 177.105 1074.43 178.043 1074.43 179.303V189H1076.48V179.01C1076.48 177.311 1076.04 175.963 1075.16 175.025C1074.28 174.088 1073.05 173.619 1071.44 173.619C1070.56 173.619 1069.74 173.766 1069.04 174.117C1068.34 174.469 1067.75 174.967 1067.31 175.641V173.795H1065.32ZM1082.52 181.793H1092.04V180.006C1092.04 177.838 1091.51 176.197 1090.46 175.143C1089.4 174.088 1087.99 173.59 1086.27 173.59C1084.54 173.59 1083.13 174.088 1082.08 175.143C1081.02 176.197 1080.46 177.838 1080.46 180.006V182.643C1080.46 184.869 1081.02 186.539 1082.08 187.594C1083.13 188.648 1084.54 189.176 1086.32 189.176C1088.05 189.176 1089.43 188.736 1090.43 187.887C1091.42 187.037 1091.92 185.865 1091.92 184.459V184.312H1089.93V184.4C1089.93 185.309 1089.63 186.041 1089.02 186.568C1088.4 187.096 1087.55 187.359 1086.47 187.359C1085.24 187.359 1084.27 187.008 1083.57 186.305C1082.87 185.602 1082.52 184.43 1082.52 182.701V181.793ZM1083.54 176.432C1084.21 175.758 1085.12 175.436 1086.27 175.436C1087.44 175.436 1088.32 175.758 1088.99 176.402C1089.66 177.047 1089.99 178.16 1089.99 179.742V180.27H1082.52V179.947C1082.52 178.277 1082.87 177.105 1083.54 176.432ZM1096.05 173.795V189H1098.07V179.303C1098.07 178.072 1098.42 177.105 1099.07 176.432C1099.71 175.758 1100.56 175.436 1101.65 175.436C1102.76 175.436 1103.61 175.758 1104.22 176.432C1104.84 177.105 1105.16 178.043 1105.16 179.303V189H1107.21V179.01C1107.21 177.311 1106.77 175.963 1105.89 175.025C1105.02 174.088 1103.79 173.619 1102.17 173.619C1101.29 173.619 1100.47 173.766 1099.77 174.117C1099.07 174.469 1098.48 174.967 1098.04 175.641V173.795H1096.05ZM1114.89 175.406H1118.32V173.795H1114.89V169.342L1112.84 170.309V173.795H1110.46V175.406H1112.84V185.221C1112.84 186.393 1113.16 187.33 1113.8 188.004C1114.45 188.678 1115.36 189 1116.53 189H1118.05V187.213H1116.85C1115.56 187.213 1114.89 186.51 1114.89 185.133V175.406Z" fill="black"/>
<path d="M889.889 329.297C890.973 329.883 892.203 330.176 893.551 330.176C894.898 330.176 896.129 329.883 897.213 329.297C898.297 328.711 899.117 327.92 899.732 326.865C900.348 325.811 900.641 324.609 900.641 323.262V309.287H898.473V323.057C898.473 324.639 898.004 325.898 897.096 326.836C896.188 327.773 895.045 328.242 893.551 328.242C892.057 328.242 890.826 327.773 889.947 326.836C889.068 325.898 888.629 324.639 888.629 323.057V309.287H886.402V323.262C886.402 324.609 886.725 325.781 887.34 326.836C887.955 327.891 888.805 328.711 889.889 329.297ZM908.492 316.406H911.92V314.795H908.492V310.342L906.441 311.309V314.795H904.068V316.406H906.441V326.221C906.441 327.393 906.764 328.33 907.408 329.004C908.053 329.678 908.961 330 910.133 330H911.656V328.213H910.455C909.166 328.213 908.492 327.51 908.492 326.133V316.406ZM913.648 314.795L918.922 330H920.738L925.982 314.795H923.785L919.83 327.012L915.875 314.795H913.648ZM928.883 314.795V330H930.934V314.795H928.883ZM928.824 309.609V312.305H930.992V309.609H928.824ZM940.543 322.119L945.143 330H947.633L941.891 320.537L946.783 314.795H944.322L937.672 322.881V309.287H935.65V330H937.672V325.459L940.543 322.119ZM951.412 328.975C952.057 329.648 952.965 330 954.195 330H955.631V328.154H954.4C953.727 328.154 953.229 327.949 952.936 327.598C952.643 327.246 952.467 326.689 952.467 325.898V309.287H950.445V326.016C950.445 327.305 950.768 328.301 951.412 328.975ZM960.172 322.793H969.693V321.006C969.693 318.838 969.166 317.197 968.111 316.143C967.057 315.088 965.65 314.59 963.922 314.59C962.193 314.59 960.787 315.088 959.732 316.143C958.678 317.197 958.121 318.838 958.121 321.006V323.643C958.121 325.869 958.678 327.539 959.732 328.594C960.787 329.648 962.193 330.176 963.98 330.176C965.709 330.176 967.086 329.736 968.082 328.887C969.078 328.037 969.576 326.865 969.576 325.459V325.312H967.584V325.4C967.584 326.309 967.291 327.041 966.676 327.568C966.061 328.096 965.211 328.359 964.127 328.359C962.896 328.359 961.93 328.008 961.227 327.305C960.523 326.602 960.172 325.43 960.172 323.701V322.793ZM961.197 317.432C961.871 316.758 962.779 316.436 963.922 316.436C965.094 316.436 965.973 316.758 966.646 317.402C967.32 318.047 967.643 319.16 967.643 320.742V321.27H960.172V320.947C960.172 319.277 960.523 318.105 961.197 317.432ZM985.104 322.119L989.703 330H992.193L986.451 320.537L991.344 314.795H988.883L982.232 322.881V309.287H980.211V330H982.232V325.459L985.104 322.119ZM996.119 328.682C997.174 329.678 998.58 330.176 1000.37 330.176C1002.1 330.176 1003.5 329.678 1004.56 328.682C1005.61 327.686 1006.14 326.104 1006.14 323.936V320.83C1006.14 318.662 1005.61 317.08 1004.56 316.084C1003.5 315.088 1002.1 314.59 1000.37 314.59C998.58 314.59 997.174 315.088 996.119 316.084C995.064 317.08 994.508 318.662 994.508 320.83V323.936C994.508 326.104 995.064 327.686 996.119 328.682ZM1003.09 327.334C1002.42 328.008 1001.51 328.359 1000.37 328.359C999.195 328.359 998.258 328.008 997.584 327.334C996.91 326.66 996.559 325.488 996.559 323.818V320.947C996.559 319.277 996.91 318.105 997.584 317.432C998.258 316.758 999.195 316.436 1000.37 316.436C1001.51 316.436 1002.42 316.758 1003.09 317.432C1003.77 318.105 1004.09 319.277 1004.09 320.947V323.818C1004.09 325.488 1003.77 326.66 1003.09 327.334ZM1010.15 314.795V330H1012.17V320.303C1012.17 319.072 1012.53 318.105 1013.17 317.432C1013.81 316.758 1014.66 316.436 1015.75 316.436C1016.86 316.436 1017.71 316.758 1018.33 317.432C1018.94 318.105 1019.23 319.043 1019.23 320.303V330H1021.31V320.215C1021.31 319.043 1021.61 318.105 1022.25 317.432C1022.9 316.758 1023.78 316.436 1024.89 316.436C1026 316.436 1026.82 316.758 1027.44 317.432C1028.05 318.105 1028.35 319.043 1028.35 320.303V330H1030.4V320.01C1030.4 318.311 1029.96 316.963 1029.05 316.025C1028.14 315.088 1026.88 314.619 1025.27 314.619C1023.19 314.619 1021.64 315.469 1020.64 317.168C1020.23 316.348 1019.67 315.703 1018.94 315.264C1018.21 314.824 1017.3 314.619 1016.28 314.619C1015.4 314.619 1014.58 314.795 1013.87 315.146C1013.17 315.498 1012.58 315.967 1012.14 316.641V314.795H1010.15ZM1034.88 314.795V334.57H1036.9V327.979C1037.75 329.443 1039.13 330.176 1041.03 330.176C1042.53 330.176 1043.76 329.678 1044.72 328.682C1045.69 327.686 1046.16 326.104 1046.16 323.936V320.83C1046.16 318.691 1045.66 317.109 1044.69 316.113C1043.73 315.117 1042.44 314.619 1040.88 314.619C1040.01 314.619 1039.21 314.824 1038.54 315.205C1037.87 315.586 1037.31 316.172 1036.9 316.934V314.795H1034.88ZM1044.11 323.818C1044.11 326.836 1042.96 328.359 1040.71 328.359C1039.48 328.359 1038.54 327.92 1037.9 327.07C1037.25 326.221 1036.9 325.137 1036.9 323.789V321.123C1036.9 319.717 1037.22 318.574 1037.84 317.725C1038.45 316.875 1039.36 316.436 1040.59 316.436C1042.94 316.436 1044.11 317.959 1044.11 320.977V323.818ZM1051.29 328.682C1052.34 329.678 1053.75 330.176 1055.53 330.176C1057.26 330.176 1058.67 329.678 1059.72 328.682C1060.78 327.686 1061.3 326.104 1061.3 323.936V320.83C1061.3 318.662 1060.78 317.08 1059.72 316.084C1058.67 315.088 1057.26 314.59 1055.53 314.59C1053.75 314.59 1052.34 315.088 1051.29 316.084C1050.23 317.08 1049.67 318.662 1049.67 320.83V323.936C1049.67 326.104 1050.23 327.686 1051.29 328.682ZM1058.26 327.334C1057.58 328.008 1056.68 328.359 1055.53 328.359C1054.36 328.359 1053.42 328.008 1052.75 327.334C1052.08 326.66 1051.72 325.488 1051.72 323.818V320.947C1051.72 319.277 1052.08 318.105 1052.75 317.432C1053.42 316.758 1054.36 316.436 1055.53 316.436C1056.68 316.436 1057.58 316.758 1058.26 317.432C1058.93 318.105 1059.25 319.277 1059.25 320.947V323.818C1059.25 325.488 1058.93 326.66 1058.26 327.334ZM1065.32 314.795V330H1067.34V320.303C1067.34 319.072 1067.69 318.105 1068.34 317.432C1068.98 316.758 1069.83 316.436 1070.91 316.436C1072.03 316.436 1072.88 316.758 1073.49 317.432C1074.11 318.105 1074.43 319.043 1074.43 320.303V330H1076.48V320.01C1076.48 318.311 1076.04 316.963 1075.16 316.025C1074.28 315.088 1073.05 314.619 1071.44 314.619C1070.56 314.619 1069.74 314.766 1069.04 315.117C1068.34 315.469 1067.75 315.967 1067.31 316.641V314.795H1065.32ZM1082.52 322.793H1092.04V321.006C1092.04 318.838 1091.51 317.197 1090.46 316.143C1089.4 315.088 1087.99 314.59 1086.27 314.59C1084.54 314.59 1083.13 315.088 1082.08 316.143C1081.02 317.197 1080.46 318.838 1080.46 321.006V323.643C1080.46 325.869 1081.02 327.539 1082.08 328.594C1083.13 329.648 1084.54 330.176 1086.32 330.176C1088.05 330.176 1089.43 329.736 1090.43 328.887C1091.42 328.037 1091.92 326.865 1091.92 325.459V325.312H1089.93V325.4C1089.93 326.309 1089.63 327.041 1089.02 327.568C1088.4 328.096 1087.55 328.359 1086.47 328.359C1085.24 328.359 1084.27 328.008 1083.57 327.305C1082.87 326.602 1082.52 325.43 1082.52 323.701V322.793ZM1083.54 317.432C1084.21 316.758 1085.12 316.436 1086.27 316.436C1087.44 316.436 1088.32 316.758 1088.99 317.402C1089.66 318.047 1089.99 319.16 1089.99 320.742V321.27H1082.52V320.947C1082.52 319.277 1082.87 318.105 1083.54 317.432ZM1096.05 314.795V330H1098.07V320.303C1098.07 319.072 1098.42 318.105 1099.07 317.432C1099.71 316.758 1100.56 316.436 1101.65 316.436C1102.76 316.436 1103.61 316.758 1104.22 317.432C1104.84 318.105 1105.16 319.043 1105.16 320.303V330H1107.21V320.01C1107.21 318.311 1106.77 316.963 1105.89 316.025C1105.02 315.088 1103.79 314.619 1102.17 314.619C1101.29 314.619 1100.47 314.766 1099.77 315.117C1099.07 315.469 1098.48 315.967 1098.04 316.641V314.795H1096.05ZM1114.89 316.406H1118.32V314.795H1114.89V310.342L1112.84 311.309V314.795H1110.46V316.406H1112.84V326.221C1112.84 327.393 1113.16 328.33 1113.8 329.004C1114.45 329.678 1115.36 330 1116.53 330H1118.05V328.213H1116.85C1115.56 328.213 1114.89 327.51 1114.89 326.133V316.406Z" fill="white"/>
<path d="M896.627 149.986L897.887 154H902.047L894.693 133.287H891.471L884.117 154H888.248L889.508 149.986H896.627ZM895.572 146.705H890.562L893.053 138.766L895.572 146.705ZM905.064 152.77C905.885 153.59 907.057 154 908.551 154H910.25V150.777H908.99C908.463 150.777 908.111 150.66 907.877 150.396C907.643 150.133 907.525 149.664 907.525 149.02V133.287H903.805V149.254C903.805 150.777 904.244 151.949 905.064 152.77ZM917.369 141.021H920.387V138.414H917.369V134.049L913.678 135.338V138.414H911.539V141.021H913.678V149.488C913.678 150.865 914.117 151.979 914.938 152.799C915.758 153.619 916.9 154 918.307 154H920.064V150.836H918.922C917.896 150.836 917.369 150.309 917.369 149.254V141.021ZM922.936 138.414V154H926.627V138.414H922.936ZM922.877 133.287V136.275H926.656V133.287H922.877ZM929.996 138.414V154H933.717V144.273C933.717 143.395 933.951 142.721 934.42 142.252C934.889 141.783 935.475 141.52 936.207 141.52C936.939 141.52 937.555 141.783 937.994 142.252C938.434 142.721 938.639 143.395 938.639 144.273V154H942.359V143.834C942.359 142.105 941.92 140.729 941.041 139.732C940.162 138.736 938.932 138.209 937.32 138.209C936.617 138.209 935.943 138.355 935.299 138.619C934.654 138.883 934.098 139.293 933.629 139.82V138.414H929.996ZM945.582 138.414V154H949.303V144.273C949.303 143.395 949.537 142.721 950.006 142.252C950.475 141.783 951.061 141.52 951.793 141.52C952.525 141.52 953.141 141.783 953.58 142.252C954.02 142.721 954.225 143.395 954.225 144.273V154H957.945V143.834C957.945 142.105 957.506 140.729 956.627 139.732C955.748 138.736 954.518 138.209 952.906 138.209C952.203 138.209 951.529 138.355 950.885 138.619C950.24 138.883 949.684 139.293 949.215 139.82V138.414H945.582Z" fill="black"/>
<path d="M898.707 277.715V274.287H884.176V277.715H889.449V295H893.434V277.715H898.707ZM900.523 274.287V277.275H904.303V274.287H900.523ZM897.857 296.465V299.688H899.615C901.109 299.688 902.252 299.277 903.072 298.457C903.893 297.637 904.303 296.465 904.303 294.941V279.414H900.611V294.707C900.611 295.322 900.494 295.762 900.26 296.055C900.025 296.348 899.645 296.465 899.117 296.465H897.857ZM911.1 288.32H920.211V286.24C920.211 283.926 919.625 282.168 918.482 280.996C917.34 279.824 915.787 279.209 913.824 279.209C911.832 279.209 910.25 279.795 909.107 280.967C907.965 282.139 907.408 283.896 907.408 286.24V288.145C907.408 290.547 907.994 292.305 909.166 293.447C910.338 294.59 911.949 295.176 913.941 295.176C915.846 295.176 917.34 294.736 918.453 293.828C919.566 292.92 920.094 291.748 920.094 290.254V290.107H916.549L916.52 290.195C916.49 290.752 916.256 291.191 915.846 291.514C915.436 291.836 914.82 291.982 914.088 291.982C913.121 291.982 912.418 291.719 911.891 291.221C911.363 290.723 911.1 289.902 911.1 288.73V288.32ZM911.803 283.164C912.271 282.666 912.945 282.402 913.824 282.402C915.611 282.402 916.49 283.369 916.49 285.361V285.771H911.1V285.684C911.1 284.512 911.334 283.662 911.803 283.164ZM923.17 279.414V295H926.891V285.273C926.891 284.395 927.125 283.721 927.594 283.252C928.062 282.783 928.648 282.52 929.381 282.52C930.113 282.52 930.729 282.783 931.168 283.252C931.607 283.721 931.812 284.395 931.812 285.273V295H935.533V284.834C935.533 283.105 935.094 281.729 934.215 280.732C933.336 279.736 932.105 279.209 930.494 279.209C929.791 279.209 929.117 279.355 928.473 279.619C927.828 279.883 927.271 280.293 926.803 280.82V279.414H923.17ZM942.184 288.32H951.295V286.24C951.295 283.926 950.709 282.168 949.566 280.996C948.424 279.824 946.871 279.209 944.908 279.209C942.916 279.209 941.334 279.795 940.191 280.967C939.049 282.139 938.492 283.896 938.492 286.24V288.145C938.492 290.547 939.078 292.305 940.25 293.447C941.422 294.59 943.033 295.176 945.025 295.176C946.93 295.176 948.424 294.736 949.537 293.828C950.65 292.92 951.178 291.748 951.178 290.254V290.107H947.633L947.604 290.195C947.574 290.752 947.34 291.191 946.93 291.514C946.52 291.836 945.904 291.982 945.172 291.982C944.205 291.982 943.502 291.719 942.975 291.221C942.447 290.723 942.184 289.902 942.184 288.73V288.32ZM942.887 283.164C943.355 282.666 944.029 282.402 944.908 282.402C946.695 282.402 947.574 283.369 947.574 285.361V285.771H942.184V285.684C942.184 284.512 942.418 283.662 942.887 283.164ZM955.338 293.887C956.422 294.766 957.857 295.176 959.645 295.176C961.49 295.176 962.984 294.766 964.156 293.887C965.328 293.008 965.914 291.777 965.914 290.166C965.914 288.877 965.533 287.852 964.742 287.119C963.951 286.387 962.779 285.918 961.227 285.684L959.381 285.391C958.678 285.303 958.209 285.127 957.887 284.863C957.564 284.6 957.418 284.248 957.418 283.779C957.418 283.281 957.594 282.871 958.004 282.578C958.414 282.285 959 282.139 959.762 282.139C960.523 282.139 961.109 282.285 961.549 282.578C961.988 282.871 962.193 283.311 962.193 283.838V283.926H965.621V283.75C965.621 282.9 965.387 282.139 964.889 281.436C964.391 280.732 963.717 280.176 962.838 279.795C961.959 279.414 960.934 279.209 959.762 279.209C958.062 279.209 956.656 279.648 955.572 280.527C954.488 281.406 953.932 282.549 953.932 284.043C953.932 285.332 954.312 286.357 955.045 287.061C955.777 287.764 956.949 288.232 958.502 288.496L960.143 288.76C960.934 288.877 961.49 289.053 961.842 289.316C962.193 289.58 962.369 289.961 962.369 290.43C962.369 291.016 962.135 291.455 961.666 291.748C961.197 292.041 960.582 292.188 959.762 292.188C959 292.188 958.385 292.012 957.916 291.689C957.447 291.367 957.213 290.898 957.213 290.312V290.254H953.727V290.371C953.727 291.836 954.254 293.008 955.338 293.887ZM973.443 282.021H976.461V279.414H973.443V275.049L969.752 276.338V279.414H967.613V282.021H969.752V290.488C969.752 291.865 970.191 292.979 971.012 293.799C971.832 294.619 972.975 295 974.381 295H976.139V291.836H974.996C973.971 291.836 973.443 291.309 973.443 290.254V282.021ZM981.998 288.32H991.109V286.24C991.109 283.926 990.523 282.168 989.381 280.996C988.238 279.824 986.686 279.209 984.723 279.209C982.73 279.209 981.148 279.795 980.006 280.967C978.863 282.139 978.307 283.896 978.307 286.24V288.145C978.307 290.547 978.893 292.305 980.064 293.447C981.236 294.59 982.848 295.176 984.84 295.176C986.744 295.176 988.238 294.736 989.352 293.828C990.465 292.92 990.992 291.748 990.992 290.254V290.107H987.447L987.418 290.195C987.389 290.752 987.154 291.191 986.744 291.514C986.334 291.836 985.719 291.982 984.986 291.982C984.02 291.982 983.316 291.719 982.789 291.221C982.262 290.723 981.998 289.902 981.998 288.73V288.32ZM982.701 283.164C983.17 282.666 983.844 282.402 984.723 282.402C986.51 282.402 987.389 283.369 987.389 285.361V285.771H981.998V285.684C981.998 284.512 982.232 283.662 982.701 283.164ZM997.496 288.32H1006.61V286.24C1006.61 283.926 1006.02 282.168 1004.88 280.996C1003.74 279.824 1002.18 279.209 1000.22 279.209C998.229 279.209 996.646 279.795 995.504 280.967C994.361 282.139 993.805 283.896 993.805 286.24V288.145C993.805 290.547 994.391 292.305 995.562 293.447C996.734 294.59 998.346 295.176 1000.34 295.176C1002.24 295.176 1003.74 294.736 1004.85 293.828C1005.96 292.92 1006.49 291.748 1006.49 290.254V290.107H1002.95L1002.92 290.195C1002.89 290.752 1002.65 291.191 1002.24 291.514C1001.83 291.836 1001.22 291.982 1000.48 291.982C999.518 291.982 998.814 291.719 998.287 291.221C997.76 290.723 997.496 289.902 997.496 288.73V288.32ZM998.199 283.164C998.668 282.666 999.342 282.402 1000.22 282.402C1002.01 282.402 1002.89 283.369 1002.89 285.361V285.771H997.496V285.684C997.496 284.512 997.73 283.662 998.199 283.164ZM1009.71 279.414V295H1013.4V279.414H1009.71ZM1009.65 274.287V277.275H1013.43V274.287H1009.65ZM1020.2 288.32H1029.31V286.24C1029.31 283.926 1028.73 282.168 1027.58 280.996C1026.44 279.824 1024.89 279.209 1022.93 279.209C1020.93 279.209 1019.35 279.795 1018.21 280.967C1017.07 282.139 1016.51 283.896 1016.51 286.24V288.145C1016.51 290.547 1017.1 292.305 1018.27 293.447C1019.44 294.59 1021.05 295.176 1023.04 295.176C1024.95 295.176 1026.44 294.736 1027.55 293.828C1028.67 292.92 1029.2 291.748 1029.2 290.254V290.107H1025.65L1025.62 290.195C1025.59 290.752 1025.36 291.191 1024.95 291.514C1024.54 291.836 1023.92 291.982 1023.19 291.982C1022.22 291.982 1021.52 291.719 1020.99 291.221C1020.46 290.723 1020.2 289.902 1020.2 288.73V288.32ZM1020.9 283.164C1021.37 282.666 1022.05 282.402 1022.93 282.402C1024.71 282.402 1025.59 283.369 1025.59 285.361V285.771H1020.2V285.684C1020.2 284.512 1020.44 283.662 1020.9 283.164ZM1032.27 279.414V295H1035.99V285.654C1035.99 284.6 1036.26 283.75 1036.81 283.193C1037.37 282.637 1038.1 282.344 1039.01 282.344C1039.54 282.344 1040.15 282.432 1040.86 282.666V279.18C1040.47 279.092 1040.06 279.062 1039.6 279.062C1038.8 279.062 1038.07 279.238 1037.43 279.561C1036.78 279.883 1036.29 280.352 1035.9 281.025V279.414H1032.27Z" fill="white"/>
<path d="M1048.5 80.4778C1048.49 81.5823 1049.37 82.4876 1050.48 82.4999L1068.48 82.6999C1069.58 82.7121 1070.49 81.8267 1070.5 80.7222C1070.51 79.6177 1069.63 78.7124 1068.52 78.7001L1052.52 78.5223L1052.7 62.5233C1052.71 61.4188 1051.83 60.5135 1050.72 60.5012C1049.62 60.489 1048.71 61.3744 1048.7 62.4789L1048.5 80.4778ZM1344.93 79.0994C1266.69 -0.651414 1140.93 -10.7369 1049.1 79.0702L1051.9 81.9298C1142.07 -6.26308 1265.31 3.65141 1342.07 81.9006L1344.93 79.0994Z" fill="#BCC7CC"/>
<path d="M258 80.0334C257.988 81.1379 258.873 82.0433 259.978 82.0555L277.977 82.2555C279.081 82.2678 279.986 81.3824 279.999 80.2779C280.011 79.1734 279.126 78.268 278.021 78.2558L262.022 78.078L262.2 62.079C262.212 60.9745 261.327 60.0692 260.222 60.0569C259.118 60.0446 258.212 60.9301 258.2 62.0346L258 80.0334ZM554.428 78.6551C476.191 -1.09575 350.427 -11.1813 258.602 78.6258L261.398 81.4855C351.573 -6.70742 474.809 3.20708 551.572 81.4563L554.428 78.6551Z" fill="#BCC7CC"/>
<path d="M1048.5 384.022C1048.49 382.918 1049.37 382.012 1050.48 382L1068.48 381.8C1069.58 381.788 1070.49 382.673 1070.5 383.778C1070.51 384.882 1069.63 385.788 1068.52 385.8L1052.52 385.978L1052.7 401.977C1052.71 403.081 1051.83 403.986 1050.72 403.999C1049.62 404.011 1048.71 403.126 1048.7 402.021L1048.5 384.022ZM1344.93 385.401C1266.69 465.151 1140.93 475.237 1049.1 385.43L1051.9 382.57C1142.07 470.763 1265.31 460.849 1342.07 382.599L1344.93 385.401Z" fill="#BCC7CC"/>
<path d="M258 383.578C257.988 382.473 258.873 381.568 259.978 381.556L277.977 381.356C279.081 381.344 279.986 382.229 279.999 383.333C280.011 384.438 279.126 385.343 278.021 385.356L262.022 385.533L262.2 401.532C262.212 402.637 261.327 403.542 260.222 403.554C259.118 403.567 258.212 402.681 258.2 401.577L258 383.578ZM554.428 384.956C476.191 464.707 350.427 474.793 258.602 384.986L261.398 382.126C351.573 470.319 474.809 460.404 551.572 382.155L554.428 384.956Z" fill="#BCC7CC"/>
<path d="M1724.99 220.145H1722.35V240.113L1709.52 220.145H1706.88V245H1709.52V224.996L1722.35 245H1724.99V220.145ZM1743.13 226.754H1740.56L1735.78 241.273L1731 226.754H1728.33L1734.62 244.824L1734.23 245.949C1733.95 246.758 1733.6 247.355 1733.14 247.707C1732.69 248.059 1732.02 248.234 1731.14 248.234H1730.26V250.484H1731.32C1732.55 250.484 1733.57 250.203 1734.34 249.641C1735.11 249.078 1735.71 248.199 1736.13 246.969L1743.13 226.754ZM1760 235.543L1765.52 245H1768.51L1761.62 233.645L1767.49 226.754H1764.54L1756.56 236.457V220.145H1754.13V245H1756.56V239.551L1760 235.543ZM1773.22 243.418C1774.49 244.613 1776.18 245.211 1778.32 245.211C1780.39 245.211 1782.08 244.613 1783.35 243.418C1784.61 242.223 1785.25 240.324 1785.25 237.723V233.996C1785.25 231.395 1784.61 229.496 1783.35 228.301C1782.08 227.105 1780.39 226.508 1778.32 226.508C1776.18 226.508 1774.49 227.105 1773.22 228.301C1771.96 229.496 1771.29 231.395 1771.29 233.996V237.723C1771.29 240.324 1771.96 242.223 1773.22 243.418ZM1781.59 241.801C1780.78 242.609 1779.69 243.031 1778.32 243.031C1776.91 243.031 1775.79 242.609 1774.98 241.801C1774.17 240.992 1773.75 239.586 1773.75 237.582V234.137C1773.75 232.133 1774.17 230.727 1774.98 229.918C1775.79 229.109 1776.91 228.723 1778.32 228.723C1779.69 228.723 1780.78 229.109 1781.59 229.918C1782.4 230.727 1782.79 232.133 1782.79 234.137V237.582C1782.79 239.586 1782.4 240.992 1781.59 241.801ZM1790.06 226.754V245H1792.49V233.363C1792.49 231.887 1792.91 230.727 1793.68 229.918C1794.46 229.109 1795.48 228.723 1796.78 228.723C1798.11 228.723 1799.13 229.109 1799.87 229.918C1800.61 230.727 1800.96 231.852 1800.96 233.363V245H1803.46V233.258C1803.46 231.852 1803.81 230.727 1804.58 229.918C1805.36 229.109 1806.41 228.723 1807.75 228.723C1809.08 228.723 1810.07 229.109 1810.8 229.918C1811.54 230.727 1811.89 231.852 1811.89 233.363V245H1814.36V233.012C1814.36 230.973 1813.83 229.355 1812.74 228.23C1811.65 227.105 1810.14 226.543 1808.2 226.543C1805.71 226.543 1803.84 227.562 1802.65 229.602C1802.16 228.617 1801.49 227.844 1800.61 227.316C1799.73 226.789 1798.64 226.543 1797.41 226.543C1796.36 226.543 1795.37 226.754 1794.53 227.176C1793.68 227.598 1792.98 228.16 1792.45 228.969V226.754H1790.06ZM1819.73 226.754V250.484H1822.16V242.574C1823.18 244.332 1824.83 245.211 1827.12 245.211C1828.91 245.211 1830.39 244.613 1831.55 243.418C1832.71 242.223 1833.27 240.324 1833.27 237.723V233.996C1833.27 231.43 1832.67 229.531 1831.51 228.336C1830.35 227.141 1828.8 226.543 1826.94 226.543C1825.89 226.543 1824.94 226.789 1824.13 227.246C1823.32 227.703 1822.65 228.406 1822.16 229.32V226.754H1819.73ZM1830.81 237.582C1830.81 241.203 1829.44 243.031 1826.73 243.031C1825.25 243.031 1824.13 242.504 1823.36 241.484C1822.58 240.465 1822.16 239.164 1822.16 237.547V234.348C1822.16 232.66 1822.55 231.289 1823.29 230.27C1824.02 229.25 1825.11 228.723 1826.59 228.723C1829.4 228.723 1830.81 230.551 1830.81 234.172V237.582ZM1839.42 243.418C1840.69 244.613 1842.38 245.211 1844.52 245.211C1846.59 245.211 1848.28 244.613 1849.55 243.418C1850.81 242.223 1851.45 240.324 1851.45 237.723V233.996C1851.45 231.395 1850.81 229.496 1849.55 228.301C1848.28 227.105 1846.59 226.508 1844.52 226.508C1842.38 226.508 1840.69 227.105 1839.42 228.301C1838.16 229.496 1837.49 231.395 1837.49 233.996V237.723C1837.49 240.324 1838.16 242.223 1839.42 243.418ZM1847.79 241.801C1846.98 242.609 1845.89 243.031 1844.52 243.031C1843.11 243.031 1841.99 242.609 1841.18 241.801C1840.37 240.992 1839.95 239.586 1839.95 237.582V234.137C1839.95 232.133 1840.37 230.727 1841.18 229.918C1841.99 229.109 1843.11 228.723 1844.52 228.723C1845.89 228.723 1846.98 229.109 1847.79 229.918C1848.6 230.727 1848.98 232.133 1848.98 234.137V237.582C1848.98 239.586 1848.6 240.992 1847.79 241.801ZM1856.26 226.754V245H1858.69V233.363C1858.69 231.887 1859.11 230.727 1859.88 229.918C1860.66 229.109 1861.68 228.723 1862.98 228.723C1864.31 228.723 1865.33 229.109 1866.07 229.918C1866.81 230.727 1867.2 231.852 1867.2 233.363V245H1869.66V233.012C1869.66 230.973 1869.13 229.355 1868.07 228.23C1867.02 227.105 1865.54 226.543 1863.61 226.543C1862.55 226.543 1861.57 226.719 1860.73 227.141C1859.88 227.562 1859.18 228.16 1858.65 228.969V226.754H1856.26ZM1876.9 236.352H1888.32V234.207C1888.32 231.605 1887.69 229.637 1886.43 228.371C1885.16 227.105 1883.47 226.508 1881.4 226.508C1879.32 226.508 1877.64 227.105 1876.37 228.371C1875.11 229.637 1874.44 231.605 1874.44 234.207V237.371C1874.44 240.043 1875.11 242.047 1876.37 243.312C1877.64 244.578 1879.32 245.211 1881.47 245.211C1883.54 245.211 1885.2 244.684 1886.39 243.664C1887.59 242.645 1888.18 241.238 1888.18 239.551V239.375H1885.79V239.48C1885.79 240.57 1885.44 241.449 1884.7 242.082C1883.96 242.715 1882.95 243.031 1881.64 243.031C1880.17 243.031 1879.01 242.609 1878.16 241.766C1877.32 240.922 1876.9 239.516 1876.9 237.441V236.352ZM1878.13 229.918C1878.94 229.109 1880.03 228.723 1881.4 228.723C1882.8 228.723 1883.86 229.109 1884.67 229.883C1885.48 230.656 1885.86 231.992 1885.86 233.891V234.523H1876.9V234.137C1876.9 232.133 1877.32 230.727 1878.13 229.918ZM1893.14 226.754V245H1895.57V233.363C1895.57 231.887 1895.99 230.727 1896.76 229.918C1897.54 229.109 1898.55 228.723 1899.86 228.723C1901.19 228.723 1902.21 229.109 1902.95 229.918C1903.69 230.727 1904.07 231.852 1904.07 233.363V245H1906.54V233.012C1906.54 230.973 1906.01 229.355 1904.95 228.23C1903.9 227.105 1902.42 226.543 1900.49 226.543C1899.43 226.543 1898.45 226.719 1897.61 227.141C1896.76 227.562 1896.06 228.16 1895.53 228.969V226.754H1893.14ZM1915.75 228.688H1919.86V226.754H1915.75V221.41L1913.29 222.57V226.754H1910.44V228.688H1913.29V240.465C1913.29 241.871 1913.67 242.996 1914.45 243.805C1915.22 244.613 1916.31 245 1917.71 245H1919.54V242.855H1918.1C1916.55 242.855 1915.75 242.012 1915.75 240.359V228.688Z" fill="black"/>
<path d="M515.496 249.102L521.086 260H524.109L518.273 248.855C519.961 248.469 521.227 247.695 522.176 246.535C523.125 245.375 523.582 243.934 523.582 242.141C523.582 239.926 522.914 238.168 521.578 236.973C520.242 235.777 518.414 235.145 516.094 235.145H506.883V260H509.52V249.102H515.496ZM509.52 246.816V237.535H515.883C517.5 237.535 518.766 237.922 519.645 238.695C520.523 239.469 520.945 240.629 520.945 242.176C520.945 243.652 520.488 244.812 519.609 245.621C518.73 246.43 517.5 246.816 515.883 246.816H509.52ZM529.664 251.352H541.09V249.207C541.09 246.605 540.457 244.637 539.191 243.371C537.926 242.105 536.238 241.508 534.164 241.508C532.09 241.508 530.402 242.105 529.137 243.371C527.871 244.637 527.203 246.605 527.203 249.207V252.371C527.203 255.043 527.871 257.047 529.137 258.312C530.402 259.578 532.09 260.211 534.234 260.211C536.309 260.211 537.961 259.684 539.156 258.664C540.352 257.645 540.949 256.238 540.949 254.551V254.375H538.559V254.48C538.559 255.57 538.207 256.449 537.469 257.082C536.73 257.715 535.711 258.031 534.41 258.031C532.934 258.031 531.773 257.609 530.93 256.766C530.086 255.922 529.664 254.516 529.664 252.441V251.352ZM530.895 244.918C531.703 244.109 532.793 243.723 534.164 243.723C535.57 243.723 536.625 244.109 537.434 244.883C538.242 245.656 538.629 246.992 538.629 248.891V249.523H529.664V249.137C529.664 247.133 530.086 245.727 530.895 244.918ZM543.691 241.754L550.02 260H552.199L558.492 241.754H555.855L551.109 256.414L546.363 241.754H543.691ZM561.973 241.754V260H564.434V241.754H561.973ZM561.902 235.531V238.766H564.504V235.531H561.902ZM571.957 251.352H583.383V249.207C583.383 246.605 582.75 244.637 581.484 243.371C580.219 242.105 578.531 241.508 576.457 241.508C574.383 241.508 572.695 242.105 571.43 243.371C570.164 244.637 569.496 246.605 569.496 249.207V252.371C569.496 255.043 570.164 257.047 571.43 258.312C572.695 259.578 574.383 260.211 576.527 260.211C578.602 260.211 580.254 259.684 581.449 258.664C582.645 257.645 583.242 256.238 583.242 254.551V254.375H580.852V254.48C580.852 255.57 580.5 256.449 579.762 257.082C579.023 257.715 578.004 258.031 576.703 258.031C575.227 258.031 574.066 257.609 573.223 256.766C572.379 255.922 571.957 254.516 571.957 252.441V251.352ZM573.188 244.918C573.996 244.109 575.086 243.723 576.457 243.723C577.863 243.723 578.918 244.109 579.727 244.883C580.535 245.656 580.922 246.992 580.922 248.891V249.523H571.957V249.137C571.957 247.133 572.379 245.727 573.188 244.918ZM585.984 241.754L591.539 260H593.719L598.324 245.27L602.93 260H605.145L610.699 241.754H608.027L603.879 256.379L599.344 241.754H597.305L592.77 256.379L588.656 241.754H585.984ZM632.461 243.055C631.336 242.035 629.719 241.508 627.574 241.508C625.605 241.508 624.059 241.965 622.934 242.914C621.809 243.863 621.211 245.094 621.211 246.641V246.816H623.602V246.711C623.602 245.727 623.953 244.953 624.656 244.391C625.359 243.828 626.379 243.547 627.609 243.547C628.945 243.547 629.965 243.898 630.668 244.566C631.371 245.234 631.723 246.219 631.723 247.555V249.629H626.801C624.867 249.629 623.355 250.121 622.301 251.035C621.246 251.949 620.684 253.25 620.684 254.867C620.684 256.625 621.211 257.926 622.266 258.84C623.32 259.754 624.797 260.211 626.73 260.211C627.891 260.211 628.91 260.035 629.719 259.684C630.527 259.332 631.23 258.805 631.793 258.066V260H634.184V247.59C634.184 245.586 633.586 244.074 632.461 243.055ZM630.633 257.152C629.895 257.891 628.734 258.242 627.117 258.242C624.445 258.242 623.145 257.117 623.145 254.832C623.145 252.582 624.48 251.422 627.152 251.422H631.723V253.812C631.723 255.289 631.371 256.414 630.633 257.152ZM637.348 241.754L643.676 260H645.855L652.148 241.754H649.512L644.766 256.414L640.02 241.754H637.348ZM667.02 239.574C667.02 237.922 667.793 237.113 669.34 237.113H670.852V235.145H668.953C667.582 235.145 666.492 235.566 665.719 236.375C664.945 237.184 664.559 238.273 664.559 239.68V241.754H662.238V243.688H664.559V260H667.02V243.688H670.852V241.754H667.02V239.574ZM676.23 258.418C677.496 259.613 679.184 260.211 681.328 260.211C683.402 260.211 685.09 259.613 686.355 258.418C687.621 257.223 688.254 255.324 688.254 252.723V248.996C688.254 246.395 687.621 244.496 686.355 243.301C685.09 242.105 683.402 241.508 681.328 241.508C679.184 241.508 677.496 242.105 676.23 243.301C674.965 244.496 674.297 246.395 674.297 248.996V252.723C674.297 255.324 674.965 257.223 676.23 258.418ZM684.598 256.801C683.789 257.609 682.699 258.031 681.328 258.031C679.922 258.031 678.797 257.609 677.988 256.801C677.18 255.992 676.758 254.586 676.758 252.582V249.137C676.758 247.133 677.18 245.727 677.988 244.918C678.797 244.109 679.922 243.723 681.328 243.723C682.699 243.723 683.789 244.109 684.598 244.918C685.406 245.727 685.793 247.133 685.793 249.137V252.582C685.793 254.586 685.406 255.992 684.598 256.801ZM693.07 241.754V260H695.496V248.434C695.496 247.027 695.918 245.938 696.691 245.059C697.465 244.18 698.484 243.758 699.715 243.758C700.383 243.758 701.016 243.863 701.578 244.039V241.613C701.156 241.543 700.734 241.508 700.277 241.508C699.258 241.508 698.309 241.719 697.465 242.176C696.621 242.633 695.953 243.266 695.461 244.18V241.754H693.07ZM705.973 258.77C707.168 259.719 708.785 260.211 710.789 260.211C712.863 260.211 714.551 259.754 715.781 258.805C717.012 257.855 717.645 256.52 717.645 254.797C717.645 253.355 717.223 252.266 716.379 251.492C715.535 250.719 714.199 250.191 712.406 249.84L710.016 249.418C708.926 249.242 708.082 248.926 707.59 248.469C707.098 248.012 706.852 247.414 706.852 246.605C706.852 245.656 707.203 244.918 707.906 244.355C708.609 243.793 709.629 243.512 710.895 243.512C712.195 243.512 713.215 243.793 713.953 244.355C714.691 244.918 715.043 245.656 715.043 246.605V246.711H717.434V246.5C717.434 245.023 716.836 243.793 715.641 242.879C714.445 241.965 712.828 241.508 710.824 241.508C708.961 241.508 707.379 241.965 706.219 242.914C705.059 243.863 704.461 245.129 704.461 246.711C704.461 248.117 704.883 249.207 705.691 249.945C706.5 250.684 707.801 251.211 709.594 251.527L711.844 251.949C713.039 252.16 713.918 252.477 714.445 252.898C714.973 253.32 715.289 254.023 715.289 254.938C715.289 255.957 714.867 256.73 714.094 257.293C713.32 257.855 712.266 258.137 710.895 258.137C709.559 258.137 708.504 257.855 707.73 257.258C706.957 256.66 706.57 255.887 706.57 254.867V254.727H704.18V254.902C704.18 256.52 704.777 257.82 705.973 258.77ZM722.988 258.77C723.762 259.578 724.852 260 726.328 260H728.051V257.785H726.574C725.766 257.785 725.168 257.539 724.816 257.117C724.465 256.695 724.254 256.027 724.254 255.078V235.145H721.828V255.219C721.828 256.766 722.215 257.961 722.988 258.77ZM742.395 243.055C741.27 242.035 739.652 241.508 737.508 241.508C735.539 241.508 733.992 241.965 732.867 242.914C731.742 243.863 731.145 245.094 731.145 246.641V246.816H733.535V246.711C733.535 245.727 733.887 244.953 734.59 244.391C735.293 243.828 736.312 243.547 737.543 243.547C738.879 243.547 739.898 243.898 740.602 244.566C741.305 245.234 741.656 246.219 741.656 247.555V249.629H736.734C734.801 249.629 733.289 250.121 732.234 251.035C731.18 251.949 730.617 253.25 730.617 254.867C730.617 256.625 731.145 257.926 732.199 258.84C733.254 259.754 734.73 260.211 736.664 260.211C737.824 260.211 738.844 260.035 739.652 259.684C740.461 259.332 741.164 258.805 741.727 258.066V260H744.117V247.59C744.117 245.586 743.52 244.074 742.395 243.055ZM740.566 257.152C739.828 257.891 738.668 258.242 737.051 258.242C734.379 258.242 733.078 257.117 733.078 254.832C733.078 252.582 734.414 251.422 737.086 251.422H741.656V253.812C741.656 255.289 741.305 256.414 740.566 257.152ZM751.113 264.395C752.238 265.273 753.785 265.695 755.719 265.695C757.863 265.695 759.516 265.062 760.711 263.797C761.906 262.531 762.469 260.773 762.469 258.559V241.613H760.008V244.145C758.988 242.281 757.336 241.402 755.121 241.402C753.293 241.402 751.816 242 750.656 243.195C749.496 244.391 748.898 246.289 748.898 248.855V251.352C748.898 253.953 749.496 255.887 750.656 257.082C751.816 258.277 753.293 258.875 755.086 258.875C756.246 258.875 757.195 258.664 758.039 258.207C758.883 257.75 759.516 257.082 760.008 256.203V258.77C760.008 261.969 758.566 263.551 755.719 263.551C754.559 263.551 753.645 263.305 752.941 262.812C752.238 262.32 751.781 261.723 751.676 260.914H749.25C749.355 262.391 749.988 263.516 751.113 264.395ZM758.848 255.148C758.074 256.168 756.949 256.66 755.438 256.66C752.766 256.66 751.395 254.832 751.395 251.211V249.031C751.395 245.41 752.801 243.582 755.578 243.582C757.055 243.582 758.145 244.109 758.883 245.129C759.621 246.148 760.008 247.52 760.008 249.207V251.176C760.008 252.793 759.621 254.129 758.848 255.148Z" fill="black"/>
<path d="M1314.5 228.102L1320.09 239H1323.11L1317.27 227.855C1318.96 227.469 1320.23 226.695 1321.18 225.535C1322.12 224.375 1322.58 222.934 1322.58 221.141C1322.58 218.926 1321.91 217.168 1320.58 215.973C1319.24 214.777 1317.41 214.145 1315.09 214.145H1305.88V239H1308.52V228.102H1314.5ZM1308.52 225.816V216.535H1314.88C1316.5 216.535 1317.77 216.922 1318.64 217.695C1319.52 218.469 1319.95 219.629 1319.95 221.176C1319.95 222.652 1319.49 223.812 1318.61 224.621C1317.73 225.43 1316.5 225.816 1314.88 225.816H1308.52ZM1328.66 230.352H1340.09V228.207C1340.09 225.605 1339.46 223.637 1338.19 222.371C1336.93 221.105 1335.24 220.508 1333.16 220.508C1331.09 220.508 1329.4 221.105 1328.14 222.371C1326.87 223.637 1326.2 225.605 1326.2 228.207V231.371C1326.2 234.043 1326.87 236.047 1328.14 237.312C1329.4 238.578 1331.09 239.211 1333.23 239.211C1335.31 239.211 1336.96 238.684 1338.16 237.664C1339.35 236.645 1339.95 235.238 1339.95 233.551V233.375H1337.56V233.48C1337.56 234.57 1337.21 235.449 1336.47 236.082C1335.73 236.715 1334.71 237.031 1333.41 237.031C1331.93 237.031 1330.77 236.609 1329.93 235.766C1329.09 234.922 1328.66 233.516 1328.66 231.441V230.352ZM1329.89 223.918C1330.7 223.109 1331.79 222.723 1333.16 222.723C1334.57 222.723 1335.62 223.109 1336.43 223.883C1337.24 224.656 1337.63 225.992 1337.63 227.891V228.523H1328.66V228.137C1328.66 226.133 1329.09 224.727 1329.89 223.918ZM1342.69 220.754L1349.02 239H1351.2L1357.49 220.754H1354.86L1350.11 235.414L1345.36 220.754H1342.69ZM1360.97 220.754V239H1363.43V220.754H1360.97ZM1360.9 214.531V217.766H1363.5V214.531H1360.9ZM1370.96 230.352H1382.38V228.207C1382.38 225.605 1381.75 223.637 1380.48 222.371C1379.22 221.105 1377.53 220.508 1375.46 220.508C1373.38 220.508 1371.7 221.105 1370.43 222.371C1369.16 223.637 1368.5 225.605 1368.5 228.207V231.371C1368.5 234.043 1369.16 236.047 1370.43 237.312C1371.7 238.578 1373.38 239.211 1375.53 239.211C1377.6 239.211 1379.25 238.684 1380.45 237.664C1381.64 236.645 1382.24 235.238 1382.24 233.551V233.375H1379.85V233.48C1379.85 234.57 1379.5 235.449 1378.76 236.082C1378.02 236.715 1377 237.031 1375.7 237.031C1374.23 237.031 1373.07 236.609 1372.22 235.766C1371.38 234.922 1370.96 233.516 1370.96 231.441V230.352ZM1372.19 223.918C1373 223.109 1374.09 222.723 1375.46 222.723C1376.86 222.723 1377.92 223.109 1378.73 223.883C1379.54 224.656 1379.92 225.992 1379.92 227.891V228.523H1370.96V228.137C1370.96 226.133 1371.38 224.727 1372.19 223.918ZM1384.98 220.754L1390.54 239H1392.72L1397.32 224.27L1401.93 239H1404.14L1409.7 220.754H1407.03L1402.88 235.379L1398.34 220.754H1396.3L1391.77 235.379L1387.66 220.754H1384.98ZM1316.46 261.055C1315.34 260.035 1313.72 259.508 1311.58 259.508C1309.61 259.508 1308.06 259.965 1306.94 260.914C1305.81 261.863 1305.21 263.094 1305.21 264.641V264.816H1307.61V264.711C1307.61 263.727 1307.96 262.953 1308.66 262.391C1309.36 261.828 1310.38 261.547 1311.61 261.547C1312.95 261.547 1313.97 261.898 1314.67 262.566C1315.38 263.234 1315.73 264.219 1315.73 265.555V267.629H1310.8C1308.87 267.629 1307.36 268.121 1306.3 269.035C1305.25 269.949 1304.69 271.25 1304.69 272.867C1304.69 274.625 1305.21 275.926 1306.27 276.84C1307.32 277.754 1308.8 278.211 1310.73 278.211C1311.89 278.211 1312.91 278.035 1313.72 277.684C1314.53 277.332 1315.23 276.805 1315.8 276.066V278H1318.19V265.59C1318.19 263.586 1317.59 262.074 1316.46 261.055ZM1314.64 275.152C1313.9 275.891 1312.74 276.242 1311.12 276.242C1308.45 276.242 1307.15 275.117 1307.15 272.832C1307.15 270.582 1308.48 269.422 1311.16 269.422H1315.73V271.812C1315.73 273.289 1315.38 274.414 1314.64 275.152ZM1321.35 259.754L1327.68 278H1329.86L1336.15 259.754H1333.52L1328.77 274.414L1324.02 259.754H1321.35ZM1353.03 268.543L1358.55 278H1361.54L1354.64 266.645L1360.52 259.754H1357.56L1349.58 269.457V253.145H1347.16V278H1349.58V272.551L1353.03 268.543ZM1366.25 276.418C1367.51 277.613 1369.2 278.211 1371.34 278.211C1373.42 278.211 1375.11 277.613 1376.37 276.418C1377.64 275.223 1378.27 273.324 1378.27 270.723V266.996C1378.27 264.395 1377.64 262.496 1376.37 261.301C1375.11 260.105 1373.42 259.508 1371.34 259.508C1369.2 259.508 1367.51 260.105 1366.25 261.301C1364.98 262.496 1364.31 264.395 1364.31 266.996V270.723C1364.31 273.324 1364.98 275.223 1366.25 276.418ZM1374.61 274.801C1373.8 275.609 1372.71 276.031 1371.34 276.031C1369.94 276.031 1368.81 275.609 1368 274.801C1367.2 273.992 1366.77 272.586 1366.77 270.582V267.137C1366.77 265.133 1367.2 263.727 1368 262.918C1368.81 262.109 1369.94 261.723 1371.34 261.723C1372.71 261.723 1373.8 262.109 1374.61 262.918C1375.42 263.727 1375.81 265.133 1375.81 267.137V270.582C1375.81 272.586 1375.42 273.992 1374.61 274.801ZM1383.09 259.754V278H1385.51V266.363C1385.51 264.887 1385.93 263.727 1386.71 262.918C1387.48 262.109 1388.5 261.723 1389.8 261.723C1391.14 261.723 1392.16 262.109 1392.89 262.918C1393.63 263.727 1393.98 264.852 1393.98 266.363V278H1396.48V266.258C1396.48 264.852 1396.83 263.727 1397.61 262.918C1398.38 262.109 1399.43 261.723 1400.77 261.723C1402.11 261.723 1403.09 262.109 1403.83 262.918C1404.57 263.727 1404.92 264.852 1404.92 266.363V278H1407.38V266.012C1407.38 263.973 1406.85 262.355 1405.76 261.23C1404.67 260.105 1403.16 259.543 1401.23 259.543C1398.73 259.543 1396.87 260.562 1395.67 262.602C1395.18 261.617 1394.51 260.844 1393.63 260.316C1392.75 259.789 1391.66 259.543 1390.43 259.543C1389.38 259.543 1388.39 259.754 1387.55 260.176C1386.71 260.598 1386 261.16 1385.48 261.969V259.754H1383.09ZM1412.76 259.754V283.484H1415.18V275.574C1416.2 277.332 1417.86 278.211 1420.14 278.211C1421.93 278.211 1423.41 277.613 1424.57 276.418C1425.73 275.223 1426.29 273.324 1426.29 270.723V266.996C1426.29 264.43 1425.7 262.531 1424.54 261.336C1423.38 260.141 1421.83 259.543 1419.96 259.543C1418.91 259.543 1417.96 259.789 1417.15 260.246C1416.34 260.703 1415.68 261.406 1415.18 262.32V259.754H1412.76ZM1423.83 270.582C1423.83 274.203 1422.46 276.031 1419.75 276.031C1418.28 276.031 1417.15 275.504 1416.38 274.484C1415.61 273.465 1415.18 272.164 1415.18 270.547V267.348C1415.18 265.66 1415.57 264.289 1416.31 263.27C1417.05 262.25 1418.14 261.723 1419.61 261.723C1422.43 261.723 1423.83 263.551 1423.83 267.172V270.582ZM1432.45 276.418C1433.71 277.613 1435.4 278.211 1437.54 278.211C1439.62 278.211 1441.3 277.613 1442.57 276.418C1443.84 275.223 1444.47 273.324 1444.47 270.723V266.996C1444.47 264.395 1443.84 262.496 1442.57 261.301C1441.3 260.105 1439.62 259.508 1437.54 259.508C1435.4 259.508 1433.71 260.105 1432.45 261.301C1431.18 262.496 1430.51 264.395 1430.51 266.996V270.723C1430.51 273.324 1431.18 275.223 1432.45 276.418ZM1440.81 274.801C1440 275.609 1438.91 276.031 1437.54 276.031C1436.14 276.031 1435.01 275.609 1434.2 274.801C1433.39 273.992 1432.97 272.586 1432.97 270.582V267.137C1432.97 265.133 1433.39 263.727 1434.2 262.918C1435.01 262.109 1436.14 261.723 1437.54 261.723C1438.91 261.723 1440 262.109 1440.81 262.918C1441.62 263.727 1442.01 265.133 1442.01 267.137V270.582C1442.01 272.586 1441.62 273.992 1440.81 274.801ZM1449.29 259.754V278H1451.71V266.363C1451.71 264.887 1452.13 263.727 1452.91 262.918C1453.68 262.109 1454.7 261.723 1456 261.723C1457.34 261.723 1458.36 262.109 1459.09 262.918C1459.83 263.727 1460.22 264.852 1460.22 266.363V278H1462.68V266.012C1462.68 263.973 1462.15 262.355 1461.1 261.23C1460.04 260.105 1458.57 259.543 1456.63 259.543C1455.58 259.543 1454.59 259.719 1453.75 260.141C1452.91 260.562 1452.2 261.16 1451.68 261.969V259.754H1449.29ZM1469.92 269.352H1481.35V267.207C1481.35 264.605 1480.71 262.637 1479.45 261.371C1478.18 260.105 1476.5 259.508 1474.42 259.508C1472.35 259.508 1470.66 260.105 1469.39 261.371C1468.13 262.637 1467.46 264.605 1467.46 267.207V270.371C1467.46 273.043 1468.13 275.047 1469.39 276.312C1470.66 277.578 1472.35 278.211 1474.49 278.211C1476.57 278.211 1478.22 277.684 1479.41 276.664C1480.61 275.645 1481.21 274.238 1481.21 272.551V272.375H1478.82V272.48C1478.82 273.57 1478.46 274.449 1477.73 275.082C1476.99 275.715 1475.97 276.031 1474.67 276.031C1473.19 276.031 1472.03 275.609 1471.19 274.766C1470.34 273.922 1469.92 272.516 1469.92 270.441V269.352ZM1471.15 262.918C1471.96 262.109 1473.05 261.723 1474.42 261.723C1475.83 261.723 1476.88 262.109 1477.69 262.883C1478.5 263.656 1478.89 264.992 1478.89 266.891V267.523H1469.92V267.137C1469.92 265.133 1470.34 263.727 1471.15 262.918ZM1486.16 259.754V278H1488.59V266.363C1488.59 264.887 1489.01 263.727 1489.79 262.918C1490.56 262.109 1491.58 261.723 1492.88 261.723C1494.21 261.723 1495.23 262.109 1495.97 262.918C1496.71 263.727 1497.1 264.852 1497.1 266.363V278H1499.56V266.012C1499.56 263.973 1499.03 262.355 1497.98 261.23C1496.92 260.105 1495.45 259.543 1493.51 259.543C1492.46 259.543 1491.47 259.719 1490.63 260.141C1489.79 260.562 1489.08 261.16 1488.55 261.969V259.754H1486.16ZM1508.77 261.688H1512.88V259.754H1508.77V254.41L1506.31 255.57V259.754H1503.46V261.688H1506.31V273.465C1506.31 274.871 1506.7 275.996 1507.47 276.805C1508.24 277.613 1509.33 278 1510.74 278H1512.57V275.855H1511.12C1509.58 275.855 1508.77 275.012 1508.77 273.359V261.688Z" fill="black"/>
<path d="M517.945 209.605H510.24L508.775 214H504.103L512.042 192.672H516.114L524.098 214H519.425L517.945 209.605ZM511.427 206.046H516.759L514.078 198.062L511.427 206.046ZM530.279 214H526.031V191.5H530.279V214ZM538.849 194.254V198.15H541.559V201.256H538.849V209.166C538.849 209.752 538.961 210.172 539.186 210.426C539.41 210.68 539.84 210.807 540.475 210.807C540.943 210.807 541.358 210.772 541.72 210.704V213.912C540.89 214.166 540.035 214.293 539.156 214.293C536.188 214.293 534.674 212.794 534.615 209.796V201.256H532.301V198.15H534.615V194.254H538.849ZM548.385 214H544.137V198.15H548.385V214ZM543.888 194.049C543.888 193.414 544.098 192.892 544.518 192.481C544.947 192.071 545.528 191.866 546.261 191.866C546.983 191.866 547.56 192.071 547.989 192.481C548.419 192.892 548.634 193.414 548.634 194.049C548.634 194.693 548.414 195.221 547.975 195.631C547.545 196.041 546.974 196.246 546.261 196.246C545.548 196.246 544.972 196.041 544.532 195.631C544.103 195.221 543.888 194.693 543.888 194.049ZM555.782 198.15L555.914 199.981C557.047 198.565 558.565 197.857 560.47 197.857C562.149 197.857 563.399 198.351 564.22 199.337C565.04 200.323 565.46 201.798 565.479 203.761V214H561.246V203.863C561.246 202.965 561.051 202.315 560.66 201.915C560.27 201.505 559.62 201.3 558.712 201.3C557.521 201.3 556.627 201.808 556.031 202.823V214H551.798V198.15H555.782ZM572.599 198.15L572.73 199.981C573.863 198.565 575.382 197.857 577.286 197.857C578.966 197.857 580.216 198.351 581.036 199.337C581.856 200.323 582.276 201.798 582.296 203.761V214H578.062V203.863C578.062 202.965 577.867 202.315 577.477 201.915C577.086 201.505 576.437 201.3 575.528 201.3C574.337 201.3 573.443 201.808 572.848 202.823V214H568.614V198.15H572.599Z" fill="black"/>
<path d="M1317.95 190.605H1310.24L1308.78 195H1304.1L1312.04 173.672H1316.11L1324.1 195H1319.42L1317.95 190.605ZM1311.43 187.046H1316.76L1314.08 179.062L1311.43 187.046ZM1330.28 195H1326.03V172.5H1330.28V195ZM1338.85 175.254V179.15H1341.56V182.256H1338.85V190.166C1338.85 190.752 1338.96 191.172 1339.19 191.426C1339.41 191.68 1339.84 191.807 1340.47 191.807C1340.94 191.807 1341.36 191.772 1341.72 191.704V194.912C1340.89 195.166 1340.04 195.293 1339.16 195.293C1336.19 195.293 1334.67 193.794 1334.62 190.796V182.256H1332.3V179.15H1334.62V175.254H1338.85ZM1348.38 195H1344.14V179.15H1348.38V195ZM1343.89 175.049C1343.89 174.414 1344.1 173.892 1344.52 173.481C1344.95 173.071 1345.53 172.866 1346.26 172.866C1346.98 172.866 1347.56 173.071 1347.99 173.481C1348.42 173.892 1348.63 174.414 1348.63 175.049C1348.63 175.693 1348.41 176.221 1347.97 176.631C1347.54 177.041 1346.97 177.246 1346.26 177.246C1345.55 177.246 1344.97 177.041 1344.53 176.631C1344.1 176.221 1343.89 175.693 1343.89 175.049ZM1355.78 179.15L1355.91 180.981C1357.05 179.565 1358.57 178.857 1360.47 178.857C1362.15 178.857 1363.4 179.351 1364.22 180.337C1365.04 181.323 1365.46 182.798 1365.48 184.761V195H1361.25V184.863C1361.25 183.965 1361.05 183.315 1360.66 182.915C1360.27 182.505 1359.62 182.3 1358.71 182.3C1357.52 182.3 1356.63 182.808 1356.03 183.823V195H1351.8V179.15H1355.78ZM1372.6 179.15L1372.73 180.981C1373.86 179.565 1375.38 178.857 1377.29 178.857C1378.97 178.857 1380.22 179.351 1381.04 180.337C1381.86 181.323 1382.28 182.798 1382.3 184.761V195H1378.06V184.863C1378.06 183.965 1377.87 183.315 1377.48 182.915C1377.09 182.505 1376.44 182.3 1375.53 182.3C1374.34 182.3 1373.44 182.808 1372.85 183.823V195H1368.61V179.15H1372.6Z" fill="black"/>
</g>
<defs>
<clipPath id="clip0">
<rect width="1966" height="466" fill="white"/>
</clipPath>
</defs>
</svg>
