<?xml version="1.0" encoding="UTF-8" standalone="no"?>
<!DOCTYPE svg PUBLIC "-//W3C//DTD SVG 1.1//EN" "http://www.w3.org/Graphics/SVG/1.1/DTD/svg11.dtd">
<!-- Generated by Microsoft Visio, SVG Export authorization_rule_defined_in_altinnstudio.svg Page-1 -->
<svg xmlns="http://www.w3.org/2000/svg" xmlns:xlink="http://www.w3.org/1999/xlink" xmlns:ev="http://www.w3.org/2001/xml-events"
		xmlns:v="http://schemas.microsoft.com/visio/2003/SVGExtensions/" width="9.5237in" height="7.73826in"
		viewBox="0 0 685.706 557.154" xml:space="preserve" color-interpolation-filters="sRGB" class="st8">
	<v:documentProperties v:langID="1033" v:metric="true" v:viewMarkup="false">
		<v:userDefs>
			<v:ud v:nameU="DisableSpdActionTags" v:prompt="" v:val="VT0(0):26"/>
		</v:userDefs>
	</v:documentProperties>

	<style type="text/css">
	<![CDATA[
		.st1 {stroke:#5b9bd5;stroke-linecap:round;stroke-linejoin:round;stroke-width:3}
		.st2 {fill:#ffffff;stroke:none;stroke-linecap:butt;stroke-width:7.2}
		.st3 {fill:#4f87bb;font-family:Calibri;font-size:1.00001em}
		.st4 {stroke:#5b9bd5;stroke-linecap:round;stroke-linejoin:round;stroke-width:1}
		.st5 {fill:none;stroke:none;stroke-width:0.25}
		.st6 {fill:#5b9bd5;font-family:Calibri;font-size:1.99999em}
		.st7 {font-size:1em}
		.st8 {fill:none;fill-rule:evenodd;font-size:12px;overflow:visible;stroke-linecap:square;stroke-miterlimit:3}
	]]>
	</style>

	<g v:mID="0" v:index="1" v:groupContext="foregroundPage">
		<title>Page-1</title>
		<v:pageProperties v:drawingScale="0.0393701" v:pageScale="0.0393701" v:drawingUnits="24" v:shadowOffsetX="8.50394"
				v:shadowOffsetY="-8.50394"/>
		<g id="shape1-1" v:mID="1" v:groupContext="shape" transform="translate(-179.922,6.00567) rotate(-61.4486)">
			<title>Sheet.1</title>
			<desc>Condition</desc>
			<v:textBlock v:margins="rect(4,4,4,4)" v:tabSpace="42.5197"/>
			<v:textRect cx="109.721" cy="557.154" width="219.45" height="0"/>
			<path d="M0 557.15 L219.44 557.15" class="st1"/>
			<rect v:rectContext="textBkgnd" x="85.973" y="549.955" width="47.4966" height="14.4001" class="st2"/>
			<text x="85.97" y="560.75" class="st3" v:langID="1044"><v:paragraph v:horizAlign="1"/><v:tabList/>Condition</text>		</g>
		<g id="shape10-6" v:mID="10" v:groupContext="shape" transform="translate(368.879,-119.961) rotate(-10)">
			<title>Sheet.10</title>
			<desc>App</desc>
			<v:textBlock v:margins="rect(4,4,4,4)" v:tabSpace="42.5197"/>
			<v:textRect cx="70.8661" cy="557.154" width="141.74" height="0"/>
			<path d="M0 557.15 L141.73 557.15" class="st4"/>
			<rect v:rectContext="textBkgnd" x="61.0898" y="549.955" width="19.5529" height="14.4001" class="st2"/>
			<text x="61.09" y="560.75" class="st3" v:langID="1044"><v:paragraph v:horizAlign="1"/><v:tabList/>App</text>		</g>
		<g id="shape14-11" v:mID="14" v:groupContext="shape" transform="translate(610.235,-108.573) rotate(15)">
			<title>Sheet.14</title>
			<desc>Task</desc>
			<v:textBlock v:margins="rect(4,4,4,4)" v:tabSpace="42.5197"/>
			<v:textRect cx="70.8661" cy="557.154" width="141.74" height="0"/>
			<path d="M0 557.15 L141.73 557.15" class="st4"/>
			<rect v:rectContext="textBkgnd" x="59.9941" y="549.955" width="21.7441" height="14.4001" class="st2"/>
			<text x="59.99" y="560.75" class="st3" v:langID="1044"><v:paragraph v:horizAlign="1"/><v:tabList/>Task</text>		</g>
		<g id="shape16-16" v:mID="16" v:groupContext="shape" transform="translate(824.686,3.90918) rotate(40)">
			<title>Sheet.16</title>
			<desc>party</desc>
			<v:textBlock v:margins="rect(4,4,4,4)" v:tabSpace="42.5197"/>
			<v:textRect cx="70.8661" cy="557.154" width="141.74" height="0"/>
			<path d="M0 557.15 L141.73 557.15" class="st4"/>
			<rect v:rectContext="textBkgnd" x="58.0224" y="549.955" width="25.6877" height="14.4001" class="st2"/>
			<text x="58.02" y="560.75" class="st3" v:langID="1044"><v:paragraph v:horizAlign="1"/><v:tabList/>party</text>		</g>
		<g id="shape17-21" v:mID="17" v:groupContext="shape" transform="translate(149.466,-28.2668) rotate(-35)">
			<title>Sheet.17</title>
			<desc>Org</desc>
			<v:textBlock v:margins="rect(4,4,4,4)" v:tabSpace="42.5197"/>
			<v:textRect cx="70.8661" cy="557.154" width="141.74" height="0"/>
			<path d="M0 557.15 L141.73 557.15" class="st4"/>
			<rect v:rectContext="textBkgnd" x="61.9774" y="549.955" width="17.7773" height="14.4001" class="st2"/>
			<text x="61.98" y="560.75" class="st3" v:langID="1044"><v:paragraph v:horizAlign="1"/><v:tabList/>Org</text>		</g>
		<g id="shape28-26" v:mID="28" v:groupContext="shape" transform="translate(970.335,192.738) rotate(65)">
			<title>Sheet.28</title>
			<desc>Instance</desc>
			<v:textBlock v:margins="rect(4,4,4,4)" v:tabSpace="42.5197"/>
			<v:textRect cx="70.8661" cy="557.154" width="141.74" height="0"/>
			<path d="M0 557.15 L141.73 557.15" class="st4"/>
			<rect v:rectContext="textBkgnd" x="50.2965" y="549.955" width="41.1391" height="14.4001" class="st2"/>
			<text x="50.3" y="560.75" class="st3" v:langID="1044"><v:paragraph v:horizAlign="1"/><v:tabList/>Instance</text>		</g>
		<g id="shape31-31" v:mID="31" v:groupContext="shape" transform="translate(703.444,-121.672) rotate(45)">
			<title>Sheet.31</title>
			<desc>Resource</desc>
			<v:textBlock v:margins="rect(4,4,4,4)" v:tabSpace="42.5197"/>
			<v:textRect cx="110.242" cy="557.154" width="220.49" height="0"/>
			<path d="M0 557.15 L220.48 557.15" class="st1"/>
			<rect v:rectContext="textBkgnd" x="87.7212" y="549.955" width="45.0415" height="14.4001" class="st2"/>
			<text x="87.72" y="560.75" class="st3" v:langID="1044"><v:paragraph v:horizAlign="1"/><v:tabList/>Resource</text>		</g>
		<g id="shape32-36" v:mID="32" v:groupContext="shape" transform="translate(191.019,-157.916) rotate(-45)">
			<title>Sheet.32</title>
			<desc>Authentication Level</desc>
			<v:textBlock v:margins="rect(4,4,4,4)" v:tabSpace="42.5197"/>
			<v:textRect cx="70.8661" cy="557.154" width="141.74" height="0"/>
			<path d="M0 557.15 L141.73 557.15" class="st4"/>
			<rect v:rectContext="textBkgnd" x="20.5043" y="549.955" width="100.724" height="14.4001" class="st2"/>
			<text x="20.5" y="560.75" class="st3" v:langID="1044"><v:paragraph v:horizAlign="1"/><v:tabList/>Authentication Level</text>		</g>
		<g id="shape33-41" v:mID="33" v:groupContext="shape" transform="translate(127.705,-398.216) rotate(-30.9638)">
			<title>Sheet.33</title>
			<desc>Valid To</desc>
			<v:textBlock v:margins="rect(4,4,4,4)" v:tabSpace="42.5197"/>
			<v:textRect cx="66.1147" cy="557.154" width="132.23" height="0"/>
			<path d="M0 557.15 L132.23 557.15" class="st4"/>
			<rect v:rectContext="textBkgnd" x="46.4856" y="549.955" width="39.2583" height="14.4001" class="st2"/>
			<text x="46.49" y="560.75" class="st3" v:langID="1044"><v:paragraph v:horizAlign="1"/><v:tabList/>Valid To</text>		</g>
		<g id="shape37-46" v:mID="37" v:groupContext="shape" transform="translate(549.557,-459.716) rotate(14.1068)">
			<title>Sheet.37</title>
			<desc>SRR Condition</desc>
			<v:textBlock v:margins="rect(4,4,4,4)" v:tabSpace="42.5197"/>
			<v:textRect cx="67.5318" cy="557.154" width="135.07" height="0"/>
			<path d="M0 557.15 L135.06 557.15" class="st4"/>
			<rect v:rectContext="textBkgnd" x="33.1545" y="549.955" width="68.7546" height="14.4001" class="st2"/>
			<text x="33.15" y="560.75" class="st3" v:langID="1044"><v:paragraph v:horizAlign="1"/><v:tabList/>SRR Condition</text>		</g>
		<g id="shape38-51" v:mID="38" v:groupContext="shape" transform="translate(-235.2,42.0912) rotate(-46.6366)">
			<title>Sheet.38</title>
			<desc>Action</desc>
			<v:textBlock v:margins="rect(4,4,4,4)" v:tabSpace="42.5197"/>
			<v:textRect cx="105.274" cy="557.154" width="210.55" height="0"/>
			<path d="M0 557.15 L210.55 557.15" class="st1"/>
			<rect v:rectContext="textBkgnd" x="89.5616" y="549.955" width="31.4242" height="14.4001" class="st2"/>
			<text x="89.56" y="560.75" class="st3" v:langID="1044"><v:paragraph v:horizAlign="1"/><v:tabList/>Action</text>		</g>
		<g id="shape39-56" v:mID="39" v:groupContext="shape" transform="translate(473.643,-320.806) rotate(40.6013)">
			<title>Sheet.39</title>
			<desc>Subject</desc>
			<v:textBlock v:margins="rect(4,4,4,4)" v:tabSpace="42.5197"/>
			<v:textRect cx="130.671" cy="557.154" width="261.35" height="0"/>
			<path d="M0 557.15 L261.34 557.15" class="st1"/>
			<rect v:rectContext="textBkgnd" x="112.641" y="549.955" width="36.0591" height="14.4001" class="st2"/>
			<text x="112.64" y="560.75" class="st3" v:langID="1044"><v:paragraph v:horizAlign="1"/><v:tabList/>Subject</text>		</g>
		<g id="shape43-61" v:mID="43" v:groupContext="shape" transform="translate(-137.883,-409.132) rotate(-14.3814)">
			<title>Sheet.43</title>
			<desc>Role</desc>
			<v:textBlock v:margins="rect(4,4,4,4)" v:tabSpace="42.5197"/>
			<v:textRect cx="57.0638" cy="557.154" width="114.13" height="0"/>
			<path d="M0 557.15 L114.13 557.15" class="st4"/>
			<rect v:rectContext="textBkgnd" x="46.2794" y="549.955" width="21.5686" height="14.4001" class="st2"/>
			<text x="46.28" y="560.75" class="st3" v:langID="1044"><v:paragraph v:horizAlign="1"/><v:tabList/>Role</text>		</g>
		<g id="shape46-66" v:mID="46" v:groupContext="shape" transform="translate(348.276,-119.884) rotate(32.1827)">
			<title>Sheet.46</title>
			<desc>Read</desc>
			<v:textBlock v:margins="rect(4,4,4,4)" v:tabSpace="42.5197"/>
			<v:textRect cx="68.1965" cy="557.154" width="136.4" height="0"/>
			<path d="M0 557.15 L136.39 557.15" class="st4"/>
			<rect v:rectContext="textBkgnd" x="55.927" y="549.955" width="24.5393" height="14.4001" class="st2"/>
			<text x="55.93" y="560.75" class="st3" v:langID="1044"><v:paragraph v:horizAlign="1"/><v:tabList/>Read</text>		</g>
		<g id="shape47-71" v:mID="47" v:groupContext="shape" transform="translate(92.776,-145.116) rotate(6.58879)">
			<title>Sheet.47</title>
			<desc>Write</desc>
			<v:textBlock v:margins="rect(4,4,4,4)" v:tabSpace="42.5197"/>
			<v:textRect cx="70.9748" cy="557.154" width="141.95" height="0"/>
			<path d="M0 557.15 L141.95 557.15" class="st4"/>
			<rect v:rectContext="textBkgnd" x="57.1729" y="549.955" width="27.604" height="14.4001" class="st2"/>
			<text x="57.17" y="560.75" class="st3" v:langID="1044"><v:paragraph v:horizAlign="1"/><v:tabList/>Write</text>		</g>
		<g id="shape48-76" v:mID="48" v:groupContext="shape" transform="translate(-123.654,-69.1797) rotate(-16.4925)">
			<title>Sheet.48</title>
			<desc>Sign</desc>
			<v:textBlock v:margins="rect(4,4,4,4)" v:tabSpace="42.5197"/>
			<v:textRect cx="68.8532" cy="557.154" width="137.71" height="0"/>
			<path d="M0 557.15 L137.71 557.15" class="st4"/>
			<rect v:rectContext="textBkgnd" x="58.7428" y="549.955" width="20.2209" height="14.4001" class="st2"/>
			<text x="58.74" y="560.75" class="st3" v:langID="1044"><v:paragraph v:horizAlign="1"/><v:tabList/>Sign</text>		</g>
		<g id="shape49-81" v:mID="49" v:groupContext="shape" transform="translate(-322.86,130.895) rotate(-45.4516)">
			<title>Sheet.49</title>
			<desc>ArchiveRead</desc>
			<v:textBlock v:margins="rect(4,4,4,4)" v:tabSpace="42.5197"/>
			<v:textRect cx="69.5047" cy="557.154" width="139.01" height="0"/>
			<path d="M0 557.15 L139.01 557.15" class="st4"/>
			<rect v:rectContext="textBkgnd" x="38.9097" y="549.955" width="61.19" height="14.4001" class="st2"/>
			<text x="38.91" y="560.75" class="st3" v:langID="1044"><v:paragraph v:horizAlign="1"/><v:tabList/>ArchiveRead</text>		</g>
		<g id="shape50-86" v:mID="50" v:groupContext="shape" transform="translate(-392.122,532.692) rotate(-88.7937)">
			<title>Sheet.50</title>
			<desc>ArchiveDelete</desc>
			<v:textBlock v:margins="rect(4,4,4,4)" v:tabSpace="42.5197"/>
			<v:textRect cx="59.5179" cy="557.154" width="119.04" height="0"/>
			<path d="M0 557.15 L119.04 557.15" class="st4"/>
			<rect v:rectContext="textBkgnd" x="25.1581" y="549.955" width="68.7195" height="14.4001" class="st2"/>
			<text x="25.16" y="560.75" class="st3" v:langID="1044"><v:paragraph v:horizAlign="1"/><v:tabList/>ArchiveDelete</text>		</g>
		<g id="shape55-91" v:mID="55" v:groupContext="shape" transform="translate(193.256,-511.063)">
			<title>Sheet.55</title>
			<desc>Altinn Studio Authorization Rule</desc>
			<v:textBlock v:margins="rect(4,4,4,4)" v:tabSpace="42.5197"/>
			<v:textRect cx="121.89" cy="539.863" width="243.78" height="34.5827"/>
			<rect x="0" y="522.572" width="243.78" height="34.5827" class="st5"/>
			<text x="58.87" y="532.66" class="st6" v:langID="1044"><v:paragraph v:horizAlign="1"/><v:tabList/>Altinn Studio <tspan
						x="30.9" dy="1.2em" class="st7">Authorization Rule</tspan></text>		</g>
		<g id="shape60-95" v:mID="60" v:groupContext="shape" transform="translate(241.895,-280.838) rotate(-7.48002)">
			<title>Sheet.60</title>
			<desc>Obligation</desc>
			<v:textBlock v:margins="rect(4,4,4,4)" v:tabSpace="42.5197"/>
			<v:textRect cx="137.416" cy="557.154" width="274.84" height="0"/>
			<path d="M0 557.15 L274.83 557.15" class="st1"/>
			<rect v:rectContext="textBkgnd" x="112.136" y="549.955" width="50.561" height="14.4001" class="st2"/>
			<text x="112.14" y="560.75" class="st3" v:langID="1044"><v:paragraph v:horizAlign="1"/><v:tabList/>Obligation</text>		</g>
		<g id="shape61-100" v:mID="61" v:groupContext="shape" transform="translate(-400.991,322.267) rotate(-113.325)">
			<title>Sheet.61</title>
			<desc>org</desc>
			<v:textBlock v:margins="rect(4,4,4,4)" v:tabSpace="42.5197"/>
			<v:textRect cx="46.0035" cy="557.154" width="92.01" height="0"/>
			<path d="M0 557.15 L92.01 557.15" class="st4"/>
			<rect v:rectContext="textBkgnd" x="37.9234" y="549.955" width="16.1601" height="14.4001" class="st2"/>
			<text x="37.92" y="560.75" class="st3" v:langID="1044"><v:paragraph v:horizAlign="1"/><v:tabList/>org</text>		</g>
		<g id="shape62-105" v:mID="62" v:groupContext="shape" transform="translate(1024.65,432.734) rotate(90)">
			<title>Sheet.62</title>
			<desc>Event</desc>
			<v:textBlock v:margins="rect(4,4,4,4)" v:tabSpace="42.5197"/>
			<v:textRect cx="61.5133" cy="557.154" width="123.03" height="0"/>
			<path d="M0 557.15 L123.03 557.15" class="st4"/>
			<rect v:rectContext="textBkgnd" x="47.7263" y="549.955" width="27.5743" height="14.4001" class="st2"/>
			<text x="47.73" y="560.75" class="st3" v:langID="1044"><v:paragraph v:horizAlign="1"/><v:tabList/>Event</text>		</g>
	</g>
</svg>
