<?xml version="1.0" encoding="UTF-8" standalone="no"?>
<!DOCTYPE svg PUBLIC "-//W3C//DTD SVG 1.1//EN" "http://www.w3.org/Graphics/SVG/1.1/DTD/svg11.dtd">
<!-- Generated by Microsoft Visio, SVG Export authorization_rule_defined_in_altinnstudio.svg Page-1 -->
<svg xmlns="http://www.w3.org/2000/svg" xmlns:xlink="http://www.w3.org/1999/xlink" xmlns:ev="http://www.w3.org/2001/xml-events"
		xmlns:v="http://schemas.microsoft.com/visio/2003/SVGExtensions/" width="9.5237in" height="7.56836in"
		viewBox="0 0 685.706 544.922" xml:space="preserve" color-interpolation-filters="sRGB" class="st9">
	<v:documentProperties v:langID="1033" v:metric="true" v:viewMarkup="false">
		<v:userDefs>
			<v:ud v:nameU="DisableSpdActionTags" v:prompt="" v:val="VT0(0):26"/>
		</v:userDefs>
	</v:documentProperties>

	<style type="text/css">
	<![CDATA[
		.st1 {stroke:#5b9bd5;stroke-linecap:round;stroke-linejoin:round;stroke-width:3}
		.st2 {fill:#ffffff;stroke:none;stroke-linecap:butt;stroke-width:7.2}
		.st3 {fill:#4f87bb;font-family:Calibri;font-size:1.00001em}
		.st4 {stroke:#5b9bd5;stroke-linecap:round;stroke-linejoin:round;stroke-width:1}
		.st5 {fill:#ffffff;stroke:none;stroke-linecap:butt}
		.st6 {fill:none;stroke:none;stroke-width:0.25}
		.st7 {fill:#5b9bd5;font-family:Calibri;font-size:1.99999em}
		.st8 {font-size:1em}
		.st9 {fill:none;fill-rule:evenodd;font-size:12px;overflow:visible;stroke-linecap:square;stroke-miterlimit:3}
	]]>
	</style>

	<g v:mID="0" v:index="1" v:groupContext="foregroundPage">
		<title>Page-1</title>
		<v:pageProperties v:drawingScale="0.0393701" v:pageScale="0.0393701" v:drawingUnits="24" v:shadowOffsetX="8.50394"
				v:shadowOffsetY="-8.50394"/>
		<g id="shape1-1" v:mID="1" v:groupContext="shape" transform="translate(-169.177,11.8522) rotate(-61.4486)">
			<title>Sheet.1</title>
			<desc>Condition</desc>
			<v:textBlock v:margins="rect(4,4,4,4)" v:tabSpace="42.5197"/>
			<v:textRect cx="109.721" cy="544.922" width="219.45" height="0"/>
			<path d="M0 544.92 L219.44 544.92" class="st1"/>
			<rect v:rectContext="textBkgnd" x="85.973" y="537.722" width="47.4966" height="14.4001" class="st2"/>
			<text x="85.97" y="548.52" class="st3" v:langID="1044"><v:paragraph v:horizAlign="1"/><v:tabList/>Condition</text>		</g>
		<g id="shape10-6" v:mID="10" v:groupContext="shape" transform="translate(371.003,-107.915) rotate(-10)">
			<title>Sheet.10</title>
			<desc>App</desc>
			<v:textBlock v:margins="rect(4,4,4,4)" v:tabSpace="42.5197"/>
			<v:textRect cx="70.8661" cy="544.922" width="141.74" height="0"/>
			<path d="M0 544.92 L141.73 544.92" class="st4"/>
			<rect v:rectContext="textBkgnd" x="61.0898" y="537.722" width="19.5529" height="14.4001" class="st2"/>
			<text x="61.09" y="548.52" class="st3" v:langID="1044"><v:paragraph v:horizAlign="1"/><v:tabList/>App</text>		</g>
		<g id="shape14-11" v:mID="14" v:groupContext="shape" transform="translate(607.069,-96.757) rotate(15)">
			<title>Sheet.14</title>
			<desc>Task</desc>
			<v:textBlock v:margins="rect(4,4,4,4)" v:tabSpace="42.5197"/>
			<v:textRect cx="70.8661" cy="544.922" width="141.74" height="0"/>
			<path d="M0 544.92 L141.73 544.92" class="st4"/>
			<rect v:rectContext="textBkgnd" x="59.9941" y="537.722" width="21.7441" height="14.4001" class="st2"/>
			<text x="59.99" y="548.52" class="st3" v:langID="1044"><v:paragraph v:horizAlign="1"/><v:tabList/>Task</text>		</g>
		<g id="shape17-16" v:mID="17" v:groupContext="shape" transform="translate(156.482,-18.2464) rotate(-35)">
			<title>Sheet.17</title>
			<desc>Org</desc>
			<v:textBlock v:margins="rect(4,4,4,4)" v:tabSpace="42.5197"/>
			<v:textRect cx="70.8661" cy="544.922" width="141.74" height="0"/>
			<path d="M0 544.92 L141.73 544.92" class="st4"/>
			<rect v:rectContext="textBkgnd" x="61.9774" y="537.722" width="17.7773" height="14.4001" class="st2"/>
			<text x="61.98" y="548.52" class="st3" v:langID="1044"><v:paragraph v:horizAlign="1"/><v:tabList/>Org</text>		</g>
		<g id="shape31-21" v:mID="31" v:groupContext="shape" transform="translate(694.794,-113.022) rotate(45)">
			<title>Sheet.31</title>
			<desc>Resource</desc>
			<v:textBlock v:margins="rect(4,4,4,4)" v:tabSpace="42.5197"/>
			<v:textRect cx="110.242" cy="544.922" width="220.49" height="0"/>
			<path d="M0 544.92 L220.48 544.92" class="st1"/>
			<rect v:rectContext="textBkgnd" x="87.7212" y="537.722" width="45.0415" height="14.4001" class="st2"/>
			<text x="87.72" y="548.52" class="st3" v:langID="1044"><v:paragraph v:horizAlign="1"/><v:tabList/>Resource</text>		</g>
		<g id="shape32-26" v:mID="32" v:groupContext="shape" transform="translate(199.668,-149.266) rotate(-45)">
			<title>Sheet.32</title>
			<desc>Authentication Level</desc>
			<v:textBlock v:margins="rect(4,4,4,4)" v:tabSpace="42.5197"/>
			<v:textRect cx="70.8661" cy="544.922" width="141.74" height="0"/>
			<path d="M0 544.92 L141.73 544.92" class="st4"/>
			<rect v:rectContext="textBkgnd" x="20.5043" y="537.722" width="100.724" height="14.4001" class="st2"/>
			<text x="20.5" y="548.52" class="st3" v:langID="1044"><v:paragraph v:horizAlign="1"/><v:tabList/>Authentication Level</text>		</g>
		<g id="shape33-31" v:mID="33" v:groupContext="shape" transform="translate(133.998,-387.727) rotate(-30.9638)">
			<title>Sheet.33</title>
			<desc>Valid To</desc>
			<v:textBlock v:margins="rect(4,4,4,4)" v:tabSpace="42.5197"/>
			<v:textRect cx="66.1147" cy="544.922" width="132.23" height="0"/>
			<path d="M0 544.92 L132.23 544.92" class="st4"/>
			<rect v:rectContext="textBkgnd" x="46.4856" y="537.722" width="39.2583" height="14.4001" class="st2"/>
			<text x="46.49" y="548.52" class="st3" v:langID="1044"><v:paragraph v:horizAlign="1"/><v:tabList/>Valid To</text>		</g>
		<g id="shape37-36" v:mID="37" v:groupContext="shape" transform="translate(546.575,-447.852) rotate(14.1068)">
			<title>Sheet.37</title>
			<desc>SRR Condition</desc>
			<v:textBlock v:margins="rect(4,4,4,4)" v:tabSpace="42.5197"/>
			<v:textRect cx="67.5318" cy="544.922" width="135.07" height="0"/>
			<path d="M0 544.92 L135.06 544.92" class="st4"/>
			<rect v:rectContext="textBkgnd" x="33.1545" y="537.722" width="68.7546" height="14.4001" class="st2"/>
			<text x="33.15" y="548.52" class="st3" v:langID="1044"><v:paragraph v:horizAlign="1"/><v:tabList/>SRR Condition</text>		</g>
		<g id="shape38-41" v:mID="38" v:groupContext="shape" transform="translate(-226.307,50.4904) rotate(-46.6366)">
			<title>Sheet.38</title>
			<desc>Action</desc>
			<v:textBlock v:margins="rect(4,4,4,4)" v:tabSpace="42.5197"/>
			<v:textRect cx="105.274" cy="544.922" width="210.55" height="0"/>
			<path d="M0 544.92 L210.55 544.92" class="st1"/>
			<rect v:rectContext="textBkgnd" x="89.5616" y="537.722" width="31.4242" height="14.4001" class="st2"/>
			<text x="89.56" y="548.52" class="st3" v:langID="1044"><v:paragraph v:horizAlign="1"/><v:tabList/>Action</text>		</g>
		<g id="shape39-46" v:mID="39" v:groupContext="shape" transform="translate(465.682,-311.518) rotate(40.6013)">
			<title>Sheet.39</title>
			<desc>Subject</desc>
			<v:textBlock v:margins="rect(4,4,4,4)" v:tabSpace="42.5197"/>
			<v:textRect cx="130.671" cy="544.922" width="261.35" height="0"/>
			<path d="M0 544.92 L261.34 544.92" class="st1"/>
			<rect v:rectContext="textBkgnd" x="112.641" y="537.722" width="36.0591" height="14.4001" class="st2"/>
			<text x="112.64" y="548.52" class="st3" v:langID="1044"><v:paragraph v:horizAlign="1"/><v:tabList/>Subject</text>		</g>
		<g id="shape43-51" v:mID="43" v:groupContext="shape" transform="translate(-134.845,-397.283) rotate(-14.3814)">
			<title>Sheet.43</title>
			<desc>Role</desc>
			<v:textBlock v:margins="rect(4,4,4,4)" v:tabSpace="42.5197"/>
			<v:textRect cx="57.0638" cy="544.922" width="114.13" height="0"/>
			<path d="M0 544.92 L114.13 544.92" class="st4"/>
			<rect v:rectContext="textBkgnd" x="46.2794" y="537.722" width="21.5686" height="14.4001" class="st2"/>
			<text x="46.28" y="548.52" class="st3" v:langID="1044"><v:paragraph v:horizAlign="1"/><v:tabList/>Role</text>		</g>
		<g id="shape46-56" v:mID="46" v:groupContext="shape" transform="translate(341.761,-109.531) rotate(32.1827)">
			<title>Sheet.46</title>
			<desc>Read</desc>
			<v:textBlock v:margins="rect(4,4,4,4)" v:tabSpace="42.5197"/>
			<v:textRect cx="68.1965" cy="544.922" width="136.4" height="0"/>
			<path d="M0 544.92 L136.39 544.92" class="st4"/>
			<rect v:rectContext="textBkgnd" x="55.927" y="537.722" width="24.5393" height="14.4001" class="st5"/>
			<text x="55.93" y="548.52" class="st3" v:langID="1044"><v:paragraph v:horizAlign="1"/><v:tabList/>Read</text>		</g>
		<g id="shape47-61" v:mID="47" v:groupContext="shape" transform="translate(91.3724,-132.964) rotate(6.58879)">
			<title>Sheet.47</title>
			<desc>Write</desc>
			<v:textBlock v:margins="rect(4,4,4,4)" v:tabSpace="42.5197"/>
			<v:textRect cx="70.9748" cy="544.922" width="141.95" height="0"/>
			<path d="M0 544.92 L141.95 544.92" class="st4"/>
			<rect v:rectContext="textBkgnd" x="57.1729" y="537.722" width="27.604" height="14.4001" class="st5"/>
			<text x="57.17" y="548.52" class="st3" v:langID="1044"><v:paragraph v:horizAlign="1"/><v:tabList/>Write</text>		</g>
		<g id="shape48-66" v:mID="48" v:groupContext="shape" transform="translate(-120.182,-57.4504) rotate(-16.4925)">
			<title>Sheet.48</title>
			<desc>Sign</desc>
			<v:textBlock v:margins="rect(4,4,4,4)" v:tabSpace="42.5197"/>
			<v:textRect cx="68.8532" cy="544.922" width="137.71" height="0"/>
			<path d="M0 544.92 L137.71 544.92" class="st4"/>
			<rect v:rectContext="textBkgnd" x="58.7428" y="537.722" width="20.2209" height="14.4001" class="st5"/>
			<text x="58.74" y="548.52" class="st3" v:langID="1044"><v:paragraph v:horizAlign="1"/><v:tabList/>Sign</text>		</g>
		<g id="shape49-71" v:mID="49" v:groupContext="shape" transform="translate(-314.142,139.476) rotate(-45.4516)">
			<title>Sheet.49</title>
			<desc>Delete</desc>
			<v:textBlock v:margins="rect(4,4,4,4)" v:tabSpace="42.5197"/>
			<v:textRect cx="69.5047" cy="544.922" width="139.01" height="0"/>
			<path d="M0 544.92 L139.01 544.92" class="st4"/>
			<rect v:rectContext="textBkgnd" x="53.4705" y="537.722" width="32.0688" height="14.4001" class="st5"/>
			<text x="53.47" y="548.52" class="st3" v:langID="1044"><v:paragraph v:horizAlign="1"/><v:tabList/>Delete</text>		</g>
		<g id="shape50-76" v:mID="50" v:groupContext="shape" transform="translate(-379.892,532.95) rotate(-88.7937)">
			<title>Sheet.50</title>
			<desc>Confirm</desc>
			<v:textBlock v:margins="rect(4,4,4,4)" v:tabSpace="42.5197"/>
			<v:textRect cx="59.5179" cy="544.922" width="119.04" height="0"/>
			<path d="M0 544.92 L119.04 544.92" class="st4"/>
			<rect v:rectContext="textBkgnd" x="39.9095" y="537.722" width="39.2171" height="14.4001" class="st2"/>
			<text x="39.91" y="548.52" class="st3" v:langID="1044"><v:paragraph v:horizAlign="1"/><v:tabList/>Confirm</text>		</g>
		<g id="shape55-81" v:mID="55" v:groupContext="shape" transform="translate(193.256,-498.831)">
			<title>Sheet.55</title>
			<desc>Altinn Studio Authorization Rule</desc>
			<v:textBlock v:margins="rect(4,4,4,4)" v:tabSpace="42.5197"/>
			<v:textRect cx="121.89" cy="527.631" width="243.78" height="34.5827"/>
			<rect x="0" y="510.339" width="243.78" height="34.5827" class="st6"/>
			<text x="58.87" y="520.43" class="st7" v:langID="1044"><v:paragraph v:horizAlign="1"/><v:tabList/>Altinn Studio <tspan
						x="30.9" dy="1.2em" class="st8">Authorization Rule</tspan></text>		</g>
		<g id="shape60-85" v:mID="60" v:groupContext="shape" transform="translate(243.487,-268.709) rotate(-7.48002)">
			<title>Sheet.60</title>
			<desc>Obligation</desc>
			<v:textBlock v:margins="rect(4,4,4,4)" v:tabSpace="42.5197"/>
			<v:textRect cx="137.416" cy="544.922" width="274.84" height="0"/>
			<path d="M0 544.92 L274.83 544.92" class="st1"/>
			<rect v:rectContext="textBkgnd" x="112.136" y="537.722" width="50.561" height="14.4001" class="st2"/>
			<text x="112.14" y="548.52" class="st3" v:langID="1044"><v:paragraph v:horizAlign="1"/><v:tabList/>Obligation</text>		</g>
		<g id="shape61-90" v:mID="61" v:groupContext="shape" transform="translate(-389.758,317.423) rotate(-113.325)">
			<title>Sheet.61</title>
			<desc>org</desc>
			<v:textBlock v:margins="rect(4,4,4,4)" v:tabSpace="42.5197"/>
			<v:textRect cx="46.0035" cy="544.922" width="92.01" height="0"/>
			<path d="M0 544.92 L92.01 544.92" class="st4"/>
			<rect v:rectContext="textBkgnd" x="37.9234" y="537.722" width="16.1601" height="14.4001" class="st5"/>
			<text x="37.92" y="548.52" class="st3" v:langID="1044"><v:paragraph v:horizAlign="1"/><v:tabList/>org</text>		</g>
		<g id="shape62-95" v:mID="62" v:groupContext="shape" transform="translate(852.813,47.4159) rotate(45)">
			<title>Sheet.62</title>
			<desc>Appresource</desc>
			<v:textBlock v:margins="rect(4,4,4,4)" v:tabSpace="42.5197"/>
			<v:textRect cx="56.3739" cy="544.922" width="112.75" height="0"/>
			<path d="M0 544.92 L112.75 544.92" class="st4"/>
			<rect v:rectContext="textBkgnd" x="25.2427" y="537.722" width="62.2623" height="14.4001" class="st5"/>
			<text x="25.24" y="548.52" class="st3" v:langID="1044"><v:paragraph v:horizAlign="1"/><v:tabList/>Appresource</text>		</g>
	</g>
</svg>
