<?xml version="1.0" encoding="UTF-8" standalone="no"?>
<svg version="1.1" x="0px" y="0px" viewBox="0 0 1008 464" xml:space="preserve"
   xmlns:xlink="http://www.w3.org/1999/xlink"
   xmlns="http://www.w3.org/2000/svg"
   xmlns:svg="http://www.w3.org/2000/svg">

   <style type="text/css">
	.r{fill:#0062BA;}
	.l{fill:#1EAEF7;}
	.text{fill:#FFFFFF;}
	a:hover path, a:hover rect{filter:brightness(120%);}
   </style>

   <a xlink:title="Deploy" target="_parent" xlink:href="/community/contributing/handbook/securecoding/#deploy-phase">
      <path class="r" d="M672.9,73.1l-0.3,7.3l-2.2,52.2c3.7-2.8,7.4-5.5,11.2-8.2c33.2-25.4,74.2-38.3,116-36.7   c24.5,3.3,47.6,13,67.2,28l61.8,0.4l0.4-62.2c-34.3-29.4-76.5-48-121.4-53.4c-61.6-3.6-122.5,14.4-172.2,51   c-8.7,6.1-17.2,12.4-25.5,18.9l57.7,2.5L672.9,73.1z" />
      <path class="text" d="M737.3,38.1l7.2-1.4c1.4-0.3,2.8-0.3,4.1-0.1c1.3,0.2,2.5,0.7,3.5,1.3c1,0.7,1.9,1.5,2.6,2.5   c0.7,1,1.2,2.2,1.4,3.5l0,0.1c0.3,1.3,0.3,2.6,0,3.8c-0.3,1.2-0.7,2.3-1.4,3.3c-0.7,1-1.6,1.9-2.7,2.6c-1.1,0.7-2.4,1.2-3.8,1.5   l-7.2,1.4L737.3,38.1z M747.4,51.5c0.8-0.2,1.6-0.4,2.2-0.8c0.6-0.4,1.1-0.9,1.5-1.5c0.4-0.6,0.6-1.2,0.8-2c0.1-0.7,0.1-1.5,0-2.3   l0-0.1c-0.2-0.8-0.4-1.5-0.9-2.2c-0.4-0.6-0.9-1.1-1.5-1.5c-0.6-0.4-1.2-0.7-2-0.8s-1.5-0.1-2.4,0l-3.1,0.6l2.2,11.1L747.4,51.5z"  />
      <path class="text" d="M759.8,34.2l14.1-1l0.3,3.7l-10.1,0.7l0.3,3.8l8.9-0.6l0.3,3.7l-8.9,0.6l0.3,3.9l10.2-0.7l0.3,3.7l-14.3,1   L759.8,34.2z"  />
      <path class="text" d="M779.6,33.2l7.7,0.4c1.1,0.1,2.1,0.3,3,0.6c0.9,0.4,1.6,0.8,2.2,1.5c0.6,0.6,1,1.3,1.3,2.1   c0.3,0.8,0.4,1.7,0.4,2.7l0,0.1c-0.1,1.1-0.3,2-0.7,2.8c-0.4,0.8-1,1.5-1.7,2c-0.7,0.5-1.5,0.9-2.5,1.1c-0.9,0.2-1.9,0.3-3,0.3   l-3.1-0.2l-0.3,5.6l-4.1-0.2L779.6,33.2z M786.5,43.1c1,0.1,1.9-0.2,2.5-0.7s0.9-1.2,1-2l0-0.1c0-0.9-0.2-1.7-0.8-2.2   s-1.4-0.8-2.4-0.9l-3.2-0.2l-0.3,5.7L786.5,43.1z"  />
      <path class="text" d="M799.1,34.5l4.1,0.7l-2.6,14.9l9.3,1.6l-0.6,3.7l-13.4-2.3L799.1,34.5z"  />
      <path class="text" d="M820.4,58.9c-1.4-0.4-2.6-1.1-3.6-1.9c-1-0.8-1.8-1.8-2.4-2.9c-0.6-1.1-1-2.3-1.1-3.5c-0.1-1.3,0-2.6,0.4-3.8   l0-0.1c0.4-1.3,1-2.4,1.8-3.4c0.8-1,1.8-1.8,2.9-2.4s2.3-1,3.7-1.1c1.3-0.1,2.7,0,4.1,0.4c1.4,0.4,2.6,1.1,3.6,1.9   c1,0.8,1.8,1.8,2.4,2.9c0.6,1.1,1,2.3,1.1,3.5c0.1,1.3,0,2.6-0.4,3.8l0,0.1c-0.4,1.3-1,2.4-1.8,3.4c-0.8,1-1.8,1.8-2.9,2.4   c-1.1,0.6-2.3,1-3.7,1.1C823.2,59.5,821.8,59.3,820.4,58.9z M821.6,55.3c0.8,0.2,1.6,0.3,2.3,0.2c0.8-0.1,1.5-0.3,2.1-0.7   s1.2-0.9,1.7-1.5s0.8-1.3,1.1-2.1l0-0.1c0.2-0.8,0.3-1.5,0.3-2.3c-0.1-0.8-0.3-1.5-0.6-2.2c-0.3-0.7-0.8-1.2-1.4-1.8   c-0.6-0.5-1.3-0.9-2.1-1.1c-0.8-0.2-1.6-0.3-2.3-0.2c-0.8,0.1-1.4,0.3-2.1,0.7c-0.6,0.4-1.2,0.9-1.7,1.5c-0.5,0.6-0.8,1.3-1.1,2.1   l0,0.1c-0.2,0.8-0.3,1.5-0.3,2.3c0.1,0.8,0.3,1.5,0.6,2.2c0.3,0.7,0.8,1.2,1.4,1.7C820.1,54.7,820.8,55,821.6,55.3z"  />
      <path class="text" d="M840.8,58.3L839,45l4.4,2l1,8.7l7.3-5l4.3,1.9L844.6,60l-3.1,6.8l-3.8-1.7L840.8,58.3z"  />
   </a>
   <a xlink:title="Operate" target="_parent" xlink:href="/community/contributing/handbook/securecoding/#operate-phase">
      <path class="r" d="M936.3,401.4c46.8-43.1,72-102,70.8-170c1-61.2-22.6-120.3-65.5-163.9l-0.4,56l-0.1,7.3h-7.3l-52.7-0.4   c26.1,27.4,40.2,64,39.1,101.8c1.5,46.8-20.3,91.4-58.3,118.9l0.9,51.4"  />
      <path class="text" d="M948.5,194.9c-0.4-1.4-0.5-2.8-0.3-4.1c0.2-1.3,0.6-2.5,1.2-3.6s1.4-2,2.4-2.8c1-0.8,2.2-1.4,3.5-1.7l0.1,0   c1.3-0.4,2.6-0.4,3.8-0.3c1.3,0.2,2.4,0.6,3.5,1.2c1.1,0.6,2,1.5,2.9,2.5c0.8,1,1.4,2.3,1.8,3.7c0.4,1.4,0.5,2.8,0.3,4.1   c-0.2,1.3-0.6,2.5-1.2,3.6c-0.6,1.1-1.4,2-2.4,2.8c-1,0.8-2.2,1.4-3.5,1.7l-0.1,0c-1.3,0.4-2.6,0.4-3.8,0.3   c-1.3-0.2-2.4-0.6-3.5-1.2c-1.1-0.6-2-1.5-2.9-2.5C949.5,197.5,948.9,196.3,948.5,194.9z M952.2,193.9c0.2,0.8,0.6,1.5,1,2.1   c0.5,0.6,1,1.1,1.7,1.4c0.6,0.3,1.4,0.5,2.1,0.6c0.8,0.1,1.5,0,2.3-0.2l0.1,0c0.8-0.2,1.5-0.5,2.1-1c0.6-0.5,1.1-1,1.5-1.6   c0.4-0.6,0.6-1.3,0.8-2.1c0.1-0.8,0.1-1.5-0.1-2.3c-0.2-0.8-0.6-1.5-1-2.1c-0.5-0.6-1-1-1.7-1.4c-0.6-0.3-1.4-0.5-2.1-0.6   c-0.8-0.1-1.5,0-2.3,0.2l-0.1,0c-0.8,0.2-1.5,0.5-2.1,1s-1.1,1-1.5,1.6s-0.6,1.3-0.8,2.1C951.9,192.4,952,193.1,952.2,193.9z"  />
      <path class="text" d="M970.5,205.1l1,7.6c0.1,1.1,0.1,2.1-0.1,3.1c-0.2,0.9-0.5,1.7-1,2.4c-0.5,0.7-1.1,1.2-1.9,1.7   s-1.6,0.7-2.6,0.8l-0.1,0c-1.1,0.1-2.1,0.1-2.9-0.2c-0.9-0.3-1.6-0.7-2.3-1.3c-0.6-0.6-1.2-1.4-1.6-2.2c-0.4-0.9-0.7-1.8-0.8-2.9   l-0.4-3.1l-5.6,0.7l-0.5-4.1L970.5,205.1z M962.1,213.7c0.1,1,0.5,1.8,1.1,2.3c0.6,0.5,1.3,0.7,2.1,0.6l0.1,0   c0.9-0.1,1.6-0.5,2-1.2c0.4-0.7,0.5-1.5,0.4-2.5l-0.4-3.2l-5.7,0.7L962.1,213.7z"  />
      <path class="text" d="M972.8,224.6l0.2,14.2l-3.7,0l-0.1-10.1l-3.8,0l0.1,8.9l-3.7,0l-0.1-8.9l-4,0l0.1,10.2l-3.7,0l-0.2-14.3   L972.8,224.6z"  />
      <path class="text" d="M972.7,244.5l-1,8.6c-0.3,2.4-1.1,4.1-2.5,5.2c-1.2,0.9-2.7,1.3-4.5,1.1l-0.1,0c-1.5-0.2-2.7-0.7-3.6-1.5   c-0.9-0.8-1.5-1.9-1.8-3.1l-7.2,3.8l0.6-4.8l6.4-3.3l0-0.1l0.4-3.2l-6-0.7l0.5-4.1L972.7,244.5z M962.7,251.7c-0.1,1,0,1.8,0.5,2.4   c0.4,0.6,1,0.9,1.8,1l0.1,0c0.9,0.1,1.6-0.1,2.1-0.6c0.5-0.5,0.8-1.3,0.9-2.3l0.5-4.1l-5.4-0.6L962.7,251.7z"  />
      <path class="text" d="M968.5,271.9l-0.9,3.7l-20.4,3.2l1.1-4.2l4.5-0.6l1.9-7.7l-3.7-2.7l1-4.1L968.5,271.9z M956.7,273.4l6.5-0.9   l-5.3-3.9L956.7,273.4z"  />
      <path class="text" d="M958.8,290.4l2-5.4l3.6,1.3l-5.5,14.7l-3.6-1.3l2-5.4l-14.1-5.3l1.5-3.9L958.8,290.4z"  />
      <path class="text" d="M957,305.2l-6.2,12.8l-3.3-1.6l4.4-9.1l-3.4-1.7l-3.9,8l-3.3-1.6l3.9-8l-3.6-1.7l-4.5,9.2l-3.3-1.6l6.3-12.9   L957,305.2z"  />
   </a>
   <a xlink:title="Monitor" target="_parent" xlink:href="/community/contributing/handbook/securecoding/#monitor-phase" >
      <path class="r" d="M855.9,417.2l-7.3,0.1l-0.2-7.3l-0.9-49.7c-15.5,8.5-32.4,14.1-49.9,16.4c-41.8,1.7-82.8-11.3-116-36.7   c-13.3-9.5-26.2-19.5-38.8-29.9l-59.9,3.4l3.5,62.6c15.1,12.6,30.7,24.6,46.8,36c44.5,31.8,97.6,49.7,152.3,51.2h20.1   c41.5-5,80.9-21.4,113.8-47.2L855.9,417.2z"  />
      <path class="text" d="M661.2,367.9l3.7,2.5l-0.4,9.4l8.6-3.8l3.7,2.5l-10.5,15.6l-3.4-2.3l6.9-10.2l-8.9,3.7l-0.1-0.1l0.1-9.5   l-6.8,10.1l-3.4-2.3L661.2,367.9z"  />
      <path class="text" d="M679.4,401.5c-1.3-0.7-2.4-1.5-3.2-2.5c-0.9-1-1.5-2.1-1.9-3.3c-0.4-1.2-0.5-2.4-0.4-3.7   c0.1-1.3,0.5-2.5,1.1-3.7l0,0c0.6-1.2,1.4-2.2,2.4-3c1-0.8,2.1-1.4,3.3-1.8c1.2-0.4,2.5-0.5,3.8-0.4c1.3,0.1,2.6,0.5,3.9,1.2   s2.4,1.5,3.2,2.5c0.9,1,1.5,2.1,1.9,3.3s0.5,2.4,0.4,3.7c-0.1,1.3-0.5,2.5-1.1,3.7l0,0c-0.6,1.2-1.4,2.2-2.4,3s-2.1,1.4-3.3,1.8   c-1.2,0.4-2.5,0.5-3.8,0.4C682,402.6,680.6,402.2,679.4,401.5z M681.2,398.1c0.7,0.4,1.5,0.6,2.2,0.6c0.8,0,1.5-0.1,2.2-0.3   s1.3-0.6,1.9-1.1c0.6-0.5,1-1.1,1.4-1.8l0,0c0.4-0.7,0.6-1.5,0.7-2.2c0.1-0.8,0-1.5-0.2-2.2c-0.2-0.7-0.6-1.4-1-2s-1.1-1.1-1.8-1.5   c-0.8-0.4-1.5-0.6-2.3-0.6c-0.8,0-1.5,0.1-2.2,0.3s-1.3,0.6-1.9,1.1c-0.6,0.5-1,1.1-1.4,1.8l0,0c-0.4,0.7-0.6,1.5-0.7,2.2   c-0.1,0.8,0,1.5,0.2,2.2c0.2,0.7,0.5,1.4,1,2C679.8,397.3,680.4,397.8,681.2,398.1z"  />
      <path class="text" d="M699.8,390.2l3.6,1.4l3.9,14l4.3-10.8l3.8,1.5l-6.9,17.5l-3.3-1.3l-4.1-14.5l-4.4,11.1l-3.8-1.5L699.8,390.2z"  />
      <path class="text" d="M719.4,397.6l3.9,1.3l-5.8,17.9l-3.9-1.3L719.4,397.6z"  />
      <path class="text" d="M730.7,405.1l-5.5-1.5l1-3.7l15,4.1l-1,3.7l-5.5-1.5l-4,14.5l-4-1.1L730.7,405.1z"  />
      <path class="text" d="M749,425.3c-1.4-0.3-2.7-0.8-3.8-1.6c-1.1-0.7-2-1.6-2.7-2.7s-1.2-2.2-1.4-3.4c-0.2-1.2-0.2-2.5,0-3.9l0-0.1   c0.3-1.3,0.8-2.5,1.5-3.6s1.6-1.9,2.7-2.6s2.2-1.2,3.5-1.4c1.3-0.3,2.7-0.2,4.1,0.1c1.4,0.3,2.7,0.8,3.8,1.6c1.1,0.7,2,1.6,2.7,2.7   s1.2,2.2,1.4,3.4c0.2,1.2,0.2,2.5,0,3.9l0,0.1c-0.3,1.3-0.8,2.5-1.5,3.6s-1.6,1.9-2.7,2.6c-1,0.7-2.2,1.2-3.5,1.4   C751.8,425.6,750.4,425.6,749,425.3z M749.8,421.6c0.8,0.2,1.6,0.2,2.3,0c0.7-0.2,1.4-0.5,2-0.9c0.6-0.4,1.1-1,1.5-1.6   c0.4-0.6,0.7-1.4,0.9-2.1l0-0.1c0.2-0.8,0.2-1.6,0-2.3c-0.1-0.8-0.4-1.5-0.8-2.1s-0.9-1.2-1.5-1.6c-0.6-0.4-1.3-0.8-2.1-0.9   c-0.8-0.2-1.6-0.2-2.3,0c-0.7,0.2-1.4,0.5-2,0.9c-0.6,0.4-1.1,1-1.5,1.6c-0.4,0.6-0.7,1.4-0.9,2.1l0,0.1c-0.2,0.8-0.2,1.6,0,2.3   c0.1,0.8,0.4,1.5,0.8,2.1s0.9,1.2,1.5,1.6C748.3,421.1,749,421.4,749.8,421.6z"  />
      <path class="text" d="M765.9,409l8.5,1.2c2.4,0.3,4.1,1.2,5.2,2.6c0.9,1.2,1.3,2.7,1,4.5l0,0.1c-0.2,1.5-0.7,2.7-1.6,3.5   c-0.9,0.9-1.9,1.4-3.2,1.7l3.7,7.3l-4.8-0.6l-3.2-6.5l-0.1,0l-3.2-0.4l-0.8,6l-4.1-0.6L765.9,409z M772.9,419.2   c1,0.1,1.8,0,2.4-0.4c0.6-0.4,1-1,1.1-1.8l0-0.1c0.1-0.9-0.1-1.6-0.6-2.1s-1.3-0.8-2.3-1l-4.1-0.5l-0.7,5.4L772.9,419.2z"  />
   </a>
   <a xlink:title="Plan" target="_parent" xlink:href="/community/contributing/handbook/securecoding/#planning-phase" >
      <path class="l" d="M563.2,232.8l-58.7,64.5c20.8,23.3,43,45.2,66.5,65.8l-3.2-56l-0.4-7.3l7.3-0.5l52-3   C604.2,276.5,583,255.3,563.2,232.8z"  />
      <path class="l" d="M444,232.3l59.2-65.1c-27.8-31.3-58.1-60.2-90.7-86.5l0.1,2.7l-69.9,4l3,52.5   C381.4,167.4,414.3,198.4,444,232.3z"  />
      <path class="text" d="M401.2,121.1l6.2,4.6c0.9,0.7,1.6,1.4,2.1,2.2c0.5,0.8,0.9,1.6,1,2.4c0.2,0.8,0.1,1.7-0.1,2.5   c-0.2,0.8-0.6,1.6-1.2,2.4l0,0c-0.7,0.9-1.4,1.5-2.2,1.9c-0.8,0.4-1.7,0.7-2.5,0.7c-0.9,0-1.8-0.1-2.7-0.5   c-0.9-0.3-1.8-0.8-2.6-1.5l-2.5-1.9l-3.4,4.5l-3.3-2.5L401.2,121.1z M401.5,133.2c0.8,0.6,1.6,0.9,2.4,0.8c0.8-0.1,1.4-0.5,1.9-1.1   l0,0c0.6-0.7,0.7-1.5,0.6-2.2c-0.2-0.7-0.7-1.4-1.5-2.1l-2.6-1.9l-3.5,4.6L401.5,133.2z"  />
      <path class="text" d="M416.1,132.6l3.2,2.7l-9.7,11.6l7.2,6l-2.4,2.9L404,147L416.1,132.6z"  />
      <path class="text" d="M434.1,148.1l2.8,2.6l-6.9,19.4l-3.2-2.9l1.6-4.3l-5.8-5.4l-4.1,1.9l-3.1-2.9L434.1,148.1z M429.8,159.2   l2.3-6.2l-6,2.8L429.8,159.2z"  />
      <path class="text" d="M445.3,158.8l2.7,2.7l-2.1,14.4l8.2-8.1l2.9,2.9l-13.4,13.2l-2.5-2.5l2.1-14.9l-8.5,8.4l-2.9-2.9L445.3,158.8z"  />
   </a>
   <a xlink:title="Code" target="_parent" xlink:href="/community/contributing/handbook/securecoding/#code-phase" >
      <path class="l" d="m 81.3,115.8 59.5,1.1 c 19.9,-15.7 43.6,-25.8 68.7,-29.2 h 11.9 c 37.6,1.7 73.9,14.6 104.1,37.1 1.7,1.2 3.3,2.4 5,3.6 l -2.7,-47.4 -0.4,-7.3 7.3,-0.4 63.7,-3.7 C 390.3,63.4 382.2,57.4 373.9,51.5 324.1,14.9 263.1,-3.1 201.5,0.5 157.7,5.8 116.4,23.6 82.6,51.9 Z"  />
      <path class="text" d="m 229.90184,29.568294 7.31426,0.88985 c 1.47983,0.141754 2.78982,0.645662 3.9668,1.197646 1.13454,0.642522 2.09361,1.423659 2.87723,2.343413 0.78361,0.919753 1.3493,2.06866 1.69147,3.223184 0.34216,1.154524 0.41832,2.405204 0.22849,3.752039 l -0.0425,0.09053 c -0.18988,1.346829 -0.51829,2.51821 -1.25135,3.610282 -0.60005,1.043997 -1.47174,1.96061 -2.39149,2.744226 -1.01029,0.741156 -2.11674,1.216314 -3.40426,1.606553 -1.24506,0.2997 -2.62874,0.423942 -4.06611,0.191649 l -7.31425,-0.88985 z m 5.36471,15.880491 c 0.85168,0.06807 1.61282,0.09368 2.36836,-0.104252 0.75553,-0.197927 1.32998,-0.480776 1.85636,-0.896621 0.52637,-0.415848 1.00467,-0.964694 1.39244,-1.555999 0.38776,-0.591305 0.6369,-1.358068 0.70497,-2.209752 l 0.0425,-0.09053 c 0.0681,-0.851682 0.0937,-1.612831 -0.14671,-2.277823 -0.19793,-0.755528 -0.48077,-1.329983 -0.9447,-1.989356 -0.41585,-0.526376 -0.96469,-1.004675 -1.64654,-1.434896 -0.68183,-0.430219 -1.40053,-0.546367 -2.20975,-0.704973 l -3.14075,-0.368427 -1.41688,11.264211 z" />
      <path class="text" d="m 522.13607,77.136068 c -1.4,-0.4 -2.6,-1.1 -3.6,-1.9 -1,-0.8 -1.8,-1.8 -2.4,-2.9 -0.6,-1.1 -1,-2.3 -1.1,-3.5 -0.1,-1.3 0,-2.6 0.4,-3.8 v -0.1 c 0.4,-1.3 1,-2.4 1.8,-3.4 0.8,-1 1.8,-1.8 2.9,-2.4 1.1,-0.6 2.3,-1 3.7,-1.1 1.3,-0.1 2.7,0 4.1,0.4 1.4,0.4 2.6,1.1 3.6,1.9 1,0.8 1.8,1.8 2.4,2.9 0.6,1.1 1,2.3 1.1,3.5 0.1,1.3 0,2.6 -0.4,3.8 v 0.1 c -0.4,1.3 -1,2.4 -1.8,3.4 -0.8,1 -1.8,1.8 -2.9,2.4 -1.1,0.6 -2.3,1 -3.7,1.1 -1.3,0.2 -2.7,0 -4.1,-0.4 z m 1.2,-3.6 c 0.8,0.2 1.6,0.3 2.3,0.2 0.8,-0.1 1.5,-0.3 2.1,-0.7 0.6,-0.4 1.2,-0.9 1.7,-1.5 0.5,-0.6 0.8,-1.3 1.1,-2.1 v -0.1 c 0.2,-0.8 0.3,-1.5 0.3,-2.3 -0.1,-0.8 -0.3,-1.5 -0.6,-2.2 -0.3,-0.7 -0.8,-1.2 -1.4,-1.8 -0.6,-0.5 -1.3,-0.9 -2.1,-1.1 -0.8,-0.2 -1.6,-0.3 -2.3,-0.2 -0.8,0.1 -1.4,0.3 -2.1,0.7 -0.6,0.4 -1.2,0.9 -1.7,1.5 -0.5,0.6 -0.8,1.3 -1.1,2.1 v 0.1 c -0.2,0.8 -0.3,1.5 -0.3,2.3 0.1,0.8 0.3,1.5 0.6,2.2 0.3,0.7 0.8,1.2 1.4,1.7 0.6,0.6 1.3,0.9 2.1,1.2 z"  />
      <path class="text" d="m 209.02816,48.488585 c -1.4,-0.4 -2.6,-1.1 -3.6,-1.9 -1,-0.8 -1.8,-1.8 -2.4,-2.9 -0.6,-1.1 -1,-2.3 -1.1,-3.5 -0.1,-1.3 0,-2.6 0.4,-3.8 v -0.1 c 0.4,-1.3 1,-2.4 1.8,-3.4 0.8,-1 1.8,-1.8 2.9,-2.4 1.1,-0.6 2.3,-1 3.7,-1.1 1.3,-0.1 2.7,0 4.1,0.4 1.4,0.4 2.6,1.1 3.6,1.9 1,0.8 1.8,1.8 2.4,2.9 0.6,1.1 1,2.3 1.1,3.5 0.1,1.3 0,2.6 -0.4,3.8 v 0.1 c -0.4,1.3 -1,2.4 -1.8,3.4 -0.8,1 -1.8,1.8 -2.9,2.4 -1.1,0.6 -2.3,1 -3.7,1.1 -1.3,0.2 -2.7,0 -4.1,-0.4 z m 1.2,-3.6 c 0.8,0.2 1.6,0.3 2.3,0.2 0.8,-0.1 1.5,-0.3 2.1,-0.7 0.6,-0.4 1.2,-0.9 1.7,-1.5 0.5,-0.6 0.8,-1.3 1.1,-2.1 v -0.1 c 0.2,-0.8 0.3,-1.5 0.3,-2.3 -0.1,-0.8 -0.3,-1.5 -0.6,-2.2 -0.3,-0.7 -0.8,-1.2 -1.4,-1.8 -0.6,-0.5 -1.3,-0.9 -2.1,-1.1 -0.8,-0.2 -1.6,-0.3 -2.3,-0.2 -0.8,0.1 -1.4,0.3 -2.1,0.7 -0.6,0.4 -1.2,0.9 -1.7,1.5 -0.5,0.6 -0.8,1.3 -1.1,2.1 v 0.1 c -0.2,0.8 -0.3,1.5 -0.3,2.3 0.1,0.8 0.3,1.5 0.6,2.2 0.3,0.7 0.8,1.2 1.4,1.7 0.6,0.6 1.3,0.9 2.1,1.2 z"  />
      <path class="text" d="m 254.32588,32.724676 13.66615,3.611919 -0.91223,3.598308 -9.78397,-2.602699 -0.94456,3.692939 8.61607,2.309395 -0.91225,3.598307 -8.61607,-2.309394 -0.97688,3.78757 9.87859,2.635024 -0.91224,3.59831 -13.85541,-3.676575 z"  />
      <path class="text" d="m 186.17549,50.444208 c -1.4,-0.4 -2.6,-1.1 -3.6,-1.9 -1,-0.79999 -1.8,-1.79999 -2.4,-2.89999 -0.6,-1.10001 -1,-2.30001 -1.1,-3.5 -0.1,-1.30001 0,-2.60001 0.4,-3.80001 v -0.1 c 0.4,-1.30001 1,-2.40001 1.8,-3.40001 0.8,-1 1.8,-1.8 2.9,-2.4 1.1,-0.6 2.3,-1 3.7,-1.1 1.3,-0.1 2.7,0 4.1,0.40001 1.4,0.4 2.58672,1.076333 3.6,1.9 1.01328,0.823667 1.8,1.79999 2.4,2.89999 0.6,1.10001 1,2.3 1.1,3.5 0.1,1.3 0,2.60001 -0.4,3.8 v 0.1 c -0.4,1.3 -1,2.4 -1.8,3.4 -0.8,1 -1.8,1.8 -2.9,2.4 -1.1,0.6 -2.3,1 -3.7,1.1 -1.3,0.2 -2.7,0 -4.1,-0.4 z m 1.2,-3.6 c 0.8,0.2 1.6,0.3 2.3,0.2 0.8,-0.1 1.5,-0.29999 2.1,-0.7 0.6,-0.4 1.2,-0.9 1.7,-1.5 0.5,-0.6 0.8,-1.3 1.1,-2.1 v -0.1 c 0.2,-0.8 0.3,-1.5 0.3,-2.3 -0.1,-0.8 -0.3,-1.5 -0.6,-2.2 -0.3,-0.7 -0.80519,-1.30292 -1.4,-1.8 -0.59481,-0.49708 -1.3,-0.9 -2.1,-1.1 -0.8,-0.2 -1.6,-0.3 -2.3,-0.2 -0.8,0.1 -1.4,0.3 -2.1,0.7 -0.6,0.4 -1.2,0.9 -1.7,1.5 -0.5,0.6 -0.8,1.3 -1.1,2.1 v 0.1 c -0.2,0.8 -0.3,1.5 -0.3,2.3 0.1,0.8 0.3,1.5 0.6,2.2 0.3,0.70001 0.8,1.20001 1.4,1.70001 0.6,0.6 1.3,0.89999 2.1,1.19999 z" />
      <rect class="l" width="0.6867584" height="0.36627114" x="217.19879" y="64.372154" />
      <rect class="l" width="6.6503763" height="6.698844" x="153.79713" y="-115.98228" transform="matrix(0.70491071,0.70929605,-0.76164246,0.6479975,0,0)" />
      <rect class="l" width="6.0772223" height="5.9432244" x="183.08556" y="-66.456535" transform="matrix(0.86357356,0.50422287,-0.57488965,0.81823095,0,0)" />
   </a>
   <a xlink:title="Build" target="_parent" xlink:href="/community/contributing/handbook/securecoding/#build-phase" >
      <path class="l" d="M137.9,401.8l1.4-55.1c-34.5-27.8-53.9-70.1-52.5-114.4c-1.1-37.4,12.7-73.8,38.4-101.1l-51.4-0.9l-7.3-0.2   l0.1-7.3l1.1-57.4C23.4,109.3-1,169.2,0,231.5C-1,295,24.5,356.1,70.4,400.1L137.9,401.8z"  />
      <path class="text" d="M47.4,297.4l-2.7-8.3c-0.7-2.1-0.7-3.8,0-5.2c0.5-1.1,1.4-1.8,2.6-2.2l0.1,0c0.5-0.2,1-0.3,1.4-0.3   c0.4,0,0.8,0.1,1.2,0.2c0.4,0.1,0.7,0.3,1.1,0.5c0.3,0.2,0.6,0.4,0.9,0.7c0.1-1.2,0.3-2.2,0.8-3c0.5-0.8,1.3-1.4,2.5-1.8l0.1,0   c0.8-0.3,1.6-0.3,2.3-0.2c0.7,0.1,1.4,0.4,2,0.8c0.6,0.5,1.1,1.1,1.6,1.8c0.5,0.8,0.9,1.6,1.2,2.6l2.8,8.5L47.4,297.4z M52.1,287.6   c-0.3-0.9-0.7-1.5-1.1-1.9c-0.5-0.4-1-0.5-1.7-0.3l-0.1,0c-0.6,0.2-1,0.6-1.1,1.1c-0.2,0.5-0.1,1.2,0.2,2.1l1.3,3.9l3.8-1.2   L52.1,287.6z M59,284.2c-0.3-0.9-0.7-1.5-1.1-1.9c-0.5-0.4-1-0.5-1.7-0.3l-0.1,0c-0.6,0.2-1,0.6-1.2,1.2c-0.2,0.6-0.1,1.4,0.2,2.4   l1.5,4.5l3.9-1.3L59,284.2z"  />
      <path class="text" d="M58.3,265.8c0.5,2.5,0.2,4.6-0.9,6.3c-1.1,1.7-3,2.8-5.7,3.3l-10.6,2l-0.8-4.1l10.5-2c1.5-0.3,2.6-0.9,3.2-1.7   c0.6-0.9,0.8-1.9,0.6-3.2c-0.2-1.3-0.8-2.2-1.7-2.7c-0.9-0.6-2.1-0.7-3.5-0.4l-10.6,2l-0.8-4.1l10.4-2c1.4-0.3,2.7-0.3,3.8-0.1   c1.1,0.2,2.1,0.6,2.9,1.1c0.8,0.6,1.5,1.3,2.1,2.3C57.7,263.5,58.1,264.6,58.3,265.8z"  />
      <path class="text" d="M37.5,255.5l-0.4-4.1l18.8-1.7l0.4,4.1L37.5,255.5z"  />
      <path class="text" d="M36.6,245.4l0-4.1l15.1-0.1l0-9.4l3.7,0l0.1,13.5L36.6,245.4z"  />
      <path class="text" d="M36.9,227l0.9-7.3c0.2-1.5,0.6-2.8,1.2-3.9c0.6-1.2,1.4-2.1,2.3-2.9c0.9-0.8,2-1.3,3.2-1.7   c1.2-0.3,2.4-0.4,3.7-0.3l0.1,0c1.3,0.2,2.5,0.5,3.6,1.2c1.1,0.6,2,1.4,2.7,2.4c0.7,1,1.3,2.1,1.6,3.4c0.3,1.3,0.4,2.6,0.2,4.1   l-0.9,7.3L36.9,227z M52.7,221.6c0.1-0.8,0.1-1.6-0.1-2.3c-0.2-0.7-0.5-1.4-0.9-1.9c-0.4-0.5-1-1-1.6-1.4s-1.4-0.6-2.2-0.7l-0.1,0   c-0.8-0.1-1.6-0.1-2.3,0.1c-0.7,0.2-1.4,0.5-1.9,0.9c-0.6,0.4-1,1-1.4,1.6s-0.6,1.4-0.7,2.2l-0.4,3.2l11.2,1.4L52.7,221.6z"  />
   </a>
   <a xlink:title="Test" target="_parent" xlink:href="/community/contributing/handbook/securecoding/#test-phase" >
      <path class="l" d="M424,312.5l-59.4-3c-12.7,10.4-25.7,20.3-39,29.8c-33.1,25.7-74.1,38.9-116,37.5c-19.8-2.6-38.8-9.3-55.8-19.8   l-1.4,52.6l-0.2,7.3l-7.3-0.1l-57-1.5c32.8,25.8,72.1,42.1,113.6,47.1h20.1c54.9-1.7,108.1-19.8,152.7-52c16-11.2,31.5-23,46.5-35.3   L424,312.5z"  />
      <path class="text" d="M271.2,404.9l-5.4,1.8l-1.2-3.6l14.8-4.8l1.2,3.6l-5.4,1.8l4.7,14.3l-3.9,1.3L271.2,404.9z"  />
      <path class="text" d="M282.1,397.3l13.2-5.1l1.3,3.4l-9.4,3.6l1.4,3.6l8.3-3.2l1.3,3.4l-8.3,3.2l1.4,3.7l9.5-3.7l1.3,3.4l-13.4,5.1   L282.1,397.3z"  />
      <path class="text" d="M312.5,405.5c-1.3,0.6-2.7,0.9-4.2,1.1c-1.5,0.1-2.9-0.1-4.4-0.5l1-3.7c1.1,0.3,2.1,0.4,3.1,0.4   c1,0,2-0.2,3-0.7c0.8-0.4,1.3-0.8,1.6-1.2c0.3-0.5,0.3-1,0.1-1.5l0,0c-0.1-0.2-0.3-0.4-0.4-0.6c-0.2-0.1-0.4-0.2-0.8-0.3   c-0.3,0-0.8-0.1-1.3,0c-0.5,0-1.2,0.1-2,0.3c-1,0.2-1.9,0.3-2.7,0.3c-0.8,0.1-1.6,0-2.2-0.2c-0.7-0.2-1.3-0.5-1.8-0.9   c-0.5-0.5-1-1.1-1.4-2l0,0c-0.4-0.8-0.5-1.6-0.5-2.3c0-0.8,0.2-1.5,0.5-2.2c0.3-0.7,0.8-1.3,1.4-1.9c0.6-0.6,1.4-1.1,2.3-1.5   c1.3-0.6,2.5-0.9,3.7-1c1.2-0.1,2.4,0,3.6,0.3l-0.7,3.7c-1-0.2-1.9-0.3-2.8-0.2c-0.9,0-1.7,0.2-2.4,0.5c-0.7,0.3-1.2,0.7-1.5,1.2   c-0.2,0.5-0.3,0.9-0.1,1.3l0,0c0.1,0.3,0.3,0.5,0.5,0.7c0.2,0.2,0.5,0.3,0.8,0.3c0.4,0,0.8,0,1.4,0c0.6-0.1,1.2-0.2,2.1-0.3   c1-0.2,1.9-0.2,2.7-0.3c0.8,0,1.5,0.1,2.2,0.3c0.6,0.2,1.2,0.5,1.7,0.9s0.9,1,1.2,1.8l0,0.1c0.4,0.8,0.6,1.7,0.6,2.5   c0,0.8-0.2,1.6-0.5,2.2c-0.4,0.7-0.9,1.3-1.5,1.9C314.2,404.6,313.4,405.1,312.5,405.5z"  />
      <path class="text" d="M319.5,385.2l-5.1,2.6l-1.7-3.4l13.9-7.1l1.7,3.4l-5.1,2.6l6.8,13.4l-3.7,1.9L319.5,385.2z"  />
   </a>
   <a xlink:title="Release" target="_parent" xlink:href="/community/contributing/handbook/securecoding/#release-phase" >
      <path class="r" d="M590.4,84.2c-30.1,24.7-58.4,51.6-84.4,80.7l0.4,0.3L444.7,233l-0.4-0.3c-19.8,22.3-41,43.3-63.5,62.9l51.1,2.6   l7.3,0.4l-0.3,7.3l-2.9,56.2c23.8-20.6,46.4-42.6,67.5-66l0.3,0.4l59-64.9l0.2,0.2c28-32,58.8-61.3,92.1-87.7l2.5-57.1L590.4,84.2z"  />
      <path class="text" d="M468.7,252.9l6-6.2c1.7-1.7,3.4-2.6,5.2-2.6c1.5,0,2.9,0.6,4.2,1.9l0,0c1.1,1.1,1.7,2.2,1.9,3.4s0,2.4-0.5,3.6   l8.1,1.4l-3.4,3.5l-7.2-1.3l0,0l-2.2,2.3l4.3,4.2l-2.9,3L468.7,252.9z M481.2,253.3c0.7-0.7,1.1-1.5,1.1-2.2c0-0.7-0.2-1.4-0.8-1.9   l0,0c-0.6-0.6-1.3-0.9-2.1-0.8s-1.4,0.5-2.2,1.3l-2.9,3l3.9,3.8L481.2,253.3z"  />
      <path class="text" d="M482.4,238.9l9.9-10.2l2.7,2.6l-7.1,7.3l2.8,2.7l6.2-6.4l2.7,2.6l-6.2,6.4l2.8,2.8l7.2-7.4l2.7,2.6l-10,10.3   L482.4,238.9z"  />
      <path class="text" d="M495,226l2.9-3l10.9,10.6l6.6-6.8l2.7,2.6l-9.5,9.7L495,226z"  />
      <path class="text" d="M506.6,214l9.9-10.2l2.7,2.6l-7.1,7.3l2.8,2.7l6.2-6.4l2.7,2.6l-6.2,6.4l2.8,2.8l7.2-7.4l2.7,2.6l-10,10.3   L506.6,214z"  />
      <path class="text" d="M523.7,196.3l2.7-2.8l19.3,7.5l-3,3.1l-4.2-1.7l-5.6,5.7l1.8,4.2l-3,3L523.7,196.3z M534.7,200.9l-6.1-2.5   l2.6,6.1L534.7,200.9z"  />
      <path class="text" d="M552.6,194.2c-1,1-2.2,1.9-3.5,2.5s-2.7,1-4.3,1.1l-0.4-3.8c1.1-0.1,2.1-0.4,3.1-0.7s1.8-0.9,2.5-1.7   c0.6-0.6,1-1.2,1.1-1.8c0.1-0.6,0-1-0.4-1.4l0,0c-0.2-0.2-0.4-0.3-0.6-0.4c-0.2-0.1-0.5-0.1-0.8,0c-0.3,0.1-0.7,0.2-1.2,0.5   c-0.5,0.2-1.1,0.6-1.8,1c-0.8,0.5-1.6,1-2.4,1.3c-0.7,0.4-1.5,0.6-2.1,0.7c-0.7,0.1-1.4,0-2-0.2c-0.7-0.2-1.3-0.7-2-1.3l0,0   c-0.6-0.6-1.1-1.3-1.3-2c-0.3-0.7-0.4-1.5-0.3-2.2c0-0.8,0.2-1.5,0.6-2.3c0.4-0.8,0.9-1.5,1.6-2.2c1-1,2-1.8,3.1-2.3   s2.3-0.9,3.5-1.1l0.7,3.7c-1,0.2-1.9,0.5-2.7,0.8c-0.8,0.3-1.5,0.8-2.1,1.4c-0.6,0.6-0.9,1.1-0.9,1.6c-0.1,0.5,0.1,0.9,0.4,1.3l0,0   c0.2,0.2,0.5,0.4,0.7,0.4c0.2,0.1,0.5,0.1,0.9,0c0.3-0.1,0.8-0.3,1.2-0.5c0.5-0.3,1.1-0.6,1.8-1.1c0.8-0.5,1.6-0.9,2.4-1.2   c0.7-0.3,1.5-0.5,2.1-0.6c0.7-0.1,1.3,0,1.9,0.2c0.6,0.2,1.2,0.6,1.8,1.2l0,0c0.7,0.7,1.2,1.4,1.4,2.1c0.3,0.8,0.4,1.5,0.3,2.3   c-0.1,0.8-0.3,1.6-0.7,2.4C553.9,192.7,553.3,193.5,552.6,194.2z"  />
      <path class="text" d="M546.2,173.3l9.9-10.2l2.7,2.6l-7.1,7.3l2.8,2.7l6.2-6.4l2.7,2.6l-6.2,6.4l2.8,2.8l7.2-7.4l2.7,2.6l-10,10.3   L546.2,173.3z"  />
   </a>
   <g class="dev">
      <path class="l" d="M170.2,215.4h16.4c3.3,0,6.3,0.5,9,1.6c2.7,1.1,5.1,2.5,7.1,4.4c2,1.9,3.5,4.1,4.6,6.6
		c1.1,2.5,1.6,5.3,1.6,8.2v0.1c0,3-0.5,5.7-1.6,8.3s-2.6,4.8-4.6,6.7s-4.3,3.4-7.1,4.4c-2.7,1.1-5.8,1.6-9,1.6h-16.4V215.4z
		 M186.6,249c1.9,0,3.6-0.3,5.2-0.9c1.6-0.6,2.9-1.5,4-2.6c1.1-1.1,2-2.4,2.6-4c0.6-1.5,0.9-3.2,0.9-5.1v-0.1c0-1.8-0.3-3.5-0.9-5.1
		c-0.6-1.6-1.5-2.9-2.6-4c-1.1-1.1-2.4-2-4-2.6c-1.6-0.6-3.3-0.9-5.2-0.9h-7.1V249H186.6z"/>
      <path class="l" d="M217.1,215.4h31.6v8.2h-22.5v8.5H246v8.2h-19.8v8.8H249v8.2h-31.9V215.4z"/>
      <path class="l" d="M253.7,215.4h10.2l11,29.6l11-29.6h10l-17,42.3h-8.2L253.7,215.4z"/>
   </g>
   <g class="ops">
      <path class="r" d="M734.4,258.1c-3.2,0-6.2-0.6-8.9-1.7c-2.7-1.1-5.1-2.7-7-4.6c-2-1.9-3.5-4.2-4.6-6.8c-1.1-2.6-1.7-5.4-1.7-8.4
		v-0.1c0-3,0.6-5.8,1.7-8.4s2.7-4.9,4.7-6.9c2-2,4.3-3.5,7.1-4.7c2.7-1.1,5.7-1.7,9-1.7s6.2,0.6,8.9,1.7c2.7,1.1,5.1,2.7,7,4.6
		c2,1.9,3.5,4.2,4.6,6.8c1.1,2.6,1.6,5.4,1.6,8.4v0.1c0,3-0.6,5.8-1.7,8.4c-1.1,2.6-2.7,4.9-4.6,6.9c-2,2-4.3,3.5-7.1,4.7
		C740.6,257.5,737.7,258.1,734.4,258.1z M734.5,249.6c1.8,0,3.5-0.3,5.1-1c1.6-0.7,2.9-1.6,4-2.8c1.1-1.2,2-2.6,2.6-4.2
		s0.9-3.3,0.9-5.1v-0.1c0-1.8-0.3-3.5-0.9-5.1c-0.6-1.6-1.5-3-2.6-4.2s-2.5-2.1-4-2.9c-1.6-0.7-3.3-1-5.1-1c-1.9,0-3.6,0.3-5.1,1
		c-1.5,0.7-2.9,1.6-4,2.8c-1.1,1.2-2,2.6-2.6,4.2c-0.6,1.6-0.9,3.3-0.9,5.1v0.1c0,1.8,0.3,3.5,0.9,5.1c0.6,1.6,1.5,3,2.6,4.2
		c1.1,1.2,2.5,2.2,4,2.9C730.9,249.2,732.7,249.6,734.5,249.6z"/>
      <path class="r" d="M765,215.4h17.2c2.5,0,4.8,0.4,6.8,1c2,0.7,3.7,1.7,5,3c1.4,1.3,2.4,2.8,3.2,4.6c0.7,1.8,1.1,3.8,1.1,5.9v0.1
		c0,2.4-0.4,4.6-1.3,6.4c-0.9,1.8-2.1,3.4-3.6,4.6c-1.5,1.2-3.3,2.2-5.4,2.8c-2.1,0.6-4.3,0.9-6.6,0.9h-7v12.6H765V215.4z
		 M781.6,236.6c2.3,0,4.1-0.6,5.4-1.8c1.3-1.2,1.9-2.7,1.9-4.5v-0.1c0-2.1-0.7-3.7-2-4.7c-1.3-1.1-3.2-1.6-5.5-1.6h-7.1v12.8H781.6z
		"/>
      <path class="r" d="M820.1,258c-3.2,0-6.3-0.5-9.4-1.6s-5.9-2.8-8.4-5.1l5.5-6.5c1.9,1.6,3.9,2.8,5.9,3.7c2,0.9,4.2,1.4,6.6,1.4
		c1.9,0,3.4-0.4,4.5-1.1c1.1-0.7,1.6-1.7,1.6-2.9v-0.1c0-0.6-0.1-1.1-0.3-1.6c-0.2-0.5-0.6-0.9-1.3-1.3s-1.5-0.8-2.6-1.2
		c-1.1-0.4-2.5-0.8-4.3-1.3c-2.1-0.5-4.1-1.1-5.8-1.7c-1.7-0.6-3.2-1.4-4.4-2.4c-1.2-0.9-2.1-2.1-2.8-3.5c-0.7-1.4-1-3.1-1-5.2v-0.1
		c0-1.9,0.4-3.6,1.1-5.2c0.7-1.5,1.7-2.9,3-4c1.3-1.1,2.8-2,4.6-2.6c1.8-0.6,3.8-0.9,5.9-0.9c3.1,0,5.9,0.5,8.5,1.4
		c2.6,0.9,4.9,2.2,7.1,4l-4.8,7c-1.9-1.3-3.7-2.3-5.5-3c-1.8-0.7-3.6-1.1-5.4-1.1s-3.2,0.4-4,1.1c-0.9,0.7-1.4,1.6-1.4,2.6v0.1
		c0,0.7,0.1,1.3,0.4,1.8c0.3,0.5,0.7,1,1.4,1.3c0.7,0.4,1.6,0.8,2.8,1.1c1.2,0.4,2.7,0.8,4.5,1.3c2.1,0.6,4,1.2,5.7,1.9
		c1.7,0.7,3.1,1.5,4.2,2.5c1.1,1,2,2.1,2.6,3.5c0.6,1.3,0.9,2.9,0.9,4.7v0.1c0,2.1-0.4,3.9-1.1,5.5c-0.8,1.6-1.8,3-3.2,4.1
		c-1.4,1.1-3,1.9-4.8,2.5C824.5,257.7,822.4,258,820.1,258z"/>
   </g>
</svg>
