<?xml version="1.0" encoding="UTF-8" standalone="no"?>
<!DOCTYPE svg PUBLIC "-//W3C//DTD SVG 1.1//EN" "http://www.w3.org/Graphics/SVG/1.1/DTD/svg11.dtd">
<!-- Generated by Microsoft Visio, SVG Export eus-rest.svg Page-1 -->
<svg xmlns="http://www.w3.org/2000/svg" xmlns:xlink="http://www.w3.org/1999/xlink" xmlns:ev="http://www.w3.org/2001/xml-events"
		xmlns:v="http://schemas.microsoft.com/visio/2003/SVGExtensions/" width="8.08475in" height="9.30523in"
		viewBox="0 0 582.102 669.976" xml:space="preserve" color-interpolation-filters="sRGB" class="st10">
	<v:documentProperties v:langID="1033" v:metric="true" v:viewMarkup="false"/>

	<style type="text/css">
	<![CDATA[
		.st1 {fill:#ffffff;stroke:#e8ebf4;stroke-dasharray:5.25,3.75;stroke-width:0.75}
		.st2 {fill:#4672c4;stroke:#c7c8c8;stroke-width:0.25}
		.st3 {fill:#4672c4;stroke:#ffffff;stroke-width:0.25}
		.st4 {fill:#ffffff}
		.st5 {fill:#4672c4;stroke:#0000ff;stroke-width:0.25}
		.st6 {fill:none;stroke:none;stroke-width:0.25}
		.st7 {fill:#4672c4;font-family:Calibri;font-size:1.00001em}
		.st8 {marker-end:url(#mrkr4-36);stroke:#4672c4;stroke-linecap:round;stroke-linejoin:round;stroke-width:1}
		.st9 {fill:#4672c4;fill-opacity:1;stroke:#4672c4;stroke-opacity:1;stroke-width:0.28409090909091}
		.st10 {fill:none;fill-rule:evenodd;font-size:12px;overflow:visible;stroke-linecap:square;stroke-miterlimit:3}
	]]>
	</style>

	<defs id="Markers">
		<g id="lend4">
			<path d="M 2 1 L 0 0 L 2 -1 L 2 1 " style="stroke:none"/>
		</g>
		<marker id="mrkr4-36" class="st9" v:arrowType="4" v:arrowSize="2" v:setback="7.04" refX="-7.04" orient="auto"
				markerUnits="strokeWidth" overflow="visible">
			<use xlink:href="#lend4" transform="scale(-3.52,-3.52) "/>
		</marker>
	</defs>
	<g v:mID="0" v:index="1" v:groupContext="foregroundPage">
		<title>Page-1</title>
		<v:pageProperties v:drawingScale="0.0393701" v:pageScale="0.0393701" v:drawingUnits="24" v:shadowOffsetX="8.50394"
				v:shadowOffsetY="-8.50394"/>
		<v:layer v:name="Connector" v:index="0"/>
		<g id="shape8-1" v:mID="8" v:groupContext="shape" transform="translate(337.573,-479.305)">
			<title>Sheet.8</title>
			<path d="M0 480.06 L0 669.98 L243.78 669.98 L243.78 480.06 L0 480.06 Z" class="st1"/>
		</g>
		<g id="group1-3" transform="translate(0.25,-466.549)" v:mID="1" v:groupContext="group">
			<v:custProps>
				<v:cp v:nameU="AssetNumber" v:lbl="Asset Number" v:prompt="" v:type="0" v:format="" v:sortKey="Asset"
						v:invis="false" v:ask="false" v:langID="1033" v:cal="0"/>
				<v:cp v:nameU="SerialNumber" v:lbl="Serial Number" v:prompt="" v:type="0" v:format="" v:sortKey="Asset"
						v:invis="false" v:ask="false" v:langID="1033" v:cal="0"/>
				<v:cp v:nameU="Location" v:lbl="Location" v:prompt="" v:type="0" v:format="" v:sortKey="Asset" v:invis="false"
						v:ask="false" v:langID="1033" v:cal="0"/>
				<v:cp v:nameU="Building" v:lbl="Building" v:prompt="" v:type="0" v:format="" v:sortKey="Asset" v:invis="false"
						v:ask="false" v:langID="1033" v:cal="0"/>
				<v:cp v:nameU="Room" v:lbl="Room" v:prompt="" v:type="0" v:format="" v:sortKey="Asset" v:invis="false"
						v:ask="false" v:langID="1033" v:cal="0"/>
				<v:cp v:nameU="Manufacturer" v:lbl="Manufacturer" v:prompt="" v:type="0" v:format="" v:sortKey="Equipment"
						v:invis="false" v:ask="false" v:langID="1033" v:cal="0"/>
				<v:cp v:nameU="ProductNumber" v:lbl="Product Number" v:prompt="" v:type="0" v:format="" v:sortKey="Equipment"
						v:invis="false" v:ask="false" v:langID="1033" v:cal="0"/>
				<v:cp v:nameU="PartNumber" v:lbl="Part Number" v:prompt="" v:type="0" v:format="" v:sortKey="Equipment"
						v:invis="false" v:ask="false" v:langID="1033" v:cal="0"/>
				<v:cp v:nameU="ProductDescription" v:lbl="Product Description" v:prompt="" v:type="0" v:format=""
						v:sortKey="Equipment" v:invis="false" v:ask="false" v:langID="1033" v:cal="0"/>
				<v:cp v:nameU="NetworkName" v:lbl="Network Name" v:prompt="" v:type="0" v:format="" v:sortKey="Network"
						v:invis="false" v:ask="false" v:langID="1033" v:cal="0"/>
				<v:cp v:nameU="IPAddress" v:lbl="IP Address" v:prompt="" v:type="0" v:format="" v:sortKey="Network" v:invis="false"
						v:ask="false" v:langID="1033" v:cal="0"/>
				<v:cp v:nameU="SubnetMask" v:lbl="Subnet Mask" v:prompt="" v:type="0" v:format="" v:sortKey="Network"
						v:invis="false" v:ask="false" v:langID="1033" v:cal="0"/>
				<v:cp v:nameU="AdminInterface" v:lbl="Administrative Interface" v:prompt="" v:type="0" v:format=""
						v:sortKey="Network" v:invis="false" v:ask="false" v:langID="1033" v:cal="0"/>
				<v:cp v:nameU="NumberofPorts" v:lbl="Number of Ports" v:prompt="" v:type="0" v:format="" v:sortKey="Network"
						v:invis="false" v:ask="false" v:langID="1033" v:cal="0"/>
				<v:cp v:nameU="CommunityString" v:lbl="Community String" v:prompt="" v:type="0" v:format="" v:sortKey="Network"
						v:invis="false" v:ask="false" v:langID="1033" v:cal="0"/>
				<v:cp v:nameU="NetworkDescription" v:lbl="Network Description" v:prompt="" v:type="0" v:format=""
						v:sortKey="Network" v:invis="false" v:ask="false" v:langID="1033" v:cal="0"/>
				<v:cp v:nameU="MACAddress" v:lbl="MAC Address" v:prompt="" v:type="0" v:format="" v:sortKey="Network"
						v:invis="false" v:ask="false" v:langID="1033" v:cal="0"/>
				<v:cp v:nameU="CPU" v:lbl="CPU" v:prompt="" v:type="0" v:format="" v:sortKey="Workstation" v:invis="false"
						v:ask="false" v:langID="1033" v:cal="0"/>
				<v:cp v:nameU="Memory" v:lbl="Memory" v:prompt="" v:type="0" v:format="" v:sortKey="Workstation" v:invis="false"
						v:ask="false" v:langID="1033" v:cal="0"/>
				<v:cp v:nameU="OperatingSystem" v:lbl="Operating System" v:prompt="" v:type="0" v:format="" v:sortKey="Workstation"
						v:invis="false" v:ask="false" v:langID="1033" v:cal="0"/>
				<v:cp v:nameU="HardDriveSize" v:lbl="Hard Drive Capacity" v:prompt="" v:type="0" v:format=""
						v:sortKey="Workstation" v:invis="false" v:ask="false" v:langID="1033" v:cal="0"/>
				<v:cp v:nameU="Department" v:lbl="Department" v:prompt="" v:type="0" v:format="" v:sortKey="" v:invis="false"
						v:ask="false" v:langID="1033" v:cal="0"/>
				<v:cp v:nameU="ShapeClass" v:lbl="ShapeClass" v:prompt="" v:type="0" v:format="" v:sortKey="" v:invis="true"
						v:ask="false" v:langID="1033" v:cal="0" v:val="VT4(Equipment)"/>
				<v:cp v:nameU="ShapeType" v:lbl="ShapeType" v:prompt="" v:type="0" v:format="" v:sortKey="" v:invis="true"
						v:ask="false" v:langID="1033" v:cal="0" v:val="VT4(Computer)"/>
				<v:cp v:nameU="SubShapeType" v:lbl="SubShapeType" v:prompt="" v:type="0" v:format="" v:sortKey="" v:invis="true"
						v:ask="false" v:langID="1033" v:cal="0" v:val="VT4(Desktop)"/>
				<v:cp v:nameU="BelongsTo" v:lbl="Belongs To" v:prompt="" v:type="0" v:format="" v:sortKey="" v:invis="true"
						v:ask="false" v:langID="1033" v:cal="0"/>
			</v:custProps>
			<v:userDefs>
				<v:ud v:nameU="visVersion" v:prompt="" v:val="VT0(15):26"/>
				<v:ud v:nameU="ShapeClass" v:prompt="" v:val="VT0(5):26"/>
				<v:ud v:nameU="SolSH" v:prompt="" v:val="VT15({BF0433D9-CD73-4EB5-8390-8653BE590246}):41"/>
				<v:ud v:nameU="visLegendShape" v:prompt="" v:val="VT0(2):26"/>
			</v:userDefs>
			<title>PC</title>
			<g id="shape2-4" v:mID="2" v:groupContext="shape" transform="translate(0,-4.72617)">
				<title>Sheet.2</title>
				<path d="M48.01 652.57 L48.01 658.56 L51.62 658.56 L55.04 662.84 L70.87 662.84 L70.87 608.56 L48.01 608.56 L48.01
							 616.35 L57.81 616.35 L57.81 652.57 L48.01 652.57 ZM57.81 616.35 L3.53 616.35 L3.53 652.57 L57.81 652.57
							 L57.81 616.35 ZM60.73 669.98 L51.62 658.56 L9.11 658.56 L0 669.98 L60.73 669.98 ZM35.14 652.57 L25.59
							 652.57 L25.59 658.56 L35.14 658.56 L35.14 652.57 Z" class="st2"/>
			</g>
			<g id="shape3-6" v:mID="3" v:groupContext="shape" transform="translate(7.05282,-25.393)">
				<title>Sheet.3</title>
				<v:userDefs>
					<v:ud v:nameU="SurroundingRegionColor" v:prompt="" v:val="VT5(1)"/>
					<v:ud v:nameU="SurroundingRegionColor" v:prompt="" v:val="VT5(#4672c4)"/>
				</v:userDefs>
				<path d="M47.32 640.61 L0 640.61 L0 669.98 L47.32 669.98 L47.32 640.61 Z" class="st3"/>
			</g>
			<g id="shape4-8" v:mID="4" v:groupContext="shape" transform="translate(8.26528,-7.08364)">
				<title>Sheet.4</title>
				<v:userDefs>
					<v:ud v:nameU="SurroundingRegionColor" v:prompt="" v:val="VT5(1)"/>
					<v:ud v:nameU="SurroundingRegionColor" v:prompt="" v:val="VT5(#4672c4)"/>
				</v:userDefs>
				<path d="M53.45 617 L58.34 617 L58.34 615.09 L53.45 615.09 L53.45 617 ZM53.45 620.39 L58.34 620.39 L58.34 618.49
							 L53.45 618.49 L53.45 620.39 ZM41.47 665.55 L38.77 665.55 L40.28 667.23 L43.19 667.23 L41.47 665.55 ZM38.42
							 662.57 L36.1 662.57 L37.72 664.37 L40.27 664.37 L38.42 662.57 ZM37.32 665.55 L34.62 665.55 L35.81 667.23
							 L38.72 667.23 L37.32 665.55 ZM34.84 662.57 L32.52 662.57 L33.79 664.37 L36.35 664.37 L34.84 662.57 ZM33.17
							 665.55 L30.47 665.55 L31.33 667.23 L34.24 667.23 L33.17 665.55 ZM31.27 662.57 L28.95 662.57 L29.88 664.41
							 L32.44 664.41 L31.27 662.57 ZM29.02 665.55 L26.32 665.55 L26.86 667.23 L29.77 667.23 L29.02 665.55 ZM27.75
							 662.69 L25.4 662.69 L25.95 664.41 L28.51 664.41 L27.75 662.69 ZM24.87 665.55 L22.17 665.55 L22.38 667.23
							 L25.29 667.23 L24.87 665.55 ZM24.18 662.84 L21.82 662.84 L22.04 664.52 L24.61 664.52 L24.18 662.84 ZM20.55
							 662.84 L18.19 662.84 L18.08 664.52 L20.65 664.52 L20.55 662.84 ZM20.71 665.55 L18.01 665.55 L17.9 667.23
							 L20.81 667.23 L20.71 665.55 ZM16.93 662.84 L14.57 662.84 L14.13 664.52 L16.7 664.52 L16.93 662.84 ZM16.56
							 665.55 L13.86 665.55 L13.43 667.23 L16.34 667.23 L16.56 665.55 ZM31.37 668.3 L12.32 668.3 L11.83 669.98
							 L32.19 669.98 L31.37 668.3 ZM13.3 662.84 L10.94 662.84 L10.18 664.52 L12.75 664.52 L13.3 662.84 ZM12.41
							 665.55 L9.71 665.55 L8.95 667.23 L11.86 667.23 L12.41 665.55 ZM9.67 662.84 L7.31 662.84 L6.22 664.52
							 L8.79 664.52 L9.67 662.84 ZM8.26 665.55 L5.56 665.55 L4.48 667.23 L7.39 667.23 L8.26 665.55 ZM6.04 662.84
							 L3.68 662.84 L2.27 664.52 L4.84 664.52 L6.04 662.84 ZM4.11 665.55 L1.41 665.55 L0 667.23 L2.91 667.23
							 L4.11 665.55 Z" class="st4"/>
			</g>
		</g>
		<g id="shape5-11" v:mID="5" v:groupContext="shape" transform="translate(388.596,-592.691)">
			<title>Sheet.5</title>
			<rect x="0" y="612.214" width="90.7087" height="57.7621" class="st5"/>
		</g>
		<g id="shape9-13" v:mID="9" v:groupContext="shape" transform="translate(357.951,-453.636)">
			<title>Sheet.9</title>
			<desc>skd.apps.altinn.no</desc>
			<v:textBlock v:margins="rect(4,4,4,4)" v:tabSpace="42.5197"/>
			<v:textRect cx="76" cy="659.976" width="152" height="20"/>
			<rect x="0" y="649.976" width="152" height="20" class="st6"/>
			<text x="31.45" y="663.58" class="st7" v:langID="1044"><v:paragraph v:horizAlign="1"/><v:tabList/>skd.apps.altinn.no</text>		</g>
		<g id="shape11-16" v:mID="11" v:groupContext="shape" transform="translate(391.431,-564.344)">
			<title>Sheet.11</title>
			<desc>/skd/mva2019</desc>
			<v:textBlock v:margins="rect(4,4,4,4)" v:tabSpace="42.5197"/>
			<v:textRect cx="45.3543" cy="653.677" width="90.71" height="32.5984"/>
			<rect x="0" y="637.378" width="90.7087" height="32.5984" class="st6"/>
			<text x="9.95" y="657.28" class="st7" v:langID="1044"><v:paragraph v:horizAlign="1"/><v:tabList/>/skd/mva2019</text>		</g>
		<g id="shape12-19" v:mID="12" v:groupContext="shape" transform="translate(385.762,-512.252)">
			<title>Sheet.12</title>
			<rect x="0" y="612.214" width="90.7087" height="57.7621" class="st5"/>
		</g>
		<g id="shape13-21" v:mID="13" v:groupContext="shape" transform="translate(388.596,-483.905)">
			<title>Sheet.13</title>
			<desc>/skd/amelding</desc>
			<v:textBlock v:margins="rect(4,4,4,4)" v:tabSpace="42.5197"/>
			<v:textRect cx="45.3543" cy="653.677" width="90.71" height="32.5984"/>
			<rect x="0" y="637.378" width="90.7087" height="32.5984" class="st6"/>
			<text x="9.96" y="657.28" class="st7" v:langID="1044"><v:paragraph v:horizAlign="1"/><v:tabList/>/skd/amelding</text>		</g>
		<g id="shape14-24" v:mID="14" v:groupContext="shape" transform="translate(337.573,-178.833)">
			<title>Sheet.14</title>
			<path d="M0 440.37 L0 669.98 L243.78 669.98 L243.78 440.37 L0 440.37 Z" class="st1"/>
		</g>
		<g id="shape15-26" v:mID="15" v:groupContext="shape" transform="translate(371.589,-336.504)">
			<title>Sheet.15</title>
			<rect x="0" y="612.214" width="90.7087" height="57.7621" class="st5"/>
		</g>
		<g id="shape16-28" v:mID="16" v:groupContext="shape" transform="translate(365.919,-309.935)">
			<title>Sheet.16</title>
			<desc>storage.platform.altinn.no</desc>
			<v:textBlock v:margins="rect(4,4,4,4)" v:tabSpace="42.5197"/>
			<v:textRect cx="70.8661" cy="653.677" width="141.74" height="32.5984"/>
			<rect x="0" y="637.378" width="141.732" height="32.5984" class="st6"/>
			<text x="6.47" y="657.28" class="st7" v:langID="1044"><v:paragraph v:horizAlign="1"/><v:tabList/>storage.platform.altinn.no</text>		</g>
		<g id="shape17-31" v:mID="17" v:groupContext="shape" v:layerMember="0" transform="translate(35.6831,-524.903)">
			<title>Dynamic connector</title>
			<path d="M0 669.98 L0 573.31 L345.87 573.31" class="st8"/>
		</g>
		<g id="shape18-37" v:mID="18" v:groupContext="shape" v:layerMember="0" transform="translate(71.1161,-517.747)">
			<title>Dynamic connector.18</title>
			<path d="M0 662.89 L307.61 662.89" class="st8"/>
		</g>
		<g id="shape19-42" v:mID="19" v:groupContext="shape" v:layerMember="0" transform="translate(35.6831,-471.275)">
			<title>Dynamic connector.19</title>
			<path d="M0 669.98 L0 775.87 L15.35 775.87 A2.3622 2.3622 0 0 1 20.08 775.87 L328.87 775.87" class="st8"/>
		</g>
		<g id="shape20-47" v:mID="20" v:groupContext="shape" transform="translate(374.423,-228.078)">
			<title>Sheet.20</title>
			<rect x="0" y="612.214" width="90.7087" height="57.7621" class="st5"/>
		</g>
		<g id="shape21-49" v:mID="21" v:groupContext="shape" transform="translate(368.754,-201.51)">
			<title>Sheet.21</title>
			<desc>authentication.platform.altinn.no</desc>
			<v:textBlock v:margins="rect(4,4,4,4)" v:tabSpace="42.5197"/>
			<v:textRect cx="92.126" cy="653.677" width="184.26" height="32.5984"/>
			<rect x="0" y="637.378" width="184.252" height="32.5984" class="st6"/>
			<text x="10.2" y="657.28" class="st7" v:langID="1044"><v:paragraph v:horizAlign="1"/><v:tabList/>authentication.platform.altinn.no</text>		</g>
		<g id="shape22-52" v:mID="22" v:groupContext="shape" v:layerMember="0" transform="translate(53.3996,-471.275)">
			<title>Dynamic connector.22</title>
			<path d="M0 669.98 L0 884.29 L313.98 884.29" class="st8"/>
		</g>
		<g id="shape29-57" v:mID="29" v:groupContext="shape" transform="translate(337.573,-28.5965)">
			<title>Sheet.29</title>
			<path d="M0 567.93 L0 669.98 L243.78 669.98 L243.78 567.93 L0 567.93 Z" class="st1"/>
		</g>
		<g id="shape30-59" v:mID="30" v:groupContext="shape" transform="translate(371.589,-50.4232)">
			<title>Sheet.30</title>
			<rect x="0" y="612.214" width="90.7087" height="57.7621" class="st5"/>
		</g>
		<g id="shape31-61" v:mID="31" v:groupContext="shape" transform="translate(337.573,-0.25)">
			<title>Sheet.31</title>
			<desc>altinn.no</desc>
			<v:textBlock v:margins="rect(4,4,4,4)" v:tabSpace="42.5197"/>
			<v:textRect cx="76" cy="659.976" width="152" height="20"/>
			<rect x="0" y="649.976" width="152" height="20" class="st6"/>
			<text x="54.23" y="663.58" class="st7" v:langID="1044"><v:paragraph v:horizAlign="1"/><v:tabList/>altinn.no</text>		</g>
		<g id="shape33-64" v:mID="33" v:groupContext="shape" transform="translate(314.896,-28.5965)">
			<title>Sheet.33</title>
			<desc>/api/</desc>
			<v:textBlock v:margins="rect(4,4,4,4)" v:tabSpace="42.5197"/>
			<v:textRect cx="76" cy="659.976" width="152" height="20"/>
			<rect x="0" y="649.976" width="152" height="20" class="st6"/>
			<text x="63.96" y="663.58" class="st7" v:langID="1044"><v:paragraph v:horizAlign="1"/><v:tabList/>/api/</text>		</g>
		<g id="shape34-67" v:mID="34" v:groupContext="shape" v:layerMember="0" transform="translate(25.939,-471.275)">
			<title>Dynamic connector.34</title>
			<path d="M0 669.98 L0 1061.95 L338.61 1061.95" class="st8"/>
		</g>
	</g>
</svg>
