<?xml version="1.0" encoding="UTF-8" standalone="no"?>
<!DOCTYPE svg PUBLIC "-//W3C//DTD SVG 1.1//EN" "http://www.w3.org/Graphics/SVG/1.1/DTD/svg11.dtd">
<!-- Generated by Microsoft Visio, SVG Export app_backend_application_architecture.svg Page-1 -->
<svg xmlns="http://www.w3.org/2000/svg" xmlns:xlink="http://www.w3.org/1999/xlink" xmlns:ev="http://www.w3.org/2001/xml-events"
		xmlns:v="http://schemas.microsoft.com/visio/2003/SVGExtensions/" width="10.4018in" height="7.90413in"
		viewBox="0 0 748.927 569.097" xml:space="preserve" color-interpolation-filters="sRGB" class="st16">
	<v:documentProperties v:langID="1033" v:metric="true" v:viewMarkup="false">
		<v:userDefs>
			<v:ud v:nameU="DisableSpdActionTags" v:prompt="" v:val="VT0(0):26"/>
		</v:userDefs>
	</v:documentProperties>

	<style type="text/css">
	<![CDATA[
		.st1 {visibility:visible}
		.st2 {fill:#5b9bd5;fill-opacity:0.22;filter:url(#filter_2);stroke:#5b9bd5;stroke-opacity:0.22}
		.st3 {fill:#5b9bd5;stroke:#c7c8c8;stroke-width:0.25}
		.st4 {fill:#bdd0e9;stroke:#c7c8c8;stroke-width:0.25}
		.st5 {fill:#5b9bd5;fill-opacity:0.22;filter:url(#filter_2);marker-end:url(#mrkr1-17);marker-start:url(#mrkr1-15);stroke:#5b9bd5;stroke-opacity:0.22}
		.st6 {fill:#5b9bd5;fill-opacity:0.22;stroke:#5b9bd5;stroke-opacity:0.22;stroke-width:0.090252707581227}
		.st7 {fill:#bdd7ee;marker-end:url(#mrkr1-23);marker-start:url(#mrkr1-21);stroke:#c7c8c8;stroke-width:0.25}
		.st8 {fill:#c7c8c8;fill-opacity:1;stroke:#c7c8c8;stroke-opacity:1;stroke-width:0.090252707581227}
		.st9 {fill:#92d050;stroke:#c7c8c8;stroke-width:0.25}
		.st10 {fill:none;stroke:none;stroke-width:0.25}
		.st11 {fill:#2e75b5;font-family:Calibri;font-size:1.00001em}
		.st12 {fill:#ffffff;font-family:Calibri;font-size:1.00001em}
		.st13 {fill:#ff3300;stroke:#c7c8c8;stroke-width:0.25}
		.st14 {fill:#feffff;font-family:Calibri;font-size:1.00001em}
		.st15 {fill:#2e75b5;stroke:#c7c8c8;stroke-width:0.25}
		.st16 {fill:none;fill-rule:evenodd;font-size:12px;overflow:visible;stroke-linecap:square;stroke-miterlimit:3}
	]]>
	</style>

	<defs id="Markers">
		<g id="lend1">
			<path d="M 1 -1 L 0 0 L 1 1 " style="stroke-linecap:round;stroke-linejoin:round;fill:none"/>
		</g>
		<marker id="mrkr1-15" class="st6" v:arrowType="1" v:arrowSize="2" orient="auto" markerUnits="strokeWidth"
				overflow="visible">
			<use xlink:href="#lend1" transform="scale(11.08) "/>
		</marker>
		<marker id="mrkr1-17" class="st6" v:arrowType="1" v:arrowSize="2" orient="auto" markerUnits="strokeWidth"
				overflow="visible">
			<use xlink:href="#lend1" transform="scale(-11.08,-11.08) "/>
		</marker>
		<marker id="mrkr1-21" class="st8" v:arrowType="1" v:arrowSize="2" orient="auto" markerUnits="strokeWidth"
				overflow="visible">
			<use xlink:href="#lend1" transform="scale(11.08) "/>
		</marker>
		<marker id="mrkr1-23" class="st8" v:arrowType="1" v:arrowSize="2" orient="auto" markerUnits="strokeWidth"
				overflow="visible">
			<use xlink:href="#lend1" transform="scale(-11.08,-11.08) "/>
		</marker>
	</defs>
	<defs id="Filters">
		<filter id="filter_2">
			<feGaussianBlur stdDeviation="2"/>
		</filter>
	</defs>
	<g v:mID="0" v:index="1" v:groupContext="foregroundPage">
		<title>Page-1</title>
		<v:pageProperties v:drawingScale="0.0393701" v:pageScale="0.0393701" v:drawingUnits="24" v:shadowOffsetX="8.50394"
				v:shadowOffsetY="-8.50394"/>
		<a xlink:href="/products/tjenester/3.0/solutions/runtime/">
			<g id="shape9-1" v:mID="9" v:groupContext="shape" transform="translate(2.77937,-5.09785)">
				<title>Rectangle</title>
				<v:userDefs>
					<v:ud v:nameU="visVersion" v:val="VT0(15):26"/>
				</v:userDefs>
				<g id="shadow9-2" v:groupContext="shadow" v:shadowOffsetX="0.345598" v:shadowOffsetY="-1.97279" v:shadowType="1"
						transform="matrix(1,0,0,1,0.345598,1.97279)" class="st1">
					<rect x="0" y="6.25" width="742.677" height="562.847" class="st2"/>
				</g>
				<rect x="0" y="6.25" width="742.677" height="562.847" class="st3"/>
			</g>
		</a>
		<a xlink:href="/Content/RedirectToContent/?ContentType=Resource&#38;Title=Archive">
			<g id="shape10-6" v:mID="10" v:groupContext="shape" transform="translate(306.086,-20.8585)">
				<title>Sheet.10</title>
				<g id="shadow10-7" v:groupContext="shadow" v:shadowOffsetX="0.345598" v:shadowOffsetY="-1.97279" v:shadowType="1"
						transform="matrix(1,0,0,1,0.345598,1.97279)" class="st1">
					<rect x="0" y="384.845" width="425.197" height="184.252" class="st2"/>
				</g>
				<rect x="0" y="384.845" width="425.197" height="184.252" class="st4"/>
			</g>
		</a>
		<g id="shape14-11" v:mID="14" v:groupContext="shape" transform="translate(306.086,-236.292)">
			<title>Sheet.14</title>
			<g id="shadow14-12" v:groupContext="shadow" v:shadowOffsetX="0.345598" v:shadowOffsetY="-1.97279" v:shadowType="1"
					transform="matrix(1,0,0,1,0.345598,1.97279)" class="st1">
				<rect x="0" y="384.845" width="425.197" height="184.252" class="st5"/>
			</g>
			<rect x="0" y="384.845" width="425.197" height="184.252" class="st7"/>
		</g>
		<g id="shape17-24" v:mID="17" v:groupContext="shape" transform="translate(25.4565,-20.8585)">
			<title>Sheet.17</title>
			<g id="shadow17-25" v:groupContext="shadow" v:shadowOffsetX="0.345598" v:shadowOffsetY="-1.97279" v:shadowType="1"
					transform="matrix(1,0,0,1,0.345598,1.97279)" class="st1">
				<rect x="0" y="172.247" width="136.063" height="396.85" class="st2"/>
			</g>
			<rect x="0" y="172.247" width="136.063" height="396.85" class="st9"/>
		</g>
		<g id="shape22-29" v:mID="22" v:groupContext="shape" transform="translate(308.921,-398.433)">
			<title>Sheet.22</title>
			<desc>Altinn.App.Api</desc>
			<v:textBlock v:margins="rect(4,4,4,4)" v:tabSpace="42.5197"/>
			<v:textRect cx="68.0315" cy="561.16" width="136.07" height="15.874"/>
			<rect x="0" y="553.223" width="136.063" height="15.874" class="st10"/>
			<text x="4" y="564.76" class="st11" v:langID="1044"><v:paragraph/><v:tabList/>Altinn.App.Api</text>		</g>
		<g id="shape115-32" v:mID="115" v:groupContext="shape" transform="translate(306.086,-184.134)">
			<title>Sheet.115</title>
			<desc>Altinn.App.PlatformServices</desc>
			<v:textBlock v:margins="rect(4,4,4,4)" v:tabSpace="42.5197"/>
			<v:textRect cx="81.9921" cy="561.16" width="163.99" height="15.874"/>
			<rect x="0" y="553.223" width="163.984" height="15.874" class="st10"/>
			<text x="13.62" y="564.76" class="st11" v:langID="1044"><v:paragraph v:horizAlign="1"/><v:tabList/>Altinn.App.PlatformServices</text>		</g>
		<g id="shape134-35" v:mID="134" v:groupContext="shape" transform="translate(99.4856,-454.402)">
			<title>Sheet.134</title>
			<desc>App-backend (Kubernes Pod)</desc>
			<v:textBlock v:margins="rect(4,4,4,4)" v:tabSpace="42.5197"/>
			<v:textRect cx="76" cy="559.097" width="152.01" height="20"/>
			<rect x="0" y="549.097" width="152" height="20" class="st10"/>
			<text x="5.05" y="562.7" class="st12" v:langID="1044"><v:paragraph v:horizAlign="1"/><v:tabList/>App-backend (Kubernes Pod)</text>		</g>
		<g id="shape157-38" v:mID="157" v:groupContext="shape" transform="translate(33.9605,-401.835)">
			<title>Sheet.157</title>
			<desc>App Logic</desc>
			<v:textBlock v:margins="rect(4,4,4,4)" v:tabSpace="42.5197"/>
			<v:textRect cx="68.0315" cy="561.16" width="136.07" height="15.874"/>
			<rect x="0" y="553.223" width="136.063" height="15.874" class="st10"/>
			<text x="4" y="564.76" class="st11" v:langID="1044"><v:paragraph/><v:tabList/>App Logic</text>		</g>
		<g id="shape456-41" v:mID="456" v:groupContext="shape" transform="translate(14.118,-446.055)">
			<title>Sheet.456</title>
			<g id="shadow456-42" v:groupContext="shadow" v:shadowOffsetX="0.345598" v:shadowOffsetY="-1.97279" v:shadowType="1"
					transform="matrix(1,0,0,1,0.345598,1.97279)" class="st1">
				<rect x="0" y="526.578" width="717.165" height="42.5197" class="st5"/>
			</g>
			<rect x="0" y="526.578" width="717.165" height="42.5197" class="st7"/>
		</g>
		<g id="shape19-50" v:mID="19" v:groupContext="shape" transform="translate(36.7951,-448.89)">
			<title>Sheet.19</title>
			<desc>Policy Enforcment Point (PEP</desc>
			<v:textBlock v:margins="rect(4,4,4,4)" v:tabSpace="42.5197"/>
			<v:textRect cx="340.157" cy="556.341" width="680.32" height="25.5118"/>
			<g id="shadow19-51" v:groupContext="shadow" v:shadowOffsetX="0.345598" v:shadowOffsetY="-1.97279" v:shadowType="1"
					transform="matrix(1,0,0,1,0.345598,1.97279)" class="st1">
				<rect x="0" y="543.585" width="680.315" height="25.5118" class="st2"/>
			</g>
			<rect x="0" y="543.585" width="680.315" height="25.5118" class="st13"/>
			<text x="269.42" y="559.94" class="st14" v:langID="1044"><v:paragraph v:horizAlign="1"/><v:tabList/>Policy Enforcment Point (PEP</text>		</g>
		<g id="shape457-56" v:mID="457" v:groupContext="shape" transform="translate(-223.326,534.066) rotate(-90)">
			<title>Sheet.457</title>
			<desc>Authentication</desc>
			<v:textBlock v:margins="rect(4,4,4,4)" v:tabSpace="42.5197"/>
			<v:textRect cx="70.8661" cy="556.341" width="141.74" height="25.5118"/>
			<g id="shadow457-57" v:groupContext="shadow" v:shadowOffsetX="0.345598" v:shadowOffsetY="-1.97279" v:shadowType="1"
					transform="matrix(1,0,0,1,-1.97279,0.345598)" class="st1">
				<rect x="0" y="543.585" width="141.732" height="25.5118" class="st2"/>
			</g>
			<rect x="0" y="543.585" width="141.732" height="25.5118" class="st3"/>
			<text x="4" y="559.94" class="st14" v:langID="1044"><v:paragraph/><v:tabList/>Authentication</text>		</g>
		<g id="shape459-62" v:mID="459" v:groupContext="shape" transform="translate(-223.326,321.467) rotate(-90)">
			<title>Sheet.459</title>
			<desc>Account</desc>
			<v:textBlock v:margins="rect(4,4,4,4)" v:tabSpace="42.5197"/>
			<v:textRect cx="70.8661" cy="556.341" width="141.74" height="25.5118"/>
			<g id="shadow459-63" v:groupContext="shadow" v:shadowOffsetX="0.345598" v:shadowOffsetY="-1.97279" v:shadowType="1"
					transform="matrix(1,0,0,1,-1.97279,0.345598)" class="st1">
				<rect x="0" y="543.585" width="141.732" height="25.5118" class="st2"/>
			</g>
			<rect x="0" y="543.585" width="141.732" height="25.5118" class="st15"/>
			<text x="4" y="559.94" class="st14" v:langID="1044"><v:paragraph/><v:tabList/>Account</text>		</g>
		<g id="shape460-68" v:mID="460" v:groupContext="shape" transform="translate(-194.979,321.467) rotate(-90)">
			<title>Sheet.460</title>
			<desc>ApplicationMetadata</desc>
			<v:textBlock v:margins="rect(4,4,4,4)" v:tabSpace="42.5197"/>
			<v:textRect cx="70.8661" cy="556.341" width="141.74" height="25.5118"/>
			<g id="shadow460-69" v:groupContext="shadow" v:shadowOffsetX="0.345598" v:shadowOffsetY="-1.97279" v:shadowType="1"
					transform="matrix(1,0,0,1,-1.97279,0.345598)" class="st1">
				<rect x="0" y="543.585" width="141.732" height="25.5118" class="st2"/>
			</g>
			<rect x="0" y="543.585" width="141.732" height="25.5118" class="st3"/>
			<text x="4" y="559.94" class="st14" v:langID="1044"><v:paragraph/><v:tabList/>ApplicationMetadata</text>		</g>
		<g id="shape461-74" v:mID="461" v:groupContext="shape" transform="translate(-166.633,321.467) rotate(-90)">
			<title>Sheet.461</title>
			<desc>Authentication</desc>
			<v:textBlock v:margins="rect(4,4,4,4)" v:tabSpace="42.5197"/>
			<v:textRect cx="70.8661" cy="556.341" width="141.74" height="25.5118"/>
			<g id="shadow461-75" v:groupContext="shadow" v:shadowOffsetX="0.345598" v:shadowOffsetY="-1.97279" v:shadowType="1"
					transform="matrix(1,0,0,1,-1.97279,0.345598)" class="st1">
				<rect x="0" y="543.585" width="141.732" height="25.5118" class="st2"/>
			</g>
			<rect x="0" y="543.585" width="141.732" height="25.5118" class="st3"/>
			<text x="4" y="559.94" class="st14" v:langID="1044"><v:paragraph/><v:tabList/>Authentication</text>		</g>
		<g id="shape462-80" v:mID="462" v:groupContext="shape" transform="translate(-138.286,321.467) rotate(-90)">
			<title>Sheet.462</title>
			<desc>Authorization</desc>
			<v:textBlock v:margins="rect(4,4,4,4)" v:tabSpace="42.5197"/>
			<v:textRect cx="70.8661" cy="556.341" width="141.74" height="25.5118"/>
			<g id="shadow462-81" v:groupContext="shadow" v:shadowOffsetX="0.345598" v:shadowOffsetY="-1.97279" v:shadowType="1"
					transform="matrix(1,0,0,1,-1.97279,0.345598)" class="st1">
				<rect x="0" y="543.585" width="141.732" height="25.5118" class="st2"/>
			</g>
			<rect x="0" y="543.585" width="141.732" height="25.5118" class="st3"/>
			<text x="4" y="559.94" class="st14" v:langID="1044"><v:paragraph/><v:tabList/>Authorization</text>		</g>
		<g id="shape463-86" v:mID="463" v:groupContext="shape" transform="translate(-109.94,321.467) rotate(-90)">
			<title>Sheet.463</title>
			<desc>Data</desc>
			<v:textBlock v:margins="rect(4,4,4,4)" v:tabSpace="42.5197"/>
			<v:textRect cx="70.8661" cy="556.341" width="141.74" height="25.5118"/>
			<g id="shadow463-87" v:groupContext="shadow" v:shadowOffsetX="0.345598" v:shadowOffsetY="-1.97279" v:shadowType="1"
					transform="matrix(1,0,0,1,-1.97279,0.345598)" class="st1">
				<rect x="0" y="543.585" width="141.732" height="25.5118" class="st2"/>
			</g>
			<rect x="0" y="543.585" width="141.732" height="25.5118" class="st3"/>
			<text x="4" y="559.94" class="st14" v:langID="1044"><v:paragraph/><v:tabList/>Data</text>		</g>
		<g id="shape464-92" v:mID="464" v:groupContext="shape" transform="translate(-81.5935,321.467) rotate(-90)">
			<title>Sheet.464</title>
			<desc>Home</desc>
			<v:textBlock v:margins="rect(4,4,4,4)" v:tabSpace="42.5197"/>
			<v:textRect cx="70.8661" cy="556.341" width="141.74" height="25.5118"/>
			<g id="shadow464-93" v:groupContext="shadow" v:shadowOffsetX="0.345598" v:shadowOffsetY="-1.97279" v:shadowType="1"
					transform="matrix(1,0,0,1,-1.97279,0.345598)" class="st1">
				<rect x="0" y="543.585" width="141.732" height="25.5118" class="st2"/>
			</g>
			<rect x="0" y="543.585" width="141.732" height="25.5118" class="st15"/>
			<text x="4" y="559.94" class="st14" v:langID="1044"><v:paragraph/><v:tabList/>Home</text>		</g>
		<g id="shape465-98" v:mID="465" v:groupContext="shape" transform="translate(-53.247,321.467) rotate(-90)">
			<title>Sheet.465</title>
			<desc>Instances</desc>
			<v:textBlock v:margins="rect(4,4,4,4)" v:tabSpace="42.5197"/>
			<v:textRect cx="70.8661" cy="556.341" width="141.74" height="25.5118"/>
			<g id="shadow465-99" v:groupContext="shadow" v:shadowOffsetX="0.345598" v:shadowOffsetY="-1.97279" v:shadowType="1"
					transform="matrix(1,0,0,1,-1.97279,0.345598)" class="st1">
				<rect x="0" y="543.585" width="141.732" height="25.5118" class="st2"/>
			</g>
			<rect x="0" y="543.585" width="141.732" height="25.5118" class="st3"/>
			<text x="4" y="559.94" class="st14" v:langID="1044"><v:paragraph/><v:tabList/>Instances</text>		</g>
		<g id="shape466-104" v:mID="466" v:groupContext="shape" transform="translate(-24.9006,321.467) rotate(-90)">
			<title>Sheet.466</title>
			<desc>Parties</desc>
			<v:textBlock v:margins="rect(4,4,4,4)" v:tabSpace="42.5197"/>
			<v:textRect cx="70.8661" cy="556.341" width="141.74" height="25.5118"/>
			<g id="shadow466-105" v:groupContext="shadow" v:shadowOffsetX="0.345598" v:shadowOffsetY="-1.97279" v:shadowType="1"
					transform="matrix(1,0,0,1,-1.97279,0.345598)" class="st1">
				<rect x="0" y="543.585" width="141.732" height="25.5118" class="st2"/>
			</g>
			<rect x="0" y="543.585" width="141.732" height="25.5118" class="st3"/>
			<text x="4" y="559.94" class="st14" v:langID="1044"><v:paragraph/><v:tabList/>Parties</text>		</g>
		<g id="shape467-110" v:mID="467" v:groupContext="shape" transform="translate(3.4459,321.467) rotate(-90)">
			<title>Sheet.467</title>
			<desc>Process</desc>
			<v:textBlock v:margins="rect(4,4,4,4)" v:tabSpace="42.5197"/>
			<v:textRect cx="70.8661" cy="556.341" width="141.74" height="25.5118"/>
			<g id="shadow467-111" v:groupContext="shadow" v:shadowOffsetX="0.345598" v:shadowOffsetY="-1.97279" v:shadowType="1"
					transform="matrix(1,0,0,1,-1.97279,0.345598)" class="st1">
				<rect x="0" y="543.585" width="141.732" height="25.5118" class="st2"/>
			</g>
			<rect x="0" y="543.585" width="141.732" height="25.5118" class="st3"/>
			<text x="4" y="559.94" class="st14" v:langID="1044"><v:paragraph/><v:tabList/>Process</text>		</g>
		<g id="shape468-116" v:mID="468" v:groupContext="shape" transform="translate(31.7924,321.467) rotate(-90)">
			<title>Sheet.468</title>
			<desc>Profile</desc>
			<v:textBlock v:margins="rect(4,4,4,4)" v:tabSpace="42.5197"/>
			<v:textRect cx="70.8661" cy="556.341" width="141.74" height="25.5118"/>
			<g id="shadow468-117" v:groupContext="shadow" v:shadowOffsetX="0.345598" v:shadowOffsetY="-1.97279" v:shadowType="1"
					transform="matrix(1,0,0,1,-1.97279,0.345598)" class="st1">
				<rect x="0" y="543.585" width="141.732" height="25.5118" class="st2"/>
			</g>
			<rect x="0" y="543.585" width="141.732" height="25.5118" class="st3"/>
			<text x="4" y="559.94" class="st14" v:langID="1044"><v:paragraph/><v:tabList/>Profile</text>		</g>
		<g id="shape469-122" v:mID="469" v:groupContext="shape" transform="translate(60.1388,321.467) rotate(-90)">
			<title>Sheet.469</title>
			<desc>Resource</desc>
			<v:textBlock v:margins="rect(4,4,4,4)" v:tabSpace="42.5197"/>
			<v:textRect cx="70.8661" cy="556.341" width="141.74" height="25.5118"/>
			<g id="shadow469-123" v:groupContext="shadow" v:shadowOffsetX="0.345598" v:shadowOffsetY="-1.97279" v:shadowType="1"
					transform="matrix(1,0,0,1,-1.97279,0.345598)" class="st1">
				<rect x="0" y="543.585" width="141.732" height="25.5118" class="st2"/>
			</g>
			<rect x="0" y="543.585" width="141.732" height="25.5118" class="st3"/>
			<text x="4" y="559.94" class="st14" v:langID="1044"><v:paragraph/><v:tabList/>Resource</text>		</g>
		<g id="shape470-128" v:mID="470" v:groupContext="shape" transform="translate(88.4853,321.467) rotate(-90)">
			<title>Sheet.470</title>
			<desc>Validation</desc>
			<v:textBlock v:margins="rect(4,4,4,4)" v:tabSpace="42.5197"/>
			<v:textRect cx="70.8661" cy="556.341" width="141.74" height="25.5118"/>
			<g id="shadow470-129" v:groupContext="shadow" v:shadowOffsetX="0.345598" v:shadowOffsetY="-1.97279" v:shadowType="1"
					transform="matrix(1,0,0,1,-1.97279,0.345598)" class="st1">
				<rect x="0" y="543.585" width="141.732" height="25.5118" class="st2"/>
			</g>
			<rect x="0" y="543.585" width="141.732" height="25.5118" class="st3"/>
			<text x="4" y="559.94" class="st14" v:langID="1044"><v:paragraph/><v:tabList/>Validation</text>		</g>
		<g id="shape474-134" v:mID="474" v:groupContext="shape" transform="translate(-194.979,534.066) rotate(-90)">
			<title>Sheet.474</title>
			<desc>Authorization</desc>
			<v:textBlock v:margins="rect(4,4,4,4)" v:tabSpace="42.5197"/>
			<v:textRect cx="70.8661" cy="556.341" width="141.74" height="25.5118"/>
			<g id="shadow474-135" v:groupContext="shadow" v:shadowOffsetX="0.345598" v:shadowOffsetY="-1.97279" v:shadowType="1"
					transform="matrix(1,0,0,1,-1.97279,0.345598)" class="st1">
				<rect x="0" y="543.585" width="141.732" height="25.5118" class="st2"/>
			</g>
			<rect x="0" y="543.585" width="141.732" height="25.5118" class="st3"/>
			<text x="4" y="559.94" class="st14" v:langID="1044"><v:paragraph/><v:tabList/>Authorization</text>		</g>
		<g id="shape475-140" v:mID="475" v:groupContext="shape" transform="translate(-166.633,534.066) rotate(-90)">
			<title>Sheet.475</title>
			<desc>DSF</desc>
			<v:textBlock v:margins="rect(4,4,4,4)" v:tabSpace="42.5197"/>
			<v:textRect cx="70.8661" cy="556.341" width="141.74" height="25.5118"/>
			<g id="shadow475-141" v:groupContext="shadow" v:shadowOffsetX="0.345598" v:shadowOffsetY="-1.97279" v:shadowType="1"
					transform="matrix(1,0,0,1,-1.97279,0.345598)" class="st1">
				<rect x="0" y="543.585" width="141.732" height="25.5118" class="st2"/>
			</g>
			<rect x="0" y="543.585" width="141.732" height="25.5118" class="st3"/>
			<text x="4" y="559.94" class="st14" v:langID="1044"><v:paragraph/><v:tabList/>DSF</text>		</g>
		<g id="shape476-146" v:mID="476" v:groupContext="shape" transform="translate(-138.286,534.066) rotate(-90)">
			<title>Sheet.476</title>
			<desc>Data</desc>
			<v:textBlock v:margins="rect(4,4,4,4)" v:tabSpace="42.5197"/>
			<v:textRect cx="70.8661" cy="556.341" width="141.74" height="25.5118"/>
			<g id="shadow476-147" v:groupContext="shadow" v:shadowOffsetX="0.345598" v:shadowOffsetY="-1.97279" v:shadowType="1"
					transform="matrix(1,0,0,1,-1.97279,0.345598)" class="st1">
				<rect x="0" y="543.585" width="141.732" height="25.5118" class="st2"/>
			</g>
			<rect x="0" y="543.585" width="141.732" height="25.5118" class="st3"/>
			<text x="4" y="559.94" class="st14" v:langID="1044"><v:paragraph/><v:tabList/>Data</text>		</g>
		<g id="shape477-152" v:mID="477" v:groupContext="shape" transform="translate(-109.94,534.066) rotate(-90)">
			<title>Sheet.477</title>
			<desc>ER</desc>
			<v:textBlock v:margins="rect(4,4,4,4)" v:tabSpace="42.5197"/>
			<v:textRect cx="70.8661" cy="556.341" width="141.74" height="25.5118"/>
			<g id="shadow477-153" v:groupContext="shadow" v:shadowOffsetX="0.345598" v:shadowOffsetY="-1.97279" v:shadowType="1"
					transform="matrix(1,0,0,1,-1.97279,0.345598)" class="st1">
				<rect x="0" y="543.585" width="141.732" height="25.5118" class="st2"/>
			</g>
			<rect x="0" y="543.585" width="141.732" height="25.5118" class="st3"/>
			<text x="4" y="559.94" class="st14" v:langID="1044"><v:paragraph/><v:tabList/>ER</text>		</g>
		<g id="shape478-158" v:mID="478" v:groupContext="shape" transform="translate(-81.5935,534.066) rotate(-90)">
			<title>Sheet.478</title>
			<desc>Instances</desc>
			<v:textBlock v:margins="rect(4,4,4,4)" v:tabSpace="42.5197"/>
			<v:textRect cx="70.8661" cy="556.341" width="141.74" height="25.5118"/>
			<g id="shadow478-159" v:groupContext="shadow" v:shadowOffsetX="0.345598" v:shadowOffsetY="-1.97279" v:shadowType="1"
					transform="matrix(1,0,0,1,-1.97279,0.345598)" class="st1">
				<rect x="0" y="543.585" width="141.732" height="25.5118" class="st2"/>
			</g>
			<rect x="0" y="543.585" width="141.732" height="25.5118" class="st3"/>
			<text x="4" y="559.94" class="st14" v:langID="1044"><v:paragraph/><v:tabList/>Instances</text>		</g>
		<g id="shape479-164" v:mID="479" v:groupContext="shape" transform="translate(-53.247,534.066) rotate(-90)">
			<title>Sheet.479</title>
			<desc>InstanceEvent</desc>
			<v:textBlock v:margins="rect(4,4,4,4)" v:tabSpace="42.5197"/>
			<v:textRect cx="70.8661" cy="556.341" width="141.74" height="25.5118"/>
			<g id="shadow479-165" v:groupContext="shadow" v:shadowOffsetX="0.345598" v:shadowOffsetY="-1.97279" v:shadowType="1"
					transform="matrix(1,0,0,1,-1.97279,0.345598)" class="st1">
				<rect x="0" y="543.585" width="141.732" height="25.5118" class="st2"/>
			</g>
			<rect x="0" y="543.585" width="141.732" height="25.5118" class="st3"/>
			<text x="4" y="559.94" class="st14" v:langID="1044"><v:paragraph/><v:tabList/>InstanceEvent</text>		</g>
		<g id="shape480-170" v:mID="480" v:groupContext="shape" transform="translate(-24.9006,534.066) rotate(-90)">
			<title>Sheet.480</title>
			<desc>PDF</desc>
			<v:textBlock v:margins="rect(4,4,4,4)" v:tabSpace="42.5197"/>
			<v:textRect cx="70.8661" cy="556.341" width="141.74" height="25.5118"/>
			<g id="shadow480-171" v:groupContext="shadow" v:shadowOffsetX="0.345598" v:shadowOffsetY="-1.97279" v:shadowType="1"
					transform="matrix(1,0,0,1,-1.97279,0.345598)" class="st1">
				<rect x="0" y="543.585" width="141.732" height="25.5118" class="st2"/>
			</g>
			<rect x="0" y="543.585" width="141.732" height="25.5118" class="st3"/>
			<text x="4" y="559.94" class="st14" v:langID="1044"><v:paragraph/><v:tabList/>PDF</text>		</g>
		<g id="shape481-176" v:mID="481" v:groupContext="shape" transform="translate(3.4459,534.066) rotate(-90)">
			<title>Sheet.481</title>
			<desc>Prefill</desc>
			<v:textBlock v:margins="rect(4,4,4,4)" v:tabSpace="42.5197"/>
			<v:textRect cx="70.8661" cy="556.341" width="141.74" height="25.5118"/>
			<g id="shadow481-177" v:groupContext="shadow" v:shadowOffsetX="0.345598" v:shadowOffsetY="-1.97279" v:shadowType="1"
					transform="matrix(1,0,0,1,-1.97279,0.345598)" class="st1">
				<rect x="0" y="543.585" width="141.732" height="25.5118" class="st2"/>
			</g>
			<rect x="0" y="543.585" width="141.732" height="25.5118" class="st3"/>
			<text x="4" y="559.94" class="st14" v:langID="1044"><v:paragraph/><v:tabList/>Prefill</text>		</g>
		<g id="shape482-182" v:mID="482" v:groupContext="shape" transform="translate(31.7924,534.066) rotate(-90)">
			<title>Sheet.482</title>
			<desc>Process</desc>
			<v:textBlock v:margins="rect(4,4,4,4)" v:tabSpace="42.5197"/>
			<v:textRect cx="70.8661" cy="556.341" width="141.74" height="25.5118"/>
			<g id="shadow482-183" v:groupContext="shadow" v:shadowOffsetX="0.345598" v:shadowOffsetY="-1.97279" v:shadowType="1"
					transform="matrix(1,0,0,1,-1.97279,0.345598)" class="st1">
				<rect x="0" y="543.585" width="141.732" height="25.5118" class="st2"/>
			</g>
			<rect x="0" y="543.585" width="141.732" height="25.5118" class="st3"/>
			<text x="4" y="559.94" class="st14" v:langID="1044"><v:paragraph/><v:tabList/>Process</text>		</g>
		<g id="shape483-188" v:mID="483" v:groupContext="shape" transform="translate(60.1388,534.066) rotate(-90)">
			<title>Sheet.483</title>
			<desc>Profile</desc>
			<v:textBlock v:margins="rect(4,4,4,4)" v:tabSpace="42.5197"/>
			<v:textRect cx="70.8661" cy="556.341" width="141.74" height="25.5118"/>
			<g id="shadow483-189" v:groupContext="shadow" v:shadowOffsetX="0.345598" v:shadowOffsetY="-1.97279" v:shadowType="1"
					transform="matrix(1,0,0,1,-1.97279,0.345598)" class="st1">
				<rect x="0" y="543.585" width="141.732" height="25.5118" class="st2"/>
			</g>
			<rect x="0" y="543.585" width="141.732" height="25.5118" class="st3"/>
			<text x="4" y="559.94" class="st14" v:langID="1044"><v:paragraph/><v:tabList/>Profile</text>		</g>
		<g id="shape484-194" v:mID="484" v:groupContext="shape" transform="translate(88.4853,534.066) rotate(-90)">
			<title>Sheet.484</title>
			<desc>Register</desc>
			<v:textBlock v:margins="rect(4,4,4,4)" v:tabSpace="42.5197"/>
			<v:textRect cx="70.8661" cy="556.341" width="141.74" height="25.5118"/>
			<g id="shadow484-195" v:groupContext="shadow" v:shadowOffsetX="0.345598" v:shadowOffsetY="-1.97279" v:shadowType="1"
					transform="matrix(1,0,0,1,-1.97279,0.345598)" class="st1">
				<rect x="0" y="543.585" width="141.732" height="25.5118" class="st2"/>
			</g>
			<rect x="0" y="543.585" width="141.732" height="25.5118" class="st3"/>
			<text x="4" y="559.94" class="st14" v:langID="1044"><v:paragraph/><v:tabList/>Register</text>		</g>
		<g id="shape485-200" v:mID="485" v:groupContext="shape" transform="translate(116.832,534.066) rotate(-90)">
			<title>Sheet.485</title>
			<desc>Validation</desc>
			<v:textBlock v:margins="rect(4,4,4,4)" v:tabSpace="42.5197"/>
			<v:textRect cx="70.8661" cy="556.341" width="141.74" height="25.5118"/>
			<g id="shadow485-201" v:groupContext="shadow" v:shadowOffsetX="0.345598" v:shadowOffsetY="-1.97279" v:shadowType="1"
					transform="matrix(1,0,0,1,-1.97279,0.345598)" class="st1">
				<rect x="0" y="543.585" width="141.732" height="25.5118" class="st2"/>
			</g>
			<rect x="0" y="543.585" width="141.732" height="25.5118" class="st3"/>
			<text x="4" y="559.94" class="st14" v:langID="1044"><v:paragraph/><v:tabList/>Validation</text>		</g>
		<a xlink:href="/Content/RedirectToContent/?ContentType=Resource&#38;Title=Archive">
			<g id="shape488-206" v:mID="488" v:groupContext="shape" transform="translate(172.858,-20.8585)">
				<title>Sheet.488</title>
				<g id="shadow488-207" v:groupContext="shadow" v:shadowOffsetX="0.345598" v:shadowOffsetY="-1.97279"
						v:shadowType="1" transform="matrix(1,0,0,1,0.345598,1.97279)" class="st1">
					<rect x="0" y="384.845" width="113.386" height="184.252" class="st2"/>
				</g>
				<rect x="0" y="384.845" width="113.386" height="184.252" class="st4"/>
			</g>
		</a>
		<g id="shape489-211" v:mID="489" v:groupContext="shape" transform="translate(142.102,-182.747)">
			<title>Sheet.489</title>
			<desc>Altinn.App.Common</desc>
			<v:textBlock v:margins="rect(4,4,4,4)" v:tabSpace="42.5197"/>
			<v:textRect cx="81.9921" cy="561.16" width="163.99" height="15.874"/>
			<rect x="0" y="553.223" width="163.984" height="15.874" class="st10"/>
			<text x="32.38" y="564.76" class="st11" v:langID="1044"><v:paragraph v:horizAlign="1"/><v:tabList/>Altinn.App.Common</text>		</g>
		<g id="shape490-214" v:mID="490" v:groupContext="shape" transform="translate(-506.79,321.467) rotate(-90)">
			<title>Sheet.490</title>
			<desc>Custom Api A</desc>
			<v:textBlock v:margins="rect(4,4,4,4)" v:tabSpace="42.5197"/>
			<v:textRect cx="70.8661" cy="556.341" width="141.74" height="25.5118"/>
			<g id="shadow490-215" v:groupContext="shadow" v:shadowOffsetX="0.345598" v:shadowOffsetY="-1.97279" v:shadowType="1"
					transform="matrix(1,0,0,1,-1.97279,0.345598)" class="st1">
				<rect x="0" y="543.585" width="141.732" height="25.5118" class="st2"/>
			</g>
			<rect x="0" y="543.585" width="141.732" height="25.5118" class="st3"/>
			<text x="4" y="559.94" class="st14" v:langID="1044"><v:paragraph/><v:tabList/>Custom Api A</text>		</g>
		<g id="shape492-220" v:mID="492" v:groupContext="shape" transform="translate(-478.444,321.467) rotate(-90)">
			<title>Sheet.492</title>
			<desc>Custom Api B</desc>
			<v:textBlock v:margins="rect(4,4,4,4)" v:tabSpace="42.5197"/>
			<v:textRect cx="70.8661" cy="556.341" width="141.74" height="25.5118"/>
			<g id="shadow492-221" v:groupContext="shadow" v:shadowOffsetX="0.345598" v:shadowOffsetY="-1.97279" v:shadowType="1"
					transform="matrix(1,0,0,1,-1.97279,0.345598)" class="st1">
				<rect x="0" y="543.585" width="141.732" height="25.5118" class="st2"/>
			</g>
			<rect x="0" y="543.585" width="141.732" height="25.5118" class="st3"/>
			<text x="4" y="559.94" class="st14" v:langID="1044"><v:paragraph/><v:tabList/>Custom Api B</text>		</g>
		<g id="shape493-226" v:mID="493" v:groupContext="shape" transform="translate(-450.097,321.467) rotate(-90)">
			<title>Sheet.493</title>
			<desc>Custom Api C</desc>
			<v:textBlock v:margins="rect(4,4,4,4)" v:tabSpace="42.5197"/>
			<v:textRect cx="70.8661" cy="556.341" width="141.74" height="25.5118"/>
			<g id="shadow493-227" v:groupContext="shadow" v:shadowOffsetX="0.345598" v:shadowOffsetY="-1.97279" v:shadowType="1"
					transform="matrix(1,0,0,1,-1.97279,0.345598)" class="st1">
				<rect x="0" y="543.585" width="141.732" height="25.5118" class="st2"/>
			</g>
			<rect x="0" y="543.585" width="141.732" height="25.5118" class="st3"/>
			<text x="4" y="559.94" class="st14" v:langID="1044"><v:paragraph/><v:tabList/>Custom Api C</text>		</g>
		<g id="shape494-232" v:mID="494" v:groupContext="shape" transform="translate(-506.79,534.066) rotate(-90)">
			<title>Sheet.494</title>
			<desc>App</desc>
			<v:textBlock v:margins="rect(4,4,4,4)" v:tabSpace="42.5197"/>
			<v:textRect cx="70.8661" cy="556.341" width="141.74" height="25.5118"/>
			<g id="shadow494-233" v:groupContext="shadow" v:shadowOffsetX="0.345598" v:shadowOffsetY="-1.97279" v:shadowType="1"
					transform="matrix(1,0,0,1,-1.97279,0.345598)" class="st1">
				<rect x="0" y="543.585" width="141.732" height="25.5118" class="st2"/>
			</g>
			<rect x="0" y="543.585" width="141.732" height="25.5118" class="st3"/>
			<text x="4" y="559.94" class="st14" v:langID="1044"><v:paragraph/><v:tabList/>App</text>		</g>
		<g id="shape495-238" v:mID="495" v:groupContext="shape" transform="translate(-478.444,534.066) rotate(-90)">
			<title>Sheet.495</title>
			<desc>Custom Client X</desc>
			<v:textBlock v:margins="rect(4,4,4,4)" v:tabSpace="42.5197"/>
			<v:textRect cx="70.8661" cy="556.341" width="141.74" height="25.5118"/>
			<g id="shadow495-239" v:groupContext="shadow" v:shadowOffsetX="0.345598" v:shadowOffsetY="-1.97279" v:shadowType="1"
					transform="matrix(1,0,0,1,-1.97279,0.345598)" class="st1">
				<rect x="0" y="543.585" width="141.732" height="25.5118" class="st2"/>
			</g>
			<rect x="0" y="543.585" width="141.732" height="25.5118" class="st3"/>
			<text x="4" y="559.94" class="st14" v:langID="1044"><v:paragraph/><v:tabList/>Custom Client X</text>		</g>
		<g id="shape496-244" v:mID="496" v:groupContext="shape" transform="translate(-450.097,534.066) rotate(-90)">
			<title>Sheet.496</title>
			<desc>Custom Client Z</desc>
			<v:textBlock v:margins="rect(4,4,4,4)" v:tabSpace="42.5197"/>
			<v:textRect cx="70.8661" cy="556.341" width="141.74" height="25.5118"/>
			<g id="shadow496-245" v:groupContext="shadow" v:shadowOffsetX="0.345598" v:shadowOffsetY="-1.97279" v:shadowType="1"
					transform="matrix(1,0,0,1,-1.97279,0.345598)" class="st1">
				<rect x="0" y="543.585" width="141.732" height="25.5118" class="st2"/>
			</g>
			<rect x="0" y="543.585" width="141.732" height="25.5118" class="st3"/>
			<text x="4" y="559.94" class="st14" v:langID="1044"><v:paragraph/><v:tabList/>Custom Client Z</text>		</g>
		<g id="shape497-250" v:mID="497" v:groupContext="shape" transform="translate(-365.058,534.066) rotate(-90)">
			<title>Sheet.497</title>
			<desc>AppResource</desc>
			<v:textBlock v:margins="rect(4,4,4,4)" v:tabSpace="42.5197"/>
			<v:textRect cx="70.8661" cy="556.341" width="141.74" height="25.5118"/>
			<g id="shadow497-251" v:groupContext="shadow" v:shadowOffsetX="0.345598" v:shadowOffsetY="-1.97279" v:shadowType="1"
					transform="matrix(1,0,0,1,-1.97279,0.345598)" class="st1">
				<rect x="0" y="543.585" width="141.732" height="25.5118" class="st2"/>
			</g>
			<rect x="0" y="543.585" width="141.732" height="25.5118" class="st3"/>
			<text x="4" y="559.94" class="st14" v:langID="1044"><v:paragraph/><v:tabList/>AppResource</text>		</g>
		<g id="shape498-256" v:mID="498" v:groupContext="shape" transform="translate(12.1337,-502.748)">
			<title>Sheet.498</title>
			<g id="shadow498-257" v:groupContext="shadow" v:shadowOffsetX="0.345598" v:shadowOffsetY="-1.97279" v:shadowType="1"
					transform="matrix(1,0,0,1,0.345598,1.97279)" class="st1">
				<rect x="0" y="526.578" width="717.165" height="42.5197" class="st5"/>
			</g>
			<rect x="0" y="526.578" width="717.165" height="42.5197" class="st7"/>
		</g>
		<g id="shape18-265" v:mID="18" v:groupContext="shape" transform="translate(36.7951,-505.583)">
			<title>Sheet.18</title>
			<desc>AuthenticationHandler</desc>
			<v:textBlock v:margins="rect(4,4,4,4)" v:tabSpace="42.5197"/>
			<v:textRect cx="340.157" cy="556.341" width="680.32" height="25.5118"/>
			<g id="shadow18-266" v:groupContext="shadow" v:shadowOffsetX="0.345598" v:shadowOffsetY="-1.97279" v:shadowType="1"
					transform="matrix(1,0,0,1,0.345598,1.97279)" class="st1">
				<rect x="0" y="543.585" width="680.315" height="25.5118" class="st2"/>
			</g>
			<rect x="0" y="543.585" width="680.315" height="25.5118" class="st13"/>
			<text x="284.36" y="559.94" class="st14" v:langID="1044"><v:paragraph v:horizAlign="1"/><v:tabList/>AuthenticationHandler</text>		</g>
		<g id="shape499-271" v:mID="499" v:groupContext="shape" transform="translate(12.1337,-472.261)">
			<title>Sheet.499</title>
			<desc>Altinn.Common.PEP</desc>
			<v:textBlock v:margins="rect(4,4,4,4)" v:tabSpace="42.5197"/>
			<v:textRect cx="68.0315" cy="561.16" width="136.07" height="15.874"/>
			<rect x="0" y="553.223" width="136.063" height="15.874" class="st10"/>
			<text x="4" y="564.76" class="st11" v:langID="1044"><v:paragraph/><v:tabList/>Altinn.Common.PEP</text>		</g>
		<g id="shape500-274" v:mID="500" v:groupContext="shape" transform="translate(12.1337,-531.095)">
			<title>Sheet.500</title>
			<desc>JWTCookieAuthentication</desc>
			<v:textBlock v:margins="rect(4,4,4,4)" v:tabSpace="42.5197"/>
			<v:textRect cx="68.0315" cy="561.16" width="136.07" height="15.874"/>
			<rect x="0" y="553.223" width="136.063" height="15.874" class="st10"/>
			<text x="4" y="564.76" class="st11" v:langID="1044"><v:paragraph/><v:tabList/>JWTCookieAuthentication</text>		</g>
		<g id="shape503-277" v:mID="503" v:groupContext="shape" transform="translate(8.44873,-551.504)">
			<title>Sheet.503</title>
			<desc>App (asp.net template)</desc>
			<v:textBlock v:margins="rect(4,4,4,4)" v:tabSpace="42.5197"/>
			<v:textRect cx="68.0315" cy="561.16" width="136.07" height="15.874"/>
			<rect x="0" y="553.223" width="136.063" height="15.874" class="st10"/>
			<text x="4" y="564.76" class="st12" v:langID="1044"><v:paragraph/><v:tabList/>App (asp.net template)</text>		</g>
	</g>
</svg>
