<?xml version="1.0" encoding="UTF-8" standalone="no"?>
<!DOCTYPE svg PUBLIC "-//W3C//DTD SVG 1.1//EN" "http://www.w3.org/Graphics/SVG/1.1/DTD/svg11.dtd">
<!-- Generated by Microsoft Visio, SVG Export AltinnApps_SolutionArchitecture.svg Page-1 -->
<svg xmlns="http://www.w3.org/2000/svg" xmlns:xlink="http://www.w3.org/1999/xlink" xmlns:ev="http://www.w3.org/2001/xml-events"
		xmlns:v="http://schemas.microsoft.com/visio/2003/SVGExtensions/" width="12.0831in" height="7.75374in"
		viewBox="0 0 869.982 558.269" xml:space="preserve" color-interpolation-filters="sRGB" class="st20">
	<v:documentProperties v:langID="1033" v:metric="true" v:viewMarkup="false">
		<v:userDefs>
			<v:ud v:nameU="DisableSpdActionTags" v:prompt="" v:val="VT0(0):26"/>
		</v:userDefs>
	</v:documentProperties>

	<style type="text/css">
	<![CDATA[
		.st1 {visibility:visible}
		.st2 {fill:#5b9bd5;fill-opacity:0.22;filter:url(#filter_2);stroke:#5b9bd5;stroke-opacity:0.22}
		.st3 {fill:#fee599;stroke:#c7c8c8;stroke-width:0.25}
		.st4 {fill:#41719c;stroke:#c7c8c8;stroke-width:0.25}
		.st5 {fill:#feffff;font-family:Calibri;font-size:0.833336em}
		.st6 {fill:#ffff00;stroke:#c7c8c8;stroke-width:0.25}
		.st7 {fill:#000000;font-family:Calibri;font-size:0.833336em}
		.st8 {fill:#5b9bd5;fill-opacity:0.22;filter:url(#filter_2)}
		.st9 {fill:none;filter:url(#filter_2);stroke:#5b9bd5;stroke-opacity:0.22}
		.st10 {fill:#5b9bd5}
		.st11 {stroke:#c7c8c8;stroke-width:0.25}
		.st12 {fill:#5b9bd5;stroke:#c7c8c8;stroke-width:0.25}
		.st13 {fill:none;stroke:none;stroke-width:0.25}
		.st14 {fill:#000000;font-family:Calibri;font-size:1.00001em}
		.st15 {fill:#fec000;stroke:#c7c8c8;stroke-width:0.25}
		.st16 {fill:#00b050;stroke:#c7c8c8;stroke-width:0.25}
		.st17 {fill:none;filter:url(#filter_2);stroke:#5b9bd5;stroke-dasharray:33.75,20.25;stroke-opacity:0.22}
		.st18 {fill:none;stroke:#c7c8c8;stroke-dasharray:33.75,20.25;stroke-width:2.25}
		.st19 {fill:#5b9bd5;font-family:Calibri;font-size:3em}
		.st20 {fill:none;fill-rule:evenodd;font-size:12px;overflow:visible;stroke-linecap:square;stroke-miterlimit:3}
	]]>
	</style>

	<defs id="Filters">
		<filter id="filter_2">
			<feGaussianBlur stdDeviation="2"/>
		</filter>
	</defs>
	<g v:mID="0" v:index="1" v:groupContext="foregroundPage">
		<title>Page-1</title>
		<v:pageProperties v:drawingScale="0.0393701" v:pageScale="0.0393701" v:drawingUnits="24" v:shadowOffsetX="8.50394"
				v:shadowOffsetY="-8.50394"/>
		<v:layer v:name="Flowchart" v:index="0"/>
		<g id="shape365-1" v:mID="365" v:groupContext="shape" transform="translate(83.1495,-11.7671)">
			<title>Rectangle.365</title>
			<v:userDefs>
				<v:ud v:nameU="visVersion" v:val="VT0(15):26"/>
			</v:userDefs>
			<g id="shadow365-2" v:groupContext="shadow" v:shadowOffsetX="0.345598" v:shadowOffsetY="-1.97279" v:shadowType="1"
					transform="matrix(1,0,0,1,0.345598,1.97279)" class="st1">
				<rect x="0" y="388.19" width="500.315" height="170.079" class="st2"/>
			</g>
			<rect x="0" y="388.19" width="500.315" height="170.079" class="st3"/>
		</g>
		<g id="shape246-6" v:mID="246" v:groupContext="shape" transform="translate(83.1495,-187.515)">
			<title>Rectangle.246</title>
			<desc>Web interface</desc>
			<v:userDefs>
				<v:ud v:nameU="visVersion" v:val="VT0(15):26"/>
			</v:userDefs>
			<v:textBlock v:margins="rect(4,4,4,4)" v:tabSpace="42.5197"/>
			<v:textRect cx="49.6063" cy="551.182" width="99.22" height="14.1732"/>
			<g id="shadow246-7" v:groupContext="shadow" v:shadowOffsetX="0.345598" v:shadowOffsetY="-1.97279" v:shadowType="1"
					transform="matrix(1,0,0,1,0.345598,1.97279)" class="st1">
				<rect x="0" y="544.096" width="99.2126" height="14.1732" class="st2"/>
			</g>
			<rect x="0" y="544.096" width="99.2126" height="14.1732" class="st4"/>
			<text x="20.71" y="554.18" class="st5" v:langID="1044"><v:paragraph v:horizAlign="1"/><v:tabList/>Web interface</text>		</g>
		<g id="shape247-12" v:mID="247" v:groupContext="shape" transform="translate(182.362,-187.515)">
			<title>Rectangle.247</title>
			<desc>REST API</desc>
			<v:userDefs>
				<v:ud v:nameU="visVersion" v:val="VT0(15):26"/>
			</v:userDefs>
			<v:textBlock v:margins="rect(4,4,4,4)" v:tabSpace="42.5197"/>
			<v:textRect cx="202.677" cy="551.182" width="405.36" height="14.1732"/>
			<g id="shadow247-13" v:groupContext="shadow" v:shadowOffsetX="0.345598" v:shadowOffsetY="-1.97279" v:shadowType="1"
					transform="matrix(1,0,0,1,0.345598,1.97279)" class="st1">
				<rect x="0" y="544.096" width="405.354" height="14.1732" class="st2"/>
			</g>
			<rect x="0" y="544.096" width="405.354" height="14.1732" class="st6"/>
			<text x="184.92" y="554.18" class="st7" v:langID="1044"><v:paragraph v:horizAlign="1"/><v:tabList/>REST API</text>		</g>
		<g id="shape250-18" v:mID="250" v:groupContext="shape" v:layerMember="0" transform="translate(451.653,-378.854)">
			<title>Person.250</title>
			<v:userDefs>
				<v:ud v:nameU="visVersion" v:prompt="" v:val="VT0(15):26"/>
				<v:ud v:nameU="ConnGap" v:prompt="" v:val="VT0(0.00012908222537757):24"/>
			</v:userDefs>
			<g id="shadow250-19" v:groupContext="shadow" v:shadowOffsetX="0.345598" v:shadowOffsetY="-1.97279" v:shadowType="1"
					transform="matrix(1,0,0,1,0.345598,1.97279)" class="st1">
				<path d="M27.48 508.87 L6.54 508.87 C5.03 508.87 3.64 509.37 2.54 510.21 C1.77 510.8 1.13 511.55 0.69 512.41 C0.25
							 513.27 0 514.23 0 515.26 L0 539.53 L5.73 539.53 L5.73 558.27 L28.07 558.27 L28.07 539.53 L34.02 539.53
							 L34.02 515.26 C34.02 513.78 33.5 512.43 32.64 511.34 C32.04 510.59 31.27 509.97 30.39 509.54 C29.52
							 509.11 28.53 508.87 27.48 508.87 ZM26.79 496.86 A9.78293 9.45354 -180 1 0 7.22 496.86 A9.78293 9.45354
							 -180 1 0 26.79 496.86 Z" class="st8"/>
				<path d="M27.48 508.87 L6.54 508.87 C5.03 508.87 3.64 509.37 2.54 510.21 C1.77 510.8 1.13 511.55 0.69 512.41 C0.25
							 513.27 0 514.23 0 515.26 L0 539.53 L5.73 539.53 L5.73 558.27 L28.07 558.27 L28.07 539.53 L34.02 539.53
							 L34.02 515.26 C34.02 513.78 33.5 512.43 32.64 511.34 C32.04 510.59 31.27 509.97 30.39 509.54 C29.52
							 509.11 28.53 508.87 27.48 508.87" class="st9"/>
				<path d="M17.01 558.27 L17.01 543.29" class="st9"/>
				<path d="M5.73 539.53 L5.73 526.6" class="st9"/>
				<path d="M28.07 539.53 L28.07 526.6" class="st9"/>
				<path d="M26.79 496.86 A9.78293 9.45354 -180 1 0 7.22 496.86 A9.78293 9.45354 -180 1 0 26.79 496.86" class="st9"/>
			</g>
			<path d="M27.48 508.87 L6.54 508.87 C5.03 508.87 3.64 509.37 2.54 510.21 C1.77 510.8 1.13 511.55 0.69 512.41 C0.25 513.27
						 0 514.23 0 515.26 L0 539.53 L5.73 539.53 L5.73 558.27 L28.07 558.27 L28.07 539.53 L34.02 539.53 L34.02 515.26
						 C34.02 513.78 33.5 512.43 32.64 511.34 C32.04 510.59 31.27 509.97 30.39 509.54 C29.52 509.11 28.53 508.87
						 27.48 508.87 ZM26.79 496.86 A9.78293 9.45354 -180 1 0 7.22 496.86 A9.78293 9.45354 -180 1 0 26.79 496.86
						 Z" class="st10"/>
			<path d="M27.48 508.87 L6.54 508.87 C5.03 508.87 3.64 509.37 2.54 510.21 C1.77 510.8 1.13 511.55 0.69 512.41 C0.25 513.27
						 0 514.23 0 515.26 L0 539.53 L5.73 539.53 L5.73 558.27 L28.07 558.27 L28.07 539.53 L34.02 539.53 L34.02 515.26
						 C34.02 513.78 33.5 512.43 32.64 511.34 C32.04 510.59 31.27 509.97 30.39 509.54 C29.52 509.11 28.53 508.87
						 27.48 508.87" class="st11"/>
			<path d="M17.01 558.27 L17.01 543.29" class="st11"/>
			<path d="M5.73 539.53 L5.73 526.6" class="st11"/>
			<path d="M28.07 539.53 L28.07 526.6" class="st11"/>
			<path d="M26.79 496.86 A9.78293 9.45354 -180 1 0 7.22 496.86 A9.78293 9.45354 -180 1 0 26.79 496.86" class="st11"/>
		</g>
		<g id="shape386-34" v:mID="386" v:groupContext="shape" transform="translate(210.709,-88.3025)">
			<title>Sheet.386</title>
			<desc>FormFilling (T3.0)</desc>
			<v:textBlock v:margins="rect(4,4,4,4)" v:tabSpace="42.5197"/>
			<v:textRect cx="56.6929" cy="545.513" width="113.39" height="25.5118"/>
			<g id="shadow386-35" v:groupContext="shadow" v:shadowOffsetX="0.345598" v:shadowOffsetY="-1.97279" v:shadowType="1"
					transform="matrix(1,0,0,1,0.345598,1.97279)" class="st1">
				<rect x="0" y="532.757" width="113.386" height="25.5118" class="st2"/>
			</g>
			<rect x="0" y="532.757" width="113.386" height="25.5118" class="st12"/>
			<text x="21.22" y="548.51" class="st5" v:langID="1044"><v:paragraph v:horizAlign="1"/><v:tabList/>FormFilling (T3.0)</text>		</g>
		<g id="shape387-40" v:mID="387" v:groupContext="shape" transform="translate(91.6534,-116.649)">
			<title>Sheet.387</title>
			<desc>Lookup (T3.0)</desc>
			<v:textBlock v:margins="rect(4,4,4,4)" v:tabSpace="42.5197"/>
			<v:textRect cx="56.6929" cy="545.513" width="113.39" height="25.5118"/>
			<g id="shadow387-41" v:groupContext="shadow" v:shadowOffsetX="0.345598" v:shadowOffsetY="-1.97279" v:shadowType="1"
					transform="matrix(1,0,0,1,0.345598,1.97279)" class="st1">
				<rect x="0" y="532.757" width="113.386" height="25.5118" class="st2"/>
			</g>
			<rect x="0" y="532.757" width="113.386" height="25.5118" class="st12"/>
			<text x="28.86" y="548.51" class="st5" v:langID="1044"><v:paragraph v:horizAlign="1"/><v:tabList/>Lookup (T3.0)</text>		</g>
		<g id="shape388-46" v:mID="388" v:groupContext="shape" transform="translate(210.709,-116.649)">
			<title>Sheet.388</title>
			<desc>Signing (T3.0)</desc>
			<v:textBlock v:margins="rect(4,4,4,4)" v:tabSpace="42.5197"/>
			<v:textRect cx="56.6929" cy="545.513" width="113.39" height="25.5118"/>
			<g id="shadow388-47" v:groupContext="shadow" v:shadowOffsetX="0.345598" v:shadowOffsetY="-1.97279" v:shadowType="1"
					transform="matrix(1,0,0,1,0.345598,1.97279)" class="st1">
				<rect x="0" y="532.757" width="113.386" height="25.5118" class="st2"/>
			</g>
			<rect x="0" y="532.757" width="113.386" height="25.5118" class="st12"/>
			<text x="29.21" y="548.51" class="st5" v:langID="1044"><v:paragraph v:horizAlign="1"/><v:tabList/>Signing (T3.0)</text>		</g>
		<g id="shape389-52" v:mID="389" v:groupContext="shape" transform="translate(329.764,-116.649)">
			<title>Sheet.389</title>
			<desc>Payment (T3.0)</desc>
			<v:textBlock v:margins="rect(4,4,4,4)" v:tabSpace="42.5197"/>
			<v:textRect cx="56.6929" cy="545.513" width="113.39" height="25.5118"/>
			<g id="shadow389-53" v:groupContext="shadow" v:shadowOffsetX="0.345598" v:shadowOffsetY="-1.97279" v:shadowType="1"
					transform="matrix(1,0,0,1,0.345598,1.97279)" class="st1">
				<rect x="0" y="532.757" width="113.386" height="25.5118" class="st2"/>
			</g>
			<rect x="0" y="532.757" width="113.386" height="25.5118" class="st12"/>
			<text x="25.74" y="548.51" class="st5" v:langID="1044"><v:paragraph v:horizAlign="1"/><v:tabList/>Payment (T3.0)</text>		</g>
		<g id="shape390-58" v:mID="390" v:groupContext="shape" transform="translate(329.764,-88.3025)">
			<title>Sheet.390</title>
			<desc>SendIn (T3.0)</desc>
			<v:textBlock v:margins="rect(4,4,4,4)" v:tabSpace="42.5197"/>
			<v:textRect cx="56.6929" cy="545.513" width="113.39" height="25.5118"/>
			<g id="shadow390-59" v:groupContext="shadow" v:shadowOffsetX="0.345598" v:shadowOffsetY="-1.97279" v:shadowType="1"
					transform="matrix(1,0,0,1,0.345598,1.97279)" class="st1">
				<rect x="0" y="532.757" width="113.386" height="25.5118" class="st2"/>
			</g>
			<rect x="0" y="532.757" width="113.386" height="25.5118" class="st12"/>
			<text x="29.84" y="548.51" class="st5" v:langID="1044"><v:paragraph v:horizAlign="1"/><v:tabList/>SendIn (T3.0)</text>		</g>
		<g id="shape391-64" v:mID="391" v:groupContext="shape" transform="translate(445.984,-88.3025)">
			<title>Sheet.391</title>
			<desc>Receipt (T3.0)</desc>
			<v:textBlock v:margins="rect(4,4,4,4)" v:tabSpace="42.5197"/>
			<v:textRect cx="56.6929" cy="545.513" width="113.39" height="25.5118"/>
			<g id="shadow391-65" v:groupContext="shadow" v:shadowOffsetX="0.345598" v:shadowOffsetY="-1.97279" v:shadowType="1"
					transform="matrix(1,0,0,1,0.345598,1.97279)" class="st1">
				<rect x="0" y="532.757" width="113.386" height="25.5118" class="st2"/>
			</g>
			<rect x="0" y="532.757" width="113.386" height="25.5118" class="st12"/>
			<text x="28.51" y="548.51" class="st5" v:langID="1044"><v:paragraph v:horizAlign="1"/><v:tabList/>Receipt (T3.0)</text>		</g>
		<g id="shape241-70" v:mID="241" v:groupContext="shape" transform="translate(83.1495,-169.09)">
			<title>Sheet.241</title>
			<desc>AltinnCore.Runtime</desc>
			<v:textBlock v:margins="rect(4,4,4,4)" v:tabSpace="42.5197"/>
			<v:textRect cx="90.7087" cy="551.182" width="181.42" height="14.1732"/>
			<rect x="0" y="544.096" width="181.417" height="14.1732" class="st13"/>
			<text x="4" y="554.78" class="st14" v:langID="1044"><v:paragraph/><v:tabList/>AltinnCore.Runtime</text>		</g>
		<g id="shape476-73" v:mID="476" v:groupContext="shape" transform="translate(445.984,-116.649)">
			<title>Sheet.476</title>
			<desc>WorkFlow (T3.0)</desc>
			<v:textBlock v:margins="rect(4,4,4,4)" v:tabSpace="42.5197"/>
			<v:textRect cx="56.6929" cy="545.513" width="113.39" height="25.5118"/>
			<g id="shadow476-74" v:groupContext="shadow" v:shadowOffsetX="0.345598" v:shadowOffsetY="-1.97279" v:shadowType="1"
					transform="matrix(1,0,0,1,0.345598,1.97279)" class="st1">
				<rect x="0" y="532.757" width="113.386" height="25.5118" class="st2"/>
			</g>
			<rect x="0" y="532.757" width="113.386" height="25.5118" class="st12"/>
			<text x="23.01" y="548.51" class="st5" v:langID="1044"><v:paragraph v:horizAlign="1"/><v:tabList/>WorkFlow (T3.0)</text>		</g>
		<g id="shape478-79" v:mID="478" v:groupContext="shape" transform="translate(91.6534,-88.3025)">
			<title>Sheet.478</title>
			<desc>Print (T3.0)</desc>
			<v:textBlock v:margins="rect(4,4,4,4)" v:tabSpace="42.5197"/>
			<v:textRect cx="56.6929" cy="545.513" width="113.39" height="25.5118"/>
			<g id="shadow478-80" v:groupContext="shadow" v:shadowOffsetX="0.345598" v:shadowOffsetY="-1.97279" v:shadowType="1"
					transform="matrix(1,0,0,1,0.345598,1.97279)" class="st1">
				<rect x="0" y="532.757" width="113.386" height="25.5118" class="st2"/>
			</g>
			<rect x="0" y="532.757" width="113.386" height="25.5118" class="st12"/>
			<text x="33.99" y="548.51" class="st5" v:langID="1044"><v:paragraph v:horizAlign="1"/><v:tabList/>Print (T3.0)</text>		</g>
		<g id="shape491-85" v:mID="491" v:groupContext="shape" transform="translate(91.6534,-17.4364)">
			<title>Sheet.491</title>
			<desc>Calculation</desc>
			<v:textBlock v:margins="rect(4,4,4,4)" v:tabSpace="42.5197"/>
			<v:textRect cx="56.6929" cy="545.513" width="113.39" height="25.5118"/>
			<g id="shadow491-86" v:groupContext="shadow" v:shadowOffsetX="0.345598" v:shadowOffsetY="-1.97279" v:shadowType="1"
					transform="matrix(1,0,0,1,0.345598,1.97279)" class="st1">
				<rect x="0" y="532.757" width="113.386" height="25.5118" class="st2"/>
			</g>
			<rect x="0" y="532.757" width="113.386" height="25.5118" class="st15"/>
			<text x="34.11" y="548.51" class="st5" v:langID="1044"><v:paragraph v:horizAlign="1"/><v:tabList/>Calculation</text>		</g>
		<g id="shape492-91" v:mID="492" v:groupContext="shape" transform="translate(207.874,-17.4364)">
			<title>Sheet.492</title>
			<desc>API Calls</desc>
			<v:textBlock v:margins="rect(4,4,4,4)" v:tabSpace="42.5197"/>
			<v:textRect cx="56.6929" cy="545.513" width="113.39" height="25.5118"/>
			<g id="shadow492-92" v:groupContext="shadow" v:shadowOffsetX="0.345598" v:shadowOffsetY="-1.97279" v:shadowType="1"
					transform="matrix(1,0,0,1,0.345598,1.97279)" class="st1">
				<rect x="0" y="532.757" width="113.386" height="25.5118" class="st2"/>
			</g>
			<rect x="0" y="532.757" width="113.386" height="25.5118" class="st15"/>
			<text x="39.52" y="548.51" class="st5" v:langID="1044"><v:paragraph v:horizAlign="1"/><v:tabList/>API Calls</text>		</g>
		<g id="shape495-97" v:mID="495" v:groupContext="shape" transform="translate(182.362,-215.936)">
			<title>Rectangle.495</title>
			<v:userDefs>
				<v:ud v:nameU="visVersion" v:val="VT0(15):26"/>
			</v:userDefs>
			<g id="shadow495-98" v:groupContext="shadow" v:shadowOffsetX="0.345598" v:shadowOffsetY="-1.97279" v:shadowType="1"
					transform="matrix(1,0,0,1,0.345598,1.97279)" class="st1">
				<rect x="0" y="435.812" width="394.016" height="122.457" class="st2"/>
			</g>
			<rect x="0" y="435.812" width="394.016" height="122.457" class="st16"/>
		</g>
		<g id="shape496-102" v:mID="496" v:groupContext="shape" transform="translate(182.362,-312.24)">
			<title>Sheet.496</title>
			<desc>Service FrontEnd T3.0 (REACT)</desc>
			<v:textBlock v:margins="rect(4,4,4,4)" v:tabSpace="42.5197"/>
			<v:textRect cx="90.7087" cy="551.182" width="181.42" height="14.1732"/>
			<rect x="0" y="544.096" width="181.417" height="14.1732" class="st13"/>
			<text x="4" y="554.78" class="st14" v:langID="1044"><v:paragraph/><v:tabList/>Service FrontEnd T3.0 (REACT)</text>		</g>
		<g id="shape497-105" v:mID="497" v:groupContext="shape" transform="translate(196.535,-279.641)">
			<title>Rectangle.497</title>
			<desc>FormPages</desc>
			<v:userDefs>
				<v:ud v:nameU="visVersion" v:val="VT0(15):26"/>
			</v:userDefs>
			<v:textBlock v:margins="rect(4,4,4,4)" v:tabSpace="42.5197"/>
			<v:textRect cx="56.6929" cy="544.804" width="113.39" height="26.9291"/>
			<g id="shadow497-106" v:groupContext="shadow" v:shadowOffsetX="0.345598" v:shadowOffsetY="-1.97279" v:shadowType="1"
					transform="matrix(1,0,0,1,0.345598,1.97279)" class="st1">
				<rect x="0" y="531.34" width="113.386" height="26.9291" class="st2"/>
			</g>
			<rect x="0" y="531.34" width="113.386" height="26.9291" class="st12"/>
			<text x="34.25" y="547.8" class="st5" v:langID="1044"><v:paragraph v:horizAlign="1"/><v:tabList/>FormPages</text>		</g>
		<g id="shape498-111" v:mID="498" v:groupContext="shape" transform="translate(328.346,-281.058)">
			<title>Rectangle.498</title>
			<desc>Form Dynamics</desc>
			<v:userDefs>
				<v:ud v:nameU="visVersion" v:val="VT0(15):26"/>
			</v:userDefs>
			<v:textBlock v:margins="rect(4,4,4,4)" v:tabSpace="42.5197"/>
			<v:textRect cx="56.6929" cy="545.513" width="113.39" height="25.5118"/>
			<g id="shadow498-112" v:groupContext="shadow" v:shadowOffsetX="0.345598" v:shadowOffsetY="-1.97279" v:shadowType="1"
					transform="matrix(1,0,0,1,0.345598,1.97279)" class="st1">
				<rect x="0" y="532.757" width="113.386" height="25.5118" class="st2"/>
			</g>
			<rect x="0" y="532.757" width="113.386" height="25.5118" class="st12"/>
			<text x="25.32" y="548.51" class="st5" v:langID="1044"><v:paragraph v:horizAlign="1"/><v:tabList/>Form Dynamics</text>		</g>
		<g id="shape499-117" v:mID="499" v:groupContext="shape" transform="translate(196.535,-244.208)">
			<title>Rectangle.499</title>
			<desc>Client Validation</desc>
			<v:userDefs>
				<v:ud v:nameU="visVersion" v:val="VT0(15):26"/>
			</v:userDefs>
			<v:textBlock v:margins="rect(4,4,4,4)" v:tabSpace="42.5197"/>
			<v:textRect cx="56.6929" cy="544.804" width="113.39" height="26.9291"/>
			<g id="shadow499-118" v:groupContext="shadow" v:shadowOffsetX="0.345598" v:shadowOffsetY="-1.97279" v:shadowType="1"
					transform="matrix(1,0,0,1,0.345598,1.97279)" class="st1">
				<rect x="0" y="531.34" width="113.386" height="26.9291" class="st2"/>
			</g>
			<rect x="0" y="531.34" width="113.386" height="26.9291" class="st12"/>
			<text x="23.18" y="547.8" class="st5" v:langID="1044"><v:paragraph v:horizAlign="1"/><v:tabList/>Client Validation</text>		</g>
		<g id="shape559-123" v:mID="559" v:groupContext="shape" transform="translate(3.77939,-6.09783)">
			<title>Rectangle.559</title>
			<v:userDefs>
				<v:ud v:nameU="visVersion" v:val="VT0(15):26"/>
			</v:userDefs>
			<g id="shadow559-124" v:groupContext="shadow" v:shadowOffsetX="0.345598" v:shadowOffsetY="-1.97279" v:shadowType="1"
					transform="matrix(1,0,0,1,0.345598,1.97279)" class="st1">
				<path d="M0 558.27 L861.73 558.27 L861.73 8.35 L0 8.35 L0 558.27 Z" class="st17"/>
			</g>
			<path d="M0 558.27 L861.73 558.27 L861.73 8.35 L0 8.35 L0 558.27 Z" class="st18"/>
		</g>
		<g id="shape583-128" v:mID="583" v:groupContext="shape" transform="translate(91.6534,-59.9561)">
			<title>Sheet.583</title>
			<desc>Attachments (T3.0)</desc>
			<v:textBlock v:margins="rect(4,4,4,4)" v:tabSpace="42.5197"/>
			<v:textRect cx="56.6929" cy="545.513" width="113.39" height="25.5118"/>
			<g id="shadow583-129" v:groupContext="shadow" v:shadowOffsetX="0.345598" v:shadowOffsetY="-1.97279" v:shadowType="1"
					transform="matrix(1,0,0,1,0.345598,1.97279)" class="st1">
				<rect x="0" y="532.757" width="113.386" height="25.5118" class="st2"/>
			</g>
			<rect x="0" y="532.757" width="113.386" height="25.5118" class="st12"/>
			<text x="17.64" y="548.51" class="st5" v:langID="1044"><v:paragraph v:horizAlign="1"/><v:tabList/>Attachments (T3.0)</text>		</g>
		<g id="shape594-134" v:mID="594" v:groupContext="shape" transform="translate(40.6298,-499.326)">
			<title>Sheet.594</title>
			<desc>Altinn Apps</desc>
			<v:textBlock v:margins="rect(4,4,4,4)" v:tabSpace="42.5197"/>
			<v:textRect cx="148.819" cy="544.096" width="297.64" height="28.3465"/>
			<rect x="0" y="529.923" width="297.638" height="28.3465" class="st13"/>
			<text x="4" y="554.9" class="st19" v:langID="1044"><v:paragraph/><v:tabList/>Altinn Apps</text>		</g>
		<g id="shape642-137" v:mID="642" v:groupContext="shape" transform="translate(324.094,-17.4364)">
			<title>Sheet.642</title>
			<desc>Validation</desc>
			<v:textBlock v:margins="rect(4,4,4,4)" v:tabSpace="42.5197"/>
			<v:textRect cx="56.6929" cy="545.513" width="113.39" height="25.5118"/>
			<g id="shadow642-138" v:groupContext="shadow" v:shadowOffsetX="0.345598" v:shadowOffsetY="-1.97279" v:shadowType="1"
					transform="matrix(1,0,0,1,0.345598,1.97279)" class="st1">
				<rect x="0" y="532.757" width="113.386" height="25.5118" class="st2"/>
			</g>
			<rect x="0" y="532.757" width="113.386" height="25.5118" class="st15"/>
			<text x="36.06" y="548.51" class="st5" v:langID="1044"><v:paragraph v:horizAlign="1"/><v:tabList/>Validation</text>		</g>
	</g>
</svg>
