<?xml version="1.0" encoding="UTF-8" standalone="no"?>
<!DOCTYPE svg PUBLIC "-//W3C//DTD SVG 1.1//EN" "http://www.w3.org/Graphics/SVG/1.1/DTD/svg11.dtd">
<!-- Generated by Microsoft Visio, SVG Export AltinnApps_SolutionArchitecture.svg Page-1 -->
<svg xmlns="http://www.w3.org/2000/svg" xmlns:xlink="http://www.w3.org/1999/xlink" xmlns:ev="http://www.w3.org/2001/xml-events"
		xmlns:v="http://schemas.microsoft.com/visio/2003/SVGExtensions/" width="12.0831in" height="7.75374in"
		viewBox="0 0 869.982 558.269" xml:space="preserve" color-interpolation-filters="sRGB" class="st23">
	<v:documentProperties v:langID="1033" v:metric="true" v:viewMarkup="false">
		<v:userDefs>
			<v:ud v:nameU="DisableSpdActionTags" v:prompt="" v:val="VT0(0):26"/>
		</v:userDefs>
	</v:documentProperties>

	<style type="text/css">
	<![CDATA[
		.st1 {visibility:visible}
		.st2 {fill:#5b9bd5;fill-opacity:0.22;filter:url(#filter_2);stroke:#5b9bd5;stroke-opacity:0.22}
		.st3 {fill:#fee599;stroke:#c7c8c8;stroke-width:0.25}
		.st4 {fill:#41719c;stroke:#c7c8c8;stroke-width:0.25}
		.st5 {fill:#feffff;font-family:Calibri;font-size:0.833336em}
		.st6 {fill:#ffff00;stroke:#c7c8c8;stroke-width:0.25}
		.st7 {fill:#000000;font-family:Calibri;font-size:0.833336em}
		.st8 {fill:#5b9bd5;fill-opacity:0.22;filter:url(#filter_2)}
		.st9 {fill:none;filter:url(#filter_2);stroke:#5b9bd5;stroke-opacity:0.22}
		.st10 {fill:#5b9bd5}
		.st11 {stroke:#c7c8c8;stroke-width:0.25}
		.st12 {fill:#1e4a73;font-family:Calibri;font-size:0.833336em}
		.st13 {fill:#5b9bd5;stroke:#c7c8c8;stroke-width:0.25}
		.st14 {fill:none;stroke:none;stroke-width:0.25}
		.st15 {fill:#000000;font-family:Calibri;font-size:1.00001em}
		.st16 {fill:#fec000;stroke:#c7c8c8;stroke-width:0.25}
		.st17 {fill:none;filter:url(#filter_2);stroke:#5b9bd5;stroke-dasharray:33.75,20.25;stroke-opacity:0.22}
		.st18 {fill:none;stroke:#c7c8c8;stroke-dasharray:33.75,20.25;stroke-width:2.25}
		.st19 {fill:#5b9bd5;font-family:Calibri;font-size:3em}
		.st20 {fill:#00b050;stroke:#c7c8c8;stroke-width:0.25}
		.st21 {fill:#ffffff}
		.st22 {fill:#5b9bd5;stroke:#ffffff;stroke-width:0.25}
		.st23 {fill:none;fill-rule:evenodd;font-size:12px;overflow:visible;stroke-linecap:square;stroke-miterlimit:3}
	]]>
	</style>

	<defs id="Filters">
		<filter id="filter_2">
			<feGaussianBlur stdDeviation="2"/>
		</filter>
	</defs>
	<g v:mID="0" v:index="1" v:groupContext="foregroundPage">
		<title>Page-1</title>
		<v:pageProperties v:drawingScale="0.0393701" v:pageScale="0.0393701" v:drawingUnits="24" v:shadowOffsetX="8.50394"
				v:shadowOffsetY="-8.50394"/>
		<v:layer v:name="Flowchart" v:index="0"/>
		<g id="shape365-1" v:mID="365" v:groupContext="shape" transform="translate(83.1495,-11.7671)">
			<title>Rectangle.365</title>
			<v:userDefs>
				<v:ud v:nameU="visVersion" v:val="VT0(15):26"/>
			</v:userDefs>
			<g id="shadow365-2" v:groupContext="shadow" v:shadowOffsetX="0.345598" v:shadowOffsetY="-1.97279" v:shadowType="1"
					transform="matrix(1,0,0,1,0.345598,1.97279)" class="st1">
				<rect x="0" y="388.19" width="500.315" height="170.079" class="st2"/>
			</g>
			<rect x="0" y="388.19" width="500.315" height="170.079" class="st3"/>
		</g>
		<g id="shape246-6" v:mID="246" v:groupContext="shape" transform="translate(83.1495,-187.515)">
			<title>Rectangle.246</title>
			<desc>Web interface</desc>
			<v:userDefs>
				<v:ud v:nameU="visVersion" v:val="VT0(15):26"/>
			</v:userDefs>
			<v:textBlock v:margins="rect(4,4,4,4)" v:tabSpace="42.5197"/>
			<v:textRect cx="49.6063" cy="551.182" width="99.22" height="14.1732"/>
			<g id="shadow246-7" v:groupContext="shadow" v:shadowOffsetX="0.345598" v:shadowOffsetY="-1.97279" v:shadowType="1"
					transform="matrix(1,0,0,1,0.345598,1.97279)" class="st1">
				<rect x="0" y="544.096" width="99.2126" height="14.1732" class="st2"/>
			</g>
			<rect x="0" y="544.096" width="99.2126" height="14.1732" class="st4"/>
			<text x="20.71" y="554.18" class="st5" v:langID="1044"><v:paragraph v:horizAlign="1"/><v:tabList/>Web interface</text>		</g>
		<g id="shape247-12" v:mID="247" v:groupContext="shape" transform="translate(182.362,-187.515)">
			<title>Rectangle.247</title>
			<desc>REST API</desc>
			<v:userDefs>
				<v:ud v:nameU="visVersion" v:val="VT0(15):26"/>
			</v:userDefs>
			<v:textBlock v:margins="rect(4,4,4,4)" v:tabSpace="42.5197"/>
			<v:textRect cx="202.677" cy="551.182" width="405.36" height="14.1732"/>
			<g id="shadow247-13" v:groupContext="shadow" v:shadowOffsetX="0.345598" v:shadowOffsetY="-1.97279" v:shadowType="1"
					transform="matrix(1,0,0,1,0.345598,1.97279)" class="st1">
				<rect x="0" y="544.096" width="405.354" height="14.1732" class="st2"/>
			</g>
			<rect x="0" y="544.096" width="405.354" height="14.1732" class="st6"/>
			<text x="184.92" y="554.18" class="st7" v:langID="1044"><v:paragraph v:horizAlign="1"/><v:tabList/>REST API</text>		</g>
		<g id="shape250-18" v:mID="250" v:groupContext="shape" v:layerMember="0" transform="translate(207.874,-378.854)">
			<title>Person.250</title>
			<desc>End User</desc>
			<v:userDefs>
				<v:ud v:nameU="visVersion" v:prompt="" v:val="VT0(15):26"/>
				<v:ud v:nameU="ConnGap" v:prompt="" v:val="VT0(0.00012908222537757):24"/>
			</v:userDefs>
			<v:textBlock v:margins="rect(4,4,4,4)" v:tabSpace="42.5197"/>
			<v:textRect cx="17.0079" cy="568.271" width="46.71" height="20.0036"/>
			<g id="shadow250-19" v:groupContext="shadow" v:shadowOffsetX="0.345598" v:shadowOffsetY="-1.97279" v:shadowType="1"
					transform="matrix(1,0,0,1,0.345598,1.97279)" class="st1">
				<path d="M27.48 508.87 L6.54 508.87 C5.03 508.87 3.64 509.37 2.54 510.21 C1.77 510.8 1.13 511.55 0.69 512.41 C0.25
							 513.27 0 514.23 0 515.26 L0 539.53 L5.73 539.53 L5.73 558.27 L28.07 558.27 L28.07 539.53 L34.02 539.53
							 L34.02 515.26 C34.02 513.78 33.5 512.43 32.64 511.34 C32.04 510.59 31.27 509.97 30.39 509.54 C29.52
							 509.11 28.53 508.87 27.48 508.87 ZM26.79 496.86 A9.78293 9.45354 -180 1 0 7.22 496.86 A9.78293 9.45354
							 -180 1 0 26.79 496.86 Z" class="st8"/>
				<path d="M27.48 508.87 L6.54 508.87 C5.03 508.87 3.64 509.37 2.54 510.21 C1.77 510.8 1.13 511.55 0.69 512.41 C0.25
							 513.27 0 514.23 0 515.26 L0 539.53 L5.73 539.53 L5.73 558.27 L28.07 558.27 L28.07 539.53 L34.02 539.53
							 L34.02 515.26 C34.02 513.78 33.5 512.43 32.64 511.34 C32.04 510.59 31.27 509.97 30.39 509.54 C29.52
							 509.11 28.53 508.87 27.48 508.87" class="st9"/>
				<path d="M17.01 558.27 L17.01 543.29" class="st9"/>
				<path d="M5.73 539.53 L5.73 526.6" class="st9"/>
				<path d="M28.07 539.53 L28.07 526.6" class="st9"/>
				<path d="M26.79 496.86 A9.78293 9.45354 -180 1 0 7.22 496.86 A9.78293 9.45354 -180 1 0 26.79 496.86" class="st9"/>
			</g>
			<path d="M27.48 508.87 L6.54 508.87 C5.03 508.87 3.64 509.37 2.54 510.21 C1.77 510.8 1.13 511.55 0.69 512.41 C0.25 513.27
						 0 514.23 0 515.26 L0 539.53 L5.73 539.53 L5.73 558.27 L28.07 558.27 L28.07 539.53 L34.02 539.53 L34.02 515.26
						 C34.02 513.78 33.5 512.43 32.64 511.34 C32.04 510.59 31.27 509.97 30.39 509.54 C29.52 509.11 28.53 508.87
						 27.48 508.87 ZM26.79 496.86 A9.78293 9.45354 -180 1 0 7.22 496.86 A9.78293 9.45354 -180 1 0 26.79 496.86
						 Z" class="st10"/>
			<path d="M27.48 508.87 L6.54 508.87 C5.03 508.87 3.64 509.37 2.54 510.21 C1.77 510.8 1.13 511.55 0.69 512.41 C0.25 513.27
						 0 514.23 0 515.26 L0 539.53 L5.73 539.53 L5.73 558.27 L28.07 558.27 L28.07 539.53 L34.02 539.53 L34.02 515.26
						 C34.02 513.78 33.5 512.43 32.64 511.34 C32.04 510.59 31.27 509.97 30.39 509.54 C29.52 509.11 28.53 508.87
						 27.48 508.87" class="st11"/>
			<path d="M17.01 558.27 L17.01 543.29" class="st11"/>
			<path d="M5.73 539.53 L5.73 526.6" class="st11"/>
			<path d="M28.07 539.53 L28.07 526.6" class="st11"/>
			<path d="M26.79 496.86 A9.78293 9.45354 -180 1 0 7.22 496.86 A9.78293 9.45354 -180 1 0 26.79 496.86" class="st11"/>
			<text x="-1.21" y="571.27" class="st12" v:langID="1044"><v:paragraph v:horizAlign="1"/><v:tabList/>End User</text>		</g>
		<g id="shape386-35" v:mID="386" v:groupContext="shape" transform="translate(210.709,-88.3025)">
			<title>Sheet.386</title>
			<desc>FormFilling (T3.0)</desc>
			<v:textBlock v:margins="rect(4,4,4,4)" v:tabSpace="42.5197"/>
			<v:textRect cx="56.6929" cy="545.513" width="113.39" height="25.5118"/>
			<g id="shadow386-36" v:groupContext="shadow" v:shadowOffsetX="0.345598" v:shadowOffsetY="-1.97279" v:shadowType="1"
					transform="matrix(1,0,0,1,0.345598,1.97279)" class="st1">
				<rect x="0" y="532.757" width="113.386" height="25.5118" class="st2"/>
			</g>
			<rect x="0" y="532.757" width="113.386" height="25.5118" class="st13"/>
			<text x="21.22" y="548.51" class="st5" v:langID="1044"><v:paragraph v:horizAlign="1"/><v:tabList/>FormFilling (T3.0)</text>		</g>
		<g id="shape387-41" v:mID="387" v:groupContext="shape" transform="translate(91.6534,-116.649)">
			<title>Sheet.387</title>
			<desc>Lookup (T3.0)</desc>
			<v:textBlock v:margins="rect(4,4,4,4)" v:tabSpace="42.5197"/>
			<v:textRect cx="56.6929" cy="545.513" width="113.39" height="25.5118"/>
			<g id="shadow387-42" v:groupContext="shadow" v:shadowOffsetX="0.345598" v:shadowOffsetY="-1.97279" v:shadowType="1"
					transform="matrix(1,0,0,1,0.345598,1.97279)" class="st1">
				<rect x="0" y="532.757" width="113.386" height="25.5118" class="st2"/>
			</g>
			<rect x="0" y="532.757" width="113.386" height="25.5118" class="st13"/>
			<text x="28.86" y="548.51" class="st5" v:langID="1044"><v:paragraph v:horizAlign="1"/><v:tabList/>Lookup (T3.0)</text>		</g>
		<g id="shape388-47" v:mID="388" v:groupContext="shape" transform="translate(210.709,-116.649)">
			<title>Sheet.388</title>
			<desc>Signing (T3.0)</desc>
			<v:textBlock v:margins="rect(4,4,4,4)" v:tabSpace="42.5197"/>
			<v:textRect cx="56.6929" cy="545.513" width="113.39" height="25.5118"/>
			<g id="shadow388-48" v:groupContext="shadow" v:shadowOffsetX="0.345598" v:shadowOffsetY="-1.97279" v:shadowType="1"
					transform="matrix(1,0,0,1,0.345598,1.97279)" class="st1">
				<rect x="0" y="532.757" width="113.386" height="25.5118" class="st2"/>
			</g>
			<rect x="0" y="532.757" width="113.386" height="25.5118" class="st13"/>
			<text x="29.21" y="548.51" class="st5" v:langID="1044"><v:paragraph v:horizAlign="1"/><v:tabList/>Signing (T3.0)</text>		</g>
		<g id="shape389-53" v:mID="389" v:groupContext="shape" transform="translate(329.764,-116.649)">
			<title>Sheet.389</title>
			<desc>Payment (T3.0)</desc>
			<v:textBlock v:margins="rect(4,4,4,4)" v:tabSpace="42.5197"/>
			<v:textRect cx="56.6929" cy="545.513" width="113.39" height="25.5118"/>
			<g id="shadow389-54" v:groupContext="shadow" v:shadowOffsetX="0.345598" v:shadowOffsetY="-1.97279" v:shadowType="1"
					transform="matrix(1,0,0,1,0.345598,1.97279)" class="st1">
				<rect x="0" y="532.757" width="113.386" height="25.5118" class="st2"/>
			</g>
			<rect x="0" y="532.757" width="113.386" height="25.5118" class="st13"/>
			<text x="25.74" y="548.51" class="st5" v:langID="1044"><v:paragraph v:horizAlign="1"/><v:tabList/>Payment (T3.0)</text>		</g>
		<g id="shape390-59" v:mID="390" v:groupContext="shape" transform="translate(329.764,-88.3025)">
			<title>Sheet.390</title>
			<desc>SendIn (T3.0)</desc>
			<v:textBlock v:margins="rect(4,4,4,4)" v:tabSpace="42.5197"/>
			<v:textRect cx="56.6929" cy="545.513" width="113.39" height="25.5118"/>
			<g id="shadow390-60" v:groupContext="shadow" v:shadowOffsetX="0.345598" v:shadowOffsetY="-1.97279" v:shadowType="1"
					transform="matrix(1,0,0,1,0.345598,1.97279)" class="st1">
				<rect x="0" y="532.757" width="113.386" height="25.5118" class="st2"/>
			</g>
			<rect x="0" y="532.757" width="113.386" height="25.5118" class="st13"/>
			<text x="29.84" y="548.51" class="st5" v:langID="1044"><v:paragraph v:horizAlign="1"/><v:tabList/>SendIn (T3.0)</text>		</g>
		<g id="shape391-65" v:mID="391" v:groupContext="shape" transform="translate(445.984,-88.3025)">
			<title>Sheet.391</title>
			<desc>Receipt (T3.0)</desc>
			<v:textBlock v:margins="rect(4,4,4,4)" v:tabSpace="42.5197"/>
			<v:textRect cx="56.6929" cy="545.513" width="113.39" height="25.5118"/>
			<g id="shadow391-66" v:groupContext="shadow" v:shadowOffsetX="0.345598" v:shadowOffsetY="-1.97279" v:shadowType="1"
					transform="matrix(1,0,0,1,0.345598,1.97279)" class="st1">
				<rect x="0" y="532.757" width="113.386" height="25.5118" class="st2"/>
			</g>
			<rect x="0" y="532.757" width="113.386" height="25.5118" class="st13"/>
			<text x="28.51" y="548.51" class="st5" v:langID="1044"><v:paragraph v:horizAlign="1"/><v:tabList/>Receipt (T3.0)</text>		</g>
		<g id="shape241-71" v:mID="241" v:groupContext="shape" transform="translate(83.1495,-169.09)">
			<title>Sheet.241</title>
			<desc>AltinnCore.Runtime</desc>
			<v:textBlock v:margins="rect(4,4,4,4)" v:tabSpace="42.5197"/>
			<v:textRect cx="90.7087" cy="551.182" width="181.42" height="14.1732"/>
			<rect x="0" y="544.096" width="181.417" height="14.1732" class="st14"/>
			<text x="4" y="554.78" class="st15" v:langID="1044"><v:paragraph/><v:tabList/>AltinnCore.Runtime</text>		</g>
		<g id="shape476-74" v:mID="476" v:groupContext="shape" transform="translate(445.984,-116.649)">
			<title>Sheet.476</title>
			<desc>WorkFlow (T3.0)</desc>
			<v:textBlock v:margins="rect(4,4,4,4)" v:tabSpace="42.5197"/>
			<v:textRect cx="56.6929" cy="545.513" width="113.39" height="25.5118"/>
			<g id="shadow476-75" v:groupContext="shadow" v:shadowOffsetX="0.345598" v:shadowOffsetY="-1.97279" v:shadowType="1"
					transform="matrix(1,0,0,1,0.345598,1.97279)" class="st1">
				<rect x="0" y="532.757" width="113.386" height="25.5118" class="st2"/>
			</g>
			<rect x="0" y="532.757" width="113.386" height="25.5118" class="st13"/>
			<text x="23.01" y="548.51" class="st5" v:langID="1044"><v:paragraph v:horizAlign="1"/><v:tabList/>WorkFlow (T3.0)</text>		</g>
		<g id="shape478-80" v:mID="478" v:groupContext="shape" transform="translate(91.6534,-88.3025)">
			<title>Sheet.478</title>
			<desc>Print (T3.0)</desc>
			<v:textBlock v:margins="rect(4,4,4,4)" v:tabSpace="42.5197"/>
			<v:textRect cx="56.6929" cy="545.513" width="113.39" height="25.5118"/>
			<g id="shadow478-81" v:groupContext="shadow" v:shadowOffsetX="0.345598" v:shadowOffsetY="-1.97279" v:shadowType="1"
					transform="matrix(1,0,0,1,0.345598,1.97279)" class="st1">
				<rect x="0" y="532.757" width="113.386" height="25.5118" class="st2"/>
			</g>
			<rect x="0" y="532.757" width="113.386" height="25.5118" class="st13"/>
			<text x="33.99" y="548.51" class="st5" v:langID="1044"><v:paragraph v:horizAlign="1"/><v:tabList/>Print (T3.0)</text>		</g>
		<g id="shape491-86" v:mID="491" v:groupContext="shape" transform="translate(91.6534,-17.4364)">
			<title>Sheet.491</title>
			<desc>Calculation</desc>
			<v:textBlock v:margins="rect(4,4,4,4)" v:tabSpace="42.5197"/>
			<v:textRect cx="56.6929" cy="545.513" width="113.39" height="25.5118"/>
			<g id="shadow491-87" v:groupContext="shadow" v:shadowOffsetX="0.345598" v:shadowOffsetY="-1.97279" v:shadowType="1"
					transform="matrix(1,0,0,1,0.345598,1.97279)" class="st1">
				<rect x="0" y="532.757" width="113.386" height="25.5118" class="st2"/>
			</g>
			<rect x="0" y="532.757" width="113.386" height="25.5118" class="st16"/>
			<text x="34.11" y="548.51" class="st5" v:langID="1044"><v:paragraph v:horizAlign="1"/><v:tabList/>Calculation</text>		</g>
		<g id="shape492-92" v:mID="492" v:groupContext="shape" transform="translate(207.874,-17.4364)">
			<title>Sheet.492</title>
			<desc>API Calls</desc>
			<v:textBlock v:margins="rect(4,4,4,4)" v:tabSpace="42.5197"/>
			<v:textRect cx="56.6929" cy="545.513" width="113.39" height="25.5118"/>
			<g id="shadow492-93" v:groupContext="shadow" v:shadowOffsetX="0.345598" v:shadowOffsetY="-1.97279" v:shadowType="1"
					transform="matrix(1,0,0,1,0.345598,1.97279)" class="st1">
				<rect x="0" y="532.757" width="113.386" height="25.5118" class="st2"/>
			</g>
			<rect x="0" y="532.757" width="113.386" height="25.5118" class="st16"/>
			<text x="39.52" y="548.51" class="st5" v:langID="1044"><v:paragraph v:horizAlign="1"/><v:tabList/>API Calls</text>		</g>
		<g id="shape559-98" v:mID="559" v:groupContext="shape" transform="translate(3.77939,-6.09783)">
			<title>Rectangle.559</title>
			<v:userDefs>
				<v:ud v:nameU="visVersion" v:val="VT0(15):26"/>
			</v:userDefs>
			<g id="shadow559-99" v:groupContext="shadow" v:shadowOffsetX="0.345598" v:shadowOffsetY="-1.97279" v:shadowType="1"
					transform="matrix(1,0,0,1,0.345598,1.97279)" class="st1">
				<path d="M0 558.27 L861.73 558.27 L861.73 8.35 L0 8.35 L0 558.27 Z" class="st17"/>
			</g>
			<path d="M0 558.27 L861.73 558.27 L861.73 8.35 L0 8.35 L0 558.27 Z" class="st18"/>
		</g>
		<g id="shape583-103" v:mID="583" v:groupContext="shape" transform="translate(91.6534,-59.9561)">
			<title>Sheet.583</title>
			<desc>Attachments (T3.0)</desc>
			<v:textBlock v:margins="rect(4,4,4,4)" v:tabSpace="42.5197"/>
			<v:textRect cx="56.6929" cy="545.513" width="113.39" height="25.5118"/>
			<g id="shadow583-104" v:groupContext="shadow" v:shadowOffsetX="0.345598" v:shadowOffsetY="-1.97279" v:shadowType="1"
					transform="matrix(1,0,0,1,0.345598,1.97279)" class="st1">
				<rect x="0" y="532.757" width="113.386" height="25.5118" class="st2"/>
			</g>
			<rect x="0" y="532.757" width="113.386" height="25.5118" class="st13"/>
			<text x="17.64" y="548.51" class="st5" v:langID="1044"><v:paragraph v:horizAlign="1"/><v:tabList/>Attachments (T3.0)</text>		</g>
		<g id="shape594-109" v:mID="594" v:groupContext="shape" transform="translate(40.6298,-499.326)">
			<title>Sheet.594</title>
			<desc>Altinn Apps</desc>
			<v:textBlock v:margins="rect(4,4,4,4)" v:tabSpace="42.5197"/>
			<v:textRect cx="148.819" cy="544.096" width="297.64" height="28.3465"/>
			<rect x="0" y="529.923" width="297.638" height="28.3465" class="st14"/>
			<text x="4" y="554.9" class="st19" v:langID="1044"><v:paragraph/><v:tabList/>Altinn Apps</text>		</g>
		<g id="shape642-112" v:mID="642" v:groupContext="shape" transform="translate(324.094,-17.4364)">
			<title>Sheet.642</title>
			<desc>Validation</desc>
			<v:textBlock v:margins="rect(4,4,4,4)" v:tabSpace="42.5197"/>
			<v:textRect cx="56.6929" cy="545.513" width="113.39" height="25.5118"/>
			<g id="shadow642-113" v:groupContext="shadow" v:shadowOffsetX="0.345598" v:shadowOffsetY="-1.97279" v:shadowType="1"
					transform="matrix(1,0,0,1,0.345598,1.97279)" class="st1">
				<rect x="0" y="532.757" width="113.386" height="25.5118" class="st2"/>
			</g>
			<rect x="0" y="532.757" width="113.386" height="25.5118" class="st16"/>
			<text x="36.06" y="548.51" class="st5" v:langID="1044"><v:paragraph v:horizAlign="1"/><v:tabList/>Validation</text>		</g>
		<g id="shape652-118" v:mID="652" v:groupContext="shape" transform="translate(84.5668,-211.326)">
			<title>Rectangle.652</title>
			<v:userDefs>
				<v:ud v:nameU="visVersion" v:val="VT0(15):26"/>
			</v:userDefs>
			<g id="shadow652-119" v:groupContext="shadow" v:shadowOffsetX="0.345598" v:shadowOffsetY="-1.97279" v:shadowType="1"
					transform="matrix(1,0,0,1,0.345598,1.97279)" class="st1">
				<rect x="0" y="412.001" width="479.055" height="146.268" class="st2"/>
			</g>
			<rect x="0" y="412.001" width="479.055" height="146.268" class="st20"/>
		</g>
		<g id="shape653-123" v:mID="653" v:groupContext="shape" transform="translate(90.2361,-343.421)">
			<title>Sheet.653</title>
			<desc>Runtime.js</desc>
			<v:textBlock v:margins="rect(4,4,4,4)" v:tabSpace="42.5197"/>
			<v:textRect cx="90.7087" cy="551.182" width="181.42" height="14.1732"/>
			<rect x="0" y="544.096" width="181.417" height="14.1732" class="st14"/>
			<text x="4" y="554.78" class="st15" v:langID="1044"><v:paragraph/><v:tabList/>Runtime.js</text>		</g>
		<g id="shape654-126" v:mID="654" v:groupContext="shape" transform="translate(95.9054,-316.492)">
			<title>Rectangle.654</title>
			<desc>FormPages</desc>
			<v:userDefs>
				<v:ud v:nameU="visVersion" v:val="VT0(15):26"/>
			</v:userDefs>
			<v:textBlock v:margins="rect(4,4,4,4)" v:tabSpace="42.5197"/>
			<v:textRect cx="56.6929" cy="545.513" width="113.39" height="25.5118"/>
			<g id="shadow654-127" v:groupContext="shadow" v:shadowOffsetX="0.345598" v:shadowOffsetY="-1.97279" v:shadowType="1"
					transform="matrix(1,0,0,1,0.345598,1.97279)" class="st1">
				<rect x="0" y="532.757" width="113.386" height="25.5118" class="st2"/>
			</g>
			<rect x="0" y="532.757" width="113.386" height="25.5118" class="st13"/>
			<text x="34.25" y="548.51" class="st5" v:langID="1044"><v:paragraph v:horizAlign="1"/><v:tabList/>FormPages</text>		</g>
		<g id="shape655-132" v:mID="655" v:groupContext="shape" transform="translate(95.9054,-258.381)">
			<title>Rectangle.655</title>
			<desc>Form Dynamics</desc>
			<v:userDefs>
				<v:ud v:nameU="visVersion" v:val="VT0(15):26"/>
			</v:userDefs>
			<v:textBlock v:margins="rect(4,4,4,4)" v:tabSpace="42.5197"/>
			<v:textRect cx="56.6929" cy="545.513" width="113.39" height="25.5118"/>
			<g id="shadow655-133" v:groupContext="shadow" v:shadowOffsetX="0.345598" v:shadowOffsetY="-1.97279" v:shadowType="1"
					transform="matrix(1,0,0,1,0.345598,1.97279)" class="st1">
				<rect x="0" y="532.757" width="113.386" height="25.5118" class="st2"/>
			</g>
			<rect x="0" y="532.757" width="113.386" height="25.5118" class="st13"/>
			<text x="25.32" y="548.51" class="st5" v:langID="1044"><v:paragraph v:horizAlign="1"/><v:tabList/>Form Dynamics</text>		</g>
		<g id="shape656-138" v:mID="656" v:groupContext="shape" transform="translate(95.9054,-287.436)">
			<title>Rectangle.656</title>
			<desc>Client Validation</desc>
			<v:userDefs>
				<v:ud v:nameU="visVersion" v:val="VT0(15):26"/>
			</v:userDefs>
			<v:textBlock v:margins="rect(4,4,4,4)" v:tabSpace="42.5197"/>
			<v:textRect cx="56.6929" cy="545.513" width="113.39" height="25.5118"/>
			<g id="shadow656-139" v:groupContext="shadow" v:shadowOffsetX="0.345598" v:shadowOffsetY="-1.97279" v:shadowType="1"
					transform="matrix(1,0,0,1,0.345598,1.97279)" class="st1">
				<rect x="0" y="532.757" width="113.386" height="25.5118" class="st2"/>
			</g>
			<rect x="0" y="532.757" width="113.386" height="25.5118" class="st13"/>
			<text x="23.18" y="548.51" class="st5" v:langID="1044"><v:paragraph v:horizAlign="1"/><v:tabList/>Client Validation</text>		</g>
		<g id="group657-144" transform="translate(358.11,-378.854)" v:mID="657" v:groupContext="group" v:layerMember="0">
			<v:userDefs>
				<v:ud v:nameU="visVersion" v:prompt="" v:val="VT0(15):26"/>
				<v:ud v:nameU="ConnGap" v:prompt="" v:val="VT0(0.00012908222537757):24"/>
			</v:userDefs>
			<title>User.657</title>
			<desc>End User System / Enterprise Users</desc>
			<g id="shape658-145" v:mID="658" v:groupContext="shape" v:layerMember="0" transform="translate(34.5789,-2.27374E-13)">
				<title>Sheet.658</title>
				<g id="shadow658-146" v:groupContext="shadow" v:shadowOffsetX="0.345598" v:shadowOffsetY="-1.97279"
						v:shadowType="1" transform="matrix(1,0,0,1,0.345598,1.97279)" class="st1">
					<path d="M53.86 515.64 A6.83397 6.56188 -180 1 0 40.19 515.64 A6.83397 6.56188 -180 1 0 53.86 515.64 ZM54.34
								 523.98 L39.55 523.98 C38.48 523.98 37.5 524.33 36.72 524.91 C36.18 525.32 35.73 525.84 35.42 526.43
								 C35.1 527.03 34.93 527.7 34.93 528.41 L34.93 545.26 L38.98 545.26 L38.98 558.27 L54.76 558.27 L54.76
								 545.26 L58.96 545.26 L58.96 528.41 C58.96 527.39 58.6 526.45 57.99 525.7 C57.57 525.18 57.03 524.75
								 56.41 524.45 C55.79 524.15 55.09 523.98 54.34 523.98 Z" class="st8"/>
					<path d="M53.86 515.64 A6.83397 6.56188 -180 1 0 40.19 515.64 A6.83397 6.56188 -180 1 0 53.86 515.64"
							class="st9"/>
					<path d="M54.34 523.98 L39.55 523.98 C38.48 523.98 37.5 524.33 36.72 524.91 C36.18 525.32 35.73 525.84 35.42
								 526.43 C35.1 527.03 34.93 527.7 34.93 528.41 L34.93 545.26 L38.98 545.26 L38.98 558.27 L54.76 558.27
								 L54.76 545.26 L58.96 545.26 L58.96 528.41 C58.96 527.39 58.6 526.45 57.99 525.7 C57.57 525.18 57.03
								 524.75 56.41 524.45 C55.79 524.15 55.09 523.98 54.34 523.98" class="st9"/>
					<path d="M46.95 558.27 L46.95 547.87" class="st9"/>
					<path d="M38.98 545.26 L38.98 536.29" class="st9"/>
					<path d="M54.76 545.26 L54.76 536.29" class="st9"/>
					<path d="M0 545.26 L34.93 545.26" class="st9"/>
				</g>
				<path d="M53.86 515.64 A6.83397 6.56188 -180 1 0 40.19 515.64 A6.83397 6.56188 -180 1 0 53.86 515.64 ZM54.34 523.98
							 L39.55 523.98 C38.48 523.98 37.5 524.33 36.72 524.91 C36.18 525.32 35.73 525.84 35.42 526.43 C35.1 527.03
							 34.93 527.7 34.93 528.41 L34.93 545.26 L38.98 545.26 L38.98 558.27 L54.76 558.27 L54.76 545.26 L58.96
							 545.26 L58.96 528.41 C58.96 527.39 58.6 526.45 57.99 525.7 C57.57 525.18 57.03 524.75 56.41 524.45 C55.79
							 524.15 55.09 523.98 54.34 523.98 Z" class="st21"/>
				<path d="M53.86 515.64 A6.83397 6.56188 -180 1 0 40.19 515.64 A6.83397 6.56188 -180 1 0 53.86 515.64" class="st11"/>
				<path d="M54.34 523.98 L39.55 523.98 C38.48 523.98 37.5 524.33 36.72 524.91 C36.18 525.32 35.73 525.84 35.42 526.43
							 C35.1 527.03 34.93 527.7 34.93 528.41 L34.93 545.26 L38.98 545.26 L38.98 558.27 L54.76 558.27 L54.76
							 545.26 L58.96 545.26 L58.96 528.41 C58.96 527.39 58.6 526.45 57.99 525.7 C57.57 525.18 57.03 524.75
							 56.41 524.45 C55.79 524.15 55.09 523.98 54.34 523.98" class="st11"/>
				<path d="M46.95 558.27 L46.95 547.87" class="st11"/>
				<path d="M38.98 545.26 L38.98 536.29" class="st11"/>
				<path d="M54.76 545.26 L54.76 536.29" class="st11"/>
				<path d="M0 545.26 L34.93 545.26" class="st11"/>
			</g>
			<g id="shape659-163" v:mID="659" v:groupContext="shape" v:layerMember="0" transform="translate(0,-20.9039)">
				<title>Sheet.659</title>
				<g id="shadow659-164" v:groupContext="shadow" v:shadowOffsetX="0.345598" v:shadowOffsetY="-1.97279"
						v:shadowType="1" transform="matrix(1,0,0,1,0.345598,1.97279)" class="st1">
					<path d="M54.69 515.88 C54.69 514.93 54.35 514.06 53.79 513.37 C53.4 512.9 52.91 512.51 52.34 512.24 C51.78 511.97
								 51.14 511.82 50.47 511.82 L9.19 511.82 C8.21 511.82 7.31 512.14 6.59 512.69 C6.1 513.06 5.69 513.53
								 5.41 514.07 C5.13 514.62 4.97 515.23 4.97 515.88 L4.97 542.08 L54.69 542.08 L54.69 515.88 ZM54.92
								 545.29 L4.59 545.29 L0 553.2 L0 558.27 L59.8 558.27 L59.8 553.21 L54.92 545.29 Z" class="st2"/>
				</g>
				<path d="M54.69 515.88 C54.69 514.93 54.35 514.06 53.79 513.37 C53.4 512.9 52.91 512.51 52.34 512.24 C51.78 511.97
							 51.14 511.82 50.47 511.82 L9.19 511.82 C8.21 511.82 7.31 512.14 6.59 512.69 C6.1 513.06 5.69 513.53
							 5.41 514.07 C5.13 514.62 4.97 515.23 4.97 515.88 L4.97 542.08 L54.69 542.08 L54.69 515.88 ZM54.92 545.29
							 L4.59 545.29 L0 553.2 L0 558.27 L59.8 558.27 L59.8 553.21 L54.92 545.29 Z" class="st13"/>
			</g>
			<g id="shape660-168" v:mID="660" v:groupContext="shape" v:layerMember="0" transform="translate(8.2781,-40.2648)">
				<title>Sheet.660</title>
				<v:userDefs>
					<v:ud v:nameU="SurroundingRegionColor" v:prompt="" v:val="VT0(1):26"/>
					<v:ud v:nameU="SurroundingRegionColor" v:prompt="" v:val="VT5(#5b9bd5)"/>
				</v:userDefs>
				<path d="M43.1 558.27 L43.1 535.24 C43.1 535.08 43.07 534.94 42.99 534.82 C42.91 534.67 42.78 534.55 42.62 534.46
							 C42.49 534.4 42.35 534.36 42.19 534.36 L0.92 534.36 C0.75 534.36 0.61 534.39 0.48 534.46 C0.33 534.54
							 0.2 534.67 0.11 534.82 C0.04 534.94 0 535.08 0 535.24 L0 558.27 L43.1 558.27 Z" class="st22"/>
			</g>
			<g id="shape661-170" v:mID="661" v:groupContext="shape" v:layerMember="0" transform="translate(5.1327,-26.9094)">
				<title>Sheet.661</title>
				<v:userDefs>
					<v:ud v:nameU="SurroundingRegionColor" v:prompt="" v:val="VT0(1):26"/>
					<v:ud v:nameU="SurroundingRegionColor" v:prompt="" v:val="VT5(#5b9bd5)"/>
				</v:userDefs>
				<path d="M2.49 553.99 L0 558.27 L49.43 558.27 L46.94 553.99 L2.49 553.99 Z" class="st21"/>
			</g>
			<g id="shape657-173" v:mID="657" v:groupContext="groupContent" v:layerMember="0">
				<v:textBlock v:margins="rect(4,4,4,4)" v:tabSpace="42.5197"/>
				<v:textRect cx="46.7717" cy="568.271" width="153.53" height="20.0036"/>
				<g id="shadow657-174" v:groupContext="shadow" v:shadowOffsetX="0.345598" v:shadowOffsetY="-1.97279"
						v:shadowType="1" transform="matrix(1,0,0,1,0.345598,1.97279)" class="st1"/>
				<text x="-24.86" y="571.27" class="st12" v:langID="1044"><v:paragraph v:horizAlign="1"/><v:tabList/>End User System / Enterprise Users</text>			</g>
		</g>
	</g>
</svg>
