<?xml version="1.0" encoding="UTF-8" standalone="no"?>
<svg viewBox="0 0 60 20" version="1.1" xmlns="http://www.w3.org/2000/svg" xmlns:xlink="http://www.w3.org/1999/xlink">
    <title>altinn-logo-blue</title>

        <g id="Desktop" transform="translate(-108.000000, -20.000000)" fill="#0062BA" class="svg-logo-color">
            <g id="altinn-logo-blue" transform="translate(108.000000, 20.000000)">
                <g id="logoelement">
                    <rect id="Rectangle-35" x="40" y="0" width="12" height="4"></rect>
                    <rect id="Rectangle-35" x="40" y="8" width="12" height="4"></rect>
                    <rect id="Rectangle-35" x="40" y="16" width="12" height="4"></rect>
                    <rect id="Rectangle-35" x="0" y="0" width="4" height="4"></rect>
                    <rect id="Rectangle-35" x="0" y="8" width="4" height="4"></rect>
                    <rect id="Rectangle-35" x="0" y="16" width="4" height="4"></rect>
                    <rect id="Rectangle-35" x="8" y="0" width="4" height="4"></rect>
                    <rect id="Rectangle-35" x="8" y="8" width="4" height="4"></rect>
                    <rect id="Rectangle-35" x="8" y="16" width="4" height="4"></rect>
                    <polygon id="Rectangle-32" points="16 0 36 0 36 12 32 12 32 4 16 4"></polygon>
                    <rect id="Rectangle-32" x="24" y="8" width="4" height="4"></rect>
                    <polygon id="Rectangle-32" points="16 8 20 8 20 16 36 16 36 20 16 20"></polygon>
                </g>
                
            </g>
            
        </g>
</svg>
