<svg width="276" height="290" viewBox="0 0 276 290" fill="none" xmlns="http://www.w3.org/2000/svg">
<path d="M161.224 164.287H96.7917C96.3335 164.287 95.9326 163.866 95.9326 163.385V43.2081C95.9326 42.7267 96.3335 42.3055 96.7917 42.3055H161.224C161.682 42.3055 162.083 42.7267 162.083 43.2081V105.252C162.083 105.734 161.682 106.155 161.224 106.155C160.766 106.155 160.365 105.734 160.365 105.252V44.1108H97.6508V162.482H160.365V118.19C160.365 117.709 160.766 117.288 161.224 117.288C161.682 117.288 162.083 117.709 162.083 118.19V163.385C162.083 163.866 161.74 164.287 161.224 164.287Z" fill="white"/>
<path d="M257.214 145.873H174.397C173.939 145.873 173.538 145.451 173.538 144.97C173.538 144.488 173.939 144.067 174.397 144.067H256.355V2.10624H175.256V111.812C175.256 112.293 174.855 112.714 174.397 112.714H110.594C110.136 112.714 109.735 112.293 109.735 111.812C109.735 111.33 110.136 110.909 110.594 110.909H173.538V1.20357C173.538 0.722137 173.939 0.300888 174.397 0.300888H257.214C257.672 0.300888 258.073 0.722137 258.073 1.20357V144.97C258.073 145.512 257.73 145.873 257.214 145.873Z" fill="#CFF0FF"/>
<path d="M256.641 215.198H200.342C199.883 215.198 199.482 214.777 199.482 214.296V200.575C199.482 200.093 199.883 199.672 200.342 199.672H273.823V164.287H219.356C218.898 164.287 218.497 163.866 218.497 163.385V104.169C213.113 104.049 208.245 103.567 205.21 101.341C202.862 99.6555 201.315 96.8873 200.914 93.8784C200.571 91.1704 201.258 88.5827 202.862 86.657C204.58 84.4906 208.303 83.1065 212.025 84.5507C215.004 85.6941 219.986 89.5456 220.215 102.364C220.616 102.364 221.017 102.364 221.361 102.364H244.614V74.4408H186.195C185.737 74.4408 185.336 74.0195 185.336 73.5381V60.2386C185.336 59.7572 185.737 59.336 186.195 59.336H245.53C245.988 59.336 246.389 59.7572 246.389 60.2386C246.389 60.7201 245.988 61.1413 245.53 61.1413H187.054V72.6354H245.53C245.988 72.6354 246.389 73.0567 246.389 73.5381V103.266C246.389 103.748 245.988 104.169 245.53 104.169H221.418C221.017 104.169 220.616 104.169 220.273 104.169V162.482H274.74C275.198 162.482 275.599 162.903 275.599 163.385V200.635C275.599 201.116 275.198 201.538 274.74 201.538H201.258V213.453H256.698C257.157 213.453 257.558 213.874 257.558 214.356C257.558 214.837 257.157 215.198 256.641 215.198ZM208.99 85.7543C206.985 85.7543 205.152 86.657 204.236 87.8004C202.976 89.365 202.461 91.4111 202.69 93.6377C202.976 96.1652 204.293 98.3918 206.241 99.8361C208.875 101.762 213.572 102.243 218.554 102.303C218.44 97.6696 217.695 93.8784 216.321 91.05C215.118 88.6429 213.457 86.9579 211.51 86.2357C210.651 85.9348 209.792 85.7543 208.99 85.7543Z" fill="#E3F7FF"/>
<path d="M274.74 235.9H182.014C181.556 235.9 181.155 235.478 181.155 234.997V163.385C181.155 162.903 181.556 162.482 182.014 162.482H211.854C212.312 162.482 212.713 162.903 212.713 163.385C212.713 163.866 212.312 164.287 211.854 164.287H182.873V234.094H273.881V208.037C273.881 207.556 274.282 207.134 274.74 207.134C275.198 207.134 275.599 207.556 275.599 208.037V234.997C275.599 235.478 275.198 235.9 274.74 235.9Z" fill="white"/>
<path d="M245.587 47.7215H186.195C185.737 47.7215 185.336 47.3003 185.336 46.8188C185.336 46.3374 185.737 45.9162 186.195 45.9162H245.53C245.988 45.9162 246.389 46.3374 246.389 46.8188C246.389 47.3003 246.046 47.7215 245.587 47.7215Z" fill="white"/>
<path d="M147.078 70.83H110.594C110.136 70.83 109.735 70.4088 109.735 69.9274C109.735 69.4459 110.136 69.0247 110.594 69.0247H147.078C147.536 69.0247 147.937 69.4459 147.937 69.9274C147.937 70.4088 147.536 70.83 147.078 70.83Z" fill="white"/>
<path d="M147.078 84.3702H110.594C110.136 84.3702 109.735 83.949 109.735 83.4675C109.735 82.9861 110.136 82.5648 110.594 82.5648H147.078C147.536 82.5648 147.937 82.9861 147.937 83.4675C147.937 83.949 147.536 84.3702 147.078 84.3702Z" fill="white"/>
<path d="M147.078 98.5121H110.594C110.136 98.5121 109.735 98.0909 109.735 97.6095C109.735 97.128 110.136 96.7068 110.594 96.7068H147.078C147.536 96.7068 147.937 97.128 147.937 97.6095C147.937 98.0909 147.536 98.5121 147.078 98.5121Z" fill="white"/>
<path d="M78.4648 115.302C78.4648 115.302 82.8176 96.3457 87.3422 91.1704C90.3204 87.7402 92.5541 81.9631 94.7877 77.9311C95.9332 75.885 96.3341 73.2372 98.3959 73.6584C104.581 74.9222 96.2196 92.4943 96.2196 92.4943L95.9905 122.523L86.9413 129.624L78.4648 115.302Z" fill="#E3F7FF"/>
<path d="M22.7947 144.549C22.7947 144.549 5.09727 178.429 1.48905 188.298C-2.17644 198.168 2.00451 249.079 15.8074 270.021C22.852 280.672 12.4282 290 25.7157 290C39.0031 290 102.977 290 102.977 290C102.977 290 106.414 287.051 108.705 276.58C110.308 269.178 108.705 254.435 108.705 254.435C108.705 254.435 145.13 214.777 146.677 206.593C148.223 198.408 133.905 173.795 122.508 181.197C111.11 188.599 92.7827 198.95 92.7827 198.95L91.4654 181.438C91.4654 181.438 108.017 174.939 108.819 164.227C108.819 164.227 98.1664 164.107 97.3073 164.107C96.4482 164.107 95.9327 163.445 95.9327 162.361C95.9327 161.278 95.99 122.463 95.99 122.463C95.99 122.463 85.9672 125.352 78.4644 115.242L73.4816 134.379L39.9767 129.203L22.7947 144.549Z" fill="#022F51"/>
<path d="M18.4995 159.834C18.4995 159.834 24.7996 171.99 38.5452 172.592C52.2908 173.194 51.9471 152.552 51.9471 152.552C51.9471 152.552 60.8818 146.835 62.8863 140.757C64.8909 134.679 65.0054 126.435 66.6664 124.148C68.3273 121.801 72.2219 118.491 72.3937 115.302C72.6228 112.112 66.3227 112.534 61.6263 103.627C56.9299 94.7209 50.6871 86.5968 50.6871 86.5968L22.5087 99.7759L15.0059 140.818C15.0631 140.757 18.4995 151.951 18.4995 159.834Z" fill="#E3F7FF"/>
<path d="M17.1247 148.701C17.1247 148.701 22.3366 152.613 27.9494 155.682C33.5622 158.751 41.8668 152.312 36.4258 140.757C30.9849 129.203 30.6412 121.019 36.254 120.477C41.8668 119.936 40.8932 128 45.7041 126.014C48.9687 124.69 48.4532 119.635 48.4532 112.534C48.4532 105.433 59.507 99.4148 59.1633 90.3279C58.8197 81.2409 48.9114 73.4779 39.805 76.3665C39.805 76.3665 25.7157 71.0106 13.8602 85.634C2.00459 100.257 -0.114517 111.751 0.229123 121.5C0.801856 138.41 13.9174 146.474 17.1247 148.701Z" fill="#1EAEF7"/>
<path d="M133.046 183.845C133.046 183.845 136.024 181.017 139.002 175.119C143.298 166.815 146.104 149.303 152.061 149.303C158.017 149.303 152.576 164.107 152.576 164.107C152.576 164.107 159.678 164.107 160.48 164.107C161.282 164.107 162.083 163.505 162.083 162.482C162.083 161.459 162.083 160.015 162.083 158.45C162.083 151.048 162.083 141.841 162.083 141.841C162.083 141.841 165.577 142.382 167.181 149.122C168.784 155.922 169.185 161.098 170.846 167.537C172.679 174.818 166.093 180.716 158.533 188.9C150.972 197.084 139.632 205.028 139.632 205.028L133.046 183.845Z" fill="#E3F7FF"/>
<path d="M256.642 188.058H200.285C199.827 188.058 199.426 187.636 199.426 187.155C199.426 186.674 199.827 186.252 200.285 186.252H256.642C257.1 186.252 257.501 186.674 257.501 187.155C257.501 187.636 257.157 188.058 256.642 188.058Z" fill="white"/>
</svg>
