<svg width="236" height="266" viewBox="0 0 236 266" fill="none" xmlns="http://www.w3.org/2000/svg">
<path d="M130.268 236.189H120.13C119.738 236.189 119.396 235.846 119.396 235.455V203.392H88.5918C88.5428 206.28 88.3959 209.07 87.5634 210.832C86.6329 212.937 85.0657 214.308 83.2537 214.65C81.4907 214.993 79.5808 214.357 78.1606 212.937C76.8383 211.615 76.4955 209.559 77.328 207.552C78.4054 204.958 81.5397 202.168 87.1716 201.923V170.79H61.9016C61.5098 170.79 61.216 170.496 61.167 170.105C61.118 169.713 61.4119 169.371 61.8037 169.322C64.2523 168.93 68.2191 166.825 68.8068 164.378C69.1006 163.105 68.415 161.832 66.7009 160.608C64.3992 158.944 59.8937 158.259 55.8779 157.671C50.8827 156.888 46.9159 156.301 46.6711 154C46.6221 153.657 46.818 153.364 47.1608 153.217C51.4704 151.699 51.1276 148.028 49.2176 142.692C47.6995 138.434 42.4104 121.399 42.0186 120.175L27.4737 93.3986C27.3758 93.2028 27.3758 93.007 27.4247 92.8112C27.4737 92.6154 27.6206 92.4685 27.8165 92.3706C29.8734 91.3426 34.9666 88.1119 34.0361 85.3217C30.2162 73.6713 21.9398 55.2657 21.8418 55.0699C21.6949 54.7762 21.7929 54.3846 22.0867 54.1888C22.3805 53.993 22.7234 53.993 23.0172 54.1888C23.1641 54.2867 36.5337 65.4965 40.5005 69.2168C42.8512 71.4196 54.5067 78.2238 56.3677 78.2238C56.9553 78.2238 57.4941 77.4895 57.9838 76.8042C58.5225 76.021 59.1102 75.1888 59.9917 75.2378C60.8732 75.2867 61.4608 76.1189 61.8037 76.7063C65.1338 82.2867 70.4229 84.979 73.0674 84.5384C72.5287 83.6573 71.3534 82.0909 70.3739 80.7203C70.178 80.4755 70.178 80.0839 70.3739 79.8392C70.5698 79.5944 70.9126 79.4965 71.2064 79.5944C71.99 79.8881 78.5034 82.2867 79.238 85.958C81.4907 86.7413 84.0863 86.4475 85.6534 85.1748C87.0736 84 87.5634 82.1888 87.0736 79.9371C87.0247 79.6433 86.9267 79.1049 86.8288 78.4196C86.6329 76.9021 86.0452 72.937 85.5065 72.3986C84.674 71.7133 83.1068 71.4196 81.5887 71.1748C80.0705 70.9301 78.5034 70.6364 77.377 69.8531C76.7893 69.4615 76.6424 69.4615 76.6424 69.4615C76.5934 69.4615 76.4955 69.5594 76.4465 69.6573C75.9078 70.1468 75.2222 70.6364 73.7041 70.2447C73.6061 70.1958 73.5082 70.1958 73.4102 70.0979C64.9869 63.3916 49.0707 49.979 37.1703 35C32.6159 29.3706 27.8655 28.0979 24.0946 27.0699C21.9888 26.4825 20.1768 25.993 18.8545 24.8671C16.8956 23.2517 15.9161 20.3636 16.6997 18.4545C17.5812 16.1538 20.3237 16.5944 23.2131 17.035C26.2004 17.4755 29.5795 18.014 31.6854 15.9091C35.3583 12.1888 36.4847 10.3776 36.4847 10.3287C36.6316 10.0839 36.9255 9.93706 37.2193 9.98601C38.5905 10.1818 40.4025 10.0839 40.7453 9.6923C41.0392 9.34964 40.9902 9.00699 40.6474 7.83216C40.5005 7.34265 40.3536 6.85314 40.2556 6.21678C39.8638 4.35664 39.8638 1.12587 39.8638 1.02797C39.8638 0.636358 40.2066 0.293701 40.5984 0.293701C40.9902 0.293701 41.333 0.636358 41.333 1.02797C41.333 1.07692 41.333 4.20978 41.6758 5.92307C41.7738 6.51048 41.9207 6.99999 42.0676 7.44055C42.4104 8.66433 42.7043 9.74125 41.8228 10.7203C40.8923 11.6993 38.6395 11.6503 37.4642 11.5035C36.9255 12.2378 35.5542 14 32.7138 16.9371C30.1182 19.5804 26.1514 18.993 22.9682 18.5035C20.2257 18.0629 18.5117 17.8671 18.0709 18.993C17.6302 20.1678 18.2179 22.4196 19.834 23.7413C20.9603 24.6713 22.6254 25.1119 24.5353 25.6503C28.3063 26.6783 33.4974 28.0979 38.3457 34.1678C50.0992 48.951 65.8194 62.2657 74.2428 68.972C74.9773 69.1189 75.1732 68.972 75.4671 68.6783C76.1527 68.0419 76.8873 67.8461 78.2585 68.7762C79.0911 69.3636 80.5113 69.6084 81.8825 69.8531C83.5966 70.1468 85.3106 70.4405 86.486 71.4196C87.2695 72.0559 87.7103 74.2587 88.2979 78.3706C88.3959 79.007 88.4449 79.5454 88.5428 79.7902C89.1305 82.5804 88.4449 84.979 86.6329 86.4475C84.527 88.1608 81.1969 88.5035 78.3075 87.2797C78.0626 87.1818 77.8667 86.9371 77.8667 86.6433C77.7688 84.8811 75.3691 83.2657 73.2143 82.1888C75.1243 84.8322 75.0263 85.028 74.8304 85.4196C74.7815 85.5664 74.6345 85.6643 74.5366 85.7622C70.6677 87.8182 63.8605 83.1189 60.6283 77.6364C60.1876 76.951 59.9917 76.8531 59.9917 76.8531C59.8447 76.9021 59.453 77.4405 59.2571 77.7832C58.6204 78.7133 57.7879 79.8392 56.4656 79.8392C53.7231 79.8392 41.5779 72.3007 39.57 70.4405C36.6806 67.6993 28.6491 60.944 24.5843 57.5175C27.0819 63.1958 32.5669 76.0699 35.5542 84.979C36.8275 88.8461 31.2446 92.3217 29.2857 93.4475L43.4878 119.636C43.4878 119.685 43.5368 119.734 43.5368 119.783C43.5858 119.979 49.1687 137.944 50.7358 142.301C51.8622 145.434 54.1149 151.846 48.532 154.392C49.6094 155.322 53.3803 155.86 56.2208 156.301C60.3834 156.937 65.1338 157.671 67.6804 159.531C70.4718 161.538 70.6677 163.496 70.3249 164.818C69.8842 166.678 68.1212 168.294 66.1133 169.42H88.0041C88.3959 169.42 88.7387 169.762 88.7387 170.154V201.972H120.277C120.669 201.972 121.012 202.315 121.012 202.706V234.769H130.268C130.659 234.769 131.002 235.112 131.002 235.503C131.002 235.895 130.659 236.189 130.268 236.189ZM87.1226 203.392C82.2253 203.587 79.5318 205.937 78.6503 208.091C78.0626 209.559 78.2585 210.979 79.189 211.86C80.2664 212.937 81.6866 213.427 83.0089 213.182C84.3801 212.937 85.5065 211.909 86.2901 210.196C86.9267 208.678 87.1226 205.986 87.1226 203.392Z" fill="#1EAEF7"/>
<path d="M210.093 236.776C210.191 237.804 210.191 238.832 210.044 239.86C209.799 241.818 209.163 243.776 208.379 245.538C207.743 246.958 206.959 248.28 206.126 249.552C205.294 250.727 204.51 251.364 203.433 252.245C202.111 253.322 200.788 254.447 199.858 255.916C198.046 258.804 198.438 262.818 201.866 264.189C201.915 264.189 201.964 264.238 202.013 264.238C204.657 265.07 207.84 264.776 210.583 264.727C215.235 264.629 218.712 262.378 221.7 258.853C221.7 258.657 222.385 258.07 222.532 257.874C222.875 257.482 223.169 257.091 223.512 256.699C224.148 255.916 224.834 255.133 225.471 254.35C227.087 252.489 228.703 250.531 230.27 248.573C231.641 246.909 233.208 245.441 234.286 243.58C237.224 238.538 234.335 233.007 231.935 228.406C231.396 227.329 230.76 226.301 229.927 225.42C229.144 224.538 228.115 224.049 227.332 223.168C227.528 223.413 226.156 225.615 226.009 225.958C225.52 226.937 224.687 227.769 223.855 228.552C223.12 229.238 222.043 229.776 221.161 230.315C219.937 231.049 218.663 231.783 217.439 232.517C216.215 233.252 214.942 233.986 213.717 234.72C213.374 234.867 210.093 236.482 210.093 236.776Z" fill="#3F3161"/>
<path d="M165.822 211.322C165.822 211.322 173.119 223.119 168.858 234.084C168.221 235.699 166.801 236.238 165.087 236.238C156.713 236.238 131.835 236.238 128.113 236.238C123.607 236.238 122.285 229.091 128.553 225.517C134.822 221.944 148.192 221.552 147.947 215.434C147.947 215.385 161.414 207.308 165.822 211.322Z" fill="#3F3161"/>
<path d="M159.455 120.175C159.455 120.175 134.577 146.119 130.268 154.392C127.721 159.238 126.937 164.475 128.162 168.734C129.386 172.993 142.315 218.028 142.315 218.028C142.315 218.028 159.847 217.832 170.18 212.399C173.902 210.441 159.945 178.475 159.357 173.972C158.77 169.468 176.106 157.769 176.106 157.769C176.106 157.769 180.661 176.224 186.782 191.937C191.728 204.664 200.788 227.28 203.972 235.112C204.559 236.58 208.085 237.804 211.66 236.825C218.37 234.916 227.136 228.699 230.172 227.035C231.788 226.154 232.474 224.685 231.984 223.119C229.878 216.021 220.867 190.811 216.019 177.986C210.779 164.133 209.848 147.783 211.562 138.629C213.277 129.475 198.585 103.287 198.585 103.287L159.455 120.175Z" fill="#E23B53"/>
<path d="M159.896 52.1328C152.844 51.8391 147.017 54.7272 138.691 61.972C130.366 69.2168 113.078 71.958 101.227 67.8951C93.979 65.3986 89.1797 64.1748 89.1797 69.1678C89.1797 74.1608 86.8779 83.5105 91.3834 86.2517C95.9379 88.993 107.496 96.0419 125.86 95.4056C139.181 94.965 142.511 93.007 142.511 93.007C142.511 93.007 147.604 105.881 154.167 119.049C160.435 131.58 191.68 116.944 191.68 116.944C191.68 116.944 202.013 135.545 207.939 133.881C213.864 132.217 220.966 123.601 220.966 123.601C220.966 123.601 211.71 97.5594 206.861 88.1608C202.013 78.7622 203.972 61.972 181.885 51.3986C168.761 45.0839 171.699 52.5734 159.896 52.1328Z" fill="#1EAEF7"/>
<path d="M150.445 17.5245C150.445 17.5245 149.122 23.5454 145.988 26.3356C142.854 29.1259 140.797 29.6643 141.434 31.4266C142.07 33.1888 144.862 33.1888 145.351 36.5175C145.89 39.8461 145.547 43.6643 151.375 46.4545C157.154 49.2447 154.901 57.8601 158.721 57.7133C162.541 57.6154 170.768 49.0489 174.049 48.8531V36.6643L157.693 14.8322L150.445 17.5245Z" fill="#6A6A6A"/>
<path d="M159.211 23.3986C157.252 23.7902 150.151 22.3706 147.604 18.014C146.429 16.007 145.449 12.3357 148.143 11.1119C148.632 10.9161 149.122 10.8182 149.661 10.6713C151.522 10.1329 151.375 8.81118 151.963 7.34265C152.648 5.72726 154.313 4.60139 156.076 4.65034C157.497 4.69929 158.819 5.43356 160.043 6.11887C162.002 7.24475 170.132 12.1399 170.915 12.5804C175.959 15.5664 184.089 26.0909 179.534 37.1049C175.714 46.4056 176.743 46.5524 172.335 46.8461C167.928 47.1398 160.533 44.1049 162.296 38.3776C164.206 32.0629 163.324 27.951 159.504 30.4475C155.685 32.944 159.798 24.1818 159.211 23.3986Z" fill="#3F3161"/>
<path d="M208.379 133.832C208.379 133.832 209.995 146.804 212.444 148.077C216.068 149.937 214.011 140.489 215.334 139.902C216.656 139.315 217.586 146.853 218.37 148.909C220.329 154.489 228.066 153.706 227.822 142.937C227.577 132.168 224.051 129.329 220.965 123.503C220.916 123.552 209.8 122.28 208.379 133.832Z" fill="#6A6A6A"/>
<path d="M85.4086 65.4475C85.7024 65.4965 85.9962 65.5944 86.2901 65.7412C87.7593 66.3776 91.6771 68.5804 91.6771 70.5385C91.6771 72.6433 92.0199 79.3496 91.1384 81.3077C90.4038 83.021 88.5918 82.042 88.5918 82.042C88.5918 82.042 83.4986 71.6643 79.8746 70.979C78.1116 70.979 77.377 70.8322 75.614 70.5874C74.9284 70.4895 74.0958 70.2937 73.851 69.6084C73.6551 69.0699 73.9 68.4336 74.3407 68.0909C74.7815 67.6993 75.3691 67.5524 75.9078 67.4056C77.475 66.965 78.9931 66.5245 80.5603 66.0349C82.1274 65.5944 83.8414 65.1049 85.4086 65.4475Z" fill="#6A6A6A"/>
<path d="M76.6423 79.6923C76.9851 79.8391 77.279 80.0349 77.4259 80.3776C77.6218 80.7692 77.4749 81.2587 77.7197 81.6503C78.0136 82.0909 78.6012 82.1398 79.1399 82.3356C79.8745 82.6293 80.4132 83.3147 80.7071 84.0979C81.0009 84.8811 81.0499 85.6643 81.0989 86.4965C81.0989 86.8391 81.1478 87.1818 80.9519 87.4755C80.6091 87.965 79.9235 87.8671 79.3358 87.7692C77.132 87.2308 75.7118 86.5454 73.8998 85.3706C70.9125 83.4126 69.2964 79.5454 69.2964 79.5454C69.2964 79.5454 72.3327 79.1049 72.9204 79.1538C73.9488 79.2517 76.4464 79.5944 76.6423 79.6923Z" fill="#6A6A6A"/>
<path d="M31.5385 170.448H11.2637C11.0678 170.448 10.872 170.35 10.725 170.203C10.5781 170.056 10.5291 169.86 10.5291 169.664C10.872 165.895 9.25585 165.014 7.39488 163.986C5.48494 162.958 3.33014 161.783 3.67295 157.671L7.15002 115.182C7.19899 114.839 7.39488 114.594 7.73769 114.545C8.03153 114.497 8.37434 114.594 8.52126 114.888L32.2241 154.587C32.2731 154.685 32.3221 154.832 32.3221 154.979V169.762C32.2731 170.154 31.9303 170.448 31.5385 170.448ZM12.0473 168.979H30.8039V155.126L8.37434 117.58L5.09316 157.769C4.8483 160.951 6.26851 161.734 8.0805 162.713C9.8925 163.692 12.1452 164.916 12.0473 168.979Z" fill="#1EAEF7"/>
</svg>
