<svg width="78" height="78" viewBox="0 0 78 78" fill="none" xmlns="http://www.w3.org/2000/svg">
<circle cx="39" cy="39" r="39" fill="#022F51"/>
<path d="M39.218 56.436C48.7273 56.436 56.436 48.7273 56.436 39.218C56.436 29.7088 48.7273 22 39.218 22C29.7088 22 22 29.7088 22 39.218C22 48.7273 29.7088 56.436 39.218 56.436Z" stroke="white" stroke-width="2.81954" stroke-miterlimit="10"/>
<path d="M39.2178 49.1428C44.6991 49.1428 49.1426 44.6993 49.1426 39.218C49.1426 33.7367 44.6991 29.2932 39.2178 29.2932C33.7365 29.2932 29.293 33.7367 29.293 39.218C29.293 44.6993 33.7365 49.1428 39.2178 49.1428Z" fill="white"/>
<path d="M57.0001 28.5413C57.0001 30.8721 55.1204 32.7518 52.7896 32.7518C50.4588 32.7518 48.5791 30.8721 48.5791 28.5413C48.5791 26.2105 50.4588 24.3308 52.7896 24.3308C55.1016 24.3308 57.0001 26.2105 57.0001 28.5413Z" fill="white"/>
</svg>
