<svg width="119" height="119" viewBox="0 0 119 119" fill="none" xmlns="http://www.w3.org/2000/svg">
<circle cx="59.5" cy="59.5" r="59.5" fill="#022F51"/>
<path d="M67 69H44" stroke="white" stroke-width="2"/>
<path d="M58 56H44" stroke="white" stroke-width="2"/>
<path d="M72 43H44" stroke="white" stroke-width="2"/>
<rect x="37" y="32" width="42" height="52" stroke="white" stroke-width="2"/>
<mask id="path-6-inside-1" fill="white">
<path d="M93.4802 37.176L90.7036 41.5097L87.9271 45.8434L85.1505 50.1771L82.374 54.5107L80.2916 57.761L79.2504 59.3861L78.2092 61.0112L77.1475 62.6682L76.3717 63.8791L75.5959 65.09L74.5339 66.7472L74.0006 67L67.0006 70L67.0006 62L67.0412 61.904L85.9677 32.3628L88.8123 28.0317L96.163 32.8355L93.4802 37.176Z"/>
</mask>
<path d="M93.4802 37.176L90.7036 41.5097L87.9271 45.8434L85.1505 50.1771L82.374 54.5107L80.2916 57.761L79.2504 59.3861L78.2092 61.0112L77.1475 62.6682L76.3717 63.8791L75.5959 65.09L74.5339 66.7472L74.0006 67L67.0006 70L67.0006 62L67.0412 61.904L85.9677 32.3628L88.8123 28.0317L96.163 32.8355L93.4802 37.176Z" fill="#022F51"/>
<path d="M70.6607 64.2436L70.1178 65.0834L70.1178 65.0834L70.6607 64.2436ZM85.4282 33.2048L89.1845 35.6114L90.2634 33.9274L86.5072 31.5208L85.4282 33.2048ZM89.1845 35.6114L92.9407 38.018L94.0197 36.334L90.2634 33.9274L89.1845 35.6114ZM66.4983 62.7438L70.1178 65.0834L71.2035 63.4037L67.584 61.0642L66.4983 62.7438ZM70.1178 65.0834L73.991 67.587L75.0767 65.9073L71.2035 63.4037L70.1178 65.0834ZM67.8803 70.4756L69.1127 68.196L67.3533 67.2449L66.1209 69.5245L67.8803 70.4756ZM93.4802 37.176L95.1642 38.2549L95.1729 38.2413L95.1815 38.2275L93.4802 37.176ZM90.7036 41.5097L92.3876 42.5886L92.3876 42.5886L90.7036 41.5097ZM75.5959 65.09L77.2798 66.1692L77.2799 66.1689L75.5959 65.09ZM74.0006 67L74.7884 68.8383L74.8233 68.8234L74.8576 68.8072L74.0006 67ZM67.0006 70L65.0006 70L65.0006 73.0331L67.7884 71.8383L67.0006 70ZM67.0006 62L65.1581 61.2222L65.0006 61.5952L65.0006 62L67.0006 62ZM67.0412 61.904L65.3571 60.8251L65.265 60.9689L65.1986 61.1262L67.0412 61.904ZM85.9677 32.3628L84.296 31.2649L84.2898 31.2743L84.2837 31.2839L85.9677 32.3628ZM74.5339 66.7472L75.3908 68.5543L75.9086 68.3087L76.2178 67.8263L74.5339 66.7472ZM88.8123 28.0317L89.9064 26.3575L88.236 25.2659L87.1406 26.9338L88.8123 28.0317ZM96.163 32.8355L97.8642 33.887L98.8895 32.2282L97.2571 31.1613L96.163 32.8355ZM91.7962 36.0971L89.0196 40.4308L92.3876 42.5886L95.1642 38.2549L91.7962 36.0971ZM89.0196 40.4308L86.2431 44.7644L89.6111 46.9223L92.3876 42.5886L89.0196 40.4308ZM86.2431 44.7644L83.4665 49.0981L86.8345 51.256L89.6111 46.9223L86.2431 44.7644ZM83.4665 49.0981L80.69 53.4318L84.058 55.5897L86.8345 51.256L83.4665 49.0981ZM80.69 53.4318L78.6076 56.6821L81.9756 58.8399L84.058 55.5897L80.69 53.4318ZM78.6076 56.6821L77.5664 58.3072L80.9344 60.465L81.9756 58.8399L78.6076 56.6821ZM77.5664 58.3072L76.5251 59.9323L79.8932 62.0902L80.9344 60.465L77.5664 58.3072ZM76.5251 59.9323L75.4635 61.5893L78.8316 63.7472L79.8932 62.0902L76.5251 59.9323ZM75.4635 61.5893L74.6877 62.8002L78.0557 64.9581L78.8316 63.7472L75.4635 61.5893ZM74.6877 62.8002L73.9119 64.0111L77.2799 66.1689L78.0557 64.9581L74.6877 62.8002ZM73.2128 65.1618L66.2128 68.1618L67.7884 71.8383L74.7884 68.8383L73.2128 65.1618ZM69.0006 70L69.0006 62L65.0006 62L65.0006 70L69.0006 70ZM68.8432 62.7779L68.8837 62.6818L65.1986 61.1262L65.1581 61.2222L68.8432 62.7779ZM68.7252 62.9829L87.6517 33.4417L84.2837 31.2839L65.3571 60.8251L68.7252 62.9829ZM73.9121 64.0108L72.85 65.668L76.2178 67.8263L77.2798 66.1692L73.9121 64.0108ZM73.677 64.94L73.1437 65.1929L74.8576 68.8072L75.3908 68.5543L73.677 64.94ZM87.6394 33.4607L90.484 29.1296L87.1406 26.9338L84.296 31.2649L87.6394 33.4607ZM87.7182 29.7059L95.0689 34.5097L97.2571 31.1613L89.9064 26.3575L87.7182 29.7059ZM94.4617 31.784L91.7789 36.1245L95.1815 38.2275L97.8642 33.887L94.4617 31.784Z" fill="white" mask="url(#path-6-inside-1)"/>
</svg>
