<svg width="1440" height="451" viewBox="0 0 1440 451" fill="none" xmlns="http://www.w3.org/2000/svg">
<g clip-path="url(#clip0)">
<rect width="1440" height="451" fill="white"/>
<rect x="-1" y="-37" width="1441" height="492" fill="#022F51"/>
<g style="mix-blend-mode:overlay" clip-path="url(#clip1)">
<path d="M1108.51 463.118H1144.45V406.322H1203.67L1201.81 600.917L1051.52 580.247L1108.51 463.118Z" fill="white"/>
<path d="M1242.41 406.322C1243.9 407.998 1245.39 409.487 1246.88 411.163C1250.04 414.701 1253.4 418.24 1256.56 421.778C1259.92 425.316 1263.08 429.04 1266.43 432.578C1267.36 433.509 1268.11 434.44 1269.04 435.371C1269.97 436.303 1271.09 437.047 1271.28 438.537C1271.28 438.91 1271.28 439.096 1271.28 439.468C1271.28 440.399 1271.28 441.517 1271.28 442.448C1271.28 445.613 1271.28 448.965 1271.28 452.131C1271.28 456.414 1271.28 460.883 1271.28 465.166C1271.28 470.008 1271.28 475.035 1271.28 479.877C1271.28 484.719 1271.28 489.56 1271.28 494.402C1271.28 498.685 1271.28 502.782 1271.28 507.065C1271.28 510.044 1271.28 513.21 1271.28 516.189C1271.28 517.493 1271.28 518.61 1271.28 519.913H1281.33C1281.33 518.796 1281.33 517.679 1281.33 516.562C1281.33 513.768 1281.33 510.975 1281.33 508.368C1281.33 504.458 1281.33 500.361 1281.33 496.45C1281.33 491.795 1281.33 486.953 1281.33 482.298C1281.33 477.27 1281.33 472.242 1281.33 467.214C1281.33 462.373 1281.33 457.345 1281.33 452.503C1281.33 448.22 1281.33 443.937 1281.33 439.468C1281.33 436.116 1281.33 432.951 1281.33 429.599C1281.33 428.481 1281.33 427.364 1281.33 426.247C1281.33 425.874 1281.33 425.502 1281.33 424.943C1281.33 423.64 1281.89 423.267 1283.19 423.454C1284.5 423.64 1285.99 423.454 1287.29 423.454C1289.15 423.454 1291.2 423.454 1293.06 423.454C1297.91 423.454 1302.93 423.454 1307.78 423.454C1312.99 423.454 1318.02 423.454 1323.23 423.454C1327.33 423.454 1331.43 423.454 1335.52 423.454C1337.2 423.454 1338.88 423.454 1340.55 423.454L1416.91 500.361L1424.36 588.068L1298.46 601.29L1231.42 558.274L1242.41 406.322Z" fill="white"/>
<path d="M771.991 431.089H762.866V447.662H771.991V431.089Z" fill="white"/>
<path d="M759.699 410.046H750.574V426.619H759.699V410.046Z" fill="white"/>
<path d="M759.141 448.593H750.947V467.028H759.141V448.593Z" fill="white"/>
<path d="M1190.45 442.634H1180.95V461.814H1190.45V442.634Z" fill="white"/>
<path d="M1118.75 365.541C1113.72 368.706 1120.99 360.327 1129.37 355.857C1134.95 352.878 1136.44 360.699 1136.44 360.699C1136.44 360.699 1142.03 352.878 1152.46 358.464C1152.46 358.464 1136.63 363.865 1134.77 370.196C1134.58 370.196 1133.46 356.416 1118.75 365.541Z" fill="white"/>
<path d="M1359.55 274.295C1359.55 274.295 1343.35 275.226 1335.9 285.282C1328.45 295.337 1329.94 264.984 1355.45 264.425C1355.45 264.425 1355.82 251.949 1366.25 250.832C1376.68 249.714 1384.32 256.418 1384.32 256.418C1384.32 256.418 1361.6 253.439 1359.55 274.295Z" fill="white"/>
<path d="M1120.24 535.369C1119.31 535.369 1118.57 534.625 1118.38 533.693C1118.19 532.762 1118.94 531.831 1120.06 531.645C1120.24 531.645 1132.35 530.155 1142.59 529.597C1155.25 529.038 1164.38 524.383 1169.41 516.375C1175.93 505.389 1174.25 488.629 1164.38 467.773C1150.6 438.723 1140.17 414.888 1142.03 396.825C1143.15 387.142 1147.8 379.507 1155.44 374.665C1166.43 367.961 1182.44 367.775 1199.39 374.293C1200.32 374.665 1200.88 375.783 1200.51 376.714C1200.14 377.645 1199.02 378.203 1198.09 377.831C1182.44 371.872 1167.36 371.872 1157.49 377.831C1150.78 381.928 1146.69 388.631 1145.76 397.197C1143.89 414.329 1154.51 438.537 1167.73 466.097C1178.16 488.071 1179.84 506.134 1172.57 518.238C1166.99 527.362 1156.74 532.576 1142.78 533.321C1132.72 533.88 1120.61 535.183 1120.24 535.369C1120.43 535.369 1120.43 535.369 1120.24 535.369Z" fill="white"/>
<path d="M1256.56 371.5C1255.82 371.5 1255.07 370.941 1255.07 370.196C1254.89 369.265 1255.63 368.52 1256.38 368.334C1256.75 368.334 1289.53 363.492 1303.68 339.657C1304.61 338.167 1305.54 336.305 1306.47 334.443C1294.93 330.532 1286.92 323.642 1283.19 316.752C1279.84 310.607 1279.47 303.903 1281.7 297.572C1283.75 291.985 1287.85 287.702 1292.69 285.84C1297.35 284.164 1302.19 284.537 1306.47 287.144C1312.06 290.496 1315.78 297.013 1316.9 304.834C1318.02 313.4 1314.85 323.828 1310.94 332.58C1318.21 334.629 1326.59 335.56 1336.27 334.815C1370.16 332.208 1381.34 319.173 1392.88 305.393C1406.11 289.751 1419.89 273.55 1468.68 274.481C1469.61 274.481 1470.17 275.226 1470.17 276.157C1470.17 277.088 1469.61 277.833 1468.49 277.647C1421.38 276.716 1408.71 291.613 1395.3 307.441C1383.76 321.035 1371.65 335.187 1336.46 337.981C1326.21 338.726 1317.27 337.794 1309.64 335.56C1308.52 337.608 1307.59 339.657 1306.47 341.333C1291.57 366.472 1258.43 371.313 1256.94 371.5C1256.75 371.5 1256.75 371.5 1256.56 371.5ZM1298.28 287.889C1296.79 287.889 1295.3 288.075 1293.81 288.82C1289.9 290.309 1286.36 294.034 1284.68 298.689C1282.63 304.089 1283.19 310.048 1285.99 315.262C1289.53 321.78 1296.97 327.925 1307.96 331.649C1311.69 323.27 1314.67 313.214 1313.74 305.207C1312.8 298.317 1309.64 292.73 1304.98 289.751C1302.75 288.633 1300.51 287.889 1298.28 287.889Z" fill="white"/>
<path d="M353.64 427.196L335.002 430.864L346.006 486.775L364.644 483.107L353.64 427.196Z" fill="white"/>
<path d="M375.854 426.359L355.24 437.175L381.722 487.633L402.335 476.816L375.854 426.359Z" fill="white"/>
<path d="M155.382 411.35C163.949 411.35 163.39 425.688 155.382 425.688C147.374 425.688 146.816 411.35 155.382 411.35Z" fill="white"/>
<path d="M789.869 486.395C788.007 486.022 786.145 485.836 784.282 485.65C779.627 485.091 774.971 483.415 771.432 480.622C767.708 477.642 765.287 473.359 765.101 468.518C765.101 467.959 775.902 468.89 776.833 469.076C778.509 469.449 780.372 469.635 782.048 470.008C783.91 470.566 785.772 471.311 787.635 472.056C785.214 468.145 783.91 463.676 783.351 459.021C783.165 457.531 783.537 455.669 785.4 456.228C786.89 456.6 788.007 457.904 788.752 459.207C790.614 462.373 792.663 465.538 794.525 468.704C794.525 461.814 794.711 455.11 794.711 448.22C794.711 445.986 795.456 442.82 797.691 442.82C799.553 448.965 800.671 455.297 800.857 461.814C802.16 456.414 803.464 450.641 807.375 446.731C807.934 445.986 809.051 445.427 809.796 445.986C810.168 446.172 810.168 446.544 810.355 447.103C812.031 452.876 811.1 459.393 807.561 464.421C810.541 460.324 813.893 455.669 818.921 456.6C819.48 460.324 818.363 463.49 816.128 466.283C814.079 469.076 811.472 471.684 808.492 473.732C812.031 471.87 815.569 470.566 819.48 469.449C820.597 469.076 821.901 469.076 822.646 470.008C823.018 470.566 823.018 471.125 823.018 471.684C822.646 476.153 818.176 478.946 814.638 480.808C811.286 482.484 807.934 483.415 804.581 484.905C803.65 485.277 802.719 485.65 802.16 486.395C801.602 486.953 801.229 488.257 801.602 489.002C801.974 489.56 802.905 490.119 803.65 490.491C804.768 491.05 805.885 490.864 807.189 491.05C809.237 491.422 818.735 491.236 813.148 493.471C808.12 495.333 806.258 494.774 798.436 494.96C790.8 495.147 778.882 494.029 778.882 493.285C778.882 492.54 788.938 491.795 791.359 490.491C792.104 490.119 792.29 489.188 792.476 488.443C792.663 487.326 792.104 487.139 790.987 486.953C790.428 486.581 790.242 486.395 789.869 486.395Z" fill="white"/>
<path d="M690.794 439.841H615.371V471.125H690.794V439.841Z" fill="white"/>
<path d="M678.689 421.219H635.298V438.165H678.689V421.219Z" fill="white"/>
<path d="M660.811 429.04C660.998 424.385 674.779 422.522 674.593 429.412C674.406 436.302 660.625 434.44 660.811 429.04Z" fill="white"/>
<path d="M669.005 445.427H629.711V453.621H669.005V445.427Z" fill="white"/>
<path d="M805.326 451.945C803.277 458.835 801.043 465.538 798.994 472.428C799.367 471.497 800.484 470.38 801.043 469.449C801.788 468.332 802.346 467.401 802.905 466.283C804.209 464.049 805.14 461.814 806.257 459.393C807.188 457.159 807.933 454.738 808.678 452.317C809.051 451.014 810.727 446.544 809.051 445.8C807.374 444.869 805.698 450.827 805.326 451.945Z" fill="white"/>
<path d="M274.011 489.56C273.825 489.56 273.638 489.56 273.638 489.56C272.707 489.56 272.148 488.815 272.148 487.884C272.148 486.953 272.893 486.394 273.825 486.394C275.128 486.394 299.711 486.953 317.03 468.89C305.856 465.911 297.29 458.276 293.006 449.524C286.302 436.303 288.35 420.102 297.476 413.026C305.856 406.508 320.941 405.577 329.694 414.701C336.025 421.405 337.515 433.137 333.604 445.986C330.997 454.365 327.273 461.255 322.803 466.842C328.018 467.4 333.791 466.842 340.309 464.793C355.021 459.952 361.725 453.434 367.685 447.848C375.879 440.027 382.956 433.509 405.676 433.509C406.607 433.509 407.166 434.254 407.166 434.999C407.166 435.744 406.421 436.489 405.676 436.489C384.259 436.489 377.927 442.448 369.919 450.082C363.774 456.041 356.697 462.559 341.426 467.773C333.791 470.38 326.714 470.752 320.382 469.635C302.876 488.815 277.363 489.56 274.011 489.56ZM312.933 410.977C307.905 410.977 302.876 412.653 299.338 415.26C291.33 421.591 289.654 435.93 295.613 447.848C298.779 454.179 306.787 463.118 319.265 465.911C323.921 460.511 327.831 453.621 330.439 444.868C333.977 433.323 332.673 422.523 327.273 416.75C323.548 412.839 318.334 410.977 312.933 410.977Z" fill="white"/>
<path d="M416.105 434.999H412.38C411.636 434.999 410.891 434.44 410.891 433.509C410.891 432.578 411.449 432.02 412.38 432.02H416.105C416.85 432.02 417.595 432.578 417.595 433.509C417.595 434.44 416.85 434.999 416.105 434.999Z" fill="white"/>
<path d="M539.949 434.999H532.499C531.755 434.999 531.01 434.44 531.01 433.509C531.01 432.578 531.568 432.02 532.499 432.02H539.949C540.694 432.02 541.438 432.578 541.438 433.509C541.438 434.44 540.694 434.999 539.949 434.999ZM519.277 434.999H511.828C511.083 434.999 510.338 434.44 510.338 433.509C510.338 432.578 510.897 432.02 511.828 432.02H519.277C520.022 432.02 520.767 432.578 520.767 433.509C520.767 434.44 520.022 434.999 519.277 434.999ZM498.605 434.999H491.156C490.411 434.999 489.666 434.44 489.666 433.509C489.666 432.578 490.225 432.02 491.156 432.02H498.605C499.35 432.02 500.095 432.578 500.095 433.509C500.095 434.44 499.35 434.999 498.605 434.999ZM477.934 434.999H470.485C469.74 434.999 468.995 434.44 468.995 433.509C468.995 432.578 469.554 432.02 470.485 432.02H477.934C478.679 432.02 479.424 432.578 479.424 433.509C479.424 434.44 478.865 434.999 477.934 434.999ZM457.449 434.999H449.999C449.254 434.999 448.509 434.44 448.509 433.509C448.509 432.578 449.068 432.02 449.999 432.02H457.449C458.193 432.02 458.938 432.578 458.938 433.509C458.938 434.44 458.193 434.999 457.449 434.999ZM436.777 434.999H429.328C428.583 434.999 427.838 434.44 427.838 433.509C427.838 432.578 428.397 432.02 429.328 432.02H436.777C437.522 432.02 438.267 432.578 438.267 433.509C438.267 434.44 437.522 434.999 436.777 434.999Z" fill="white"/>
<path d="M556.71 438.723C555.965 438.723 555.22 438.165 555.22 437.234V434.999H552.985C552.24 434.999 551.495 434.44 551.495 433.509C551.495 432.578 552.054 432.02 552.985 432.02H556.71C557.454 432.02 558.199 432.578 558.199 433.509V437.234C558.199 438.165 557.454 438.723 556.71 438.723Z" fill="white"/>
<path d="M556.71 453.621H552.985C552.24 453.621 551.495 453.062 551.495 452.131C551.495 451.2 552.054 450.641 552.985 450.641H555.22V448.407C555.22 447.662 555.778 446.917 556.71 446.917C557.641 446.917 558.199 447.475 558.199 448.407V452.131C558.199 453.062 557.454 453.621 556.71 453.621Z" fill="white"/>
<path d="M540.694 453.621H533.617C532.872 453.621 532.127 453.062 532.127 452.131C532.127 451.2 532.686 450.641 533.617 450.641H540.694C541.438 450.641 542.183 451.2 542.183 452.131C542.183 453.062 541.438 453.621 540.694 453.621ZM521.326 453.621H514.249C513.504 453.621 512.759 453.062 512.759 452.131C512.759 451.2 513.318 450.641 514.249 450.641H521.326C522.071 450.641 522.815 451.2 522.815 452.131C522.815 453.062 522.071 453.621 521.326 453.621ZM501.958 453.621H494.881C494.136 453.621 493.391 453.062 493.391 452.131C493.391 451.2 493.95 450.641 494.881 450.641H501.958C502.703 450.641 503.447 451.2 503.447 452.131C503.447 453.062 502.703 453.621 501.958 453.621ZM482.59 453.621H475.513C474.768 453.621 474.023 453.062 474.023 452.131C474.023 451.2 474.582 450.641 475.513 450.641H482.59C483.335 450.641 484.08 451.2 484.08 452.131C484.08 453.062 483.335 453.621 482.59 453.621ZM463.222 453.621H456.145C455.4 453.621 454.655 453.062 454.655 452.131C454.655 451.2 455.214 450.641 456.145 450.641H463.222C463.967 450.641 464.712 451.2 464.712 452.131C464.712 453.062 463.967 453.621 463.222 453.621ZM443.854 453.621H436.777C436.032 453.621 435.287 453.062 435.287 452.131C435.287 451.2 435.846 450.641 436.777 450.641H443.854C444.599 450.641 445.344 451.2 445.344 452.131C445.344 453.062 444.599 453.621 443.854 453.621Z" fill="white"/>
<path d="M420.76 457.345C420.015 457.345 419.271 456.786 419.271 455.855V452.131C419.271 451.386 419.829 450.827 420.76 450.827H424.485C425.23 450.827 425.975 451.386 425.975 452.317C425.975 453.248 425.416 453.807 424.485 453.807H422.064V456.228C422.064 456.786 421.505 457.345 420.76 457.345Z" fill="white"/>
<path d="M505.123 485.091C502.888 487.14 500.281 488.443 498.046 490.491C496.184 492.167 494.321 494.029 492.459 495.705C490.783 497.381 490.038 499.244 487.245 499.057C485.941 498.871 484.823 498.499 483.52 498.126C477.56 496.078 471.415 495.519 465.269 494.588C460.055 493.657 455.399 490.491 450.743 487.698C445.901 484.719 441.618 480.063 439.569 474.663C437.893 470.38 436.59 461.814 441.804 459.207C442.922 458.649 444.225 458.462 445.343 458.276C449.626 457.531 452.047 458.276 455.585 460.697C458.379 462.559 461.172 464.235 463.966 465.911C465.642 466.842 468.994 469.449 470.856 469.077C474.953 468.332 470.484 463.118 469.739 461.069C468.808 459.021 466.945 454.924 469.18 452.876C471.601 450.269 474.208 454.366 475.884 455.855C478.305 458.09 480.913 460.325 483.334 462.745C487.617 466.842 491.714 470.939 495.439 475.408C498.046 478.201 501.584 483.043 505.123 485.091Z" fill="white"/>
<path d="M601.59 416.191C599.541 416.564 597.679 417.495 596.003 418.612C595.072 419.171 594.327 419.729 593.396 420.102C592.464 420.474 591.347 420.847 590.416 421.219C589.298 421.778 588.181 422.523 587.25 423.267C585.76 424.571 584.457 426.061 583.712 427.923C583.339 428.854 583.153 429.785 582.78 430.716C582.408 431.647 581.849 432.392 581.104 433.137C579.987 434.254 578.683 434.44 577.194 434.813C575.517 435.185 574.028 435.744 572.351 435.93C568.441 436.303 565.833 437.979 566.765 442.262C567.137 443.937 567.882 445.613 568.068 447.289C568.627 451.945 559.129 468.332 567.882 478.015C570.303 480.808 577.566 485.836 577.566 493.657C569.372 499.43 567.137 520.845 568.999 521.217C570.675 521.776 600.845 527.362 600.845 527.362L618.723 506.133C618.723 506.133 615.929 502.782 614.253 497.754C612.577 493.098 611.832 486.767 613.322 480.436C616.302 467.214 631.573 440.586 631.573 440.586L623.006 430.716C621.144 429.413 619.468 427.923 617.606 426.619C614.998 424.571 612.205 422.523 609.598 420.474C607.363 419.171 604.569 415.819 601.59 416.191Z" fill="white"/>
<path d="M1415.79 567.398C1402.2 567.957 1380.22 567.771 1372.96 551.756C1368.49 541.515 1371.47 531.273 1373.7 522.893C1375.94 513.955 1377.05 498.312 1363.27 498.685C1345.95 499.057 1361.22 524.941 1351.35 526.059C1341.48 527.176 1335.9 518.796 1334.22 502.037C1333.1 491.05 1318.95 487.326 1311.5 481.739C1306.1 477.643 1302.56 472.428 1301.07 465.911C1299.4 458.09 1299.95 449.896 1302.56 442.448C1303.12 440.586 1303.87 438.91 1304.8 437.234C1310.57 425.875 1321.18 417.309 1333.29 413.398C1345.39 409.488 1358.8 410.419 1370.72 415.074C1382.08 419.543 1391.39 426.806 1403.68 429.226C1415.42 431.461 1427.71 431.275 1439.25 434.254C1445.96 435.93 1452.66 438.91 1457.51 443.937C1461.98 448.593 1464.77 454.552 1466.44 460.697C1468.49 468.146 1468.87 475.967 1467.38 483.415C1465.89 490.864 1462.35 498.126 1456.76 503.527C1452.85 507.437 1448.01 510.23 1443.91 513.768C1440.19 517.12 1438.88 522.521 1435.72 526.617C1421.75 544.866 1431.06 566.467 1431.06 566.467C1431.06 566.467 1429.57 566.84 1415.79 567.398Z" fill="white"/>
<path d="M46.4374 490.491C45.32 490.491 44.3888 490.491 43.2714 490.491C23.3448 489.56 5.28041 479.691 -2.35504 465.911C-11.4803 468.89 -19.302 473.36 -26.9375 477.643C-41.8359 486.022 -54.4996 493.098 -69.5842 485.091C-93.608 472.242 -91.9319 443.006 -91.9319 441.703L-88.2073 441.889C-88.2073 442.262 -89.6971 470.008 -67.9082 481.739C-54.6858 488.815 -43.3257 482.484 -28.986 474.291C-21.723 470.194 -13.5289 465.538 -4.21735 462.373C-18.9296 430.344 -9.61802 409.301 -9.24556 408.557C-8.8731 407.812 -8.31442 407.439 -7.5695 407.439H50.162C51.2794 407.439 52.0243 408.184 52.0243 409.301C52.0243 433.696 64.5017 452.876 64.6879 453.062C65.0604 453.621 65.0604 454.366 64.6879 454.924C64.3155 455.483 63.7568 455.855 63.0119 455.855C40.8504 455.855 20.3651 458.649 0.810869 464.421C7.88763 476.898 24.4621 485.65 42.8989 486.581C64.1292 487.512 82.3798 478.015 92.6225 460.697C94.8573 456.973 96.9058 453.062 98.9543 448.779C107.707 431.833 117.577 412.467 140.484 412.467C157.617 412.467 167.673 425.502 176.426 437.234C183.875 446.917 191.325 456.042 201.195 456.042L201.754 459.952C190.021 459.952 181.268 449.896 173.446 439.468C164.694 428.109 155.755 416.191 140.484 416.191C119.998 416.191 111.059 433.509 102.307 450.455C100.258 454.552 98.0232 458.649 95.7884 462.559C85.9182 480.436 67.8539 490.491 46.4374 490.491ZM-5.89341 411.164C-7.56948 415.819 -12.5977 434.627 -0.306496 461.256C18.8752 455.483 38.8019 452.503 60.2184 452.317C56.68 446.172 49.2308 430.53 48.6721 411.164H-5.89341V411.164Z" fill="white"/>
<path d="M912.223 560.695C911.85 560.695 911.292 560.509 911.106 560.322C910.733 559.95 910.547 559.577 910.361 559.019L909.057 526.99C909.057 526.059 909.802 525.128 910.733 525.128L1087.65 507.065L1085.04 489.56L909.802 503.154C909.243 503.154 908.871 502.968 908.498 502.782C908.126 502.409 907.94 502.037 907.94 501.478L906.264 469.635C906.264 468.518 907.008 467.773 907.94 467.587L1082.44 457.904L1079.64 437.606L889.317 441.889H888.385L888.199 438.165H890.062L1081.32 433.882C1082.25 433.882 1083 434.627 1083.18 435.558L1086.53 459.58C1086.53 460.138 1086.53 460.697 1086.16 461.069C1085.79 461.442 1085.42 461.628 1084.86 461.814L910.174 471.497L911.664 499.616L1086.72 486.022C1087.65 486.022 1088.58 486.581 1088.77 487.512L1091.94 508.554C1091.94 509.113 1091.94 509.485 1091.56 510.044C1091.19 510.417 1090.82 510.789 1090.26 510.789L913.154 528.852L914.271 557.157L1107.95 533.135L1108.7 532.949L1109.07 536.673L912.595 561.067C912.409 560.695 912.409 560.695 912.223 560.695Z" fill="white"/>
</g>
<path opacity="0.99" d="M10.669 437.593C8.78391 437.593 7.08736 436.461 6.33334 434.763C5.39081 432.311 6.52185 429.67 8.97242 428.538C11.423 427.595 14.0621 428.727 15.1931 431.179C16.1356 433.631 15.0046 436.272 12.554 437.404C11.8 437.404 11.2345 437.593 10.669 437.593ZM8.02989 434.008C8.59541 435.518 10.292 436.083 11.8 435.518C13.3081 434.952 13.8736 433.254 13.3081 431.745C12.7425 430.236 11.046 429.67 9.53794 430.236C8.2184 430.802 7.46437 432.499 8.02989 434.008V434.008ZM10.669 424.388C8.78391 424.388 7.08736 423.256 6.33334 421.559C5.39081 419.106 6.52185 416.277 8.78391 415.334C11.2345 414.39 14.0621 415.522 15.0046 417.786C15.9471 420.238 14.8161 422.879 12.3655 424.011C11.8 424.199 11.2345 424.388 10.669 424.388ZM8.02989 420.804C8.59541 422.313 10.292 422.879 11.8 422.313C13.3081 421.747 13.8736 420.049 13.3081 418.54C12.7425 417.031 11.046 416.465 9.53794 417.031C8.2184 417.597 7.46437 419.295 8.02989 420.804V420.804ZM10.669 450.797C8.78391 450.797 7.08736 449.665 6.33334 447.967C5.39081 445.515 6.52185 442.874 8.97242 441.743C11.423 440.799 14.0621 441.931 15.1931 444.383C16.1356 446.836 15.0046 449.477 12.554 450.608C11.8 450.608 11.2345 450.797 10.669 450.797ZM8.02989 447.213C8.59541 448.722 10.292 449.288 11.8 448.722C13.3081 448.156 13.8736 446.458 13.3081 444.949C12.7425 443.44 11.046 442.874 9.53794 443.44C8.2184 444.006 7.46437 445.704 8.02989 447.213V447.213Z" fill="#045EA2"/>
<path d="M1005.27 415.523H1007.15V436.272H1005.27V415.523ZM1005.27 391H1007.15V398.545H1005.27V391ZM1027.14 415.523H990V400.432H1026.95L1039.01 407.977L1027.14 415.523V415.523ZM991.885 413.636H1026.57L1035.43 407.977L1026.38 402.318H991.885V413.636Z" fill="#045EA2"/>
<path d="M1107.97 406.279L1113.06 404.959L1112.69 403.073L1107.6 404.582C1106.65 401.941 1104.96 399.677 1102.69 398.168L1105.52 393.641L1103.83 392.698L1101 397.225C1098.74 396.093 1095.91 395.716 1093.27 396.282L1091.95 391L1090.06 391.377L1091.38 396.659C1088.74 397.602 1086.67 399.3 1085.16 401.375L1080.45 398.545L1079.51 400.243L1084.22 403.073C1083.09 405.336 1082.52 408.166 1083.09 410.807L1078 412.127L1078.38 414.014L1083.47 412.693C1084.22 415.334 1085.92 417.598 1088.18 419.107L1085.54 423.634L1087.05 424.577L1089.69 420.05C1091.57 420.993 1093.46 421.37 1095.34 421.37C1096.1 421.37 1096.85 421.37 1097.42 421.182L1098.74 426.086L1100.62 425.52L1099.49 420.804C1102.13 419.861 1104.39 418.163 1106.09 415.9L1110.42 418.541L1111.37 417.032L1107.03 414.391C1108.16 411.75 1108.54 409.109 1107.97 406.279V406.279ZM1104.77 414.391C1103.26 416.843 1100.81 418.541 1098.17 419.295C1095.34 420.05 1092.51 419.484 1089.88 417.975C1087.43 416.466 1085.73 414.202 1084.97 411.373C1083.47 405.525 1087.05 399.677 1092.89 398.168C1093.83 397.98 1094.59 397.791 1095.53 397.791C1100.43 397.791 1104.77 401.186 1106.09 406.091C1106.65 408.92 1106.28 411.939 1104.77 414.391V414.391Z" fill="#045EA2"/>
<path d="M1121.36 430.613C1121.54 429.67 1121.54 428.727 1121.17 427.784L1126.07 425.897L1125.32 424.2L1120.41 426.086C1119.47 424.388 1117.96 423.257 1116.08 422.691L1116.83 417.409L1115.14 417.032L1114.38 422.313C1112.87 422.313 1111.18 422.691 1109.86 423.634C1109.67 423.822 1109.48 424.011 1109.1 424.2L1105.14 420.804L1104.01 422.313L1108.16 425.709C1107.6 426.463 1107.22 427.407 1107.03 428.35C1106.84 429.293 1106.84 430.236 1107.22 431.179L1102.32 433.066L1103.07 434.763L1107.97 432.877C1108.92 434.575 1110.42 435.707 1112.31 436.272L1111.37 441.554L1113.25 441.931L1114 436.65H1114.19C1116.08 436.65 1117.77 435.895 1119.09 434.575L1123.24 437.97L1124.37 436.461L1120.23 433.066C1120.79 432.5 1121.17 431.557 1121.36 430.613V430.613ZM1117.4 433.82C1116.27 434.575 1114.76 434.952 1113.44 434.763C1110.61 434.386 1108.54 431.557 1108.92 428.727C1109.1 427.407 1109.86 426.086 1110.99 425.143C1112.12 424.2 1113.63 424.011 1114.95 424.2C1117.77 424.577 1119.85 427.407 1119.47 430.236C1119.28 431.745 1118.53 432.877 1117.4 433.82Z" fill="#045EA2"/>
<path d="M1239.9 360.844L1240.04 360.275L1239.62 360.559L1239.9 360.844Z" fill="#045EA2"/>
<path d="M1242 358L1207 372.645L1220.72 378.047V388L1226.6 381.318L1235.98 386.578L1242 358V358ZM1239.9 360.844L1239.62 360.559L1240.04 360.417L1239.9 360.844V360.844ZM1237.94 361.128L1221.7 377.052L1210.64 372.645L1237.94 361.128V361.128ZM1222.12 384.303V378.9L1225.34 380.607L1222.12 384.303ZM1223.1 377.763L1239.9 361.412L1235 384.445L1223.1 377.763Z" fill="#045EA2"/>
<path d="M228.295 441.617L207.922 434.089C203.621 432.499 201.339 427.536 202.93 423.232L219.672 377.928C221.262 373.624 226.223 371.338 230.524 372.928L250.897 380.457C255.198 382.046 257.481 387.009 255.89 391.313L239.148 436.617C237.557 440.921 232.596 443.207 228.295 441.617ZM229.687 375.193C226.518 374.022 223.107 375.593 221.935 378.765L205.193 424.069C204.021 427.24 205.59 430.652 208.76 431.823L229.132 439.352C232.302 440.523 235.712 438.952 236.884 435.78L253.626 390.476C254.798 387.305 253.229 383.893 250.06 382.722L229.687 375.193Z" fill="#045EA2"/>
<path d="M208.123 416.141L239.814 427.852L238.977 430.117L207.286 418.406L208.123 416.141ZM231.998 386.345L241.053 389.691L240.215 391.957L231.161 388.61L231.998 386.345ZM220.202 432.19C218.843 431.688 218.273 430.447 218.775 429.088C219.277 427.729 220.518 427.158 221.876 427.659C223.234 428.161 223.805 429.402 223.302 430.761C222.8 432.12 221.56 432.692 220.202 432.19Z" fill="#045EA2"/>
<path d="M879.471 454.5H877.586V414.886H856.851V454.5H854.966V429.977H839.885V454.5H838V428.091H854.966V413H879.471V454.5Z" fill="#045EA2"/>
<path d="M870.046 420.545H871.931V454.5H870.046V420.545ZM862.506 420.545H864.391V454.5H862.506V420.545ZM845.54 437.523H851.195V439.409H845.54V437.523ZM845.54 445.068H851.195V446.954H845.54V445.068ZM845.54 452.613H851.195V454.5H845.54V452.613Z" fill="#045EA2"/>
<path d="M541.825 392L518.262 415.768L516 428.595L529.007 426.332L552.57 402.752L541.825 392V392ZM528.064 424.634L518.262 426.332L519.959 416.711L541.825 394.83L545.218 398.225L525.237 418.032L526.556 419.352L546.538 399.357L549.931 402.752L528.064 424.634Z" fill="#045EA2"/>
<rect x="378" y="444" width="207" height="11" fill="#045EA2"/>
<path d="M888 441L1082 436L1084.5 455H888V441Z" fill="#045EA2"/>
</g>
<defs>
<clipPath id="clip0">
<rect width="1440" height="451" fill="white"/>
</clipPath>
<clipPath id="clip1">
<rect width="1907" height="870" fill="white" transform="translate(-467 -127)"/>
</clipPath>
</defs>
</svg>
