<?xml version="1.0" encoding="UTF-8" standalone="no"?>
<!DOCTYPE svg PUBLIC "-//W3C//DTD SVG 1.1//EN" "http://www.w3.org/Graphics/SVG/1.1/DTD/svg11.dtd">
<!-- Generated by Microsoft Visio, SVG Export AuthorizationFlow.svg Page-1 -->
<svg xmlns="http://www.w3.org/2000/svg" xmlns:xlink="http://www.w3.org/1999/xlink" xmlns:ev="http://www.w3.org/2001/xml-events"
		xmlns:v="http://schemas.microsoft.com/visio/2003/SVGExtensions/" width="20.9301in" height="15.4511in"
		viewBox="0 0 1506.97 1112.48" xml:space="preserve" color-interpolation-filters="sRGB" class="st16">
	<v:documentProperties v:langID="1033" v:metric="true" v:viewMarkup="false">
		<v:userDefs>
			<v:ud v:nameU="DisableSpdActionTags" v:prompt="" v:val="VT0(0):26"/>
		</v:userDefs>
	</v:documentProperties>

	<style type="text/css">
	<![CDATA[
		.st1 {visibility:visible}
		.st2 {fill:#5b9bd5;fill-opacity:0.22;filter:url(#filter_2);stroke:#5b9bd5;stroke-opacity:0.22}
		.st3 {fill:#5b9bd5;stroke:#c7c8c8;stroke-width:0.25}
		.st4 {stroke:#5b9bd5;stroke-dasharray:7,5;stroke-linecap:round;stroke-linejoin:round;stroke-width:1}
		.st5 {fill:#feffff;font-family:Calibri;font-size:1.00001em;font-weight:bold}
		.st6 {marker-end:url(#mrkr4-81);stroke:#5b9bd5;stroke-linecap:round;stroke-linejoin:round;stroke-width:1}
		.st7 {fill:#5b9bd5;fill-opacity:1;stroke:#5b9bd5;stroke-opacity:1;stroke-width:0.23584905660377}
		.st8 {fill:#ffffff;stroke:none;stroke-linecap:butt}
		.st9 {fill:#4f87bb;font-family:Calibri;font-size:0.666664em}
		.st10 {fill:#ffffff;stroke:none;stroke-linecap:butt;stroke-width:7.2}
		.st11 {font-size:1em}
		.st12 {marker-end:url(#mrkr3-147);stroke:#5b9bd5;stroke-dasharray:7,5;stroke-linecap:round;stroke-linejoin:round;stroke-width:1}
		.st13 {fill:#5b9bd5;fill-opacity:0;stroke:#4f87bb;stroke-width:0.75}
		.st14 {fill:#ffffff;stroke:#4f87bb;stroke-width:0.75}
		.st15 {fill:#4f88bb;font-family:Calibri;font-size:0.666664em;font-weight:bold}
		.st16 {fill:none;fill-rule:evenodd;font-size:12px;overflow:visible;stroke-linecap:square;stroke-miterlimit:3}
	]]>
	</style>

	<defs id="Markers">
		<g id="lend4">
			<path d="M 2 1 L 0 0 L 2 -1 L 2 1 " style="stroke:none"/>
		</g>
		<marker id="mrkr4-81" class="st7" v:arrowType="4" v:arrowSize="3" v:setback="8.48" refX="-8.48" orient="auto"
				markerUnits="strokeWidth" overflow="visible">
			<use xlink:href="#lend4" transform="scale(-4.24,-4.24) "/>
		</marker>
		<g id="lend3">
			<path d="M 2 1 L 0 0 L 2 -1 " style="stroke-linecap:round;stroke-linejoin:round;fill:none"/>
		</g>
		<marker id="mrkr3-147" class="st7" v:arrowType="3" v:arrowSize="3" orient="auto" markerUnits="strokeWidth"
				overflow="visible">
			<use xlink:href="#lend3" transform="scale(-4.24,-4.24) "/>
		</marker>
	</defs>
	<defs id="Filters">
		<filter id="filter_2">
			<feGaussianBlur stdDeviation="2"/>
		</filter>
	</defs>
	<g v:mID="0" v:index="1" v:groupContext="foregroundPage">
		<title>Page-1</title>
		<v:pageProperties v:drawingScale="0.0393701" v:pageScale="0.0393701" v:drawingUnits="24" v:shadowOffsetX="8.50394"
				v:shadowOffsetY="-8.50394"/>
		<v:layer v:name="Connector" v:index="0"/>
		<g id="group1-1" transform="translate(923.811,-1081.7)" v:mID="1" v:groupContext="group">
			<v:userDefs>
				<v:ud v:nameU="visVersion" v:prompt="" v:val="VT0(15):26"/>
				<v:ud v:nameU="ShowActor" v:prompt="" v:val="VT0(0):5"/>
				<v:ud v:nameU="ShowDestruction" v:prompt="" v:val="VT0(0):5"/>
			</v:userDefs>
			<title>Object lifeline</title>
			<desc>PEP</desc>
			<g id="shape2-2" v:mID="2" v:groupContext="shape">
				<title>Sheet.2</title>
				<g id="shadow2-3" v:groupContext="shadow" v:shadowOffsetX="0.345598" v:shadowOffsetY="-1.97279" v:shadowType="1"
						transform="matrix(1,0,0,1,0.345598,1.97279)" class="st1">
					<rect x="0" y="1086.97" width="51.0236" height="25.5118" class="st2"/>
				</g>
				<rect x="0" y="1086.97" width="51.0236" height="25.5118" class="st3"/>
			</g>
			<g id="shape3-7" v:mID="3" v:groupContext="shape" transform="translate(17.0079,-29.0551)">
				<title>Sheet.3</title>
				<g id="shadow3-8" v:groupContext="shadow" v:shadowOffsetX="0.345598" v:shadowOffsetY="-1.97279" v:shadowType="1"
						transform="matrix(1,0,0,1,0.345598,1.97279)" class="st1">
					<path d="M8.5 1112.48 a0 0 0 1 1 0 0 a0 0 0 1 1 0 0 Z" class="st2"/>
				</g>
				<path d="M8.5 1112.48 a0 0 0 1 1 0 0 a0 0 0 1 1 0 0 Z" class="st3"/>
			</g>
			<g id="shape4-12" v:mID="4" v:groupContext="shape" transform="translate(17.0079,526.434)">
				<title>Sheet.4</title>
				<g id="shadow4-13" v:groupContext="shadow" v:shadowOffsetX="0.345598" v:shadowOffsetY="-1.97279" v:shadowType="1"
						transform="matrix(1,0,0,1,0.345598,1.97279)" class="st1"/>
			</g>
			<g id="shape5-17" v:mID="5" v:groupContext="shape" transform="translate(1137.99,1112.48) rotate(90)">
				<title>Sheet.5</title>
				<path d="M0 1112.48 L508.82 1112.48" class="st4"/>
			</g>
			<g id="shape1-20" v:mID="1" v:groupContext="groupContent">
				<v:textBlock v:margins="rect(4,4,4,4)" v:tabSpace="42.5197"/>
				<v:textRect cx="25.5118" cy="1099.73" width="51.03" height="25.5118"/>
				<g id="shadow1-21" v:groupContext="shadow" v:shadowOffsetX="0.345598" v:shadowOffsetY="-1.97279" v:shadowType="1"
						transform="matrix(1,0,0,1,0.345598,1.97279)" class="st1">
					<rect x="0" y="1086.97" width="51.0236" height="25.5118" class="st2"/>
				</g>
				<rect x="0" y="1086.97" width="51.0236" height="25.5118" class="st3"/>
				<text x="16.2" y="1103.33" class="st5" v:langID="1044"><v:paragraph v:horizAlign="1"/><v:tabList/>PEP</text>			</g>
		</g>
		<g id="group6-26" transform="translate(1048.54,-1081.7)" v:mID="6" v:groupContext="group">
			<v:userDefs>
				<v:ud v:nameU="visVersion" v:prompt="" v:val="VT0(15):26"/>
				<v:ud v:nameU="ShowActor" v:prompt="" v:val="VT0(0):5"/>
				<v:ud v:nameU="ShowDestruction" v:prompt="" v:val="VT0(0):5"/>
			</v:userDefs>
			<title>Object lifeline.6</title>
			<desc>PDP</desc>
			<g id="shape7-27" v:mID="7" v:groupContext="shape">
				<title>Sheet.7</title>
				<g id="shadow7-28" v:groupContext="shadow" v:shadowOffsetX="0.345598" v:shadowOffsetY="-1.97279" v:shadowType="1"
						transform="matrix(1,0,0,1,0.345598,1.97279)" class="st1">
					<rect x="0" y="1086.97" width="51.0236" height="25.5118" class="st2"/>
				</g>
				<rect x="0" y="1086.97" width="51.0236" height="25.5118" class="st3"/>
			</g>
			<g id="shape8-32" v:mID="8" v:groupContext="shape" transform="translate(17.0079,-29.0551)">
				<title>Sheet.8</title>
				<g id="shadow8-33" v:groupContext="shadow" v:shadowOffsetX="0.345598" v:shadowOffsetY="-1.97279" v:shadowType="1"
						transform="matrix(1,0,0,1,0.345598,1.97279)" class="st1">
					<path d="M8.5 1112.48 a0 0 0 1 1 0 0 a0 0 0 1 1 0 0 Z" class="st2"/>
				</g>
				<path d="M8.5 1112.48 a0 0 0 1 1 0 0 a0 0 0 1 1 0 0 Z" class="st3"/>
			</g>
			<g id="shape9-37" v:mID="9" v:groupContext="shape" transform="translate(17.0079,533.521)">
				<title>Sheet.9</title>
				<g id="shadow9-38" v:groupContext="shadow" v:shadowOffsetX="0.345598" v:shadowOffsetY="-1.97279" v:shadowType="1"
						transform="matrix(1,0,0,1,0.345598,1.97279)" class="st1"/>
			</g>
			<g id="shape10-42" v:mID="10" v:groupContext="shape" transform="translate(1137.99,1112.48) rotate(90)">
				<title>Sheet.10</title>
				<path d="M0 1112.48 L515.91 1112.48" class="st4"/>
			</g>
			<g id="shape6-45" v:mID="6" v:groupContext="groupContent">
				<v:textBlock v:margins="rect(4,4,4,4)" v:tabSpace="42.5197"/>
				<v:textRect cx="25.5118" cy="1099.73" width="51.03" height="25.5118"/>
				<g id="shadow6-46" v:groupContext="shadow" v:shadowOffsetX="0.345598" v:shadowOffsetY="-1.97279" v:shadowType="1"
						transform="matrix(1,0,0,1,0.345598,1.97279)" class="st1">
					<rect x="0" y="1086.97" width="51.0236" height="25.5118" class="st2"/>
				</g>
				<rect x="0" y="1086.97" width="51.0236" height="25.5118" class="st3"/>
				<text x="15.34" y="1103.33" class="st5" v:langID="1044"><v:paragraph v:horizAlign="1"/><v:tabList/>PDP</text>			</g>
		</g>
		<g id="group11-51" transform="translate(1269.64,-1081.7)" v:mID="11" v:groupContext="group">
			<v:userDefs>
				<v:ud v:nameU="visVersion" v:prompt="" v:val="VT0(15):26"/>
				<v:ud v:nameU="ShowActor" v:prompt="" v:val="VT0(0):5"/>
				<v:ud v:nameU="ShowDestruction" v:prompt="" v:val="VT0(0):5"/>
			</v:userDefs>
			<title>Object lifeline.11</title>
			<desc>PRP</desc>
			<g id="shape12-52" v:mID="12" v:groupContext="shape">
				<title>Sheet.12</title>
				<g id="shadow12-53" v:groupContext="shadow" v:shadowOffsetX="0.345598" v:shadowOffsetY="-1.97279" v:shadowType="1"
						transform="matrix(1,0,0,1,0.345598,1.97279)" class="st1">
					<rect x="0" y="1086.97" width="51.0236" height="25.5118" class="st2"/>
				</g>
				<rect x="0" y="1086.97" width="51.0236" height="25.5118" class="st3"/>
			</g>
			<g id="shape13-57" v:mID="13" v:groupContext="shape" transform="translate(17.0079,-29.0551)">
				<title>Sheet.13</title>
				<g id="shadow13-58" v:groupContext="shadow" v:shadowOffsetX="0.345598" v:shadowOffsetY="-1.97279" v:shadowType="1"
						transform="matrix(1,0,0,1,0.345598,1.97279)" class="st1">
					<path d="M8.5 1112.48 a0 0 0 1 1 0 0 a0 0 0 1 1 0 0 Z" class="st2"/>
				</g>
				<path d="M8.5 1112.48 a0 0 0 1 1 0 0 a0 0 0 1 1 0 0 Z" class="st3"/>
			</g>
			<g id="shape14-62" v:mID="14" v:groupContext="shape" transform="translate(17.0079,519.348)">
				<title>Sheet.14</title>
				<g id="shadow14-63" v:groupContext="shadow" v:shadowOffsetX="0.345598" v:shadowOffsetY="-1.97279" v:shadowType="1"
						transform="matrix(1,0,0,1,0.345598,1.97279)" class="st1"/>
			</g>
			<g id="shape15-67" v:mID="15" v:groupContext="shape" transform="translate(1137.99,1112.48) rotate(90)">
				<title>Sheet.15</title>
				<path d="M0 1112.48 L501.73 1112.48" class="st4"/>
			</g>
			<g id="shape11-70" v:mID="11" v:groupContext="groupContent">
				<v:textBlock v:margins="rect(4,4,4,4)" v:tabSpace="42.5197"/>
				<v:textRect cx="25.5118" cy="1099.73" width="51.03" height="25.5118"/>
				<g id="shadow11-71" v:groupContext="shadow" v:shadowOffsetX="0.345598" v:shadowOffsetY="-1.97279" v:shadowType="1"
						transform="matrix(1,0,0,1,0.345598,1.97279)" class="st1">
					<rect x="0" y="1086.97" width="51.0236" height="25.5118" class="st2"/>
				</g>
				<rect x="0" y="1086.97" width="51.0236" height="25.5118" class="st3"/>
				<text x="15.75" y="1103.33" class="st5" v:langID="1044"><v:paragraph v:horizAlign="1"/><v:tabList/>PRP</text>			</g>
		</g>
		<g id="shape16-76" v:mID="16" v:groupContext="shape" v:layerMember="0" transform="translate(949.323,-1057.61)">
			<title>Message</title>
			<desc>Authorize(decisionRequest)</desc>
			<v:userDefs>
				<v:ud v:nameU="IsReturn" v:prompt="" v:val="VT0(0):5"/>
				<v:ud v:nameU="IsAsync" v:prompt="" v:val="VT0(0):26"/>
				<v:ud v:nameU="IsSelfMessage" v:prompt="" v:val="VT0(0):5"/>
				<v:ud v:nameU="visVersion" v:prompt="" v:val="VT0(15):26"/>
			</v:userDefs>
			<v:textBlock v:margins="rect(4,4,4,4)" v:tabSpace="42.5197"/>
			<v:textRect cx="62.3622" cy="1105.4" width="99.68" height="17.6036"/>
			<path d="M0 1105.4 L116.24 1105.4" class="st6"/>
			<rect v:rectContext="textBkgnd" x="17.4333" y="1100.6" width="89.858" height="9.59985" class="st8"/>
			<text x="17.43" y="1107.8" class="st9" v:langID="1044"><v:paragraph v:horizAlign="1"/><v:tabList/>Authorize(decisionRequest)</text>		</g>
		<g id="group17-84" transform="translate(1452.47,-1081.7)" v:mID="17" v:groupContext="group">
			<v:userDefs>
				<v:ud v:nameU="visVersion" v:prompt="" v:val="VT0(15):26"/>
				<v:ud v:nameU="ShowActor" v:prompt="" v:val="VT0(0):5"/>
				<v:ud v:nameU="ShowDestruction" v:prompt="" v:val="VT0(0):5"/>
			</v:userDefs>
			<title>Object lifeline.17</title>
			<desc>PIP A2</desc>
			<g id="shape18-85" v:mID="18" v:groupContext="shape">
				<title>Sheet.18</title>
				<g id="shadow18-86" v:groupContext="shadow" v:shadowOffsetX="0.345598" v:shadowOffsetY="-1.97279" v:shadowType="1"
						transform="matrix(1,0,0,1,0.345598,1.97279)" class="st1">
					<rect x="0" y="1086.97" width="51.0236" height="25.5118" class="st2"/>
				</g>
				<rect x="0" y="1086.97" width="51.0236" height="25.5118" class="st3"/>
			</g>
			<g id="shape19-90" v:mID="19" v:groupContext="shape" transform="translate(17.0079,-29.0551)">
				<title>Sheet.19</title>
				<g id="shadow19-91" v:groupContext="shadow" v:shadowOffsetX="0.345598" v:shadowOffsetY="-1.97279" v:shadowType="1"
						transform="matrix(1,0,0,1,0.345598,1.97279)" class="st1">
					<path d="M8.5 1112.48 a0 0 0 1 1 0 0 a0 0 0 1 1 0 0 Z" class="st2"/>
				</g>
				<path d="M8.5 1112.48 a0 0 0 1 1 0 0 a0 0 0 1 1 0 0 Z" class="st3"/>
			</g>
			<g id="shape20-95" v:mID="20" v:groupContext="shape" transform="translate(17.0079,521.615)">
				<title>Sheet.20</title>
				<g id="shadow20-96" v:groupContext="shadow" v:shadowOffsetX="0.345598" v:shadowOffsetY="-1.97279" v:shadowType="1"
						transform="matrix(1,0,0,1,0.345598,1.97279)" class="st1"/>
			</g>
			<g id="shape21-100" v:mID="21" v:groupContext="shape" transform="translate(1137.99,1112.48) rotate(90)">
				<title>Sheet.21</title>
				<path d="M0 1112.48 L504 1112.48" class="st4"/>
			</g>
			<g id="shape17-103" v:mID="17" v:groupContext="groupContent">
				<v:textBlock v:margins="rect(4,4,4,4)" v:tabSpace="42.5197"/>
				<v:textRect cx="25.5118" cy="1099.73" width="51.03" height="25.5118"/>
				<g id="shadow17-104" v:groupContext="shadow" v:shadowOffsetX="0.345598" v:shadowOffsetY="-1.97279" v:shadowType="1"
						transform="matrix(1,0,0,1,0.345598,1.97279)" class="st1">
					<rect x="0" y="1086.97" width="51.0236" height="25.5118" class="st2"/>
				</g>
				<rect x="0" y="1086.97" width="51.0236" height="25.5118" class="st3"/>
				<text x="9.49" y="1103.33" class="st5" v:langID="1044"><v:paragraph v:horizAlign="1"/><v:tabList/>PIP A2</text>			</g>
		</g>
		<g id="shape22-109" v:mID="22" v:groupContext="shape" v:layerMember="0" transform="translate(1074.05,-1040.6)">
			<title>Message.22</title>
			<desc>Enrich(decisionRequest)</desc>
			<v:userDefs>
				<v:ud v:nameU="IsReturn" v:prompt="" v:val="VT0(0):5"/>
				<v:ud v:nameU="IsAsync" v:prompt="" v:val="VT0(0):26"/>
				<v:ud v:nameU="IsSelfMessage" v:prompt="" v:val="VT0(0):5"/>
				<v:ud v:nameU="visVersion" v:prompt="" v:val="VT0(15):26"/>
			</v:userDefs>
			<v:textBlock v:margins="rect(4,4,4,4)" v:tabSpace="42.5197"/>
			<v:textRect cx="59.5276" cy="1105.4" width="88.3" height="17.6036"/>
			<path d="M0 1105.4 L110.58 1105.4" class="st6"/>
			<rect v:rectContext="textBkgnd" x="20.2881" y="1100.6" width="78.4792" height="9.59985" class="st10"/>
			<text x="20.29" y="1107.8" class="st9" v:langID="1044"><v:paragraph v:horizAlign="1"/><v:tabList/>Enrich(decisionRequest)</text>		</g>
		<g id="group23-116" transform="translate(1167.59,-1081.7)" v:mID="23" v:groupContext="group">
			<v:userDefs>
				<v:ud v:nameU="visVersion" v:prompt="" v:val="VT0(15):26"/>
				<v:ud v:nameU="ShowActor" v:prompt="" v:val="VT0(0):5"/>
				<v:ud v:nameU="ShowDestruction" v:prompt="" v:val="VT0(0):5"/>
			</v:userDefs>
			<title>Object lifeline.23</title>
			<desc>ContextHandler</desc>
			<g id="shape24-117" v:mID="24" v:groupContext="shape">
				<title>Sheet.24</title>
				<g id="shadow24-118" v:groupContext="shadow" v:shadowOffsetX="0.345598" v:shadowOffsetY="-1.97279" v:shadowType="1"
						transform="matrix(1,0,0,1,0.345598,1.97279)" class="st1">
					<rect x="0" y="1086.97" width="51.0236" height="25.5118" class="st2"/>
				</g>
				<rect x="0" y="1086.97" width="51.0236" height="25.5118" class="st3"/>
			</g>
			<g id="shape25-122" v:mID="25" v:groupContext="shape" transform="translate(17.0079,-29.0551)">
				<title>Sheet.25</title>
				<g id="shadow25-123" v:groupContext="shadow" v:shadowOffsetX="0.345598" v:shadowOffsetY="-1.97279" v:shadowType="1"
						transform="matrix(1,0,0,1,0.345598,1.97279)" class="st1">
					<path d="M8.5 1112.48 a0 0 0 1 1 0 0 a0 0 0 1 1 0 0 Z" class="st2"/>
				</g>
				<path d="M8.5 1112.48 a0 0 0 1 1 0 0 a0 0 0 1 1 0 0 Z" class="st3"/>
			</g>
			<g id="shape26-127" v:mID="26" v:groupContext="shape" transform="translate(17.0079,526.434)">
				<title>Sheet.26</title>
				<g id="shadow26-128" v:groupContext="shadow" v:shadowOffsetX="0.345598" v:shadowOffsetY="-1.97279" v:shadowType="1"
						transform="matrix(1,0,0,1,0.345598,1.97279)" class="st1"/>
			</g>
			<g id="shape27-132" v:mID="27" v:groupContext="shape" transform="translate(1137.99,1112.48) rotate(90)">
				<title>Sheet.27</title>
				<path d="M0 1112.48 L508.82 1112.48" class="st4"/>
			</g>
			<g id="shape23-135" v:mID="23" v:groupContext="groupContent">
				<v:textBlock v:margins="rect(4,4,4,4)" v:tabSpace="42.5197"/>
				<v:textRect cx="25.5118" cy="1099.73" width="51.03" height="25.5118"/>
				<g id="shadow23-136" v:groupContext="shadow" v:shadowOffsetX="0.345598" v:shadowOffsetY="-1.97279" v:shadowType="1"
						transform="matrix(1,0,0,1,0.345598,1.97279)" class="st1">
					<rect x="0" y="1086.97" width="51.0236" height="25.5118" class="st2"/>
				</g>
				<rect x="0" y="1086.97" width="51.0236" height="25.5118" class="st3"/>
				<text x="5.95" y="1096.13" class="st5" v:langID="1044"><v:paragraph v:horizAlign="1"/><v:tabList/>Context<tspan
							x="5.7" dy="1.2em" class="st11">Handler</tspan></text>			</g>
		</g>
		<g id="shape28-142" v:mID="28" v:groupContext="shape" v:layerMember="0" transform="translate(1193.1,-947.055)">
			<title>Return Message</title>
			<desc>decisionRequest (Enriched)</desc>
			<v:userDefs>
				<v:ud v:nameU="IsReturn" v:prompt="" v:val="VT0(1):5"/>
				<v:ud v:nameU="IsAsync" v:prompt="" v:val="VT0(0):26"/>
				<v:ud v:nameU="IsSelfMessage" v:prompt="" v:val="VT0(0):5"/>
				<v:ud v:nameU="visVersion" v:prompt="" v:val="VT0(15):26"/>
			</v:userDefs>
			<v:textBlock v:margins="rect(4,4,4,4)" v:tabSpace="42.5197"/>
			<v:textRect cx="-59.5276" cy="1105.4" width="98.29" height="17.6036"/>
			<path d="M0 1105.4 L-119.06 1105.4" class="st12"/>
			<rect v:rectContext="textBkgnd" x="-103.763" y="1100.6" width="88.4713" height="9.59985" class="st10"/>
			<text x="-103.76" y="1107.8" class="st9" v:langID="1044"><v:paragraph v:horizAlign="1"/><v:tabList/>decisionRequest (Enriched)</text>		</g>
		<g id="shape29-150" v:mID="29" v:groupContext="shape" v:layerMember="0" transform="translate(1074.05,-932.882)">
			<title>Message.29</title>
			<desc>GetPolicy(decisionRequest)</desc>
			<v:userDefs>
				<v:ud v:nameU="IsReturn" v:prompt="" v:val="VT0(0):5"/>
				<v:ud v:nameU="IsAsync" v:prompt="" v:val="VT0(0):26"/>
				<v:ud v:nameU="IsSelfMessage" v:prompt="" v:val="VT0(0):5"/>
				<v:ud v:nameU="visVersion" v:prompt="" v:val="VT0(15):26"/>
			</v:userDefs>
			<v:textBlock v:margins="rect(4,4,4,4)" v:tabSpace="42.5197"/>
			<v:textRect cx="110.551" cy="1105.4" width="98.71" height="17.6036"/>
			<path d="M0 1105.4 L212.62 1105.4" class="st6"/>
			<rect v:rectContext="textBkgnd" x="66.1049" y="1100.6" width="88.8929" height="9.59985" class="st8"/>
			<text x="66.1" y="1107.8" class="st9" v:langID="1044"><v:paragraph v:horizAlign="1"/><v:tabList/>GetPolicy(decisionRequest)</text>		</g>
		<g id="shape30-157" v:mID="30" v:groupContext="shape" v:layerMember="0" transform="translate(1295.15,-913.039)">
			<title>Return Message.30</title>
			<desc>Policy (XACML 3.0)</desc>
			<v:userDefs>
				<v:ud v:nameU="IsReturn" v:prompt="" v:val="VT0(1):5"/>
				<v:ud v:nameU="IsAsync" v:prompt="" v:val="VT0(0):26"/>
				<v:ud v:nameU="IsSelfMessage" v:prompt="" v:val="VT0(0):5"/>
				<v:ud v:nameU="visVersion" v:prompt="" v:val="VT0(15):26"/>
			</v:userDefs>
			<v:textBlock v:margins="rect(4,4,4,4)" v:tabSpace="42.5197"/>
			<v:textRect cx="-110.551" cy="1105.4" width="70.69" height="17.6036"/>
			<path d="M0 1105.4 L-221.1 1105.4" class="st12"/>
			<rect v:rectContext="textBkgnd" x="-140.988" y="1100.6" width="60.8747" height="9.59985" class="st10"/>
			<text x="-140.99" y="1107.8" class="st9" v:langID="1044"><v:paragraph v:horizAlign="1"/><v:tabList/>Policy (XACML 3.0)</text>		</g>
		<g id="shape31-164" v:mID="31" v:groupContext="shape" v:layerMember="0" transform="translate(1193.1,-989.575)">
			<title>Message.31</title>
			<desc>GetRoles(userid, partyId)</desc>
			<v:userDefs>
				<v:ud v:nameU="IsReturn" v:prompt="" v:val="VT0(0):5"/>
				<v:ud v:nameU="IsAsync" v:prompt="" v:val="VT0(0):26"/>
				<v:ud v:nameU="IsSelfMessage" v:prompt="" v:val="VT0(0):5"/>
				<v:ud v:nameU="visVersion" v:prompt="" v:val="VT0(15):26"/>
			</v:userDefs>
			<v:textBlock v:margins="rect(4,4,4,4)" v:tabSpace="42.5197"/>
			<v:textRect cx="142.441" cy="1105.4" width="91.17" height="17.6036"/>
			<path d="M0 1105.4 L276.4 1105.4" class="st6"/>
			<rect v:rectContext="textBkgnd" x="101.764" y="1100.6" width="81.3549" height="9.59985" class="st8"/>
			<text x="101.76" y="1107.8" class="st9" v:langID="1044"><v:paragraph v:horizAlign="1"/><v:tabList/>GetRoles(userid, partyId)</text>		</g>
		<g id="shape32-171" v:mID="32" v:groupContext="shape" v:layerMember="0" transform="translate(1477.98,-961.228)">
			<title>Return Message.32</title>
			<desc>Roles</desc>
			<v:userDefs>
				<v:ud v:nameU="IsReturn" v:prompt="" v:val="VT0(1):5"/>
				<v:ud v:nameU="IsAsync" v:prompt="" v:val="VT0(0):26"/>
				<v:ud v:nameU="IsSelfMessage" v:prompt="" v:val="VT0(0):5"/>
				<v:ud v:nameU="visVersion" v:prompt="" v:val="VT0(15):26"/>
			</v:userDefs>
			<v:textBlock v:margins="rect(4,4,4,4)" v:tabSpace="42.5197"/>
			<v:textRect cx="-142.441" cy="1105.4" width="40" height="17.6036"/>
			<path d="M0 1105.4 L-284.88 1105.4" class="st12"/>
			<rect v:rectContext="textBkgnd" x="-151.195" y="1100.6" width="17.5075" height="9.59985" class="st10"/>
			<text x="-151.19" y="1107.8" class="st9" v:langID="1044"><v:paragraph v:horizAlign="1"/><v:tabList/>Roles</text>		</g>
		<g id="shape33-178" v:mID="33" v:groupContext="shape" v:layerMember="0" transform="translate(1066.96,-846.425)">
			<title>Self Message</title>
			<desc>EvaluateRules(decisionRequest)</desc>
			<v:userDefs>
				<v:ud v:nameU="IsReturn" v:prompt="" v:val="VT0(0):5"/>
				<v:ud v:nameU="IsAsync" v:prompt="" v:val="VT0(0):26"/>
				<v:ud v:nameU="IsSelfMessage" v:prompt="" v:val="VT0(1):5"/>
				<v:ud v:nameU="visVersion" v:prompt="" v:val="VT0(15):26"/>
			</v:userDefs>
			<v:textBlock v:margins="rect(4,4,4,4)" v:tabSpace="42.5197"/>
			<v:textRect cx="7.08661" cy="1122.4" width="113.35" height="17.6036"/>
			<path d="M7.09 1112.48 L25.09 1112.48 L25.09 1132.33 L15.57 1132.33" class="st6"/>
			<rect v:rectContext="textBkgnd" x="-44.68" y="1117.6" width="103.534" height="9.59985" class="st10"/>
			<text x="-44.68" y="1124.8" class="st9" v:langID="1044"><v:paragraph v:horizAlign="1"/><v:tabList/>EvaluateRules(decisionRequest)</text>		</g>
		<g id="group39-185" transform="translate(980.504,-622.488)" v:mID="39" v:groupContext="group">
			<v:userDefs>
				<v:ud v:nameU="visVersion" v:prompt="" v:val="VT0(15):26"/>
			</v:userDefs>
			<title>Optional fragment</title>
			<g id="shape39-186" v:mID="39" v:groupContext="groupContent">
				<rect x="0" y="967.916" width="493.228" height="144.567" class="st13"/>
			</g>
			<g id="shape40-188" v:mID="40" v:groupContext="shape" transform="translate(0,-126.963)">
				<title>Sheet.40</title>
				<desc>IfNotAuthorized</desc>
				<v:userDefs>
					<v:ud v:nameU="FoldSize" v:prompt="" v:val="VT0(0.098425196850394):24"/>
					<v:ud v:nameU="BackFillColor" v:prompt="" v:val="VT5(#96afcf)"/>
					<v:ud v:nameU="BackLineColor" v:prompt="" v:val="VT5(#1f477d)"/>
					<v:ud v:nameU="BackCharColor" v:prompt="" v:val="VT5(#000000)"/>
					<v:ud v:nameU="DarkerColor" v:prompt="" v:val="VT5(#000000)"/>
					<v:ud v:nameU="BackFillColor" v:prompt="" v:val="VT5(#5b9bd5)"/>
					<v:ud v:nameU="BackLineColor" v:prompt="" v:val="VT5(#4f88bb)"/>
					<v:ud v:nameU="BackCharColor" v:prompt="" v:val="VT5(#4f88bb)"/>
					<v:ud v:nameU="DarkerColor" v:prompt="" v:val="VT5(#4f88bb)"/>
				</v:userDefs>
				<v:textBlock v:margins="rect(4,4,4,4)" v:tabSpace="42.5197"/>
				<v:textRect cx="32" cy="1103.68" width="64" height="17.6036"/>
				<path d="M0 1112.48 L56.91 1112.48 L64 1105.4 L64 1094.88 L0 1094.88 L0 1112.48 Z" class="st14"/>
				<text x="4" y="1106.08" class="st15" v:langID="1044"><v:paragraph/><v:tabList/>IfNotAuthorized</text>			</g>
		</g>
		<g id="shape42-191" v:mID="42" v:groupContext="shape" v:layerMember="0" transform="translate(1074.05,-731.622)">
			<title>Message.42</title>
			<desc>GetDelegatedPolicy(ContextRequest)</desc>
			<v:userDefs>
				<v:ud v:nameU="IsReturn" v:prompt="" v:val="VT0(0):5"/>
				<v:ud v:nameU="IsAsync" v:prompt="" v:val="VT0(0):26"/>
				<v:ud v:nameU="IsSelfMessage" v:prompt="" v:val="VT0(0):5"/>
				<v:ud v:nameU="visVersion" v:prompt="" v:val="VT0(15):26"/>
			</v:userDefs>
			<v:textBlock v:margins="rect(4,4,4,4)" v:tabSpace="42.5197"/>
			<v:textRect cx="201.968" cy="1105.4" width="130.59" height="17.6036"/>
			<path d="M0 1105.4 L395.46 1105.4" class="st6"/>
			<rect v:rectContext="textBkgnd" x="141.581" y="1100.6" width="120.775" height="9.59985" class="st10"/>
			<text x="141.58" y="1107.8" class="st9" v:langID="1044"><v:paragraph v:horizAlign="1"/><v:tabList/>GetDelegatedPolicy(ContextRequest)</text>		</g>
		<g id="shape44-198" v:mID="44" v:groupContext="shape" v:layerMember="0" transform="translate(1477.98,-720.283)">
			<title>Return Message.44</title>
			<desc>DelegatedPolicy (XACML 3.0)</desc>
			<v:userDefs>
				<v:ud v:nameU="IsReturn" v:prompt="" v:val="VT0(1):5"/>
				<v:ud v:nameU="IsAsync" v:prompt="" v:val="VT0(0):26"/>
				<v:ud v:nameU="IsSelfMessage" v:prompt="" v:val="VT0(0):5"/>
				<v:ud v:nameU="visVersion" v:prompt="" v:val="VT0(15):26"/>
			</v:userDefs>
			<v:textBlock v:margins="rect(4,4,4,4)" v:tabSpace="42.5197"/>
			<v:textRect cx="-201.968" cy="1105.4" width="103.87" height="17.6036"/>
			<path d="M0 1105.4 L-403.94 1105.4" class="st12"/>
			<rect v:rectContext="textBkgnd" x="-248.995" y="1100.6" width="94.0537" height="9.59985" class="st10"/>
			<text x="-249" y="1107.8" class="st9" v:langID="1044"><v:paragraph v:horizAlign="1"/><v:tabList/>DelegatedPolicy (XACML 3.0)</text>		</g>
		<g id="shape45-205" v:mID="45" v:groupContext="shape" v:layerMember="0" transform="translate(1066.96,-693.354)">
			<title>Self Message.45</title>
			<desc>AuthorizeBasedonPolicy(ContextRequest, DelegatedPolicy</desc>
			<v:userDefs>
				<v:ud v:nameU="IsReturn" v:prompt="" v:val="VT0(0):5"/>
				<v:ud v:nameU="IsAsync" v:prompt="" v:val="VT0(0):26"/>
				<v:ud v:nameU="IsSelfMessage" v:prompt="" v:val="VT0(1):5"/>
				<v:ud v:nameU="visVersion" v:prompt="" v:val="VT0(15):26"/>
			</v:userDefs>
			<v:textBlock v:margins="rect(4,4,4,4)" v:tabSpace="42.5197"/>
			<v:textRect cx="7.08661" cy="1130.91" width="198.91" height="17.6036"/>
			<path d="M7.09 1112.48 L25.09 1112.48 L25.09 1149.33 L15.57 1149.33" class="st6"/>
			<rect v:rectContext="textBkgnd" x="-87.4587" y="1126.11" width="189.091" height="9.59985" class="st10"/>
			<text x="-87.46" y="1133.31" class="st9" v:langID="1044"><v:paragraph v:horizAlign="1"/><v:tabList/>AuthorizeBasedonPolicy(ContextRequest, DelegatedPolicy</text>		</g>
		<g id="shape46-212" v:mID="46" v:groupContext="shape" v:layerMember="0" transform="translate(1074.05,-606.898)">
			<title>Return Message.46</title>
			<desc>ContextResponse</desc>
			<v:userDefs>
				<v:ud v:nameU="IsReturn" v:prompt="" v:val="VT0(1):5"/>
				<v:ud v:nameU="IsAsync" v:prompt="" v:val="VT0(0):26"/>
				<v:ud v:nameU="IsSelfMessage" v:prompt="" v:val="VT0(0):5"/>
				<v:ud v:nameU="visVersion" v:prompt="" v:val="VT0(15):26"/>
			</v:userDefs>
			<v:textBlock v:margins="rect(4,4,4,4)" v:tabSpace="42.5197"/>
			<v:textRect cx="-62.3622" cy="1105.4" width="66.5" height="17.6036"/>
			<path d="M0 1105.4 L-124.72 1105.4" class="st12"/>
			<rect v:rectContext="textBkgnd" x="-90.7016" y="1100.6" width="56.679" height="9.59985" class="st10"/>
			<text x="-90.7" y="1107.8" class="st9" v:langID="1044"><v:paragraph v:horizAlign="1"/><v:tabList/>ContextResponse</text>		</g>
		<g id="group47-219" transform="translate(1360.35,-1081.7)" v:mID="47" v:groupContext="group">
			<v:userDefs>
				<v:ud v:nameU="visVersion" v:prompt="" v:val="VT0(15):26"/>
				<v:ud v:nameU="ShowActor" v:prompt="" v:val="VT0(0):5"/>
				<v:ud v:nameU="ShowDestruction" v:prompt="" v:val="VT0(0):5"/>
			</v:userDefs>
			<title>Object lifeline.47</title>
			<desc>Storage PIP</desc>
			<g id="shape48-220" v:mID="48" v:groupContext="shape">
				<title>Sheet.48</title>
				<g id="shadow48-221" v:groupContext="shadow" v:shadowOffsetX="0.345598" v:shadowOffsetY="-1.97279" v:shadowType="1"
						transform="matrix(1,0,0,1,0.345598,1.97279)" class="st1">
					<rect x="0" y="1086.97" width="51.0236" height="25.5118" class="st2"/>
				</g>
				<rect x="0" y="1086.97" width="51.0236" height="25.5118" class="st3"/>
			</g>
			<g id="shape49-225" v:mID="49" v:groupContext="shape" transform="translate(17.0079,-29.0551)">
				<title>Sheet.49</title>
				<g id="shadow49-226" v:groupContext="shadow" v:shadowOffsetX="0.345598" v:shadowOffsetY="-1.97279" v:shadowType="1"
						transform="matrix(1,0,0,1,0.345598,1.97279)" class="st1">
					<path d="M8.5 1112.48 a0 0 0 1 1 0 0 a0 0 0 1 1 0 0 Z" class="st2"/>
				</g>
				<path d="M8.5 1112.48 a0 0 0 1 1 0 0 a0 0 0 1 1 0 0 Z" class="st3"/>
			</g>
			<g id="shape50-230" v:mID="50" v:groupContext="shape" transform="translate(17.0079,526.434)">
				<title>Sheet.50</title>
				<g id="shadow50-231" v:groupContext="shadow" v:shadowOffsetX="0.345598" v:shadowOffsetY="-1.97279" v:shadowType="1"
						transform="matrix(1,0,0,1,0.345598,1.97279)" class="st1"/>
			</g>
			<g id="shape51-235" v:mID="51" v:groupContext="shape" transform="translate(1137.99,1112.48) rotate(90)">
				<title>Sheet.51</title>
				<path d="M0 1112.48 L508.82 1112.48" class="st4"/>
			</g>
			<g id="shape47-238" v:mID="47" v:groupContext="groupContent">
				<v:textBlock v:margins="rect(4,4,4,4)" v:tabSpace="42.5197"/>
				<v:textRect cx="25.5118" cy="1099.73" width="51.03" height="25.5118"/>
				<g id="shadow47-239" v:groupContext="shadow" v:shadowOffsetX="0.345598" v:shadowOffsetY="-1.97279" v:shadowType="1"
						transform="matrix(1,0,0,1,0.345598,1.97279)" class="st1">
					<rect x="0" y="1086.97" width="51.0236" height="25.5118" class="st2"/>
				</g>
				<rect x="0" y="1086.97" width="51.0236" height="25.5118" class="st3"/>
				<text x="6.41" y="1096.13" class="st5" v:langID="1044"><v:paragraph v:horizAlign="1"/><v:tabList/>Storage <tspan
							x="17.53" dy="1.2em" class="st11">PIP</tspan></text>			</g>
		</g>
		<g id="shape52-245" v:mID="52" v:groupContext="shape" v:layerMember="0" transform="translate(1193.1,-1023.59)">
			<title>Message.52</title>
			<desc>GetResourceInfo(resourceAttributes)</desc>
			<v:userDefs>
				<v:ud v:nameU="IsReturn" v:prompt="" v:val="VT0(0):5"/>
				<v:ud v:nameU="IsAsync" v:prompt="" v:val="VT0(0):26"/>
				<v:ud v:nameU="IsSelfMessage" v:prompt="" v:val="VT0(0):5"/>
				<v:ud v:nameU="visVersion" v:prompt="" v:val="VT0(15):26"/>
			</v:userDefs>
			<v:textBlock v:margins="rect(4,4,4,4)" v:tabSpace="42.5197"/>
			<v:textRect cx="96.3779" cy="1105.4" width="130.56" height="17.6036"/>
			<path d="M0 1105.4 L184.28 1105.4" class="st6"/>
			<rect v:rectContext="textBkgnd" x="36.0057" y="1100.6" width="120.745" height="9.59985" class="st10"/>
			<text x="36.01" y="1107.8" class="st9" v:langID="1044"><v:paragraph v:horizAlign="1"/><v:tabList/>GetResourceInfo(resourceAttributes)</text>		</g>
		<g id="shape55-252" v:mID="55" v:groupContext="shape" v:layerMember="0" transform="translate(1385.86,-1003.75)">
			<title>Return Message.55</title>
			<desc>ResourceAttributes</desc>
			<v:userDefs>
				<v:ud v:nameU="IsReturn" v:prompt="" v:val="VT0(1):5"/>
				<v:ud v:nameU="IsAsync" v:prompt="" v:val="VT0(0):26"/>
				<v:ud v:nameU="IsSelfMessage" v:prompt="" v:val="VT0(0):5"/>
				<v:ud v:nameU="visVersion" v:prompt="" v:val="VT0(15):26"/>
			</v:userDefs>
			<v:textBlock v:margins="rect(4,4,4,4)" v:tabSpace="42.5197"/>
			<v:textRect cx="-96.3779" cy="1105.4" width="72.65" height="17.6036"/>
			<path d="M0 1105.4 L-192.76 1105.4" class="st12"/>
			<rect v:rectContext="textBkgnd" x="-127.795" y="1100.6" width="62.8349" height="9.59985" class="st8"/>
			<text x="-127.8" y="1107.8" class="st9" v:langID="1044"><v:paragraph v:horizAlign="1"/><v:tabList/>ResourceAttributes</text>		</g>
		<g id="shape57-259" v:mID="57" v:groupContext="shape" v:layerMember="0" transform="translate(1066.96,-897.449)">
			<title>Self Message.57</title>
			<desc>IdentifyRules</desc>
			<v:userDefs>
				<v:ud v:nameU="IsReturn" v:prompt="" v:val="VT0(0):5"/>
				<v:ud v:nameU="IsAsync" v:prompt="" v:val="VT0(0):26"/>
				<v:ud v:nameU="IsSelfMessage" v:prompt="" v:val="VT0(1):5"/>
				<v:ud v:nameU="visVersion" v:prompt="" v:val="VT0(15):26"/>
			</v:userDefs>
			<v:textBlock v:margins="rect(4,4,4,4)" v:tabSpace="42.5197"/>
			<v:textRect cx="7.08661" cy="1129.49" width="52.29" height="17.6036"/>
			<path d="M7.09 1112.48 L25.09 1112.48 L25.09 1146.5 L15.57 1146.5" class="st6"/>
			<rect v:rectContext="textBkgnd" x="-14.1493" y="1124.69" width="42.472" height="9.59985" class="st10"/>
			<text x="-14.15" y="1131.89" class="st9" v:langID="1044"><v:paragraph v:horizAlign="1"/><v:tabList/>IdentifyRules</text>		</g>
		<g id="shape58-266" v:mID="58" v:groupContext="shape" v:layerMember="0" transform="translate(1066.96,-812.409)">
			<title>Self Message.58</title>
			<desc>Evaluate Conditions</desc>
			<v:userDefs>
				<v:ud v:nameU="IsReturn" v:prompt="" v:val="VT0(0):5"/>
				<v:ud v:nameU="IsAsync" v:prompt="" v:val="VT0(0):26"/>
				<v:ud v:nameU="IsSelfMessage" v:prompt="" v:val="VT0(1):5"/>
				<v:ud v:nameU="visVersion" v:prompt="" v:val="VT0(15):26"/>
			</v:userDefs>
			<v:textBlock v:margins="rect(4,4,4,4)" v:tabSpace="42.5197"/>
			<v:textRect cx="7.08661" cy="1119.57" width="74.3" height="17.6036"/>
			<path d="M7.09 1112.48 L25.09 1112.48 L25.09 1126.66 L15.57 1126.66" class="st6"/>
			<rect v:rectContext="textBkgnd" x="-25.1551" y="1114.77" width="64.4837" height="9.59985" class="st10"/>
			<text x="-25.16" y="1121.97" class="st9" v:langID="1044"><v:paragraph v:horizAlign="1"/><v:tabList/>Evaluate Conditions</text>		</g>
	</g>
</svg>
