<?xml version="1.0" encoding="UTF-8" standalone="no"?>
<!DOCTYPE svg PUBLIC "-//W3C//DTD SVG 1.1//EN" "http://www.w3.org/Graphics/SVG/1.1/DTD/svg11.dtd">
<!-- Generated by Microsoft Visio, SVG Export AuthorizationFlow.svg Page-1 -->
<svg xmlns="http://www.w3.org/2000/svg" xmlns:xlink="http://www.w3.org/1999/xlink" xmlns:ev="http://www.w3.org/2001/xml-events"
		xmlns:v="http://schemas.microsoft.com/visio/2003/SVGExtensions/" width="9.28601in" height="7.68343in"
		viewBox="0 0 668.593 553.207" xml:space="preserve" color-interpolation-filters="sRGB" class="st15">
	<v:documentProperties v:langID="1033" v:metric="true" v:viewMarkup="false">
		<v:userDefs>
			<v:ud v:nameU="DisableSpdActionTags" v:prompt="" v:val="VT0(0):26"/>
		</v:userDefs>
	</v:documentProperties>

	<style type="text/css">
	<![CDATA[
		.st1 {visibility:visible}
		.st2 {fill:#5b9bd5;fill-opacity:0.22;filter:url(#filter_2);stroke:#5b9bd5;stroke-opacity:0.22}
		.st3 {fill:#5b9bd5;stroke:#c7c8c8;stroke-width:0.25}
		.st4 {stroke:#5b9bd5;stroke-dasharray:7,5;stroke-linecap:round;stroke-linejoin:round;stroke-width:1}
		.st5 {fill:#feffff;font-family:Calibri;font-size:1.00001em;font-weight:bold}
		.st6 {marker-end:url(#mrkr4-81);stroke:#5b9bd5;stroke-linecap:round;stroke-linejoin:round;stroke-width:1}
		.st7 {fill:#5b9bd5;fill-opacity:1;stroke:#5b9bd5;stroke-opacity:1;stroke-width:0.23584905660377}
		.st8 {fill:#ffffff;stroke:none;stroke-linecap:butt;stroke-width:7.2}
		.st9 {fill:#4f87bb;font-family:Calibri;font-size:0.666664em}
		.st10 {font-size:1em}
		.st11 {marker-end:url(#mrkr3-147);stroke:#5b9bd5;stroke-dasharray:7,5;stroke-linecap:round;stroke-linejoin:round;stroke-width:1}
		.st12 {fill:#5b9bd5;fill-opacity:0;stroke:#4f87bb;stroke-width:0.75}
		.st13 {fill:#ffffff;stroke:#4f87bb;stroke-width:0.75}
		.st14 {fill:#4f88bb;font-family:Calibri;font-size:0.666664em;font-weight:bold}
		.st15 {fill:none;fill-rule:evenodd;font-size:12px;overflow:visible;stroke-linecap:square;stroke-miterlimit:3}
	]]>
	</style>

	<defs id="Markers">
		<g id="lend4">
			<path d="M 2 1 L 0 0 L 2 -1 L 2 1 " style="stroke:none"/>
		</g>
		<marker id="mrkr4-81" class="st7" v:arrowType="4" v:arrowSize="3" v:setback="8.48" refX="-8.48" orient="auto"
				markerUnits="strokeWidth" overflow="visible">
			<use xlink:href="#lend4" transform="scale(-4.24,-4.24) "/>
		</marker>
		<g id="lend3">
			<path d="M 2 1 L 0 0 L 2 -1 " style="stroke-linecap:round;stroke-linejoin:round;fill:none"/>
		</g>
		<marker id="mrkr3-147" class="st7" v:arrowType="3" v:arrowSize="3" orient="auto" markerUnits="strokeWidth"
				overflow="visible">
			<use xlink:href="#lend3" transform="scale(-4.24,-4.24) "/>
		</marker>
	</defs>
	<defs id="Filters">
		<filter id="filter_2">
			<feGaussianBlur stdDeviation="2"/>
		</filter>
	</defs>
	<g v:mID="0" v:index="1" v:groupContext="foregroundPage">
		<title>Page-1</title>
		<v:pageProperties v:drawingScale="0.0393701" v:pageScale="0.0393701" v:drawingUnits="24" v:shadowOffsetX="8.50394"
				v:shadowOffsetY="-8.50394"/>
		<v:layer v:name="Connector" v:index="0"/>
		<g id="group1-1" transform="translate(117.921,-522.425)" v:mID="1" v:groupContext="group">
			<v:userDefs>
				<v:ud v:nameU="visVersion" v:prompt="" v:val="VT0(15):26"/>
				<v:ud v:nameU="ShowActor" v:prompt="" v:val="VT0(0):5"/>
				<v:ud v:nameU="ShowDestruction" v:prompt="" v:val="VT0(0):5"/>
			</v:userDefs>
			<title>Object lifeline</title>
			<desc>PEP</desc>
			<g id="shape2-2" v:mID="2" v:groupContext="shape">
				<title>Sheet.2</title>
				<g id="shadow2-3" v:groupContext="shadow" v:shadowOffsetX="0.345598" v:shadowOffsetY="-1.97279" v:shadowType="1"
						transform="matrix(1,0,0,1,0.345598,1.97279)" class="st1">
					<rect x="0" y="527.695" width="51.0236" height="25.5118" class="st2"/>
				</g>
				<rect x="0" y="527.695" width="51.0236" height="25.5118" class="st3"/>
			</g>
			<g id="shape3-7" v:mID="3" v:groupContext="shape" transform="translate(17.0079,-29.0551)">
				<title>Sheet.3</title>
				<g id="shadow3-8" v:groupContext="shadow" v:shadowOffsetX="0.345598" v:shadowOffsetY="-1.97279" v:shadowType="1"
						transform="matrix(1,0,0,1,0.345598,1.97279)" class="st1">
					<path d="M8.5 553.21 a0 0 0 1 1 0 0 a0 0 0 1 1 0 0 Z" class="st2"/>
				</g>
				<path d="M8.5 553.21 a0 0 0 1 1 0 0 a0 0 0 1 1 0 0 Z" class="st3"/>
			</g>
			<g id="shape4-12" v:mID="4" v:groupContext="shape" transform="translate(17.0079,411.631)">
				<title>Sheet.4</title>
				<g id="shadow4-13" v:groupContext="shadow" v:shadowOffsetX="0.345598" v:shadowOffsetY="-1.97279" v:shadowType="1"
						transform="matrix(1,0,0,1,0.345598,1.97279)" class="st1"/>
			</g>
			<g id="shape5-17" v:mID="5" v:groupContext="shape" transform="translate(578.719,553.207) rotate(90)">
				<title>Sheet.5</title>
				<path d="M0 553.21 L394.02 553.21" class="st4"/>
			</g>
			<g id="shape1-20" v:mID="1" v:groupContext="groupContent">
				<v:textBlock v:margins="rect(4,4,4,4)" v:tabSpace="42.5197"/>
				<v:textRect cx="25.5118" cy="540.451" width="51.03" height="25.5118"/>
				<g id="shadow1-21" v:groupContext="shadow" v:shadowOffsetX="0.345598" v:shadowOffsetY="-1.97279" v:shadowType="1"
						transform="matrix(1,0,0,1,0.345598,1.97279)" class="st1">
					<rect x="0" y="527.695" width="51.0236" height="25.5118" class="st2"/>
				</g>
				<rect x="0" y="527.695" width="51.0236" height="25.5118" class="st3"/>
				<text x="16.2" y="544.05" class="st5" v:langID="1044"><v:paragraph v:horizAlign="1"/><v:tabList/>PEP</text>			</g>
		</g>
		<g id="group6-26" transform="translate(242.646,-522.425)" v:mID="6" v:groupContext="group">
			<v:userDefs>
				<v:ud v:nameU="visVersion" v:prompt="" v:val="VT0(15):26"/>
				<v:ud v:nameU="ShowActor" v:prompt="" v:val="VT0(0):5"/>
				<v:ud v:nameU="ShowDestruction" v:prompt="" v:val="VT0(0):5"/>
			</v:userDefs>
			<title>Object lifeline.6</title>
			<desc>PDP</desc>
			<g id="shape7-27" v:mID="7" v:groupContext="shape">
				<title>Sheet.7</title>
				<g id="shadow7-28" v:groupContext="shadow" v:shadowOffsetX="0.345598" v:shadowOffsetY="-1.97279" v:shadowType="1"
						transform="matrix(1,0,0,1,0.345598,1.97279)" class="st1">
					<rect x="0" y="527.695" width="51.0236" height="25.5118" class="st2"/>
				</g>
				<rect x="0" y="527.695" width="51.0236" height="25.5118" class="st3"/>
			</g>
			<g id="shape8-32" v:mID="8" v:groupContext="shape" transform="translate(17.0079,-29.0551)">
				<title>Sheet.8</title>
				<g id="shadow8-33" v:groupContext="shadow" v:shadowOffsetX="0.345598" v:shadowOffsetY="-1.97279" v:shadowType="1"
						transform="matrix(1,0,0,1,0.345598,1.97279)" class="st1">
					<path d="M8.5 553.21 a0 0 0 1 1 0 0 a0 0 0 1 1 0 0 Z" class="st2"/>
				</g>
				<path d="M8.5 553.21 a0 0 0 1 1 0 0 a0 0 0 1 1 0 0 Z" class="st3"/>
			</g>
			<g id="shape9-37" v:mID="9" v:groupContext="shape" transform="translate(17.0079,411.631)">
				<title>Sheet.9</title>
				<g id="shadow9-38" v:groupContext="shadow" v:shadowOffsetX="0.345598" v:shadowOffsetY="-1.97279" v:shadowType="1"
						transform="matrix(1,0,0,1,0.345598,1.97279)" class="st1"/>
			</g>
			<g id="shape10-42" v:mID="10" v:groupContext="shape" transform="translate(578.719,553.207) rotate(90)">
				<title>Sheet.10</title>
				<path d="M0 553.21 L394.02 553.21" class="st4"/>
			</g>
			<g id="shape6-45" v:mID="6" v:groupContext="groupContent">
				<v:textBlock v:margins="rect(4,4,4,4)" v:tabSpace="42.5197"/>
				<v:textRect cx="25.5118" cy="540.451" width="51.03" height="25.5118"/>
				<g id="shadow6-46" v:groupContext="shadow" v:shadowOffsetX="0.345598" v:shadowOffsetY="-1.97279" v:shadowType="1"
						transform="matrix(1,0,0,1,0.345598,1.97279)" class="st1">
					<rect x="0" y="527.695" width="51.0236" height="25.5118" class="st2"/>
				</g>
				<rect x="0" y="527.695" width="51.0236" height="25.5118" class="st3"/>
				<text x="15.34" y="544.05" class="st5" v:langID="1044"><v:paragraph v:horizAlign="1"/><v:tabList/>PDP</text>			</g>
		</g>
		<g id="group11-51" transform="translate(463.748,-522.425)" v:mID="11" v:groupContext="group">
			<v:userDefs>
				<v:ud v:nameU="visVersion" v:prompt="" v:val="VT0(15):26"/>
				<v:ud v:nameU="ShowActor" v:prompt="" v:val="VT0(0):5"/>
				<v:ud v:nameU="ShowDestruction" v:prompt="" v:val="VT0(0):5"/>
			</v:userDefs>
			<title>Object lifeline.11</title>
			<desc>PIP ASA</desc>
			<g id="shape12-52" v:mID="12" v:groupContext="shape">
				<title>Sheet.12</title>
				<g id="shadow12-53" v:groupContext="shadow" v:shadowOffsetX="0.345598" v:shadowOffsetY="-1.97279" v:shadowType="1"
						transform="matrix(1,0,0,1,0.345598,1.97279)" class="st1">
					<rect x="0" y="527.695" width="51.0236" height="25.5118" class="st2"/>
				</g>
				<rect x="0" y="527.695" width="51.0236" height="25.5118" class="st3"/>
			</g>
			<g id="shape13-57" v:mID="13" v:groupContext="shape" transform="translate(17.0079,-29.0551)">
				<title>Sheet.13</title>
				<g id="shadow13-58" v:groupContext="shadow" v:shadowOffsetX="0.345598" v:shadowOffsetY="-1.97279" v:shadowType="1"
						transform="matrix(1,0,0,1,0.345598,1.97279)" class="st1">
					<path d="M8.5 553.21 a0 0 0 1 1 0 0 a0 0 0 1 1 0 0 Z" class="st2"/>
				</g>
				<path d="M8.5 553.21 a0 0 0 1 1 0 0 a0 0 0 1 1 0 0 Z" class="st3"/>
			</g>
			<g id="shape14-62" v:mID="14" v:groupContext="shape" transform="translate(17.0079,411.631)">
				<title>Sheet.14</title>
				<g id="shadow14-63" v:groupContext="shadow" v:shadowOffsetX="0.345598" v:shadowOffsetY="-1.97279" v:shadowType="1"
						transform="matrix(1,0,0,1,0.345598,1.97279)" class="st1"/>
			</g>
			<g id="shape15-67" v:mID="15" v:groupContext="shape" transform="translate(578.719,553.207) rotate(90)">
				<title>Sheet.15</title>
				<path d="M0 553.21 L394.02 553.21" class="st4"/>
			</g>
			<g id="shape11-70" v:mID="11" v:groupContext="groupContent">
				<v:textBlock v:margins="rect(4,4,4,4)" v:tabSpace="42.5197"/>
				<v:textRect cx="25.5118" cy="540.451" width="51.03" height="25.5118"/>
				<g id="shadow11-71" v:groupContext="shadow" v:shadowOffsetX="0.345598" v:shadowOffsetY="-1.97279" v:shadowType="1"
						transform="matrix(1,0,0,1,0.345598,1.97279)" class="st1">
					<rect x="0" y="527.695" width="51.0236" height="25.5118" class="st2"/>
				</g>
				<rect x="0" y="527.695" width="51.0236" height="25.5118" class="st3"/>
				<text x="6.06" y="544.05" class="st5" v:langID="1044"><v:paragraph v:horizAlign="1"/><v:tabList/>PIP ASA</text>			</g>
		</g>
		<g id="shape16-76" v:mID="16" v:groupContext="shape" v:layerMember="0" transform="translate(143.433,-498.331)">
			<title>Message</title>
			<desc>AuthorizeAccess</desc>
			<v:userDefs>
				<v:ud v:nameU="IsReturn" v:prompt="" v:val="VT0(0):5"/>
				<v:ud v:nameU="IsAsync" v:prompt="" v:val="VT0(0):26"/>
				<v:ud v:nameU="IsSelfMessage" v:prompt="" v:val="VT0(0):5"/>
				<v:ud v:nameU="visVersion" v:prompt="" v:val="VT0(15):26"/>
			</v:userDefs>
			<v:textBlock v:margins="rect(4,4,4,4)" v:tabSpace="42.5197"/>
			<v:textRect cx="62.3622" cy="546.12" width="63.15" height="17.6036"/>
			<path d="M0 546.12 L116.24 546.12" class="st6"/>
			<rect v:rectContext="textBkgnd" x="35.6967" y="541.321" width="53.3312" height="9.59985" class="st8"/>
			<text x="35.7" y="548.52" class="st9" v:langID="1044"><v:paragraph v:horizAlign="1"/><v:tabList/>AuthorizeAccess</text>		</g>
		<g id="group17-84" transform="translate(565.795,-522.425)" v:mID="17" v:groupContext="group">
			<v:userDefs>
				<v:ud v:nameU="visVersion" v:prompt="" v:val="VT0(15):26"/>
				<v:ud v:nameU="ShowActor" v:prompt="" v:val="VT0(0):5"/>
				<v:ud v:nameU="ShowDestruction" v:prompt="" v:val="VT0(0):5"/>
			</v:userDefs>
			<title>Object lifeline.17</title>
			<desc>PIP A2</desc>
			<g id="shape18-85" v:mID="18" v:groupContext="shape">
				<title>Sheet.18</title>
				<g id="shadow18-86" v:groupContext="shadow" v:shadowOffsetX="0.345598" v:shadowOffsetY="-1.97279" v:shadowType="1"
						transform="matrix(1,0,0,1,0.345598,1.97279)" class="st1">
					<rect x="0" y="527.695" width="51.0236" height="25.5118" class="st2"/>
				</g>
				<rect x="0" y="527.695" width="51.0236" height="25.5118" class="st3"/>
			</g>
			<g id="shape19-90" v:mID="19" v:groupContext="shape" transform="translate(17.0079,-29.0551)">
				<title>Sheet.19</title>
				<g id="shadow19-91" v:groupContext="shadow" v:shadowOffsetX="0.345598" v:shadowOffsetY="-1.97279" v:shadowType="1"
						transform="matrix(1,0,0,1,0.345598,1.97279)" class="st1">
					<path d="M8.5 553.21 a0 0 0 1 1 0 0 a0 0 0 1 1 0 0 Z" class="st2"/>
				</g>
				<path d="M8.5 553.21 a0 0 0 1 1 0 0 a0 0 0 1 1 0 0 Z" class="st3"/>
			</g>
			<g id="shape20-95" v:mID="20" v:groupContext="shape" transform="translate(17.0079,417.3)">
				<title>Sheet.20</title>
				<g id="shadow20-96" v:groupContext="shadow" v:shadowOffsetX="0.345598" v:shadowOffsetY="-1.97279" v:shadowType="1"
						transform="matrix(1,0,0,1,0.345598,1.97279)" class="st1"/>
			</g>
			<g id="shape21-100" v:mID="21" v:groupContext="shape" transform="translate(578.719,553.207) rotate(90)">
				<title>Sheet.21</title>
				<path d="M0 553.21 L399.69 553.21" class="st4"/>
			</g>
			<g id="shape17-103" v:mID="17" v:groupContext="groupContent">
				<v:textBlock v:margins="rect(4,4,4,4)" v:tabSpace="42.5197"/>
				<v:textRect cx="25.5118" cy="540.451" width="51.03" height="25.5118"/>
				<g id="shadow17-104" v:groupContext="shadow" v:shadowOffsetX="0.345598" v:shadowOffsetY="-1.97279" v:shadowType="1"
						transform="matrix(1,0,0,1,0.345598,1.97279)" class="st1">
					<rect x="0" y="527.695" width="51.0236" height="25.5118" class="st2"/>
				</g>
				<rect x="0" y="527.695" width="51.0236" height="25.5118" class="st3"/>
				<text x="9.49" y="544.05" class="st5" v:langID="1044"><v:paragraph v:horizAlign="1"/><v:tabList/>PIP A2</text>			</g>
		</g>
		<g id="shape22-109" v:mID="22" v:groupContext="shape" v:layerMember="0" transform="translate(268.158,-481.323)">
			<title>Message.22</title>
			<desc>GetContext</desc>
			<v:userDefs>
				<v:ud v:nameU="IsReturn" v:prompt="" v:val="VT0(0):5"/>
				<v:ud v:nameU="IsAsync" v:prompt="" v:val="VT0(0):26"/>
				<v:ud v:nameU="IsSelfMessage" v:prompt="" v:val="VT0(0):5"/>
				<v:ud v:nameU="visVersion" v:prompt="" v:val="VT0(15):26"/>
			</v:userDefs>
			<v:textBlock v:margins="rect(4,4,4,4)" v:tabSpace="42.5197"/>
			<v:textRect cx="59.5276" cy="546.12" width="47.02" height="17.6036"/>
			<path d="M0 546.12 L110.58 546.12" class="st6"/>
			<rect v:rectContext="textBkgnd" x="40.9284" y="541.321" width="37.1986" height="9.59985" class="st8"/>
			<text x="40.93" y="548.52" class="st9" v:langID="1044"><v:paragraph v:horizAlign="1"/><v:tabList/>GetContext</text>		</g>
		<g id="group23-116" transform="translate(361.701,-522.425)" v:mID="23" v:groupContext="group">
			<v:userDefs>
				<v:ud v:nameU="visVersion" v:prompt="" v:val="VT0(15):26"/>
				<v:ud v:nameU="ShowActor" v:prompt="" v:val="VT0(0):5"/>
				<v:ud v:nameU="ShowDestruction" v:prompt="" v:val="VT0(0):5"/>
			</v:userDefs>
			<title>Object lifeline.23</title>
			<desc>ContextHandler</desc>
			<g id="shape24-117" v:mID="24" v:groupContext="shape">
				<title>Sheet.24</title>
				<g id="shadow24-118" v:groupContext="shadow" v:shadowOffsetX="0.345598" v:shadowOffsetY="-1.97279" v:shadowType="1"
						transform="matrix(1,0,0,1,0.345598,1.97279)" class="st1">
					<rect x="0" y="527.695" width="51.0236" height="25.5118" class="st2"/>
				</g>
				<rect x="0" y="527.695" width="51.0236" height="25.5118" class="st3"/>
			</g>
			<g id="shape25-122" v:mID="25" v:groupContext="shape" transform="translate(17.0079,-29.0551)">
				<title>Sheet.25</title>
				<g id="shadow25-123" v:groupContext="shadow" v:shadowOffsetX="0.345598" v:shadowOffsetY="-1.97279" v:shadowType="1"
						transform="matrix(1,0,0,1,0.345598,1.97279)" class="st1">
					<path d="M8.5 553.21 a0 0 0 1 1 0 0 a0 0 0 1 1 0 0 Z" class="st2"/>
				</g>
				<path d="M8.5 553.21 a0 0 0 1 1 0 0 a0 0 0 1 1 0 0 Z" class="st3"/>
			</g>
			<g id="shape26-127" v:mID="26" v:groupContext="shape" transform="translate(17.0079,411.631)">
				<title>Sheet.26</title>
				<g id="shadow26-128" v:groupContext="shadow" v:shadowOffsetX="0.345598" v:shadowOffsetY="-1.97279" v:shadowType="1"
						transform="matrix(1,0,0,1,0.345598,1.97279)" class="st1"/>
			</g>
			<g id="shape27-132" v:mID="27" v:groupContext="shape" transform="translate(578.719,553.207) rotate(90)">
				<title>Sheet.27</title>
				<path d="M0 553.21 L394.02 553.21" class="st4"/>
			</g>
			<g id="shape23-135" v:mID="23" v:groupContext="groupContent">
				<v:textBlock v:margins="rect(4,4,4,4)" v:tabSpace="42.5197"/>
				<v:textRect cx="25.5118" cy="540.451" width="51.03" height="25.5118"/>
				<g id="shadow23-136" v:groupContext="shadow" v:shadowOffsetX="0.345598" v:shadowOffsetY="-1.97279" v:shadowType="1"
						transform="matrix(1,0,0,1,0.345598,1.97279)" class="st1">
					<rect x="0" y="527.695" width="51.0236" height="25.5118" class="st2"/>
				</g>
				<rect x="0" y="527.695" width="51.0236" height="25.5118" class="st3"/>
				<text x="5.95" y="536.85" class="st5" v:langID="1044"><v:paragraph v:horizAlign="1"/><v:tabList/>Context<tspan
							x="5.7" dy="1.2em" class="st10">Handler</tspan></text>			</g>
		</g>
		<g id="shape28-142" v:mID="28" v:groupContext="shape" v:layerMember="0" transform="translate(387.213,-464.315)">
			<title>Return Message</title>
			<desc>ContextInfo</desc>
			<v:userDefs>
				<v:ud v:nameU="IsReturn" v:prompt="" v:val="VT0(1):5"/>
				<v:ud v:nameU="IsAsync" v:prompt="" v:val="VT0(0):26"/>
				<v:ud v:nameU="IsSelfMessage" v:prompt="" v:val="VT0(0):5"/>
				<v:ud v:nameU="visVersion" v:prompt="" v:val="VT0(15):26"/>
			</v:userDefs>
			<v:textBlock v:margins="rect(4,4,4,4)" v:tabSpace="42.5197"/>
			<v:textRect cx="-59.5276" cy="546.12" width="48.19" height="17.6036"/>
			<path d="M0 546.12 L-119.06 546.12" class="st11"/>
			<rect v:rectContext="textBkgnd" x="-78.7129" y="541.321" width="38.3708" height="9.59985" class="st8"/>
			<text x="-78.71" y="548.52" class="st9" v:langID="1044"><v:paragraph v:horizAlign="1"/><v:tabList/>ContextInfo</text>		</g>
		<g id="shape29-150" v:mID="29" v:groupContext="shape" v:layerMember="0" transform="translate(268.158,-444.472)">
			<title>Message.29</title>
			<desc>GetRules(appId)</desc>
			<v:userDefs>
				<v:ud v:nameU="IsReturn" v:prompt="" v:val="VT0(0):5"/>
				<v:ud v:nameU="IsAsync" v:prompt="" v:val="VT0(0):26"/>
				<v:ud v:nameU="IsSelfMessage" v:prompt="" v:val="VT0(0):5"/>
				<v:ud v:nameU="visVersion" v:prompt="" v:val="VT0(15):26"/>
			</v:userDefs>
			<v:textBlock v:margins="rect(4,4,4,4)" v:tabSpace="42.5197"/>
			<v:textRect cx="110.551" cy="546.12" width="62.32" height="17.6036"/>
			<path d="M0 546.12 L212.62 546.12" class="st6"/>
			<rect v:rectContext="textBkgnd" x="84.2977" y="541.321" width="52.5072" height="9.59985" class="st8"/>
			<text x="84.3" y="548.52" class="st9" v:langID="1044"><v:paragraph v:horizAlign="1"/><v:tabList/>GetRules(appId)</text>		</g>
		<g id="shape30-157" v:mID="30" v:groupContext="shape" v:layerMember="0" transform="translate(489.26,-430.299)">
			<title>Return Message.30</title>
			<v:userDefs>
				<v:ud v:nameU="IsReturn" v:prompt="" v:val="VT0(1):5"/>
				<v:ud v:nameU="IsAsync" v:prompt="" v:val="VT0(0):26"/>
				<v:ud v:nameU="IsSelfMessage" v:prompt="" v:val="VT0(0):5"/>
				<v:ud v:nameU="visVersion" v:prompt="" v:val="VT0(15):26"/>
			</v:userDefs>
			<path d="M0 546.12 L-221.1 546.12" class="st11"/>
		</g>
		<g id="shape31-162" v:mID="31" v:groupContext="shape" v:layerMember="0" transform="translate(268.158,-401.953)">
			<title>Message.31</title>
			<desc>GetRoles</desc>
			<v:userDefs>
				<v:ud v:nameU="IsReturn" v:prompt="" v:val="VT0(0):5"/>
				<v:ud v:nameU="IsAsync" v:prompt="" v:val="VT0(0):26"/>
				<v:ud v:nameU="IsSelfMessage" v:prompt="" v:val="VT0(0):5"/>
				<v:ud v:nameU="visVersion" v:prompt="" v:val="VT0(15):26"/>
			</v:userDefs>
			<v:textBlock v:margins="rect(4,4,4,4)" v:tabSpace="42.5197"/>
			<v:textRect cx="161.575" cy="546.12" width="40" height="17.6036"/>
			<path d="M0 546.12 L314.67 546.12" class="st6"/>
			<rect v:rectContext="textBkgnd" x="146.968" y="541.321" width="29.2143" height="9.59985" class="st8"/>
			<text x="146.97" y="548.52" class="st9" v:langID="1044"><v:paragraph v:horizAlign="1"/><v:tabList/>GetRoles</text>		</g>
		<g id="shape32-169" v:mID="32" v:groupContext="shape" v:layerMember="0" transform="translate(591.307,-387.78)">
			<title>Return Message.32</title>
			<desc>Roles</desc>
			<v:userDefs>
				<v:ud v:nameU="IsReturn" v:prompt="" v:val="VT0(1):5"/>
				<v:ud v:nameU="IsAsync" v:prompt="" v:val="VT0(0):26"/>
				<v:ud v:nameU="IsSelfMessage" v:prompt="" v:val="VT0(0):5"/>
				<v:ud v:nameU="visVersion" v:prompt="" v:val="VT0(15):26"/>
			</v:userDefs>
			<v:textBlock v:margins="rect(4,4,4,4)" v:tabSpace="42.5197"/>
			<v:textRect cx="-161.575" cy="546.12" width="40" height="17.6036"/>
			<path d="M0 546.12 L-323.15 546.12" class="st11"/>
			<rect v:rectContext="textBkgnd" x="-170.329" y="541.321" width="17.5075" height="9.59985" class="st8"/>
			<text x="-170.33" y="548.52" class="st9" v:langID="1044"><v:paragraph v:horizAlign="1"/><v:tabList/>Roles</text>		</g>
		<g id="shape33-176" v:mID="33" v:groupContext="shape" v:layerMember="0" transform="translate(275.244,-380.693)">
			<title>Self Message</title>
			<desc>AuthorizeBasedOnRulesForRoles</desc>
			<v:userDefs>
				<v:ud v:nameU="IsReturn" v:prompt="" v:val="VT0(0):5"/>
				<v:ud v:nameU="IsAsync" v:prompt="" v:val="VT0(0):26"/>
				<v:ud v:nameU="IsSelfMessage" v:prompt="" v:val="VT0(1):5"/>
				<v:ud v:nameU="visVersion" v:prompt="" v:val="VT0(15):26"/>
			</v:userDefs>
			<v:textBlock v:margins="rect(4,4,4,4)" v:tabSpace="42.5197"/>
			<v:textRect cx="-7.08661" cy="563.128" width="116.19" height="17.6036"/>
			<path d="M-7.09 553.21 L10.91 553.21 L10.91 573.05 L1.39 573.05" class="st6"/>
			<rect v:rectContext="textBkgnd" x="-60.2753" y="558.328" width="106.378" height="9.59985" class="st8"/>
			<text x="-60.28" y="565.53" class="st9" v:langID="1044"><v:paragraph v:horizAlign="1"/><v:tabList/>AuthorizeBasedOnRulesForRoles</text>		</g>
		<g id="group39-183" transform="translate(174.614,-185.102)" v:mID="39" v:groupContext="group">
			<v:userDefs>
				<v:ud v:nameU="visVersion" v:prompt="" v:val="VT0(15):26"/>
			</v:userDefs>
			<title>Optional fragment</title>
			<g id="shape39-184" v:mID="39" v:groupContext="groupContent">
				<rect x="0" y="408.64" width="493.228" height="144.567" class="st12"/>
			</g>
			<g id="shape40-186" v:mID="40" v:groupContext="shape" transform="translate(0,-126.963)">
				<title>Sheet.40</title>
				<desc>IfNotAuthorized</desc>
				<v:userDefs>
					<v:ud v:nameU="FoldSize" v:prompt="" v:val="VT0(0.098425196850394):24"/>
					<v:ud v:nameU="BackFillColor" v:prompt="" v:val="VT5(#96afcf)"/>
					<v:ud v:nameU="BackLineColor" v:prompt="" v:val="VT5(#1f477d)"/>
					<v:ud v:nameU="BackCharColor" v:prompt="" v:val="VT5(#000000)"/>
					<v:ud v:nameU="DarkerColor" v:prompt="" v:val="VT5(#000000)"/>
					<v:ud v:nameU="BackFillColor" v:prompt="" v:val="VT5(#5b9bd5)"/>
					<v:ud v:nameU="BackLineColor" v:prompt="" v:val="VT5(#4f88bb)"/>
					<v:ud v:nameU="BackCharColor" v:prompt="" v:val="VT5(#4f88bb)"/>
					<v:ud v:nameU="DarkerColor" v:prompt="" v:val="VT5(#4f88bb)"/>
				</v:userDefs>
				<v:textBlock v:margins="rect(4,4,4,4)" v:tabSpace="42.5197"/>
				<v:textRect cx="32" cy="544.405" width="64" height="17.6036"/>
				<path d="M0 553.21 L56.91 553.21 L64 546.12 L64 535.6 L0 535.6 L0 553.21 Z" class="st13"/>
				<text x="4" y="546.81" class="st14" v:langID="1044"><v:paragraph/><v:tabList/>IfNotAuthorized</text>			</g>
		</g>
		<g id="shape42-189" v:mID="42" v:groupContext="shape" v:layerMember="0" transform="translate(268.158,-280.063)">
			<title>Message.42</title>
			<desc>GetDelegatedRules</desc>
			<v:userDefs>
				<v:ud v:nameU="IsReturn" v:prompt="" v:val="VT0(0):5"/>
				<v:ud v:nameU="IsAsync" v:prompt="" v:val="VT0(0):26"/>
				<v:ud v:nameU="IsSelfMessage" v:prompt="" v:val="VT0(0):5"/>
				<v:ud v:nameU="visVersion" v:prompt="" v:val="VT0(15):26"/>
			</v:userDefs>
			<v:textBlock v:margins="rect(4,4,4,4)" v:tabSpace="42.5197"/>
			<v:textRect cx="161.575" cy="546.12" width="72.19" height="17.6036"/>
			<path d="M0 546.12 L314.67 546.12" class="st6"/>
			<rect v:rectContext="textBkgnd" x="130.386" y="541.321" width="62.3776" height="9.59985" class="st8"/>
			<text x="130.39" y="548.52" class="st9" v:langID="1044"><v:paragraph v:horizAlign="1"/><v:tabList/>GetDelegatedRules</text>		</g>
		<g id="shape44-196" v:mID="44" v:groupContext="shape" v:layerMember="0" transform="translate(591.307,-260.22)">
			<title>Return Message.44</title>
			<desc>Rules</desc>
			<v:userDefs>
				<v:ud v:nameU="IsReturn" v:prompt="" v:val="VT0(1):5"/>
				<v:ud v:nameU="IsAsync" v:prompt="" v:val="VT0(0):26"/>
				<v:ud v:nameU="IsSelfMessage" v:prompt="" v:val="VT0(0):5"/>
				<v:ud v:nameU="visVersion" v:prompt="" v:val="VT0(15):26"/>
			</v:userDefs>
			<v:textBlock v:margins="rect(4,4,4,4)" v:tabSpace="42.5197"/>
			<v:textRect cx="-161.575" cy="546.12" width="40" height="17.6036"/>
			<path d="M0 546.12 L-323.15 546.12" class="st11"/>
			<rect v:rectContext="textBkgnd" x="-170.321" y="541.321" width="17.4919" height="9.59985" class="st8"/>
			<text x="-170.32" y="548.52" class="st9" v:langID="1044"><v:paragraph v:horizAlign="1"/><v:tabList/>Rules</text>		</g>
		<g id="shape45-203" v:mID="45" v:groupContext="shape" v:layerMember="0" transform="translate(261.071,-253.134)">
			<title>Self Message.45</title>
			<desc>AuthorizeBasedonDelegatedRules</desc>
			<v:userDefs>
				<v:ud v:nameU="IsReturn" v:prompt="" v:val="VT0(0):5"/>
				<v:ud v:nameU="IsAsync" v:prompt="" v:val="VT0(0):26"/>
				<v:ud v:nameU="IsSelfMessage" v:prompt="" v:val="VT0(1):5"/>
				<v:ud v:nameU="visVersion" v:prompt="" v:val="VT0(15):26"/>
			</v:userDefs>
			<v:textBlock v:margins="rect(4,4,4,4)" v:tabSpace="42.5197"/>
			<v:textRect cx="7.08661" cy="571.632" width="120.1" height="17.6036"/>
			<path d="M7.09 553.21 L25.09 553.21 L25.09 590.06 L15.57 590.06" class="st6"/>
			<rect v:rectContext="textBkgnd" x="-48.057" y="566.832" width="110.287" height="9.59985" class="st8"/>
			<text x="-48.06" y="574.03" class="st9" v:langID="1044"><v:paragraph v:horizAlign="1"/><v:tabList/>AuthorizeBasedonDelegatedRules</text>		</g>
		<g id="shape46-210" v:mID="46" v:groupContext="shape" v:layerMember="0" transform="translate(268.158,-175.181)">
			<title>Return Message.46</title>
			<desc>AuthorizationDecision</desc>
			<v:userDefs>
				<v:ud v:nameU="IsReturn" v:prompt="" v:val="VT0(1):5"/>
				<v:ud v:nameU="IsAsync" v:prompt="" v:val="VT0(0):26"/>
				<v:ud v:nameU="IsSelfMessage" v:prompt="" v:val="VT0(0):5"/>
				<v:ud v:nameU="visVersion" v:prompt="" v:val="VT0(15):26"/>
			</v:userDefs>
			<v:textBlock v:margins="rect(4,4,4,4)" v:tabSpace="42.5197"/>
			<v:textRect cx="-62.3622" cy="560.294" width="81.81" height="17.6036"/>
			<path d="M0 560.29 L-124.72 560.29" class="st11"/>
			<rect v:rectContext="textBkgnd" x="-98.3596" y="555.494" width="71.9951" height="9.59985" class="st8"/>
			<text x="-98.36" y="562.69" class="st9" v:langID="1044"><v:paragraph v:horizAlign="1"/><v:tabList/>AuthorizationDecision</text>		</g>
	</g>
</svg>
